M48
; DRILL file {KiCad 7.0.11-7.0.11~ubuntu22.04.1} date Wed 10 Jul 2024 21:13:57 -03
; FORMAT={-:-/ absolute / inch / decimal}
; #@! TF.CreationDate,2024-07-10T21:13:57-03:00
; #@! TF.GenerationSoftware,Kicad,Pcbnew,7.0.11-7.0.11~ubuntu22.04.1
; #@! TF.FileFunction,Plated,1,4,PTH
FMAT,2
INCH
; #@! TA.AperFunction,Plated,PTH,ViaDrill
T1C0.0118
; #@! TA.AperFunction,Plated,PTH,ViaDrill
T2C0.0276
; #@! TA.AperFunction,Plated,PTH,ComponentDrill
T3C0.0276
; #@! TA.AperFunction,Plated,PTH,ComponentDrill
T4C0.0295
; #@! TA.AperFunction,Plated,PTH,ComponentDrill
T5C0.0354
; #@! TA.AperFunction,Plated,PTH,ComponentDrill
T6C0.0394
; #@! TA.AperFunction,Plated,PTH,ComponentDrill
T7C0.0402
%
G90
G05
T1
X4.7047Y-3.4921
X4.7795Y-4.0472
X4.9055Y-3.5
X5.0118Y-2.9724
X5.7992Y-2.8465
X6.3606Y-4.2417
X6.7087Y-4.2047
X6.8228Y-3.6299
X7.0236Y-3.2559
X7.1496Y-2.8976
X7.1535Y-3.0236
X7.1614Y-2.8346
X7.1614Y-2.9685
X7.1614Y-4.1142
X7.1654Y-2.6102
T2
X5.4409Y-3.7992
X5.6122Y-3.6594
X6.6476Y-3.7795
X6.685Y-3.8839
X6.8406Y-3.9075
T3
X4.4528Y-3.6142
X4.4528Y-3.8142
T4
X4.8634Y-3.7311
X4.9134Y-3.6811
X4.9634Y-3.7311
T5
X4.9323Y-4.1457
X5.2323Y-4.1457
T6
X4.3228Y-3.1598
X4.3228Y-3.2598
X4.3606Y-4.3252
X4.3606Y-4.4252
X4.4228Y-3.1598
X4.4228Y-3.2598
X4.4606Y-4.3252
X4.4606Y-4.4252
X4.5228Y-3.1598
X4.5228Y-3.2598
X4.5606Y-4.3252
X4.5606Y-4.4252
X4.6228Y-3.1598
X4.6228Y-3.2598
X4.6606Y-4.3252
X4.6606Y-4.4252
X4.7228Y-3.1598
X4.7228Y-3.2598
X4.7606Y-4.3252
X4.7606Y-4.4252
X4.8228Y-3.1598
X4.8228Y-3.2598
X4.8606Y-4.3252
X4.8606Y-4.4252
X4.9606Y-4.3252
X4.9606Y-4.4252
X5.0606Y-4.3252
X5.0606Y-4.4252
X5.1606Y-4.3252
X5.1606Y-4.4252
X5.2606Y-4.3252
X5.2606Y-4.4252
X5.3606Y-4.3252
X5.3606Y-4.4252
X5.4606Y-4.3252
X5.4606Y-4.4252
X5.5606Y-4.3252
X5.5606Y-4.4252
X5.6606Y-4.3252
X5.6606Y-4.4252
X5.7606Y-4.3252
X5.7606Y-4.4252
X5.8606Y-4.3252
X5.8606Y-4.4252
X5.9606Y-4.3252
X5.9606Y-4.4252
X6.0606Y-4.3252
X6.0606Y-4.4252
X6.1606Y-4.3252
X6.1606Y-4.4252
X6.2606Y-4.3252
X6.2606Y-4.4252
X6.3606Y-4.3252
X6.3606Y-4.4252
X6.4606Y-4.3252
X6.4606Y-4.4252
X6.5606Y-4.3252
X6.5606Y-4.4252
X6.6606Y-4.3252
X6.6606Y-4.4252
X6.7606Y-4.3252
X6.7606Y-4.4252
X6.8606Y-4.3252
X6.8606Y-4.4252
X6.9606Y-4.3252
X6.9606Y-4.4252
X7.0606Y-4.3252
X7.0606Y-4.4252
X7.1606Y-4.3252
X7.1606Y-4.4252
X7.2606Y-4.3252
X7.2606Y-4.4252
T7
X5.1228Y-2.7213
X5.1228Y-3.4213
X5.2228Y-2.7213
X5.2228Y-3.4213
X5.3228Y-2.7213
X5.3228Y-3.4213
X5.4228Y-2.7213
X5.4228Y-3.4213
X5.5228Y-2.7213
X5.5228Y-3.4213
X5.6228Y-2.7213
X5.6228Y-3.4213
X5.7228Y-2.7213
X5.7228Y-3.4213
X5.8228Y-2.7213
X5.8228Y-3.4213
X5.9228Y-2.7213
X5.9228Y-3.4213
X6.0228Y-2.7213
X6.0228Y-3.4213
X6.1228Y-2.7213
X6.1228Y-3.4213
X6.2228Y-2.7213
X6.2228Y-3.4213
X6.3228Y-2.7213
X6.3228Y-3.4213
X6.4228Y-2.7213
X6.4228Y-3.4213
X6.5228Y-2.7213
X6.5228Y-3.4213
X6.6228Y-2.7213
X6.6228Y-3.4213
X6.7228Y-2.7213
X6.7228Y-3.4213
X6.8228Y-2.7213
X6.8228Y-3.4213
X6.9228Y-2.7213
X6.9228Y-3.4213
X7.0138Y-2.9713
X7.0138Y-3.0713
X7.0138Y-3.1713
X7.0228Y-2.7213
X7.0228Y-3.4213
M30
