M48
; DRILL file {KiCad 8.0.9-8.0.9-0~ubuntu22.04.1} date 2025-05-23T21:37:58-0300
; FORMAT={-:-/ absolute / inch / decimal}
; #@! TF.CreationDate,2025-05-23T21:37:58-03:00
; #@! TF.GenerationSoftware,Kicad,Pcbnew,8.0.9-8.0.9-0~ubuntu22.04.1
; #@! TF.FileFunction,Plated,1,2,PTH
FMAT,2
INCH
; #@! TA.AperFunction,Plated,PTH,ViaDrill
T1C0.0157
; #@! TA.AperFunction,Plated,PTH,ComponentDrill
T2C0.0295
; #@! TA.AperFunction,Plated,PTH,ComponentDrill
T3C0.0315
; #@! TA.AperFunction,Plated,PTH,ComponentDrill
T4C0.0394
; #@! TA.AperFunction,Plated,PTH,ComponentDrill
T5C0.0402
%
G90
G05
T1
X4.7303Y-3.7303
X4.7539Y-3.6516
X4.8169Y-3.3819
X4.9606Y-3.0295
X4.9606Y-3.376
X4.9724Y-3.5591
X5.002Y-3.4705
X5.0472Y-3.874
X5.3602Y-3.7736
X5.3701Y-3.0354
X5.3819Y-4.0098
X5.4272Y-3.2047
X5.4803Y-3.2283
X5.5689Y-3.1398
X5.6299Y-3.1929
X5.9547Y-2.9075
X6.124Y-3.2283
X6.1654Y-3.7634
X6.3071Y-3.6949
X6.4055Y-3.9882
X6.4961Y-3.8248
X6.6102Y-4.0512
X6.7343Y-3.689
X6.7677Y-3.8937
X6.8681Y-3.2303
X7.0315Y-2.815
X7.0335Y-3.2874
X7.1535Y-3.7224
X7.1555Y-2.6654
X7.252Y-2.8346
X7.2835Y-2.9764
X7.315Y-2.8307
T2
X6.8516Y-3.6917
X6.9016Y-3.6417
X6.9016Y-3.7417
T3
X5.8425Y-3.7476
X5.8425Y-4.0476
T4
X4.3228Y-3.0417
X4.3228Y-3.1417
X4.3606Y-4.2268
X4.3606Y-4.3268
X4.4228Y-3.0417
X4.4228Y-3.1417
X4.4606Y-4.2268
X4.4606Y-4.3268
X4.5228Y-3.0417
X4.5228Y-3.1417
X4.5606Y-4.2268
X4.5606Y-4.3268
X4.6228Y-3.0417
X4.6228Y-3.1417
X4.6606Y-4.2268
X4.6606Y-4.3268
X4.7228Y-3.0417
X4.7228Y-3.1417
X4.7606Y-4.2268
X4.7606Y-4.3268
X4.8228Y-3.0417
X4.8228Y-3.1417
X4.8606Y-4.2268
X4.8606Y-4.3268
X4.9606Y-4.2268
X4.9606Y-4.3268
X5.0606Y-4.2268
X5.0606Y-4.3268
X5.1606Y-4.2268
X5.1606Y-4.3268
X5.2606Y-4.2268
X5.2606Y-4.3268
X5.3606Y-4.2268
X5.3606Y-4.3268
X5.4606Y-4.2268
X5.4606Y-4.3268
X5.5606Y-4.2268
X5.5606Y-4.3268
X5.6606Y-4.2268
X5.6606Y-4.3268
X5.7606Y-4.2268
X5.7606Y-4.3268
X5.8606Y-4.2268
X5.8606Y-4.3268
X5.9606Y-4.2268
X5.9606Y-4.3268
X6.0606Y-4.2268
X6.0606Y-4.3268
X6.1606Y-4.2268
X6.1606Y-4.3268
X6.2606Y-4.2268
X6.2606Y-4.3268
X6.3606Y-4.2268
X6.3606Y-4.3268
X6.4606Y-4.2268
X6.4606Y-4.3268
X6.5606Y-4.2268
X6.5606Y-4.3268
X6.6606Y-4.2268
X6.6606Y-4.3268
X6.7606Y-4.2268
X6.7606Y-4.3268
X6.8606Y-4.2268
X6.8606Y-4.3268
X6.9606Y-4.2268
X6.9606Y-4.3268
X7.0606Y-4.2268
X7.0606Y-4.3268
X7.1606Y-4.2268
X7.1606Y-4.3268
X7.2606Y-4.2268
X7.2606Y-4.3268
T5
X5.1228Y-2.7213
X5.1228Y-3.4213
X5.2228Y-2.7213
X5.2228Y-3.4213
X5.3228Y-2.7213
X5.3228Y-3.4213
X5.4228Y-2.7213
X5.4228Y-3.4213
X5.5228Y-2.7213
X5.5228Y-3.4213
X5.6228Y-2.7213
X5.6228Y-3.4213
X5.7228Y-2.7213
X5.7228Y-3.4213
X5.8228Y-2.7213
X5.8228Y-3.4213
X5.9228Y-2.7213
X5.9228Y-3.4213
X6.0228Y-2.7213
X6.0228Y-3.4213
X6.1228Y-2.7213
X6.1228Y-3.4213
X6.2228Y-2.7213
X6.2228Y-3.4213
X6.3228Y-2.7213
X6.3228Y-3.4213
X6.4228Y-2.7213
X6.4228Y-3.4213
X6.5228Y-2.7213
X6.5228Y-3.4213
X6.6228Y-2.7213
X6.6228Y-3.4213
X6.7228Y-2.7213
X6.7228Y-3.4213
X6.8228Y-2.7213
X6.8228Y-3.4213
X6.9228Y-2.7213
X6.9228Y-3.4213
X7.0138Y-2.9713
X7.0138Y-3.0713
X7.0138Y-3.1713
X7.0228Y-2.7213
X7.0228Y-3.4213
M30
