%TF.GenerationSoftware,KiCad,Pcbnew,7.0.11-7.0.11~ubuntu22.04.1*%
%TF.CreationDate,2024-07-10T21:13:57-03:00*%
%TF.ProjectId,GG_LCD_DIY,47475f4c-4344-45f4-9449-592e6b696361,rev?*%
%TF.SameCoordinates,Original*%
%TF.FileFunction,Soldermask,Top*%
%TF.FilePolarity,Negative*%
%FSLAX46Y46*%
G04 Gerber Fmt 4.6, Leading zero omitted, Abs format (unit mm)*
G04 Created by KiCad (PCBNEW 7.0.11-7.0.11~ubuntu22.04.1) date 2024-07-10 21:13:57*
%MOMM*%
%LPD*%
G01*
G04 APERTURE LIST*
G04 Aperture macros list*
%AMRoundRect*
0 Rectangle with rounded corners*
0 $1 Rounding radius*
0 $2 $3 $4 $5 $6 $7 $8 $9 X,Y pos of 4 corners*
0 Add a 4 corners polygon primitive as box body*
4,1,4,$2,$3,$4,$5,$6,$7,$8,$9,$2,$3,0*
0 Add four circle primitives for the rounded corners*
1,1,$1+$1,$2,$3*
1,1,$1+$1,$4,$5*
1,1,$1+$1,$6,$7*
1,1,$1+$1,$8,$9*
0 Add four rect primitives between the rounded corners*
20,1,$1+$1,$2,$3,$4,$5,0*
20,1,$1+$1,$4,$5,$6,$7,0*
20,1,$1+$1,$6,$7,$8,$9,0*
20,1,$1+$1,$8,$9,$2,$3,0*%
%AMFreePoly0*
4,1,19,0.500000,-0.750000,0.000000,-0.750000,0.000000,-0.744911,-0.071157,-0.744911,-0.207708,-0.704816,-0.327430,-0.627875,-0.420627,-0.520320,-0.479746,-0.390866,-0.500000,-0.250000,-0.500000,0.250000,-0.479746,0.390866,-0.420627,0.520320,-0.327430,0.627875,-0.207708,0.704816,-0.071157,0.744911,0.000000,0.744911,0.000000,0.750000,0.500000,0.750000,0.500000,-0.750000,0.500000,-0.750000,
$1*%
%AMFreePoly1*
4,1,19,0.000000,0.744911,0.071157,0.744911,0.207708,0.704816,0.327430,0.627875,0.420627,0.520320,0.479746,0.390866,0.500000,0.250000,0.500000,-0.250000,0.479746,-0.390866,0.420627,-0.520320,0.327430,-0.627875,0.207708,-0.704816,0.071157,-0.744911,0.000000,-0.744911,0.000000,-0.750000,-0.500000,-0.750000,-0.500000,0.750000,0.000000,0.750000,0.000000,0.744911,0.000000,0.744911,
$1*%
G04 Aperture macros list end*
%ADD10O,1.800000X1.800000*%
%ADD11O,1.500000X1.500000*%
%ADD12O,1.700000X1.700000*%
%ADD13R,1.700000X3.500000*%
%ADD14R,1.700000X1.700000*%
%ADD15R,3.500000X1.700000*%
%ADD16RoundRect,0.875000X2.125000X0.875000X-2.125000X0.875000X-2.125000X-0.875000X2.125000X-0.875000X0*%
%ADD17R,2.000000X2.000000*%
%ADD18C,1.400000*%
%ADD19O,1.400000X1.400000*%
%ADD20C,1.524000*%
%ADD21R,1.800000X1.800000*%
%ADD22FreePoly0,0.000000*%
%ADD23FreePoly1,0.000000*%
%ADD24RoundRect,0.225000X-0.225000X-0.375000X0.225000X-0.375000X0.225000X0.375000X-0.225000X0.375000X0*%
%ADD25R,1.300000X1.300000*%
%ADD26C,1.300000*%
G04 APERTURE END LIST*
D10*
%TO.C,U1*%
X130250000Y-80735000D03*
D11*
X133280000Y-80435000D03*
X133280000Y-75585000D03*
D10*
X130250000Y-75285000D03*
D12*
X130120000Y-86900000D03*
D13*
X130120000Y-87800000D03*
D12*
X132660000Y-86900000D03*
D13*
X132660000Y-87800000D03*
D14*
X135200000Y-86900000D03*
D13*
X135200000Y-87800000D03*
D12*
X137740000Y-86900000D03*
D13*
X137740000Y-87800000D03*
D12*
X140280000Y-86900000D03*
D13*
X140280000Y-87800000D03*
D12*
X142820000Y-86900000D03*
D13*
X142820000Y-87800000D03*
D12*
X145360000Y-86900000D03*
D13*
X145360000Y-87800000D03*
D14*
X147900000Y-86900000D03*
D13*
X147900000Y-87800000D03*
D12*
X150440000Y-86900000D03*
D13*
X150440000Y-87800000D03*
D12*
X152980000Y-86900000D03*
D13*
X152980000Y-87800000D03*
D12*
X155520000Y-86900000D03*
D13*
X155520000Y-87800000D03*
D12*
X158060000Y-86900000D03*
D13*
X158060000Y-87800000D03*
D14*
X160600000Y-86900000D03*
D13*
X160600000Y-87800000D03*
D12*
X163140000Y-86900000D03*
D13*
X163140000Y-87800000D03*
D12*
X165680000Y-86900000D03*
D13*
X165680000Y-87800000D03*
D12*
X168220000Y-86900000D03*
D13*
X168220000Y-87800000D03*
D12*
X170760000Y-86900000D03*
D13*
X170760000Y-87800000D03*
D14*
X173300000Y-86900000D03*
D13*
X173300000Y-87800000D03*
D12*
X175840000Y-86900000D03*
D13*
X175840000Y-87800000D03*
D12*
X178380000Y-86900000D03*
D13*
X178380000Y-87800000D03*
D12*
X178380000Y-69120000D03*
D13*
X178380000Y-68220000D03*
D12*
X175840000Y-69120000D03*
D13*
X175840000Y-68220000D03*
D14*
X173300000Y-69120000D03*
D13*
X173300000Y-68220000D03*
D12*
X170760000Y-69120000D03*
D13*
X170760000Y-68220000D03*
D12*
X168220000Y-69120000D03*
D13*
X168220000Y-68220000D03*
D12*
X165680000Y-69120000D03*
D13*
X165680000Y-68220000D03*
D12*
X163140000Y-69120000D03*
D13*
X163140000Y-68220000D03*
D14*
X160600000Y-69120000D03*
D13*
X160600000Y-68220000D03*
D12*
X158060000Y-69120000D03*
D13*
X158060000Y-68220000D03*
D12*
X155520000Y-69120000D03*
D13*
X155520000Y-68220000D03*
D12*
X152980000Y-69120000D03*
D13*
X152980000Y-68220000D03*
D12*
X150440000Y-69120000D03*
D13*
X150440000Y-68220000D03*
D14*
X147900000Y-69120000D03*
D13*
X147900000Y-68220000D03*
D12*
X145360000Y-69120000D03*
D13*
X145360000Y-68220000D03*
D12*
X142820000Y-69120000D03*
D13*
X142820000Y-68220000D03*
D12*
X140280000Y-69120000D03*
D13*
X140280000Y-68220000D03*
D12*
X137740000Y-69120000D03*
D13*
X137740000Y-68220000D03*
D14*
X135200000Y-69120000D03*
D13*
X135200000Y-68220000D03*
D12*
X132660000Y-69120000D03*
D13*
X132660000Y-68220000D03*
D12*
X130120000Y-69120000D03*
D13*
X130120000Y-68220000D03*
D12*
X178150000Y-80550000D03*
D15*
X179050000Y-80550000D03*
D14*
X178150000Y-78010000D03*
D15*
X179050000Y-78010000D03*
D12*
X178150000Y-75470000D03*
D15*
X179050000Y-75470000D03*
%TD*%
D16*
%TO.C,Boost-Board1*%
X173400000Y-103300000D03*
X173400000Y-96100000D03*
X142400000Y-103370000D03*
X142400000Y-96170000D03*
%TD*%
D17*
%TO.C,J16*%
X183900000Y-73800000D03*
%TD*%
%TO.C,J5*%
X183900000Y-85050000D03*
%TD*%
D18*
%TO.C,R3*%
X113100000Y-96880000D03*
D19*
X113100000Y-91800000D03*
%TD*%
D20*
%TO.C,J14*%
X110760000Y-109860000D03*
X110760000Y-112400000D03*
X113300000Y-109860000D03*
X113300000Y-112400000D03*
X115840000Y-109860000D03*
X115840000Y-112400000D03*
X118380000Y-109860000D03*
X118380000Y-112400000D03*
X120920000Y-109860000D03*
X120920000Y-112400000D03*
X123460000Y-109860000D03*
X123460000Y-112400000D03*
X126000000Y-109860000D03*
X126000000Y-112400000D03*
X128540000Y-109860000D03*
X128540000Y-112400000D03*
X131080000Y-109860000D03*
X131080000Y-112400000D03*
X133620000Y-109860000D03*
X133620000Y-112400000D03*
X136160000Y-109860000D03*
X136160000Y-112400000D03*
X138700000Y-109860000D03*
X138700000Y-112400000D03*
X141240000Y-109860000D03*
X141240000Y-112400000D03*
X143780000Y-109860000D03*
X143780000Y-112400000D03*
X146320000Y-109860000D03*
X146320000Y-112400000D03*
X148860000Y-109860000D03*
X148860000Y-112400000D03*
X151400000Y-109860000D03*
X151400000Y-112400000D03*
X153940000Y-109860000D03*
X153940000Y-112400000D03*
X156480000Y-109860000D03*
X156480000Y-112400000D03*
X159020000Y-109860000D03*
X159020000Y-112400000D03*
X161560000Y-109860000D03*
X161560000Y-112400000D03*
X164100000Y-109860000D03*
X164100000Y-112400000D03*
X166640000Y-109860000D03*
X166640000Y-112400000D03*
X169180000Y-109860000D03*
X169180000Y-112400000D03*
X171720000Y-109860000D03*
X171720000Y-112400000D03*
X174260000Y-109860000D03*
X174260000Y-112400000D03*
X176800000Y-109860000D03*
X184420000Y-109860000D03*
X176800000Y-112400000D03*
X179340000Y-109860000D03*
X179340000Y-112400000D03*
X181880000Y-109860000D03*
X181880000Y-112400000D03*
X184420000Y-112400000D03*
%TD*%
D17*
%TO.C,J4*%
X183900000Y-88800000D03*
%TD*%
%TO.C,J8*%
X183900000Y-70050000D03*
%TD*%
D21*
%TO.C,D2*%
X125280000Y-105300000D03*
D10*
X132900000Y-105300000D03*
%TD*%
D17*
%TO.C,J13*%
X183900000Y-77550000D03*
%TD*%
%TO.C,J2*%
X183900000Y-81300000D03*
%TD*%
%TO.C,J1*%
X113100000Y-103100000D03*
%TD*%
D22*
%TO.C,JP1*%
X115400000Y-99400000D03*
D23*
X116700000Y-99400000D03*
%TD*%
D17*
%TO.C,J10*%
X121700000Y-88900000D03*
%TD*%
%TO.C,J7*%
X183900000Y-103800000D03*
%TD*%
%TO.C,J9*%
X183900000Y-66300000D03*
%TD*%
%TO.C,J12*%
X118400000Y-103100000D03*
%TD*%
%TO.C,J6*%
X183900000Y-96300000D03*
%TD*%
%TO.C,J15*%
X183900000Y-100050000D03*
%TD*%
D14*
%TO.C,J17*%
X122500000Y-82800000D03*
D12*
X122500000Y-80260000D03*
X119960000Y-82800000D03*
X119960000Y-80260000D03*
X117420000Y-82800000D03*
X117420000Y-80260000D03*
X114880000Y-82800000D03*
X114880000Y-80260000D03*
X112340000Y-82800000D03*
X112340000Y-80260000D03*
X109800000Y-82800000D03*
X109800000Y-80260000D03*
%TD*%
D17*
%TO.C,J11*%
X117500000Y-88900000D03*
%TD*%
D24*
%TO.C,D1*%
X130100000Y-102400000D03*
X133400000Y-102400000D03*
%TD*%
D17*
%TO.C,J3*%
X183900000Y-92550000D03*
%TD*%
D25*
%TO.C,Q1*%
X123530000Y-94770000D03*
D26*
X124800000Y-93500000D03*
X126070000Y-94770000D03*
%TD*%
M02*
