%TF.GenerationSoftware,KiCad,Pcbnew,8.0.9-8.0.9-0~ubuntu22.04.1*%
%TF.CreationDate,2025-05-23T21:37:58-03:00*%
%TF.ProjectId,GG_LCD_DIY,47475f4c-4344-45f4-9449-592e6b696361,rev?*%
%TF.SameCoordinates,Original*%
%TF.FileFunction,Legend,Bot*%
%TF.FilePolarity,Positive*%
%FSLAX46Y46*%
G04 Gerber Fmt 4.6, Leading zero omitted, Abs format (unit mm)*
G04 Created by KiCad (PCBNEW 8.0.9-8.0.9-0~ubuntu22.04.1) date 2025-05-23 21:37:58*
%MOMM*%
%LPD*%
G01*
G04 APERTURE LIST*
%ADD10O,1.800000X1.800000*%
%ADD11O,1.500000X1.500000*%
%ADD12O,1.700000X1.700000*%
%ADD13R,1.700000X1.700000*%
%ADD14R,1.300000X1.300000*%
%ADD15C,1.300000*%
%ADD16C,1.524000*%
%ADD17C,1.600000*%
%ADD18O,1.600000X1.600000*%
G04 APERTURE END LIST*
%LPC*%
D10*
%TO.C,U1*%
X130250000Y-80735000D03*
D11*
X133280000Y-80435000D03*
X133280000Y-75585000D03*
D10*
X130250000Y-75285000D03*
D12*
X130120000Y-86900000D03*
X132660000Y-86900000D03*
D13*
X135200000Y-86900000D03*
D12*
X137740000Y-86900000D03*
X140280000Y-86900000D03*
X142820000Y-86900000D03*
X145360000Y-86900000D03*
D13*
X147900000Y-86900000D03*
D12*
X150440000Y-86900000D03*
X152980000Y-86900000D03*
X155520000Y-86900000D03*
X158060000Y-86900000D03*
D13*
X160600000Y-86900000D03*
D12*
X163140000Y-86900000D03*
X165680000Y-86900000D03*
X168220000Y-86900000D03*
X170760000Y-86900000D03*
D13*
X173300000Y-86900000D03*
D12*
X175840000Y-86900000D03*
X178380000Y-86900000D03*
X178380000Y-69120000D03*
X175840000Y-69120000D03*
D13*
X173300000Y-69120000D03*
D12*
X170760000Y-69120000D03*
X168220000Y-69120000D03*
X165680000Y-69120000D03*
X163140000Y-69120000D03*
D13*
X160600000Y-69120000D03*
D12*
X158060000Y-69120000D03*
X155520000Y-69120000D03*
X152980000Y-69120000D03*
X150440000Y-69120000D03*
D13*
X147900000Y-69120000D03*
D12*
X145360000Y-69120000D03*
X142820000Y-69120000D03*
X140280000Y-69120000D03*
X137740000Y-69120000D03*
D13*
X135200000Y-69120000D03*
D12*
X132660000Y-69120000D03*
X130120000Y-69120000D03*
X178150000Y-80550000D03*
D13*
X178150000Y-78010000D03*
D12*
X178150000Y-75470000D03*
%TD*%
D14*
%TO.C,Q2*%
X175300000Y-95040000D03*
D15*
X174030000Y-93770000D03*
X175300000Y-92500000D03*
%TD*%
D16*
%TO.C,J14*%
X184420000Y-109900000D03*
X184420000Y-107360000D03*
X181880000Y-109900000D03*
X181880000Y-107360000D03*
X179340000Y-109900000D03*
X179340000Y-107360000D03*
X176800000Y-109900000D03*
X176800000Y-107360000D03*
X174260000Y-109900000D03*
X174260000Y-107360000D03*
X171720000Y-109900000D03*
X171720000Y-107360000D03*
X169180000Y-109900000D03*
X169180000Y-107360000D03*
X166640000Y-109900000D03*
X166640000Y-107360000D03*
X164100000Y-109900000D03*
X164100000Y-107360000D03*
X161560000Y-109900000D03*
X161560000Y-107360000D03*
X159020000Y-109900000D03*
X159020000Y-107360000D03*
X156480000Y-109900000D03*
X156480000Y-107360000D03*
X153940000Y-109900000D03*
X153940000Y-107360000D03*
X151400000Y-109900000D03*
X151400000Y-107360000D03*
X148860000Y-109900000D03*
X148860000Y-107360000D03*
X146320000Y-109900000D03*
X146320000Y-107360000D03*
X143780000Y-109900000D03*
X143780000Y-107360000D03*
X141240000Y-109900000D03*
X141240000Y-107360000D03*
X138700000Y-109900000D03*
X138700000Y-107360000D03*
X136160000Y-109900000D03*
X136160000Y-107360000D03*
X133620000Y-109900000D03*
X133620000Y-107360000D03*
X131080000Y-109900000D03*
X131080000Y-107360000D03*
X128540000Y-109900000D03*
X128540000Y-107360000D03*
X126000000Y-109900000D03*
X126000000Y-107360000D03*
X123460000Y-109900000D03*
X123460000Y-107360000D03*
X120920000Y-109900000D03*
X120920000Y-107360000D03*
X118380000Y-109900000D03*
X110760000Y-109900000D03*
X118380000Y-107360000D03*
X115840000Y-109900000D03*
X115840000Y-107360000D03*
X113300000Y-109900000D03*
X113300000Y-107360000D03*
X110760000Y-107360000D03*
%TD*%
D17*
%TO.C,L1*%
X148400000Y-102810000D03*
D18*
X148400000Y-95190000D03*
%TD*%
D13*
%TO.C,J17*%
X122500000Y-79800000D03*
D12*
X122500000Y-77260000D03*
X119960000Y-79800000D03*
X119960000Y-77260000D03*
X117420000Y-79800000D03*
X117420000Y-77260000D03*
X114880000Y-79800000D03*
X114880000Y-77260000D03*
X112340000Y-79800000D03*
X112340000Y-77260000D03*
X109800000Y-79800000D03*
X109800000Y-77260000D03*
%TD*%
%LPD*%
M02*
