%TF.GenerationSoftware,KiCad,Pcbnew,7.0.11-7.0.11~ubuntu22.04.1*%
%TF.CreationDate,2024-07-10T21:13:57-03:00*%
%TF.ProjectId,GG_LCD_DIY,47475f4c-4344-45f4-9449-592e6b696361,rev?*%
%TF.SameCoordinates,Original*%
%TF.FileFunction,Copper,L4,Bot*%
%TF.FilePolarity,Positive*%
%FSLAX46Y46*%
G04 Gerber Fmt 4.6, Leading zero omitted, Abs format (unit mm)*
G04 Created by KiCad (PCBNEW 7.0.11-7.0.11~ubuntu22.04.1) date 2024-07-10 21:13:57*
%MOMM*%
%LPD*%
G01*
G04 APERTURE LIST*
%TA.AperFunction,ComponentPad*%
%ADD10O,1.700000X1.700000*%
%TD*%
%TA.AperFunction,ComponentPad*%
%ADD11R,1.700000X1.700000*%
%TD*%
%TA.AperFunction,ComponentPad*%
%ADD12C,1.400000*%
%TD*%
%TA.AperFunction,ComponentPad*%
%ADD13O,1.400000X1.400000*%
%TD*%
%TA.AperFunction,ComponentPad*%
%ADD14C,1.524000*%
%TD*%
%TA.AperFunction,ComponentPad*%
%ADD15R,1.800000X1.800000*%
%TD*%
%TA.AperFunction,ComponentPad*%
%ADD16O,1.800000X1.800000*%
%TD*%
%TA.AperFunction,ComponentPad*%
%ADD17R,1.300000X1.300000*%
%TD*%
%TA.AperFunction,ComponentPad*%
%ADD18C,1.300000*%
%TD*%
%TA.AperFunction,ViaPad*%
%ADD19C,0.600000*%
%TD*%
%TA.AperFunction,ViaPad*%
%ADD20C,1.000000*%
%TD*%
%TA.AperFunction,Conductor*%
%ADD21C,0.150000*%
%TD*%
%TA.AperFunction,Conductor*%
%ADD22C,0.300000*%
%TD*%
%TA.AperFunction,Conductor*%
%ADD23C,0.500000*%
%TD*%
%TA.AperFunction,Conductor*%
%ADD24C,0.200000*%
%TD*%
G04 APERTURE END LIST*
D10*
%TO.P,U1,1,GPIO0*%
%TO.N,HDMI_D2+*%
X130120000Y-86900000D03*
%TO.P,U1,2,GPIO1*%
%TO.N,HDMI_D2-*%
X132660000Y-86900000D03*
D11*
%TO.P,U1,3,GPIO2*%
%TO.N,HDMI_D1+*%
X135200000Y-86900000D03*
D10*
%TO.P,U1,4,GPIO3*%
%TO.N,HDMI_D1-*%
X137740000Y-86900000D03*
%TO.P,U1,5,GPIO4*%
%TO.N,HDMI_CLK+*%
X140280000Y-86900000D03*
%TO.P,U1,6,GND*%
%TO.N,GND*%
X142820000Y-86900000D03*
%TO.P,U1,7,GPIO5*%
%TO.N,HDMI_CLK-*%
X145360000Y-86900000D03*
D11*
%TO.P,U1,8,GPIO6*%
%TO.N,Net-(J13-Pin_1)*%
X147900000Y-86900000D03*
D10*
%TO.P,U1,9,GPIO7*%
%TO.N,LCD_D0*%
X150440000Y-86900000D03*
%TO.P,U1,10,GPIO8*%
%TO.N,LCD_D1*%
X152980000Y-86900000D03*
%TO.P,U1,11,GPIO9*%
%TO.N,LCD_D2*%
X155520000Y-86900000D03*
%TO.P,U1,12,GPIO10*%
%TO.N,LCD_D3*%
X158060000Y-86900000D03*
D11*
%TO.P,U1,13,GPIO11*%
%TO.N,Net-(J11-Pin_1)*%
X160600000Y-86900000D03*
D10*
%TO.P,U1,14,GPIO12*%
%TO.N,Net-(J12-Pin_1)*%
X163140000Y-86900000D03*
%TO.P,U1,15,GND*%
%TO.N,GND*%
X165680000Y-86900000D03*
%TO.P,U1,16,GPIO13*%
%TO.N,Net-(J10-Pin_1)*%
X168220000Y-86900000D03*
%TO.P,U1,17,GPIO14*%
%TO.N,LCD_Backlight*%
X170760000Y-86900000D03*
D11*
%TO.P,U1,18,GPIO15*%
%TO.N,Net-(J9-Pin_1)*%
X173300000Y-86900000D03*
D10*
%TO.P,U1,19,GPIO16*%
%TO.N,Net-(J2-Pin_1)*%
X175840000Y-86900000D03*
%TO.P,U1,20,GPIO17*%
%TO.N,Net-(J3-Pin_1)*%
X178380000Y-86900000D03*
%TO.P,U1,21,GPIO18*%
%TO.N,Net-(J4-Pin_1)*%
X178380000Y-69120000D03*
%TO.P,U1,22,GPIO19*%
%TO.N,Net-(J5-Pin_1)*%
X175840000Y-69120000D03*
D11*
%TO.P,U1,23,GPIO20*%
%TO.N,Net-(J7-Pin_1)*%
X173300000Y-69120000D03*
D10*
%TO.P,U1,24,GPIO21*%
%TO.N,Net-(J6-Pin_1)*%
X170760000Y-69120000D03*
%TO.P,U1,25,GPIO22*%
%TO.N,Net-(J8-Pin_1)*%
X168220000Y-69120000D03*
%TO.P,U1,26,GPIO23*%
%TO.N,HDMI_D0+*%
X165680000Y-69120000D03*
%TO.P,U1,27,GPIO24*%
%TO.N,HDMI_D0-*%
X163140000Y-69120000D03*
D11*
%TO.P,U1,28,GPIO25*%
%TO.N,LED_PIN*%
X160600000Y-69120000D03*
D10*
%TO.P,U1,29,AGND*%
%TO.N,GND*%
X158060000Y-69120000D03*
%TO.P,U1,30,GPIO26*%
%TO.N,LCD_DEN*%
X155520000Y-69120000D03*
%TO.P,U1,31,GPIO27*%
%TO.N,LCD_CLK*%
X152980000Y-69120000D03*
%TO.P,U1,32,GPIO28*%
%TO.N,LCD_RST*%
X150440000Y-69120000D03*
D11*
%TO.P,U1,33,GPIO29*%
%TO.N,Net-(JP1-A)*%
X147900000Y-69120000D03*
D10*
%TO.P,U1,34,RUN*%
%TO.N,unconnected-(U1-RUN-Pad34)*%
X145360000Y-69120000D03*
%TO.P,U1,35,GND*%
%TO.N,GND*%
X142820000Y-69120000D03*
%TO.P,U1,36,3V3*%
%TO.N,+3V3*%
X140280000Y-69120000D03*
%TO.P,U1,37,3V3_EN*%
%TO.N,unconnected-(U1-3V3_EN-Pad37)*%
X137740000Y-69120000D03*
D11*
%TO.P,U1,38,GND*%
%TO.N,GND*%
X135200000Y-69120000D03*
D10*
%TO.P,U1,39,VIN*%
%TO.N,Net-(D1-K)*%
X132660000Y-69120000D03*
%TO.P,U1,40,VBUS*%
%TO.N,unconnected-(U1-VBUS-Pad40)*%
X130120000Y-69120000D03*
%TO.P,U1,41,SWCLK*%
%TO.N,unconnected-(U1-SWCLK-Pad41)*%
X178150000Y-80550000D03*
D11*
%TO.P,U1,42,GND*%
%TO.N,unconnected-(U1-GND-Pad42)*%
X178150000Y-78010000D03*
D10*
%TO.P,U1,43,SWDIO*%
%TO.N,unconnected-(U1-SWDIO-Pad43)*%
X178150000Y-75470000D03*
%TD*%
D12*
%TO.P,R3,1*%
%TO.N,Net-(JP1-A)*%
X113100000Y-96880000D03*
D13*
%TO.P,R3,2*%
%TO.N,+5VD*%
X113100000Y-91800000D03*
%TD*%
D14*
%TO.P,J14,1,Pin_1*%
%TO.N,Backlight_GND*%
X110760000Y-109860000D03*
%TO.P,J14,2,Pin_2*%
X110760000Y-112400000D03*
%TO.P,J14,3,Pin_3*%
%TO.N,+20V*%
X113300000Y-109860000D03*
%TO.P,J14,4,Pin_4*%
X113300000Y-112400000D03*
%TO.P,J14,5,Pin_5*%
%TO.N,unconnected-(J14-Pin_5-Pad5)*%
X115840000Y-109860000D03*
%TO.P,J14,6,Pin_6*%
%TO.N,unconnected-(J14-Pin_6-Pad6)*%
X115840000Y-112400000D03*
%TO.P,J14,7,Pin_7*%
%TO.N,unconnected-(J14-Pin_7-Pad7)*%
X118380000Y-109860000D03*
%TO.P,J14,8,Pin_8*%
%TO.N,LCD_RST*%
X118380000Y-112400000D03*
%TO.P,J14,9,Pin_9*%
%TO.N,unconnected-(J14-Pin_9-Pad9)*%
X120920000Y-109860000D03*
%TO.P,J14,10,Pin_10*%
%TO.N,unconnected-(J14-Pin_10-Pad10)*%
X120920000Y-112400000D03*
%TO.P,J14,11,Pin_11*%
%TO.N,unconnected-(J14-Pin_11-Pad11)*%
X123460000Y-109860000D03*
%TO.P,J14,12,Pin_12*%
%TO.N,GND*%
X123460000Y-112400000D03*
%TO.P,J14,13,Pin_13*%
X126000000Y-109860000D03*
%TO.P,J14,14,Pin_14*%
X126000000Y-112400000D03*
%TO.P,J14,15,Pin_15*%
X128540000Y-109860000D03*
%TO.P,J14,16,Pin_16*%
X128540000Y-112400000D03*
%TO.P,J14,17,Pin_17*%
X131080000Y-109860000D03*
%TO.P,J14,18,Pin_18*%
X131080000Y-112400000D03*
%TO.P,J14,19,Pin_19*%
X133620000Y-109860000D03*
%TO.P,J14,20,Pin_20*%
X133620000Y-112400000D03*
%TO.P,J14,21,Pin_21*%
X136160000Y-109860000D03*
%TO.P,J14,22,Pin_22*%
X136160000Y-112400000D03*
%TO.P,J14,23,Pin_23*%
X138700000Y-109860000D03*
%TO.P,J14,24,Pin_24*%
X138700000Y-112400000D03*
%TO.P,J14,25,Pin_25*%
X141240000Y-109860000D03*
%TO.P,J14,26,Pin_26*%
X141240000Y-112400000D03*
%TO.P,J14,27,Pin_27*%
X143780000Y-109860000D03*
%TO.P,J14,28,Pin_28*%
X143780000Y-112400000D03*
%TO.P,J14,29,Pin_29*%
X146320000Y-109860000D03*
%TO.P,J14,30,Pin_30*%
X146320000Y-112400000D03*
%TO.P,J14,31,Pin_31*%
X148860000Y-109860000D03*
%TO.P,J14,32,Pin_32*%
%TO.N,LCD_D0*%
X148860000Y-112400000D03*
%TO.P,J14,33,Pin_33*%
%TO.N,LCD_D1*%
X151400000Y-109860000D03*
%TO.P,J14,34,Pin_34*%
%TO.N,LCD_D2*%
X151400000Y-112400000D03*
%TO.P,J14,35,Pin_35*%
%TO.N,LCD_D3*%
X153940000Y-109860000D03*
%TO.P,J14,36,Pin_36*%
%TO.N,LCD_HSync*%
X153940000Y-112400000D03*
%TO.P,J14,37,Pin_37*%
%TO.N,LCD_VSync*%
X156480000Y-109860000D03*
%TO.P,J14,38,Pin_38*%
%TO.N,LCD_CLK*%
X156480000Y-112400000D03*
%TO.P,J14,39,Pin_39*%
%TO.N,unconnected-(J14-Pin_39-Pad39)*%
X159020000Y-109860000D03*
%TO.P,J14,40,Pin_40*%
%TO.N,unconnected-(J14-Pin_40-Pad40)*%
X159020000Y-112400000D03*
%TO.P,J14,41,Pin_41*%
%TO.N,+3V3*%
X161560000Y-109860000D03*
%TO.P,J14,42,Pin_42*%
X161560000Y-112400000D03*
%TO.P,J14,43,Pin_43*%
%TO.N,unconnected-(J14-Pin_43-Pad43)*%
X164100000Y-109860000D03*
%TO.P,J14,44,Pin_44*%
%TO.N,unconnected-(J14-Pin_44-Pad44)*%
X164100000Y-112400000D03*
%TO.P,J14,45,Pin_45*%
%TO.N,unconnected-(J14-Pin_45-Pad45)*%
X166640000Y-109860000D03*
%TO.P,J14,46,Pin_46*%
%TO.N,unconnected-(J14-Pin_46-Pad46)*%
X166640000Y-112400000D03*
%TO.P,J14,47,Pin_47*%
%TO.N,unconnected-(J14-Pin_47-Pad47)*%
X169180000Y-109860000D03*
%TO.P,J14,48,Pin_48*%
%TO.N,GND*%
X169180000Y-112400000D03*
%TO.P,J14,49,Pin_49*%
X171720000Y-109860000D03*
%TO.P,J14,50,Pin_50*%
%TO.N,+3V3*%
X171720000Y-112400000D03*
%TO.P,J14,51,Pin_51*%
%TO.N,unconnected-(J14-Pin_51-Pad51)*%
X174260000Y-109860000D03*
%TO.P,J14,52,Pin_52*%
%TO.N,LCD_DEN*%
X174260000Y-112400000D03*
%TO.P,J14,53,Pin_53*%
%TO.N,GND*%
X176800000Y-109860000D03*
X184420000Y-109860000D03*
%TO.P,J14,54,Pin_54*%
X176800000Y-112400000D03*
%TO.P,J14,55,Pin_55*%
%TO.N,unconnected-(J14-Pin_55-Pad55)*%
X179340000Y-109860000D03*
%TO.P,J14,56,Pin_56*%
%TO.N,unconnected-(J14-Pin_56-Pad56)*%
X179340000Y-112400000D03*
%TO.P,J14,57,Pin_57*%
%TO.N,unconnected-(J14-Pin_57-Pad57)*%
X181880000Y-109860000D03*
%TO.P,J14,58,Pin_58*%
%TO.N,unconnected-(J14-Pin_58-Pad58)*%
X181880000Y-112400000D03*
%TO.P,J14,60,Pin_60*%
%TO.N,unconnected-(J14-Pin_60-Pad60)*%
X184420000Y-112400000D03*
%TD*%
D15*
%TO.P,D2,1,K*%
%TO.N,Net-(D1-K)*%
X125280000Y-105300000D03*
D16*
%TO.P,D2,2,A*%
%TO.N,+5V*%
X132900000Y-105300000D03*
%TD*%
D11*
%TO.P,J17,1,Pin_1*%
%TO.N,+3V3*%
X122500000Y-82800000D03*
D10*
%TO.P,J17,2,Pin_2*%
X122500000Y-80260000D03*
%TO.P,J17,3,Pin_3*%
%TO.N,GND*%
X119960000Y-82800000D03*
%TO.P,J17,4,Pin_4*%
X119960000Y-80260000D03*
%TO.P,J17,5,Pin_5*%
%TO.N,HDMI_CLK-*%
X117420000Y-82800000D03*
%TO.P,J17,6,Pin_6*%
%TO.N,HDMI_CLK+*%
X117420000Y-80260000D03*
%TO.P,J17,7,Pin_7*%
%TO.N,HDMI_D0-*%
X114880000Y-82800000D03*
%TO.P,J17,8,Pin_8*%
%TO.N,HDMI_D0+*%
X114880000Y-80260000D03*
%TO.P,J17,9,Pin_9*%
%TO.N,HDMI_D1-*%
X112340000Y-82800000D03*
%TO.P,J17,10,Pin_10*%
%TO.N,HDMI_D1+*%
X112340000Y-80260000D03*
%TO.P,J17,11,Pin_11*%
%TO.N,HDMI_D2-*%
X109800000Y-82800000D03*
%TO.P,J17,12,Pin_12*%
%TO.N,HDMI_D2+*%
X109800000Y-80260000D03*
%TD*%
D17*
%TO.P,Q1,1,D*%
%TO.N,Backlight_GND*%
X123530000Y-94770000D03*
D18*
%TO.P,Q1,2,G*%
%TO.N,LCD_Backlight*%
X124800000Y-93500000D03*
%TO.P,Q1,3,S*%
%TO.N,GND*%
X126070000Y-94770000D03*
%TD*%
D19*
%TO.N,GND*%
X181900000Y-75400000D03*
D20*
X142550000Y-92950000D03*
X168850000Y-96000000D03*
D19*
X181600000Y-73600000D03*
D20*
X138200000Y-96500000D03*
D19*
X181900000Y-72000000D03*
D20*
X169800000Y-98650000D03*
X173750000Y-99250000D03*
D19*
%TO.N,Net-(D1-K)*%
X127300000Y-75500000D03*
%TO.N,Net-(J2-Pin_1)*%
X178400000Y-82700000D03*
%TO.N,Net-(J6-Pin_1)*%
X173300000Y-92200000D03*
%TO.N,Net-(J7-Pin_1)*%
X181900000Y-104500000D03*
%TO.N,Net-(J9-Pin_1)*%
X182000000Y-66300000D03*
%TO.N,+3V3*%
X161560000Y-107740000D03*
X170400000Y-106800000D03*
%TO.N,Net-(J10-Pin_1)*%
X124600000Y-88900000D03*
%TO.N,Net-(J11-Pin_1)*%
X119500000Y-88700000D03*
%TO.N,Net-(J12-Pin_1)*%
X121400000Y-102800000D03*
%TO.N,Net-(J13-Pin_1)*%
X181700000Y-76800000D03*
%TO.N,Net-(JP1-A)*%
X147300000Y-72300000D03*
%TD*%
D21*
%TO.N,HDMI_D2+*%
X130120000Y-86900000D02*
X109800000Y-86900000D01*
X108575000Y-81485000D02*
X109800000Y-80260000D01*
X109800000Y-86900000D02*
X108575000Y-85675000D01*
X108575000Y-85675000D02*
X108575000Y-81485000D01*
%TO.N,HDMI_D2-*%
X109800000Y-84600000D02*
X109800000Y-82800000D01*
X131460000Y-85700000D02*
X110900000Y-85700000D01*
X132660000Y-86900000D02*
X131460000Y-85700000D01*
X110900000Y-85700000D02*
X109800000Y-84600000D01*
%TO.N,HDMI_D1+*%
X112700000Y-85200000D02*
X112400000Y-85200000D01*
X111000000Y-81000000D02*
X111740000Y-80260000D01*
X135200000Y-86900000D02*
X133500000Y-85200000D01*
X112300000Y-85200000D02*
X111000000Y-83900000D01*
X111740000Y-80260000D02*
X112340000Y-80260000D01*
X133500000Y-85200000D02*
X112700000Y-85200000D01*
X112700000Y-85200000D02*
X112300000Y-85200000D01*
X111000000Y-83900000D02*
X111000000Y-81000000D01*
%TO.N,HDMI_D1-*%
X113700000Y-84800000D02*
X112340000Y-83440000D01*
X112340000Y-83440000D02*
X112340000Y-82800000D01*
X135640000Y-84800000D02*
X113700000Y-84800000D01*
X137740000Y-86900000D02*
X135640000Y-84800000D01*
%TO.N,HDMI_CLK+*%
X137780000Y-84400000D02*
X116500000Y-84400000D01*
X140280000Y-86900000D02*
X137780000Y-84400000D01*
X116500000Y-84400000D02*
X116100000Y-84000000D01*
X116100000Y-81580000D02*
X117420000Y-80260000D01*
X116100000Y-84000000D02*
X116100000Y-81580000D01*
%TO.N,HDMI_CLK-*%
X142460000Y-84000000D02*
X118620000Y-84000000D01*
X118620000Y-84000000D02*
X117420000Y-82800000D01*
X145360000Y-86900000D02*
X142460000Y-84000000D01*
D22*
%TO.N,LCD_D0*%
X151660000Y-88120000D02*
X150440000Y-86900000D01*
X151660000Y-106900000D02*
X151660000Y-88120000D01*
X148860000Y-112400000D02*
X150288000Y-110972000D01*
X150288000Y-110972000D02*
X150288000Y-108272000D01*
X150288000Y-108272000D02*
X151660000Y-106900000D01*
%TO.N,LCD_D1*%
X152980000Y-88420000D02*
X152980000Y-86900000D01*
X151400000Y-109860000D02*
X151400000Y-108600000D01*
X152700000Y-88700000D02*
X152980000Y-88420000D01*
X152700000Y-107300000D02*
X152700000Y-88700000D01*
X151400000Y-108600000D02*
X152700000Y-107300000D01*
%TO.N,LCD_D2*%
X152600000Y-111200000D02*
X151400000Y-112400000D01*
X152600000Y-109000000D02*
X152600000Y-111200000D01*
X153400000Y-108200000D02*
X152600000Y-109000000D01*
X153400000Y-92100000D02*
X153400000Y-108200000D01*
X155520000Y-89980000D02*
X153400000Y-92100000D01*
X155520000Y-86900000D02*
X155520000Y-89980000D01*
%TO.N,LCD_D3*%
X155492500Y-92907500D02*
X158060000Y-90340000D01*
X153940000Y-109860000D02*
X155492500Y-108307500D01*
X155492500Y-108307500D02*
X155492500Y-107300000D01*
X155492500Y-107300000D02*
X155492500Y-92907500D01*
X158060000Y-90340000D02*
X158060000Y-86900000D01*
D23*
%TO.N,Net-(D1-K)*%
X132660000Y-71540000D02*
X132660000Y-69120000D01*
X131600000Y-72600000D02*
X132660000Y-71540000D01*
X129400000Y-72600000D02*
X131600000Y-72600000D01*
X127300000Y-74700000D02*
X129400000Y-72600000D01*
X127300000Y-75500000D02*
X127300000Y-74700000D01*
D21*
%TO.N,Net-(J2-Pin_1)*%
X178400000Y-82700000D02*
X175840000Y-85260000D01*
X175840000Y-85260000D02*
X175840000Y-86900000D01*
D24*
%TO.N,Net-(J6-Pin_1)*%
X173300000Y-92200000D02*
X173000000Y-92200000D01*
X173000000Y-92200000D02*
X171910000Y-91110000D01*
X171910000Y-70270000D02*
X170760000Y-69120000D01*
X171910000Y-91110000D02*
X171910000Y-70270000D01*
%TO.N,Net-(J7-Pin_1)*%
X178800000Y-104700000D02*
X174690000Y-100590000D01*
X181900000Y-104500000D02*
X181700000Y-104700000D01*
X181700000Y-104700000D02*
X178800000Y-104700000D01*
X174690000Y-70510000D02*
X173300000Y-69120000D01*
X174690000Y-100590000D02*
X174690000Y-70510000D01*
D22*
%TO.N,LCD_DEN*%
X174260000Y-112400000D02*
X173000000Y-111140000D01*
X164800000Y-107900000D02*
X172500000Y-107900000D01*
X161800000Y-104900000D02*
X164800000Y-107900000D01*
X155520000Y-73620000D02*
X161800000Y-79900000D01*
X173000000Y-108400000D02*
X172500000Y-107900000D01*
X173000000Y-111140000D02*
X173000000Y-108400000D01*
X155520000Y-69120000D02*
X155520000Y-73620000D01*
X161800000Y-79900000D02*
X161800000Y-104900000D01*
%TO.N,LCD_CLK*%
X157592000Y-91608000D02*
X157592000Y-111288000D01*
X152980000Y-69120000D02*
X152980000Y-72480000D01*
X159260000Y-78760000D02*
X159260000Y-89940000D01*
X152980000Y-72480000D02*
X159260000Y-78760000D01*
X159260000Y-89940000D02*
X157592000Y-91608000D01*
X157592000Y-111288000D02*
X156480000Y-112400000D01*
%TO.N,LCD_RST*%
X149240000Y-90760000D02*
X149240000Y-72160000D01*
D21*
X151100000Y-69360000D02*
X151160000Y-69420000D01*
D22*
X118380000Y-112400000D02*
X119600000Y-111180000D01*
X149240000Y-72160000D02*
X150440000Y-70960000D01*
X132700000Y-94200000D02*
X145800000Y-94200000D01*
X119600000Y-111180000D02*
X119600000Y-107300000D01*
X150440000Y-70960000D02*
X150440000Y-69120000D01*
X145800000Y-94200000D02*
X149240000Y-90760000D01*
X119600000Y-107300000D02*
X132700000Y-94200000D01*
%TO.N,Backlight_GND*%
X123530000Y-98170000D02*
X123530000Y-94770000D01*
X116400000Y-105300000D02*
X123530000Y-98170000D01*
X110750000Y-108450000D02*
X113900000Y-105300000D01*
X113900000Y-105300000D02*
X116400000Y-105300000D01*
X110750000Y-109950000D02*
X110750000Y-108450000D01*
X110750000Y-109950000D02*
X110750000Y-112490000D01*
%TO.N,+20V*%
X113290000Y-111200000D02*
X113290000Y-112490000D01*
X113290000Y-109950000D02*
X113290000Y-111200000D01*
D21*
%TO.N,Net-(JP1-A)*%
X147300000Y-72300000D02*
X147900000Y-71700000D01*
X147900000Y-71700000D02*
X147900000Y-69120000D01*
%TD*%
%TA.AperFunction,Conductor*%
%TO.N,GND*%
G36*
X123000507Y-112609844D02*
G01*
X123078239Y-112730798D01*
X123186900Y-112824952D01*
X123317685Y-112884680D01*
X123327466Y-112886086D01*
X122750370Y-113463181D01*
X122689047Y-113496666D01*
X122662689Y-113499500D01*
X121905308Y-113499500D01*
X121838269Y-113479815D01*
X121792514Y-113427011D01*
X121782570Y-113357853D01*
X121811595Y-113294297D01*
X121817627Y-113287819D01*
X121832073Y-113273373D01*
X121890826Y-113214620D01*
X122017534Y-113033662D01*
X122077894Y-112904218D01*
X122124066Y-112851779D01*
X122191259Y-112832627D01*
X122258141Y-112852843D01*
X122302658Y-112904219D01*
X122362898Y-113033405D01*
X122362901Y-113033411D01*
X122408258Y-113098187D01*
X122408259Y-113098188D01*
X122976923Y-112529523D01*
X123000507Y-112609844D01*
G37*
%TD.AperFunction*%
%TA.AperFunction,Conductor*%
G36*
X125540507Y-112609844D02*
G01*
X125618239Y-112730798D01*
X125726900Y-112824952D01*
X125857685Y-112884680D01*
X125867466Y-112886086D01*
X125290370Y-113463181D01*
X125229047Y-113496666D01*
X125202689Y-113499500D01*
X124257309Y-113499500D01*
X124190270Y-113479815D01*
X124169628Y-113463181D01*
X123592534Y-112886086D01*
X123602315Y-112884680D01*
X123733100Y-112824952D01*
X123841761Y-112730798D01*
X123919493Y-112609844D01*
X123943076Y-112529523D01*
X124511741Y-113098188D01*
X124557094Y-113033417D01*
X124557100Y-113033407D01*
X124617618Y-112903627D01*
X124663790Y-112851187D01*
X124730983Y-112832035D01*
X124797865Y-112852251D01*
X124842382Y-112903627D01*
X124902898Y-113033405D01*
X124902901Y-113033411D01*
X124948258Y-113098187D01*
X124948259Y-113098188D01*
X125516923Y-112529523D01*
X125540507Y-112609844D01*
G37*
%TD.AperFunction*%
%TA.AperFunction,Conductor*%
G36*
X128080507Y-112609844D02*
G01*
X128158239Y-112730798D01*
X128266900Y-112824952D01*
X128397685Y-112884680D01*
X128407466Y-112886086D01*
X127830370Y-113463181D01*
X127769047Y-113496666D01*
X127742689Y-113499500D01*
X126797309Y-113499500D01*
X126730270Y-113479815D01*
X126709628Y-113463181D01*
X126132534Y-112886086D01*
X126142315Y-112884680D01*
X126273100Y-112824952D01*
X126381761Y-112730798D01*
X126459493Y-112609844D01*
X126483076Y-112529523D01*
X127051741Y-113098188D01*
X127097094Y-113033417D01*
X127097100Y-113033407D01*
X127157618Y-112903627D01*
X127203790Y-112851187D01*
X127270983Y-112832035D01*
X127337865Y-112852251D01*
X127382382Y-112903627D01*
X127442898Y-113033405D01*
X127442901Y-113033411D01*
X127488258Y-113098187D01*
X127488259Y-113098188D01*
X128056923Y-112529523D01*
X128080507Y-112609844D01*
G37*
%TD.AperFunction*%
%TA.AperFunction,Conductor*%
G36*
X130620507Y-112609844D02*
G01*
X130698239Y-112730798D01*
X130806900Y-112824952D01*
X130937685Y-112884680D01*
X130947466Y-112886086D01*
X130370370Y-113463181D01*
X130309047Y-113496666D01*
X130282689Y-113499500D01*
X129337309Y-113499500D01*
X129270270Y-113479815D01*
X129249628Y-113463181D01*
X128672534Y-112886086D01*
X128682315Y-112884680D01*
X128813100Y-112824952D01*
X128921761Y-112730798D01*
X128999493Y-112609844D01*
X129023076Y-112529523D01*
X129591741Y-113098188D01*
X129637094Y-113033417D01*
X129637100Y-113033407D01*
X129697618Y-112903627D01*
X129743790Y-112851187D01*
X129810983Y-112832035D01*
X129877865Y-112852251D01*
X129922382Y-112903627D01*
X129982898Y-113033405D01*
X129982901Y-113033411D01*
X130028258Y-113098187D01*
X130028259Y-113098188D01*
X130596923Y-112529523D01*
X130620507Y-112609844D01*
G37*
%TD.AperFunction*%
%TA.AperFunction,Conductor*%
G36*
X133160507Y-112609844D02*
G01*
X133238239Y-112730798D01*
X133346900Y-112824952D01*
X133477685Y-112884680D01*
X133487466Y-112886086D01*
X132910370Y-113463181D01*
X132849047Y-113496666D01*
X132822689Y-113499500D01*
X131877309Y-113499500D01*
X131810270Y-113479815D01*
X131789628Y-113463181D01*
X131212534Y-112886086D01*
X131222315Y-112884680D01*
X131353100Y-112824952D01*
X131461761Y-112730798D01*
X131539493Y-112609844D01*
X131563076Y-112529523D01*
X132131741Y-113098188D01*
X132177094Y-113033417D01*
X132177100Y-113033407D01*
X132237618Y-112903627D01*
X132283790Y-112851187D01*
X132350983Y-112832035D01*
X132417865Y-112852251D01*
X132462382Y-112903627D01*
X132522898Y-113033405D01*
X132522901Y-113033411D01*
X132568258Y-113098187D01*
X132568259Y-113098188D01*
X133136923Y-112529523D01*
X133160507Y-112609844D01*
G37*
%TD.AperFunction*%
%TA.AperFunction,Conductor*%
G36*
X135700507Y-112609844D02*
G01*
X135778239Y-112730798D01*
X135886900Y-112824952D01*
X136017685Y-112884680D01*
X136027466Y-112886086D01*
X135450370Y-113463181D01*
X135389047Y-113496666D01*
X135362689Y-113499500D01*
X134417309Y-113499500D01*
X134350270Y-113479815D01*
X134329628Y-113463181D01*
X133752534Y-112886086D01*
X133762315Y-112884680D01*
X133893100Y-112824952D01*
X134001761Y-112730798D01*
X134079493Y-112609844D01*
X134103076Y-112529523D01*
X134671741Y-113098188D01*
X134717094Y-113033417D01*
X134717100Y-113033407D01*
X134777618Y-112903627D01*
X134823790Y-112851187D01*
X134890983Y-112832035D01*
X134957865Y-112852251D01*
X135002382Y-112903627D01*
X135062898Y-113033405D01*
X135062901Y-113033411D01*
X135108258Y-113098187D01*
X135108259Y-113098188D01*
X135676923Y-112529523D01*
X135700507Y-112609844D01*
G37*
%TD.AperFunction*%
%TA.AperFunction,Conductor*%
G36*
X138240507Y-112609844D02*
G01*
X138318239Y-112730798D01*
X138426900Y-112824952D01*
X138557685Y-112884680D01*
X138567466Y-112886086D01*
X137990370Y-113463181D01*
X137929047Y-113496666D01*
X137902689Y-113499500D01*
X136957309Y-113499500D01*
X136890270Y-113479815D01*
X136869628Y-113463181D01*
X136292534Y-112886086D01*
X136302315Y-112884680D01*
X136433100Y-112824952D01*
X136541761Y-112730798D01*
X136619493Y-112609844D01*
X136643076Y-112529523D01*
X137211741Y-113098188D01*
X137257094Y-113033417D01*
X137257100Y-113033407D01*
X137317618Y-112903627D01*
X137363790Y-112851187D01*
X137430983Y-112832035D01*
X137497865Y-112852251D01*
X137542382Y-112903627D01*
X137602898Y-113033405D01*
X137602901Y-113033411D01*
X137648258Y-113098187D01*
X137648259Y-113098188D01*
X138216923Y-112529523D01*
X138240507Y-112609844D01*
G37*
%TD.AperFunction*%
%TA.AperFunction,Conductor*%
G36*
X140780507Y-112609844D02*
G01*
X140858239Y-112730798D01*
X140966900Y-112824952D01*
X141097685Y-112884680D01*
X141107466Y-112886086D01*
X140530370Y-113463181D01*
X140469047Y-113496666D01*
X140442689Y-113499500D01*
X139497309Y-113499500D01*
X139430270Y-113479815D01*
X139409628Y-113463181D01*
X138832534Y-112886086D01*
X138842315Y-112884680D01*
X138973100Y-112824952D01*
X139081761Y-112730798D01*
X139159493Y-112609844D01*
X139183076Y-112529523D01*
X139751741Y-113098188D01*
X139797094Y-113033417D01*
X139797100Y-113033407D01*
X139857618Y-112903627D01*
X139903790Y-112851187D01*
X139970983Y-112832035D01*
X140037865Y-112852251D01*
X140082382Y-112903627D01*
X140142898Y-113033405D01*
X140142901Y-113033411D01*
X140188258Y-113098187D01*
X140188259Y-113098188D01*
X140756923Y-112529523D01*
X140780507Y-112609844D01*
G37*
%TD.AperFunction*%
%TA.AperFunction,Conductor*%
G36*
X143320507Y-112609844D02*
G01*
X143398239Y-112730798D01*
X143506900Y-112824952D01*
X143637685Y-112884680D01*
X143647466Y-112886086D01*
X143070370Y-113463181D01*
X143009047Y-113496666D01*
X142982689Y-113499500D01*
X142037309Y-113499500D01*
X141970270Y-113479815D01*
X141949628Y-113463181D01*
X141372534Y-112886086D01*
X141382315Y-112884680D01*
X141513100Y-112824952D01*
X141621761Y-112730798D01*
X141699493Y-112609844D01*
X141723076Y-112529523D01*
X142291741Y-113098188D01*
X142337094Y-113033417D01*
X142337100Y-113033407D01*
X142397618Y-112903627D01*
X142443790Y-112851187D01*
X142510983Y-112832035D01*
X142577865Y-112852251D01*
X142622382Y-112903627D01*
X142682898Y-113033405D01*
X142682901Y-113033411D01*
X142728258Y-113098187D01*
X142728259Y-113098188D01*
X143296923Y-112529523D01*
X143320507Y-112609844D01*
G37*
%TD.AperFunction*%
%TA.AperFunction,Conductor*%
G36*
X145860507Y-112609844D02*
G01*
X145938239Y-112730798D01*
X146046900Y-112824952D01*
X146177685Y-112884680D01*
X146187466Y-112886086D01*
X145610370Y-113463181D01*
X145549047Y-113496666D01*
X145522689Y-113499500D01*
X144577309Y-113499500D01*
X144510270Y-113479815D01*
X144489628Y-113463181D01*
X143912534Y-112886086D01*
X143922315Y-112884680D01*
X144053100Y-112824952D01*
X144161761Y-112730798D01*
X144239493Y-112609844D01*
X144263076Y-112529523D01*
X144831741Y-113098188D01*
X144877094Y-113033417D01*
X144877100Y-113033407D01*
X144937618Y-112903627D01*
X144983790Y-112851187D01*
X145050983Y-112832035D01*
X145117865Y-112852251D01*
X145162382Y-112903627D01*
X145222898Y-113033405D01*
X145222901Y-113033411D01*
X145268258Y-113098187D01*
X145268259Y-113098188D01*
X145836923Y-112529523D01*
X145860507Y-112609844D01*
G37*
%TD.AperFunction*%
%TA.AperFunction,Conductor*%
G36*
X147371741Y-113098188D02*
G01*
X147417094Y-113033417D01*
X147417095Y-113033416D01*
X147477340Y-112904219D01*
X147523512Y-112851780D01*
X147590706Y-112832627D01*
X147657587Y-112852842D01*
X147702105Y-112904218D01*
X147762466Y-113033662D01*
X147762468Y-113033666D01*
X147889170Y-113214615D01*
X147889175Y-113214621D01*
X147962373Y-113287819D01*
X147995858Y-113349142D01*
X147990874Y-113418834D01*
X147949002Y-113474767D01*
X147883538Y-113499184D01*
X147874692Y-113499500D01*
X147117309Y-113499500D01*
X147050270Y-113479815D01*
X147029628Y-113463181D01*
X146452534Y-112886086D01*
X146462315Y-112884680D01*
X146593100Y-112824952D01*
X146701761Y-112730798D01*
X146779493Y-112609844D01*
X146803076Y-112529523D01*
X147371741Y-113098188D01*
G37*
%TD.AperFunction*%
%TA.AperFunction,Conductor*%
G36*
X168720507Y-112609844D02*
G01*
X168798239Y-112730798D01*
X168906900Y-112824952D01*
X169037685Y-112884680D01*
X169047466Y-112886086D01*
X168470370Y-113463181D01*
X168409047Y-113496666D01*
X168382689Y-113499500D01*
X167625308Y-113499500D01*
X167558269Y-113479815D01*
X167512514Y-113427011D01*
X167502570Y-113357853D01*
X167531595Y-113294297D01*
X167537627Y-113287819D01*
X167552073Y-113273373D01*
X167610826Y-113214620D01*
X167737534Y-113033662D01*
X167797894Y-112904218D01*
X167844066Y-112851779D01*
X167911259Y-112832627D01*
X167978141Y-112852843D01*
X168022658Y-112904219D01*
X168082898Y-113033405D01*
X168082901Y-113033411D01*
X168128258Y-113098187D01*
X168128259Y-113098188D01*
X168696923Y-112529523D01*
X168720507Y-112609844D01*
G37*
%TD.AperFunction*%
%TA.AperFunction,Conductor*%
G36*
X170231741Y-113098188D02*
G01*
X170277094Y-113033417D01*
X170277095Y-113033416D01*
X170337340Y-112904219D01*
X170383512Y-112851780D01*
X170450706Y-112832627D01*
X170517587Y-112852842D01*
X170562105Y-112904218D01*
X170622466Y-113033662D01*
X170622468Y-113033666D01*
X170749170Y-113214615D01*
X170749175Y-113214621D01*
X170822373Y-113287819D01*
X170855858Y-113349142D01*
X170850874Y-113418834D01*
X170809002Y-113474767D01*
X170743538Y-113499184D01*
X170734692Y-113499500D01*
X169977309Y-113499500D01*
X169910270Y-113479815D01*
X169889628Y-113463181D01*
X169312534Y-112886086D01*
X169322315Y-112884680D01*
X169453100Y-112824952D01*
X169561761Y-112730798D01*
X169639493Y-112609844D01*
X169663076Y-112529523D01*
X170231741Y-113098188D01*
G37*
%TD.AperFunction*%
%TA.AperFunction,Conductor*%
G36*
X176340507Y-112609844D02*
G01*
X176418239Y-112730798D01*
X176526900Y-112824952D01*
X176657685Y-112884680D01*
X176667466Y-112886086D01*
X176090370Y-113463181D01*
X176029047Y-113496666D01*
X176002689Y-113499500D01*
X175245308Y-113499500D01*
X175178269Y-113479815D01*
X175132514Y-113427011D01*
X175122570Y-113357853D01*
X175151595Y-113294297D01*
X175157627Y-113287819D01*
X175172073Y-113273373D01*
X175230826Y-113214620D01*
X175357534Y-113033662D01*
X175417894Y-112904218D01*
X175464066Y-112851779D01*
X175531259Y-112832627D01*
X175598141Y-112852843D01*
X175642658Y-112904219D01*
X175702898Y-113033405D01*
X175702901Y-113033411D01*
X175748258Y-113098187D01*
X175748259Y-113098188D01*
X176316923Y-112529523D01*
X176340507Y-112609844D01*
G37*
%TD.AperFunction*%
%TA.AperFunction,Conductor*%
G36*
X177851741Y-113098188D02*
G01*
X177897094Y-113033417D01*
X177897095Y-113033416D01*
X177957340Y-112904219D01*
X178003512Y-112851780D01*
X178070706Y-112832627D01*
X178137587Y-112852842D01*
X178182105Y-112904218D01*
X178242466Y-113033662D01*
X178242468Y-113033666D01*
X178369170Y-113214615D01*
X178369175Y-113214621D01*
X178442373Y-113287819D01*
X178475858Y-113349142D01*
X178470874Y-113418834D01*
X178429002Y-113474767D01*
X178363538Y-113499184D01*
X178354692Y-113499500D01*
X177597309Y-113499500D01*
X177530270Y-113479815D01*
X177509628Y-113463181D01*
X176932534Y-112886086D01*
X176942315Y-112884680D01*
X177073100Y-112824952D01*
X177181761Y-112730798D01*
X177259493Y-112609844D01*
X177283076Y-112529523D01*
X177851741Y-113098188D01*
G37*
%TD.AperFunction*%
%TA.AperFunction,Conductor*%
G36*
X127442539Y-54520185D02*
G01*
X127488294Y-54572989D01*
X127499500Y-54624500D01*
X127499500Y-62771963D01*
X127507190Y-62798154D01*
X127510947Y-62815423D01*
X127514835Y-62842457D01*
X127526173Y-62867283D01*
X127532355Y-62883858D01*
X127540046Y-62910051D01*
X127540047Y-62910053D01*
X127554806Y-62933019D01*
X127563282Y-62948541D01*
X127574623Y-62973373D01*
X127586437Y-62987007D01*
X127592496Y-62994000D01*
X127603095Y-63008160D01*
X127617853Y-63031123D01*
X127617857Y-63031128D01*
X127638488Y-63049006D01*
X127650992Y-63061510D01*
X127668871Y-63082142D01*
X127668872Y-63082143D01*
X127691844Y-63096905D01*
X127705996Y-63107500D01*
X127726627Y-63125377D01*
X127749899Y-63136005D01*
X127751451Y-63136714D01*
X127766978Y-63145192D01*
X127789947Y-63159953D01*
X127816136Y-63167643D01*
X127832713Y-63173826D01*
X127857538Y-63185163D01*
X127857539Y-63185163D01*
X127857543Y-63185165D01*
X127884564Y-63189050D01*
X127901846Y-63192809D01*
X127928039Y-63200500D01*
X127964201Y-63200500D01*
X189340539Y-63200500D01*
X189407578Y-63220185D01*
X189453333Y-63272989D01*
X189463277Y-63342147D01*
X189434252Y-63405703D01*
X189380802Y-63441781D01*
X189295197Y-63471169D01*
X189295188Y-63471172D01*
X189076493Y-63589524D01*
X188880257Y-63742261D01*
X188711833Y-63925217D01*
X188575826Y-64133393D01*
X188475936Y-64361118D01*
X188414892Y-64602175D01*
X188414890Y-64602187D01*
X188394357Y-64849994D01*
X188394357Y-64850005D01*
X188414890Y-65097812D01*
X188414892Y-65097824D01*
X188475936Y-65338881D01*
X188575826Y-65566606D01*
X188711833Y-65774782D01*
X188711836Y-65774785D01*
X188880256Y-65957738D01*
X189076491Y-66110474D01*
X189295190Y-66228828D01*
X189342735Y-66245150D01*
X189380802Y-66258219D01*
X189437817Y-66298604D01*
X189463948Y-66363404D01*
X189450897Y-66432044D01*
X189402808Y-66482731D01*
X189340539Y-66499500D01*
X188071961Y-66499500D01*
X187928039Y-66499500D01*
X187928036Y-66499500D01*
X187928034Y-66499501D01*
X187901842Y-66507190D01*
X187884568Y-66510948D01*
X187857544Y-66514834D01*
X187857541Y-66514835D01*
X187832710Y-66526175D01*
X187816141Y-66532355D01*
X187803171Y-66536163D01*
X187789947Y-66540047D01*
X187789945Y-66540047D01*
X187789945Y-66540048D01*
X187766982Y-66554805D01*
X187751461Y-66563280D01*
X187726628Y-66574621D01*
X187726625Y-66574623D01*
X187706000Y-66592495D01*
X187691840Y-66603095D01*
X187668876Y-66617853D01*
X187668871Y-66617857D01*
X187650993Y-66638489D01*
X187638489Y-66650993D01*
X187617857Y-66668871D01*
X187617853Y-66668876D01*
X187603095Y-66691840D01*
X187592495Y-66706000D01*
X187574623Y-66726625D01*
X187574621Y-66726628D01*
X187563280Y-66751461D01*
X187554805Y-66766982D01*
X187540048Y-66789945D01*
X187532355Y-66816141D01*
X187526175Y-66832710D01*
X187514835Y-66857541D01*
X187514834Y-66857544D01*
X187510948Y-66884568D01*
X187507190Y-66901842D01*
X187499501Y-66928034D01*
X187499500Y-66928042D01*
X187499500Y-107471963D01*
X187507190Y-107498154D01*
X187510947Y-107515423D01*
X187514835Y-107542457D01*
X187526173Y-107567283D01*
X187532355Y-107583858D01*
X187540046Y-107610051D01*
X187540047Y-107610053D01*
X187554806Y-107633019D01*
X187563282Y-107648541D01*
X187574623Y-107673373D01*
X187586437Y-107687007D01*
X187592496Y-107694000D01*
X187603095Y-107708160D01*
X187617853Y-107731123D01*
X187617857Y-107731128D01*
X187638488Y-107749006D01*
X187650992Y-107761510D01*
X187668871Y-107782142D01*
X187668872Y-107782143D01*
X187691844Y-107796905D01*
X187705996Y-107807500D01*
X187726627Y-107825377D01*
X187749899Y-107836005D01*
X187751451Y-107836714D01*
X187766978Y-107845192D01*
X187789947Y-107859953D01*
X187816136Y-107867643D01*
X187832713Y-107873826D01*
X187857538Y-107885163D01*
X187857539Y-107885163D01*
X187857543Y-107885165D01*
X187884564Y-107889050D01*
X187901846Y-107892809D01*
X187928039Y-107900500D01*
X187964201Y-107900500D01*
X189486183Y-107900500D01*
X189553222Y-107920185D01*
X189598977Y-107972989D01*
X189608921Y-108042147D01*
X189579896Y-108105703D01*
X189526446Y-108141781D01*
X189295197Y-108221169D01*
X189295188Y-108221172D01*
X189076493Y-108339524D01*
X188880257Y-108492261D01*
X188711833Y-108675217D01*
X188575826Y-108883393D01*
X188475936Y-109111118D01*
X188414892Y-109352175D01*
X188414890Y-109352187D01*
X188394357Y-109599994D01*
X188394357Y-109600005D01*
X188414890Y-109847812D01*
X188414892Y-109847824D01*
X188475936Y-110088881D01*
X188575826Y-110316606D01*
X188711833Y-110524782D01*
X188711836Y-110524785D01*
X188880256Y-110707738D01*
X189076491Y-110860474D01*
X189076494Y-110860476D01*
X189076496Y-110860477D01*
X189272308Y-110966445D01*
X189321899Y-111015665D01*
X189337007Y-111083881D01*
X189312837Y-111149437D01*
X189257061Y-111191518D01*
X189213291Y-111199500D01*
X187071961Y-111199500D01*
X186928039Y-111199500D01*
X186928036Y-111199500D01*
X186928034Y-111199501D01*
X186901842Y-111207190D01*
X186884568Y-111210948D01*
X186857544Y-111214834D01*
X186857541Y-111214835D01*
X186832710Y-111226175D01*
X186816141Y-111232355D01*
X186803171Y-111236163D01*
X186789947Y-111240047D01*
X186772606Y-111251191D01*
X186766982Y-111254805D01*
X186751461Y-111263280D01*
X186726628Y-111274621D01*
X186726625Y-111274623D01*
X186706000Y-111292495D01*
X186691840Y-111303095D01*
X186668876Y-111317853D01*
X186668871Y-111317857D01*
X186650993Y-111338489D01*
X186638489Y-111350993D01*
X186617857Y-111368871D01*
X186617853Y-111368876D01*
X186603095Y-111391840D01*
X186592495Y-111406000D01*
X186574623Y-111426625D01*
X186574621Y-111426628D01*
X186563280Y-111451461D01*
X186554805Y-111466982D01*
X186540048Y-111489945D01*
X186532355Y-111516141D01*
X186526175Y-111532710D01*
X186514835Y-111557541D01*
X186514834Y-111557544D01*
X186510948Y-111584568D01*
X186507190Y-111601842D01*
X186499501Y-111628034D01*
X186499500Y-111628042D01*
X186499500Y-113375500D01*
X186479815Y-113442539D01*
X186427011Y-113488294D01*
X186375500Y-113499500D01*
X185405308Y-113499500D01*
X185338269Y-113479815D01*
X185292514Y-113427011D01*
X185282570Y-113357853D01*
X185311595Y-113294297D01*
X185317627Y-113287819D01*
X185332073Y-113273373D01*
X185390826Y-113214620D01*
X185517534Y-113033662D01*
X185610894Y-112833450D01*
X185668070Y-112620068D01*
X185687323Y-112400000D01*
X185668070Y-112179932D01*
X185610894Y-111966550D01*
X185517534Y-111766339D01*
X185420696Y-111628039D01*
X185390827Y-111585381D01*
X185321587Y-111516141D01*
X185234620Y-111429174D01*
X185234616Y-111429171D01*
X185234615Y-111429170D01*
X185053666Y-111302468D01*
X185053662Y-111302466D01*
X184924218Y-111242105D01*
X184871779Y-111195932D01*
X184852627Y-111128739D01*
X184872843Y-111061858D01*
X184924219Y-111017340D01*
X185053416Y-110957095D01*
X185053417Y-110957094D01*
X185118188Y-110911741D01*
X184552534Y-110346086D01*
X184562315Y-110344680D01*
X184693100Y-110284952D01*
X184801761Y-110190798D01*
X184879493Y-110069844D01*
X184903076Y-109989523D01*
X185471741Y-110558188D01*
X185517094Y-110493417D01*
X185517100Y-110493407D01*
X185610419Y-110293284D01*
X185610424Y-110293270D01*
X185667573Y-110079986D01*
X185667575Y-110079976D01*
X185686821Y-109860000D01*
X185686821Y-109859999D01*
X185667575Y-109640023D01*
X185667573Y-109640013D01*
X185610424Y-109426729D01*
X185610420Y-109426720D01*
X185517096Y-109226586D01*
X185471741Y-109161811D01*
X185471740Y-109161810D01*
X184903076Y-109730474D01*
X184879493Y-109650156D01*
X184801761Y-109529202D01*
X184693100Y-109435048D01*
X184562315Y-109375320D01*
X184552534Y-109373913D01*
X185118188Y-108808259D01*
X185118187Y-108808258D01*
X185053411Y-108762901D01*
X185053405Y-108762898D01*
X184853284Y-108669580D01*
X184853270Y-108669575D01*
X184639986Y-108612426D01*
X184639976Y-108612424D01*
X184420001Y-108593179D01*
X184419999Y-108593179D01*
X184200023Y-108612424D01*
X184200013Y-108612426D01*
X183986729Y-108669575D01*
X183986720Y-108669579D01*
X183786590Y-108762901D01*
X183721811Y-108808258D01*
X184287466Y-109373913D01*
X184277685Y-109375320D01*
X184146900Y-109435048D01*
X184038239Y-109529202D01*
X183960507Y-109650156D01*
X183936923Y-109730476D01*
X183368258Y-109161811D01*
X183322901Y-109226590D01*
X183262658Y-109355781D01*
X183216485Y-109408220D01*
X183149292Y-109427372D01*
X183082411Y-109407156D01*
X183037894Y-109355781D01*
X182977651Y-109226590D01*
X182977534Y-109226339D01*
X182850826Y-109045380D01*
X182694620Y-108889174D01*
X182694616Y-108889171D01*
X182694615Y-108889170D01*
X182513666Y-108762468D01*
X182513662Y-108762466D01*
X182442434Y-108729252D01*
X182313450Y-108669106D01*
X182313447Y-108669105D01*
X182313445Y-108669104D01*
X182100070Y-108611930D01*
X182100062Y-108611929D01*
X181880002Y-108592677D01*
X181879998Y-108592677D01*
X181659937Y-108611929D01*
X181659929Y-108611930D01*
X181446554Y-108669104D01*
X181446548Y-108669107D01*
X181246340Y-108762465D01*
X181246338Y-108762466D01*
X181065377Y-108889175D01*
X180909175Y-109045377D01*
X180782466Y-109226338D01*
X180782465Y-109226340D01*
X180722382Y-109355189D01*
X180676209Y-109407628D01*
X180609016Y-109426780D01*
X180542135Y-109406564D01*
X180497618Y-109355189D01*
X180437651Y-109226590D01*
X180437534Y-109226339D01*
X180310826Y-109045380D01*
X180154620Y-108889174D01*
X180154616Y-108889171D01*
X180154615Y-108889170D01*
X179973666Y-108762468D01*
X179973662Y-108762466D01*
X179902434Y-108729252D01*
X179773450Y-108669106D01*
X179773447Y-108669105D01*
X179773445Y-108669104D01*
X179560070Y-108611930D01*
X179560062Y-108611929D01*
X179340002Y-108592677D01*
X179339998Y-108592677D01*
X179119937Y-108611929D01*
X179119929Y-108611930D01*
X178906554Y-108669104D01*
X178906548Y-108669107D01*
X178706340Y-108762465D01*
X178706338Y-108762466D01*
X178525377Y-108889175D01*
X178369175Y-109045377D01*
X178242467Y-109226337D01*
X178182105Y-109355782D01*
X178135932Y-109408221D01*
X178068738Y-109427372D01*
X178001857Y-109407156D01*
X177957341Y-109355780D01*
X177897098Y-109226589D01*
X177897097Y-109226587D01*
X177851741Y-109161811D01*
X177851740Y-109161810D01*
X177283076Y-109730474D01*
X177259493Y-109650156D01*
X177181761Y-109529202D01*
X177073100Y-109435048D01*
X176942315Y-109375320D01*
X176932534Y-109373913D01*
X177498188Y-108808259D01*
X177498187Y-108808258D01*
X177433411Y-108762901D01*
X177433405Y-108762898D01*
X177233284Y-108669580D01*
X177233270Y-108669575D01*
X177019986Y-108612426D01*
X177019976Y-108612424D01*
X176800001Y-108593179D01*
X176799999Y-108593179D01*
X176580023Y-108612424D01*
X176580013Y-108612426D01*
X176366729Y-108669575D01*
X176366720Y-108669579D01*
X176166590Y-108762901D01*
X176101811Y-108808258D01*
X176667466Y-109373913D01*
X176657685Y-109375320D01*
X176526900Y-109435048D01*
X176418239Y-109529202D01*
X176340507Y-109650156D01*
X176316923Y-109730476D01*
X175748258Y-109161811D01*
X175702901Y-109226590D01*
X175642658Y-109355781D01*
X175596485Y-109408220D01*
X175529292Y-109427372D01*
X175462411Y-109407156D01*
X175417894Y-109355781D01*
X175357651Y-109226590D01*
X175357534Y-109226339D01*
X175230826Y-109045380D01*
X175074620Y-108889174D01*
X175074616Y-108889171D01*
X175074615Y-108889170D01*
X174893666Y-108762468D01*
X174893662Y-108762466D01*
X174822434Y-108729252D01*
X174693450Y-108669106D01*
X174693447Y-108669105D01*
X174693445Y-108669104D01*
X174480070Y-108611930D01*
X174480062Y-108611929D01*
X174260002Y-108592677D01*
X174259998Y-108592677D01*
X174039937Y-108611929D01*
X174039929Y-108611930D01*
X173826554Y-108669104D01*
X173821469Y-108670956D01*
X173821059Y-108669831D01*
X173757813Y-108679430D01*
X173694033Y-108650903D01*
X173655800Y-108592422D01*
X173650500Y-108556558D01*
X173650500Y-108485503D01*
X173652268Y-108469491D01*
X173652026Y-108469469D01*
X173652760Y-108461706D01*
X173652245Y-108445331D01*
X173650561Y-108391722D01*
X173650500Y-108387828D01*
X173650500Y-108359078D01*
X173650499Y-108359071D01*
X173649950Y-108354725D01*
X173649031Y-108343062D01*
X173648867Y-108337832D01*
X173647598Y-108297431D01*
X173641675Y-108277045D01*
X173637729Y-108257990D01*
X173636897Y-108251405D01*
X173635071Y-108236942D01*
X173618261Y-108194487D01*
X173614481Y-108183445D01*
X173601744Y-108139602D01*
X173590940Y-108121334D01*
X173582378Y-108103856D01*
X173574568Y-108084129D01*
X173574565Y-108084125D01*
X173547730Y-108047189D01*
X173541331Y-108037448D01*
X173518081Y-107998135D01*
X173518079Y-107998133D01*
X173518078Y-107998131D01*
X173503075Y-107983129D01*
X173490435Y-107968330D01*
X173490163Y-107967956D01*
X173477963Y-107951163D01*
X173477961Y-107951160D01*
X173442780Y-107922056D01*
X173434140Y-107914194D01*
X173020434Y-107500488D01*
X173010361Y-107487914D01*
X173010174Y-107488070D01*
X173005198Y-107482054D01*
X172954167Y-107434134D01*
X172951369Y-107431423D01*
X172931035Y-107411089D01*
X172927548Y-107408384D01*
X172918669Y-107400800D01*
X172885396Y-107369554D01*
X172885388Y-107369548D01*
X172866792Y-107359325D01*
X172850531Y-107348644D01*
X172833763Y-107335637D01*
X172808853Y-107324858D01*
X172791853Y-107317501D01*
X172781394Y-107312377D01*
X172741368Y-107290373D01*
X172741365Y-107290372D01*
X172720801Y-107285092D01*
X172702396Y-107278790D01*
X172682927Y-107270365D01*
X172682921Y-107270363D01*
X172637837Y-107263223D01*
X172626398Y-107260854D01*
X172582180Y-107249500D01*
X172582177Y-107249500D01*
X172560955Y-107249500D01*
X172541555Y-107247973D01*
X172520596Y-107244653D01*
X172520595Y-107244653D01*
X172485475Y-107247973D01*
X172475140Y-107248950D01*
X172463470Y-107249500D01*
X171265567Y-107249500D01*
X171198528Y-107229815D01*
X171152773Y-107177011D01*
X171142829Y-107107853D01*
X171148526Y-107084545D01*
X171185366Y-106979262D01*
X171185369Y-106979249D01*
X171205565Y-106800003D01*
X171205565Y-106799996D01*
X171185369Y-106620750D01*
X171185368Y-106620745D01*
X171163253Y-106557543D01*
X171125789Y-106450478D01*
X171120672Y-106442335D01*
X171052549Y-106333918D01*
X171029816Y-106297738D01*
X170902262Y-106170184D01*
X170891063Y-106163147D01*
X170749523Y-106074211D01*
X170579254Y-106014631D01*
X170579249Y-106014630D01*
X170400004Y-105994435D01*
X170399996Y-105994435D01*
X170220750Y-106014630D01*
X170220745Y-106014631D01*
X170050476Y-106074211D01*
X169897737Y-106170184D01*
X169770184Y-106297737D01*
X169674211Y-106450476D01*
X169614631Y-106620745D01*
X169614630Y-106620750D01*
X169594435Y-106799996D01*
X169594435Y-106800003D01*
X169614630Y-106979249D01*
X169614633Y-106979262D01*
X169651474Y-107084545D01*
X169655036Y-107154324D01*
X169620308Y-107214951D01*
X169558314Y-107247179D01*
X169534433Y-107249500D01*
X165120808Y-107249500D01*
X165053769Y-107229815D01*
X165033127Y-107213181D01*
X162486819Y-104666873D01*
X162453334Y-104605550D01*
X162450500Y-104579192D01*
X162450500Y-88263234D01*
X162470185Y-88196195D01*
X162522989Y-88150440D01*
X162592147Y-88140496D01*
X162626902Y-88150851D01*
X162676337Y-88173903D01*
X162904592Y-88235063D01*
X163081034Y-88250500D01*
X163139999Y-88255659D01*
X163140000Y-88255659D01*
X163140001Y-88255659D01*
X163198966Y-88250500D01*
X163375408Y-88235063D01*
X163603663Y-88173903D01*
X163817830Y-88074035D01*
X164011401Y-87938495D01*
X164178495Y-87771401D01*
X164308730Y-87585405D01*
X164363307Y-87541781D01*
X164432805Y-87534587D01*
X164495160Y-87566110D01*
X164511879Y-87585405D01*
X164641890Y-87771078D01*
X164808917Y-87938105D01*
X165002421Y-88073600D01*
X165216507Y-88173429D01*
X165216516Y-88173433D01*
X165430000Y-88230634D01*
X165430000Y-87346494D01*
X165534839Y-87394373D01*
X165643527Y-87410000D01*
X165716473Y-87410000D01*
X165825161Y-87394373D01*
X165930000Y-87346494D01*
X165930000Y-88230634D01*
X166143483Y-88173433D01*
X166143492Y-88173429D01*
X166357578Y-88073600D01*
X166551082Y-87938105D01*
X166718105Y-87771082D01*
X166848119Y-87585405D01*
X166902696Y-87541781D01*
X166972195Y-87534588D01*
X167034549Y-87566110D01*
X167051269Y-87585405D01*
X167181505Y-87771401D01*
X167348599Y-87938495D01*
X167445384Y-88006265D01*
X167542165Y-88074032D01*
X167542167Y-88074033D01*
X167542170Y-88074035D01*
X167756337Y-88173903D01*
X167984592Y-88235063D01*
X168161034Y-88250500D01*
X168219999Y-88255659D01*
X168220000Y-88255659D01*
X168220001Y-88255659D01*
X168278966Y-88250500D01*
X168455408Y-88235063D01*
X168683663Y-88173903D01*
X168897830Y-88074035D01*
X169091401Y-87938495D01*
X169258495Y-87771401D01*
X169388425Y-87585842D01*
X169443002Y-87542217D01*
X169512500Y-87535023D01*
X169574855Y-87566546D01*
X169591575Y-87585842D01*
X169721500Y-87771395D01*
X169721505Y-87771401D01*
X169888599Y-87938495D01*
X169985384Y-88006265D01*
X170082165Y-88074032D01*
X170082167Y-88074033D01*
X170082170Y-88074035D01*
X170296337Y-88173903D01*
X170524592Y-88235063D01*
X170701034Y-88250500D01*
X170759999Y-88255659D01*
X170760000Y-88255659D01*
X170760001Y-88255659D01*
X170818966Y-88250500D01*
X170995408Y-88235063D01*
X171127353Y-88199709D01*
X171153407Y-88192728D01*
X171223257Y-88194391D01*
X171281119Y-88233554D01*
X171308623Y-88297782D01*
X171309500Y-88312503D01*
X171309500Y-91062512D01*
X171308439Y-91078697D01*
X171304318Y-91109998D01*
X171304318Y-91110000D01*
X171309500Y-91149360D01*
X171309500Y-91149361D01*
X171324955Y-91266760D01*
X171324956Y-91266762D01*
X171380828Y-91401650D01*
X171385464Y-91412841D01*
X171398151Y-91429375D01*
X171481719Y-91538283D01*
X171506769Y-91557504D01*
X171518964Y-91568199D01*
X172541799Y-92591034D01*
X172552493Y-92603228D01*
X172559405Y-92612236D01*
X172571718Y-92628282D01*
X172666138Y-92700733D01*
X172666139Y-92700734D01*
X172670506Y-92704085D01*
X172682704Y-92714782D01*
X172797738Y-92829816D01*
X172950478Y-92925789D01*
X173047153Y-92959617D01*
X173120745Y-92985368D01*
X173120750Y-92985369D01*
X173299996Y-93005565D01*
X173300000Y-93005565D01*
X173300004Y-93005565D01*
X173479249Y-92985369D01*
X173479252Y-92985368D01*
X173479255Y-92985368D01*
X173649522Y-92925789D01*
X173802262Y-92829816D01*
X173877819Y-92754259D01*
X173939142Y-92720774D01*
X174008834Y-92725758D01*
X174064767Y-92767630D01*
X174089184Y-92833094D01*
X174089500Y-92841940D01*
X174089500Y-100542512D01*
X174088439Y-100558697D01*
X174084318Y-100589998D01*
X174084318Y-100590000D01*
X174089500Y-100629360D01*
X174089500Y-100629361D01*
X174104955Y-100746760D01*
X174104956Y-100746762D01*
X174165464Y-100892841D01*
X174261718Y-101018282D01*
X174261719Y-101018283D01*
X174286769Y-101037504D01*
X174298964Y-101048199D01*
X178341799Y-105091034D01*
X178352493Y-105103228D01*
X178371717Y-105128281D01*
X178371718Y-105128282D01*
X178413573Y-105160398D01*
X178485867Y-105215871D01*
X178485868Y-105215871D01*
X178497159Y-105224536D01*
X178497162Y-105224537D01*
X178497165Y-105224539D01*
X178576823Y-105257534D01*
X178643238Y-105285044D01*
X178707286Y-105293476D01*
X178799999Y-105305682D01*
X178800000Y-105305682D01*
X178831302Y-105301560D01*
X178847487Y-105300500D01*
X181652513Y-105300500D01*
X181668697Y-105301560D01*
X181700000Y-105305682D01*
X181700001Y-105305682D01*
X181731301Y-105301561D01*
X181777693Y-105295452D01*
X181807762Y-105295172D01*
X181899998Y-105305565D01*
X181900000Y-105305565D01*
X181900004Y-105305565D01*
X182079249Y-105285369D01*
X182079252Y-105285368D01*
X182079255Y-105285368D01*
X182249522Y-105225789D01*
X182402262Y-105129816D01*
X182529816Y-105002262D01*
X182625789Y-104849522D01*
X182685368Y-104679255D01*
X182687420Y-104661046D01*
X182705565Y-104500003D01*
X182705565Y-104499996D01*
X182685369Y-104320750D01*
X182685368Y-104320745D01*
X182662318Y-104254872D01*
X182625789Y-104150478D01*
X182617465Y-104137231D01*
X182570937Y-104063181D01*
X182529816Y-103997738D01*
X182402262Y-103870184D01*
X182338504Y-103830122D01*
X182249523Y-103774211D01*
X182079254Y-103714631D01*
X182079249Y-103714630D01*
X181900004Y-103694435D01*
X181899996Y-103694435D01*
X181720750Y-103714630D01*
X181720745Y-103714631D01*
X181550476Y-103774211D01*
X181397737Y-103870184D01*
X181270182Y-103997739D01*
X181242703Y-104041473D01*
X181190369Y-104087763D01*
X181137710Y-104099500D01*
X179100097Y-104099500D01*
X179033058Y-104079815D01*
X179012416Y-104063181D01*
X175326819Y-100377584D01*
X175293334Y-100316261D01*
X175290500Y-100289903D01*
X175290500Y-88312503D01*
X175310185Y-88245464D01*
X175362989Y-88199709D01*
X175432147Y-88189765D01*
X175446593Y-88192728D01*
X175472647Y-88199709D01*
X175604592Y-88235063D01*
X175781034Y-88250500D01*
X175839999Y-88255659D01*
X175840000Y-88255659D01*
X175840001Y-88255659D01*
X175898966Y-88250500D01*
X176075408Y-88235063D01*
X176303663Y-88173903D01*
X176517830Y-88074035D01*
X176711401Y-87938495D01*
X176878495Y-87771401D01*
X177008425Y-87585842D01*
X177063002Y-87542217D01*
X177132500Y-87535023D01*
X177194855Y-87566546D01*
X177211575Y-87585842D01*
X177341500Y-87771395D01*
X177341505Y-87771401D01*
X177508599Y-87938495D01*
X177605384Y-88006265D01*
X177702165Y-88074032D01*
X177702167Y-88074033D01*
X177702170Y-88074035D01*
X177916337Y-88173903D01*
X178144592Y-88235063D01*
X178321034Y-88250500D01*
X178379999Y-88255659D01*
X178380000Y-88255659D01*
X178380001Y-88255659D01*
X178438966Y-88250500D01*
X178615408Y-88235063D01*
X178843663Y-88173903D01*
X179057830Y-88074035D01*
X179251401Y-87938495D01*
X179418495Y-87771401D01*
X179554035Y-87577830D01*
X179653903Y-87363663D01*
X179715063Y-87135408D01*
X179735659Y-86900000D01*
X179715063Y-86664592D01*
X179653903Y-86436337D01*
X179554035Y-86222171D01*
X179548731Y-86214595D01*
X179418494Y-86028597D01*
X179251402Y-85861506D01*
X179251395Y-85861501D01*
X179057834Y-85725967D01*
X179057830Y-85725965D01*
X179027091Y-85711631D01*
X178843663Y-85626097D01*
X178843659Y-85626096D01*
X178843655Y-85626094D01*
X178615413Y-85564938D01*
X178615403Y-85564936D01*
X178380001Y-85544341D01*
X178379999Y-85544341D01*
X178144596Y-85564936D01*
X178144586Y-85564938D01*
X177916344Y-85626094D01*
X177916335Y-85626098D01*
X177702171Y-85725964D01*
X177702169Y-85725965D01*
X177508597Y-85861505D01*
X177341505Y-86028597D01*
X177211575Y-86214158D01*
X177156998Y-86257783D01*
X177087500Y-86264977D01*
X177025145Y-86233454D01*
X177008425Y-86214158D01*
X176878494Y-86028597D01*
X176711402Y-85861506D01*
X176711395Y-85861501D01*
X176517831Y-85725965D01*
X176517827Y-85725963D01*
X176487093Y-85711631D01*
X176434655Y-85665458D01*
X176415500Y-85599250D01*
X176415500Y-85549741D01*
X176435185Y-85482702D01*
X176451814Y-85462065D01*
X178378690Y-83535188D01*
X178440011Y-83501705D01*
X178452483Y-83499651D01*
X178477210Y-83496865D01*
X178579250Y-83485369D01*
X178579253Y-83485368D01*
X178579255Y-83485368D01*
X178749522Y-83425789D01*
X178902262Y-83329816D01*
X179029816Y-83202262D01*
X179125789Y-83049522D01*
X179185368Y-82879255D01*
X179203164Y-82721309D01*
X179205565Y-82700003D01*
X179205565Y-82699996D01*
X179185369Y-82520750D01*
X179185368Y-82520745D01*
X179125788Y-82350476D01*
X179086582Y-82288080D01*
X179029816Y-82197738D01*
X178902262Y-82070184D01*
X178882176Y-82057563D01*
X178747137Y-81972712D01*
X178700846Y-81920377D01*
X178690198Y-81851323D01*
X178718573Y-81787475D01*
X178760702Y-81755337D01*
X178827830Y-81724035D01*
X179021401Y-81588495D01*
X179188495Y-81421401D01*
X179324035Y-81227830D01*
X179423903Y-81013663D01*
X179485063Y-80785408D01*
X179505659Y-80550000D01*
X179502824Y-80517602D01*
X179499574Y-80480454D01*
X179485063Y-80314592D01*
X179423903Y-80086337D01*
X179324035Y-79872171D01*
X179323808Y-79871847D01*
X179188496Y-79678600D01*
X179127679Y-79617783D01*
X179066567Y-79556671D01*
X179033084Y-79495351D01*
X179038068Y-79425659D01*
X179079939Y-79369725D01*
X179110915Y-79352810D01*
X179242331Y-79303796D01*
X179357546Y-79217546D01*
X179443796Y-79102331D01*
X179494091Y-78967483D01*
X179500500Y-78907873D01*
X179500499Y-77112128D01*
X179494091Y-77052517D01*
X179443796Y-76917669D01*
X179443795Y-76917668D01*
X179443793Y-76917664D01*
X179357547Y-76802455D01*
X179357544Y-76802452D01*
X179354273Y-76800003D01*
X180894435Y-76800003D01*
X180914630Y-76979249D01*
X180914631Y-76979254D01*
X180974211Y-77149523D01*
X181070184Y-77302262D01*
X181197738Y-77429816D01*
X181350478Y-77525789D01*
X181520745Y-77585368D01*
X181520750Y-77585369D01*
X181699996Y-77605565D01*
X181700000Y-77605565D01*
X181700004Y-77605565D01*
X181879249Y-77585369D01*
X181879252Y-77585368D01*
X181879255Y-77585368D01*
X182049522Y-77525789D01*
X182202262Y-77429816D01*
X182329816Y-77302262D01*
X182425789Y-77149522D01*
X182485368Y-76979255D01*
X182501512Y-76835972D01*
X182505565Y-76800003D01*
X182505565Y-76799996D01*
X182485369Y-76620750D01*
X182485368Y-76620745D01*
X182476129Y-76594341D01*
X182425789Y-76450478D01*
X182404560Y-76416693D01*
X182377398Y-76373465D01*
X182329816Y-76297738D01*
X182202262Y-76170184D01*
X182167197Y-76148151D01*
X182049523Y-76074211D01*
X181879254Y-76014631D01*
X181879249Y-76014630D01*
X181700004Y-75994435D01*
X181699996Y-75994435D01*
X181520750Y-76014630D01*
X181520745Y-76014631D01*
X181350476Y-76074211D01*
X181197737Y-76170184D01*
X181070184Y-76297737D01*
X180974211Y-76450476D01*
X180914631Y-76620745D01*
X180914630Y-76620750D01*
X180894435Y-76799996D01*
X180894435Y-76800003D01*
X179354273Y-76800003D01*
X179242335Y-76716206D01*
X179242328Y-76716202D01*
X179110917Y-76667189D01*
X179054983Y-76625318D01*
X179030566Y-76559853D01*
X179045418Y-76491580D01*
X179066563Y-76463332D01*
X179188495Y-76341401D01*
X179324035Y-76147830D01*
X179423903Y-75933663D01*
X179485063Y-75705408D01*
X179505659Y-75470000D01*
X179485063Y-75234592D01*
X179430365Y-75030454D01*
X179423905Y-75006344D01*
X179423904Y-75006343D01*
X179423903Y-75006337D01*
X179324035Y-74792171D01*
X179322304Y-74789698D01*
X179188494Y-74598597D01*
X179021402Y-74431506D01*
X179021395Y-74431501D01*
X179007606Y-74421846D01*
X178966200Y-74392853D01*
X178827834Y-74295967D01*
X178827830Y-74295965D01*
X178803865Y-74284790D01*
X178613663Y-74196097D01*
X178613659Y-74196096D01*
X178613655Y-74196094D01*
X178385413Y-74134938D01*
X178385403Y-74134936D01*
X178150001Y-74114341D01*
X178149999Y-74114341D01*
X177914596Y-74134936D01*
X177914586Y-74134938D01*
X177686344Y-74196094D01*
X177686335Y-74196098D01*
X177472171Y-74295964D01*
X177472169Y-74295965D01*
X177278597Y-74431505D01*
X177111505Y-74598597D01*
X176975965Y-74792169D01*
X176975964Y-74792171D01*
X176876098Y-75006335D01*
X176876094Y-75006344D01*
X176814938Y-75234586D01*
X176814936Y-75234596D01*
X176794341Y-75469999D01*
X176794341Y-75470000D01*
X176814936Y-75705403D01*
X176814938Y-75705413D01*
X176876094Y-75933655D01*
X176876096Y-75933659D01*
X176876097Y-75933663D01*
X176963358Y-76120794D01*
X176975965Y-76147830D01*
X176975967Y-76147834D01*
X177066192Y-76276687D01*
X177111501Y-76341396D01*
X177111506Y-76341402D01*
X177233430Y-76463326D01*
X177266915Y-76524649D01*
X177261931Y-76594341D01*
X177220059Y-76650274D01*
X177189083Y-76667189D01*
X177057669Y-76716203D01*
X177057664Y-76716206D01*
X176942455Y-76802452D01*
X176942452Y-76802455D01*
X176856206Y-76917664D01*
X176856202Y-76917671D01*
X176805908Y-77052517D01*
X176799501Y-77112116D01*
X176799501Y-77112123D01*
X176799500Y-77112135D01*
X176799500Y-78907870D01*
X176799501Y-78907876D01*
X176805908Y-78967483D01*
X176856202Y-79102328D01*
X176856206Y-79102335D01*
X176942452Y-79217544D01*
X176942455Y-79217547D01*
X177057664Y-79303793D01*
X177057671Y-79303797D01*
X177189081Y-79352810D01*
X177245015Y-79394681D01*
X177269432Y-79460145D01*
X177254580Y-79528418D01*
X177233430Y-79556673D01*
X177111503Y-79678600D01*
X176975965Y-79872169D01*
X176975964Y-79872171D01*
X176876098Y-80086335D01*
X176876094Y-80086344D01*
X176814938Y-80314586D01*
X176814936Y-80314596D01*
X176794341Y-80549999D01*
X176794341Y-80550000D01*
X176814936Y-80785403D01*
X176814938Y-80785413D01*
X176876094Y-81013655D01*
X176876096Y-81013659D01*
X176876097Y-81013663D01*
X176945374Y-81162228D01*
X176975965Y-81227830D01*
X176975967Y-81227834D01*
X177062881Y-81351959D01*
X177111505Y-81421401D01*
X177278599Y-81588495D01*
X177359735Y-81645307D01*
X177472165Y-81724032D01*
X177472167Y-81724033D01*
X177472170Y-81724035D01*
X177686337Y-81823903D01*
X177686343Y-81823904D01*
X177686344Y-81823905D01*
X177703788Y-81828579D01*
X177839843Y-81865034D01*
X177899503Y-81901398D01*
X177930033Y-81964245D01*
X177921739Y-82033621D01*
X177895432Y-82072490D01*
X177770183Y-82197739D01*
X177674210Y-82350478D01*
X177614630Y-82520750D01*
X177600348Y-82647512D01*
X177573281Y-82711926D01*
X177564809Y-82721309D01*
X175502181Y-84783938D01*
X175440858Y-84817423D01*
X175371166Y-84812439D01*
X175315233Y-84770567D01*
X175290816Y-84705103D01*
X175290500Y-84696257D01*
X175290500Y-70557487D01*
X175291561Y-70541303D01*
X175294738Y-70517170D01*
X175323004Y-70453273D01*
X175381328Y-70414801D01*
X175449770Y-70413579D01*
X175604592Y-70455063D01*
X175781034Y-70470500D01*
X175839999Y-70475659D01*
X175840000Y-70475659D01*
X175840001Y-70475659D01*
X175898966Y-70470500D01*
X176075408Y-70455063D01*
X176303663Y-70393903D01*
X176517830Y-70294035D01*
X176711401Y-70158495D01*
X176878495Y-69991401D01*
X177008426Y-69805841D01*
X177063002Y-69762217D01*
X177132500Y-69755023D01*
X177194855Y-69786546D01*
X177211575Y-69805842D01*
X177341500Y-69991395D01*
X177341505Y-69991401D01*
X177508599Y-70158495D01*
X177605384Y-70226265D01*
X177702165Y-70294032D01*
X177702167Y-70294033D01*
X177702170Y-70294035D01*
X177916337Y-70393903D01*
X178144592Y-70455063D01*
X178321034Y-70470500D01*
X178379999Y-70475659D01*
X178380000Y-70475659D01*
X178380001Y-70475659D01*
X178438966Y-70470500D01*
X178615408Y-70455063D01*
X178843663Y-70393903D01*
X179057830Y-70294035D01*
X179251401Y-70158495D01*
X179418495Y-69991401D01*
X179554035Y-69797830D01*
X179653903Y-69583663D01*
X179715063Y-69355408D01*
X179735659Y-69120000D01*
X179715063Y-68884592D01*
X179653903Y-68656337D01*
X179554035Y-68442171D01*
X179548731Y-68434595D01*
X179418494Y-68248597D01*
X179251402Y-68081506D01*
X179251395Y-68081501D01*
X179057834Y-67945967D01*
X179057830Y-67945965D01*
X178986727Y-67912809D01*
X178843663Y-67846097D01*
X178843659Y-67846096D01*
X178843655Y-67846094D01*
X178615413Y-67784938D01*
X178615403Y-67784936D01*
X178380001Y-67764341D01*
X178379999Y-67764341D01*
X178144596Y-67784936D01*
X178144586Y-67784938D01*
X177916344Y-67846094D01*
X177916335Y-67846098D01*
X177702171Y-67945964D01*
X177702169Y-67945965D01*
X177508597Y-68081505D01*
X177341505Y-68248597D01*
X177211575Y-68434158D01*
X177156998Y-68477783D01*
X177087500Y-68484977D01*
X177025145Y-68453454D01*
X177008425Y-68434158D01*
X176878494Y-68248597D01*
X176711402Y-68081506D01*
X176711395Y-68081501D01*
X176517834Y-67945967D01*
X176517830Y-67945965D01*
X176446727Y-67912809D01*
X176303663Y-67846097D01*
X176303659Y-67846096D01*
X176303655Y-67846094D01*
X176075413Y-67784938D01*
X176075403Y-67784936D01*
X175840001Y-67764341D01*
X175839999Y-67764341D01*
X175604596Y-67784936D01*
X175604586Y-67784938D01*
X175376344Y-67846094D01*
X175376335Y-67846098D01*
X175162171Y-67945964D01*
X175162169Y-67945965D01*
X174968600Y-68081503D01*
X174846673Y-68203430D01*
X174785350Y-68236914D01*
X174715658Y-68231930D01*
X174659725Y-68190058D01*
X174642810Y-68159081D01*
X174593797Y-68027671D01*
X174593793Y-68027664D01*
X174507547Y-67912455D01*
X174507544Y-67912452D01*
X174392335Y-67826206D01*
X174392328Y-67826202D01*
X174257482Y-67775908D01*
X174257483Y-67775908D01*
X174197883Y-67769501D01*
X174197881Y-67769500D01*
X174197873Y-67769500D01*
X174197864Y-67769500D01*
X172402129Y-67769500D01*
X172402123Y-67769501D01*
X172342516Y-67775908D01*
X172207671Y-67826202D01*
X172207664Y-67826206D01*
X172092455Y-67912452D01*
X172092452Y-67912455D01*
X172006206Y-68027664D01*
X172006203Y-68027669D01*
X171957189Y-68159083D01*
X171915317Y-68215016D01*
X171849853Y-68239433D01*
X171781580Y-68224581D01*
X171753326Y-68203430D01*
X171631402Y-68081506D01*
X171631395Y-68081501D01*
X171437834Y-67945967D01*
X171437830Y-67945965D01*
X171366727Y-67912809D01*
X171223663Y-67846097D01*
X171223659Y-67846096D01*
X171223655Y-67846094D01*
X170995413Y-67784938D01*
X170995403Y-67784936D01*
X170760001Y-67764341D01*
X170759999Y-67764341D01*
X170524596Y-67784936D01*
X170524586Y-67784938D01*
X170296344Y-67846094D01*
X170296335Y-67846098D01*
X170082171Y-67945964D01*
X170082169Y-67945965D01*
X169888597Y-68081505D01*
X169721505Y-68248597D01*
X169591575Y-68434158D01*
X169536998Y-68477783D01*
X169467500Y-68484977D01*
X169405145Y-68453454D01*
X169388425Y-68434158D01*
X169258494Y-68248597D01*
X169091402Y-68081506D01*
X169091395Y-68081501D01*
X168897834Y-67945967D01*
X168897830Y-67945965D01*
X168826727Y-67912809D01*
X168683663Y-67846097D01*
X168683659Y-67846096D01*
X168683655Y-67846094D01*
X168455413Y-67784938D01*
X168455403Y-67784936D01*
X168220001Y-67764341D01*
X168219999Y-67764341D01*
X167984596Y-67784936D01*
X167984586Y-67784938D01*
X167756344Y-67846094D01*
X167756335Y-67846098D01*
X167542171Y-67945964D01*
X167542169Y-67945965D01*
X167348597Y-68081505D01*
X167181505Y-68248597D01*
X167051575Y-68434158D01*
X166996998Y-68477783D01*
X166927500Y-68484977D01*
X166865145Y-68453454D01*
X166848425Y-68434158D01*
X166718494Y-68248597D01*
X166551402Y-68081506D01*
X166551395Y-68081501D01*
X166357834Y-67945967D01*
X166357830Y-67945965D01*
X166286727Y-67912809D01*
X166143663Y-67846097D01*
X166143659Y-67846096D01*
X166143655Y-67846094D01*
X165915413Y-67784938D01*
X165915403Y-67784936D01*
X165680001Y-67764341D01*
X165679999Y-67764341D01*
X165444596Y-67784936D01*
X165444586Y-67784938D01*
X165216344Y-67846094D01*
X165216335Y-67846098D01*
X165002171Y-67945964D01*
X165002169Y-67945965D01*
X164808597Y-68081505D01*
X164641505Y-68248597D01*
X164511575Y-68434158D01*
X164456998Y-68477783D01*
X164387500Y-68484977D01*
X164325145Y-68453454D01*
X164308425Y-68434158D01*
X164178494Y-68248597D01*
X164011402Y-68081506D01*
X164011395Y-68081501D01*
X163817834Y-67945967D01*
X163817830Y-67945965D01*
X163746727Y-67912809D01*
X163603663Y-67846097D01*
X163603659Y-67846096D01*
X163603655Y-67846094D01*
X163375413Y-67784938D01*
X163375403Y-67784936D01*
X163140001Y-67764341D01*
X163139999Y-67764341D01*
X162904596Y-67784936D01*
X162904586Y-67784938D01*
X162676344Y-67846094D01*
X162676335Y-67846098D01*
X162462171Y-67945964D01*
X162462169Y-67945965D01*
X162268600Y-68081503D01*
X162146673Y-68203430D01*
X162085350Y-68236914D01*
X162015658Y-68231930D01*
X161959725Y-68190058D01*
X161942810Y-68159081D01*
X161893797Y-68027671D01*
X161893793Y-68027664D01*
X161807547Y-67912455D01*
X161807544Y-67912452D01*
X161692335Y-67826206D01*
X161692328Y-67826202D01*
X161557482Y-67775908D01*
X161557483Y-67775908D01*
X161497883Y-67769501D01*
X161497881Y-67769500D01*
X161497873Y-67769500D01*
X161497864Y-67769500D01*
X159702129Y-67769500D01*
X159702123Y-67769501D01*
X159642516Y-67775908D01*
X159507671Y-67826202D01*
X159507664Y-67826206D01*
X159392455Y-67912452D01*
X159392452Y-67912455D01*
X159306206Y-68027664D01*
X159306202Y-68027671D01*
X159256997Y-68159598D01*
X159215126Y-68215532D01*
X159149661Y-68239949D01*
X159081388Y-68225097D01*
X159053134Y-68203946D01*
X158931082Y-68081894D01*
X158737578Y-67946399D01*
X158523492Y-67846570D01*
X158523486Y-67846567D01*
X158310000Y-67789364D01*
X158310000Y-68673505D01*
X158205161Y-68625627D01*
X158096473Y-68610000D01*
X158023527Y-68610000D01*
X157914839Y-68625627D01*
X157810000Y-68673505D01*
X157810000Y-67789364D01*
X157809999Y-67789364D01*
X157596513Y-67846567D01*
X157596507Y-67846570D01*
X157382422Y-67946399D01*
X157382420Y-67946400D01*
X157188926Y-68081886D01*
X157188920Y-68081891D01*
X157021891Y-68248920D01*
X157021890Y-68248922D01*
X156891880Y-68434595D01*
X156837303Y-68478219D01*
X156767804Y-68485412D01*
X156705450Y-68453890D01*
X156688730Y-68434594D01*
X156558494Y-68248597D01*
X156391402Y-68081506D01*
X156391395Y-68081501D01*
X156197834Y-67945967D01*
X156197830Y-67945965D01*
X156126727Y-67912809D01*
X155983663Y-67846097D01*
X155983659Y-67846096D01*
X155983655Y-67846094D01*
X155755413Y-67784938D01*
X155755403Y-67784936D01*
X155520001Y-67764341D01*
X155519999Y-67764341D01*
X155284596Y-67784936D01*
X155284586Y-67784938D01*
X155056344Y-67846094D01*
X155056335Y-67846098D01*
X154842171Y-67945964D01*
X154842169Y-67945965D01*
X154648597Y-68081505D01*
X154481505Y-68248597D01*
X154351575Y-68434158D01*
X154296998Y-68477783D01*
X154227500Y-68484977D01*
X154165145Y-68453454D01*
X154148425Y-68434158D01*
X154018494Y-68248597D01*
X153851402Y-68081506D01*
X153851395Y-68081501D01*
X153657834Y-67945967D01*
X153657830Y-67945965D01*
X153586727Y-67912809D01*
X153443663Y-67846097D01*
X153443659Y-67846096D01*
X153443655Y-67846094D01*
X153215413Y-67784938D01*
X153215403Y-67784936D01*
X152980001Y-67764341D01*
X152979999Y-67764341D01*
X152744596Y-67784936D01*
X152744586Y-67784938D01*
X152516344Y-67846094D01*
X152516335Y-67846098D01*
X152302171Y-67945964D01*
X152302169Y-67945965D01*
X152108597Y-68081505D01*
X151941505Y-68248597D01*
X151811575Y-68434158D01*
X151756998Y-68477783D01*
X151687500Y-68484977D01*
X151625145Y-68453454D01*
X151608425Y-68434158D01*
X151478494Y-68248597D01*
X151311402Y-68081506D01*
X151311395Y-68081501D01*
X151117834Y-67945967D01*
X151117830Y-67945965D01*
X151046727Y-67912809D01*
X150903663Y-67846097D01*
X150903659Y-67846096D01*
X150903655Y-67846094D01*
X150675413Y-67784938D01*
X150675403Y-67784936D01*
X150440001Y-67764341D01*
X150439999Y-67764341D01*
X150204596Y-67784936D01*
X150204586Y-67784938D01*
X149976344Y-67846094D01*
X149976335Y-67846098D01*
X149762171Y-67945964D01*
X149762169Y-67945965D01*
X149568600Y-68081503D01*
X149446673Y-68203430D01*
X149385350Y-68236914D01*
X149315658Y-68231930D01*
X149259725Y-68190058D01*
X149242810Y-68159081D01*
X149193797Y-68027671D01*
X149193793Y-68027664D01*
X149107547Y-67912455D01*
X149107544Y-67912452D01*
X148992335Y-67826206D01*
X148992328Y-67826202D01*
X148857482Y-67775908D01*
X148857483Y-67775908D01*
X148797883Y-67769501D01*
X148797881Y-67769500D01*
X148797873Y-67769500D01*
X148797864Y-67769500D01*
X147002129Y-67769500D01*
X147002123Y-67769501D01*
X146942516Y-67775908D01*
X146807671Y-67826202D01*
X146807664Y-67826206D01*
X146692455Y-67912452D01*
X146692452Y-67912455D01*
X146606206Y-68027664D01*
X146606203Y-68027669D01*
X146557189Y-68159083D01*
X146515317Y-68215016D01*
X146449853Y-68239433D01*
X146381580Y-68224581D01*
X146353326Y-68203430D01*
X146231402Y-68081506D01*
X146231395Y-68081501D01*
X146037834Y-67945967D01*
X146037830Y-67945965D01*
X145966727Y-67912809D01*
X145823663Y-67846097D01*
X145823659Y-67846096D01*
X145823655Y-67846094D01*
X145595413Y-67784938D01*
X145595403Y-67784936D01*
X145360001Y-67764341D01*
X145359999Y-67764341D01*
X145124596Y-67784936D01*
X145124586Y-67784938D01*
X144896344Y-67846094D01*
X144896335Y-67846098D01*
X144682171Y-67945964D01*
X144682169Y-67945965D01*
X144488597Y-68081505D01*
X144321508Y-68248594D01*
X144191269Y-68434595D01*
X144136692Y-68478219D01*
X144067193Y-68485412D01*
X144004839Y-68453890D01*
X143988119Y-68434594D01*
X143858113Y-68248926D01*
X143858108Y-68248920D01*
X143691082Y-68081894D01*
X143497578Y-67946399D01*
X143283492Y-67846570D01*
X143283486Y-67846567D01*
X143070000Y-67789364D01*
X143070000Y-68673505D01*
X142965161Y-68625627D01*
X142856473Y-68610000D01*
X142783527Y-68610000D01*
X142674839Y-68625627D01*
X142570000Y-68673505D01*
X142570000Y-67789364D01*
X142569999Y-67789364D01*
X142356513Y-67846567D01*
X142356507Y-67846570D01*
X142142422Y-67946399D01*
X142142420Y-67946400D01*
X141948926Y-68081886D01*
X141948920Y-68081891D01*
X141781891Y-68248920D01*
X141781890Y-68248922D01*
X141651880Y-68434595D01*
X141597303Y-68478219D01*
X141527804Y-68485412D01*
X141465450Y-68453890D01*
X141448730Y-68434594D01*
X141318494Y-68248597D01*
X141151402Y-68081506D01*
X141151395Y-68081501D01*
X140957834Y-67945967D01*
X140957830Y-67945965D01*
X140886727Y-67912809D01*
X140743663Y-67846097D01*
X140743659Y-67846096D01*
X140743655Y-67846094D01*
X140515413Y-67784938D01*
X140515403Y-67784936D01*
X140280001Y-67764341D01*
X140279999Y-67764341D01*
X140044596Y-67784936D01*
X140044586Y-67784938D01*
X139816344Y-67846094D01*
X139816335Y-67846098D01*
X139602171Y-67945964D01*
X139602169Y-67945965D01*
X139408597Y-68081505D01*
X139241505Y-68248597D01*
X139111575Y-68434158D01*
X139056998Y-68477783D01*
X138987500Y-68484977D01*
X138925145Y-68453454D01*
X138908425Y-68434158D01*
X138778494Y-68248597D01*
X138611402Y-68081506D01*
X138611395Y-68081501D01*
X138417834Y-67945967D01*
X138417830Y-67945965D01*
X138346727Y-67912809D01*
X138203663Y-67846097D01*
X138203659Y-67846096D01*
X138203655Y-67846094D01*
X137975413Y-67784938D01*
X137975403Y-67784936D01*
X137740001Y-67764341D01*
X137739999Y-67764341D01*
X137504596Y-67784936D01*
X137504586Y-67784938D01*
X137276344Y-67846094D01*
X137276335Y-67846098D01*
X137062171Y-67945964D01*
X137062169Y-67945965D01*
X136868600Y-68081503D01*
X136746284Y-68203819D01*
X136684961Y-68237303D01*
X136615269Y-68232319D01*
X136559336Y-68190447D01*
X136542421Y-68159470D01*
X136493354Y-68027913D01*
X136493350Y-68027906D01*
X136407190Y-67912812D01*
X136407187Y-67912809D01*
X136292093Y-67826649D01*
X136292086Y-67826645D01*
X136157379Y-67776403D01*
X136157372Y-67776401D01*
X136097844Y-67770000D01*
X135450000Y-67770000D01*
X135450000Y-68673505D01*
X135345161Y-68625627D01*
X135236473Y-68610000D01*
X135163527Y-68610000D01*
X135054839Y-68625627D01*
X134950000Y-68673505D01*
X134950000Y-67770000D01*
X134302155Y-67770000D01*
X134242627Y-67776401D01*
X134242620Y-67776403D01*
X134107913Y-67826645D01*
X134107906Y-67826649D01*
X133992812Y-67912809D01*
X133992809Y-67912812D01*
X133906649Y-68027906D01*
X133906645Y-68027913D01*
X133857578Y-68159470D01*
X133815707Y-68215404D01*
X133750242Y-68239821D01*
X133681969Y-68224969D01*
X133653715Y-68203819D01*
X133608977Y-68159081D01*
X133531401Y-68081505D01*
X133531397Y-68081502D01*
X133531396Y-68081501D01*
X133337834Y-67945967D01*
X133337830Y-67945965D01*
X133266727Y-67912809D01*
X133123663Y-67846097D01*
X133123659Y-67846096D01*
X133123655Y-67846094D01*
X132895413Y-67784938D01*
X132895403Y-67784936D01*
X132660001Y-67764341D01*
X132659999Y-67764341D01*
X132424596Y-67784936D01*
X132424586Y-67784938D01*
X132196344Y-67846094D01*
X132196335Y-67846098D01*
X131982171Y-67945964D01*
X131982169Y-67945965D01*
X131788597Y-68081505D01*
X131621505Y-68248597D01*
X131491575Y-68434158D01*
X131436998Y-68477783D01*
X131367500Y-68484977D01*
X131305145Y-68453454D01*
X131288425Y-68434158D01*
X131158494Y-68248597D01*
X130991402Y-68081506D01*
X130991395Y-68081501D01*
X130797834Y-67945967D01*
X130797830Y-67945965D01*
X130726727Y-67912809D01*
X130583663Y-67846097D01*
X130583659Y-67846096D01*
X130583655Y-67846094D01*
X130355413Y-67784938D01*
X130355403Y-67784936D01*
X130120001Y-67764341D01*
X130119999Y-67764341D01*
X129884596Y-67784936D01*
X129884586Y-67784938D01*
X129656344Y-67846094D01*
X129656335Y-67846098D01*
X129442171Y-67945964D01*
X129442169Y-67945965D01*
X129248597Y-68081505D01*
X129081505Y-68248597D01*
X128945965Y-68442169D01*
X128945964Y-68442171D01*
X128846098Y-68656335D01*
X128846094Y-68656344D01*
X128784938Y-68884586D01*
X128784936Y-68884596D01*
X128764341Y-69119999D01*
X128764341Y-69120000D01*
X128784936Y-69355403D01*
X128784938Y-69355413D01*
X128846094Y-69583655D01*
X128846096Y-69583659D01*
X128846097Y-69583663D01*
X128925801Y-69754588D01*
X128945965Y-69797830D01*
X128945967Y-69797834D01*
X129054281Y-69952521D01*
X129081505Y-69991401D01*
X129248599Y-70158495D01*
X129345384Y-70226265D01*
X129442165Y-70294032D01*
X129442167Y-70294033D01*
X129442170Y-70294035D01*
X129656337Y-70393903D01*
X129884592Y-70455063D01*
X130061034Y-70470500D01*
X130119999Y-70475659D01*
X130120000Y-70475659D01*
X130120001Y-70475659D01*
X130178966Y-70470500D01*
X130355408Y-70455063D01*
X130583663Y-70393903D01*
X130797830Y-70294035D01*
X130991401Y-70158495D01*
X131158495Y-69991401D01*
X131288426Y-69805841D01*
X131343002Y-69762217D01*
X131412500Y-69755023D01*
X131474855Y-69786546D01*
X131491575Y-69805842D01*
X131621501Y-69991396D01*
X131621506Y-69991402D01*
X131788595Y-70158492D01*
X131788598Y-70158494D01*
X131788599Y-70158495D01*
X131856623Y-70206125D01*
X131900248Y-70260701D01*
X131909500Y-70307700D01*
X131909500Y-71177770D01*
X131889815Y-71244809D01*
X131873181Y-71265451D01*
X131325451Y-71813181D01*
X131264128Y-71846666D01*
X131237770Y-71849500D01*
X129463705Y-71849500D01*
X129445735Y-71848191D01*
X129421972Y-71844710D01*
X129375642Y-71848764D01*
X129372632Y-71849028D01*
X129361826Y-71849500D01*
X129356284Y-71849500D01*
X129325484Y-71853100D01*
X129321899Y-71853466D01*
X129247200Y-71860001D01*
X129240133Y-71861461D01*
X129240121Y-71861404D01*
X129232752Y-71863038D01*
X129232766Y-71863095D01*
X129225738Y-71864760D01*
X129155253Y-71890414D01*
X129151849Y-71891597D01*
X129080676Y-71915182D01*
X129074128Y-71918236D01*
X129074102Y-71918182D01*
X129067306Y-71921472D01*
X129067332Y-71921524D01*
X129060879Y-71924764D01*
X128998196Y-71965991D01*
X128995156Y-71967928D01*
X128931347Y-72007286D01*
X128925682Y-72011766D01*
X128925646Y-72011720D01*
X128919798Y-72016484D01*
X128919835Y-72016528D01*
X128914310Y-72021164D01*
X128914304Y-72021169D01*
X128914304Y-72021170D01*
X128896749Y-72039777D01*
X128862832Y-72075726D01*
X128860320Y-72078311D01*
X126814358Y-74124272D01*
X126800729Y-74136051D01*
X126781469Y-74150390D01*
X126749632Y-74188331D01*
X126742346Y-74196284D01*
X126738407Y-74200224D01*
X126719176Y-74224545D01*
X126716902Y-74227337D01*
X126668694Y-74284790D01*
X126664729Y-74290819D01*
X126664682Y-74290788D01*
X126660630Y-74297147D01*
X126660679Y-74297177D01*
X126656889Y-74303321D01*
X126625192Y-74371294D01*
X126623623Y-74374536D01*
X126589957Y-74441572D01*
X126587488Y-74448357D01*
X126587432Y-74448336D01*
X126584960Y-74455450D01*
X126585015Y-74455469D01*
X126582743Y-74462325D01*
X126567573Y-74535788D01*
X126566793Y-74539304D01*
X126549499Y-74612279D01*
X126548661Y-74619454D01*
X126548601Y-74619447D01*
X126547835Y-74626945D01*
X126547895Y-74626951D01*
X126547265Y-74634140D01*
X126549448Y-74709128D01*
X126549500Y-74712735D01*
X126549500Y-75200028D01*
X126542542Y-75240982D01*
X126514631Y-75320747D01*
X126494435Y-75499996D01*
X126494435Y-75500003D01*
X126514630Y-75679249D01*
X126514631Y-75679254D01*
X126574211Y-75849523D01*
X126639765Y-75953851D01*
X126670184Y-76002262D01*
X126797738Y-76129816D01*
X126877554Y-76179968D01*
X126931112Y-76213621D01*
X126950478Y-76225789D01*
X127095919Y-76276681D01*
X127120745Y-76285368D01*
X127120750Y-76285369D01*
X127299996Y-76305565D01*
X127300000Y-76305565D01*
X127300004Y-76305565D01*
X127479249Y-76285369D01*
X127479252Y-76285368D01*
X127479255Y-76285368D01*
X127649522Y-76225789D01*
X127802262Y-76129816D01*
X127929816Y-76002262D01*
X128025789Y-75849522D01*
X128085368Y-75679255D01*
X128087293Y-75662171D01*
X128105565Y-75500003D01*
X128105565Y-75499996D01*
X128085368Y-75320747D01*
X128085368Y-75320745D01*
X128072860Y-75284998D01*
X128844700Y-75284998D01*
X128851750Y-75370098D01*
X128852061Y-75375071D01*
X128855819Y-75463523D01*
X128855820Y-75463534D01*
X128860092Y-75483355D01*
X128862451Y-75499238D01*
X128863865Y-75516301D01*
X128863865Y-75516306D01*
X128885660Y-75602372D01*
X128886670Y-75606685D01*
X128906044Y-75696575D01*
X128906046Y-75696582D01*
X128912333Y-75712228D01*
X128917477Y-75728010D01*
X128920843Y-75741300D01*
X128950571Y-75809075D01*
X128957875Y-75825725D01*
X128959377Y-75829300D01*
X128994934Y-75917787D01*
X128994935Y-75917788D01*
X129001981Y-75929232D01*
X129009943Y-75944428D01*
X129014076Y-75953850D01*
X129066366Y-76033886D01*
X129068147Y-76036693D01*
X129119930Y-76120794D01*
X129126543Y-76128308D01*
X129137263Y-76142402D01*
X129141019Y-76148151D01*
X129141021Y-76148153D01*
X129208117Y-76221040D01*
X129209930Y-76223054D01*
X129277436Y-76299755D01*
X129282564Y-76303895D01*
X129295882Y-76316377D01*
X129298216Y-76318913D01*
X129379062Y-76381837D01*
X129380795Y-76383211D01*
X129462920Y-76449523D01*
X129462922Y-76449524D01*
X129465678Y-76451064D01*
X129481360Y-76461460D01*
X129481367Y-76461465D01*
X129481371Y-76461467D01*
X129481374Y-76461470D01*
X129574507Y-76511870D01*
X129575785Y-76512573D01*
X129655669Y-76557200D01*
X129671051Y-76565793D01*
X129673849Y-76567058D01*
X129680695Y-76570097D01*
X129680794Y-76569873D01*
X129685491Y-76571933D01*
X129685497Y-76571936D01*
X129788950Y-76607451D01*
X129789557Y-76607662D01*
X129895829Y-76645211D01*
X129895843Y-76645213D01*
X129897392Y-76645617D01*
X129903492Y-76646910D01*
X129904999Y-76647291D01*
X129905019Y-76647298D01*
X130016192Y-76665849D01*
X130016608Y-76665919D01*
X130036876Y-76669395D01*
X130130792Y-76685499D01*
X130130800Y-76685500D01*
X130366044Y-76685500D01*
X130366049Y-76685500D01*
X130420013Y-76676494D01*
X130429883Y-76675252D01*
X130487541Y-76670346D01*
X130536925Y-76657487D01*
X130547760Y-76655177D01*
X130594981Y-76647298D01*
X130649963Y-76628421D01*
X130658941Y-76625716D01*
X130718249Y-76610275D01*
X130761642Y-76590659D01*
X130772436Y-76586377D01*
X130814503Y-76571936D01*
X130868611Y-76542653D01*
X130876541Y-76538721D01*
X130935486Y-76512077D01*
X130972120Y-76487316D01*
X130982503Y-76481018D01*
X131018626Y-76461470D01*
X131069878Y-76421578D01*
X131076584Y-76416710D01*
X131133003Y-76378579D01*
X131162460Y-76350345D01*
X131172075Y-76342035D01*
X131201784Y-76318913D01*
X131248070Y-76268632D01*
X131253490Y-76263100D01*
X131305118Y-76213621D01*
X131327351Y-76183557D01*
X131335799Y-76173331D01*
X131358979Y-76148153D01*
X131398223Y-76088084D01*
X131402317Y-76082196D01*
X131446879Y-76021947D01*
X131462176Y-75991604D01*
X131469074Y-75979637D01*
X131485924Y-75953849D01*
X131516130Y-75884984D01*
X131518927Y-75879045D01*
X131554207Y-75809074D01*
X131563155Y-75779854D01*
X131568153Y-75766383D01*
X131579157Y-75741300D01*
X131598450Y-75665110D01*
X131600088Y-75659255D01*
X131622828Y-75585003D01*
X132024723Y-75585003D01*
X132026331Y-75603389D01*
X132026678Y-75619752D01*
X132025709Y-75641324D01*
X132025710Y-75641328D01*
X132025710Y-75641330D01*
X132029269Y-75667602D01*
X132036444Y-75720576D01*
X132037094Y-75726412D01*
X132043792Y-75802972D01*
X132043795Y-75802989D01*
X132049461Y-75824134D01*
X132052563Y-75839576D01*
X132055923Y-75864380D01*
X132055926Y-75864392D01*
X132079573Y-75937169D01*
X132081417Y-75943393D01*
X132100423Y-76014324D01*
X132100428Y-76014337D01*
X132111135Y-76037300D01*
X132116682Y-76051380D01*
X132124101Y-76074211D01*
X132125483Y-76078464D01*
X132159889Y-76142402D01*
X132160128Y-76142845D01*
X132163316Y-76149200D01*
X132192897Y-76212638D01*
X132198212Y-76220229D01*
X132209410Y-76236221D01*
X132217025Y-76248578D01*
X132232146Y-76276678D01*
X132232152Y-76276687D01*
X132275587Y-76331153D01*
X132280214Y-76337340D01*
X132305510Y-76373465D01*
X132318402Y-76391877D01*
X132318405Y-76391880D01*
X132341186Y-76414661D01*
X132350452Y-76425029D01*
X132372492Y-76452666D01*
X132422387Y-76496259D01*
X132428484Y-76501959D01*
X132473116Y-76546592D01*
X132473121Y-76546596D01*
X132473123Y-76546598D01*
X132492054Y-76559853D01*
X132502332Y-76567050D01*
X132512793Y-76575244D01*
X132542004Y-76600765D01*
X132542013Y-76600771D01*
X132595924Y-76632981D01*
X132603449Y-76637854D01*
X132652359Y-76672101D01*
X132652365Y-76672104D01*
X132687798Y-76688627D01*
X132698992Y-76694561D01*
X132735221Y-76716206D01*
X132735236Y-76716215D01*
X132780728Y-76733288D01*
X132790838Y-76737082D01*
X132799669Y-76740792D01*
X132843300Y-76761138D01*
X132850670Y-76764575D01*
X132850675Y-76764577D01*
X132891756Y-76775584D01*
X132903227Y-76779262D01*
X132945976Y-76795307D01*
X133001047Y-76805301D01*
X133010965Y-76807526D01*
X133062023Y-76821207D01*
X133107829Y-76825214D01*
X133119121Y-76826728D01*
X133167453Y-76835500D01*
X133219985Y-76835500D01*
X133230792Y-76835972D01*
X133279998Y-76840277D01*
X133280000Y-76840277D01*
X133330369Y-76835870D01*
X133335600Y-76835524D01*
X133336122Y-76835500D01*
X133336155Y-76835500D01*
X133389217Y-76830724D01*
X133390173Y-76830638D01*
X133390180Y-76830724D01*
X133390477Y-76830611D01*
X133497977Y-76821207D01*
X133497982Y-76821205D01*
X133500000Y-76821029D01*
X133502205Y-76820736D01*
X133504182Y-76820377D01*
X133504188Y-76820377D01*
X133607684Y-76791812D01*
X133608350Y-76791631D01*
X133709330Y-76764575D01*
X133709337Y-76764571D01*
X133713913Y-76762906D01*
X133719449Y-76761138D01*
X133721159Y-76760495D01*
X133721170Y-76760493D01*
X133814890Y-76715359D01*
X133816016Y-76714825D01*
X133907639Y-76672102D01*
X133907640Y-76672101D01*
X133912327Y-76669395D01*
X133912400Y-76669522D01*
X133923164Y-76663218D01*
X133923973Y-76662829D01*
X134005325Y-76603721D01*
X134006993Y-76602531D01*
X134086877Y-76546598D01*
X134087747Y-76545727D01*
X134102550Y-76533084D01*
X134106078Y-76530522D01*
X134173237Y-76460277D01*
X134175098Y-76458376D01*
X134241592Y-76391883D01*
X134241592Y-76391882D01*
X134241598Y-76391877D01*
X134244285Y-76388039D01*
X134256239Y-76373465D01*
X134261629Y-76367828D01*
X134261628Y-76367828D01*
X134261632Y-76367825D01*
X134313266Y-76289600D01*
X134315083Y-76286928D01*
X134367102Y-76212639D01*
X134370543Y-76205259D01*
X134379432Y-76189364D01*
X134385635Y-76179968D01*
X134421114Y-76096958D01*
X134422713Y-76093377D01*
X134459575Y-76014330D01*
X134462570Y-76003148D01*
X134468325Y-75986505D01*
X134471264Y-75979629D01*
X134474103Y-75972988D01*
X134480622Y-75944428D01*
X134493417Y-75888366D01*
X134494533Y-75883863D01*
X134495836Y-75879000D01*
X134516207Y-75802977D01*
X134517515Y-75788015D01*
X134520150Y-75771237D01*
X134524191Y-75753537D01*
X134527934Y-75670183D01*
X134528274Y-75665036D01*
X134535277Y-75585000D01*
X134533667Y-75566608D01*
X134533321Y-75550239D01*
X134534290Y-75528670D01*
X134523549Y-75449385D01*
X134522905Y-75443600D01*
X134516207Y-75367023D01*
X134510539Y-75345870D01*
X134507434Y-75330412D01*
X134504076Y-75305619D01*
X134504075Y-75305618D01*
X134504075Y-75305613D01*
X134480414Y-75232795D01*
X134478578Y-75226593D01*
X134477105Y-75221097D01*
X134459575Y-75155670D01*
X134448863Y-75132699D01*
X134443317Y-75118618D01*
X134434519Y-75091541D01*
X134434517Y-75091537D01*
X134434517Y-75091536D01*
X134399869Y-75027149D01*
X134396681Y-75020794D01*
X134382336Y-74990032D01*
X134367102Y-74957362D01*
X134350592Y-74933785D01*
X134342976Y-74921425D01*
X134327852Y-74893319D01*
X134284398Y-74838830D01*
X134279785Y-74832661D01*
X134241598Y-74778123D01*
X134218804Y-74755329D01*
X134209545Y-74744968D01*
X134187506Y-74717332D01*
X134137611Y-74673739D01*
X134131514Y-74668039D01*
X134086878Y-74623402D01*
X134057663Y-74602946D01*
X134047210Y-74594759D01*
X134017996Y-74569235D01*
X134015156Y-74567538D01*
X133964073Y-74537017D01*
X133956550Y-74532145D01*
X133907641Y-74497899D01*
X133872205Y-74481374D01*
X133861015Y-74475442D01*
X133824769Y-74453787D01*
X133824767Y-74453786D01*
X133810245Y-74448336D01*
X133769154Y-74432914D01*
X133760349Y-74429216D01*
X133709330Y-74405425D01*
X133668232Y-74394412D01*
X133656759Y-74390731D01*
X133614024Y-74374692D01*
X133558965Y-74364700D01*
X133549016Y-74362468D01*
X133497977Y-74348793D01*
X133452176Y-74344785D01*
X133440846Y-74343264D01*
X133392552Y-74334500D01*
X133392547Y-74334500D01*
X133340015Y-74334500D01*
X133329208Y-74334028D01*
X133280002Y-74329723D01*
X133279996Y-74329723D01*
X133229651Y-74334127D01*
X133224442Y-74334473D01*
X133223848Y-74334499D01*
X133169915Y-74339352D01*
X133169613Y-74339379D01*
X133072239Y-74347899D01*
X133062023Y-74348793D01*
X133062022Y-74348793D01*
X133060081Y-74348963D01*
X133057708Y-74349278D01*
X133055809Y-74349623D01*
X132952522Y-74378129D01*
X132951628Y-74378372D01*
X132850668Y-74405425D01*
X132846051Y-74407105D01*
X132840520Y-74408872D01*
X132838836Y-74409504D01*
X132745246Y-74454573D01*
X132743853Y-74455233D01*
X132652359Y-74497899D01*
X132647670Y-74500606D01*
X132647598Y-74500481D01*
X132636871Y-74506764D01*
X132636031Y-74507168D01*
X132554662Y-74566284D01*
X132552904Y-74567538D01*
X132473121Y-74623403D01*
X132472241Y-74624284D01*
X132457461Y-74636906D01*
X132453928Y-74639472D01*
X132453921Y-74639478D01*
X132386847Y-74709632D01*
X132384903Y-74711619D01*
X132318404Y-74778119D01*
X132318402Y-74778121D01*
X132315711Y-74781965D01*
X132303773Y-74796521D01*
X132298368Y-74802174D01*
X132278253Y-74832647D01*
X132246750Y-74880369D01*
X132244865Y-74883142D01*
X132192901Y-74957356D01*
X132192891Y-74957374D01*
X132189457Y-74964738D01*
X132180572Y-74980628D01*
X132174363Y-74990034D01*
X132138893Y-75073020D01*
X132137254Y-75076688D01*
X132100426Y-75155664D01*
X132100424Y-75155671D01*
X132097425Y-75166860D01*
X132091681Y-75183475D01*
X132085899Y-75197005D01*
X132085896Y-75197014D01*
X132066576Y-75281659D01*
X132065460Y-75286158D01*
X132043793Y-75367022D01*
X132042483Y-75381992D01*
X132039847Y-75398769D01*
X132035809Y-75416459D01*
X132035809Y-75416464D01*
X132032066Y-75499777D01*
X132031719Y-75505016D01*
X132024723Y-75584995D01*
X132024723Y-75585003D01*
X131622828Y-75585003D01*
X131624015Y-75581126D01*
X131624016Y-75581121D01*
X131627460Y-75554227D01*
X131630251Y-75539535D01*
X131633002Y-75528673D01*
X131636134Y-75516305D01*
X131642903Y-75434600D01*
X131643484Y-75429095D01*
X131654298Y-75344654D01*
X131653291Y-75320961D01*
X131653602Y-75305481D01*
X131655300Y-75285000D01*
X131655209Y-75283907D01*
X131648250Y-75199923D01*
X131647938Y-75194943D01*
X131645294Y-75132709D01*
X131644180Y-75106468D01*
X131639906Y-75086640D01*
X131637548Y-75070764D01*
X131636134Y-75053695D01*
X131614325Y-74967577D01*
X131613336Y-74963354D01*
X131593954Y-74873419D01*
X131587665Y-74857770D01*
X131582519Y-74841980D01*
X131579157Y-74828700D01*
X131542092Y-74744202D01*
X131540621Y-74740697D01*
X131531232Y-74717332D01*
X131505064Y-74652210D01*
X131498021Y-74640771D01*
X131490053Y-74625565D01*
X131485924Y-74616151D01*
X131433639Y-74536122D01*
X131431859Y-74533315D01*
X131380074Y-74449212D01*
X131380071Y-74449209D01*
X131380069Y-74449205D01*
X131373451Y-74441686D01*
X131362727Y-74427584D01*
X131358980Y-74421848D01*
X131347619Y-74409507D01*
X131291876Y-74348953D01*
X131290068Y-74346944D01*
X131278700Y-74334028D01*
X131222564Y-74270245D01*
X131217436Y-74266104D01*
X131204117Y-74253621D01*
X131201785Y-74251088D01*
X131201783Y-74251086D01*
X131120936Y-74188161D01*
X131119198Y-74186783D01*
X131037080Y-74120477D01*
X131037073Y-74120472D01*
X131034311Y-74118929D01*
X131018643Y-74108542D01*
X131018634Y-74108535D01*
X131018628Y-74108532D01*
X131018626Y-74108530D01*
X130925485Y-74058125D01*
X130924094Y-74057359D01*
X130828961Y-74004213D01*
X130826381Y-74003047D01*
X130819284Y-73999898D01*
X130819188Y-74000119D01*
X130814499Y-73998062D01*
X130711278Y-73962626D01*
X130710233Y-73962262D01*
X130604172Y-73924789D01*
X130602635Y-73924389D01*
X130596549Y-73923098D01*
X130594995Y-73922704D01*
X130483772Y-73904144D01*
X130483227Y-73904051D01*
X130369210Y-73884500D01*
X130369200Y-73884500D01*
X130366049Y-73884500D01*
X130133951Y-73884500D01*
X130079993Y-73893503D01*
X130070101Y-73894747D01*
X130012470Y-73899652D01*
X130012461Y-73899653D01*
X129963077Y-73912511D01*
X129952250Y-73914819D01*
X129905012Y-73922703D01*
X129850068Y-73941566D01*
X129841051Y-73944284D01*
X129781749Y-73959725D01*
X129781743Y-73959727D01*
X129738361Y-73979337D01*
X129727553Y-73983624D01*
X129685504Y-73998060D01*
X129685498Y-73998063D01*
X129631396Y-74027341D01*
X129623460Y-74031275D01*
X129564514Y-74057922D01*
X129527883Y-74082679D01*
X129517470Y-74088994D01*
X129481379Y-74108526D01*
X129481367Y-74108533D01*
X129430126Y-74148416D01*
X129423402Y-74153297D01*
X129367001Y-74191417D01*
X129366994Y-74191423D01*
X129337546Y-74219644D01*
X129327918Y-74227967D01*
X129298217Y-74251085D01*
X129298209Y-74251093D01*
X129251925Y-74301369D01*
X129246500Y-74306905D01*
X129194882Y-74356378D01*
X129194880Y-74356380D01*
X129172657Y-74386427D01*
X129164198Y-74396668D01*
X129141021Y-74421846D01*
X129101781Y-74481906D01*
X129097671Y-74487814D01*
X129053124Y-74548047D01*
X129053119Y-74548055D01*
X129037826Y-74578384D01*
X129030918Y-74590370D01*
X129014076Y-74616149D01*
X128983887Y-74684974D01*
X128981060Y-74690975D01*
X128954189Y-74744274D01*
X128945791Y-74760930D01*
X128936847Y-74790131D01*
X128931842Y-74803620D01*
X128920845Y-74828691D01*
X128920845Y-74828692D01*
X128901552Y-74904872D01*
X128899913Y-74910735D01*
X128875984Y-74988877D01*
X128875983Y-74988879D01*
X128872538Y-75015777D01*
X128869750Y-75030454D01*
X128863867Y-75053687D01*
X128863864Y-75053706D01*
X128857097Y-75135377D01*
X128856517Y-75140887D01*
X128845702Y-75225344D01*
X128845701Y-75225345D01*
X128846707Y-75249025D01*
X128846396Y-75264520D01*
X128844700Y-75284998D01*
X128072860Y-75284998D01*
X128057458Y-75240982D01*
X128050500Y-75200028D01*
X128050500Y-75062229D01*
X128070185Y-74995190D01*
X128086819Y-74974548D01*
X129674548Y-73386819D01*
X129735871Y-73353334D01*
X129762229Y-73350500D01*
X131536295Y-73350500D01*
X131554265Y-73351809D01*
X131578023Y-73355289D01*
X131627369Y-73350971D01*
X131638176Y-73350500D01*
X131643704Y-73350500D01*
X131643709Y-73350500D01*
X131674556Y-73346893D01*
X131678030Y-73346539D01*
X131752797Y-73339999D01*
X131752805Y-73339996D01*
X131759866Y-73338539D01*
X131759878Y-73338598D01*
X131767243Y-73336965D01*
X131767229Y-73336906D01*
X131774249Y-73335241D01*
X131774255Y-73335241D01*
X131844779Y-73309572D01*
X131848117Y-73308412D01*
X131919334Y-73284814D01*
X131919342Y-73284808D01*
X131925882Y-73281760D01*
X131925908Y-73281816D01*
X131932690Y-73278532D01*
X131932663Y-73278478D01*
X131939113Y-73275238D01*
X131939117Y-73275237D01*
X132001837Y-73233984D01*
X132004732Y-73232140D01*
X132068656Y-73192712D01*
X132068662Y-73192705D01*
X132074325Y-73188229D01*
X132074363Y-73188277D01*
X132080195Y-73183526D01*
X132080156Y-73183479D01*
X132085694Y-73178831D01*
X132085693Y-73178831D01*
X132085696Y-73178830D01*
X132137185Y-73124252D01*
X132139631Y-73121734D01*
X133145642Y-72115724D01*
X133159257Y-72103958D01*
X133178530Y-72089610D01*
X133210383Y-72051648D01*
X133217671Y-72043694D01*
X133221590Y-72039777D01*
X133230239Y-72028839D01*
X133240811Y-72015467D01*
X133243094Y-72012664D01*
X133247605Y-72007289D01*
X133291302Y-71955214D01*
X133291303Y-71955211D01*
X133295272Y-71949179D01*
X133295323Y-71949212D01*
X133299369Y-71942860D01*
X133299317Y-71942828D01*
X133303105Y-71936683D01*
X133303111Y-71936677D01*
X133334829Y-71868655D01*
X133336369Y-71865476D01*
X133370040Y-71798433D01*
X133370043Y-71798417D01*
X133372510Y-71791644D01*
X133372568Y-71791665D01*
X133375043Y-71784546D01*
X133374985Y-71784527D01*
X133377255Y-71777677D01*
X133377889Y-71774607D01*
X133392431Y-71704171D01*
X133393186Y-71700767D01*
X133410500Y-71627721D01*
X133410500Y-71627719D01*
X133410501Y-71627715D01*
X133411339Y-71620548D01*
X133411397Y-71620554D01*
X133412164Y-71613056D01*
X133412104Y-71613051D01*
X133412733Y-71605860D01*
X133410552Y-71530889D01*
X133410500Y-71527283D01*
X133410500Y-70307700D01*
X133430185Y-70240661D01*
X133463375Y-70206126D01*
X133531401Y-70158495D01*
X133653717Y-70036178D01*
X133715036Y-70002696D01*
X133784728Y-70007680D01*
X133840662Y-70049551D01*
X133857577Y-70080528D01*
X133906646Y-70212088D01*
X133906649Y-70212093D01*
X133992809Y-70327187D01*
X133992812Y-70327190D01*
X134107906Y-70413350D01*
X134107913Y-70413354D01*
X134242620Y-70463596D01*
X134242627Y-70463598D01*
X134302155Y-70469999D01*
X134302172Y-70470000D01*
X134950000Y-70470000D01*
X134950000Y-69566494D01*
X135054839Y-69614373D01*
X135163527Y-69630000D01*
X135236473Y-69630000D01*
X135345161Y-69614373D01*
X135450000Y-69566494D01*
X135450000Y-70470000D01*
X136097828Y-70470000D01*
X136097844Y-70469999D01*
X136157372Y-70463598D01*
X136157379Y-70463596D01*
X136292086Y-70413354D01*
X136292093Y-70413350D01*
X136407187Y-70327190D01*
X136407190Y-70327187D01*
X136493350Y-70212093D01*
X136493354Y-70212086D01*
X136542422Y-70080529D01*
X136584293Y-70024595D01*
X136649757Y-70000178D01*
X136718030Y-70015030D01*
X136746285Y-70036181D01*
X136868599Y-70158495D01*
X136965384Y-70226265D01*
X137062165Y-70294032D01*
X137062167Y-70294033D01*
X137062170Y-70294035D01*
X137276337Y-70393903D01*
X137504592Y-70455063D01*
X137681034Y-70470500D01*
X137739999Y-70475659D01*
X137740000Y-70475659D01*
X137740001Y-70475659D01*
X137798966Y-70470500D01*
X137975408Y-70455063D01*
X138203663Y-70393903D01*
X138417830Y-70294035D01*
X138611401Y-70158495D01*
X138778495Y-69991401D01*
X138908426Y-69805841D01*
X138963002Y-69762217D01*
X139032500Y-69755023D01*
X139094855Y-69786546D01*
X139111575Y-69805842D01*
X139241500Y-69991395D01*
X139241505Y-69991401D01*
X139408599Y-70158495D01*
X139505384Y-70226265D01*
X139602165Y-70294032D01*
X139602167Y-70294033D01*
X139602170Y-70294035D01*
X139816337Y-70393903D01*
X140044592Y-70455063D01*
X140221034Y-70470500D01*
X140279999Y-70475659D01*
X140280000Y-70475659D01*
X140280001Y-70475659D01*
X140338966Y-70470500D01*
X140515408Y-70455063D01*
X140743663Y-70393903D01*
X140957830Y-70294035D01*
X141151401Y-70158495D01*
X141318495Y-69991401D01*
X141448730Y-69805405D01*
X141503307Y-69761781D01*
X141572805Y-69754587D01*
X141635160Y-69786110D01*
X141651879Y-69805405D01*
X141781890Y-69991078D01*
X141948917Y-70158105D01*
X142142421Y-70293600D01*
X142356507Y-70393429D01*
X142356516Y-70393433D01*
X142570000Y-70450634D01*
X142570000Y-69566494D01*
X142674839Y-69614373D01*
X142783527Y-69630000D01*
X142856473Y-69630000D01*
X142965161Y-69614373D01*
X143070000Y-69566494D01*
X143070000Y-70450634D01*
X143283483Y-70393433D01*
X143283492Y-70393429D01*
X143497578Y-70293600D01*
X143691082Y-70158105D01*
X143858105Y-69991082D01*
X143988119Y-69805405D01*
X144042696Y-69761781D01*
X144112195Y-69754588D01*
X144174549Y-69786110D01*
X144191269Y-69805405D01*
X144321505Y-69991401D01*
X144488599Y-70158495D01*
X144585384Y-70226265D01*
X144682165Y-70294032D01*
X144682167Y-70294033D01*
X144682170Y-70294035D01*
X144896337Y-70393903D01*
X145124592Y-70455063D01*
X145301034Y-70470500D01*
X145359999Y-70475659D01*
X145360000Y-70475659D01*
X145360001Y-70475659D01*
X145418966Y-70470500D01*
X145595408Y-70455063D01*
X145823663Y-70393903D01*
X146037830Y-70294035D01*
X146231401Y-70158495D01*
X146353329Y-70036566D01*
X146414648Y-70003084D01*
X146484340Y-70008068D01*
X146540274Y-70049939D01*
X146557189Y-70080917D01*
X146606202Y-70212328D01*
X146606206Y-70212335D01*
X146692452Y-70327544D01*
X146692455Y-70327547D01*
X146807664Y-70413793D01*
X146807671Y-70413797D01*
X146830563Y-70422335D01*
X146942517Y-70464091D01*
X147002127Y-70470500D01*
X147200500Y-70470499D01*
X147267539Y-70490183D01*
X147313294Y-70542987D01*
X147324500Y-70594499D01*
X147324500Y-71380860D01*
X147304815Y-71447899D01*
X147252011Y-71493654D01*
X147214384Y-71504080D01*
X147120750Y-71514630D01*
X146950478Y-71574210D01*
X146797737Y-71670184D01*
X146670184Y-71797737D01*
X146574211Y-71950476D01*
X146514631Y-72120745D01*
X146514630Y-72120750D01*
X146494435Y-72299996D01*
X146494435Y-72300003D01*
X146514630Y-72479249D01*
X146514631Y-72479254D01*
X146574211Y-72649523D01*
X146666168Y-72795871D01*
X146670184Y-72802262D01*
X146797738Y-72929816D01*
X146950478Y-73025789D01*
X147120745Y-73085368D01*
X147120750Y-73085369D01*
X147299996Y-73105565D01*
X147300000Y-73105565D01*
X147300004Y-73105565D01*
X147479249Y-73085369D01*
X147479252Y-73085368D01*
X147479255Y-73085368D01*
X147649522Y-73025789D01*
X147802262Y-72929816D01*
X147929816Y-72802262D01*
X148025789Y-72649522D01*
X148085368Y-72479255D01*
X148092237Y-72418294D01*
X148099651Y-72352486D01*
X148126717Y-72288072D01*
X148135180Y-72278698D01*
X148274527Y-72139351D01*
X148286706Y-72128670D01*
X148310451Y-72110451D01*
X148325717Y-72090555D01*
X148327394Y-72088370D01*
X148327403Y-72088359D01*
X148333610Y-72080268D01*
X148333612Y-72080268D01*
X148364521Y-72039986D01*
X148420947Y-71998784D01*
X148490693Y-71994627D01*
X148551614Y-72028839D01*
X148584368Y-72090555D01*
X148585371Y-72134864D01*
X148584653Y-72139397D01*
X148584653Y-72139402D01*
X148588950Y-72184858D01*
X148589500Y-72196528D01*
X148589500Y-85425500D01*
X148569815Y-85492539D01*
X148517011Y-85538294D01*
X148465500Y-85549500D01*
X147002129Y-85549500D01*
X147002123Y-85549501D01*
X146942516Y-85555908D01*
X146807671Y-85606202D01*
X146807664Y-85606206D01*
X146692455Y-85692452D01*
X146692452Y-85692455D01*
X146606206Y-85807664D01*
X146606203Y-85807669D01*
X146557189Y-85939083D01*
X146515317Y-85995016D01*
X146449853Y-86019433D01*
X146381580Y-86004581D01*
X146353326Y-85983430D01*
X146231402Y-85861506D01*
X146231395Y-85861501D01*
X146037834Y-85725967D01*
X146037830Y-85725965D01*
X146007091Y-85711631D01*
X145823663Y-85626097D01*
X145823659Y-85626096D01*
X145823655Y-85626094D01*
X145595413Y-85564938D01*
X145595403Y-85564936D01*
X145360001Y-85544341D01*
X145359999Y-85544341D01*
X145124591Y-85564937D01*
X144968357Y-85606798D01*
X144898507Y-85605135D01*
X144848584Y-85574704D01*
X142899359Y-83625479D01*
X142888665Y-83613286D01*
X142886118Y-83609967D01*
X142870451Y-83589549D01*
X142870448Y-83589547D01*
X142870447Y-83589545D01*
X142843499Y-83568867D01*
X142843489Y-83568859D01*
X142750231Y-83497300D01*
X142721423Y-83485368D01*
X142721422Y-83485368D01*
X142610236Y-83439313D01*
X142577658Y-83435024D01*
X142493835Y-83423988D01*
X142493682Y-83423969D01*
X142482649Y-83422516D01*
X142460000Y-83419535D01*
X142459998Y-83419535D01*
X142459997Y-83419535D01*
X142430345Y-83423439D01*
X142414160Y-83424500D01*
X123974500Y-83424500D01*
X123907461Y-83404815D01*
X123861706Y-83352011D01*
X123850500Y-83300500D01*
X123850499Y-81902129D01*
X123850498Y-81902123D01*
X123850420Y-81901398D01*
X123844091Y-81842517D01*
X123843002Y-81839598D01*
X123793797Y-81707671D01*
X123793793Y-81707664D01*
X123707547Y-81592455D01*
X123707544Y-81592452D01*
X123592335Y-81506206D01*
X123592328Y-81506202D01*
X123460917Y-81457189D01*
X123404983Y-81415318D01*
X123380566Y-81349853D01*
X123395418Y-81281580D01*
X123416563Y-81253332D01*
X123538495Y-81131401D01*
X123674035Y-80937830D01*
X123768616Y-80735000D01*
X128844700Y-80735000D01*
X128844979Y-80738366D01*
X128851750Y-80820098D01*
X128852061Y-80825071D01*
X128855819Y-80913523D01*
X128855820Y-80913534D01*
X128860092Y-80933355D01*
X128862451Y-80949238D01*
X128863865Y-80966301D01*
X128863865Y-80966306D01*
X128885660Y-81052372D01*
X128886670Y-81056685D01*
X128906044Y-81146575D01*
X128906046Y-81146582D01*
X128912333Y-81162228D01*
X128917477Y-81178010D01*
X128920843Y-81191300D01*
X128957569Y-81275029D01*
X128957875Y-81275725D01*
X128959377Y-81279300D01*
X128994934Y-81367787D01*
X128994935Y-81367788D01*
X129001981Y-81379232D01*
X129009943Y-81394428D01*
X129014076Y-81403850D01*
X129066366Y-81483886D01*
X129068147Y-81486693D01*
X129119930Y-81570794D01*
X129126543Y-81578308D01*
X129137263Y-81592402D01*
X129141019Y-81598151D01*
X129141021Y-81598153D01*
X129208117Y-81671040D01*
X129209930Y-81673054D01*
X129277436Y-81749755D01*
X129282564Y-81753895D01*
X129295882Y-81766377D01*
X129298216Y-81768913D01*
X129338620Y-81800360D01*
X129379062Y-81831837D01*
X129380795Y-81833211D01*
X129462920Y-81899523D01*
X129462922Y-81899524D01*
X129465678Y-81901064D01*
X129481360Y-81911460D01*
X129481367Y-81911465D01*
X129481371Y-81911467D01*
X129481374Y-81911470D01*
X129574507Y-81961870D01*
X129575785Y-81962573D01*
X129629637Y-81992657D01*
X129671051Y-82015793D01*
X129673849Y-82017058D01*
X129680695Y-82020097D01*
X129680794Y-82019873D01*
X129685491Y-82021933D01*
X129685497Y-82021936D01*
X129788950Y-82057451D01*
X129789557Y-82057662D01*
X129895829Y-82095211D01*
X129895843Y-82095213D01*
X129897392Y-82095617D01*
X129903492Y-82096910D01*
X129904999Y-82097291D01*
X129905019Y-82097298D01*
X130016192Y-82115849D01*
X130016608Y-82115919D01*
X130042416Y-82120345D01*
X130130792Y-82135499D01*
X130130800Y-82135500D01*
X130366044Y-82135500D01*
X130366049Y-82135500D01*
X130420013Y-82126494D01*
X130429883Y-82125252D01*
X130487541Y-82120346D01*
X130536925Y-82107487D01*
X130547760Y-82105177D01*
X130594981Y-82097298D01*
X130649963Y-82078421D01*
X130658941Y-82075716D01*
X130718249Y-82060275D01*
X130761642Y-82040659D01*
X130772436Y-82036377D01*
X130814503Y-82021936D01*
X130868611Y-81992653D01*
X130876541Y-81988721D01*
X130935486Y-81962077D01*
X130972120Y-81937316D01*
X130982503Y-81931018D01*
X131018626Y-81911470D01*
X131069878Y-81871578D01*
X131076584Y-81866710D01*
X131133003Y-81828579D01*
X131162460Y-81800345D01*
X131172075Y-81792035D01*
X131201784Y-81768913D01*
X131248070Y-81718632D01*
X131253490Y-81713100D01*
X131305118Y-81663621D01*
X131327351Y-81633557D01*
X131335799Y-81623331D01*
X131358979Y-81598153D01*
X131398223Y-81538084D01*
X131402317Y-81532196D01*
X131446879Y-81471947D01*
X131462176Y-81441604D01*
X131469074Y-81429637D01*
X131485924Y-81403849D01*
X131516130Y-81334984D01*
X131518927Y-81329045D01*
X131554207Y-81259074D01*
X131563155Y-81229854D01*
X131568153Y-81216383D01*
X131579157Y-81191300D01*
X131598450Y-81115110D01*
X131600088Y-81109255D01*
X131614364Y-81062639D01*
X131624016Y-81031123D01*
X131627460Y-81004225D01*
X131630251Y-80989535D01*
X131636132Y-80966311D01*
X131636134Y-80966305D01*
X131642903Y-80884600D01*
X131643484Y-80879095D01*
X131645375Y-80864327D01*
X131654298Y-80794654D01*
X131653291Y-80770961D01*
X131653602Y-80755481D01*
X131655300Y-80735000D01*
X131653592Y-80714392D01*
X131650357Y-80675344D01*
X131648248Y-80649902D01*
X131647938Y-80644943D01*
X131647283Y-80629530D01*
X131644180Y-80556468D01*
X131639906Y-80536640D01*
X131637548Y-80520764D01*
X131636134Y-80503695D01*
X131634035Y-80495408D01*
X131628411Y-80473198D01*
X131618738Y-80435003D01*
X132024723Y-80435003D01*
X132026331Y-80453389D01*
X132026678Y-80469752D01*
X132025709Y-80491324D01*
X132025710Y-80491328D01*
X132025710Y-80491330D01*
X132028914Y-80514983D01*
X132036444Y-80570576D01*
X132037094Y-80576412D01*
X132043792Y-80652972D01*
X132043795Y-80652989D01*
X132049461Y-80674134D01*
X132052563Y-80689576D01*
X132055923Y-80714380D01*
X132055926Y-80714392D01*
X132079573Y-80787169D01*
X132081417Y-80793393D01*
X132100423Y-80864324D01*
X132100428Y-80864337D01*
X132111135Y-80887300D01*
X132116682Y-80901380D01*
X132124718Y-80926110D01*
X132125483Y-80928464D01*
X132145844Y-80966302D01*
X132160128Y-80992845D01*
X132163312Y-80999193D01*
X132171914Y-81017640D01*
X132192897Y-81062638D01*
X132192898Y-81062639D01*
X132209410Y-81086221D01*
X132217025Y-81098578D01*
X132232146Y-81126678D01*
X132232152Y-81126687D01*
X132275587Y-81181153D01*
X132280214Y-81187340D01*
X132305171Y-81222981D01*
X132318402Y-81241877D01*
X132318405Y-81241880D01*
X132341186Y-81264661D01*
X132350452Y-81275029D01*
X132372492Y-81302666D01*
X132422387Y-81346259D01*
X132428484Y-81351959D01*
X132473116Y-81396592D01*
X132473121Y-81396596D01*
X132473123Y-81396598D01*
X132483482Y-81403851D01*
X132502332Y-81417050D01*
X132512793Y-81425244D01*
X132542004Y-81450765D01*
X132542013Y-81450771D01*
X132595924Y-81482981D01*
X132603449Y-81487854D01*
X132652359Y-81522101D01*
X132652365Y-81522104D01*
X132687798Y-81538627D01*
X132698992Y-81544561D01*
X132735234Y-81566214D01*
X132735236Y-81566215D01*
X132780728Y-81583288D01*
X132790838Y-81587082D01*
X132799669Y-81590792D01*
X132843300Y-81611138D01*
X132850670Y-81614575D01*
X132850675Y-81614577D01*
X132891756Y-81625584D01*
X132903227Y-81629262D01*
X132945976Y-81645307D01*
X133001047Y-81655301D01*
X133010965Y-81657526D01*
X133062023Y-81671207D01*
X133107829Y-81675214D01*
X133119121Y-81676728D01*
X133167453Y-81685500D01*
X133219985Y-81685500D01*
X133230792Y-81685972D01*
X133279998Y-81690277D01*
X133280000Y-81690277D01*
X133330369Y-81685870D01*
X133335600Y-81685524D01*
X133336122Y-81685500D01*
X133336155Y-81685500D01*
X133389217Y-81680724D01*
X133390173Y-81680638D01*
X133390180Y-81680724D01*
X133390477Y-81680611D01*
X133497977Y-81671207D01*
X133497982Y-81671205D01*
X133500000Y-81671029D01*
X133502205Y-81670736D01*
X133504182Y-81670377D01*
X133504188Y-81670377D01*
X133607684Y-81641812D01*
X133608350Y-81641631D01*
X133709330Y-81614575D01*
X133709337Y-81614571D01*
X133713913Y-81612906D01*
X133719449Y-81611138D01*
X133721159Y-81610495D01*
X133721170Y-81610493D01*
X133814890Y-81565359D01*
X133816016Y-81564825D01*
X133907639Y-81522102D01*
X133907640Y-81522101D01*
X133912327Y-81519395D01*
X133912400Y-81519522D01*
X133923164Y-81513218D01*
X133923973Y-81512829D01*
X134005325Y-81453721D01*
X134006993Y-81452531D01*
X134086877Y-81396598D01*
X134087747Y-81395727D01*
X134102550Y-81383084D01*
X134106078Y-81380522D01*
X134173237Y-81310277D01*
X134175098Y-81308376D01*
X134241592Y-81241883D01*
X134241592Y-81241882D01*
X134241598Y-81241877D01*
X134244285Y-81238039D01*
X134256239Y-81223465D01*
X134261629Y-81217828D01*
X134261628Y-81217828D01*
X134261632Y-81217825D01*
X134313266Y-81139600D01*
X134315083Y-81136928D01*
X134367102Y-81062639D01*
X134370543Y-81055259D01*
X134379432Y-81039364D01*
X134385635Y-81029968D01*
X134421114Y-80946958D01*
X134422713Y-80943377D01*
X134459575Y-80864330D01*
X134462570Y-80853148D01*
X134468325Y-80836505D01*
X134474103Y-80822988D01*
X134493417Y-80738366D01*
X134494533Y-80733863D01*
X134497266Y-80723663D01*
X134516207Y-80652977D01*
X134517515Y-80638015D01*
X134520150Y-80621237D01*
X134524191Y-80603537D01*
X134527934Y-80520183D01*
X134528274Y-80515036D01*
X134535277Y-80435000D01*
X134533667Y-80416608D01*
X134533321Y-80400239D01*
X134534290Y-80378670D01*
X134523549Y-80299385D01*
X134522905Y-80293600D01*
X134516207Y-80217023D01*
X134516203Y-80217007D01*
X134510539Y-80195870D01*
X134507434Y-80180412D01*
X134504076Y-80155619D01*
X134504075Y-80155618D01*
X134504075Y-80155613D01*
X134480414Y-80082795D01*
X134478578Y-80076593D01*
X134471494Y-80050156D01*
X134459575Y-80005670D01*
X134448863Y-79982699D01*
X134443317Y-79968618D01*
X134434519Y-79941541D01*
X134434517Y-79941537D01*
X134434517Y-79941536D01*
X134407697Y-79891696D01*
X134399869Y-79877149D01*
X134396681Y-79870794D01*
X134370541Y-79814738D01*
X134367102Y-79807362D01*
X134350592Y-79783785D01*
X134342976Y-79771425D01*
X134335750Y-79757997D01*
X134327852Y-79743319D01*
X134284398Y-79688830D01*
X134279785Y-79682661D01*
X134241598Y-79628123D01*
X134218804Y-79605329D01*
X134209545Y-79594968D01*
X134187508Y-79567334D01*
X134180967Y-79561619D01*
X134137611Y-79523739D01*
X134131514Y-79518039D01*
X134086878Y-79473402D01*
X134057663Y-79452946D01*
X134047210Y-79444759D01*
X134017996Y-79419235D01*
X134015156Y-79417538D01*
X133964073Y-79387017D01*
X133956550Y-79382145D01*
X133907641Y-79347899D01*
X133872205Y-79331374D01*
X133861015Y-79325442D01*
X133824769Y-79303787D01*
X133824767Y-79303786D01*
X133816951Y-79300852D01*
X133769154Y-79282914D01*
X133760349Y-79279216D01*
X133709330Y-79255425D01*
X133668232Y-79244412D01*
X133656759Y-79240731D01*
X133614024Y-79224692D01*
X133558965Y-79214700D01*
X133549016Y-79212468D01*
X133497977Y-79198793D01*
X133452176Y-79194785D01*
X133440846Y-79193264D01*
X133392552Y-79184500D01*
X133392547Y-79184500D01*
X133340015Y-79184500D01*
X133329208Y-79184028D01*
X133280002Y-79179723D01*
X133279996Y-79179723D01*
X133229651Y-79184127D01*
X133224442Y-79184473D01*
X133223848Y-79184499D01*
X133169915Y-79189352D01*
X133169613Y-79189379D01*
X133072239Y-79197899D01*
X133062023Y-79198793D01*
X133062022Y-79198793D01*
X133060081Y-79198963D01*
X133057708Y-79199278D01*
X133055809Y-79199623D01*
X132952522Y-79228129D01*
X132951628Y-79228372D01*
X132850668Y-79255425D01*
X132846051Y-79257105D01*
X132840520Y-79258872D01*
X132838836Y-79259504D01*
X132745246Y-79304573D01*
X132743853Y-79305233D01*
X132652359Y-79347899D01*
X132647670Y-79350606D01*
X132647598Y-79350481D01*
X132636871Y-79356764D01*
X132636031Y-79357168D01*
X132554662Y-79416284D01*
X132552904Y-79417538D01*
X132473121Y-79473403D01*
X132472241Y-79474284D01*
X132457461Y-79486906D01*
X132453928Y-79489472D01*
X132453921Y-79489478D01*
X132386847Y-79559632D01*
X132384903Y-79561619D01*
X132318404Y-79628119D01*
X132318402Y-79628121D01*
X132315711Y-79631965D01*
X132303773Y-79646521D01*
X132298368Y-79652174D01*
X132278253Y-79682647D01*
X132246750Y-79730369D01*
X132244865Y-79733142D01*
X132192901Y-79807356D01*
X132192891Y-79807374D01*
X132189457Y-79814738D01*
X132180572Y-79830628D01*
X132174363Y-79840034D01*
X132138893Y-79923020D01*
X132137254Y-79926688D01*
X132100426Y-80005664D01*
X132100424Y-80005671D01*
X132097425Y-80016860D01*
X132091681Y-80033475D01*
X132085899Y-80047005D01*
X132085896Y-80047014D01*
X132066576Y-80131659D01*
X132065460Y-80136158D01*
X132043793Y-80217022D01*
X132042483Y-80231992D01*
X132039847Y-80248769D01*
X132035809Y-80266459D01*
X132035809Y-80266464D01*
X132032066Y-80349777D01*
X132031719Y-80355016D01*
X132024723Y-80434995D01*
X132024723Y-80435003D01*
X131618738Y-80435003D01*
X131614325Y-80417577D01*
X131613336Y-80413354D01*
X131593954Y-80323419D01*
X131587665Y-80307770D01*
X131582519Y-80291980D01*
X131579157Y-80278700D01*
X131542092Y-80194202D01*
X131540621Y-80190697D01*
X131536488Y-80180412D01*
X131505064Y-80102210D01*
X131498021Y-80090771D01*
X131490053Y-80075565D01*
X131485924Y-80066151D01*
X131433639Y-79986122D01*
X131431859Y-79983315D01*
X131380074Y-79899212D01*
X131380071Y-79899209D01*
X131380069Y-79899205D01*
X131373451Y-79891686D01*
X131362727Y-79877584D01*
X131358980Y-79871848D01*
X131332473Y-79843054D01*
X131291876Y-79798953D01*
X131290068Y-79796944D01*
X131222565Y-79720246D01*
X131217439Y-79716107D01*
X131204117Y-79703621D01*
X131201785Y-79701088D01*
X131201783Y-79701086D01*
X131120936Y-79638161D01*
X131119198Y-79636783D01*
X131037080Y-79570477D01*
X131037073Y-79570472D01*
X131034311Y-79568929D01*
X131018643Y-79558542D01*
X131018634Y-79558535D01*
X131018628Y-79558532D01*
X131018626Y-79558530D01*
X130925485Y-79508125D01*
X130924094Y-79507359D01*
X130828961Y-79454213D01*
X130826381Y-79453047D01*
X130819284Y-79449898D01*
X130819188Y-79450119D01*
X130814499Y-79448062D01*
X130711278Y-79412626D01*
X130710233Y-79412262D01*
X130604172Y-79374789D01*
X130602635Y-79374389D01*
X130596549Y-79373098D01*
X130594995Y-79372704D01*
X130483772Y-79354144D01*
X130483227Y-79354051D01*
X130369210Y-79334500D01*
X130369200Y-79334500D01*
X130366049Y-79334500D01*
X130133951Y-79334500D01*
X130079993Y-79343503D01*
X130070101Y-79344747D01*
X130012470Y-79349652D01*
X130012461Y-79349653D01*
X129963077Y-79362511D01*
X129952250Y-79364819D01*
X129905012Y-79372703D01*
X129850068Y-79391566D01*
X129841051Y-79394284D01*
X129781749Y-79409725D01*
X129781743Y-79409727D01*
X129738361Y-79429337D01*
X129727553Y-79433624D01*
X129685504Y-79448060D01*
X129685498Y-79448063D01*
X129631396Y-79477341D01*
X129623460Y-79481275D01*
X129564514Y-79507922D01*
X129527883Y-79532679D01*
X129517470Y-79538994D01*
X129481379Y-79558526D01*
X129481367Y-79558533D01*
X129430126Y-79598416D01*
X129423402Y-79603297D01*
X129367001Y-79641417D01*
X129366994Y-79641423D01*
X129337546Y-79669644D01*
X129327918Y-79677967D01*
X129298217Y-79701085D01*
X129298209Y-79701093D01*
X129251925Y-79751369D01*
X129246500Y-79756905D01*
X129194882Y-79806378D01*
X129194880Y-79806380D01*
X129172657Y-79836427D01*
X129164198Y-79846668D01*
X129141021Y-79871846D01*
X129101781Y-79931906D01*
X129097671Y-79937814D01*
X129053124Y-79998047D01*
X129053119Y-79998055D01*
X129037826Y-80028384D01*
X129030918Y-80040370D01*
X129014076Y-80066149D01*
X128983887Y-80134974D01*
X128981060Y-80140975D01*
X128954189Y-80194274D01*
X128945791Y-80210930D01*
X128936847Y-80240131D01*
X128931842Y-80253620D01*
X128920845Y-80278691D01*
X128920845Y-80278692D01*
X128901552Y-80354872D01*
X128899913Y-80360735D01*
X128875984Y-80438877D01*
X128875983Y-80438879D01*
X128872538Y-80465777D01*
X128869750Y-80480454D01*
X128863867Y-80503687D01*
X128863864Y-80503706D01*
X128857097Y-80585377D01*
X128856517Y-80590887D01*
X128845702Y-80675344D01*
X128845701Y-80675345D01*
X128846707Y-80699025D01*
X128846396Y-80714520D01*
X128845639Y-80723663D01*
X128844700Y-80735000D01*
X123768616Y-80735000D01*
X123773903Y-80723663D01*
X123835063Y-80495408D01*
X123855659Y-80260000D01*
X123835063Y-80024592D01*
X123781050Y-79823009D01*
X123773905Y-79796344D01*
X123773904Y-79796343D01*
X123773903Y-79796337D01*
X123674035Y-79582171D01*
X123668731Y-79574595D01*
X123538494Y-79388597D01*
X123371402Y-79221506D01*
X123371395Y-79221501D01*
X123177834Y-79085967D01*
X123177830Y-79085965D01*
X123110246Y-79054450D01*
X122963663Y-78986097D01*
X122963659Y-78986096D01*
X122963655Y-78986094D01*
X122735413Y-78924938D01*
X122735403Y-78924936D01*
X122500001Y-78904341D01*
X122499999Y-78904341D01*
X122264596Y-78924936D01*
X122264586Y-78924938D01*
X122036344Y-78986094D01*
X122036335Y-78986098D01*
X121822171Y-79085964D01*
X121822169Y-79085965D01*
X121628597Y-79221505D01*
X121461508Y-79388594D01*
X121331269Y-79574595D01*
X121276692Y-79618219D01*
X121207193Y-79625412D01*
X121144839Y-79593890D01*
X121128119Y-79574594D01*
X120998113Y-79388926D01*
X120998108Y-79388920D01*
X120831082Y-79221894D01*
X120637578Y-79086399D01*
X120423492Y-78986570D01*
X120423486Y-78986567D01*
X120210000Y-78929364D01*
X120210000Y-79824498D01*
X120102315Y-79775320D01*
X119995763Y-79760000D01*
X119924237Y-79760000D01*
X119817685Y-79775320D01*
X119710000Y-79824498D01*
X119710000Y-78929364D01*
X119709999Y-78929364D01*
X119496513Y-78986567D01*
X119496507Y-78986570D01*
X119282422Y-79086399D01*
X119282420Y-79086400D01*
X119088926Y-79221886D01*
X119088920Y-79221891D01*
X118921891Y-79388920D01*
X118921890Y-79388922D01*
X118791880Y-79574595D01*
X118737303Y-79618219D01*
X118667804Y-79625412D01*
X118605450Y-79593890D01*
X118588730Y-79574594D01*
X118458494Y-79388597D01*
X118291402Y-79221506D01*
X118291395Y-79221501D01*
X118097834Y-79085967D01*
X118097830Y-79085965D01*
X118030246Y-79054450D01*
X117883663Y-78986097D01*
X117883659Y-78986096D01*
X117883655Y-78986094D01*
X117655413Y-78924938D01*
X117655403Y-78924936D01*
X117420001Y-78904341D01*
X117419999Y-78904341D01*
X117184596Y-78924936D01*
X117184586Y-78924938D01*
X116956344Y-78986094D01*
X116956335Y-78986098D01*
X116742171Y-79085964D01*
X116742169Y-79085965D01*
X116548597Y-79221505D01*
X116381505Y-79388597D01*
X116251575Y-79574158D01*
X116196998Y-79617783D01*
X116127500Y-79624977D01*
X116065145Y-79593454D01*
X116048425Y-79574158D01*
X115918494Y-79388597D01*
X115751402Y-79221506D01*
X115751395Y-79221501D01*
X115557834Y-79085967D01*
X115557830Y-79085965D01*
X115490246Y-79054450D01*
X115343663Y-78986097D01*
X115343659Y-78986096D01*
X115343655Y-78986094D01*
X115115413Y-78924938D01*
X115115403Y-78924936D01*
X114880001Y-78904341D01*
X114879999Y-78904341D01*
X114644596Y-78924936D01*
X114644586Y-78924938D01*
X114416344Y-78986094D01*
X114416335Y-78986098D01*
X114202171Y-79085964D01*
X114202169Y-79085965D01*
X114008597Y-79221505D01*
X113841505Y-79388597D01*
X113711575Y-79574158D01*
X113656998Y-79617783D01*
X113587500Y-79624977D01*
X113525145Y-79593454D01*
X113508425Y-79574158D01*
X113378494Y-79388597D01*
X113211402Y-79221506D01*
X113211395Y-79221501D01*
X113017834Y-79085967D01*
X113017830Y-79085965D01*
X112950246Y-79054450D01*
X112803663Y-78986097D01*
X112803659Y-78986096D01*
X112803655Y-78986094D01*
X112575413Y-78924938D01*
X112575403Y-78924936D01*
X112340001Y-78904341D01*
X112339999Y-78904341D01*
X112104596Y-78924936D01*
X112104586Y-78924938D01*
X111876344Y-78986094D01*
X111876335Y-78986098D01*
X111662171Y-79085964D01*
X111662169Y-79085965D01*
X111468597Y-79221505D01*
X111301505Y-79388597D01*
X111171575Y-79574158D01*
X111116998Y-79617783D01*
X111047500Y-79624977D01*
X110985145Y-79593454D01*
X110968425Y-79574158D01*
X110838494Y-79388597D01*
X110671402Y-79221506D01*
X110671395Y-79221501D01*
X110477834Y-79085967D01*
X110477830Y-79085965D01*
X110410246Y-79054450D01*
X110263663Y-78986097D01*
X110263659Y-78986096D01*
X110263655Y-78986094D01*
X110035413Y-78924938D01*
X110035403Y-78924936D01*
X109800001Y-78904341D01*
X109799999Y-78904341D01*
X109564596Y-78924936D01*
X109564586Y-78924938D01*
X109336344Y-78986094D01*
X109336335Y-78986098D01*
X109122171Y-79085964D01*
X109122169Y-79085965D01*
X108928597Y-79221505D01*
X108761504Y-79388598D01*
X108726074Y-79439198D01*
X108671497Y-79482823D01*
X108601999Y-79490015D01*
X108539644Y-79458493D01*
X108504231Y-79398262D01*
X108500500Y-79368074D01*
X108500500Y-66300003D01*
X181194435Y-66300003D01*
X181214630Y-66479249D01*
X181214631Y-66479254D01*
X181274211Y-66649523D01*
X181343327Y-66759520D01*
X181370184Y-66802262D01*
X181497738Y-66929816D01*
X181650478Y-67025789D01*
X181782430Y-67071961D01*
X181820745Y-67085368D01*
X181820750Y-67085369D01*
X181999996Y-67105565D01*
X182000000Y-67105565D01*
X182000004Y-67105565D01*
X182179249Y-67085369D01*
X182179252Y-67085368D01*
X182179255Y-67085368D01*
X182349522Y-67025789D01*
X182502262Y-66929816D01*
X182629816Y-66802262D01*
X182725789Y-66649522D01*
X182785368Y-66479255D01*
X182789505Y-66442539D01*
X182805565Y-66300003D01*
X182805565Y-66299996D01*
X182785369Y-66120750D01*
X182785368Y-66120745D01*
X182725788Y-65950476D01*
X182629815Y-65797737D01*
X182502262Y-65670184D01*
X182349523Y-65574211D01*
X182179254Y-65514631D01*
X182179249Y-65514630D01*
X182000004Y-65494435D01*
X181999996Y-65494435D01*
X181820750Y-65514630D01*
X181820745Y-65514631D01*
X181650476Y-65574211D01*
X181497737Y-65670184D01*
X181370184Y-65797737D01*
X181274211Y-65950476D01*
X181214631Y-66120745D01*
X181214630Y-66120750D01*
X181194435Y-66299996D01*
X181194435Y-66300003D01*
X108500500Y-66300003D01*
X108500500Y-57666319D01*
X108520185Y-57599280D01*
X108572989Y-57553525D01*
X108642147Y-57543581D01*
X108705703Y-57572606D01*
X108738055Y-57616508D01*
X108762900Y-57673150D01*
X108825826Y-57816606D01*
X108961833Y-58024782D01*
X108961836Y-58024785D01*
X109130256Y-58207738D01*
X109326491Y-58360474D01*
X109545190Y-58478828D01*
X109780386Y-58559571D01*
X110025665Y-58600500D01*
X110274335Y-58600500D01*
X110519614Y-58559571D01*
X110754810Y-58478828D01*
X110973509Y-58360474D01*
X111169744Y-58207738D01*
X111338164Y-58024785D01*
X111474173Y-57816607D01*
X111574063Y-57588881D01*
X111635108Y-57347821D01*
X111635109Y-57347812D01*
X111655643Y-57100005D01*
X111655643Y-57099994D01*
X111635109Y-56852187D01*
X111635107Y-56852175D01*
X111574063Y-56611118D01*
X111474173Y-56383393D01*
X111338166Y-56175217D01*
X111316557Y-56151744D01*
X111169744Y-55992262D01*
X110973509Y-55839526D01*
X110973507Y-55839525D01*
X110973506Y-55839524D01*
X110754811Y-55721172D01*
X110754802Y-55721169D01*
X110519616Y-55640429D01*
X110274335Y-55599500D01*
X110025665Y-55599500D01*
X109780383Y-55640429D01*
X109545197Y-55721169D01*
X109545188Y-55721172D01*
X109326493Y-55839524D01*
X109130257Y-55992261D01*
X108961833Y-56175217D01*
X108825826Y-56383393D01*
X108738056Y-56583490D01*
X108693100Y-56636976D01*
X108626364Y-56657666D01*
X108559036Y-56638991D01*
X108512493Y-56586881D01*
X108500500Y-56533680D01*
X108500500Y-54624500D01*
X108520185Y-54557461D01*
X108572989Y-54511706D01*
X108624500Y-54500500D01*
X127375500Y-54500500D01*
X127442539Y-54520185D01*
G37*
%TD.AperFunction*%
%TA.AperFunction,Conductor*%
G36*
X108705703Y-86620029D02*
G01*
X108712181Y-86626061D01*
X109360642Y-87274522D01*
X109371337Y-87286717D01*
X109389549Y-87310451D01*
X109401689Y-87319767D01*
X109416508Y-87331138D01*
X109416529Y-87331155D01*
X109469802Y-87372032D01*
X109509768Y-87402699D01*
X109591774Y-87436666D01*
X109591775Y-87436667D01*
X109615795Y-87446616D01*
X109649764Y-87460687D01*
X109762280Y-87475500D01*
X109800000Y-87480466D01*
X109829662Y-87476560D01*
X109845846Y-87475500D01*
X128819251Y-87475500D01*
X128886290Y-87495185D01*
X128931633Y-87547094D01*
X128945967Y-87577834D01*
X129054281Y-87732521D01*
X129081505Y-87771401D01*
X129248599Y-87938495D01*
X129345384Y-88006265D01*
X129442165Y-88074032D01*
X129442167Y-88074033D01*
X129442170Y-88074035D01*
X129656337Y-88173903D01*
X129884592Y-88235063D01*
X130061034Y-88250500D01*
X130119999Y-88255659D01*
X130120000Y-88255659D01*
X130120001Y-88255659D01*
X130178966Y-88250500D01*
X130355408Y-88235063D01*
X130583663Y-88173903D01*
X130797830Y-88074035D01*
X130991401Y-87938495D01*
X131158495Y-87771401D01*
X131288425Y-87585842D01*
X131343002Y-87542217D01*
X131412500Y-87535023D01*
X131474855Y-87566546D01*
X131491575Y-87585842D01*
X131621500Y-87771395D01*
X131621505Y-87771401D01*
X131788599Y-87938495D01*
X131885384Y-88006265D01*
X131982165Y-88074032D01*
X131982167Y-88074033D01*
X131982170Y-88074035D01*
X132196337Y-88173903D01*
X132424592Y-88235063D01*
X132601034Y-88250500D01*
X132659999Y-88255659D01*
X132660000Y-88255659D01*
X132660001Y-88255659D01*
X132718966Y-88250500D01*
X132895408Y-88235063D01*
X133123663Y-88173903D01*
X133337830Y-88074035D01*
X133531401Y-87938495D01*
X133653329Y-87816566D01*
X133714648Y-87783084D01*
X133784340Y-87788068D01*
X133840274Y-87829939D01*
X133857189Y-87860917D01*
X133906202Y-87992328D01*
X133906206Y-87992335D01*
X133992452Y-88107544D01*
X133992455Y-88107547D01*
X134107664Y-88193793D01*
X134107671Y-88193797D01*
X134242517Y-88244091D01*
X134242516Y-88244091D01*
X134249444Y-88244835D01*
X134302127Y-88250500D01*
X136097872Y-88250499D01*
X136157483Y-88244091D01*
X136292331Y-88193796D01*
X136407546Y-88107546D01*
X136493796Y-87992331D01*
X136542810Y-87860916D01*
X136584681Y-87804984D01*
X136650145Y-87780566D01*
X136718418Y-87795417D01*
X136746673Y-87816569D01*
X136868599Y-87938495D01*
X136965384Y-88006265D01*
X137062165Y-88074032D01*
X137062167Y-88074033D01*
X137062170Y-88074035D01*
X137276337Y-88173903D01*
X137504592Y-88235063D01*
X137681034Y-88250500D01*
X137739999Y-88255659D01*
X137740000Y-88255659D01*
X137740001Y-88255659D01*
X137798966Y-88250500D01*
X137975408Y-88235063D01*
X138203663Y-88173903D01*
X138417830Y-88074035D01*
X138611401Y-87938495D01*
X138778495Y-87771401D01*
X138908425Y-87585842D01*
X138963002Y-87542217D01*
X139032500Y-87535023D01*
X139094855Y-87566546D01*
X139111575Y-87585842D01*
X139241500Y-87771395D01*
X139241505Y-87771401D01*
X139408599Y-87938495D01*
X139505384Y-88006265D01*
X139602165Y-88074032D01*
X139602167Y-88074033D01*
X139602170Y-88074035D01*
X139816337Y-88173903D01*
X140044592Y-88235063D01*
X140221034Y-88250500D01*
X140279999Y-88255659D01*
X140280000Y-88255659D01*
X140280001Y-88255659D01*
X140338966Y-88250500D01*
X140515408Y-88235063D01*
X140743663Y-88173903D01*
X140957830Y-88074035D01*
X141151401Y-87938495D01*
X141318495Y-87771401D01*
X141448730Y-87585405D01*
X141503307Y-87541781D01*
X141572805Y-87534587D01*
X141635160Y-87566110D01*
X141651879Y-87585405D01*
X141781890Y-87771078D01*
X141948917Y-87938105D01*
X142142421Y-88073600D01*
X142356507Y-88173429D01*
X142356516Y-88173433D01*
X142570000Y-88230634D01*
X142570000Y-87346494D01*
X142674839Y-87394373D01*
X142783527Y-87410000D01*
X142856473Y-87410000D01*
X142965161Y-87394373D01*
X143070000Y-87346494D01*
X143070000Y-88230633D01*
X143283483Y-88173433D01*
X143283492Y-88173429D01*
X143497578Y-88073600D01*
X143691082Y-87938105D01*
X143858105Y-87771082D01*
X143988119Y-87585405D01*
X144042696Y-87541781D01*
X144112195Y-87534588D01*
X144174549Y-87566110D01*
X144191269Y-87585405D01*
X144321505Y-87771401D01*
X144488599Y-87938495D01*
X144585384Y-88006265D01*
X144682165Y-88074032D01*
X144682167Y-88074033D01*
X144682170Y-88074035D01*
X144896337Y-88173903D01*
X145124592Y-88235063D01*
X145301034Y-88250500D01*
X145359999Y-88255659D01*
X145360000Y-88255659D01*
X145360001Y-88255659D01*
X145418966Y-88250500D01*
X145595408Y-88235063D01*
X145823663Y-88173903D01*
X146037830Y-88074035D01*
X146231401Y-87938495D01*
X146353329Y-87816566D01*
X146414648Y-87783084D01*
X146484340Y-87788068D01*
X146540274Y-87829939D01*
X146557189Y-87860917D01*
X146606202Y-87992328D01*
X146606206Y-87992335D01*
X146692452Y-88107544D01*
X146692455Y-88107547D01*
X146807664Y-88193793D01*
X146807671Y-88193797D01*
X146942517Y-88244091D01*
X146942516Y-88244091D01*
X146949444Y-88244835D01*
X147002127Y-88250500D01*
X148465500Y-88250499D01*
X148532539Y-88270184D01*
X148578294Y-88322987D01*
X148589500Y-88374499D01*
X148589500Y-90439192D01*
X148569815Y-90506231D01*
X148553181Y-90526873D01*
X145566873Y-93513181D01*
X145505550Y-93546666D01*
X145479192Y-93549500D01*
X132785506Y-93549500D01*
X132769495Y-93547732D01*
X132769473Y-93547974D01*
X132761706Y-93547239D01*
X132691724Y-93549439D01*
X132687829Y-93549500D01*
X132659075Y-93549500D01*
X132659069Y-93549500D01*
X132659063Y-93549501D01*
X132654699Y-93550052D01*
X132643069Y-93550967D01*
X132597433Y-93552401D01*
X132582873Y-93556630D01*
X132577040Y-93558325D01*
X132557996Y-93562269D01*
X132536942Y-93564929D01*
X132536940Y-93564929D01*
X132494496Y-93581733D01*
X132483450Y-93585515D01*
X132439601Y-93598254D01*
X132421325Y-93609063D01*
X132403860Y-93617619D01*
X132384124Y-93625433D01*
X132347187Y-93652269D01*
X132337428Y-93658680D01*
X132298136Y-93681917D01*
X132283124Y-93696929D01*
X132268336Y-93709558D01*
X132251167Y-93722032D01*
X132251165Y-93722034D01*
X132222056Y-93757219D01*
X132214196Y-93765856D01*
X119200483Y-106779569D01*
X119187910Y-106789643D01*
X119188065Y-106789830D01*
X119182058Y-106794799D01*
X119134133Y-106845833D01*
X119131427Y-106848625D01*
X119111090Y-106868963D01*
X119111077Y-106868978D01*
X119108373Y-106872463D01*
X119100806Y-106881322D01*
X119069552Y-106914607D01*
X119059322Y-106933213D01*
X119048646Y-106949464D01*
X119035640Y-106966232D01*
X119035636Y-106966238D01*
X119017508Y-107008130D01*
X119012369Y-107018619D01*
X118990372Y-107058630D01*
X118990372Y-107058631D01*
X118985091Y-107079199D01*
X118978791Y-107097601D01*
X118970364Y-107117073D01*
X118963223Y-107162162D01*
X118960854Y-107173600D01*
X118949500Y-107217817D01*
X118949500Y-107239044D01*
X118947973Y-107258443D01*
X118944653Y-107279405D01*
X118947769Y-107312369D01*
X118948950Y-107324858D01*
X118949500Y-107336528D01*
X118949500Y-108543960D01*
X118929815Y-108610999D01*
X118877011Y-108656754D01*
X118807853Y-108666698D01*
X118793407Y-108663735D01*
X118600072Y-108611931D01*
X118600070Y-108611930D01*
X118600068Y-108611930D01*
X118600066Y-108611929D01*
X118600062Y-108611929D01*
X118380002Y-108592677D01*
X118379998Y-108592677D01*
X118159937Y-108611929D01*
X118159929Y-108611930D01*
X117946554Y-108669104D01*
X117946548Y-108669107D01*
X117746340Y-108762465D01*
X117746338Y-108762466D01*
X117565377Y-108889175D01*
X117409175Y-109045377D01*
X117282466Y-109226338D01*
X117282465Y-109226340D01*
X117222382Y-109355189D01*
X117176209Y-109407628D01*
X117109016Y-109426780D01*
X117042135Y-109406564D01*
X116997618Y-109355189D01*
X116937651Y-109226590D01*
X116937534Y-109226339D01*
X116810826Y-109045380D01*
X116654620Y-108889174D01*
X116654616Y-108889171D01*
X116654615Y-108889170D01*
X116473666Y-108762468D01*
X116473662Y-108762466D01*
X116402434Y-108729252D01*
X116273450Y-108669106D01*
X116273447Y-108669105D01*
X116273445Y-108669104D01*
X116060070Y-108611930D01*
X116060062Y-108611929D01*
X115840002Y-108592677D01*
X115839998Y-108592677D01*
X115619937Y-108611929D01*
X115619929Y-108611930D01*
X115406554Y-108669104D01*
X115406548Y-108669107D01*
X115206340Y-108762465D01*
X115206338Y-108762466D01*
X115025377Y-108889175D01*
X114869175Y-109045377D01*
X114742466Y-109226338D01*
X114742465Y-109226340D01*
X114682382Y-109355189D01*
X114636209Y-109407628D01*
X114569016Y-109426780D01*
X114502135Y-109406564D01*
X114457618Y-109355189D01*
X114397651Y-109226590D01*
X114397534Y-109226339D01*
X114270826Y-109045380D01*
X114114620Y-108889174D01*
X114114616Y-108889171D01*
X114114615Y-108889170D01*
X113933666Y-108762468D01*
X113933662Y-108762466D01*
X113862434Y-108729252D01*
X113733450Y-108669106D01*
X113733447Y-108669105D01*
X113733445Y-108669104D01*
X113520070Y-108611930D01*
X113520062Y-108611929D01*
X113300002Y-108592677D01*
X113299998Y-108592677D01*
X113079937Y-108611929D01*
X113079929Y-108611930D01*
X112866554Y-108669104D01*
X112866548Y-108669107D01*
X112666340Y-108762465D01*
X112666338Y-108762466D01*
X112485377Y-108889175D01*
X112329175Y-109045377D01*
X112202466Y-109226338D01*
X112202465Y-109226340D01*
X112142382Y-109355189D01*
X112096209Y-109407628D01*
X112029016Y-109426780D01*
X111962135Y-109406564D01*
X111917618Y-109355189D01*
X111857651Y-109226590D01*
X111857534Y-109226339D01*
X111730826Y-109045380D01*
X111574620Y-108889174D01*
X111574616Y-108889171D01*
X111574615Y-108889170D01*
X111493433Y-108832326D01*
X111449808Y-108777749D01*
X111442614Y-108708251D01*
X111474137Y-108645896D01*
X111476843Y-108643102D01*
X114133127Y-105986819D01*
X114194450Y-105953334D01*
X114220808Y-105950500D01*
X116314495Y-105950500D01*
X116330505Y-105952267D01*
X116330528Y-105952026D01*
X116338289Y-105952758D01*
X116338296Y-105952760D01*
X116408262Y-105950560D01*
X116412157Y-105950500D01*
X116440925Y-105950500D01*
X116445287Y-105949948D01*
X116456939Y-105949030D01*
X116502569Y-105947597D01*
X116522956Y-105941673D01*
X116541996Y-105937731D01*
X116563058Y-105935071D01*
X116605520Y-105918258D01*
X116616557Y-105914480D01*
X116660398Y-105901744D01*
X116678665Y-105890939D01*
X116696136Y-105882380D01*
X116715871Y-105874568D01*
X116752816Y-105847725D01*
X116762558Y-105841326D01*
X116801865Y-105818081D01*
X116816870Y-105803075D01*
X116831668Y-105790436D01*
X116848837Y-105777963D01*
X116877946Y-105742774D01*
X116885790Y-105734154D01*
X119819941Y-102800003D01*
X120594435Y-102800003D01*
X120614630Y-102979249D01*
X120614631Y-102979254D01*
X120674211Y-103149523D01*
X120770184Y-103302262D01*
X120897738Y-103429816D01*
X121050478Y-103525789D01*
X121220745Y-103585368D01*
X121220750Y-103585369D01*
X121399996Y-103605565D01*
X121400000Y-103605565D01*
X121400004Y-103605565D01*
X121579249Y-103585369D01*
X121579252Y-103585368D01*
X121579255Y-103585368D01*
X121749522Y-103525789D01*
X121902262Y-103429816D01*
X122029816Y-103302262D01*
X122125789Y-103149522D01*
X122185368Y-102979255D01*
X122205565Y-102800000D01*
X122185368Y-102620745D01*
X122125789Y-102450478D01*
X122029816Y-102297738D01*
X121902262Y-102170184D01*
X121749523Y-102074211D01*
X121579254Y-102014631D01*
X121579249Y-102014630D01*
X121400004Y-101994435D01*
X121399996Y-101994435D01*
X121220750Y-102014630D01*
X121220745Y-102014631D01*
X121050476Y-102074211D01*
X120897737Y-102170184D01*
X120770184Y-102297737D01*
X120674211Y-102450476D01*
X120614631Y-102620745D01*
X120614630Y-102620750D01*
X120594435Y-102799996D01*
X120594435Y-102800003D01*
X119819941Y-102800003D01*
X123929513Y-98690431D01*
X123942079Y-98680365D01*
X123941925Y-98680178D01*
X123947933Y-98675205D01*
X123947940Y-98675202D01*
X123971227Y-98650402D01*
X123995865Y-98624167D01*
X123998578Y-98621367D01*
X124018912Y-98601034D01*
X124021607Y-98597559D01*
X124029186Y-98588682D01*
X124060448Y-98555393D01*
X124070674Y-98536789D01*
X124081347Y-98520541D01*
X124094363Y-98503763D01*
X124112491Y-98461870D01*
X124117627Y-98451382D01*
X124139627Y-98411368D01*
X124144904Y-98390808D01*
X124151206Y-98372403D01*
X124159636Y-98352926D01*
X124166779Y-98307820D01*
X124169143Y-98296405D01*
X124180500Y-98252177D01*
X124180500Y-98230955D01*
X124182027Y-98211555D01*
X124185347Y-98190595D01*
X124181050Y-98145136D01*
X124180500Y-98133467D01*
X124180500Y-96036976D01*
X124200185Y-95969937D01*
X124252989Y-95924182D01*
X124280135Y-95916736D01*
X124279932Y-95915876D01*
X124287479Y-95914092D01*
X124287481Y-95914091D01*
X124287483Y-95914091D01*
X124422331Y-95863796D01*
X124537546Y-95777546D01*
X124623796Y-95662331D01*
X124674091Y-95527483D01*
X124680500Y-95467873D01*
X124680499Y-94920622D01*
X124700183Y-94853585D01*
X124752987Y-94807830D01*
X124822146Y-94797886D01*
X124885702Y-94826911D01*
X124923476Y-94885689D01*
X124927970Y-94909182D01*
X124934738Y-94982216D01*
X124934738Y-94982219D01*
X124993058Y-95187196D01*
X124993064Y-95187211D01*
X125088061Y-95377991D01*
X125088064Y-95377996D01*
X125096836Y-95389610D01*
X125691661Y-94794784D01*
X125691114Y-94801395D01*
X125721837Y-94922719D01*
X125790289Y-95027492D01*
X125889052Y-95104363D01*
X126007424Y-95145000D01*
X126048553Y-95145000D01*
X125452991Y-95740559D01*
X125555204Y-95803847D01*
X125555208Y-95803849D01*
X125753936Y-95880836D01*
X125753941Y-95880837D01*
X125963439Y-95920000D01*
X126176561Y-95920000D01*
X126386058Y-95880837D01*
X126386063Y-95880836D01*
X126584791Y-95803849D01*
X126584798Y-95803846D01*
X126687006Y-95740560D01*
X126687006Y-95740559D01*
X126091448Y-95145000D01*
X126101073Y-95145000D01*
X126193446Y-95129586D01*
X126303514Y-95070019D01*
X126388278Y-94977941D01*
X126438551Y-94863330D01*
X126444545Y-94790992D01*
X127043162Y-95389609D01*
X127043163Y-95389609D01*
X127051940Y-95377988D01*
X127051942Y-95377985D01*
X127146933Y-95187216D01*
X127146941Y-95187196D01*
X127205261Y-94982219D01*
X127205262Y-94982216D01*
X127224927Y-94770000D01*
X127224927Y-94769999D01*
X127205262Y-94557783D01*
X127205261Y-94557780D01*
X127146941Y-94352803D01*
X127146933Y-94352783D01*
X127051942Y-94162014D01*
X127051937Y-94162006D01*
X127043163Y-94150389D01*
X126448338Y-94745213D01*
X126448886Y-94738605D01*
X126418163Y-94617281D01*
X126349711Y-94512508D01*
X126250948Y-94435637D01*
X126132576Y-94395000D01*
X126091446Y-94395000D01*
X126687007Y-93799439D01*
X126584793Y-93736151D01*
X126584789Y-93736149D01*
X126386063Y-93659163D01*
X126386058Y-93659162D01*
X126176561Y-93620000D01*
X126079429Y-93620000D01*
X126012390Y-93600315D01*
X125966635Y-93547511D01*
X125957509Y-93505564D01*
X125955958Y-93505708D01*
X125954187Y-93486599D01*
X125935756Y-93287690D01*
X125877405Y-93082611D01*
X125877403Y-93082606D01*
X125877403Y-93082605D01*
X125782367Y-92891746D01*
X125653872Y-92721593D01*
X125596139Y-92668962D01*
X125496302Y-92577948D01*
X125315019Y-92465702D01*
X125315017Y-92465701D01*
X125199128Y-92420806D01*
X125116198Y-92388679D01*
X124906610Y-92349500D01*
X124693390Y-92349500D01*
X124483802Y-92388679D01*
X124483799Y-92388679D01*
X124483799Y-92388680D01*
X124284982Y-92465701D01*
X124284980Y-92465702D01*
X124103699Y-92577947D01*
X123946127Y-92721593D01*
X123817632Y-92891746D01*
X123722596Y-93082605D01*
X123722596Y-93082607D01*
X123664244Y-93287689D01*
X123644042Y-93505708D01*
X123641638Y-93505485D01*
X123624886Y-93562539D01*
X123572082Y-93608294D01*
X123520571Y-93619500D01*
X122832129Y-93619500D01*
X122832123Y-93619501D01*
X122772516Y-93625908D01*
X122637671Y-93676202D01*
X122637664Y-93676206D01*
X122522455Y-93762452D01*
X122522452Y-93762455D01*
X122436206Y-93877664D01*
X122436202Y-93877671D01*
X122385908Y-94012517D01*
X122379501Y-94072116D01*
X122379500Y-94072135D01*
X122379500Y-95467870D01*
X122379501Y-95467876D01*
X122385908Y-95527483D01*
X122436202Y-95662328D01*
X122436206Y-95662335D01*
X122522452Y-95777544D01*
X122522455Y-95777547D01*
X122637664Y-95863793D01*
X122637671Y-95863797D01*
X122772517Y-95914091D01*
X122780062Y-95915874D01*
X122779523Y-95918151D01*
X122833287Y-95940408D01*
X122873147Y-95997793D01*
X122879500Y-96036975D01*
X122879500Y-97849192D01*
X122859815Y-97916231D01*
X122843181Y-97936873D01*
X116166873Y-104613181D01*
X116105550Y-104646666D01*
X116079192Y-104649500D01*
X113985506Y-104649500D01*
X113969495Y-104647732D01*
X113969473Y-104647974D01*
X113961706Y-104647239D01*
X113891724Y-104649439D01*
X113887829Y-104649500D01*
X113859075Y-104649500D01*
X113859069Y-104649500D01*
X113859063Y-104649501D01*
X113854699Y-104650052D01*
X113843069Y-104650967D01*
X113797433Y-104652401D01*
X113782873Y-104656630D01*
X113777040Y-104658325D01*
X113757996Y-104662269D01*
X113736942Y-104664929D01*
X113736940Y-104664929D01*
X113694496Y-104681733D01*
X113683450Y-104685515D01*
X113639601Y-104698254D01*
X113621325Y-104709063D01*
X113603860Y-104717619D01*
X113584124Y-104725433D01*
X113547187Y-104752269D01*
X113537428Y-104758680D01*
X113498136Y-104781917D01*
X113483124Y-104796929D01*
X113468336Y-104809558D01*
X113451167Y-104822032D01*
X113451165Y-104822034D01*
X113422056Y-104857219D01*
X113414196Y-104865856D01*
X110350483Y-107929569D01*
X110337910Y-107939643D01*
X110338065Y-107939830D01*
X110332058Y-107944799D01*
X110284133Y-107995833D01*
X110281427Y-107998625D01*
X110261090Y-108018963D01*
X110261077Y-108018978D01*
X110258373Y-108022463D01*
X110250806Y-108031322D01*
X110219552Y-108064607D01*
X110209322Y-108083213D01*
X110198646Y-108099464D01*
X110185640Y-108116232D01*
X110185636Y-108116238D01*
X110167508Y-108158130D01*
X110162369Y-108168619D01*
X110140372Y-108208630D01*
X110140372Y-108208631D01*
X110135091Y-108229199D01*
X110128791Y-108247601D01*
X110120364Y-108267073D01*
X110113223Y-108312162D01*
X110110854Y-108323600D01*
X110099500Y-108367817D01*
X110099500Y-108389044D01*
X110097973Y-108408443D01*
X110094653Y-108429405D01*
X110098443Y-108469491D01*
X110098950Y-108474858D01*
X110099500Y-108486528D01*
X110099500Y-108716707D01*
X110079815Y-108783746D01*
X110046624Y-108818282D01*
X109945382Y-108889172D01*
X109789172Y-109045381D01*
X109662466Y-109226338D01*
X109662465Y-109226340D01*
X109569107Y-109426548D01*
X109569104Y-109426554D01*
X109511930Y-109639929D01*
X109511929Y-109639937D01*
X109492677Y-109859997D01*
X109492677Y-109860002D01*
X109511929Y-110080062D01*
X109511930Y-110080070D01*
X109569104Y-110293445D01*
X109569105Y-110293447D01*
X109569106Y-110293450D01*
X109592995Y-110344680D01*
X109662466Y-110493662D01*
X109662468Y-110493666D01*
X109789170Y-110674615D01*
X109789174Y-110674620D01*
X109945380Y-110830826D01*
X110046623Y-110901716D01*
X110090248Y-110956292D01*
X110099500Y-111003291D01*
X110099500Y-111256707D01*
X110079815Y-111323746D01*
X110046624Y-111358282D01*
X109945382Y-111429172D01*
X109789172Y-111585381D01*
X109662466Y-111766338D01*
X109662465Y-111766340D01*
X109569107Y-111966548D01*
X109569104Y-111966554D01*
X109511930Y-112179929D01*
X109511929Y-112179937D01*
X109492677Y-112399997D01*
X109492677Y-112400002D01*
X109500471Y-112489094D01*
X109486704Y-112557594D01*
X109438089Y-112607777D01*
X109370060Y-112623710D01*
X109309883Y-112604203D01*
X109308141Y-112603083D01*
X109294000Y-112592496D01*
X109287007Y-112586437D01*
X109273373Y-112574623D01*
X109248541Y-112563282D01*
X109233019Y-112554806D01*
X109210053Y-112540047D01*
X109210051Y-112540046D01*
X109183858Y-112532355D01*
X109167288Y-112526174D01*
X109142457Y-112514835D01*
X109115423Y-112510947D01*
X109098154Y-112507190D01*
X109071963Y-112499500D01*
X109071961Y-112499500D01*
X109035799Y-112499500D01*
X97024500Y-112499500D01*
X96957461Y-112479815D01*
X96911706Y-112427011D01*
X96900500Y-112375500D01*
X96900500Y-109600005D01*
X99144357Y-109600005D01*
X99164890Y-109847812D01*
X99164892Y-109847824D01*
X99225936Y-110088881D01*
X99325826Y-110316606D01*
X99461833Y-110524782D01*
X99461836Y-110524785D01*
X99630256Y-110707738D01*
X99826491Y-110860474D01*
X99826493Y-110860475D01*
X99992393Y-110950256D01*
X100045190Y-110978828D01*
X100280386Y-111059571D01*
X100525665Y-111100500D01*
X100774335Y-111100500D01*
X101019614Y-111059571D01*
X101254810Y-110978828D01*
X101473509Y-110860474D01*
X101669744Y-110707738D01*
X101838164Y-110524785D01*
X101974173Y-110316607D01*
X102074063Y-110088881D01*
X102135108Y-109847821D01*
X102140056Y-109788111D01*
X102155643Y-109600005D01*
X102155643Y-109599994D01*
X102135109Y-109352187D01*
X102135107Y-109352175D01*
X102074063Y-109111118D01*
X101974173Y-108883393D01*
X101838166Y-108675217D01*
X101801558Y-108635450D01*
X101669744Y-108492262D01*
X101473509Y-108339526D01*
X101473507Y-108339525D01*
X101473506Y-108339524D01*
X101254811Y-108221172D01*
X101254802Y-108221169D01*
X101019616Y-108140429D01*
X100774335Y-108099500D01*
X100525665Y-108099500D01*
X100280383Y-108140429D01*
X100045197Y-108221169D01*
X100045188Y-108221172D01*
X99826493Y-108339524D01*
X99630257Y-108492261D01*
X99461833Y-108675217D01*
X99325826Y-108883393D01*
X99225936Y-109111118D01*
X99164892Y-109352175D01*
X99164890Y-109352187D01*
X99144357Y-109599994D01*
X99144357Y-109600005D01*
X96900500Y-109600005D01*
X96900500Y-107324500D01*
X96920185Y-107257461D01*
X96972989Y-107211706D01*
X97024500Y-107200500D01*
X108071960Y-107200500D01*
X108071961Y-107200500D01*
X108098153Y-107192809D01*
X108115436Y-107189050D01*
X108119882Y-107188410D01*
X108142457Y-107185165D01*
X108167287Y-107173824D01*
X108183862Y-107167642D01*
X108210053Y-107159953D01*
X108233020Y-107145192D01*
X108248540Y-107136717D01*
X108273373Y-107125377D01*
X108294006Y-107107497D01*
X108308148Y-107096910D01*
X108331128Y-107082143D01*
X108349015Y-107061499D01*
X108361499Y-107049015D01*
X108382143Y-107031128D01*
X108396910Y-107008148D01*
X108407497Y-106994006D01*
X108425377Y-106973373D01*
X108436717Y-106948540D01*
X108445192Y-106933020D01*
X108459953Y-106910053D01*
X108467642Y-106883862D01*
X108473824Y-106867287D01*
X108485165Y-106842457D01*
X108489050Y-106815436D01*
X108492809Y-106798153D01*
X108500500Y-106771961D01*
X108500500Y-106628039D01*
X108500500Y-96880000D01*
X111894357Y-96880000D01*
X111914884Y-97101535D01*
X111914885Y-97101537D01*
X111975769Y-97315523D01*
X111975775Y-97315538D01*
X112074938Y-97514683D01*
X112074943Y-97514691D01*
X112209020Y-97692238D01*
X112373437Y-97842123D01*
X112373439Y-97842125D01*
X112562595Y-97959245D01*
X112562596Y-97959245D01*
X112562599Y-97959247D01*
X112770060Y-98039618D01*
X112988757Y-98080500D01*
X112988759Y-98080500D01*
X113211241Y-98080500D01*
X113211243Y-98080500D01*
X113429940Y-98039618D01*
X113637401Y-97959247D01*
X113826562Y-97842124D01*
X113990981Y-97692236D01*
X114125058Y-97514689D01*
X114224229Y-97315528D01*
X114285115Y-97101536D01*
X114305643Y-96880000D01*
X114285115Y-96658464D01*
X114224229Y-96444472D01*
X114224224Y-96444461D01*
X114125061Y-96245316D01*
X114125056Y-96245308D01*
X113990979Y-96067761D01*
X113826562Y-95917876D01*
X113826560Y-95917874D01*
X113637404Y-95800754D01*
X113637398Y-95800752D01*
X113429940Y-95720382D01*
X113211243Y-95679500D01*
X112988757Y-95679500D01*
X112770060Y-95720382D01*
X112717975Y-95740560D01*
X112562601Y-95800752D01*
X112562595Y-95800754D01*
X112373439Y-95917874D01*
X112373437Y-95917876D01*
X112209020Y-96067761D01*
X112074943Y-96245308D01*
X112074938Y-96245316D01*
X111975775Y-96444461D01*
X111975769Y-96444476D01*
X111914885Y-96658462D01*
X111914884Y-96658464D01*
X111894357Y-96879999D01*
X111894357Y-96880000D01*
X108500500Y-96880000D01*
X108500500Y-91800000D01*
X111894357Y-91800000D01*
X111914884Y-92021535D01*
X111914885Y-92021537D01*
X111975769Y-92235523D01*
X111975775Y-92235538D01*
X112074938Y-92434683D01*
X112074943Y-92434691D01*
X112209020Y-92612238D01*
X112373437Y-92762123D01*
X112373439Y-92762125D01*
X112562595Y-92879245D01*
X112562596Y-92879245D01*
X112562599Y-92879247D01*
X112770060Y-92959618D01*
X112988757Y-93000500D01*
X112988759Y-93000500D01*
X113211241Y-93000500D01*
X113211243Y-93000500D01*
X113429940Y-92959618D01*
X113637401Y-92879247D01*
X113826562Y-92762124D01*
X113990981Y-92612236D01*
X114125058Y-92434689D01*
X114224229Y-92235528D01*
X114285115Y-92021536D01*
X114305643Y-91800000D01*
X114294597Y-91680798D01*
X114285115Y-91578464D01*
X114285114Y-91578462D01*
X114280558Y-91562451D01*
X114224229Y-91364472D01*
X114182384Y-91280436D01*
X114125061Y-91165316D01*
X114125056Y-91165308D01*
X113990979Y-90987761D01*
X113826562Y-90837876D01*
X113826560Y-90837874D01*
X113637404Y-90720754D01*
X113637398Y-90720752D01*
X113429940Y-90640382D01*
X113211243Y-90599500D01*
X112988757Y-90599500D01*
X112770060Y-90640382D01*
X112638864Y-90691207D01*
X112562601Y-90720752D01*
X112562595Y-90720754D01*
X112373439Y-90837874D01*
X112373437Y-90837876D01*
X112209020Y-90987761D01*
X112074943Y-91165308D01*
X112074938Y-91165316D01*
X111975775Y-91364461D01*
X111975769Y-91364476D01*
X111914885Y-91578462D01*
X111914884Y-91578464D01*
X111894357Y-91799999D01*
X111894357Y-91800000D01*
X108500500Y-91800000D01*
X108500500Y-88700003D01*
X118694435Y-88700003D01*
X118714630Y-88879249D01*
X118714631Y-88879254D01*
X118774211Y-89049523D01*
X118870184Y-89202262D01*
X118997738Y-89329816D01*
X119150478Y-89425789D01*
X119320745Y-89485368D01*
X119320750Y-89485369D01*
X119499996Y-89505565D01*
X119500000Y-89505565D01*
X119500004Y-89505565D01*
X119679249Y-89485369D01*
X119679252Y-89485368D01*
X119679255Y-89485368D01*
X119849522Y-89425789D01*
X120002262Y-89329816D01*
X120129816Y-89202262D01*
X120225789Y-89049522D01*
X120278108Y-88900003D01*
X123794435Y-88900003D01*
X123814630Y-89079249D01*
X123814631Y-89079254D01*
X123874211Y-89249523D01*
X123924662Y-89329815D01*
X123970184Y-89402262D01*
X124097738Y-89529816D01*
X124250478Y-89625789D01*
X124420745Y-89685368D01*
X124420750Y-89685369D01*
X124599996Y-89705565D01*
X124600000Y-89705565D01*
X124600004Y-89705565D01*
X124779249Y-89685369D01*
X124779252Y-89685368D01*
X124779255Y-89685368D01*
X124949522Y-89625789D01*
X125102262Y-89529816D01*
X125229816Y-89402262D01*
X125325789Y-89249522D01*
X125385368Y-89079255D01*
X125388718Y-89049522D01*
X125405565Y-88900003D01*
X125405565Y-88899996D01*
X125385369Y-88720750D01*
X125385368Y-88720745D01*
X125325789Y-88550478D01*
X125307106Y-88520745D01*
X125229815Y-88397737D01*
X125102262Y-88270184D01*
X124949523Y-88174211D01*
X124779254Y-88114631D01*
X124779249Y-88114630D01*
X124600004Y-88094435D01*
X124599996Y-88094435D01*
X124420750Y-88114630D01*
X124420745Y-88114631D01*
X124250476Y-88174211D01*
X124097737Y-88270184D01*
X123970184Y-88397737D01*
X123874211Y-88550476D01*
X123814631Y-88720745D01*
X123814630Y-88720750D01*
X123794435Y-88899996D01*
X123794435Y-88900003D01*
X120278108Y-88900003D01*
X120285368Y-88879255D01*
X120288548Y-88851034D01*
X120305565Y-88700003D01*
X120305565Y-88699996D01*
X120285369Y-88520750D01*
X120285368Y-88520745D01*
X120268030Y-88471197D01*
X120225789Y-88350478D01*
X120129816Y-88197738D01*
X120002262Y-88070184D01*
X119979922Y-88056147D01*
X119849523Y-87974211D01*
X119679254Y-87914631D01*
X119679249Y-87914630D01*
X119500004Y-87894435D01*
X119499996Y-87894435D01*
X119320750Y-87914630D01*
X119320745Y-87914631D01*
X119150476Y-87974211D01*
X118997737Y-88070184D01*
X118870184Y-88197737D01*
X118774211Y-88350476D01*
X118714631Y-88520745D01*
X118714630Y-88520750D01*
X118694435Y-88699996D01*
X118694435Y-88700003D01*
X108500500Y-88700003D01*
X108500500Y-86713742D01*
X108520185Y-86646703D01*
X108572989Y-86600948D01*
X108642147Y-86591004D01*
X108705703Y-86620029D01*
G37*
%TD.AperFunction*%
%TA.AperFunction,Conductor*%
G36*
X125540507Y-110069844D02*
G01*
X125618239Y-110190798D01*
X125726900Y-110284952D01*
X125857685Y-110344680D01*
X125867466Y-110346086D01*
X125301810Y-110911740D01*
X125366589Y-110957098D01*
X125496373Y-111017618D01*
X125548812Y-111063790D01*
X125567964Y-111130984D01*
X125547748Y-111197865D01*
X125496373Y-111242382D01*
X125366590Y-111302901D01*
X125301811Y-111348258D01*
X125867466Y-111913913D01*
X125857685Y-111915320D01*
X125726900Y-111975048D01*
X125618239Y-112069202D01*
X125540507Y-112190156D01*
X125516923Y-112270476D01*
X124948258Y-111701811D01*
X124902901Y-111766590D01*
X124842382Y-111896373D01*
X124796209Y-111948812D01*
X124729016Y-111967964D01*
X124662135Y-111947748D01*
X124617618Y-111896373D01*
X124557096Y-111766586D01*
X124511741Y-111701811D01*
X124511740Y-111701810D01*
X123943076Y-112270474D01*
X123919493Y-112190156D01*
X123841761Y-112069202D01*
X123733100Y-111975048D01*
X123602315Y-111915320D01*
X123592534Y-111913913D01*
X124158188Y-111348259D01*
X124158187Y-111348258D01*
X124093411Y-111302901D01*
X124093405Y-111302898D01*
X123964219Y-111242658D01*
X123911779Y-111196486D01*
X123892627Y-111129293D01*
X123912843Y-111062411D01*
X123964219Y-111017894D01*
X123995535Y-111003291D01*
X124093662Y-110957534D01*
X124274620Y-110830826D01*
X124430826Y-110674620D01*
X124557534Y-110493662D01*
X124617894Y-110364218D01*
X124664066Y-110311779D01*
X124731259Y-110292627D01*
X124798141Y-110312843D01*
X124842658Y-110364219D01*
X124902898Y-110493405D01*
X124902901Y-110493411D01*
X124948258Y-110558187D01*
X124948259Y-110558188D01*
X125516923Y-109989523D01*
X125540507Y-110069844D01*
G37*
%TD.AperFunction*%
%TA.AperFunction,Conductor*%
G36*
X128080507Y-110069844D02*
G01*
X128158239Y-110190798D01*
X128266900Y-110284952D01*
X128397685Y-110344680D01*
X128407466Y-110346086D01*
X127841810Y-110911740D01*
X127906589Y-110957098D01*
X128036373Y-111017618D01*
X128088812Y-111063790D01*
X128107964Y-111130984D01*
X128087748Y-111197865D01*
X128036373Y-111242382D01*
X127906590Y-111302901D01*
X127841811Y-111348258D01*
X128407466Y-111913913D01*
X128397685Y-111915320D01*
X128266900Y-111975048D01*
X128158239Y-112069202D01*
X128080507Y-112190156D01*
X128056923Y-112270476D01*
X127488258Y-111701811D01*
X127442901Y-111766590D01*
X127382382Y-111896373D01*
X127336209Y-111948812D01*
X127269016Y-111967964D01*
X127202135Y-111947748D01*
X127157618Y-111896373D01*
X127097096Y-111766586D01*
X127051741Y-111701811D01*
X127051740Y-111701810D01*
X126483076Y-112270474D01*
X126459493Y-112190156D01*
X126381761Y-112069202D01*
X126273100Y-111975048D01*
X126142315Y-111915320D01*
X126132534Y-111913913D01*
X126698188Y-111348259D01*
X126698187Y-111348258D01*
X126633411Y-111302901D01*
X126633405Y-111302898D01*
X126503627Y-111242382D01*
X126451187Y-111196210D01*
X126432035Y-111129017D01*
X126452251Y-111062135D01*
X126503627Y-111017618D01*
X126633407Y-110957100D01*
X126633417Y-110957094D01*
X126698188Y-110911741D01*
X126132534Y-110346086D01*
X126142315Y-110344680D01*
X126273100Y-110284952D01*
X126381761Y-110190798D01*
X126459493Y-110069844D01*
X126483076Y-109989523D01*
X127051741Y-110558188D01*
X127097094Y-110493417D01*
X127097100Y-110493407D01*
X127157618Y-110363627D01*
X127203790Y-110311187D01*
X127270983Y-110292035D01*
X127337865Y-110312251D01*
X127382382Y-110363627D01*
X127442898Y-110493405D01*
X127442901Y-110493411D01*
X127488258Y-110558187D01*
X127488259Y-110558188D01*
X128056923Y-109989523D01*
X128080507Y-110069844D01*
G37*
%TD.AperFunction*%
%TA.AperFunction,Conductor*%
G36*
X130620507Y-110069844D02*
G01*
X130698239Y-110190798D01*
X130806900Y-110284952D01*
X130937685Y-110344680D01*
X130947466Y-110346086D01*
X130381810Y-110911740D01*
X130446589Y-110957098D01*
X130576373Y-111017618D01*
X130628812Y-111063790D01*
X130647964Y-111130984D01*
X130627748Y-111197865D01*
X130576373Y-111242382D01*
X130446590Y-111302901D01*
X130381811Y-111348258D01*
X130947466Y-111913913D01*
X130937685Y-111915320D01*
X130806900Y-111975048D01*
X130698239Y-112069202D01*
X130620507Y-112190156D01*
X130596923Y-112270476D01*
X130028258Y-111701811D01*
X129982901Y-111766590D01*
X129922382Y-111896373D01*
X129876209Y-111948812D01*
X129809016Y-111967964D01*
X129742135Y-111947748D01*
X129697618Y-111896373D01*
X129637096Y-111766586D01*
X129591741Y-111701811D01*
X129591740Y-111701810D01*
X129023076Y-112270474D01*
X128999493Y-112190156D01*
X128921761Y-112069202D01*
X128813100Y-111975048D01*
X128682315Y-111915320D01*
X128672534Y-111913913D01*
X129238188Y-111348259D01*
X129238187Y-111348258D01*
X129173411Y-111302901D01*
X129173405Y-111302898D01*
X129043627Y-111242382D01*
X128991187Y-111196210D01*
X128972035Y-111129017D01*
X128992251Y-111062135D01*
X129043627Y-111017618D01*
X129173407Y-110957100D01*
X129173417Y-110957094D01*
X129238188Y-110911741D01*
X128672534Y-110346086D01*
X128682315Y-110344680D01*
X128813100Y-110284952D01*
X128921761Y-110190798D01*
X128999493Y-110069844D01*
X129023076Y-109989523D01*
X129591741Y-110558188D01*
X129637094Y-110493417D01*
X129637100Y-110493407D01*
X129697618Y-110363627D01*
X129743790Y-110311187D01*
X129810983Y-110292035D01*
X129877865Y-110312251D01*
X129922382Y-110363627D01*
X129982898Y-110493405D01*
X129982901Y-110493411D01*
X130028258Y-110558187D01*
X130028259Y-110558188D01*
X130596923Y-109989523D01*
X130620507Y-110069844D01*
G37*
%TD.AperFunction*%
%TA.AperFunction,Conductor*%
G36*
X133160507Y-110069844D02*
G01*
X133238239Y-110190798D01*
X133346900Y-110284952D01*
X133477685Y-110344680D01*
X133487466Y-110346086D01*
X132921810Y-110911740D01*
X132986589Y-110957098D01*
X133116373Y-111017618D01*
X133168812Y-111063790D01*
X133187964Y-111130984D01*
X133167748Y-111197865D01*
X133116373Y-111242382D01*
X132986590Y-111302901D01*
X132921811Y-111348258D01*
X133487466Y-111913913D01*
X133477685Y-111915320D01*
X133346900Y-111975048D01*
X133238239Y-112069202D01*
X133160507Y-112190156D01*
X133136923Y-112270476D01*
X132568258Y-111701811D01*
X132522901Y-111766590D01*
X132462382Y-111896373D01*
X132416209Y-111948812D01*
X132349016Y-111967964D01*
X132282135Y-111947748D01*
X132237618Y-111896373D01*
X132177096Y-111766586D01*
X132131741Y-111701811D01*
X132131740Y-111701810D01*
X131563076Y-112270474D01*
X131539493Y-112190156D01*
X131461761Y-112069202D01*
X131353100Y-111975048D01*
X131222315Y-111915320D01*
X131212534Y-111913913D01*
X131778188Y-111348259D01*
X131778187Y-111348258D01*
X131713411Y-111302901D01*
X131713405Y-111302898D01*
X131583627Y-111242382D01*
X131531187Y-111196210D01*
X131512035Y-111129017D01*
X131532251Y-111062135D01*
X131583627Y-111017618D01*
X131713407Y-110957100D01*
X131713417Y-110957094D01*
X131778188Y-110911741D01*
X131212534Y-110346086D01*
X131222315Y-110344680D01*
X131353100Y-110284952D01*
X131461761Y-110190798D01*
X131539493Y-110069844D01*
X131563076Y-109989523D01*
X132131741Y-110558188D01*
X132177094Y-110493417D01*
X132177100Y-110493407D01*
X132237618Y-110363627D01*
X132283790Y-110311187D01*
X132350983Y-110292035D01*
X132417865Y-110312251D01*
X132462382Y-110363627D01*
X132522898Y-110493405D01*
X132522901Y-110493411D01*
X132568258Y-110558187D01*
X132568259Y-110558188D01*
X133136923Y-109989523D01*
X133160507Y-110069844D01*
G37*
%TD.AperFunction*%
%TA.AperFunction,Conductor*%
G36*
X135700507Y-110069844D02*
G01*
X135778239Y-110190798D01*
X135886900Y-110284952D01*
X136017685Y-110344680D01*
X136027466Y-110346086D01*
X135461810Y-110911740D01*
X135526589Y-110957098D01*
X135656373Y-111017618D01*
X135708812Y-111063790D01*
X135727964Y-111130984D01*
X135707748Y-111197865D01*
X135656373Y-111242382D01*
X135526590Y-111302901D01*
X135461811Y-111348258D01*
X136027466Y-111913913D01*
X136017685Y-111915320D01*
X135886900Y-111975048D01*
X135778239Y-112069202D01*
X135700507Y-112190156D01*
X135676923Y-112270476D01*
X135108258Y-111701811D01*
X135062901Y-111766590D01*
X135002382Y-111896373D01*
X134956209Y-111948812D01*
X134889016Y-111967964D01*
X134822135Y-111947748D01*
X134777618Y-111896373D01*
X134717096Y-111766586D01*
X134671741Y-111701811D01*
X134671740Y-111701810D01*
X134103076Y-112270474D01*
X134079493Y-112190156D01*
X134001761Y-112069202D01*
X133893100Y-111975048D01*
X133762315Y-111915320D01*
X133752534Y-111913913D01*
X134318188Y-111348259D01*
X134318187Y-111348258D01*
X134253411Y-111302901D01*
X134253405Y-111302898D01*
X134123627Y-111242382D01*
X134071187Y-111196210D01*
X134052035Y-111129017D01*
X134072251Y-111062135D01*
X134123627Y-111017618D01*
X134253407Y-110957100D01*
X134253417Y-110957094D01*
X134318188Y-110911741D01*
X133752534Y-110346086D01*
X133762315Y-110344680D01*
X133893100Y-110284952D01*
X134001761Y-110190798D01*
X134079493Y-110069844D01*
X134103076Y-109989523D01*
X134671741Y-110558188D01*
X134717094Y-110493417D01*
X134717100Y-110493407D01*
X134777618Y-110363627D01*
X134823790Y-110311187D01*
X134890983Y-110292035D01*
X134957865Y-110312251D01*
X135002382Y-110363627D01*
X135062898Y-110493405D01*
X135062901Y-110493411D01*
X135108258Y-110558187D01*
X135108259Y-110558188D01*
X135676923Y-109989523D01*
X135700507Y-110069844D01*
G37*
%TD.AperFunction*%
%TA.AperFunction,Conductor*%
G36*
X138240507Y-110069844D02*
G01*
X138318239Y-110190798D01*
X138426900Y-110284952D01*
X138557685Y-110344680D01*
X138567466Y-110346086D01*
X138001810Y-110911740D01*
X138066589Y-110957098D01*
X138196373Y-111017618D01*
X138248812Y-111063790D01*
X138267964Y-111130984D01*
X138247748Y-111197865D01*
X138196373Y-111242382D01*
X138066590Y-111302901D01*
X138001811Y-111348258D01*
X138567466Y-111913913D01*
X138557685Y-111915320D01*
X138426900Y-111975048D01*
X138318239Y-112069202D01*
X138240507Y-112190156D01*
X138216923Y-112270476D01*
X137648258Y-111701811D01*
X137602901Y-111766590D01*
X137542382Y-111896373D01*
X137496209Y-111948812D01*
X137429016Y-111967964D01*
X137362135Y-111947748D01*
X137317618Y-111896373D01*
X137257096Y-111766586D01*
X137211741Y-111701811D01*
X137211740Y-111701810D01*
X136643076Y-112270474D01*
X136619493Y-112190156D01*
X136541761Y-112069202D01*
X136433100Y-111975048D01*
X136302315Y-111915320D01*
X136292534Y-111913913D01*
X136858188Y-111348259D01*
X136858187Y-111348258D01*
X136793411Y-111302901D01*
X136793405Y-111302898D01*
X136663627Y-111242382D01*
X136611187Y-111196210D01*
X136592035Y-111129017D01*
X136612251Y-111062135D01*
X136663627Y-111017618D01*
X136793407Y-110957100D01*
X136793417Y-110957094D01*
X136858188Y-110911741D01*
X136292534Y-110346086D01*
X136302315Y-110344680D01*
X136433100Y-110284952D01*
X136541761Y-110190798D01*
X136619493Y-110069844D01*
X136643076Y-109989523D01*
X137211741Y-110558188D01*
X137257094Y-110493417D01*
X137257100Y-110493407D01*
X137317618Y-110363627D01*
X137363790Y-110311187D01*
X137430983Y-110292035D01*
X137497865Y-110312251D01*
X137542382Y-110363627D01*
X137602898Y-110493405D01*
X137602901Y-110493411D01*
X137648258Y-110558187D01*
X137648259Y-110558188D01*
X138216923Y-109989523D01*
X138240507Y-110069844D01*
G37*
%TD.AperFunction*%
%TA.AperFunction,Conductor*%
G36*
X140780507Y-110069844D02*
G01*
X140858239Y-110190798D01*
X140966900Y-110284952D01*
X141097685Y-110344680D01*
X141107466Y-110346086D01*
X140541810Y-110911740D01*
X140606589Y-110957098D01*
X140736373Y-111017618D01*
X140788812Y-111063790D01*
X140807964Y-111130984D01*
X140787748Y-111197865D01*
X140736373Y-111242382D01*
X140606590Y-111302901D01*
X140541811Y-111348258D01*
X141107466Y-111913913D01*
X141097685Y-111915320D01*
X140966900Y-111975048D01*
X140858239Y-112069202D01*
X140780507Y-112190156D01*
X140756923Y-112270476D01*
X140188258Y-111701811D01*
X140142901Y-111766590D01*
X140082382Y-111896373D01*
X140036209Y-111948812D01*
X139969016Y-111967964D01*
X139902135Y-111947748D01*
X139857618Y-111896373D01*
X139797096Y-111766586D01*
X139751741Y-111701811D01*
X139751740Y-111701810D01*
X139183076Y-112270474D01*
X139159493Y-112190156D01*
X139081761Y-112069202D01*
X138973100Y-111975048D01*
X138842315Y-111915320D01*
X138832534Y-111913913D01*
X139398188Y-111348259D01*
X139398187Y-111348258D01*
X139333411Y-111302901D01*
X139333405Y-111302898D01*
X139203627Y-111242382D01*
X139151187Y-111196210D01*
X139132035Y-111129017D01*
X139152251Y-111062135D01*
X139203627Y-111017618D01*
X139333407Y-110957100D01*
X139333417Y-110957094D01*
X139398188Y-110911741D01*
X138832534Y-110346086D01*
X138842315Y-110344680D01*
X138973100Y-110284952D01*
X139081761Y-110190798D01*
X139159493Y-110069844D01*
X139183076Y-109989523D01*
X139751741Y-110558188D01*
X139797094Y-110493417D01*
X139797100Y-110493407D01*
X139857618Y-110363627D01*
X139903790Y-110311187D01*
X139970983Y-110292035D01*
X140037865Y-110312251D01*
X140082382Y-110363627D01*
X140142898Y-110493405D01*
X140142901Y-110493411D01*
X140188258Y-110558187D01*
X140188259Y-110558188D01*
X140756923Y-109989523D01*
X140780507Y-110069844D01*
G37*
%TD.AperFunction*%
%TA.AperFunction,Conductor*%
G36*
X143320507Y-110069844D02*
G01*
X143398239Y-110190798D01*
X143506900Y-110284952D01*
X143637685Y-110344680D01*
X143647466Y-110346086D01*
X143081810Y-110911740D01*
X143146589Y-110957098D01*
X143276373Y-111017618D01*
X143328812Y-111063790D01*
X143347964Y-111130984D01*
X143327748Y-111197865D01*
X143276373Y-111242382D01*
X143146590Y-111302901D01*
X143081811Y-111348258D01*
X143647466Y-111913913D01*
X143637685Y-111915320D01*
X143506900Y-111975048D01*
X143398239Y-112069202D01*
X143320507Y-112190156D01*
X143296923Y-112270476D01*
X142728258Y-111701811D01*
X142682901Y-111766590D01*
X142622382Y-111896373D01*
X142576209Y-111948812D01*
X142509016Y-111967964D01*
X142442135Y-111947748D01*
X142397618Y-111896373D01*
X142337096Y-111766586D01*
X142291741Y-111701811D01*
X142291740Y-111701810D01*
X141723076Y-112270474D01*
X141699493Y-112190156D01*
X141621761Y-112069202D01*
X141513100Y-111975048D01*
X141382315Y-111915320D01*
X141372534Y-111913913D01*
X141938188Y-111348259D01*
X141938187Y-111348258D01*
X141873411Y-111302901D01*
X141873405Y-111302898D01*
X141743627Y-111242382D01*
X141691187Y-111196210D01*
X141672035Y-111129017D01*
X141692251Y-111062135D01*
X141743627Y-111017618D01*
X141873407Y-110957100D01*
X141873417Y-110957094D01*
X141938188Y-110911741D01*
X141372534Y-110346086D01*
X141382315Y-110344680D01*
X141513100Y-110284952D01*
X141621761Y-110190798D01*
X141699493Y-110069844D01*
X141723076Y-109989523D01*
X142291741Y-110558188D01*
X142337094Y-110493417D01*
X142337100Y-110493407D01*
X142397618Y-110363627D01*
X142443790Y-110311187D01*
X142510983Y-110292035D01*
X142577865Y-110312251D01*
X142622382Y-110363627D01*
X142682898Y-110493405D01*
X142682901Y-110493411D01*
X142728258Y-110558187D01*
X142728259Y-110558188D01*
X143296923Y-109989523D01*
X143320507Y-110069844D01*
G37*
%TD.AperFunction*%
%TA.AperFunction,Conductor*%
G36*
X145860507Y-110069844D02*
G01*
X145938239Y-110190798D01*
X146046900Y-110284952D01*
X146177685Y-110344680D01*
X146187466Y-110346086D01*
X145621810Y-110911740D01*
X145686589Y-110957098D01*
X145816373Y-111017618D01*
X145868812Y-111063790D01*
X145887964Y-111130984D01*
X145867748Y-111197865D01*
X145816373Y-111242382D01*
X145686590Y-111302901D01*
X145621811Y-111348258D01*
X146187466Y-111913913D01*
X146177685Y-111915320D01*
X146046900Y-111975048D01*
X145938239Y-112069202D01*
X145860507Y-112190156D01*
X145836923Y-112270476D01*
X145268258Y-111701811D01*
X145222901Y-111766590D01*
X145162382Y-111896373D01*
X145116209Y-111948812D01*
X145049016Y-111967964D01*
X144982135Y-111947748D01*
X144937618Y-111896373D01*
X144877096Y-111766586D01*
X144831741Y-111701811D01*
X144831740Y-111701810D01*
X144263076Y-112270474D01*
X144239493Y-112190156D01*
X144161761Y-112069202D01*
X144053100Y-111975048D01*
X143922315Y-111915320D01*
X143912534Y-111913913D01*
X144478188Y-111348259D01*
X144478187Y-111348258D01*
X144413411Y-111302901D01*
X144413405Y-111302898D01*
X144283627Y-111242382D01*
X144231187Y-111196210D01*
X144212035Y-111129017D01*
X144232251Y-111062135D01*
X144283627Y-111017618D01*
X144413407Y-110957100D01*
X144413417Y-110957094D01*
X144478188Y-110911741D01*
X143912534Y-110346086D01*
X143922315Y-110344680D01*
X144053100Y-110284952D01*
X144161761Y-110190798D01*
X144239493Y-110069844D01*
X144263076Y-109989523D01*
X144831741Y-110558188D01*
X144877094Y-110493417D01*
X144877100Y-110493407D01*
X144937618Y-110363627D01*
X144983790Y-110311187D01*
X145050983Y-110292035D01*
X145117865Y-110312251D01*
X145162382Y-110363627D01*
X145222898Y-110493405D01*
X145222901Y-110493411D01*
X145268258Y-110558187D01*
X145268259Y-110558188D01*
X145836923Y-109989523D01*
X145860507Y-110069844D01*
G37*
%TD.AperFunction*%
%TA.AperFunction,Conductor*%
G36*
X167977865Y-110313435D02*
G01*
X168022382Y-110364811D01*
X168082464Y-110493658D01*
X168082468Y-110493666D01*
X168209170Y-110674615D01*
X168209174Y-110674620D01*
X168365380Y-110830826D01*
X168365382Y-110830827D01*
X168365384Y-110830829D01*
X168546333Y-110957531D01*
X168546335Y-110957532D01*
X168546338Y-110957534D01*
X168592008Y-110978830D01*
X168675781Y-111017894D01*
X168728220Y-111064066D01*
X168747372Y-111131260D01*
X168727156Y-111198141D01*
X168675781Y-111242658D01*
X168546590Y-111302901D01*
X168481811Y-111348258D01*
X169047466Y-111913913D01*
X169037685Y-111915320D01*
X168906900Y-111975048D01*
X168798239Y-112069202D01*
X168720507Y-112190156D01*
X168696923Y-112270476D01*
X168128258Y-111701811D01*
X168082901Y-111766590D01*
X168022658Y-111895781D01*
X167976485Y-111948220D01*
X167909292Y-111967372D01*
X167842411Y-111947156D01*
X167797894Y-111895781D01*
X167756335Y-111806658D01*
X167737534Y-111766339D01*
X167640696Y-111628039D01*
X167610827Y-111585381D01*
X167541587Y-111516141D01*
X167454620Y-111429174D01*
X167454616Y-111429171D01*
X167454615Y-111429170D01*
X167273666Y-111302468D01*
X167273658Y-111302464D01*
X167144811Y-111242382D01*
X167092371Y-111196210D01*
X167073219Y-111129017D01*
X167093435Y-111062135D01*
X167144811Y-111017618D01*
X167175535Y-111003291D01*
X167273662Y-110957534D01*
X167454620Y-110830826D01*
X167610826Y-110674620D01*
X167737534Y-110493662D01*
X167797618Y-110364811D01*
X167843790Y-110312371D01*
X167910983Y-110293219D01*
X167977865Y-110313435D01*
G37*
%TD.AperFunction*%
%TA.AperFunction,Conductor*%
G36*
X176340507Y-110069844D02*
G01*
X176418239Y-110190798D01*
X176526900Y-110284952D01*
X176657685Y-110344680D01*
X176667466Y-110346086D01*
X176101810Y-110911740D01*
X176166589Y-110957098D01*
X176296373Y-111017618D01*
X176348812Y-111063790D01*
X176367964Y-111130984D01*
X176347748Y-111197865D01*
X176296373Y-111242382D01*
X176166590Y-111302901D01*
X176101811Y-111348258D01*
X176667466Y-111913913D01*
X176657685Y-111915320D01*
X176526900Y-111975048D01*
X176418239Y-112069202D01*
X176340507Y-112190156D01*
X176316923Y-112270476D01*
X175748258Y-111701811D01*
X175702901Y-111766590D01*
X175642658Y-111895781D01*
X175596485Y-111948220D01*
X175529292Y-111967372D01*
X175462411Y-111947156D01*
X175417894Y-111895781D01*
X175376335Y-111806658D01*
X175357534Y-111766339D01*
X175260696Y-111628039D01*
X175230827Y-111585381D01*
X175161587Y-111516141D01*
X175074620Y-111429174D01*
X175074616Y-111429171D01*
X175074615Y-111429170D01*
X174893666Y-111302468D01*
X174893658Y-111302464D01*
X174764811Y-111242382D01*
X174712371Y-111196210D01*
X174693219Y-111129017D01*
X174713435Y-111062135D01*
X174764811Y-111017618D01*
X174795535Y-111003291D01*
X174893662Y-110957534D01*
X175074620Y-110830826D01*
X175230826Y-110674620D01*
X175357534Y-110493662D01*
X175417894Y-110364218D01*
X175464066Y-110311779D01*
X175531259Y-110292627D01*
X175598141Y-110312843D01*
X175642658Y-110364219D01*
X175702898Y-110493405D01*
X175702901Y-110493411D01*
X175748258Y-110558187D01*
X175748259Y-110558188D01*
X176316923Y-109989523D01*
X176340507Y-110069844D01*
G37*
%TD.AperFunction*%
%TA.AperFunction,Conductor*%
G36*
X122257865Y-110313435D02*
G01*
X122302382Y-110364811D01*
X122362464Y-110493658D01*
X122362468Y-110493666D01*
X122489170Y-110674615D01*
X122489174Y-110674620D01*
X122645380Y-110830826D01*
X122645382Y-110830827D01*
X122645384Y-110830829D01*
X122826333Y-110957531D01*
X122826335Y-110957532D01*
X122826338Y-110957534D01*
X122872008Y-110978830D01*
X122955781Y-111017894D01*
X123008220Y-111064066D01*
X123027372Y-111131260D01*
X123007156Y-111198141D01*
X122955781Y-111242658D01*
X122826590Y-111302901D01*
X122761811Y-111348258D01*
X123327466Y-111913913D01*
X123317685Y-111915320D01*
X123186900Y-111975048D01*
X123078239Y-112069202D01*
X123000507Y-112190156D01*
X122976923Y-112270475D01*
X122408258Y-111701811D01*
X122362901Y-111766590D01*
X122302658Y-111895781D01*
X122256485Y-111948220D01*
X122189292Y-111967372D01*
X122122411Y-111947156D01*
X122077894Y-111895781D01*
X122036335Y-111806658D01*
X122017534Y-111766339D01*
X121920696Y-111628039D01*
X121890827Y-111585381D01*
X121821587Y-111516141D01*
X121734620Y-111429174D01*
X121734616Y-111429171D01*
X121734615Y-111429170D01*
X121553666Y-111302468D01*
X121553658Y-111302464D01*
X121424811Y-111242382D01*
X121372371Y-111196210D01*
X121353219Y-111129017D01*
X121373435Y-111062135D01*
X121424811Y-111017618D01*
X121455535Y-111003291D01*
X121553662Y-110957534D01*
X121734620Y-110830826D01*
X121890826Y-110674620D01*
X122017534Y-110493662D01*
X122077618Y-110364811D01*
X122123790Y-110312371D01*
X122190983Y-110293219D01*
X122257865Y-110313435D01*
G37*
%TD.AperFunction*%
%TA.AperFunction,Conductor*%
G36*
X148400507Y-110069844D02*
G01*
X148478239Y-110190798D01*
X148586900Y-110284952D01*
X148717685Y-110344680D01*
X148727464Y-110346086D01*
X148161810Y-110911740D01*
X148226589Y-110957098D01*
X148355781Y-111017342D01*
X148408220Y-111063514D01*
X148427372Y-111130708D01*
X148407156Y-111197589D01*
X148355781Y-111242106D01*
X148226340Y-111302465D01*
X148226338Y-111302466D01*
X148045377Y-111429175D01*
X147889175Y-111585377D01*
X147762467Y-111766337D01*
X147702105Y-111895782D01*
X147655932Y-111948221D01*
X147588738Y-111967372D01*
X147521857Y-111947156D01*
X147477341Y-111895780D01*
X147417098Y-111766589D01*
X147417097Y-111766587D01*
X147371741Y-111701811D01*
X147371740Y-111701810D01*
X146803076Y-112270474D01*
X146779493Y-112190156D01*
X146701761Y-112069202D01*
X146593100Y-111975048D01*
X146462315Y-111915320D01*
X146452534Y-111913913D01*
X147018188Y-111348259D01*
X147018187Y-111348258D01*
X146953411Y-111302901D01*
X146953405Y-111302898D01*
X146823627Y-111242382D01*
X146771187Y-111196210D01*
X146752035Y-111129017D01*
X146772251Y-111062135D01*
X146823627Y-111017618D01*
X146953407Y-110957100D01*
X146953417Y-110957094D01*
X147018188Y-110911741D01*
X146452534Y-110346086D01*
X146462315Y-110344680D01*
X146593100Y-110284952D01*
X146701761Y-110190798D01*
X146779493Y-110069844D01*
X146803076Y-109989523D01*
X147371741Y-110558188D01*
X147417094Y-110493417D01*
X147417100Y-110493407D01*
X147477618Y-110363627D01*
X147523790Y-110311187D01*
X147590983Y-110292035D01*
X147657865Y-110312251D01*
X147702382Y-110363627D01*
X147762898Y-110493405D01*
X147762901Y-110493411D01*
X147808258Y-110558187D01*
X147808259Y-110558188D01*
X148376923Y-109989523D01*
X148400507Y-110069844D01*
G37*
%TD.AperFunction*%
%TA.AperFunction,Conductor*%
G36*
X171260507Y-110069844D02*
G01*
X171338239Y-110190798D01*
X171446900Y-110284952D01*
X171577685Y-110344680D01*
X171587464Y-110346086D01*
X171021810Y-110911740D01*
X171086589Y-110957098D01*
X171215781Y-111017342D01*
X171268220Y-111063514D01*
X171287372Y-111130708D01*
X171267156Y-111197589D01*
X171215781Y-111242106D01*
X171086340Y-111302465D01*
X171086338Y-111302466D01*
X170905377Y-111429175D01*
X170749175Y-111585377D01*
X170622467Y-111766337D01*
X170562105Y-111895782D01*
X170515932Y-111948221D01*
X170448738Y-111967372D01*
X170381857Y-111947156D01*
X170337341Y-111895780D01*
X170277098Y-111766589D01*
X170277097Y-111766587D01*
X170231741Y-111701811D01*
X170231740Y-111701810D01*
X169663076Y-112270474D01*
X169639493Y-112190156D01*
X169561761Y-112069202D01*
X169453100Y-111975048D01*
X169322315Y-111915320D01*
X169312534Y-111913913D01*
X169878188Y-111348259D01*
X169878187Y-111348258D01*
X169813411Y-111302901D01*
X169813405Y-111302898D01*
X169684219Y-111242658D01*
X169631779Y-111196486D01*
X169612627Y-111129293D01*
X169632843Y-111062411D01*
X169684219Y-111017894D01*
X169715535Y-111003291D01*
X169813662Y-110957534D01*
X169994620Y-110830826D01*
X170150826Y-110674620D01*
X170277534Y-110493662D01*
X170337894Y-110364218D01*
X170384066Y-110311779D01*
X170451259Y-110292627D01*
X170518141Y-110312843D01*
X170562658Y-110364219D01*
X170622898Y-110493405D01*
X170622901Y-110493411D01*
X170668258Y-110558187D01*
X170668259Y-110558188D01*
X171236923Y-109989523D01*
X171260507Y-110069844D01*
G37*
%TD.AperFunction*%
%TA.AperFunction,Conductor*%
G36*
X177851741Y-110558188D02*
G01*
X177897094Y-110493417D01*
X177897095Y-110493416D01*
X177957340Y-110364219D01*
X178003512Y-110311780D01*
X178070706Y-110292627D01*
X178137587Y-110312842D01*
X178182105Y-110364218D01*
X178242466Y-110493662D01*
X178242468Y-110493666D01*
X178369170Y-110674615D01*
X178369174Y-110674620D01*
X178525380Y-110830826D01*
X178525382Y-110830827D01*
X178525384Y-110830829D01*
X178706333Y-110957531D01*
X178706335Y-110957532D01*
X178706338Y-110957534D01*
X178752008Y-110978830D01*
X178835189Y-111017618D01*
X178887628Y-111063790D01*
X178906780Y-111130984D01*
X178886564Y-111197865D01*
X178835189Y-111242382D01*
X178706340Y-111302465D01*
X178706338Y-111302466D01*
X178525377Y-111429175D01*
X178369175Y-111585377D01*
X178242467Y-111766337D01*
X178182105Y-111895782D01*
X178135932Y-111948221D01*
X178068738Y-111967372D01*
X178001857Y-111947156D01*
X177957341Y-111895780D01*
X177897098Y-111766589D01*
X177897097Y-111766587D01*
X177851741Y-111701811D01*
X177851740Y-111701810D01*
X177283076Y-112270474D01*
X177259493Y-112190156D01*
X177181761Y-112069202D01*
X177073100Y-111975048D01*
X176942315Y-111915320D01*
X176932534Y-111913913D01*
X177498188Y-111348259D01*
X177498187Y-111348258D01*
X177433411Y-111302901D01*
X177433405Y-111302898D01*
X177303627Y-111242382D01*
X177251187Y-111196210D01*
X177232035Y-111129017D01*
X177252251Y-111062135D01*
X177303627Y-111017618D01*
X177433407Y-110957100D01*
X177433417Y-110957094D01*
X177498188Y-110911741D01*
X176932534Y-110346086D01*
X176942315Y-110344680D01*
X177073100Y-110284952D01*
X177181761Y-110190798D01*
X177259493Y-110069844D01*
X177283076Y-109989523D01*
X177851741Y-110558188D01*
G37*
%TD.AperFunction*%
%TA.AperFunction,Conductor*%
G36*
X183960507Y-110069844D02*
G01*
X184038239Y-110190798D01*
X184146900Y-110284952D01*
X184277685Y-110344680D01*
X184287466Y-110346086D01*
X183721810Y-110911740D01*
X183786589Y-110957098D01*
X183915781Y-111017342D01*
X183968220Y-111063514D01*
X183987372Y-111130708D01*
X183967156Y-111197589D01*
X183915781Y-111242106D01*
X183786340Y-111302465D01*
X183786338Y-111302466D01*
X183605377Y-111429175D01*
X183449175Y-111585377D01*
X183322466Y-111766338D01*
X183322465Y-111766340D01*
X183262382Y-111895189D01*
X183216209Y-111947628D01*
X183149016Y-111966780D01*
X183082135Y-111946564D01*
X183037618Y-111895189D01*
X182996335Y-111806658D01*
X182977534Y-111766339D01*
X182880696Y-111628039D01*
X182850827Y-111585381D01*
X182781587Y-111516141D01*
X182694620Y-111429174D01*
X182694616Y-111429171D01*
X182694615Y-111429170D01*
X182513666Y-111302468D01*
X182513658Y-111302464D01*
X182384811Y-111242382D01*
X182332371Y-111196210D01*
X182313219Y-111129017D01*
X182333435Y-111062135D01*
X182384811Y-111017618D01*
X182415535Y-111003291D01*
X182513662Y-110957534D01*
X182694620Y-110830826D01*
X182850826Y-110674620D01*
X182977534Y-110493662D01*
X183037894Y-110364218D01*
X183084066Y-110311779D01*
X183151259Y-110292627D01*
X183218141Y-110312843D01*
X183262658Y-110364219D01*
X183322898Y-110493405D01*
X183322901Y-110493411D01*
X183368258Y-110558187D01*
X183368259Y-110558188D01*
X183936923Y-109989523D01*
X183960507Y-110069844D01*
G37*
%TD.AperFunction*%
%TA.AperFunction,Conductor*%
G36*
X150046593Y-88192728D02*
G01*
X150072647Y-88199709D01*
X150204592Y-88235063D01*
X150381034Y-88250500D01*
X150439999Y-88255659D01*
X150440000Y-88255659D01*
X150440001Y-88255659D01*
X150498966Y-88250500D01*
X150675408Y-88235063D01*
X150747989Y-88215615D01*
X150817839Y-88217278D01*
X150867763Y-88247709D01*
X150973181Y-88353127D01*
X151006666Y-88414450D01*
X151009500Y-88440808D01*
X151009500Y-106579191D01*
X150989815Y-106646230D01*
X150973181Y-106666872D01*
X149888484Y-107751568D01*
X149875910Y-107761643D01*
X149876065Y-107761830D01*
X149870058Y-107766799D01*
X149822133Y-107817833D01*
X149819427Y-107820625D01*
X149799090Y-107840963D01*
X149799077Y-107840978D01*
X149796373Y-107844463D01*
X149788806Y-107853322D01*
X149757552Y-107886607D01*
X149747322Y-107905213D01*
X149736646Y-107921464D01*
X149723640Y-107938232D01*
X149723636Y-107938238D01*
X149705508Y-107980130D01*
X149700369Y-107990619D01*
X149678372Y-108030630D01*
X149678372Y-108030631D01*
X149673091Y-108051199D01*
X149666791Y-108069601D01*
X149658364Y-108089073D01*
X149651223Y-108134162D01*
X149648854Y-108145600D01*
X149637500Y-108189817D01*
X149637500Y-108211044D01*
X149635973Y-108230444D01*
X149633256Y-108247601D01*
X149632653Y-108251405D01*
X149636950Y-108296858D01*
X149637500Y-108308528D01*
X149637500Y-108635450D01*
X149617815Y-108702489D01*
X149565011Y-108748244D01*
X149495853Y-108758188D01*
X149461096Y-108747832D01*
X149293284Y-108669580D01*
X149293270Y-108669575D01*
X149079986Y-108612426D01*
X149079976Y-108612424D01*
X148860001Y-108593179D01*
X148859999Y-108593179D01*
X148640023Y-108612424D01*
X148640013Y-108612426D01*
X148426729Y-108669575D01*
X148426720Y-108669579D01*
X148226590Y-108762901D01*
X148161811Y-108808258D01*
X148727466Y-109373913D01*
X148717685Y-109375320D01*
X148586900Y-109435048D01*
X148478239Y-109529202D01*
X148400507Y-109650156D01*
X148376923Y-109730476D01*
X147808258Y-109161811D01*
X147762901Y-109226590D01*
X147702382Y-109356373D01*
X147656209Y-109408812D01*
X147589016Y-109427964D01*
X147522135Y-109407748D01*
X147477618Y-109356373D01*
X147417096Y-109226586D01*
X147371741Y-109161811D01*
X147371740Y-109161810D01*
X146803076Y-109730474D01*
X146779493Y-109650156D01*
X146701761Y-109529202D01*
X146593100Y-109435048D01*
X146462315Y-109375320D01*
X146452534Y-109373913D01*
X147018188Y-108808259D01*
X147018187Y-108808258D01*
X146953411Y-108762901D01*
X146953405Y-108762898D01*
X146753284Y-108669580D01*
X146753270Y-108669575D01*
X146539986Y-108612426D01*
X146539976Y-108612424D01*
X146320001Y-108593179D01*
X146319999Y-108593179D01*
X146100023Y-108612424D01*
X146100013Y-108612426D01*
X145886729Y-108669575D01*
X145886720Y-108669579D01*
X145686590Y-108762901D01*
X145621811Y-108808258D01*
X146187466Y-109373913D01*
X146177685Y-109375320D01*
X146046900Y-109435048D01*
X145938239Y-109529202D01*
X145860507Y-109650156D01*
X145836923Y-109730476D01*
X145268258Y-109161811D01*
X145222901Y-109226590D01*
X145162382Y-109356373D01*
X145116209Y-109408812D01*
X145049016Y-109427964D01*
X144982135Y-109407748D01*
X144937618Y-109356373D01*
X144877096Y-109226586D01*
X144831741Y-109161811D01*
X144831740Y-109161810D01*
X144263076Y-109730474D01*
X144239493Y-109650156D01*
X144161761Y-109529202D01*
X144053100Y-109435048D01*
X143922315Y-109375320D01*
X143912534Y-109373913D01*
X144478188Y-108808259D01*
X144478187Y-108808258D01*
X144413411Y-108762901D01*
X144413405Y-108762898D01*
X144213284Y-108669580D01*
X144213270Y-108669575D01*
X143999986Y-108612426D01*
X143999976Y-108612424D01*
X143780001Y-108593179D01*
X143779999Y-108593179D01*
X143560023Y-108612424D01*
X143560013Y-108612426D01*
X143346729Y-108669575D01*
X143346720Y-108669579D01*
X143146590Y-108762901D01*
X143081811Y-108808258D01*
X143647466Y-109373913D01*
X143637685Y-109375320D01*
X143506900Y-109435048D01*
X143398239Y-109529202D01*
X143320507Y-109650156D01*
X143296923Y-109730476D01*
X142728258Y-109161811D01*
X142682901Y-109226590D01*
X142622382Y-109356373D01*
X142576209Y-109408812D01*
X142509016Y-109427964D01*
X142442135Y-109407748D01*
X142397618Y-109356373D01*
X142337096Y-109226586D01*
X142291741Y-109161811D01*
X142291740Y-109161810D01*
X141723076Y-109730474D01*
X141699493Y-109650156D01*
X141621761Y-109529202D01*
X141513100Y-109435048D01*
X141382315Y-109375320D01*
X141372534Y-109373913D01*
X141938188Y-108808259D01*
X141938187Y-108808258D01*
X141873411Y-108762901D01*
X141873405Y-108762898D01*
X141673284Y-108669580D01*
X141673270Y-108669575D01*
X141459986Y-108612426D01*
X141459976Y-108612424D01*
X141240001Y-108593179D01*
X141239999Y-108593179D01*
X141020023Y-108612424D01*
X141020013Y-108612426D01*
X140806729Y-108669575D01*
X140806720Y-108669579D01*
X140606590Y-108762901D01*
X140541811Y-108808258D01*
X141107466Y-109373913D01*
X141097685Y-109375320D01*
X140966900Y-109435048D01*
X140858239Y-109529202D01*
X140780507Y-109650156D01*
X140756923Y-109730476D01*
X140188258Y-109161811D01*
X140142901Y-109226590D01*
X140082382Y-109356373D01*
X140036209Y-109408812D01*
X139969016Y-109427964D01*
X139902135Y-109407748D01*
X139857618Y-109356373D01*
X139797096Y-109226586D01*
X139751741Y-109161811D01*
X139751740Y-109161810D01*
X139183076Y-109730474D01*
X139159493Y-109650156D01*
X139081761Y-109529202D01*
X138973100Y-109435048D01*
X138842315Y-109375320D01*
X138832534Y-109373913D01*
X139398188Y-108808259D01*
X139398187Y-108808258D01*
X139333411Y-108762901D01*
X139333405Y-108762898D01*
X139133284Y-108669580D01*
X139133270Y-108669575D01*
X138919986Y-108612426D01*
X138919976Y-108612424D01*
X138700001Y-108593179D01*
X138699999Y-108593179D01*
X138480023Y-108612424D01*
X138480013Y-108612426D01*
X138266729Y-108669575D01*
X138266720Y-108669579D01*
X138066590Y-108762901D01*
X138001811Y-108808258D01*
X138567466Y-109373913D01*
X138557685Y-109375320D01*
X138426900Y-109435048D01*
X138318239Y-109529202D01*
X138240507Y-109650156D01*
X138216923Y-109730476D01*
X137648258Y-109161811D01*
X137602901Y-109226590D01*
X137542382Y-109356373D01*
X137496209Y-109408812D01*
X137429016Y-109427964D01*
X137362135Y-109407748D01*
X137317618Y-109356373D01*
X137257096Y-109226586D01*
X137211741Y-109161811D01*
X137211740Y-109161810D01*
X136643076Y-109730474D01*
X136619493Y-109650156D01*
X136541761Y-109529202D01*
X136433100Y-109435048D01*
X136302315Y-109375320D01*
X136292534Y-109373913D01*
X136858188Y-108808259D01*
X136858187Y-108808258D01*
X136793411Y-108762901D01*
X136793405Y-108762898D01*
X136593284Y-108669580D01*
X136593270Y-108669575D01*
X136379986Y-108612426D01*
X136379976Y-108612424D01*
X136160001Y-108593179D01*
X136159999Y-108593179D01*
X135940023Y-108612424D01*
X135940013Y-108612426D01*
X135726729Y-108669575D01*
X135726720Y-108669579D01*
X135526590Y-108762901D01*
X135461811Y-108808258D01*
X136027466Y-109373913D01*
X136017685Y-109375320D01*
X135886900Y-109435048D01*
X135778239Y-109529202D01*
X135700507Y-109650156D01*
X135676923Y-109730476D01*
X135108258Y-109161811D01*
X135062901Y-109226590D01*
X135002382Y-109356373D01*
X134956209Y-109408812D01*
X134889016Y-109427964D01*
X134822135Y-109407748D01*
X134777618Y-109356373D01*
X134717096Y-109226586D01*
X134671741Y-109161811D01*
X134671740Y-109161810D01*
X134103076Y-109730474D01*
X134079493Y-109650156D01*
X134001761Y-109529202D01*
X133893100Y-109435048D01*
X133762315Y-109375320D01*
X133752534Y-109373913D01*
X134318188Y-108808259D01*
X134318187Y-108808258D01*
X134253411Y-108762901D01*
X134253405Y-108762898D01*
X134053284Y-108669580D01*
X134053270Y-108669575D01*
X133839986Y-108612426D01*
X133839976Y-108612424D01*
X133620001Y-108593179D01*
X133619999Y-108593179D01*
X133400023Y-108612424D01*
X133400013Y-108612426D01*
X133186729Y-108669575D01*
X133186720Y-108669579D01*
X132986590Y-108762901D01*
X132921811Y-108808258D01*
X133487466Y-109373913D01*
X133477685Y-109375320D01*
X133346900Y-109435048D01*
X133238239Y-109529202D01*
X133160507Y-109650156D01*
X133136923Y-109730476D01*
X132568258Y-109161811D01*
X132522901Y-109226590D01*
X132462382Y-109356373D01*
X132416209Y-109408812D01*
X132349016Y-109427964D01*
X132282135Y-109407748D01*
X132237618Y-109356373D01*
X132177096Y-109226586D01*
X132131741Y-109161811D01*
X132131740Y-109161810D01*
X131563076Y-109730474D01*
X131539493Y-109650156D01*
X131461761Y-109529202D01*
X131353100Y-109435048D01*
X131222315Y-109375320D01*
X131212534Y-109373913D01*
X131778188Y-108808259D01*
X131778187Y-108808258D01*
X131713411Y-108762901D01*
X131713405Y-108762898D01*
X131513284Y-108669580D01*
X131513270Y-108669575D01*
X131299986Y-108612426D01*
X131299976Y-108612424D01*
X131080001Y-108593179D01*
X131079999Y-108593179D01*
X130860023Y-108612424D01*
X130860013Y-108612426D01*
X130646729Y-108669575D01*
X130646720Y-108669579D01*
X130446590Y-108762901D01*
X130381811Y-108808258D01*
X130947466Y-109373913D01*
X130937685Y-109375320D01*
X130806900Y-109435048D01*
X130698239Y-109529202D01*
X130620507Y-109650156D01*
X130596923Y-109730476D01*
X130028258Y-109161811D01*
X129982901Y-109226590D01*
X129922382Y-109356373D01*
X129876209Y-109408812D01*
X129809016Y-109427964D01*
X129742135Y-109407748D01*
X129697618Y-109356373D01*
X129637096Y-109226586D01*
X129591741Y-109161811D01*
X129591740Y-109161810D01*
X129023076Y-109730474D01*
X128999493Y-109650156D01*
X128921761Y-109529202D01*
X128813100Y-109435048D01*
X128682315Y-109375320D01*
X128672534Y-109373913D01*
X129238188Y-108808259D01*
X129238187Y-108808258D01*
X129173411Y-108762901D01*
X129173405Y-108762898D01*
X128973284Y-108669580D01*
X128973270Y-108669575D01*
X128759986Y-108612426D01*
X128759976Y-108612424D01*
X128540001Y-108593179D01*
X128539999Y-108593179D01*
X128320023Y-108612424D01*
X128320013Y-108612426D01*
X128106729Y-108669575D01*
X128106720Y-108669579D01*
X127906590Y-108762901D01*
X127841811Y-108808258D01*
X128407466Y-109373913D01*
X128397685Y-109375320D01*
X128266900Y-109435048D01*
X128158239Y-109529202D01*
X128080507Y-109650156D01*
X128056923Y-109730476D01*
X127488258Y-109161811D01*
X127442901Y-109226590D01*
X127382382Y-109356373D01*
X127336209Y-109408812D01*
X127269016Y-109427964D01*
X127202135Y-109407748D01*
X127157618Y-109356373D01*
X127097096Y-109226586D01*
X127051741Y-109161811D01*
X127051740Y-109161810D01*
X126483076Y-109730474D01*
X126459493Y-109650156D01*
X126381761Y-109529202D01*
X126273100Y-109435048D01*
X126142315Y-109375320D01*
X126132534Y-109373913D01*
X126698188Y-108808259D01*
X126698187Y-108808258D01*
X126633411Y-108762901D01*
X126633405Y-108762898D01*
X126433284Y-108669580D01*
X126433270Y-108669575D01*
X126219986Y-108612426D01*
X126219976Y-108612424D01*
X126000001Y-108593179D01*
X125999999Y-108593179D01*
X125780023Y-108612424D01*
X125780013Y-108612426D01*
X125566729Y-108669575D01*
X125566720Y-108669579D01*
X125366590Y-108762901D01*
X125301811Y-108808258D01*
X125867466Y-109373913D01*
X125857685Y-109375320D01*
X125726900Y-109435048D01*
X125618239Y-109529202D01*
X125540507Y-109650156D01*
X125516923Y-109730476D01*
X124948258Y-109161811D01*
X124902901Y-109226590D01*
X124842658Y-109355781D01*
X124796485Y-109408220D01*
X124729292Y-109427372D01*
X124662411Y-109407156D01*
X124617894Y-109355781D01*
X124557651Y-109226590D01*
X124557534Y-109226339D01*
X124430826Y-109045380D01*
X124274620Y-108889174D01*
X124274616Y-108889171D01*
X124274615Y-108889170D01*
X124093666Y-108762468D01*
X124093662Y-108762466D01*
X124022434Y-108729252D01*
X123893450Y-108669106D01*
X123893447Y-108669105D01*
X123893445Y-108669104D01*
X123680070Y-108611930D01*
X123680062Y-108611929D01*
X123460002Y-108592677D01*
X123459998Y-108592677D01*
X123239937Y-108611929D01*
X123239929Y-108611930D01*
X123026554Y-108669104D01*
X123026548Y-108669107D01*
X122826340Y-108762465D01*
X122826338Y-108762466D01*
X122645377Y-108889175D01*
X122489175Y-109045377D01*
X122362466Y-109226338D01*
X122362465Y-109226340D01*
X122302382Y-109355189D01*
X122256209Y-109407628D01*
X122189016Y-109426780D01*
X122122135Y-109406564D01*
X122077618Y-109355189D01*
X122017651Y-109226590D01*
X122017534Y-109226339D01*
X121890826Y-109045380D01*
X121734620Y-108889174D01*
X121734616Y-108889171D01*
X121734615Y-108889170D01*
X121553666Y-108762468D01*
X121553662Y-108762466D01*
X121482434Y-108729252D01*
X121353450Y-108669106D01*
X121353447Y-108669105D01*
X121353445Y-108669104D01*
X121140070Y-108611930D01*
X121140062Y-108611929D01*
X120920002Y-108592677D01*
X120919998Y-108592677D01*
X120699937Y-108611929D01*
X120699929Y-108611930D01*
X120486554Y-108669104D01*
X120486550Y-108669106D01*
X120426905Y-108696919D01*
X120357827Y-108707411D01*
X120294043Y-108678891D01*
X120255804Y-108620414D01*
X120250500Y-108584537D01*
X120250500Y-107620808D01*
X120270185Y-107553769D01*
X120286819Y-107533127D01*
X121978625Y-105841321D01*
X123696087Y-104123858D01*
X123757408Y-104090375D01*
X123827100Y-104095359D01*
X123883033Y-104137231D01*
X123907450Y-104202695D01*
X123899949Y-104254872D01*
X123885908Y-104292517D01*
X123879501Y-104352116D01*
X123879501Y-104352123D01*
X123879500Y-104352135D01*
X123879500Y-106247870D01*
X123879501Y-106247876D01*
X123885908Y-106307483D01*
X123936202Y-106442328D01*
X123936206Y-106442335D01*
X124022452Y-106557544D01*
X124022455Y-106557547D01*
X124137664Y-106643793D01*
X124137671Y-106643797D01*
X124272517Y-106694091D01*
X124272516Y-106694091D01*
X124279444Y-106694835D01*
X124332127Y-106700500D01*
X126227872Y-106700499D01*
X126287483Y-106694091D01*
X126422331Y-106643796D01*
X126537546Y-106557546D01*
X126623796Y-106442331D01*
X126674091Y-106307483D01*
X126680500Y-106247873D01*
X126680500Y-105300006D01*
X131494700Y-105300006D01*
X131513864Y-105531297D01*
X131513866Y-105531308D01*
X131570842Y-105756300D01*
X131664075Y-105968848D01*
X131791016Y-106163147D01*
X131791019Y-106163151D01*
X131791021Y-106163153D01*
X131948216Y-106333913D01*
X131948219Y-106333915D01*
X131948222Y-106333918D01*
X132131365Y-106476464D01*
X132131371Y-106476468D01*
X132131374Y-106476470D01*
X132281184Y-106557543D01*
X132321185Y-106579191D01*
X132335497Y-106586936D01*
X132433979Y-106620745D01*
X132555015Y-106662297D01*
X132555017Y-106662297D01*
X132555019Y-106662298D01*
X132783951Y-106700500D01*
X132783952Y-106700500D01*
X133016048Y-106700500D01*
X133016049Y-106700500D01*
X133244981Y-106662298D01*
X133464503Y-106586936D01*
X133668626Y-106476470D01*
X133690404Y-106459520D01*
X133806868Y-106368872D01*
X133851784Y-106333913D01*
X134008979Y-106163153D01*
X134135924Y-105968849D01*
X134229157Y-105756300D01*
X134286134Y-105531305D01*
X134298191Y-105385800D01*
X134305300Y-105300006D01*
X134305300Y-105299993D01*
X134286135Y-105068702D01*
X134286133Y-105068691D01*
X134229157Y-104843699D01*
X134135924Y-104631151D01*
X134008983Y-104436852D01*
X134008980Y-104436849D01*
X134008979Y-104436847D01*
X133851784Y-104266087D01*
X133851779Y-104266083D01*
X133851777Y-104266081D01*
X133668634Y-104123535D01*
X133668628Y-104123531D01*
X133464504Y-104013064D01*
X133464495Y-104013061D01*
X133244984Y-103937702D01*
X133054450Y-103905908D01*
X133016049Y-103899500D01*
X132783951Y-103899500D01*
X132745550Y-103905908D01*
X132555015Y-103937702D01*
X132335504Y-104013061D01*
X132335495Y-104013064D01*
X132131371Y-104123531D01*
X132131365Y-104123535D01*
X131948222Y-104266081D01*
X131948219Y-104266084D01*
X131948216Y-104266086D01*
X131948216Y-104266087D01*
X131923886Y-104292517D01*
X131791016Y-104436852D01*
X131664075Y-104631151D01*
X131570842Y-104843699D01*
X131513866Y-105068691D01*
X131513864Y-105068702D01*
X131494700Y-105299993D01*
X131494700Y-105300006D01*
X126680500Y-105300006D01*
X126680499Y-104352128D01*
X126674091Y-104292517D01*
X126664233Y-104266087D01*
X126623797Y-104157671D01*
X126623793Y-104157664D01*
X126537547Y-104042455D01*
X126537544Y-104042452D01*
X126422335Y-103956206D01*
X126422328Y-103956202D01*
X126287482Y-103905908D01*
X126287483Y-103905908D01*
X126227883Y-103899501D01*
X126227881Y-103899500D01*
X126227873Y-103899500D01*
X126227864Y-103899500D01*
X124332129Y-103899500D01*
X124332123Y-103899501D01*
X124272517Y-103905908D01*
X124234872Y-103919949D01*
X124165181Y-103924932D01*
X124103858Y-103891446D01*
X124070374Y-103830122D01*
X124075360Y-103760430D01*
X124103858Y-103716087D01*
X132933127Y-94886819D01*
X132994450Y-94853334D01*
X133020808Y-94850500D01*
X145714495Y-94850500D01*
X145730505Y-94852267D01*
X145730528Y-94852026D01*
X145738289Y-94852758D01*
X145738296Y-94852760D01*
X145808262Y-94850560D01*
X145812157Y-94850500D01*
X145840925Y-94850500D01*
X145845287Y-94849948D01*
X145856939Y-94849030D01*
X145902569Y-94847597D01*
X145922956Y-94841673D01*
X145941996Y-94837731D01*
X145963058Y-94835071D01*
X146005520Y-94818258D01*
X146016557Y-94814480D01*
X146060398Y-94801744D01*
X146078665Y-94790939D01*
X146096136Y-94782380D01*
X146115871Y-94774568D01*
X146152816Y-94747725D01*
X146162558Y-94741326D01*
X146201865Y-94718081D01*
X146216870Y-94703075D01*
X146231668Y-94690436D01*
X146248837Y-94677963D01*
X146277946Y-94642774D01*
X146285790Y-94634154D01*
X149639513Y-91280431D01*
X149652079Y-91270365D01*
X149651925Y-91270178D01*
X149657933Y-91265205D01*
X149657940Y-91265202D01*
X149691415Y-91229554D01*
X149705865Y-91214167D01*
X149708578Y-91211367D01*
X149728912Y-91191034D01*
X149731607Y-91187559D01*
X149739186Y-91178682D01*
X149770448Y-91145393D01*
X149780674Y-91126789D01*
X149791347Y-91110541D01*
X149804363Y-91093763D01*
X149822491Y-91051870D01*
X149827627Y-91041382D01*
X149849627Y-91001368D01*
X149854904Y-90980808D01*
X149861206Y-90962403D01*
X149869636Y-90942926D01*
X149876779Y-90897820D01*
X149879143Y-90886405D01*
X149890500Y-90842177D01*
X149890500Y-90820955D01*
X149892027Y-90801555D01*
X149895347Y-90780595D01*
X149891050Y-90735136D01*
X149890500Y-90723467D01*
X149890500Y-88312503D01*
X149910185Y-88245464D01*
X149962989Y-88199709D01*
X150032147Y-88189765D01*
X150046593Y-88192728D01*
G37*
%TD.AperFunction*%
%TA.AperFunction,Conductor*%
G36*
X171063691Y-108570185D02*
G01*
X171109446Y-108622989D01*
X171119390Y-108692147D01*
X171090365Y-108755703D01*
X171067774Y-108776076D01*
X171021811Y-108808258D01*
X171587466Y-109373913D01*
X171577685Y-109375320D01*
X171446900Y-109435048D01*
X171338239Y-109529202D01*
X171260507Y-109650156D01*
X171236923Y-109730476D01*
X170668258Y-109161811D01*
X170622901Y-109226590D01*
X170562658Y-109355781D01*
X170516485Y-109408220D01*
X170449292Y-109427372D01*
X170382411Y-109407156D01*
X170337894Y-109355781D01*
X170277651Y-109226590D01*
X170277534Y-109226339D01*
X170150826Y-109045380D01*
X169994620Y-108889174D01*
X169994616Y-108889171D01*
X169994615Y-108889170D01*
X169833098Y-108776075D01*
X169789473Y-108721498D01*
X169782279Y-108652000D01*
X169813802Y-108589645D01*
X169874032Y-108554231D01*
X169904221Y-108550500D01*
X170996652Y-108550500D01*
X171063691Y-108570185D01*
G37*
%TD.AperFunction*%
%TA.AperFunction,Conductor*%
G36*
X142237297Y-84595185D02*
G01*
X142257939Y-84611819D01*
X143052337Y-85406217D01*
X143085822Y-85467540D01*
X143080838Y-85537232D01*
X143070000Y-85551891D01*
X143070000Y-86453505D01*
X142965161Y-86405627D01*
X142856473Y-86390000D01*
X142783527Y-86390000D01*
X142674839Y-86405627D01*
X142570000Y-86453505D01*
X142570000Y-85569364D01*
X142569999Y-85569364D01*
X142356513Y-85626567D01*
X142356507Y-85626570D01*
X142142422Y-85726399D01*
X142142420Y-85726400D01*
X141948926Y-85861886D01*
X141948920Y-85861891D01*
X141781891Y-86028920D01*
X141781890Y-86028922D01*
X141651880Y-86214595D01*
X141597303Y-86258219D01*
X141527804Y-86265412D01*
X141465450Y-86233890D01*
X141448730Y-86214594D01*
X141318494Y-86028597D01*
X141151402Y-85861506D01*
X141151395Y-85861501D01*
X140957834Y-85725967D01*
X140957830Y-85725965D01*
X140927091Y-85711631D01*
X140743663Y-85626097D01*
X140743659Y-85626096D01*
X140743655Y-85626094D01*
X140515413Y-85564938D01*
X140515403Y-85564936D01*
X140280001Y-85544341D01*
X140279999Y-85544341D01*
X140044591Y-85564937D01*
X139888357Y-85606798D01*
X139818507Y-85605135D01*
X139768584Y-85574704D01*
X138981061Y-84787181D01*
X138947576Y-84725858D01*
X138952560Y-84656166D01*
X138994432Y-84600233D01*
X139059896Y-84575816D01*
X139068742Y-84575500D01*
X142170258Y-84575500D01*
X142237297Y-84595185D01*
G37*
%TD.AperFunction*%
%TA.AperFunction,Conductor*%
G36*
X158310000Y-70450634D02*
G01*
X158523483Y-70393433D01*
X158523492Y-70393429D01*
X158737578Y-70293600D01*
X158931078Y-70158108D01*
X159053133Y-70036053D01*
X159114456Y-70002568D01*
X159184148Y-70007552D01*
X159240082Y-70049423D01*
X159256997Y-70080401D01*
X159306202Y-70212328D01*
X159306206Y-70212335D01*
X159392452Y-70327544D01*
X159392455Y-70327547D01*
X159507664Y-70413793D01*
X159507671Y-70413797D01*
X159642517Y-70464091D01*
X159642516Y-70464091D01*
X159649444Y-70464835D01*
X159702127Y-70470500D01*
X161497872Y-70470499D01*
X161557483Y-70464091D01*
X161692331Y-70413796D01*
X161807546Y-70327546D01*
X161893796Y-70212331D01*
X161942810Y-70080916D01*
X161984681Y-70024984D01*
X162050145Y-70000566D01*
X162118418Y-70015417D01*
X162146673Y-70036569D01*
X162268599Y-70158495D01*
X162365384Y-70226265D01*
X162462165Y-70294032D01*
X162462167Y-70294033D01*
X162462170Y-70294035D01*
X162676337Y-70393903D01*
X162904592Y-70455063D01*
X163081034Y-70470500D01*
X163139999Y-70475659D01*
X163140000Y-70475659D01*
X163140001Y-70475659D01*
X163198966Y-70470500D01*
X163375408Y-70455063D01*
X163603663Y-70393903D01*
X163817830Y-70294035D01*
X164011401Y-70158495D01*
X164178495Y-69991401D01*
X164308426Y-69805841D01*
X164363002Y-69762217D01*
X164432500Y-69755023D01*
X164494855Y-69786546D01*
X164511575Y-69805842D01*
X164641500Y-69991395D01*
X164641505Y-69991401D01*
X164808599Y-70158495D01*
X164905384Y-70226265D01*
X165002165Y-70294032D01*
X165002167Y-70294033D01*
X165002170Y-70294035D01*
X165216337Y-70393903D01*
X165444592Y-70455063D01*
X165621034Y-70470500D01*
X165679999Y-70475659D01*
X165680000Y-70475659D01*
X165680001Y-70475659D01*
X165738966Y-70470500D01*
X165915408Y-70455063D01*
X166143663Y-70393903D01*
X166357830Y-70294035D01*
X166551401Y-70158495D01*
X166718495Y-69991401D01*
X166848426Y-69805841D01*
X166903002Y-69762217D01*
X166972500Y-69755023D01*
X167034855Y-69786546D01*
X167051575Y-69805842D01*
X167181500Y-69991395D01*
X167181505Y-69991401D01*
X167348599Y-70158495D01*
X167445384Y-70226265D01*
X167542165Y-70294032D01*
X167542167Y-70294033D01*
X167542170Y-70294035D01*
X167756337Y-70393903D01*
X167984592Y-70455063D01*
X168161034Y-70470500D01*
X168219999Y-70475659D01*
X168220000Y-70475659D01*
X168220001Y-70475659D01*
X168278966Y-70470500D01*
X168455408Y-70455063D01*
X168683663Y-70393903D01*
X168897830Y-70294035D01*
X169091401Y-70158495D01*
X169258495Y-69991401D01*
X169388426Y-69805841D01*
X169443002Y-69762217D01*
X169512500Y-69755023D01*
X169574855Y-69786546D01*
X169591575Y-69805842D01*
X169721500Y-69991395D01*
X169721505Y-69991401D01*
X169888599Y-70158495D01*
X169985384Y-70226265D01*
X170082165Y-70294032D01*
X170082167Y-70294033D01*
X170082170Y-70294035D01*
X170296337Y-70393903D01*
X170524592Y-70455063D01*
X170701034Y-70470500D01*
X170759999Y-70475659D01*
X170760000Y-70475659D01*
X170760001Y-70475659D01*
X170818966Y-70470500D01*
X170995408Y-70455063D01*
X171123757Y-70420672D01*
X171193606Y-70422335D01*
X171243531Y-70452766D01*
X171273181Y-70482416D01*
X171306666Y-70543739D01*
X171309500Y-70570097D01*
X171309500Y-85487496D01*
X171289815Y-85554535D01*
X171237011Y-85600290D01*
X171167853Y-85610234D01*
X171153408Y-85607271D01*
X170995416Y-85564939D01*
X170995412Y-85564938D01*
X170995408Y-85564937D01*
X170995406Y-85564936D01*
X170995403Y-85564936D01*
X170760001Y-85544341D01*
X170759999Y-85544341D01*
X170524596Y-85564936D01*
X170524586Y-85564938D01*
X170296344Y-85626094D01*
X170296335Y-85626098D01*
X170082171Y-85725964D01*
X170082169Y-85725965D01*
X169888597Y-85861505D01*
X169721505Y-86028597D01*
X169591575Y-86214158D01*
X169536998Y-86257783D01*
X169467500Y-86264977D01*
X169405145Y-86233454D01*
X169388425Y-86214158D01*
X169258494Y-86028597D01*
X169091402Y-85861506D01*
X169091395Y-85861501D01*
X168897834Y-85725967D01*
X168897830Y-85725965D01*
X168867091Y-85711631D01*
X168683663Y-85626097D01*
X168683659Y-85626096D01*
X168683655Y-85626094D01*
X168455413Y-85564938D01*
X168455403Y-85564936D01*
X168220001Y-85544341D01*
X168219999Y-85544341D01*
X167984596Y-85564936D01*
X167984586Y-85564938D01*
X167756344Y-85626094D01*
X167756335Y-85626098D01*
X167542171Y-85725964D01*
X167542169Y-85725965D01*
X167348597Y-85861505D01*
X167181508Y-86028594D01*
X167051269Y-86214595D01*
X166996692Y-86258219D01*
X166927193Y-86265412D01*
X166864839Y-86233890D01*
X166848119Y-86214594D01*
X166718113Y-86028926D01*
X166718108Y-86028920D01*
X166551082Y-85861894D01*
X166357578Y-85726399D01*
X166143492Y-85626570D01*
X166143486Y-85626567D01*
X165930000Y-85569364D01*
X165930000Y-86453505D01*
X165825161Y-86405627D01*
X165716473Y-86390000D01*
X165643527Y-86390000D01*
X165534839Y-86405627D01*
X165430000Y-86453505D01*
X165430000Y-85569364D01*
X165429999Y-85569364D01*
X165216513Y-85626567D01*
X165216507Y-85626570D01*
X165002422Y-85726399D01*
X165002420Y-85726400D01*
X164808926Y-85861886D01*
X164808920Y-85861891D01*
X164641891Y-86028920D01*
X164641890Y-86028922D01*
X164511880Y-86214595D01*
X164457303Y-86258219D01*
X164387804Y-86265412D01*
X164325450Y-86233890D01*
X164308730Y-86214594D01*
X164178494Y-86028597D01*
X164011402Y-85861506D01*
X164011395Y-85861501D01*
X163817834Y-85725967D01*
X163817830Y-85725965D01*
X163787091Y-85711631D01*
X163603663Y-85626097D01*
X163603659Y-85626096D01*
X163603655Y-85626094D01*
X163375413Y-85564938D01*
X163375403Y-85564936D01*
X163140001Y-85544341D01*
X163139999Y-85544341D01*
X162904596Y-85564936D01*
X162904586Y-85564938D01*
X162676344Y-85626094D01*
X162676335Y-85626098D01*
X162626903Y-85649148D01*
X162557826Y-85659639D01*
X162494042Y-85631118D01*
X162455803Y-85572641D01*
X162450500Y-85536765D01*
X162450500Y-79985501D01*
X162452268Y-79969488D01*
X162452026Y-79969466D01*
X162452758Y-79961710D01*
X162452760Y-79961703D01*
X162450560Y-79891696D01*
X162450500Y-79887841D01*
X162450500Y-79859077D01*
X162450499Y-79859070D01*
X162449949Y-79854716D01*
X162449030Y-79843054D01*
X162448822Y-79836427D01*
X162447597Y-79797431D01*
X162441676Y-79777053D01*
X162437731Y-79758004D01*
X162435071Y-79736942D01*
X162418264Y-79694492D01*
X162414483Y-79683448D01*
X162402273Y-79641423D01*
X162401744Y-79639601D01*
X162390939Y-79621332D01*
X162382379Y-79603858D01*
X162378260Y-79593454D01*
X162374568Y-79584129D01*
X162347737Y-79547199D01*
X162341323Y-79537435D01*
X162324010Y-79508161D01*
X162318081Y-79498135D01*
X162303075Y-79483129D01*
X162290435Y-79468330D01*
X162277961Y-79451160D01*
X162242780Y-79422056D01*
X162234140Y-79414194D01*
X156206819Y-73386873D01*
X156173334Y-73325550D01*
X156170500Y-73299192D01*
X156170500Y-70377722D01*
X156190185Y-70310683D01*
X156223377Y-70276147D01*
X156274429Y-70240399D01*
X156391401Y-70158495D01*
X156558495Y-69991401D01*
X156688730Y-69805405D01*
X156743307Y-69761781D01*
X156812805Y-69754587D01*
X156875160Y-69786110D01*
X156891879Y-69805405D01*
X157021890Y-69991078D01*
X157188917Y-70158105D01*
X157382421Y-70293600D01*
X157596507Y-70393429D01*
X157596516Y-70393433D01*
X157810000Y-70450634D01*
X157810000Y-69566494D01*
X157914839Y-69614373D01*
X158023527Y-69630000D01*
X158096473Y-69630000D01*
X158205161Y-69614373D01*
X158310000Y-69566494D01*
X158310000Y-70450634D01*
G37*
%TD.AperFunction*%
%TA.AperFunction,Conductor*%
G36*
X120210000Y-82364498D02*
G01*
X120102315Y-82315320D01*
X119995763Y-82300000D01*
X119924237Y-82300000D01*
X119817685Y-82315320D01*
X119710000Y-82364498D01*
X119710000Y-80695501D01*
X119817685Y-80744680D01*
X119924237Y-80760000D01*
X119995763Y-80760000D01*
X120102315Y-80744680D01*
X120210000Y-80695501D01*
X120210000Y-82364498D01*
G37*
%TD.AperFunction*%
%TD*%
M02*
