%TF.GenerationSoftware,KiCad,Pcbnew,7.0.11-7.0.11~ubuntu22.04.1*%
%TF.CreationDate,2024-07-10T21:13:57-03:00*%
%TF.ProjectId,GG_LCD_DIY,47475f4c-4344-45f4-9449-592e6b696361,rev?*%
%TF.SameCoordinates,Original*%
%TF.FileFunction,Legend,Top*%
%TF.FilePolarity,Positive*%
%FSLAX46Y46*%
G04 Gerber Fmt 4.6, Leading zero omitted, Abs format (unit mm)*
G04 Created by KiCad (PCBNEW 7.0.11-7.0.11~ubuntu22.04.1) date 2024-07-10 21:13:57*
%MOMM*%
%LPD*%
G01*
G04 APERTURE LIST*
G04 Aperture macros list*
%AMRoundRect*
0 Rectangle with rounded corners*
0 $1 Rounding radius*
0 $2 $3 $4 $5 $6 $7 $8 $9 X,Y pos of 4 corners*
0 Add a 4 corners polygon primitive as box body*
4,1,4,$2,$3,$4,$5,$6,$7,$8,$9,$2,$3,0*
0 Add four circle primitives for the rounded corners*
1,1,$1+$1,$2,$3*
1,1,$1+$1,$4,$5*
1,1,$1+$1,$6,$7*
1,1,$1+$1,$8,$9*
0 Add four rect primitives between the rounded corners*
20,1,$1+$1,$2,$3,$4,$5,0*
20,1,$1+$1,$4,$5,$6,$7,0*
20,1,$1+$1,$6,$7,$8,$9,0*
20,1,$1+$1,$8,$9,$2,$3,0*%
%AMFreePoly0*
4,1,19,0.500000,-0.750000,0.000000,-0.750000,0.000000,-0.744911,-0.071157,-0.744911,-0.207708,-0.704816,-0.327430,-0.627875,-0.420627,-0.520320,-0.479746,-0.390866,-0.500000,-0.250000,-0.500000,0.250000,-0.479746,0.390866,-0.420627,0.520320,-0.327430,0.627875,-0.207708,0.704816,-0.071157,0.744911,0.000000,0.744911,0.000000,0.750000,0.500000,0.750000,0.500000,-0.750000,0.500000,-0.750000,
$1*%
%AMFreePoly1*
4,1,19,0.000000,0.744911,0.071157,0.744911,0.207708,0.704816,0.327430,0.627875,0.420627,0.520320,0.479746,0.390866,0.500000,0.250000,0.500000,-0.250000,0.479746,-0.390866,0.420627,-0.520320,0.327430,-0.627875,0.207708,-0.704816,0.071157,-0.744911,0.000000,-0.744911,0.000000,-0.750000,-0.500000,-0.750000,-0.500000,0.750000,0.000000,0.750000,0.000000,0.744911,0.000000,0.744911,
$1*%
G04 Aperture macros list end*
%ADD10C,0.150000*%
%ADD11C,0.125000*%
%ADD12C,0.100000*%
%ADD13C,0.120000*%
%ADD14O,1.800000X1.800000*%
%ADD15O,1.500000X1.500000*%
%ADD16O,1.700000X1.700000*%
%ADD17R,1.700000X3.500000*%
%ADD18R,1.700000X1.700000*%
%ADD19R,3.500000X1.700000*%
%ADD20RoundRect,0.875000X2.125000X0.875000X-2.125000X0.875000X-2.125000X-0.875000X2.125000X-0.875000X0*%
%ADD21R,2.000000X2.000000*%
%ADD22C,1.400000*%
%ADD23O,1.400000X1.400000*%
%ADD24C,1.524000*%
%ADD25R,1.800000X1.800000*%
%ADD26FreePoly0,0.000000*%
%ADD27FreePoly1,0.000000*%
%ADD28RoundRect,0.225000X-0.225000X-0.375000X0.225000X-0.375000X0.225000X0.375000X-0.225000X0.375000X0*%
%ADD29R,1.300000X1.300000*%
%ADD30C,1.300000*%
G04 APERTURE END LIST*
D10*
X166736779Y-103388866D02*
X167498684Y-103388866D01*
X167117731Y-103769819D02*
X167117731Y-103007914D01*
X168451064Y-102769819D02*
X167974874Y-102769819D01*
X167974874Y-102769819D02*
X167927255Y-103246009D01*
X167927255Y-103246009D02*
X167974874Y-103198390D01*
X167974874Y-103198390D02*
X168070112Y-103150771D01*
X168070112Y-103150771D02*
X168308207Y-103150771D01*
X168308207Y-103150771D02*
X168403445Y-103198390D01*
X168403445Y-103198390D02*
X168451064Y-103246009D01*
X168451064Y-103246009D02*
X168498683Y-103341247D01*
X168498683Y-103341247D02*
X168498683Y-103579342D01*
X168498683Y-103579342D02*
X168451064Y-103674580D01*
X168451064Y-103674580D02*
X168403445Y-103722200D01*
X168403445Y-103722200D02*
X168308207Y-103769819D01*
X168308207Y-103769819D02*
X168070112Y-103769819D01*
X168070112Y-103769819D02*
X167974874Y-103722200D01*
X167974874Y-103722200D02*
X167927255Y-103674580D01*
X168784398Y-102769819D02*
X169117731Y-103769819D01*
X169117731Y-103769819D02*
X169451064Y-102769819D01*
D11*
X124770833Y-83487287D02*
X124770833Y-82877764D01*
X125075595Y-83182525D02*
X124466071Y-83182525D01*
X124275595Y-82573002D02*
X124275595Y-82077764D01*
X124275595Y-82077764D02*
X124580357Y-82344430D01*
X124580357Y-82344430D02*
X124580357Y-82230145D01*
X124580357Y-82230145D02*
X124618452Y-82153954D01*
X124618452Y-82153954D02*
X124656547Y-82115859D01*
X124656547Y-82115859D02*
X124732738Y-82077764D01*
X124732738Y-82077764D02*
X124923214Y-82077764D01*
X124923214Y-82077764D02*
X124999404Y-82115859D01*
X124999404Y-82115859D02*
X125037500Y-82153954D01*
X125037500Y-82153954D02*
X125075595Y-82230145D01*
X125075595Y-82230145D02*
X125075595Y-82458716D01*
X125075595Y-82458716D02*
X125037500Y-82534907D01*
X125037500Y-82534907D02*
X124999404Y-82573002D01*
X124275595Y-81849192D02*
X125075595Y-81582525D01*
X125075595Y-81582525D02*
X124275595Y-81315859D01*
D10*
X145536779Y-103588866D02*
X146298684Y-103588866D01*
X145917731Y-103969819D02*
X145917731Y-103207914D01*
X147298683Y-103969819D02*
X146727255Y-103969819D01*
X147012969Y-103969819D02*
X147012969Y-102969819D01*
X147012969Y-102969819D02*
X146917731Y-103112676D01*
X146917731Y-103112676D02*
X146822493Y-103207914D01*
X146822493Y-103207914D02*
X146727255Y-103255533D01*
X147774874Y-103969819D02*
X147965350Y-103969819D01*
X147965350Y-103969819D02*
X148060588Y-103922200D01*
X148060588Y-103922200D02*
X148108207Y-103874580D01*
X148108207Y-103874580D02*
X148203445Y-103731723D01*
X148203445Y-103731723D02*
X148251064Y-103541247D01*
X148251064Y-103541247D02*
X148251064Y-103160295D01*
X148251064Y-103160295D02*
X148203445Y-103065057D01*
X148203445Y-103065057D02*
X148155826Y-103017438D01*
X148155826Y-103017438D02*
X148060588Y-102969819D01*
X148060588Y-102969819D02*
X147870112Y-102969819D01*
X147870112Y-102969819D02*
X147774874Y-103017438D01*
X147774874Y-103017438D02*
X147727255Y-103065057D01*
X147727255Y-103065057D02*
X147679636Y-103160295D01*
X147679636Y-103160295D02*
X147679636Y-103398390D01*
X147679636Y-103398390D02*
X147727255Y-103493628D01*
X147727255Y-103493628D02*
X147774874Y-103541247D01*
X147774874Y-103541247D02*
X147870112Y-103588866D01*
X147870112Y-103588866D02*
X148060588Y-103588866D01*
X148060588Y-103588866D02*
X148155826Y-103541247D01*
X148155826Y-103541247D02*
X148203445Y-103493628D01*
X148203445Y-103493628D02*
X148251064Y-103398390D01*
X148679636Y-103588866D02*
X149441541Y-103588866D01*
X149870112Y-103065057D02*
X149917731Y-103017438D01*
X149917731Y-103017438D02*
X150012969Y-102969819D01*
X150012969Y-102969819D02*
X150251064Y-102969819D01*
X150251064Y-102969819D02*
X150346302Y-103017438D01*
X150346302Y-103017438D02*
X150393921Y-103065057D01*
X150393921Y-103065057D02*
X150441540Y-103160295D01*
X150441540Y-103160295D02*
X150441540Y-103255533D01*
X150441540Y-103255533D02*
X150393921Y-103398390D01*
X150393921Y-103398390D02*
X149822493Y-103969819D01*
X149822493Y-103969819D02*
X150441540Y-103969819D01*
X151393921Y-103969819D02*
X150822493Y-103969819D01*
X151108207Y-103969819D02*
X151108207Y-102969819D01*
X151108207Y-102969819D02*
X151012969Y-103112676D01*
X151012969Y-103112676D02*
X150917731Y-103207914D01*
X150917731Y-103207914D02*
X150822493Y-103255533D01*
X151679636Y-102969819D02*
X152012969Y-103969819D01*
X152012969Y-103969819D02*
X152346302Y-102969819D01*
D11*
X108852712Y-85595595D02*
X108852712Y-84795595D01*
X108852712Y-84795595D02*
X109043188Y-84795595D01*
X109043188Y-84795595D02*
X109157474Y-84833690D01*
X109157474Y-84833690D02*
X109233664Y-84909880D01*
X109233664Y-84909880D02*
X109271759Y-84986071D01*
X109271759Y-84986071D02*
X109309855Y-85138452D01*
X109309855Y-85138452D02*
X109309855Y-85252738D01*
X109309855Y-85252738D02*
X109271759Y-85405119D01*
X109271759Y-85405119D02*
X109233664Y-85481309D01*
X109233664Y-85481309D02*
X109157474Y-85557500D01*
X109157474Y-85557500D02*
X109043188Y-85595595D01*
X109043188Y-85595595D02*
X108852712Y-85595595D01*
X109614616Y-84871785D02*
X109652712Y-84833690D01*
X109652712Y-84833690D02*
X109728902Y-84795595D01*
X109728902Y-84795595D02*
X109919378Y-84795595D01*
X109919378Y-84795595D02*
X109995569Y-84833690D01*
X109995569Y-84833690D02*
X110033664Y-84871785D01*
X110033664Y-84871785D02*
X110071759Y-84947976D01*
X110071759Y-84947976D02*
X110071759Y-85024166D01*
X110071759Y-85024166D02*
X110033664Y-85138452D01*
X110033664Y-85138452D02*
X109576521Y-85595595D01*
X109576521Y-85595595D02*
X110071759Y-85595595D01*
D10*
X118432017Y-99760961D02*
X118432017Y-100294295D01*
X118089160Y-99760961D02*
X118089160Y-100180009D01*
X118089160Y-100180009D02*
X118127255Y-100256200D01*
X118127255Y-100256200D02*
X118203445Y-100294295D01*
X118203445Y-100294295D02*
X118317731Y-100294295D01*
X118317731Y-100294295D02*
X118393922Y-100256200D01*
X118393922Y-100256200D02*
X118432017Y-100218104D01*
X118774874Y-100256200D02*
X118851065Y-100294295D01*
X118851065Y-100294295D02*
X119003446Y-100294295D01*
X119003446Y-100294295D02*
X119079636Y-100256200D01*
X119079636Y-100256200D02*
X119117732Y-100180009D01*
X119117732Y-100180009D02*
X119117732Y-100141914D01*
X119117732Y-100141914D02*
X119079636Y-100065723D01*
X119079636Y-100065723D02*
X119003446Y-100027628D01*
X119003446Y-100027628D02*
X118889160Y-100027628D01*
X118889160Y-100027628D02*
X118812970Y-99989533D01*
X118812970Y-99989533D02*
X118774874Y-99913342D01*
X118774874Y-99913342D02*
X118774874Y-99875247D01*
X118774874Y-99875247D02*
X118812970Y-99799057D01*
X118812970Y-99799057D02*
X118889160Y-99760961D01*
X118889160Y-99760961D02*
X119003446Y-99760961D01*
X119003446Y-99760961D02*
X119079636Y-99799057D01*
X119460589Y-100294295D02*
X119460589Y-99760961D01*
X119460589Y-99494295D02*
X119422493Y-99532390D01*
X119422493Y-99532390D02*
X119460589Y-99570485D01*
X119460589Y-99570485D02*
X119498684Y-99532390D01*
X119498684Y-99532390D02*
X119460589Y-99494295D01*
X119460589Y-99494295D02*
X119460589Y-99570485D01*
X119841541Y-99760961D02*
X119841541Y-100294295D01*
X119841541Y-99837152D02*
X119879636Y-99799057D01*
X119879636Y-99799057D02*
X119955826Y-99760961D01*
X119955826Y-99760961D02*
X120070112Y-99760961D01*
X120070112Y-99760961D02*
X120146303Y-99799057D01*
X120146303Y-99799057D02*
X120184398Y-99875247D01*
X120184398Y-99875247D02*
X120184398Y-100294295D01*
X120908208Y-99760961D02*
X120908208Y-100408580D01*
X120908208Y-100408580D02*
X120870113Y-100484771D01*
X120870113Y-100484771D02*
X120832017Y-100522866D01*
X120832017Y-100522866D02*
X120755827Y-100560961D01*
X120755827Y-100560961D02*
X120641541Y-100560961D01*
X120641541Y-100560961D02*
X120565351Y-100522866D01*
X120908208Y-100256200D02*
X120832017Y-100294295D01*
X120832017Y-100294295D02*
X120679636Y-100294295D01*
X120679636Y-100294295D02*
X120603446Y-100256200D01*
X120603446Y-100256200D02*
X120565351Y-100218104D01*
X120565351Y-100218104D02*
X120527255Y-100141914D01*
X120527255Y-100141914D02*
X120527255Y-99913342D01*
X120527255Y-99913342D02*
X120565351Y-99837152D01*
X120565351Y-99837152D02*
X120603446Y-99799057D01*
X120603446Y-99799057D02*
X120679636Y-99760961D01*
X120679636Y-99760961D02*
X120832017Y-99760961D01*
X120832017Y-99760961D02*
X120908208Y-99799057D01*
X121898685Y-100294295D02*
X121898685Y-99494295D01*
X121898685Y-99799057D02*
X121974875Y-99760961D01*
X121974875Y-99760961D02*
X122127256Y-99760961D01*
X122127256Y-99760961D02*
X122203447Y-99799057D01*
X122203447Y-99799057D02*
X122241542Y-99837152D01*
X122241542Y-99837152D02*
X122279637Y-99913342D01*
X122279637Y-99913342D02*
X122279637Y-100141914D01*
X122279637Y-100141914D02*
X122241542Y-100218104D01*
X122241542Y-100218104D02*
X122203447Y-100256200D01*
X122203447Y-100256200D02*
X122127256Y-100294295D01*
X122127256Y-100294295D02*
X121974875Y-100294295D01*
X121974875Y-100294295D02*
X121898685Y-100256200D01*
X122622495Y-100294295D02*
X122622495Y-99760961D01*
X122622495Y-99913342D02*
X122660590Y-99837152D01*
X122660590Y-99837152D02*
X122698685Y-99799057D01*
X122698685Y-99799057D02*
X122774876Y-99760961D01*
X122774876Y-99760961D02*
X122851066Y-99760961D01*
X123117733Y-100294295D02*
X123117733Y-99760961D01*
X123117733Y-99494295D02*
X123079637Y-99532390D01*
X123079637Y-99532390D02*
X123117733Y-99570485D01*
X123117733Y-99570485D02*
X123155828Y-99532390D01*
X123155828Y-99532390D02*
X123117733Y-99494295D01*
X123117733Y-99494295D02*
X123117733Y-99570485D01*
X123841542Y-99760961D02*
X123841542Y-100408580D01*
X123841542Y-100408580D02*
X123803447Y-100484771D01*
X123803447Y-100484771D02*
X123765351Y-100522866D01*
X123765351Y-100522866D02*
X123689161Y-100560961D01*
X123689161Y-100560961D02*
X123574875Y-100560961D01*
X123574875Y-100560961D02*
X123498685Y-100522866D01*
X123841542Y-100256200D02*
X123765351Y-100294295D01*
X123765351Y-100294295D02*
X123612970Y-100294295D01*
X123612970Y-100294295D02*
X123536780Y-100256200D01*
X123536780Y-100256200D02*
X123498685Y-100218104D01*
X123498685Y-100218104D02*
X123460589Y-100141914D01*
X123460589Y-100141914D02*
X123460589Y-99913342D01*
X123460589Y-99913342D02*
X123498685Y-99837152D01*
X123498685Y-99837152D02*
X123536780Y-99799057D01*
X123536780Y-99799057D02*
X123612970Y-99760961D01*
X123612970Y-99760961D02*
X123765351Y-99760961D01*
X123765351Y-99760961D02*
X123841542Y-99799057D01*
X124222495Y-100294295D02*
X124222495Y-99494295D01*
X124565352Y-100294295D02*
X124565352Y-99875247D01*
X124565352Y-99875247D02*
X124527257Y-99799057D01*
X124527257Y-99799057D02*
X124451066Y-99760961D01*
X124451066Y-99760961D02*
X124336780Y-99760961D01*
X124336780Y-99760961D02*
X124260590Y-99799057D01*
X124260590Y-99799057D02*
X124222495Y-99837152D01*
X124832019Y-99760961D02*
X125136781Y-99760961D01*
X124946305Y-99494295D02*
X124946305Y-100180009D01*
X124946305Y-100180009D02*
X124984400Y-100256200D01*
X124984400Y-100256200D02*
X125060590Y-100294295D01*
X125060590Y-100294295D02*
X125136781Y-100294295D01*
X125403448Y-99760961D02*
X125403448Y-100294295D01*
X125403448Y-99837152D02*
X125441543Y-99799057D01*
X125441543Y-99799057D02*
X125517733Y-99760961D01*
X125517733Y-99760961D02*
X125632019Y-99760961D01*
X125632019Y-99760961D02*
X125708210Y-99799057D01*
X125708210Y-99799057D02*
X125746305Y-99875247D01*
X125746305Y-99875247D02*
X125746305Y-100294295D01*
X126432020Y-100256200D02*
X126355829Y-100294295D01*
X126355829Y-100294295D02*
X126203448Y-100294295D01*
X126203448Y-100294295D02*
X126127258Y-100256200D01*
X126127258Y-100256200D02*
X126089162Y-100180009D01*
X126089162Y-100180009D02*
X126089162Y-99875247D01*
X126089162Y-99875247D02*
X126127258Y-99799057D01*
X126127258Y-99799057D02*
X126203448Y-99760961D01*
X126203448Y-99760961D02*
X126355829Y-99760961D01*
X126355829Y-99760961D02*
X126432020Y-99799057D01*
X126432020Y-99799057D02*
X126470115Y-99875247D01*
X126470115Y-99875247D02*
X126470115Y-99951438D01*
X126470115Y-99951438D02*
X126089162Y-100027628D01*
X126774876Y-100256200D02*
X126851067Y-100294295D01*
X126851067Y-100294295D02*
X127003448Y-100294295D01*
X127003448Y-100294295D02*
X127079638Y-100256200D01*
X127079638Y-100256200D02*
X127117734Y-100180009D01*
X127117734Y-100180009D02*
X127117734Y-100141914D01*
X127117734Y-100141914D02*
X127079638Y-100065723D01*
X127079638Y-100065723D02*
X127003448Y-100027628D01*
X127003448Y-100027628D02*
X126889162Y-100027628D01*
X126889162Y-100027628D02*
X126812972Y-99989533D01*
X126812972Y-99989533D02*
X126774876Y-99913342D01*
X126774876Y-99913342D02*
X126774876Y-99875247D01*
X126774876Y-99875247D02*
X126812972Y-99799057D01*
X126812972Y-99799057D02*
X126889162Y-99760961D01*
X126889162Y-99760961D02*
X127003448Y-99760961D01*
X127003448Y-99760961D02*
X127079638Y-99799057D01*
X127422495Y-100256200D02*
X127498686Y-100294295D01*
X127498686Y-100294295D02*
X127651067Y-100294295D01*
X127651067Y-100294295D02*
X127727257Y-100256200D01*
X127727257Y-100256200D02*
X127765353Y-100180009D01*
X127765353Y-100180009D02*
X127765353Y-100141914D01*
X127765353Y-100141914D02*
X127727257Y-100065723D01*
X127727257Y-100065723D02*
X127651067Y-100027628D01*
X127651067Y-100027628D02*
X127536781Y-100027628D01*
X127536781Y-100027628D02*
X127460591Y-99989533D01*
X127460591Y-99989533D02*
X127422495Y-99913342D01*
X127422495Y-99913342D02*
X127422495Y-99875247D01*
X127422495Y-99875247D02*
X127460591Y-99799057D01*
X127460591Y-99799057D02*
X127536781Y-99760961D01*
X127536781Y-99760961D02*
X127651067Y-99760961D01*
X127651067Y-99760961D02*
X127727257Y-99799057D01*
X128717734Y-99760961D02*
X128717734Y-100560961D01*
X128717734Y-99799057D02*
X128793924Y-99760961D01*
X128793924Y-99760961D02*
X128946305Y-99760961D01*
X128946305Y-99760961D02*
X129022496Y-99799057D01*
X129022496Y-99799057D02*
X129060591Y-99837152D01*
X129060591Y-99837152D02*
X129098686Y-99913342D01*
X129098686Y-99913342D02*
X129098686Y-100141914D01*
X129098686Y-100141914D02*
X129060591Y-100218104D01*
X129060591Y-100218104D02*
X129022496Y-100256200D01*
X129022496Y-100256200D02*
X128946305Y-100294295D01*
X128946305Y-100294295D02*
X128793924Y-100294295D01*
X128793924Y-100294295D02*
X128717734Y-100256200D01*
X129555829Y-100294295D02*
X129479639Y-100256200D01*
X129479639Y-100256200D02*
X129441544Y-100218104D01*
X129441544Y-100218104D02*
X129403448Y-100141914D01*
X129403448Y-100141914D02*
X129403448Y-99913342D01*
X129403448Y-99913342D02*
X129441544Y-99837152D01*
X129441544Y-99837152D02*
X129479639Y-99799057D01*
X129479639Y-99799057D02*
X129555829Y-99760961D01*
X129555829Y-99760961D02*
X129670115Y-99760961D01*
X129670115Y-99760961D02*
X129746306Y-99799057D01*
X129746306Y-99799057D02*
X129784401Y-99837152D01*
X129784401Y-99837152D02*
X129822496Y-99913342D01*
X129822496Y-99913342D02*
X129822496Y-100141914D01*
X129822496Y-100141914D02*
X129784401Y-100218104D01*
X129784401Y-100218104D02*
X129746306Y-100256200D01*
X129746306Y-100256200D02*
X129670115Y-100294295D01*
X129670115Y-100294295D02*
X129555829Y-100294295D01*
X130051068Y-99760961D02*
X130355830Y-99760961D01*
X130165354Y-99494295D02*
X130165354Y-100180009D01*
X130165354Y-100180009D02*
X130203449Y-100256200D01*
X130203449Y-100256200D02*
X130279639Y-100294295D01*
X130279639Y-100294295D02*
X130355830Y-100294295D01*
D11*
X114252712Y-85555595D02*
X114252712Y-84755595D01*
X114252712Y-84755595D02*
X114443188Y-84755595D01*
X114443188Y-84755595D02*
X114557474Y-84793690D01*
X114557474Y-84793690D02*
X114633664Y-84869880D01*
X114633664Y-84869880D02*
X114671759Y-84946071D01*
X114671759Y-84946071D02*
X114709855Y-85098452D01*
X114709855Y-85098452D02*
X114709855Y-85212738D01*
X114709855Y-85212738D02*
X114671759Y-85365119D01*
X114671759Y-85365119D02*
X114633664Y-85441309D01*
X114633664Y-85441309D02*
X114557474Y-85517500D01*
X114557474Y-85517500D02*
X114443188Y-85555595D01*
X114443188Y-85555595D02*
X114252712Y-85555595D01*
X115205093Y-84755595D02*
X115281283Y-84755595D01*
X115281283Y-84755595D02*
X115357474Y-84793690D01*
X115357474Y-84793690D02*
X115395569Y-84831785D01*
X115395569Y-84831785D02*
X115433664Y-84907976D01*
X115433664Y-84907976D02*
X115471759Y-85060357D01*
X115471759Y-85060357D02*
X115471759Y-85250833D01*
X115471759Y-85250833D02*
X115433664Y-85403214D01*
X115433664Y-85403214D02*
X115395569Y-85479404D01*
X115395569Y-85479404D02*
X115357474Y-85517500D01*
X115357474Y-85517500D02*
X115281283Y-85555595D01*
X115281283Y-85555595D02*
X115205093Y-85555595D01*
X115205093Y-85555595D02*
X115128902Y-85517500D01*
X115128902Y-85517500D02*
X115090807Y-85479404D01*
X115090807Y-85479404D02*
X115052712Y-85403214D01*
X115052712Y-85403214D02*
X115014616Y-85250833D01*
X115014616Y-85250833D02*
X115014616Y-85060357D01*
X115014616Y-85060357D02*
X115052712Y-84907976D01*
X115052712Y-84907976D02*
X115090807Y-84831785D01*
X115090807Y-84831785D02*
X115128902Y-84793690D01*
X115128902Y-84793690D02*
X115205093Y-84755595D01*
D10*
X118470112Y-99094295D02*
X118089160Y-99094295D01*
X118089160Y-99094295D02*
X118089160Y-98294295D01*
X119041541Y-99056200D02*
X118965350Y-99094295D01*
X118965350Y-99094295D02*
X118812969Y-99094295D01*
X118812969Y-99094295D02*
X118736779Y-99056200D01*
X118736779Y-99056200D02*
X118698683Y-98980009D01*
X118698683Y-98980009D02*
X118698683Y-98675247D01*
X118698683Y-98675247D02*
X118736779Y-98599057D01*
X118736779Y-98599057D02*
X118812969Y-98560961D01*
X118812969Y-98560961D02*
X118965350Y-98560961D01*
X118965350Y-98560961D02*
X119041541Y-98599057D01*
X119041541Y-98599057D02*
X119079636Y-98675247D01*
X119079636Y-98675247D02*
X119079636Y-98751438D01*
X119079636Y-98751438D02*
X118698683Y-98827628D01*
X119765350Y-99094295D02*
X119765350Y-98675247D01*
X119765350Y-98675247D02*
X119727255Y-98599057D01*
X119727255Y-98599057D02*
X119651064Y-98560961D01*
X119651064Y-98560961D02*
X119498683Y-98560961D01*
X119498683Y-98560961D02*
X119422493Y-98599057D01*
X119765350Y-99056200D02*
X119689159Y-99094295D01*
X119689159Y-99094295D02*
X119498683Y-99094295D01*
X119498683Y-99094295D02*
X119422493Y-99056200D01*
X119422493Y-99056200D02*
X119384397Y-98980009D01*
X119384397Y-98980009D02*
X119384397Y-98903819D01*
X119384397Y-98903819D02*
X119422493Y-98827628D01*
X119422493Y-98827628D02*
X119498683Y-98789533D01*
X119498683Y-98789533D02*
X119689159Y-98789533D01*
X119689159Y-98789533D02*
X119765350Y-98751438D01*
X120070112Y-98560961D02*
X120260588Y-99094295D01*
X120260588Y-99094295D02*
X120451065Y-98560961D01*
X121060589Y-99056200D02*
X120984398Y-99094295D01*
X120984398Y-99094295D02*
X120832017Y-99094295D01*
X120832017Y-99094295D02*
X120755827Y-99056200D01*
X120755827Y-99056200D02*
X120717731Y-98980009D01*
X120717731Y-98980009D02*
X120717731Y-98675247D01*
X120717731Y-98675247D02*
X120755827Y-98599057D01*
X120755827Y-98599057D02*
X120832017Y-98560961D01*
X120832017Y-98560961D02*
X120984398Y-98560961D01*
X120984398Y-98560961D02*
X121060589Y-98599057D01*
X121060589Y-98599057D02*
X121098684Y-98675247D01*
X121098684Y-98675247D02*
X121098684Y-98751438D01*
X121098684Y-98751438D02*
X120717731Y-98827628D01*
X122393922Y-98560961D02*
X122393922Y-99094295D01*
X122051065Y-98560961D02*
X122051065Y-98980009D01*
X122051065Y-98980009D02*
X122089160Y-99056200D01*
X122089160Y-99056200D02*
X122165350Y-99094295D01*
X122165350Y-99094295D02*
X122279636Y-99094295D01*
X122279636Y-99094295D02*
X122355827Y-99056200D01*
X122355827Y-99056200D02*
X122393922Y-99018104D01*
X122774875Y-98560961D02*
X122774875Y-99094295D01*
X122774875Y-98637152D02*
X122812970Y-98599057D01*
X122812970Y-98599057D02*
X122889160Y-98560961D01*
X122889160Y-98560961D02*
X123003446Y-98560961D01*
X123003446Y-98560961D02*
X123079637Y-98599057D01*
X123079637Y-98599057D02*
X123117732Y-98675247D01*
X123117732Y-98675247D02*
X123117732Y-99094295D01*
X123460589Y-99056200D02*
X123536780Y-99094295D01*
X123536780Y-99094295D02*
X123689161Y-99094295D01*
X123689161Y-99094295D02*
X123765351Y-99056200D01*
X123765351Y-99056200D02*
X123803447Y-98980009D01*
X123803447Y-98980009D02*
X123803447Y-98941914D01*
X123803447Y-98941914D02*
X123765351Y-98865723D01*
X123765351Y-98865723D02*
X123689161Y-98827628D01*
X123689161Y-98827628D02*
X123574875Y-98827628D01*
X123574875Y-98827628D02*
X123498685Y-98789533D01*
X123498685Y-98789533D02*
X123460589Y-98713342D01*
X123460589Y-98713342D02*
X123460589Y-98675247D01*
X123460589Y-98675247D02*
X123498685Y-98599057D01*
X123498685Y-98599057D02*
X123574875Y-98560961D01*
X123574875Y-98560961D02*
X123689161Y-98560961D01*
X123689161Y-98560961D02*
X123765351Y-98599057D01*
X124260589Y-99094295D02*
X124184399Y-99056200D01*
X124184399Y-99056200D02*
X124146304Y-99018104D01*
X124146304Y-99018104D02*
X124108208Y-98941914D01*
X124108208Y-98941914D02*
X124108208Y-98713342D01*
X124108208Y-98713342D02*
X124146304Y-98637152D01*
X124146304Y-98637152D02*
X124184399Y-98599057D01*
X124184399Y-98599057D02*
X124260589Y-98560961D01*
X124260589Y-98560961D02*
X124374875Y-98560961D01*
X124374875Y-98560961D02*
X124451066Y-98599057D01*
X124451066Y-98599057D02*
X124489161Y-98637152D01*
X124489161Y-98637152D02*
X124527256Y-98713342D01*
X124527256Y-98713342D02*
X124527256Y-98941914D01*
X124527256Y-98941914D02*
X124489161Y-99018104D01*
X124489161Y-99018104D02*
X124451066Y-99056200D01*
X124451066Y-99056200D02*
X124374875Y-99094295D01*
X124374875Y-99094295D02*
X124260589Y-99094295D01*
X124984399Y-99094295D02*
X124908209Y-99056200D01*
X124908209Y-99056200D02*
X124870114Y-98980009D01*
X124870114Y-98980009D02*
X124870114Y-98294295D01*
X125632019Y-99094295D02*
X125632019Y-98294295D01*
X125632019Y-99056200D02*
X125555828Y-99094295D01*
X125555828Y-99094295D02*
X125403447Y-99094295D01*
X125403447Y-99094295D02*
X125327257Y-99056200D01*
X125327257Y-99056200D02*
X125289162Y-99018104D01*
X125289162Y-99018104D02*
X125251066Y-98941914D01*
X125251066Y-98941914D02*
X125251066Y-98713342D01*
X125251066Y-98713342D02*
X125289162Y-98637152D01*
X125289162Y-98637152D02*
X125327257Y-98599057D01*
X125327257Y-98599057D02*
X125403447Y-98560961D01*
X125403447Y-98560961D02*
X125555828Y-98560961D01*
X125555828Y-98560961D02*
X125632019Y-98599057D01*
X126317734Y-99056200D02*
X126241543Y-99094295D01*
X126241543Y-99094295D02*
X126089162Y-99094295D01*
X126089162Y-99094295D02*
X126012972Y-99056200D01*
X126012972Y-99056200D02*
X125974876Y-98980009D01*
X125974876Y-98980009D02*
X125974876Y-98675247D01*
X125974876Y-98675247D02*
X126012972Y-98599057D01*
X126012972Y-98599057D02*
X126089162Y-98560961D01*
X126089162Y-98560961D02*
X126241543Y-98560961D01*
X126241543Y-98560961D02*
X126317734Y-98599057D01*
X126317734Y-98599057D02*
X126355829Y-98675247D01*
X126355829Y-98675247D02*
X126355829Y-98751438D01*
X126355829Y-98751438D02*
X125974876Y-98827628D01*
X126698686Y-99094295D02*
X126698686Y-98560961D01*
X126698686Y-98713342D02*
X126736781Y-98637152D01*
X126736781Y-98637152D02*
X126774876Y-98599057D01*
X126774876Y-98599057D02*
X126851067Y-98560961D01*
X126851067Y-98560961D02*
X126927257Y-98560961D01*
X127498686Y-99056200D02*
X127422495Y-99094295D01*
X127422495Y-99094295D02*
X127270114Y-99094295D01*
X127270114Y-99094295D02*
X127193924Y-99056200D01*
X127193924Y-99056200D02*
X127155828Y-98980009D01*
X127155828Y-98980009D02*
X127155828Y-98675247D01*
X127155828Y-98675247D02*
X127193924Y-98599057D01*
X127193924Y-98599057D02*
X127270114Y-98560961D01*
X127270114Y-98560961D02*
X127422495Y-98560961D01*
X127422495Y-98560961D02*
X127498686Y-98599057D01*
X127498686Y-98599057D02*
X127536781Y-98675247D01*
X127536781Y-98675247D02*
X127536781Y-98751438D01*
X127536781Y-98751438D02*
X127155828Y-98827628D01*
X128222495Y-99094295D02*
X128222495Y-98294295D01*
X128222495Y-99056200D02*
X128146304Y-99094295D01*
X128146304Y-99094295D02*
X127993923Y-99094295D01*
X127993923Y-99094295D02*
X127917733Y-99056200D01*
X127917733Y-99056200D02*
X127879638Y-99018104D01*
X127879638Y-99018104D02*
X127841542Y-98941914D01*
X127841542Y-98941914D02*
X127841542Y-98713342D01*
X127841542Y-98713342D02*
X127879638Y-98637152D01*
X127879638Y-98637152D02*
X127917733Y-98599057D01*
X127917733Y-98599057D02*
X127993923Y-98560961D01*
X127993923Y-98560961D02*
X128146304Y-98560961D01*
X128146304Y-98560961D02*
X128222495Y-98599057D01*
X129212972Y-99094295D02*
X129212972Y-98560961D01*
X129212972Y-98294295D02*
X129174876Y-98332390D01*
X129174876Y-98332390D02*
X129212972Y-98370485D01*
X129212972Y-98370485D02*
X129251067Y-98332390D01*
X129251067Y-98332390D02*
X129212972Y-98294295D01*
X129212972Y-98294295D02*
X129212972Y-98370485D01*
X129479638Y-98560961D02*
X129784400Y-98560961D01*
X129593924Y-99094295D02*
X129593924Y-98408580D01*
X129593924Y-98408580D02*
X129632019Y-98332390D01*
X129632019Y-98332390D02*
X129708209Y-98294295D01*
X129708209Y-98294295D02*
X129784400Y-98294295D01*
X130660591Y-98560961D02*
X130660591Y-99094295D01*
X130660591Y-98637152D02*
X130698686Y-98599057D01*
X130698686Y-98599057D02*
X130774876Y-98560961D01*
X130774876Y-98560961D02*
X130889162Y-98560961D01*
X130889162Y-98560961D02*
X130965353Y-98599057D01*
X130965353Y-98599057D02*
X131003448Y-98675247D01*
X131003448Y-98675247D02*
X131003448Y-99094295D01*
X131498686Y-99094295D02*
X131422496Y-99056200D01*
X131422496Y-99056200D02*
X131384401Y-99018104D01*
X131384401Y-99018104D02*
X131346305Y-98941914D01*
X131346305Y-98941914D02*
X131346305Y-98713342D01*
X131346305Y-98713342D02*
X131384401Y-98637152D01*
X131384401Y-98637152D02*
X131422496Y-98599057D01*
X131422496Y-98599057D02*
X131498686Y-98560961D01*
X131498686Y-98560961D02*
X131612972Y-98560961D01*
X131612972Y-98560961D02*
X131689163Y-98599057D01*
X131689163Y-98599057D02*
X131727258Y-98637152D01*
X131727258Y-98637152D02*
X131765353Y-98713342D01*
X131765353Y-98713342D02*
X131765353Y-98941914D01*
X131765353Y-98941914D02*
X131727258Y-99018104D01*
X131727258Y-99018104D02*
X131689163Y-99056200D01*
X131689163Y-99056200D02*
X131612972Y-99094295D01*
X131612972Y-99094295D02*
X131498686Y-99094295D01*
X131993925Y-98560961D02*
X132298687Y-98560961D01*
X132108211Y-98294295D02*
X132108211Y-98980009D01*
X132108211Y-98980009D02*
X132146306Y-99056200D01*
X132146306Y-99056200D02*
X132222496Y-99094295D01*
X132222496Y-99094295D02*
X132298687Y-99094295D01*
D11*
X111752712Y-85655595D02*
X111752712Y-84855595D01*
X111752712Y-84855595D02*
X111943188Y-84855595D01*
X111943188Y-84855595D02*
X112057474Y-84893690D01*
X112057474Y-84893690D02*
X112133664Y-84969880D01*
X112133664Y-84969880D02*
X112171759Y-85046071D01*
X112171759Y-85046071D02*
X112209855Y-85198452D01*
X112209855Y-85198452D02*
X112209855Y-85312738D01*
X112209855Y-85312738D02*
X112171759Y-85465119D01*
X112171759Y-85465119D02*
X112133664Y-85541309D01*
X112133664Y-85541309D02*
X112057474Y-85617500D01*
X112057474Y-85617500D02*
X111943188Y-85655595D01*
X111943188Y-85655595D02*
X111752712Y-85655595D01*
X112971759Y-85655595D02*
X112514616Y-85655595D01*
X112743188Y-85655595D02*
X112743188Y-84855595D01*
X112743188Y-84855595D02*
X112666997Y-84969880D01*
X112666997Y-84969880D02*
X112590807Y-85046071D01*
X112590807Y-85046071D02*
X112514616Y-85084166D01*
D10*
X138980951Y-73254819D02*
X138980951Y-73969104D01*
X138980951Y-73969104D02*
X138933332Y-74111961D01*
X138933332Y-74111961D02*
X138838094Y-74207200D01*
X138838094Y-74207200D02*
X138695237Y-74254819D01*
X138695237Y-74254819D02*
X138599999Y-74254819D01*
X139933332Y-74254819D02*
X139457142Y-74254819D01*
X139457142Y-74254819D02*
X139457142Y-73254819D01*
X140838094Y-74159580D02*
X140790475Y-74207200D01*
X140790475Y-74207200D02*
X140647618Y-74254819D01*
X140647618Y-74254819D02*
X140552380Y-74254819D01*
X140552380Y-74254819D02*
X140409523Y-74207200D01*
X140409523Y-74207200D02*
X140314285Y-74111961D01*
X140314285Y-74111961D02*
X140266666Y-74016723D01*
X140266666Y-74016723D02*
X140219047Y-73826247D01*
X140219047Y-73826247D02*
X140219047Y-73683390D01*
X140219047Y-73683390D02*
X140266666Y-73492914D01*
X140266666Y-73492914D02*
X140314285Y-73397676D01*
X140314285Y-73397676D02*
X140409523Y-73302438D01*
X140409523Y-73302438D02*
X140552380Y-73254819D01*
X140552380Y-73254819D02*
X140647618Y-73254819D01*
X140647618Y-73254819D02*
X140790475Y-73302438D01*
X140790475Y-73302438D02*
X140838094Y-73350057D01*
X141552380Y-73254819D02*
X141552380Y-73969104D01*
X141552380Y-73969104D02*
X141504761Y-74111961D01*
X141504761Y-74111961D02*
X141409523Y-74207200D01*
X141409523Y-74207200D02*
X141266666Y-74254819D01*
X141266666Y-74254819D02*
X141171428Y-74254819D01*
X142504761Y-74254819D02*
X142028571Y-74254819D01*
X142028571Y-74254819D02*
X142028571Y-73254819D01*
X143409523Y-74159580D02*
X143361904Y-74207200D01*
X143361904Y-74207200D02*
X143219047Y-74254819D01*
X143219047Y-74254819D02*
X143123809Y-74254819D01*
X143123809Y-74254819D02*
X142980952Y-74207200D01*
X142980952Y-74207200D02*
X142885714Y-74111961D01*
X142885714Y-74111961D02*
X142838095Y-74016723D01*
X142838095Y-74016723D02*
X142790476Y-73826247D01*
X142790476Y-73826247D02*
X142790476Y-73683390D01*
X142790476Y-73683390D02*
X142838095Y-73492914D01*
X142838095Y-73492914D02*
X142885714Y-73397676D01*
X142885714Y-73397676D02*
X142980952Y-73302438D01*
X142980952Y-73302438D02*
X143123809Y-73254819D01*
X143123809Y-73254819D02*
X143219047Y-73254819D01*
X143219047Y-73254819D02*
X143361904Y-73302438D01*
X143361904Y-73302438D02*
X143409523Y-73350057D01*
X144123809Y-73254819D02*
X144123809Y-73969104D01*
X144123809Y-73969104D02*
X144076190Y-74111961D01*
X144076190Y-74111961D02*
X143980952Y-74207200D01*
X143980952Y-74207200D02*
X143838095Y-74254819D01*
X143838095Y-74254819D02*
X143742857Y-74254819D01*
X145076190Y-74254819D02*
X144600000Y-74254819D01*
X144600000Y-74254819D02*
X144600000Y-73254819D01*
X145980952Y-74159580D02*
X145933333Y-74207200D01*
X145933333Y-74207200D02*
X145790476Y-74254819D01*
X145790476Y-74254819D02*
X145695238Y-74254819D01*
X145695238Y-74254819D02*
X145552381Y-74207200D01*
X145552381Y-74207200D02*
X145457143Y-74111961D01*
X145457143Y-74111961D02*
X145409524Y-74016723D01*
X145409524Y-74016723D02*
X145361905Y-73826247D01*
X145361905Y-73826247D02*
X145361905Y-73683390D01*
X145361905Y-73683390D02*
X145409524Y-73492914D01*
X145409524Y-73492914D02*
X145457143Y-73397676D01*
X145457143Y-73397676D02*
X145552381Y-73302438D01*
X145552381Y-73302438D02*
X145695238Y-73254819D01*
X145695238Y-73254819D02*
X145790476Y-73254819D01*
X145790476Y-73254819D02*
X145933333Y-73302438D01*
X145933333Y-73302438D02*
X145980952Y-73350057D01*
X146695238Y-73254819D02*
X146695238Y-73969104D01*
X146695238Y-73969104D02*
X146647619Y-74111961D01*
X146647619Y-74111961D02*
X146552381Y-74207200D01*
X146552381Y-74207200D02*
X146409524Y-74254819D01*
X146409524Y-74254819D02*
X146314286Y-74254819D01*
X147647619Y-74254819D02*
X147171429Y-74254819D01*
X147171429Y-74254819D02*
X147171429Y-73254819D01*
X148552381Y-74159580D02*
X148504762Y-74207200D01*
X148504762Y-74207200D02*
X148361905Y-74254819D01*
X148361905Y-74254819D02*
X148266667Y-74254819D01*
X148266667Y-74254819D02*
X148123810Y-74207200D01*
X148123810Y-74207200D02*
X148028572Y-74111961D01*
X148028572Y-74111961D02*
X147980953Y-74016723D01*
X147980953Y-74016723D02*
X147933334Y-73826247D01*
X147933334Y-73826247D02*
X147933334Y-73683390D01*
X147933334Y-73683390D02*
X147980953Y-73492914D01*
X147980953Y-73492914D02*
X148028572Y-73397676D01*
X148028572Y-73397676D02*
X148123810Y-73302438D01*
X148123810Y-73302438D02*
X148266667Y-73254819D01*
X148266667Y-73254819D02*
X148361905Y-73254819D01*
X148361905Y-73254819D02*
X148504762Y-73302438D01*
X148504762Y-73302438D02*
X148552381Y-73350057D01*
D11*
X119471759Y-84893690D02*
X119395569Y-84855595D01*
X119395569Y-84855595D02*
X119281283Y-84855595D01*
X119281283Y-84855595D02*
X119166997Y-84893690D01*
X119166997Y-84893690D02*
X119090807Y-84969880D01*
X119090807Y-84969880D02*
X119052712Y-85046071D01*
X119052712Y-85046071D02*
X119014616Y-85198452D01*
X119014616Y-85198452D02*
X119014616Y-85312738D01*
X119014616Y-85312738D02*
X119052712Y-85465119D01*
X119052712Y-85465119D02*
X119090807Y-85541309D01*
X119090807Y-85541309D02*
X119166997Y-85617500D01*
X119166997Y-85617500D02*
X119281283Y-85655595D01*
X119281283Y-85655595D02*
X119357474Y-85655595D01*
X119357474Y-85655595D02*
X119471759Y-85617500D01*
X119471759Y-85617500D02*
X119509855Y-85579404D01*
X119509855Y-85579404D02*
X119509855Y-85312738D01*
X119509855Y-85312738D02*
X119357474Y-85312738D01*
X119852712Y-85655595D02*
X119852712Y-84855595D01*
X119852712Y-84855595D02*
X120309855Y-85655595D01*
X120309855Y-85655595D02*
X120309855Y-84855595D01*
X120690807Y-85655595D02*
X120690807Y-84855595D01*
X120690807Y-84855595D02*
X120881283Y-84855595D01*
X120881283Y-84855595D02*
X120995569Y-84893690D01*
X120995569Y-84893690D02*
X121071759Y-84969880D01*
X121071759Y-84969880D02*
X121109854Y-85046071D01*
X121109854Y-85046071D02*
X121147950Y-85198452D01*
X121147950Y-85198452D02*
X121147950Y-85312738D01*
X121147950Y-85312738D02*
X121109854Y-85465119D01*
X121109854Y-85465119D02*
X121071759Y-85541309D01*
X121071759Y-85541309D02*
X120995569Y-85617500D01*
X120995569Y-85617500D02*
X120881283Y-85655595D01*
X120881283Y-85655595D02*
X120690807Y-85655595D01*
D10*
X165960588Y-95717438D02*
X165865350Y-95669819D01*
X165865350Y-95669819D02*
X165722493Y-95669819D01*
X165722493Y-95669819D02*
X165579636Y-95717438D01*
X165579636Y-95717438D02*
X165484398Y-95812676D01*
X165484398Y-95812676D02*
X165436779Y-95907914D01*
X165436779Y-95907914D02*
X165389160Y-96098390D01*
X165389160Y-96098390D02*
X165389160Y-96241247D01*
X165389160Y-96241247D02*
X165436779Y-96431723D01*
X165436779Y-96431723D02*
X165484398Y-96526961D01*
X165484398Y-96526961D02*
X165579636Y-96622200D01*
X165579636Y-96622200D02*
X165722493Y-96669819D01*
X165722493Y-96669819D02*
X165817731Y-96669819D01*
X165817731Y-96669819D02*
X165960588Y-96622200D01*
X165960588Y-96622200D02*
X166008207Y-96574580D01*
X166008207Y-96574580D02*
X166008207Y-96241247D01*
X166008207Y-96241247D02*
X165817731Y-96241247D01*
X166436779Y-96669819D02*
X166436779Y-95669819D01*
X166436779Y-95669819D02*
X167008207Y-96669819D01*
X167008207Y-96669819D02*
X167008207Y-95669819D01*
X167484398Y-96669819D02*
X167484398Y-95669819D01*
X167484398Y-95669819D02*
X167722493Y-95669819D01*
X167722493Y-95669819D02*
X167865350Y-95717438D01*
X167865350Y-95717438D02*
X167960588Y-95812676D01*
X167960588Y-95812676D02*
X168008207Y-95907914D01*
X168008207Y-95907914D02*
X168055826Y-96098390D01*
X168055826Y-96098390D02*
X168055826Y-96241247D01*
X168055826Y-96241247D02*
X168008207Y-96431723D01*
X168008207Y-96431723D02*
X167960588Y-96526961D01*
X167960588Y-96526961D02*
X167865350Y-96622200D01*
X167865350Y-96622200D02*
X167722493Y-96669819D01*
X167722493Y-96669819D02*
X167484398Y-96669819D01*
D11*
X111427287Y-80909166D02*
X110817764Y-80909166D01*
D10*
X146360588Y-95917438D02*
X146265350Y-95869819D01*
X146265350Y-95869819D02*
X146122493Y-95869819D01*
X146122493Y-95869819D02*
X145979636Y-95917438D01*
X145979636Y-95917438D02*
X145884398Y-96012676D01*
X145884398Y-96012676D02*
X145836779Y-96107914D01*
X145836779Y-96107914D02*
X145789160Y-96298390D01*
X145789160Y-96298390D02*
X145789160Y-96441247D01*
X145789160Y-96441247D02*
X145836779Y-96631723D01*
X145836779Y-96631723D02*
X145884398Y-96726961D01*
X145884398Y-96726961D02*
X145979636Y-96822200D01*
X145979636Y-96822200D02*
X146122493Y-96869819D01*
X146122493Y-96869819D02*
X146217731Y-96869819D01*
X146217731Y-96869819D02*
X146360588Y-96822200D01*
X146360588Y-96822200D02*
X146408207Y-96774580D01*
X146408207Y-96774580D02*
X146408207Y-96441247D01*
X146408207Y-96441247D02*
X146217731Y-96441247D01*
X146836779Y-96869819D02*
X146836779Y-95869819D01*
X146836779Y-95869819D02*
X147408207Y-96869819D01*
X147408207Y-96869819D02*
X147408207Y-95869819D01*
X147884398Y-96869819D02*
X147884398Y-95869819D01*
X147884398Y-95869819D02*
X148122493Y-95869819D01*
X148122493Y-95869819D02*
X148265350Y-95917438D01*
X148265350Y-95917438D02*
X148360588Y-96012676D01*
X148360588Y-96012676D02*
X148408207Y-96107914D01*
X148408207Y-96107914D02*
X148455826Y-96298390D01*
X148455826Y-96298390D02*
X148455826Y-96441247D01*
X148455826Y-96441247D02*
X148408207Y-96631723D01*
X148408207Y-96631723D02*
X148360588Y-96726961D01*
X148360588Y-96726961D02*
X148265350Y-96822200D01*
X148265350Y-96822200D02*
X148122493Y-96869819D01*
X148122493Y-96869819D02*
X147884398Y-96869819D01*
X150170112Y-100246009D02*
X150312969Y-100293628D01*
X150312969Y-100293628D02*
X150360588Y-100341247D01*
X150360588Y-100341247D02*
X150408207Y-100436485D01*
X150408207Y-100436485D02*
X150408207Y-100579342D01*
X150408207Y-100579342D02*
X150360588Y-100674580D01*
X150360588Y-100674580D02*
X150312969Y-100722200D01*
X150312969Y-100722200D02*
X150217731Y-100769819D01*
X150217731Y-100769819D02*
X149836779Y-100769819D01*
X149836779Y-100769819D02*
X149836779Y-99769819D01*
X149836779Y-99769819D02*
X150170112Y-99769819D01*
X150170112Y-99769819D02*
X150265350Y-99817438D01*
X150265350Y-99817438D02*
X150312969Y-99865057D01*
X150312969Y-99865057D02*
X150360588Y-99960295D01*
X150360588Y-99960295D02*
X150360588Y-100055533D01*
X150360588Y-100055533D02*
X150312969Y-100150771D01*
X150312969Y-100150771D02*
X150265350Y-100198390D01*
X150265350Y-100198390D02*
X150170112Y-100246009D01*
X150170112Y-100246009D02*
X149836779Y-100246009D01*
X150979636Y-100769819D02*
X150884398Y-100722200D01*
X150884398Y-100722200D02*
X150836779Y-100674580D01*
X150836779Y-100674580D02*
X150789160Y-100579342D01*
X150789160Y-100579342D02*
X150789160Y-100293628D01*
X150789160Y-100293628D02*
X150836779Y-100198390D01*
X150836779Y-100198390D02*
X150884398Y-100150771D01*
X150884398Y-100150771D02*
X150979636Y-100103152D01*
X150979636Y-100103152D02*
X151122493Y-100103152D01*
X151122493Y-100103152D02*
X151217731Y-100150771D01*
X151217731Y-100150771D02*
X151265350Y-100198390D01*
X151265350Y-100198390D02*
X151312969Y-100293628D01*
X151312969Y-100293628D02*
X151312969Y-100579342D01*
X151312969Y-100579342D02*
X151265350Y-100674580D01*
X151265350Y-100674580D02*
X151217731Y-100722200D01*
X151217731Y-100722200D02*
X151122493Y-100769819D01*
X151122493Y-100769819D02*
X150979636Y-100769819D01*
X151884398Y-100769819D02*
X151789160Y-100722200D01*
X151789160Y-100722200D02*
X151741541Y-100674580D01*
X151741541Y-100674580D02*
X151693922Y-100579342D01*
X151693922Y-100579342D02*
X151693922Y-100293628D01*
X151693922Y-100293628D02*
X151741541Y-100198390D01*
X151741541Y-100198390D02*
X151789160Y-100150771D01*
X151789160Y-100150771D02*
X151884398Y-100103152D01*
X151884398Y-100103152D02*
X152027255Y-100103152D01*
X152027255Y-100103152D02*
X152122493Y-100150771D01*
X152122493Y-100150771D02*
X152170112Y-100198390D01*
X152170112Y-100198390D02*
X152217731Y-100293628D01*
X152217731Y-100293628D02*
X152217731Y-100579342D01*
X152217731Y-100579342D02*
X152170112Y-100674580D01*
X152170112Y-100674580D02*
X152122493Y-100722200D01*
X152122493Y-100722200D02*
X152027255Y-100769819D01*
X152027255Y-100769819D02*
X151884398Y-100769819D01*
X152598684Y-100722200D02*
X152693922Y-100769819D01*
X152693922Y-100769819D02*
X152884398Y-100769819D01*
X152884398Y-100769819D02*
X152979636Y-100722200D01*
X152979636Y-100722200D02*
X153027255Y-100626961D01*
X153027255Y-100626961D02*
X153027255Y-100579342D01*
X153027255Y-100579342D02*
X152979636Y-100484104D01*
X152979636Y-100484104D02*
X152884398Y-100436485D01*
X152884398Y-100436485D02*
X152741541Y-100436485D01*
X152741541Y-100436485D02*
X152646303Y-100388866D01*
X152646303Y-100388866D02*
X152598684Y-100293628D01*
X152598684Y-100293628D02*
X152598684Y-100246009D01*
X152598684Y-100246009D02*
X152646303Y-100150771D01*
X152646303Y-100150771D02*
X152741541Y-100103152D01*
X152741541Y-100103152D02*
X152884398Y-100103152D01*
X152884398Y-100103152D02*
X152979636Y-100150771D01*
X153312970Y-100103152D02*
X153693922Y-100103152D01*
X153455827Y-99769819D02*
X153455827Y-100626961D01*
X153455827Y-100626961D02*
X153503446Y-100722200D01*
X153503446Y-100722200D02*
X153598684Y-100769819D01*
X153598684Y-100769819D02*
X153693922Y-100769819D01*
X155217732Y-100722200D02*
X155122494Y-100769819D01*
X155122494Y-100769819D02*
X154932018Y-100769819D01*
X154932018Y-100769819D02*
X154836780Y-100722200D01*
X154836780Y-100722200D02*
X154789161Y-100674580D01*
X154789161Y-100674580D02*
X154741542Y-100579342D01*
X154741542Y-100579342D02*
X154741542Y-100293628D01*
X154741542Y-100293628D02*
X154789161Y-100198390D01*
X154789161Y-100198390D02*
X154836780Y-100150771D01*
X154836780Y-100150771D02*
X154932018Y-100103152D01*
X154932018Y-100103152D02*
X155122494Y-100103152D01*
X155122494Y-100103152D02*
X155217732Y-100150771D01*
X155789161Y-100769819D02*
X155693923Y-100722200D01*
X155693923Y-100722200D02*
X155646304Y-100674580D01*
X155646304Y-100674580D02*
X155598685Y-100579342D01*
X155598685Y-100579342D02*
X155598685Y-100293628D01*
X155598685Y-100293628D02*
X155646304Y-100198390D01*
X155646304Y-100198390D02*
X155693923Y-100150771D01*
X155693923Y-100150771D02*
X155789161Y-100103152D01*
X155789161Y-100103152D02*
X155932018Y-100103152D01*
X155932018Y-100103152D02*
X156027256Y-100150771D01*
X156027256Y-100150771D02*
X156074875Y-100198390D01*
X156074875Y-100198390D02*
X156122494Y-100293628D01*
X156122494Y-100293628D02*
X156122494Y-100579342D01*
X156122494Y-100579342D02*
X156074875Y-100674580D01*
X156074875Y-100674580D02*
X156027256Y-100722200D01*
X156027256Y-100722200D02*
X155932018Y-100769819D01*
X155932018Y-100769819D02*
X155789161Y-100769819D01*
X156551066Y-100103152D02*
X156551066Y-100769819D01*
X156551066Y-100198390D02*
X156598685Y-100150771D01*
X156598685Y-100150771D02*
X156693923Y-100103152D01*
X156693923Y-100103152D02*
X156836780Y-100103152D01*
X156836780Y-100103152D02*
X156932018Y-100150771D01*
X156932018Y-100150771D02*
X156979637Y-100246009D01*
X156979637Y-100246009D02*
X156979637Y-100769819D01*
X157360590Y-100103152D02*
X157598685Y-100769819D01*
X157598685Y-100769819D02*
X157836780Y-100103152D01*
X158598685Y-100722200D02*
X158503447Y-100769819D01*
X158503447Y-100769819D02*
X158312971Y-100769819D01*
X158312971Y-100769819D02*
X158217733Y-100722200D01*
X158217733Y-100722200D02*
X158170114Y-100626961D01*
X158170114Y-100626961D02*
X158170114Y-100246009D01*
X158170114Y-100246009D02*
X158217733Y-100150771D01*
X158217733Y-100150771D02*
X158312971Y-100103152D01*
X158312971Y-100103152D02*
X158503447Y-100103152D01*
X158503447Y-100103152D02*
X158598685Y-100150771D01*
X158598685Y-100150771D02*
X158646304Y-100246009D01*
X158646304Y-100246009D02*
X158646304Y-100341247D01*
X158646304Y-100341247D02*
X158170114Y-100436485D01*
X159074876Y-100769819D02*
X159074876Y-100103152D01*
X159074876Y-100293628D02*
X159122495Y-100198390D01*
X159122495Y-100198390D02*
X159170114Y-100150771D01*
X159170114Y-100150771D02*
X159265352Y-100103152D01*
X159265352Y-100103152D02*
X159360590Y-100103152D01*
X159551067Y-100103152D02*
X159932019Y-100103152D01*
X159693924Y-99769819D02*
X159693924Y-100626961D01*
X159693924Y-100626961D02*
X159741543Y-100722200D01*
X159741543Y-100722200D02*
X159836781Y-100769819D01*
X159836781Y-100769819D02*
X159932019Y-100769819D01*
X160646305Y-100722200D02*
X160551067Y-100769819D01*
X160551067Y-100769819D02*
X160360591Y-100769819D01*
X160360591Y-100769819D02*
X160265353Y-100722200D01*
X160265353Y-100722200D02*
X160217734Y-100626961D01*
X160217734Y-100626961D02*
X160217734Y-100246009D01*
X160217734Y-100246009D02*
X160265353Y-100150771D01*
X160265353Y-100150771D02*
X160360591Y-100103152D01*
X160360591Y-100103152D02*
X160551067Y-100103152D01*
X160551067Y-100103152D02*
X160646305Y-100150771D01*
X160646305Y-100150771D02*
X160693924Y-100246009D01*
X160693924Y-100246009D02*
X160693924Y-100341247D01*
X160693924Y-100341247D02*
X160217734Y-100436485D01*
X161122496Y-100769819D02*
X161122496Y-100103152D01*
X161122496Y-100293628D02*
X161170115Y-100198390D01*
X161170115Y-100198390D02*
X161217734Y-100150771D01*
X161217734Y-100150771D02*
X161312972Y-100103152D01*
X161312972Y-100103152D02*
X161408210Y-100103152D01*
X162503449Y-100769819D02*
X162503449Y-99769819D01*
X162503449Y-100150771D02*
X162598687Y-100103152D01*
X162598687Y-100103152D02*
X162789163Y-100103152D01*
X162789163Y-100103152D02*
X162884401Y-100150771D01*
X162884401Y-100150771D02*
X162932020Y-100198390D01*
X162932020Y-100198390D02*
X162979639Y-100293628D01*
X162979639Y-100293628D02*
X162979639Y-100579342D01*
X162979639Y-100579342D02*
X162932020Y-100674580D01*
X162932020Y-100674580D02*
X162884401Y-100722200D01*
X162884401Y-100722200D02*
X162789163Y-100769819D01*
X162789163Y-100769819D02*
X162598687Y-100769819D01*
X162598687Y-100769819D02*
X162503449Y-100722200D01*
X163551068Y-100769819D02*
X163455830Y-100722200D01*
X163455830Y-100722200D02*
X163408211Y-100674580D01*
X163408211Y-100674580D02*
X163360592Y-100579342D01*
X163360592Y-100579342D02*
X163360592Y-100293628D01*
X163360592Y-100293628D02*
X163408211Y-100198390D01*
X163408211Y-100198390D02*
X163455830Y-100150771D01*
X163455830Y-100150771D02*
X163551068Y-100103152D01*
X163551068Y-100103152D02*
X163693925Y-100103152D01*
X163693925Y-100103152D02*
X163789163Y-100150771D01*
X163789163Y-100150771D02*
X163836782Y-100198390D01*
X163836782Y-100198390D02*
X163884401Y-100293628D01*
X163884401Y-100293628D02*
X163884401Y-100579342D01*
X163884401Y-100579342D02*
X163836782Y-100674580D01*
X163836782Y-100674580D02*
X163789163Y-100722200D01*
X163789163Y-100722200D02*
X163693925Y-100769819D01*
X163693925Y-100769819D02*
X163551068Y-100769819D01*
X164741544Y-100769819D02*
X164741544Y-100246009D01*
X164741544Y-100246009D02*
X164693925Y-100150771D01*
X164693925Y-100150771D02*
X164598687Y-100103152D01*
X164598687Y-100103152D02*
X164408211Y-100103152D01*
X164408211Y-100103152D02*
X164312973Y-100150771D01*
X164741544Y-100722200D02*
X164646306Y-100769819D01*
X164646306Y-100769819D02*
X164408211Y-100769819D01*
X164408211Y-100769819D02*
X164312973Y-100722200D01*
X164312973Y-100722200D02*
X164265354Y-100626961D01*
X164265354Y-100626961D02*
X164265354Y-100531723D01*
X164265354Y-100531723D02*
X164312973Y-100436485D01*
X164312973Y-100436485D02*
X164408211Y-100388866D01*
X164408211Y-100388866D02*
X164646306Y-100388866D01*
X164646306Y-100388866D02*
X164741544Y-100341247D01*
X165217735Y-100769819D02*
X165217735Y-100103152D01*
X165217735Y-100293628D02*
X165265354Y-100198390D01*
X165265354Y-100198390D02*
X165312973Y-100150771D01*
X165312973Y-100150771D02*
X165408211Y-100103152D01*
X165408211Y-100103152D02*
X165503449Y-100103152D01*
X166265354Y-100769819D02*
X166265354Y-99769819D01*
X166265354Y-100722200D02*
X166170116Y-100769819D01*
X166170116Y-100769819D02*
X165979640Y-100769819D01*
X165979640Y-100769819D02*
X165884402Y-100722200D01*
X165884402Y-100722200D02*
X165836783Y-100674580D01*
X165836783Y-100674580D02*
X165789164Y-100579342D01*
X165789164Y-100579342D02*
X165789164Y-100293628D01*
X165789164Y-100293628D02*
X165836783Y-100198390D01*
X165836783Y-100198390D02*
X165884402Y-100150771D01*
X165884402Y-100150771D02*
X165979640Y-100103152D01*
X165979640Y-100103152D02*
X166170116Y-100103152D01*
X166170116Y-100103152D02*
X166265354Y-100150771D01*
D11*
X111090833Y-78627287D02*
X111090833Y-78017764D01*
X111395595Y-78322525D02*
X110786071Y-78322525D01*
X116809855Y-85579404D02*
X116771759Y-85617500D01*
X116771759Y-85617500D02*
X116657474Y-85655595D01*
X116657474Y-85655595D02*
X116581283Y-85655595D01*
X116581283Y-85655595D02*
X116466997Y-85617500D01*
X116466997Y-85617500D02*
X116390807Y-85541309D01*
X116390807Y-85541309D02*
X116352712Y-85465119D01*
X116352712Y-85465119D02*
X116314616Y-85312738D01*
X116314616Y-85312738D02*
X116314616Y-85198452D01*
X116314616Y-85198452D02*
X116352712Y-85046071D01*
X116352712Y-85046071D02*
X116390807Y-84969880D01*
X116390807Y-84969880D02*
X116466997Y-84893690D01*
X116466997Y-84893690D02*
X116581283Y-84855595D01*
X116581283Y-84855595D02*
X116657474Y-84855595D01*
X116657474Y-84855595D02*
X116771759Y-84893690D01*
X116771759Y-84893690D02*
X116809855Y-84931785D01*
X117533664Y-85655595D02*
X117152712Y-85655595D01*
X117152712Y-85655595D02*
X117152712Y-84855595D01*
X117800331Y-85655595D02*
X117800331Y-84855595D01*
X118257474Y-85655595D02*
X117914616Y-85198452D01*
X118257474Y-84855595D02*
X117800331Y-85312738D01*
D10*
X153704819Y-78771904D02*
X154514342Y-78771904D01*
X154514342Y-78771904D02*
X154609580Y-78724285D01*
X154609580Y-78724285D02*
X154657200Y-78676666D01*
X154657200Y-78676666D02*
X154704819Y-78581428D01*
X154704819Y-78581428D02*
X154704819Y-78390952D01*
X154704819Y-78390952D02*
X154657200Y-78295714D01*
X154657200Y-78295714D02*
X154609580Y-78248095D01*
X154609580Y-78248095D02*
X154514342Y-78200476D01*
X154514342Y-78200476D02*
X153704819Y-78200476D01*
X154704819Y-77200476D02*
X154704819Y-77771904D01*
X154704819Y-77486190D02*
X153704819Y-77486190D01*
X153704819Y-77486190D02*
X153847676Y-77581428D01*
X153847676Y-77581428D02*
X153942914Y-77676666D01*
X153942914Y-77676666D02*
X153990533Y-77771904D01*
X185602438Y-74561904D02*
X185554819Y-74657142D01*
X185554819Y-74657142D02*
X185554819Y-74799999D01*
X185554819Y-74799999D02*
X185602438Y-74942856D01*
X185602438Y-74942856D02*
X185697676Y-75038094D01*
X185697676Y-75038094D02*
X185792914Y-75085713D01*
X185792914Y-75085713D02*
X185983390Y-75133332D01*
X185983390Y-75133332D02*
X186126247Y-75133332D01*
X186126247Y-75133332D02*
X186316723Y-75085713D01*
X186316723Y-75085713D02*
X186411961Y-75038094D01*
X186411961Y-75038094D02*
X186507200Y-74942856D01*
X186507200Y-74942856D02*
X186554819Y-74799999D01*
X186554819Y-74799999D02*
X186554819Y-74704761D01*
X186554819Y-74704761D02*
X186507200Y-74561904D01*
X186507200Y-74561904D02*
X186459580Y-74514285D01*
X186459580Y-74514285D02*
X186126247Y-74514285D01*
X186126247Y-74514285D02*
X186126247Y-74704761D01*
X186554819Y-74085713D02*
X185554819Y-74085713D01*
X185554819Y-74085713D02*
X186554819Y-73514285D01*
X186554819Y-73514285D02*
X185554819Y-73514285D01*
X186554819Y-73038094D02*
X185554819Y-73038094D01*
X185554819Y-73038094D02*
X185554819Y-72799999D01*
X185554819Y-72799999D02*
X185602438Y-72657142D01*
X185602438Y-72657142D02*
X185697676Y-72561904D01*
X185697676Y-72561904D02*
X185792914Y-72514285D01*
X185792914Y-72514285D02*
X185983390Y-72466666D01*
X185983390Y-72466666D02*
X186126247Y-72466666D01*
X186126247Y-72466666D02*
X186316723Y-72514285D01*
X186316723Y-72514285D02*
X186411961Y-72561904D01*
X186411961Y-72561904D02*
X186507200Y-72657142D01*
X186507200Y-72657142D02*
X186554819Y-72799999D01*
X186554819Y-72799999D02*
X186554819Y-73038094D01*
X186654819Y-85738094D02*
X185654819Y-85738094D01*
X185654819Y-85738094D02*
X185654819Y-85499999D01*
X185654819Y-85499999D02*
X185702438Y-85357142D01*
X185702438Y-85357142D02*
X185797676Y-85261904D01*
X185797676Y-85261904D02*
X185892914Y-85214285D01*
X185892914Y-85214285D02*
X186083390Y-85166666D01*
X186083390Y-85166666D02*
X186226247Y-85166666D01*
X186226247Y-85166666D02*
X186416723Y-85214285D01*
X186416723Y-85214285D02*
X186511961Y-85261904D01*
X186511961Y-85261904D02*
X186607200Y-85357142D01*
X186607200Y-85357142D02*
X186654819Y-85499999D01*
X186654819Y-85499999D02*
X186654819Y-85738094D01*
X185988152Y-84309523D02*
X186654819Y-84309523D01*
X185607200Y-84547618D02*
X186321485Y-84785713D01*
X186321485Y-84785713D02*
X186321485Y-84166666D01*
X113554819Y-99066666D02*
X113078628Y-99399999D01*
X113554819Y-99638094D02*
X112554819Y-99638094D01*
X112554819Y-99638094D02*
X112554819Y-99257142D01*
X112554819Y-99257142D02*
X112602438Y-99161904D01*
X112602438Y-99161904D02*
X112650057Y-99114285D01*
X112650057Y-99114285D02*
X112745295Y-99066666D01*
X112745295Y-99066666D02*
X112888152Y-99066666D01*
X112888152Y-99066666D02*
X112983390Y-99114285D01*
X112983390Y-99114285D02*
X113031009Y-99161904D01*
X113031009Y-99161904D02*
X113078628Y-99257142D01*
X113078628Y-99257142D02*
X113078628Y-99638094D01*
X112554819Y-98733332D02*
X112554819Y-98114285D01*
X112554819Y-98114285D02*
X112935771Y-98447618D01*
X112935771Y-98447618D02*
X112935771Y-98304761D01*
X112935771Y-98304761D02*
X112983390Y-98209523D01*
X112983390Y-98209523D02*
X113031009Y-98161904D01*
X113031009Y-98161904D02*
X113126247Y-98114285D01*
X113126247Y-98114285D02*
X113364342Y-98114285D01*
X113364342Y-98114285D02*
X113459580Y-98161904D01*
X113459580Y-98161904D02*
X113507200Y-98209523D01*
X113507200Y-98209523D02*
X113554819Y-98304761D01*
X113554819Y-98304761D02*
X113554819Y-98590475D01*
X113554819Y-98590475D02*
X113507200Y-98685713D01*
X113507200Y-98685713D02*
X113459580Y-98733332D01*
X115004761Y-95054819D02*
X114433333Y-95054819D01*
X114719047Y-95054819D02*
X114719047Y-94054819D01*
X114719047Y-94054819D02*
X114623809Y-94197676D01*
X114623809Y-94197676D02*
X114528571Y-94292914D01*
X114528571Y-94292914D02*
X114433333Y-94340533D01*
X115623809Y-94054819D02*
X115719047Y-94054819D01*
X115719047Y-94054819D02*
X115814285Y-94102438D01*
X115814285Y-94102438D02*
X115861904Y-94150057D01*
X115861904Y-94150057D02*
X115909523Y-94245295D01*
X115909523Y-94245295D02*
X115957142Y-94435771D01*
X115957142Y-94435771D02*
X115957142Y-94673866D01*
X115957142Y-94673866D02*
X115909523Y-94864342D01*
X115909523Y-94864342D02*
X115861904Y-94959580D01*
X115861904Y-94959580D02*
X115814285Y-95007200D01*
X115814285Y-95007200D02*
X115719047Y-95054819D01*
X115719047Y-95054819D02*
X115623809Y-95054819D01*
X115623809Y-95054819D02*
X115528571Y-95007200D01*
X115528571Y-95007200D02*
X115480952Y-94959580D01*
X115480952Y-94959580D02*
X115433333Y-94864342D01*
X115433333Y-94864342D02*
X115385714Y-94673866D01*
X115385714Y-94673866D02*
X115385714Y-94435771D01*
X115385714Y-94435771D02*
X115433333Y-94245295D01*
X115433333Y-94245295D02*
X115480952Y-94150057D01*
X115480952Y-94150057D02*
X115528571Y-94102438D01*
X115528571Y-94102438D02*
X115623809Y-94054819D01*
X116385714Y-95054819D02*
X116385714Y-94054819D01*
X116480952Y-94673866D02*
X116766666Y-95054819D01*
X116766666Y-94388152D02*
X116385714Y-94769104D01*
D12*
X146700476Y-107117419D02*
X146700476Y-107831704D01*
X146700476Y-107831704D02*
X146652857Y-107974561D01*
X146652857Y-107974561D02*
X146557619Y-108069800D01*
X146557619Y-108069800D02*
X146414762Y-108117419D01*
X146414762Y-108117419D02*
X146319524Y-108117419D01*
X147700476Y-108117419D02*
X147129048Y-108117419D01*
X147414762Y-108117419D02*
X147414762Y-107117419D01*
X147414762Y-107117419D02*
X147319524Y-107260276D01*
X147319524Y-107260276D02*
X147224286Y-107355514D01*
X147224286Y-107355514D02*
X147129048Y-107403133D01*
X148557619Y-107450752D02*
X148557619Y-108117419D01*
X148319524Y-107069800D02*
X148081429Y-107784085D01*
X148081429Y-107784085D02*
X148700476Y-107784085D01*
D10*
X186554819Y-89548094D02*
X185554819Y-89548094D01*
X185554819Y-89548094D02*
X185554819Y-89309999D01*
X185554819Y-89309999D02*
X185602438Y-89167142D01*
X185602438Y-89167142D02*
X185697676Y-89071904D01*
X185697676Y-89071904D02*
X185792914Y-89024285D01*
X185792914Y-89024285D02*
X185983390Y-88976666D01*
X185983390Y-88976666D02*
X186126247Y-88976666D01*
X186126247Y-88976666D02*
X186316723Y-89024285D01*
X186316723Y-89024285D02*
X186411961Y-89071904D01*
X186411961Y-89071904D02*
X186507200Y-89167142D01*
X186507200Y-89167142D02*
X186554819Y-89309999D01*
X186554819Y-89309999D02*
X186554819Y-89548094D01*
X185554819Y-88643332D02*
X185554819Y-88024285D01*
X185554819Y-88024285D02*
X185935771Y-88357618D01*
X185935771Y-88357618D02*
X185935771Y-88214761D01*
X185935771Y-88214761D02*
X185983390Y-88119523D01*
X185983390Y-88119523D02*
X186031009Y-88071904D01*
X186031009Y-88071904D02*
X186126247Y-88024285D01*
X186126247Y-88024285D02*
X186364342Y-88024285D01*
X186364342Y-88024285D02*
X186459580Y-88071904D01*
X186459580Y-88071904D02*
X186507200Y-88119523D01*
X186507200Y-88119523D02*
X186554819Y-88214761D01*
X186554819Y-88214761D02*
X186554819Y-88500475D01*
X186554819Y-88500475D02*
X186507200Y-88595713D01*
X186507200Y-88595713D02*
X186459580Y-88643332D01*
X186459580Y-70595238D02*
X186507200Y-70642857D01*
X186507200Y-70642857D02*
X186554819Y-70785714D01*
X186554819Y-70785714D02*
X186554819Y-70880952D01*
X186554819Y-70880952D02*
X186507200Y-71023809D01*
X186507200Y-71023809D02*
X186411961Y-71119047D01*
X186411961Y-71119047D02*
X186316723Y-71166666D01*
X186316723Y-71166666D02*
X186126247Y-71214285D01*
X186126247Y-71214285D02*
X185983390Y-71214285D01*
X185983390Y-71214285D02*
X185792914Y-71166666D01*
X185792914Y-71166666D02*
X185697676Y-71119047D01*
X185697676Y-71119047D02*
X185602438Y-71023809D01*
X185602438Y-71023809D02*
X185554819Y-70880952D01*
X185554819Y-70880952D02*
X185554819Y-70785714D01*
X185554819Y-70785714D02*
X185602438Y-70642857D01*
X185602438Y-70642857D02*
X185650057Y-70595238D01*
X186554819Y-69690476D02*
X186554819Y-70166666D01*
X186554819Y-70166666D02*
X185554819Y-70166666D01*
X186554819Y-69357142D02*
X185554819Y-69357142D01*
X186554819Y-68785714D02*
X185983390Y-69214285D01*
X185554819Y-68785714D02*
X186126247Y-69357142D01*
X134461905Y-105754819D02*
X134461905Y-104754819D01*
X134461905Y-104754819D02*
X134700000Y-104754819D01*
X134700000Y-104754819D02*
X134842857Y-104802438D01*
X134842857Y-104802438D02*
X134938095Y-104897676D01*
X134938095Y-104897676D02*
X134985714Y-104992914D01*
X134985714Y-104992914D02*
X135033333Y-105183390D01*
X135033333Y-105183390D02*
X135033333Y-105326247D01*
X135033333Y-105326247D02*
X134985714Y-105516723D01*
X134985714Y-105516723D02*
X134938095Y-105611961D01*
X134938095Y-105611961D02*
X134842857Y-105707200D01*
X134842857Y-105707200D02*
X134700000Y-105754819D01*
X134700000Y-105754819D02*
X134461905Y-105754819D01*
X135414286Y-104850057D02*
X135461905Y-104802438D01*
X135461905Y-104802438D02*
X135557143Y-104754819D01*
X135557143Y-104754819D02*
X135795238Y-104754819D01*
X135795238Y-104754819D02*
X135890476Y-104802438D01*
X135890476Y-104802438D02*
X135938095Y-104850057D01*
X135938095Y-104850057D02*
X135985714Y-104945295D01*
X135985714Y-104945295D02*
X135985714Y-105040533D01*
X135985714Y-105040533D02*
X135938095Y-105183390D01*
X135938095Y-105183390D02*
X135366667Y-105754819D01*
X135366667Y-105754819D02*
X135985714Y-105754819D01*
X125018095Y-103854819D02*
X125018095Y-102854819D01*
X125589523Y-103854819D02*
X125160952Y-103283390D01*
X125589523Y-102854819D02*
X125018095Y-103426247D01*
X186654819Y-79052381D02*
X186178628Y-79385714D01*
X186654819Y-79623809D02*
X185654819Y-79623809D01*
X185654819Y-79623809D02*
X185654819Y-79242857D01*
X185654819Y-79242857D02*
X185702438Y-79147619D01*
X185702438Y-79147619D02*
X185750057Y-79100000D01*
X185750057Y-79100000D02*
X185845295Y-79052381D01*
X185845295Y-79052381D02*
X185988152Y-79052381D01*
X185988152Y-79052381D02*
X186083390Y-79100000D01*
X186083390Y-79100000D02*
X186131009Y-79147619D01*
X186131009Y-79147619D02*
X186178628Y-79242857D01*
X186178628Y-79242857D02*
X186178628Y-79623809D01*
X186131009Y-78623809D02*
X186131009Y-78290476D01*
X186654819Y-78147619D02*
X186654819Y-78623809D01*
X186654819Y-78623809D02*
X185654819Y-78623809D01*
X185654819Y-78623809D02*
X185654819Y-78147619D01*
X186607200Y-77766666D02*
X186654819Y-77623809D01*
X186654819Y-77623809D02*
X186654819Y-77385714D01*
X186654819Y-77385714D02*
X186607200Y-77290476D01*
X186607200Y-77290476D02*
X186559580Y-77242857D01*
X186559580Y-77242857D02*
X186464342Y-77195238D01*
X186464342Y-77195238D02*
X186369104Y-77195238D01*
X186369104Y-77195238D02*
X186273866Y-77242857D01*
X186273866Y-77242857D02*
X186226247Y-77290476D01*
X186226247Y-77290476D02*
X186178628Y-77385714D01*
X186178628Y-77385714D02*
X186131009Y-77576190D01*
X186131009Y-77576190D02*
X186083390Y-77671428D01*
X186083390Y-77671428D02*
X186035771Y-77719047D01*
X186035771Y-77719047D02*
X185940533Y-77766666D01*
X185940533Y-77766666D02*
X185845295Y-77766666D01*
X185845295Y-77766666D02*
X185750057Y-77719047D01*
X185750057Y-77719047D02*
X185702438Y-77671428D01*
X185702438Y-77671428D02*
X185654819Y-77576190D01*
X185654819Y-77576190D02*
X185654819Y-77338095D01*
X185654819Y-77338095D02*
X185702438Y-77195238D01*
X186131009Y-76766666D02*
X186131009Y-76433333D01*
X186654819Y-76290476D02*
X186654819Y-76766666D01*
X186654819Y-76766666D02*
X185654819Y-76766666D01*
X185654819Y-76766666D02*
X185654819Y-76290476D01*
X185654819Y-76004761D02*
X185654819Y-75433333D01*
X186654819Y-75719047D02*
X185654819Y-75719047D01*
X186554819Y-82038094D02*
X185554819Y-82038094D01*
X185554819Y-82038094D02*
X185554819Y-81799999D01*
X185554819Y-81799999D02*
X185602438Y-81657142D01*
X185602438Y-81657142D02*
X185697676Y-81561904D01*
X185697676Y-81561904D02*
X185792914Y-81514285D01*
X185792914Y-81514285D02*
X185983390Y-81466666D01*
X185983390Y-81466666D02*
X186126247Y-81466666D01*
X186126247Y-81466666D02*
X186316723Y-81514285D01*
X186316723Y-81514285D02*
X186411961Y-81561904D01*
X186411961Y-81561904D02*
X186507200Y-81657142D01*
X186507200Y-81657142D02*
X186554819Y-81799999D01*
X186554819Y-81799999D02*
X186554819Y-82038094D01*
X186554819Y-80514285D02*
X186554819Y-81085713D01*
X186554819Y-80799999D02*
X185554819Y-80799999D01*
X185554819Y-80799999D02*
X185697676Y-80895237D01*
X185697676Y-80895237D02*
X185792914Y-80990475D01*
X185792914Y-80990475D02*
X185840533Y-81085713D01*
X111433333Y-105531009D02*
X111576190Y-105578628D01*
X111576190Y-105578628D02*
X111623809Y-105626247D01*
X111623809Y-105626247D02*
X111671428Y-105721485D01*
X111671428Y-105721485D02*
X111671428Y-105864342D01*
X111671428Y-105864342D02*
X111623809Y-105959580D01*
X111623809Y-105959580D02*
X111576190Y-106007200D01*
X111576190Y-106007200D02*
X111480952Y-106054819D01*
X111480952Y-106054819D02*
X111100000Y-106054819D01*
X111100000Y-106054819D02*
X111100000Y-105054819D01*
X111100000Y-105054819D02*
X111433333Y-105054819D01*
X111433333Y-105054819D02*
X111528571Y-105102438D01*
X111528571Y-105102438D02*
X111576190Y-105150057D01*
X111576190Y-105150057D02*
X111623809Y-105245295D01*
X111623809Y-105245295D02*
X111623809Y-105340533D01*
X111623809Y-105340533D02*
X111576190Y-105435771D01*
X111576190Y-105435771D02*
X111528571Y-105483390D01*
X111528571Y-105483390D02*
X111433333Y-105531009D01*
X111433333Y-105531009D02*
X111100000Y-105531009D01*
X112100000Y-106054819D02*
X112100000Y-105388152D01*
X112100000Y-105578628D02*
X112147619Y-105483390D01*
X112147619Y-105483390D02*
X112195238Y-105435771D01*
X112195238Y-105435771D02*
X112290476Y-105388152D01*
X112290476Y-105388152D02*
X112385714Y-105388152D01*
X112719048Y-106054819D02*
X112719048Y-105388152D01*
X112719048Y-105054819D02*
X112671429Y-105102438D01*
X112671429Y-105102438D02*
X112719048Y-105150057D01*
X112719048Y-105150057D02*
X112766667Y-105102438D01*
X112766667Y-105102438D02*
X112719048Y-105054819D01*
X112719048Y-105054819D02*
X112719048Y-105150057D01*
X113623809Y-105388152D02*
X113623809Y-106197676D01*
X113623809Y-106197676D02*
X113576190Y-106292914D01*
X113576190Y-106292914D02*
X113528571Y-106340533D01*
X113528571Y-106340533D02*
X113433333Y-106388152D01*
X113433333Y-106388152D02*
X113290476Y-106388152D01*
X113290476Y-106388152D02*
X113195238Y-106340533D01*
X113623809Y-106007200D02*
X113528571Y-106054819D01*
X113528571Y-106054819D02*
X113338095Y-106054819D01*
X113338095Y-106054819D02*
X113242857Y-106007200D01*
X113242857Y-106007200D02*
X113195238Y-105959580D01*
X113195238Y-105959580D02*
X113147619Y-105864342D01*
X113147619Y-105864342D02*
X113147619Y-105578628D01*
X113147619Y-105578628D02*
X113195238Y-105483390D01*
X113195238Y-105483390D02*
X113242857Y-105435771D01*
X113242857Y-105435771D02*
X113338095Y-105388152D01*
X113338095Y-105388152D02*
X113528571Y-105388152D01*
X113528571Y-105388152D02*
X113623809Y-105435771D01*
X114100000Y-106054819D02*
X114100000Y-105054819D01*
X114528571Y-106054819D02*
X114528571Y-105531009D01*
X114528571Y-105531009D02*
X114480952Y-105435771D01*
X114480952Y-105435771D02*
X114385714Y-105388152D01*
X114385714Y-105388152D02*
X114242857Y-105388152D01*
X114242857Y-105388152D02*
X114147619Y-105435771D01*
X114147619Y-105435771D02*
X114100000Y-105483390D01*
X114861905Y-105388152D02*
X115242857Y-105388152D01*
X115004762Y-105054819D02*
X115004762Y-105911961D01*
X115004762Y-105911961D02*
X115052381Y-106007200D01*
X115052381Y-106007200D02*
X115147619Y-106054819D01*
X115147619Y-106054819D02*
X115242857Y-106054819D01*
X115216666Y-97054819D02*
X115216666Y-97769104D01*
X115216666Y-97769104D02*
X115169047Y-97911961D01*
X115169047Y-97911961D02*
X115073809Y-98007200D01*
X115073809Y-98007200D02*
X114930952Y-98054819D01*
X114930952Y-98054819D02*
X114835714Y-98054819D01*
X115692857Y-98054819D02*
X115692857Y-97054819D01*
X115692857Y-97054819D02*
X116073809Y-97054819D01*
X116073809Y-97054819D02*
X116169047Y-97102438D01*
X116169047Y-97102438D02*
X116216666Y-97150057D01*
X116216666Y-97150057D02*
X116264285Y-97245295D01*
X116264285Y-97245295D02*
X116264285Y-97388152D01*
X116264285Y-97388152D02*
X116216666Y-97483390D01*
X116216666Y-97483390D02*
X116169047Y-97531009D01*
X116169047Y-97531009D02*
X116073809Y-97578628D01*
X116073809Y-97578628D02*
X115692857Y-97578628D01*
X117216666Y-98054819D02*
X116645238Y-98054819D01*
X116930952Y-98054819D02*
X116930952Y-97054819D01*
X116930952Y-97054819D02*
X116835714Y-97197676D01*
X116835714Y-97197676D02*
X116740476Y-97292914D01*
X116740476Y-97292914D02*
X116645238Y-97340533D01*
X120747618Y-91754819D02*
X120271428Y-91754819D01*
X120271428Y-91754819D02*
X120271428Y-90754819D01*
X121080952Y-91231009D02*
X121414285Y-91231009D01*
X121557142Y-91754819D02*
X121080952Y-91754819D01*
X121080952Y-91754819D02*
X121080952Y-90754819D01*
X121080952Y-90754819D02*
X121557142Y-90754819D01*
X122319047Y-91231009D02*
X121985714Y-91231009D01*
X121985714Y-91754819D02*
X121985714Y-90754819D01*
X121985714Y-90754819D02*
X122461904Y-90754819D01*
X122700000Y-90754819D02*
X123271428Y-90754819D01*
X122985714Y-91754819D02*
X122985714Y-90754819D01*
X186554819Y-104643332D02*
X185554819Y-104643332D01*
X185554819Y-104643332D02*
X185554819Y-104405237D01*
X185554819Y-104405237D02*
X185602438Y-104262380D01*
X185602438Y-104262380D02*
X185697676Y-104167142D01*
X185697676Y-104167142D02*
X185792914Y-104119523D01*
X185792914Y-104119523D02*
X185983390Y-104071904D01*
X185983390Y-104071904D02*
X186126247Y-104071904D01*
X186126247Y-104071904D02*
X186316723Y-104119523D01*
X186316723Y-104119523D02*
X186411961Y-104167142D01*
X186411961Y-104167142D02*
X186507200Y-104262380D01*
X186507200Y-104262380D02*
X186554819Y-104405237D01*
X186554819Y-104405237D02*
X186554819Y-104643332D01*
X185554819Y-103738570D02*
X186554819Y-103500475D01*
X186554819Y-103500475D02*
X185840533Y-103309999D01*
X185840533Y-103309999D02*
X186554819Y-103119523D01*
X186554819Y-103119523D02*
X185554819Y-102881428D01*
X186507200Y-67643332D02*
X186554819Y-67500475D01*
X186554819Y-67500475D02*
X186554819Y-67262380D01*
X186554819Y-67262380D02*
X186507200Y-67167142D01*
X186507200Y-67167142D02*
X186459580Y-67119523D01*
X186459580Y-67119523D02*
X186364342Y-67071904D01*
X186364342Y-67071904D02*
X186269104Y-67071904D01*
X186269104Y-67071904D02*
X186173866Y-67119523D01*
X186173866Y-67119523D02*
X186126247Y-67167142D01*
X186126247Y-67167142D02*
X186078628Y-67262380D01*
X186078628Y-67262380D02*
X186031009Y-67452856D01*
X186031009Y-67452856D02*
X185983390Y-67548094D01*
X185983390Y-67548094D02*
X185935771Y-67595713D01*
X185935771Y-67595713D02*
X185840533Y-67643332D01*
X185840533Y-67643332D02*
X185745295Y-67643332D01*
X185745295Y-67643332D02*
X185650057Y-67595713D01*
X185650057Y-67595713D02*
X185602438Y-67548094D01*
X185602438Y-67548094D02*
X185554819Y-67452856D01*
X185554819Y-67452856D02*
X185554819Y-67214761D01*
X185554819Y-67214761D02*
X185602438Y-67071904D01*
X186554819Y-66643332D02*
X185554819Y-66643332D01*
X185554819Y-66643332D02*
X186269104Y-66309999D01*
X186269104Y-66309999D02*
X185554819Y-65976666D01*
X185554819Y-65976666D02*
X186554819Y-65976666D01*
X186507200Y-65548094D02*
X186554819Y-65405237D01*
X186554819Y-65405237D02*
X186554819Y-65167142D01*
X186554819Y-65167142D02*
X186507200Y-65071904D01*
X186507200Y-65071904D02*
X186459580Y-65024285D01*
X186459580Y-65024285D02*
X186364342Y-64976666D01*
X186364342Y-64976666D02*
X186269104Y-64976666D01*
X186269104Y-64976666D02*
X186173866Y-65024285D01*
X186173866Y-65024285D02*
X186126247Y-65071904D01*
X186126247Y-65071904D02*
X186078628Y-65167142D01*
X186078628Y-65167142D02*
X186031009Y-65357618D01*
X186031009Y-65357618D02*
X185983390Y-65452856D01*
X185983390Y-65452856D02*
X185935771Y-65500475D01*
X185935771Y-65500475D02*
X185840533Y-65548094D01*
X185840533Y-65548094D02*
X185745295Y-65548094D01*
X185745295Y-65548094D02*
X185650057Y-65500475D01*
X185650057Y-65500475D02*
X185602438Y-65452856D01*
X185602438Y-65452856D02*
X185554819Y-65357618D01*
X185554819Y-65357618D02*
X185554819Y-65119523D01*
X185554819Y-65119523D02*
X185602438Y-64976666D01*
X116423809Y-106107200D02*
X116566666Y-106154819D01*
X116566666Y-106154819D02*
X116804761Y-106154819D01*
X116804761Y-106154819D02*
X116899999Y-106107200D01*
X116899999Y-106107200D02*
X116947618Y-106059580D01*
X116947618Y-106059580D02*
X116995237Y-105964342D01*
X116995237Y-105964342D02*
X116995237Y-105869104D01*
X116995237Y-105869104D02*
X116947618Y-105773866D01*
X116947618Y-105773866D02*
X116899999Y-105726247D01*
X116899999Y-105726247D02*
X116804761Y-105678628D01*
X116804761Y-105678628D02*
X116614285Y-105631009D01*
X116614285Y-105631009D02*
X116519047Y-105583390D01*
X116519047Y-105583390D02*
X116471428Y-105535771D01*
X116471428Y-105535771D02*
X116423809Y-105440533D01*
X116423809Y-105440533D02*
X116423809Y-105345295D01*
X116423809Y-105345295D02*
X116471428Y-105250057D01*
X116471428Y-105250057D02*
X116519047Y-105202438D01*
X116519047Y-105202438D02*
X116614285Y-105154819D01*
X116614285Y-105154819D02*
X116852380Y-105154819D01*
X116852380Y-105154819D02*
X116995237Y-105202438D01*
X117280952Y-105154819D02*
X117852380Y-105154819D01*
X117566666Y-106154819D02*
X117566666Y-105154819D01*
X118138095Y-105869104D02*
X118614285Y-105869104D01*
X118042857Y-106154819D02*
X118376190Y-105154819D01*
X118376190Y-105154819D02*
X118709523Y-106154819D01*
X119614285Y-106154819D02*
X119280952Y-105678628D01*
X119042857Y-106154819D02*
X119042857Y-105154819D01*
X119042857Y-105154819D02*
X119423809Y-105154819D01*
X119423809Y-105154819D02*
X119519047Y-105202438D01*
X119519047Y-105202438D02*
X119566666Y-105250057D01*
X119566666Y-105250057D02*
X119614285Y-105345295D01*
X119614285Y-105345295D02*
X119614285Y-105488152D01*
X119614285Y-105488152D02*
X119566666Y-105583390D01*
X119566666Y-105583390D02*
X119519047Y-105631009D01*
X119519047Y-105631009D02*
X119423809Y-105678628D01*
X119423809Y-105678628D02*
X119042857Y-105678628D01*
X119900000Y-105154819D02*
X120471428Y-105154819D01*
X120185714Y-106154819D02*
X120185714Y-105154819D01*
X186459580Y-96831428D02*
X186507200Y-96879047D01*
X186507200Y-96879047D02*
X186554819Y-97021904D01*
X186554819Y-97021904D02*
X186554819Y-97117142D01*
X186554819Y-97117142D02*
X186507200Y-97259999D01*
X186507200Y-97259999D02*
X186411961Y-97355237D01*
X186411961Y-97355237D02*
X186316723Y-97402856D01*
X186316723Y-97402856D02*
X186126247Y-97450475D01*
X186126247Y-97450475D02*
X185983390Y-97450475D01*
X185983390Y-97450475D02*
X185792914Y-97402856D01*
X185792914Y-97402856D02*
X185697676Y-97355237D01*
X185697676Y-97355237D02*
X185602438Y-97259999D01*
X185602438Y-97259999D02*
X185554819Y-97117142D01*
X185554819Y-97117142D02*
X185554819Y-97021904D01*
X185554819Y-97021904D02*
X185602438Y-96879047D01*
X185602438Y-96879047D02*
X185650057Y-96831428D01*
X186554819Y-95926666D02*
X186554819Y-96402856D01*
X186554819Y-96402856D02*
X185554819Y-96402856D01*
X185650057Y-95640951D02*
X185602438Y-95593332D01*
X185602438Y-95593332D02*
X185554819Y-95498094D01*
X185554819Y-95498094D02*
X185554819Y-95259999D01*
X185554819Y-95259999D02*
X185602438Y-95164761D01*
X185602438Y-95164761D02*
X185650057Y-95117142D01*
X185650057Y-95117142D02*
X185745295Y-95069523D01*
X185745295Y-95069523D02*
X185840533Y-95069523D01*
X185840533Y-95069523D02*
X185983390Y-95117142D01*
X185983390Y-95117142D02*
X186554819Y-95688570D01*
X186554819Y-95688570D02*
X186554819Y-95069523D01*
X186173866Y-101685713D02*
X186173866Y-100923809D01*
X186554819Y-101304761D02*
X185792914Y-101304761D01*
X185554819Y-99971428D02*
X185554819Y-100447618D01*
X185554819Y-100447618D02*
X186031009Y-100495237D01*
X186031009Y-100495237D02*
X185983390Y-100447618D01*
X185983390Y-100447618D02*
X185935771Y-100352380D01*
X185935771Y-100352380D02*
X185935771Y-100114285D01*
X185935771Y-100114285D02*
X185983390Y-100019047D01*
X185983390Y-100019047D02*
X186031009Y-99971428D01*
X186031009Y-99971428D02*
X186126247Y-99923809D01*
X186126247Y-99923809D02*
X186364342Y-99923809D01*
X186364342Y-99923809D02*
X186459580Y-99971428D01*
X186459580Y-99971428D02*
X186507200Y-100019047D01*
X186507200Y-100019047D02*
X186554819Y-100114285D01*
X186554819Y-100114285D02*
X186554819Y-100352380D01*
X186554819Y-100352380D02*
X186507200Y-100447618D01*
X186507200Y-100447618D02*
X186459580Y-100495237D01*
X185554819Y-99638094D02*
X186554819Y-99304761D01*
X186554819Y-99304761D02*
X185554819Y-98971428D01*
X114490476Y-86054819D02*
X114490476Y-86769104D01*
X114490476Y-86769104D02*
X114442857Y-86911961D01*
X114442857Y-86911961D02*
X114347619Y-87007200D01*
X114347619Y-87007200D02*
X114204762Y-87054819D01*
X114204762Y-87054819D02*
X114109524Y-87054819D01*
X115490476Y-87054819D02*
X114919048Y-87054819D01*
X115204762Y-87054819D02*
X115204762Y-86054819D01*
X115204762Y-86054819D02*
X115109524Y-86197676D01*
X115109524Y-86197676D02*
X115014286Y-86292914D01*
X115014286Y-86292914D02*
X114919048Y-86340533D01*
X115823810Y-86054819D02*
X116490476Y-86054819D01*
X116490476Y-86054819D02*
X116061905Y-87054819D01*
X115666666Y-91754819D02*
X115333333Y-91278628D01*
X115095238Y-91754819D02*
X115095238Y-90754819D01*
X115095238Y-90754819D02*
X115476190Y-90754819D01*
X115476190Y-90754819D02*
X115571428Y-90802438D01*
X115571428Y-90802438D02*
X115619047Y-90850057D01*
X115619047Y-90850057D02*
X115666666Y-90945295D01*
X115666666Y-90945295D02*
X115666666Y-91088152D01*
X115666666Y-91088152D02*
X115619047Y-91183390D01*
X115619047Y-91183390D02*
X115571428Y-91231009D01*
X115571428Y-91231009D02*
X115476190Y-91278628D01*
X115476190Y-91278628D02*
X115095238Y-91278628D01*
X116095238Y-91754819D02*
X116095238Y-90754819D01*
X117095237Y-90802438D02*
X116999999Y-90754819D01*
X116999999Y-90754819D02*
X116857142Y-90754819D01*
X116857142Y-90754819D02*
X116714285Y-90802438D01*
X116714285Y-90802438D02*
X116619047Y-90897676D01*
X116619047Y-90897676D02*
X116571428Y-90992914D01*
X116571428Y-90992914D02*
X116523809Y-91183390D01*
X116523809Y-91183390D02*
X116523809Y-91326247D01*
X116523809Y-91326247D02*
X116571428Y-91516723D01*
X116571428Y-91516723D02*
X116619047Y-91611961D01*
X116619047Y-91611961D02*
X116714285Y-91707200D01*
X116714285Y-91707200D02*
X116857142Y-91754819D01*
X116857142Y-91754819D02*
X116952380Y-91754819D01*
X116952380Y-91754819D02*
X117095237Y-91707200D01*
X117095237Y-91707200D02*
X117142856Y-91659580D01*
X117142856Y-91659580D02*
X117142856Y-91326247D01*
X117142856Y-91326247D02*
X116952380Y-91326247D01*
X117571428Y-91754819D02*
X117571428Y-90754819D01*
X117571428Y-91231009D02*
X118142856Y-91231009D01*
X118142856Y-91754819D02*
X118142856Y-90754819D01*
X118476190Y-90754819D02*
X119047618Y-90754819D01*
X118761904Y-91754819D02*
X118761904Y-90754819D01*
X134361905Y-102854819D02*
X134361905Y-101854819D01*
X134361905Y-101854819D02*
X134600000Y-101854819D01*
X134600000Y-101854819D02*
X134742857Y-101902438D01*
X134742857Y-101902438D02*
X134838095Y-101997676D01*
X134838095Y-101997676D02*
X134885714Y-102092914D01*
X134885714Y-102092914D02*
X134933333Y-102283390D01*
X134933333Y-102283390D02*
X134933333Y-102426247D01*
X134933333Y-102426247D02*
X134885714Y-102616723D01*
X134885714Y-102616723D02*
X134838095Y-102711961D01*
X134838095Y-102711961D02*
X134742857Y-102807200D01*
X134742857Y-102807200D02*
X134600000Y-102854819D01*
X134600000Y-102854819D02*
X134361905Y-102854819D01*
X135885714Y-102854819D02*
X135314286Y-102854819D01*
X135600000Y-102854819D02*
X135600000Y-101854819D01*
X135600000Y-101854819D02*
X135504762Y-101997676D01*
X135504762Y-101997676D02*
X135409524Y-102092914D01*
X135409524Y-102092914D02*
X135314286Y-102140533D01*
X186554819Y-93298094D02*
X185554819Y-93298094D01*
X185554819Y-93298094D02*
X185554819Y-93059999D01*
X185554819Y-93059999D02*
X185602438Y-92917142D01*
X185602438Y-92917142D02*
X185697676Y-92821904D01*
X185697676Y-92821904D02*
X185792914Y-92774285D01*
X185792914Y-92774285D02*
X185983390Y-92726666D01*
X185983390Y-92726666D02*
X186126247Y-92726666D01*
X186126247Y-92726666D02*
X186316723Y-92774285D01*
X186316723Y-92774285D02*
X186411961Y-92821904D01*
X186411961Y-92821904D02*
X186507200Y-92917142D01*
X186507200Y-92917142D02*
X186554819Y-93059999D01*
X186554819Y-93059999D02*
X186554819Y-93298094D01*
X185650057Y-92345713D02*
X185602438Y-92298094D01*
X185602438Y-92298094D02*
X185554819Y-92202856D01*
X185554819Y-92202856D02*
X185554819Y-91964761D01*
X185554819Y-91964761D02*
X185602438Y-91869523D01*
X185602438Y-91869523D02*
X185650057Y-91821904D01*
X185650057Y-91821904D02*
X185745295Y-91774285D01*
X185745295Y-91774285D02*
X185840533Y-91774285D01*
X185840533Y-91774285D02*
X185983390Y-91821904D01*
X185983390Y-91821904D02*
X186554819Y-92393332D01*
X186554819Y-92393332D02*
X186554819Y-91774285D01*
X128504761Y-95350057D02*
X128409523Y-95302438D01*
X128409523Y-95302438D02*
X128314285Y-95207200D01*
X128314285Y-95207200D02*
X128171428Y-95064342D01*
X128171428Y-95064342D02*
X128076190Y-95016723D01*
X128076190Y-95016723D02*
X127980952Y-95016723D01*
X128028571Y-95254819D02*
X127933333Y-95207200D01*
X127933333Y-95207200D02*
X127838095Y-95111961D01*
X127838095Y-95111961D02*
X127790476Y-94921485D01*
X127790476Y-94921485D02*
X127790476Y-94588152D01*
X127790476Y-94588152D02*
X127838095Y-94397676D01*
X127838095Y-94397676D02*
X127933333Y-94302438D01*
X127933333Y-94302438D02*
X128028571Y-94254819D01*
X128028571Y-94254819D02*
X128219047Y-94254819D01*
X128219047Y-94254819D02*
X128314285Y-94302438D01*
X128314285Y-94302438D02*
X128409523Y-94397676D01*
X128409523Y-94397676D02*
X128457142Y-94588152D01*
X128457142Y-94588152D02*
X128457142Y-94921485D01*
X128457142Y-94921485D02*
X128409523Y-95111961D01*
X128409523Y-95111961D02*
X128314285Y-95207200D01*
X128314285Y-95207200D02*
X128219047Y-95254819D01*
X128219047Y-95254819D02*
X128028571Y-95254819D01*
X129409523Y-95254819D02*
X128838095Y-95254819D01*
X129123809Y-95254819D02*
X129123809Y-94254819D01*
X129123809Y-94254819D02*
X129028571Y-94397676D01*
X129028571Y-94397676D02*
X128933333Y-94492914D01*
X128933333Y-94492914D02*
X128838095Y-94540533D01*
D13*
%TO.C,U1*%
X128750000Y-88510000D02*
X129050000Y-88510000D01*
X128750000Y-88510000D02*
X128750000Y-67510000D01*
X131150000Y-88510000D02*
X131550000Y-88510000D01*
X131417000Y-88510000D02*
X131417000Y-85503000D01*
X133750000Y-88510000D02*
X134150000Y-88510000D01*
X136250000Y-88510000D02*
X136650000Y-88510000D01*
X138850000Y-88510000D02*
X139250000Y-88510000D01*
X141350000Y-88510000D02*
X141750000Y-88510000D01*
X143850000Y-88510000D02*
X144250000Y-88510000D01*
X146450000Y-88510000D02*
X146850000Y-88510000D01*
X148950000Y-88510000D02*
X149350000Y-88510000D01*
X151550000Y-88510000D02*
X151950000Y-88510000D01*
X154050000Y-88510000D02*
X154450000Y-88510000D01*
X156550000Y-88510000D02*
X156950000Y-88510000D01*
X159150000Y-88510000D02*
X159550000Y-88510000D01*
X161650000Y-88510000D02*
X162050000Y-88510000D01*
X164250000Y-88510000D02*
X164650000Y-88510000D01*
X166750000Y-88510000D02*
X167150000Y-88510000D01*
X169350000Y-88510000D02*
X169750000Y-88510000D01*
X171850000Y-88510000D02*
X172250000Y-88510000D01*
X174350000Y-88510000D02*
X174750000Y-88510000D01*
X176950000Y-88510000D02*
X177350000Y-88510000D01*
X131417000Y-85503000D02*
X128750000Y-85503000D01*
X179750000Y-81710000D02*
X179750000Y-88510000D01*
X179750000Y-79510000D02*
X179750000Y-79110000D01*
X179750000Y-76910000D02*
X179750000Y-76510000D01*
X128750000Y-67510000D02*
X129050000Y-67510000D01*
X131150000Y-67510000D02*
X131550000Y-67510000D01*
X133750000Y-67510000D02*
X134150000Y-67510000D01*
X136250000Y-67510000D02*
X136650000Y-67510000D01*
X138850000Y-67510000D02*
X139250000Y-67510000D01*
X141350000Y-67510000D02*
X141750000Y-67510000D01*
X143850000Y-67510000D02*
X144250000Y-67510000D01*
X146450000Y-67510000D02*
X146850000Y-67510000D01*
X148950000Y-67510000D02*
X149350000Y-67510000D01*
X151550000Y-67510000D02*
X151950000Y-67510000D01*
X154050000Y-67510000D02*
X154450000Y-67510000D01*
X156550000Y-67510000D02*
X156950000Y-67510000D01*
X159150000Y-67510000D02*
X159550000Y-67510000D01*
X161650000Y-67510000D02*
X162050000Y-67510000D01*
X164250000Y-67510000D02*
X164650000Y-67510000D01*
X166750000Y-67510000D02*
X167150000Y-67510000D01*
X169350000Y-67510000D02*
X169750000Y-67510000D01*
X171850000Y-67510000D02*
X172250000Y-67510000D01*
X174350000Y-67510000D02*
X174750000Y-67510000D01*
X176950000Y-67510000D02*
X177350000Y-67510000D01*
X179750000Y-67510000D02*
X179750000Y-74310000D01*
%TO.C,J16*%
X182700000Y-72600000D02*
X185100000Y-72600000D01*
X182700000Y-75000000D02*
X182700000Y-72600000D01*
X185100000Y-72600000D02*
X185100000Y-75000000D01*
X185100000Y-75000000D02*
X182700000Y-75000000D01*
%TO.C,J5*%
X182700000Y-83850000D02*
X185100000Y-83850000D01*
X182700000Y-86250000D02*
X182700000Y-83850000D01*
X185100000Y-83850000D02*
X185100000Y-86250000D01*
X185100000Y-86250000D02*
X182700000Y-86250000D01*
%TO.C,R3*%
X112180000Y-96260000D02*
X112180000Y-92420000D01*
X114020000Y-96260000D02*
X114020000Y-92420000D01*
%TO.C,J4*%
X182700000Y-87600000D02*
X185100000Y-87600000D01*
X182700000Y-90000000D02*
X182700000Y-87600000D01*
X185100000Y-87600000D02*
X185100000Y-90000000D01*
X185100000Y-90000000D02*
X182700000Y-90000000D01*
%TO.C,J8*%
X182700000Y-68850000D02*
X185100000Y-68850000D01*
X182700000Y-71250000D02*
X182700000Y-68850000D01*
X185100000Y-68850000D02*
X185100000Y-71250000D01*
X185100000Y-71250000D02*
X182700000Y-71250000D01*
%TO.C,D2*%
X126370000Y-103830000D02*
X131810000Y-103830000D01*
X126370000Y-104160000D02*
X126370000Y-103830000D01*
X126370000Y-106440000D02*
X126370000Y-106770000D01*
X126370000Y-106770000D02*
X131810000Y-106770000D01*
X127150000Y-103830000D02*
X127150000Y-106770000D01*
X127270000Y-103830000D02*
X127270000Y-106770000D01*
X127390000Y-103830000D02*
X127390000Y-106770000D01*
X131810000Y-103830000D02*
X131810000Y-104160000D01*
X131810000Y-106770000D02*
X131810000Y-106440000D01*
%TO.C,J13*%
X182700000Y-76350000D02*
X185100000Y-76350000D01*
X182700000Y-78750000D02*
X182700000Y-76350000D01*
X185100000Y-76350000D02*
X185100000Y-78750000D01*
X185100000Y-78750000D02*
X182700000Y-78750000D01*
%TO.C,J2*%
X182700000Y-80100000D02*
X185100000Y-80100000D01*
X182700000Y-82500000D02*
X182700000Y-80100000D01*
X185100000Y-80100000D02*
X185100000Y-82500000D01*
X185100000Y-82500000D02*
X182700000Y-82500000D01*
%TO.C,J1*%
X111900000Y-101900000D02*
X114300000Y-101900000D01*
X111900000Y-104300000D02*
X111900000Y-101900000D01*
X114300000Y-101900000D02*
X114300000Y-104300000D01*
X114300000Y-104300000D02*
X111900000Y-104300000D01*
%TO.C,JP1*%
X114650000Y-99700000D02*
X114650000Y-99100000D01*
X115350000Y-98400000D02*
X116750000Y-98400000D01*
X116750000Y-100400000D02*
X115350000Y-100400000D01*
X117450000Y-99100000D02*
X117450000Y-99700000D01*
X115350000Y-98400000D02*
G75*
G03*
X114650000Y-99100000I-1J-699999D01*
G01*
X114650000Y-99700000D02*
G75*
G03*
X115350000Y-100400000I699999J-1D01*
G01*
X117450000Y-99100000D02*
G75*
G03*
X116750000Y-98400000I-700000J0D01*
G01*
X116750000Y-100400000D02*
G75*
G03*
X117450000Y-99700000I0J700000D01*
G01*
%TO.C,J10*%
X122900000Y-90100000D02*
X120500000Y-90100000D01*
X122900000Y-87700000D02*
X122900000Y-90100000D01*
X120500000Y-90100000D02*
X120500000Y-87700000D01*
X120500000Y-87700000D02*
X122900000Y-87700000D01*
%TO.C,J7*%
X182700000Y-102600000D02*
X185100000Y-102600000D01*
X182700000Y-105000000D02*
X182700000Y-102600000D01*
X185100000Y-102600000D02*
X185100000Y-105000000D01*
X185100000Y-105000000D02*
X182700000Y-105000000D01*
%TO.C,J9*%
X182700000Y-65100000D02*
X185100000Y-65100000D01*
X182700000Y-67500000D02*
X182700000Y-65100000D01*
X185100000Y-65100000D02*
X185100000Y-67500000D01*
X185100000Y-67500000D02*
X182700000Y-67500000D01*
%TO.C,J12*%
X117200000Y-101900000D02*
X119600000Y-101900000D01*
X117200000Y-104300000D02*
X117200000Y-101900000D01*
X119600000Y-101900000D02*
X119600000Y-104300000D01*
X119600000Y-104300000D02*
X117200000Y-104300000D01*
%TO.C,J6*%
X182700000Y-95100000D02*
X185100000Y-95100000D01*
X182700000Y-97500000D02*
X182700000Y-95100000D01*
X185100000Y-95100000D02*
X185100000Y-97500000D01*
X185100000Y-97500000D02*
X182700000Y-97500000D01*
%TO.C,J15*%
X182700000Y-98850000D02*
X185100000Y-98850000D01*
X182700000Y-101250000D02*
X182700000Y-98850000D01*
X185100000Y-98850000D02*
X185100000Y-101250000D01*
X185100000Y-101250000D02*
X182700000Y-101250000D01*
%TO.C,J17*%
X123830000Y-70170000D02*
X108470000Y-70170000D01*
X123830000Y-70170000D02*
X123830000Y-78800000D01*
X123710000Y-70170000D02*
X123710000Y-78800000D01*
X123591905Y-70170000D02*
X123591905Y-78800000D01*
X123473810Y-70170000D02*
X123473810Y-78800000D01*
X123355715Y-70170000D02*
X123355715Y-78800000D01*
X123237620Y-70170000D02*
X123237620Y-78800000D01*
X123119525Y-70170000D02*
X123119525Y-78800000D01*
X123001430Y-70170000D02*
X123001430Y-78800000D01*
X122883335Y-70170000D02*
X122883335Y-78800000D01*
X122765240Y-70170000D02*
X122765240Y-78800000D01*
X122647145Y-70170000D02*
X122647145Y-78800000D01*
X122529050Y-70170000D02*
X122529050Y-78800000D01*
X122410955Y-70170000D02*
X122410955Y-78800000D01*
X122292860Y-70170000D02*
X122292860Y-78800000D01*
X122174765Y-70170000D02*
X122174765Y-78800000D01*
X122056670Y-70170000D02*
X122056670Y-78800000D01*
X121938575Y-70170000D02*
X121938575Y-78800000D01*
X121820480Y-70170000D02*
X121820480Y-78800000D01*
X121702385Y-70170000D02*
X121702385Y-78800000D01*
X121584290Y-70170000D02*
X121584290Y-78800000D01*
X121466195Y-70170000D02*
X121466195Y-78800000D01*
X121348100Y-70170000D02*
X121348100Y-78800000D01*
X121230000Y-70170000D02*
X121230000Y-78800000D01*
X118690000Y-70170000D02*
X118690000Y-78800000D01*
X116150000Y-70170000D02*
X116150000Y-78800000D01*
X113610000Y-70170000D02*
X113610000Y-78800000D01*
X111070000Y-70170000D02*
X111070000Y-78800000D01*
X108470000Y-70170000D02*
X108470000Y-78800000D01*
X123830000Y-78800000D02*
X108470000Y-78800000D01*
X122860000Y-78800000D02*
X122860000Y-79210000D01*
X122140000Y-78800000D02*
X122140000Y-79210000D01*
X120320000Y-78800000D02*
X120320000Y-79210000D01*
X119600000Y-78800000D02*
X119600000Y-79210000D01*
X117780000Y-78800000D02*
X117780000Y-79210000D01*
X117060000Y-78800000D02*
X117060000Y-79210000D01*
X115240000Y-78800000D02*
X115240000Y-79210000D01*
X114520000Y-78800000D02*
X114520000Y-79210000D01*
X112700000Y-78800000D02*
X112700000Y-79210000D01*
X111980000Y-78800000D02*
X111980000Y-79210000D01*
X110160000Y-78800000D02*
X110160000Y-79210000D01*
X109440000Y-78800000D02*
X109440000Y-79210000D01*
X122860000Y-81310000D02*
X122860000Y-81690000D01*
X122140000Y-81310000D02*
X122140000Y-81690000D01*
X120320000Y-81310000D02*
X120320000Y-81750000D01*
X119600000Y-81310000D02*
X119600000Y-81750000D01*
X117780000Y-81310000D02*
X117780000Y-81750000D01*
X117060000Y-81310000D02*
X117060000Y-81750000D01*
X115240000Y-81310000D02*
X115240000Y-81750000D01*
X114520000Y-81310000D02*
X114520000Y-81750000D01*
X112700000Y-81310000D02*
X112700000Y-81750000D01*
X111980000Y-81310000D02*
X111980000Y-81750000D01*
X110160000Y-81310000D02*
X110160000Y-81750000D01*
X109440000Y-81310000D02*
X109440000Y-81750000D01*
X123830000Y-82800000D02*
X123830000Y-83910000D01*
X123830000Y-83910000D02*
X122500000Y-83910000D01*
%TO.C,J11*%
X118700000Y-90100000D02*
X116300000Y-90100000D01*
X118700000Y-87700000D02*
X118700000Y-90100000D01*
X116300000Y-90100000D02*
X116300000Y-87700000D01*
X116300000Y-87700000D02*
X118700000Y-87700000D01*
%TO.C,D1*%
X129390000Y-101400000D02*
X129390000Y-103400000D01*
X129390000Y-101400000D02*
X133400000Y-101400000D01*
X129390000Y-103400000D02*
X133400000Y-103400000D01*
%TO.C,J3*%
X182700000Y-91350000D02*
X185100000Y-91350000D01*
X182700000Y-93750000D02*
X182700000Y-91350000D01*
X185100000Y-91350000D02*
X185100000Y-93750000D01*
X185100000Y-93750000D02*
X182700000Y-93750000D01*
%TO.C,Q1*%
X123000000Y-96620000D02*
X126600000Y-96620000D01*
X124800000Y-92170000D02*
G75*
G03*
X122961522Y-96608478I0J-2600000D01*
G01*
X126638478Y-96608478D02*
G75*
G03*
X124800000Y-92170000I-1838478J1838478D01*
G01*
%TD*%
%LPC*%
D14*
%TO.C,U1*%
X130250000Y-80735000D03*
D15*
X133280000Y-80435000D03*
X133280000Y-75585000D03*
D14*
X130250000Y-75285000D03*
D16*
X130120000Y-86900000D03*
D17*
X130120000Y-87800000D03*
D16*
X132660000Y-86900000D03*
D17*
X132660000Y-87800000D03*
D18*
X135200000Y-86900000D03*
D17*
X135200000Y-87800000D03*
D16*
X137740000Y-86900000D03*
D17*
X137740000Y-87800000D03*
D16*
X140280000Y-86900000D03*
D17*
X140280000Y-87800000D03*
D16*
X142820000Y-86900000D03*
D17*
X142820000Y-87800000D03*
D16*
X145360000Y-86900000D03*
D17*
X145360000Y-87800000D03*
D18*
X147900000Y-86900000D03*
D17*
X147900000Y-87800000D03*
D16*
X150440000Y-86900000D03*
D17*
X150440000Y-87800000D03*
D16*
X152980000Y-86900000D03*
D17*
X152980000Y-87800000D03*
D16*
X155520000Y-86900000D03*
D17*
X155520000Y-87800000D03*
D16*
X158060000Y-86900000D03*
D17*
X158060000Y-87800000D03*
D18*
X160600000Y-86900000D03*
D17*
X160600000Y-87800000D03*
D16*
X163140000Y-86900000D03*
D17*
X163140000Y-87800000D03*
D16*
X165680000Y-86900000D03*
D17*
X165680000Y-87800000D03*
D16*
X168220000Y-86900000D03*
D17*
X168220000Y-87800000D03*
D16*
X170760000Y-86900000D03*
D17*
X170760000Y-87800000D03*
D18*
X173300000Y-86900000D03*
D17*
X173300000Y-87800000D03*
D16*
X175840000Y-86900000D03*
D17*
X175840000Y-87800000D03*
D16*
X178380000Y-86900000D03*
D17*
X178380000Y-87800000D03*
D16*
X178380000Y-69120000D03*
D17*
X178380000Y-68220000D03*
D16*
X175840000Y-69120000D03*
D17*
X175840000Y-68220000D03*
D18*
X173300000Y-69120000D03*
D17*
X173300000Y-68220000D03*
D16*
X170760000Y-69120000D03*
D17*
X170760000Y-68220000D03*
D16*
X168220000Y-69120000D03*
D17*
X168220000Y-68220000D03*
D16*
X165680000Y-69120000D03*
D17*
X165680000Y-68220000D03*
D16*
X163140000Y-69120000D03*
D17*
X163140000Y-68220000D03*
D18*
X160600000Y-69120000D03*
D17*
X160600000Y-68220000D03*
D16*
X158060000Y-69120000D03*
D17*
X158060000Y-68220000D03*
D16*
X155520000Y-69120000D03*
D17*
X155520000Y-68220000D03*
D16*
X152980000Y-69120000D03*
D17*
X152980000Y-68220000D03*
D16*
X150440000Y-69120000D03*
D17*
X150440000Y-68220000D03*
D18*
X147900000Y-69120000D03*
D17*
X147900000Y-68220000D03*
D16*
X145360000Y-69120000D03*
D17*
X145360000Y-68220000D03*
D16*
X142820000Y-69120000D03*
D17*
X142820000Y-68220000D03*
D16*
X140280000Y-69120000D03*
D17*
X140280000Y-68220000D03*
D16*
X137740000Y-69120000D03*
D17*
X137740000Y-68220000D03*
D18*
X135200000Y-69120000D03*
D17*
X135200000Y-68220000D03*
D16*
X132660000Y-69120000D03*
D17*
X132660000Y-68220000D03*
D16*
X130120000Y-69120000D03*
D17*
X130120000Y-68220000D03*
D16*
X178150000Y-80550000D03*
D19*
X179050000Y-80550000D03*
D18*
X178150000Y-78010000D03*
D19*
X179050000Y-78010000D03*
D16*
X178150000Y-75470000D03*
D19*
X179050000Y-75470000D03*
%TD*%
D20*
%TO.C,Boost-Board1*%
X173400000Y-103300000D03*
X173400000Y-96100000D03*
X142400000Y-103370000D03*
X142400000Y-96170000D03*
%TD*%
D21*
%TO.C,J16*%
X183900000Y-73800000D03*
%TD*%
%TO.C,J5*%
X183900000Y-85050000D03*
%TD*%
D22*
%TO.C,R3*%
X113100000Y-96880000D03*
D23*
X113100000Y-91800000D03*
%TD*%
D24*
%TO.C,J14*%
X110760000Y-109860000D03*
X110760000Y-112400000D03*
X113300000Y-109860000D03*
X113300000Y-112400000D03*
X115840000Y-109860000D03*
X115840000Y-112400000D03*
X118380000Y-109860000D03*
X118380000Y-112400000D03*
X120920000Y-109860000D03*
X120920000Y-112400000D03*
X123460000Y-109860000D03*
X123460000Y-112400000D03*
X126000000Y-109860000D03*
X126000000Y-112400000D03*
X128540000Y-109860000D03*
X128540000Y-112400000D03*
X131080000Y-109860000D03*
X131080000Y-112400000D03*
X133620000Y-109860000D03*
X133620000Y-112400000D03*
X136160000Y-109860000D03*
X136160000Y-112400000D03*
X138700000Y-109860000D03*
X138700000Y-112400000D03*
X141240000Y-109860000D03*
X141240000Y-112400000D03*
X143780000Y-109860000D03*
X143780000Y-112400000D03*
X146320000Y-109860000D03*
X146320000Y-112400000D03*
X148860000Y-109860000D03*
X148860000Y-112400000D03*
X151400000Y-109860000D03*
X151400000Y-112400000D03*
X153940000Y-109860000D03*
X153940000Y-112400000D03*
X156480000Y-109860000D03*
X156480000Y-112400000D03*
X159020000Y-109860000D03*
X159020000Y-112400000D03*
X161560000Y-109860000D03*
X161560000Y-112400000D03*
X164100000Y-109860000D03*
X164100000Y-112400000D03*
X166640000Y-109860000D03*
X166640000Y-112400000D03*
X169180000Y-109860000D03*
X169180000Y-112400000D03*
X171720000Y-109860000D03*
X171720000Y-112400000D03*
X174260000Y-109860000D03*
X174260000Y-112400000D03*
X176800000Y-109860000D03*
X184420000Y-109860000D03*
X176800000Y-112400000D03*
X179340000Y-109860000D03*
X179340000Y-112400000D03*
X181880000Y-109860000D03*
X181880000Y-112400000D03*
X184420000Y-112400000D03*
%TD*%
D21*
%TO.C,J4*%
X183900000Y-88800000D03*
%TD*%
%TO.C,J8*%
X183900000Y-70050000D03*
%TD*%
D25*
%TO.C,D2*%
X125280000Y-105300000D03*
D14*
X132900000Y-105300000D03*
%TD*%
D21*
%TO.C,J13*%
X183900000Y-77550000D03*
%TD*%
%TO.C,J2*%
X183900000Y-81300000D03*
%TD*%
%TO.C,J1*%
X113100000Y-103100000D03*
%TD*%
D26*
%TO.C,JP1*%
X115400000Y-99400000D03*
D27*
X116700000Y-99400000D03*
%TD*%
D21*
%TO.C,J10*%
X121700000Y-88900000D03*
%TD*%
%TO.C,J7*%
X183900000Y-103800000D03*
%TD*%
%TO.C,J9*%
X183900000Y-66300000D03*
%TD*%
%TO.C,J12*%
X118400000Y-103100000D03*
%TD*%
%TO.C,J6*%
X183900000Y-96300000D03*
%TD*%
%TO.C,J15*%
X183900000Y-100050000D03*
%TD*%
D18*
%TO.C,J17*%
X122500000Y-82800000D03*
D16*
X122500000Y-80260000D03*
X119960000Y-82800000D03*
X119960000Y-80260000D03*
X117420000Y-82800000D03*
X117420000Y-80260000D03*
X114880000Y-82800000D03*
X114880000Y-80260000D03*
X112340000Y-82800000D03*
X112340000Y-80260000D03*
X109800000Y-82800000D03*
X109800000Y-80260000D03*
%TD*%
D21*
%TO.C,J11*%
X117500000Y-88900000D03*
%TD*%
D28*
%TO.C,D1*%
X130100000Y-102400000D03*
X133400000Y-102400000D03*
%TD*%
D21*
%TO.C,J3*%
X183900000Y-92550000D03*
%TD*%
D29*
%TO.C,Q1*%
X123530000Y-94770000D03*
D30*
X124800000Y-93500000D03*
X126070000Y-94770000D03*
%TD*%
%LPD*%
M02*
