M48
; DRILL file {KiCad 7.0.11-7.0.11~ubuntu22.04.1} date Sun 30 Jun 2024 10:09:10 -03
; FORMAT={-:-/ absolute / inch / decimal}
; #@! TF.CreationDate,2024-06-30T10:09:10-03:00
; #@! TF.GenerationSoftware,Kicad,Pcbnew,7.0.11-7.0.11~ubuntu22.04.1
; #@! TF.FileFunction,Plated,1,4,PTH
FMAT,2
INCH
; #@! TA.AperFunction,Plated,PTH,ViaDrill
T1C0.0118
; #@! TA.AperFunction,Plated,PTH,ComponentDrill
T2C0.0138
; #@! TA.AperFunction,Plated,PTH,ViaDrill
T3C0.0157
; #@! TA.AperFunction,Plated,PTH,ComponentDrill
T4C0.0236
; #@! TA.AperFunction,Plated,PTH,ViaDrill
T5C0.0276
; #@! TA.AperFunction,Plated,PTH,ComponentDrill
T6C0.0394
; #@! TA.AperFunction,Plated,PTH,ComponentDrill
T7C0.0512
%
G90
G05
T1
X5.0492Y-3.3268
X5.0626Y-3.3799
X5.0866Y-3.128
X5.1083Y-3.1634
X5.2004Y-3.6063
X5.2382Y-4.3504
X5.2776Y-4.3976
X5.313Y-4.1437
X5.3465Y-4.4134
X5.3878Y-4.4134
X5.4567Y-4.4331
X5.4606Y-4.4646
X5.4606Y-4.5157
X5.4764Y-3.1102
X5.4783Y-3.189
X5.4783Y-3.2953
X5.4862Y-3.3346
X5.5081Y-3.4247
X5.5081Y-3.4995
X5.5081Y-3.5665
X5.5098Y-3.311
X5.5138Y-3.3701
X5.5138Y-4.4705
X5.5554Y-3.8441
X5.5593Y-3.5468
X5.561Y-3.3346
X5.561Y-3.5787
X5.5689Y-3.3661
X5.5807Y-4.2205
X5.6144Y-3.6867
X5.6437Y-2.8622
X5.6555Y-3.2756
X5.6654Y-4.2579
X5.6752Y-2.7185
X5.6791Y-3.2539
X5.6988Y-4.2579
X5.7047Y-2.7539
X5.7106Y-3.2539
X5.7286Y-3.3284
X5.7303Y-3.6614
X5.7303Y-4.2657
X5.7382Y-2.7697
X5.7382Y-4.4606
X5.7421Y-3.2598
X5.7421Y-3.5906
X5.768Y-3.6964
X5.7697Y-2.7854
X5.7719Y-3.3599
X5.7736Y-3.252
X5.7815Y-2.815
X5.7913Y-4.1083
X5.7992Y-3.2205
X5.8012Y-3.6457
X5.8287Y-3.626
X5.831Y-3.1295
X5.8386Y-4.2933
X5.8484Y-3.4803
X5.8602Y-3.626
X5.8602Y-4.1043
X5.8681Y-3.5866
X5.9055Y-4.0846
X5.9058Y-3.8284
X5.9294Y-2.972
X5.9333Y-3.7869
X5.9469Y-3.4882
X5.9665Y-3.4606
X5.9823Y-3.6181
X5.9823Y-4.2972
X6.018Y-3.0901
X6.0374Y-3.437
X6.0413Y-3.689
X6.0515Y-3.094
X6.0768Y-3.5709
X6.0807Y-3.3284
X6.1083Y-3.3599
X6.122Y-4.0768
X6.124Y-3.4803
X6.1358Y-3.2441
X6.1398Y-4.0138
X6.1594Y-3.4724
X6.1732Y-4.2992
X6.1909Y-3.4606
X6.2362Y-4.5177
X6.2421Y-3.5945
X6.3445Y-3.9764
X6.372Y-4.5177
X6.6161Y-2.9528
X6.6319Y-3.5433
X6.6713Y-3.4961
X7.061Y-3.2953
X7.2854Y-3.2835
T2
X5.6603Y-3.463
X5.6958Y-3.4275
X5.6958Y-3.4985
X5.7313Y-3.392
X5.7313Y-3.463
X5.7313Y-3.534
X5.7668Y-3.4275
X5.7668Y-3.4985
X5.8023Y-3.463
T3
X4.7638Y-2.3957
X4.8228Y-2.8205
X4.8711Y-2.5187
X4.874Y-2.2106
X4.8878Y-2.9169
X4.9075Y-2.5177
X4.9134Y-2.8835
X4.9272Y-2.8323
X4.935Y-2.2067
X4.9685Y-2.5197
X5.0039Y-2.5217
X5.0512Y-3.039
X5.0827Y-2.5217
X5.1181Y-2.5236
X5.1217Y-3.626
X5.1217Y-3.6673
X5.1217Y-3.8248
X5.1217Y-3.8819
X5.1555Y-2.5236
X5.2736Y-3.6535
X5.3074Y-3.3893
X5.3152Y-3.4759
X5.3152Y-3.5586
X5.3287Y-3.6732
X5.3346Y-2.9173
X5.3822Y-3.7318
X5.394Y-3.6964
X5.5593Y-4.0489
X5.5593Y-4.1276
X5.6457Y-3.0256
X5.6594Y-4.4331
X5.6791Y-4.5118
X5.6853Y-3.9701
X5.7249Y-3.8296
X5.7286Y-4.0882
X5.8051Y-3.0276
X6.0236Y-3.939
X6.2106Y-4.0551
X6.2697Y-3.9921
X6.3189Y-3.1988
X6.3937Y-3.1988
X6.4587Y-3.3228
X6.4665Y-3.563
X6.502Y-3.1988
X6.5177Y-3.6417
X6.5866Y-3.2087
X6.6161Y-2.8425
X6.6437Y-3.3031
X6.7894Y-2.7992
X6.7894Y-2.8661
X6.8169Y-3.0787
X6.8406Y-2.7638
X6.8602Y-3.2087
X6.9311Y-2.7598
X6.9862Y-2.815
X6.9862Y-3.089
X6.9862Y-3.9724
X7.0295Y-3.0591
X7.0295Y-4.2717
X7.0528Y-3.189
X7.25Y-3.189
X7.2776Y-3.0315
X7.2776Y-3.1378
X7.4272Y-3.0945
T5
X6.5394Y-4.1299
X6.5591Y-4.4134
X6.7264Y-4.374
X6.7559Y-4.3346
X6.8346Y-4.3346
X6.8642Y-4.374
X6.8839Y-4.2559
X6.9626Y-4.187
X7.0315Y-4.4134
T6
X6.4713Y-3.8409
X6.4713Y-3.9409
X6.5713Y-3.8409
X6.5713Y-3.9409
X6.6713Y-3.8409
X6.6713Y-3.9409
T7
X4.4665Y-2.0846
X4.4902Y-2.2776
X5.061Y-2.2776
X5.0846Y-2.0846
T4
G00X4.8563Y-3.5839
M15
G01X4.8248Y-3.5839
M16
G05
G00X4.8563Y-3.9244
M15
G01X4.8248Y-3.9244
M16
G05
G00X5.0276Y-3.5839
M15
G01X4.9843Y-3.5839
M16
G05
G00X5.0276Y-3.9244
M15
G01X4.9843Y-3.9244
M16
G05
M30
