%TF.GenerationSoftware,KiCad,Pcbnew,7.0.11-7.0.11~ubuntu22.04.1*%
%TF.CreationDate,2024-06-30T10:09:10-03:00*%
%TF.ProjectId,Pico_GG_LCD,5069636f-5f47-4475-9f4c-43442e6b6963,rev?*%
%TF.SameCoordinates,Original*%
%TF.FileFunction,Copper,L2,Inr*%
%TF.FilePolarity,Positive*%
%FSLAX46Y46*%
G04 Gerber Fmt 4.6, Leading zero omitted, Abs format (unit mm)*
G04 Created by KiCad (PCBNEW 7.0.11-7.0.11~ubuntu22.04.1) date 2024-06-30 10:09:10*
%MOMM*%
%LPD*%
G01*
G04 APERTURE LIST*
%TA.AperFunction,ComponentPad*%
%ADD10C,1.800000*%
%TD*%
%TA.AperFunction,ComponentPad*%
%ADD11C,0.800000*%
%TD*%
%TA.AperFunction,ComponentPad*%
%ADD12O,2.100000X1.000000*%
%TD*%
%TA.AperFunction,ComponentPad*%
%ADD13O,1.800000X1.000000*%
%TD*%
%TA.AperFunction,ComponentPad*%
%ADD14R,1.700000X1.700000*%
%TD*%
%TA.AperFunction,ComponentPad*%
%ADD15O,1.700000X1.700000*%
%TD*%
%TA.AperFunction,ViaPad*%
%ADD16C,0.800000*%
%TD*%
%TA.AperFunction,ViaPad*%
%ADD17C,1.000000*%
%TD*%
%TA.AperFunction,ViaPad*%
%ADD18C,0.600000*%
%TD*%
%TA.AperFunction,Conductor*%
%ADD19C,0.200000*%
%TD*%
G04 APERTURE END LIST*
D10*
%TO.N,unconnected-(J9-PadSH)*%
%TO.C,J9*%
X129150000Y-52950000D03*
X128550000Y-57850000D03*
X114050000Y-57850000D03*
X113450000Y-52950000D03*
%TD*%
D11*
%TO.N,GND*%
%TO.C,U7*%
X145575814Y-89762841D03*
X146477375Y-88861280D03*
X147378936Y-87959719D03*
X144674253Y-88861280D03*
X145575814Y-87959719D03*
X146477375Y-87058158D03*
X143772692Y-87959719D03*
X144674253Y-87058158D03*
X145575814Y-86156597D03*
%TD*%
D12*
%TO.N,unconnected-(P1-SHIELD-PadS1)*%
%TO.C,P1*%
X127150000Y-91030000D03*
D13*
X122950000Y-91030000D03*
D12*
X127150000Y-99680000D03*
D13*
X122950000Y-99680000D03*
%TD*%
D14*
%TO.N,SWD*%
%TO.C,J11*%
X169450000Y-97560000D03*
D15*
%TO.N,GND*%
X169450000Y-100100000D03*
%TO.N,SWCLK*%
X166910000Y-97560000D03*
%TO.N,unconnected-(J11-Pin_4-Pad4)*%
X166910000Y-100100000D03*
%TO.N,RUN*%
X164370000Y-97560000D03*
%TO.N,Net-(J11-Pin_6)*%
X164370000Y-100100000D03*
%TD*%
D16*
%TO.N,GND*%
X145412533Y-97271716D03*
X168750000Y-83900000D03*
X130090000Y-92100000D03*
X176050000Y-70100000D03*
X124800000Y-73240000D03*
D17*
X178600000Y-112100000D03*
X174850000Y-108100000D03*
D16*
X123800000Y-56150000D03*
X125350000Y-56050000D03*
D18*
X153450000Y-93700000D03*
X152857008Y-78488363D03*
D17*
X166100000Y-104900000D03*
D16*
X136707008Y-94788363D03*
X135007008Y-90388363D03*
X125150000Y-71940000D03*
D18*
X129200000Y-79450000D03*
D16*
X177450000Y-71500000D03*
D18*
X139100000Y-79000000D03*
X140050000Y-113550000D03*
X148300000Y-109050000D03*
X134050000Y-111700000D03*
D16*
X130090000Y-98600000D03*
X137007008Y-93888363D03*
X122500000Y-71640000D03*
D17*
X176850000Y-106350000D03*
D18*
X129750000Y-80350000D03*
D17*
X166600000Y-112100000D03*
D16*
X144407008Y-100840912D03*
X135007008Y-88288363D03*
X144250000Y-114600000D03*
D18*
X150607008Y-75488363D03*
X153707008Y-78588363D03*
D16*
X184850000Y-79700000D03*
X157750000Y-103000000D03*
X184850000Y-77000000D03*
D18*
X161850000Y-114750000D03*
D16*
X124150000Y-74090000D03*
X135500000Y-74100000D03*
D18*
X158400000Y-114750000D03*
X138700000Y-114700000D03*
D16*
X159250000Y-101400000D03*
X188650000Y-78600000D03*
D18*
X150707008Y-96188363D03*
D16*
X168050000Y-72200000D03*
D18*
X148107008Y-79488363D03*
X136850000Y-112100000D03*
D16*
X134807008Y-86088363D03*
X145507008Y-103840912D03*
D18*
X143350000Y-72700000D03*
X133050000Y-110500000D03*
X128590000Y-85850000D03*
X151950000Y-109150000D03*
D16*
X167300000Y-81500000D03*
X160500000Y-81250000D03*
D18*
%TO.N,+3V3*%
X135800000Y-112100000D03*
D16*
X164050000Y-84400000D03*
X173750000Y-70200000D03*
D17*
X174350000Y-111100000D03*
D18*
X138700000Y-113400000D03*
D16*
X143400000Y-76850000D03*
D18*
X139907008Y-88888363D03*
D16*
X143750000Y-112600000D03*
D17*
X170850000Y-111100000D03*
D16*
X165150000Y-81250000D03*
X162400000Y-81250000D03*
X141207008Y-104840912D03*
D17*
X173600000Y-110100000D03*
D18*
X146507008Y-93888363D03*
D16*
X172450000Y-71100000D03*
D18*
X139907008Y-86988363D03*
D16*
X172450000Y-72800000D03*
D18*
X139150000Y-81000000D03*
D17*
X171600000Y-110100000D03*
D18*
X151950000Y-91900000D03*
X150007008Y-97240912D03*
X138600000Y-112600000D03*
X139907008Y-90588363D03*
D16*
X141207008Y-102840912D03*
%TO.N,Net-(D2-A)*%
X130090000Y-97150000D03*
X130090000Y-93150000D03*
D18*
%TO.N,FLASH_CLK*%
X142607008Y-93640912D03*
X141107008Y-97640912D03*
%TO.N,Net-(J13-Pin_1)*%
X168450000Y-90000000D03*
X169450000Y-88800000D03*
D16*
%TO.N,Net-(U7-USB_DP)*%
X133950000Y-92800000D03*
D18*
X132090000Y-91600000D03*
X141250000Y-90900000D03*
%TO.N,Net-(U7-USB_DM)*%
X141207008Y-90088363D03*
D16*
X135350000Y-93300000D03*
%TO.N,Net-(U1-A->B)*%
X164250000Y-90500000D03*
X165550000Y-92500000D03*
%TO.N,Net-(U4-A->B)*%
X173150000Y-78200000D03*
X174250000Y-81500000D03*
D18*
%TO.N,SWCLK*%
X155150000Y-85340912D03*
X146607008Y-85340912D03*
%TO.N,SWD*%
X154450000Y-84540912D03*
X145507008Y-84540912D03*
D16*
%TO.N,RUN*%
X147450000Y-76900000D03*
D18*
X147300000Y-81800000D03*
%TO.N,START_Pico*%
X139350000Y-84700000D03*
X157250000Y-87900000D03*
%TO.N,RIGHT_Pico*%
X141250000Y-84700000D03*
X156450000Y-88200000D03*
%TO.N,LEFT_Pico*%
X141450000Y-85500000D03*
X155550000Y-88400000D03*
%TO.N,SMS*%
X155850000Y-82400000D03*
X168050000Y-75000000D03*
%TO.N,DW*%
X143650000Y-83200000D03*
X144150000Y-69050000D03*
%TO.N,D04_Pico*%
X144900000Y-69950000D03*
X144250000Y-82650000D03*
%TO.N,D03_Pico*%
X145750000Y-70350000D03*
X145050000Y-82650000D03*
%TO.N,D02_Pico*%
X146550000Y-70750000D03*
X145850000Y-82800000D03*
%TO.N,D01_Pico*%
X146850000Y-71500000D03*
X146650000Y-82600000D03*
%TO.N,HDMI_D2+*%
X145550000Y-93000000D03*
D16*
X123725000Y-63975000D03*
D18*
%TO.N,Net-(J15-Pin_1)*%
X185050000Y-83400000D03*
X179350000Y-83700000D03*
%TO.N,RESET_Pico*%
X148550000Y-88400000D03*
X153350000Y-87300000D03*
%TO.N,+20V*%
X128250000Y-84500000D03*
X145750000Y-113300000D03*
D16*
X128300000Y-77190000D03*
D18*
%TO.N,LCD_D0*%
X150000000Y-103750000D03*
X145550000Y-108350000D03*
%TO.N,LCD_D1*%
X144750000Y-108150000D03*
X148850000Y-104250000D03*
%TO.N,LCD_D2*%
X147100000Y-104350000D03*
X143900000Y-108150000D03*
%TO.N,LCD_Backlight*%
X151050000Y-88600000D03*
X161150000Y-101000000D03*
%TO.N,LCD_RST*%
X154350000Y-90700000D03*
X151550000Y-87900000D03*
X156800000Y-109200000D03*
%TO.N,LCD_CLK*%
X155500000Y-103550000D03*
X141750000Y-107200000D03*
%TO.N,LCD_DEN*%
X155950000Y-101950000D03*
X134950000Y-105250000D03*
D16*
%TO.N,HDMI_D2-*%
X124650000Y-63950000D03*
D18*
X145850000Y-91200000D03*
D16*
%TO.N,HDMI_D1+*%
X126200000Y-64000000D03*
D18*
X147350000Y-92600000D03*
D16*
%TO.N,Net-(J1-Pin_1)*%
X179140000Y-81000000D03*
X184150000Y-81000000D03*
%TO.N,Net-(J5-Pin_1)*%
X177450000Y-78460000D03*
X177450000Y-100900000D03*
%TO.N,Net-(J6-Pin_1)*%
X178550000Y-77700000D03*
X178550000Y-108500000D03*
%TO.N,HDMI_D1-*%
X127100000Y-64050000D03*
D18*
X148050000Y-92100000D03*
%TO.N,HDMI_D0+*%
X139150000Y-83700000D03*
D16*
X129100000Y-64050000D03*
D18*
%TO.N,Net-(J19-Pin_1)*%
X140050000Y-85600000D03*
X158550000Y-91300000D03*
%TO.N,HDMI_D0-*%
X139950000Y-84100000D03*
D16*
X121000000Y-60850000D03*
D18*
%TO.N,HDMI_CLK+*%
X148850000Y-92100000D03*
D16*
X130000000Y-64100000D03*
D18*
%TO.N,HDMI_CLK-*%
X149050000Y-91100000D03*
D16*
X130950000Y-64100000D03*
%TO.N,Net-(J11-Pin_6)*%
X153000000Y-100050000D03*
%TD*%
D19*
%TO.N,START_Pico*%
X140350000Y-84700000D02*
X139350000Y-84700000D01*
X144050000Y-85300000D02*
X143650000Y-85700000D01*
X145298244Y-84036912D02*
X144050000Y-85285156D01*
X155250000Y-85900000D02*
X148288982Y-85900000D01*
X144050000Y-85285156D02*
X144050000Y-85300000D01*
X143050000Y-85700000D02*
X141546000Y-84196000D01*
X157250000Y-87900000D02*
X155250000Y-85900000D01*
X146425894Y-84036912D02*
X145298244Y-84036912D01*
X143650000Y-85700000D02*
X143050000Y-85700000D01*
X141546000Y-84196000D02*
X140854000Y-84196000D01*
X148288982Y-85900000D02*
X146425894Y-84036912D01*
X140854000Y-84196000D02*
X140350000Y-84700000D01*
%TO.N,RIGHT_Pico*%
X141362764Y-84700000D02*
X141250000Y-84700000D01*
X147650000Y-86200000D02*
X147650000Y-85671140D01*
X146350000Y-84800000D02*
X146050000Y-85100000D01*
X147650000Y-85671140D02*
X146778860Y-84800000D01*
X143850000Y-86300000D02*
X143550000Y-86300000D01*
X146778860Y-84800000D02*
X146350000Y-84800000D01*
X154450000Y-86200000D02*
X147650000Y-86200000D01*
X142962764Y-86300000D02*
X141362764Y-84700000D01*
X145050000Y-85100000D02*
X143850000Y-86300000D01*
X146050000Y-85100000D02*
X145050000Y-85100000D01*
X143550000Y-86300000D02*
X142962764Y-86300000D01*
X156450000Y-88200000D02*
X154450000Y-86200000D01*
%TO.N,LEFT_Pico*%
X145083403Y-85566597D02*
X143750000Y-86900000D01*
X145820201Y-85566597D02*
X145083403Y-85566597D01*
X146853604Y-86600000D02*
X145820201Y-85566597D01*
X142850000Y-86900000D02*
X141450000Y-85500000D01*
X153750000Y-86600000D02*
X146853604Y-86600000D01*
X143750000Y-86900000D02*
X143550000Y-86900000D01*
X143550000Y-86900000D02*
X142850000Y-86900000D01*
X155550000Y-88400000D02*
X153750000Y-86600000D01*
%TO.N,Net-(J11-Pin_6)*%
X153000000Y-100050000D02*
X153050000Y-100100000D01*
X153050000Y-100100000D02*
X164370000Y-100100000D01*
%TD*%
%TA.AperFunction,Conductor*%
%TO.N,GND*%
G36*
X131642539Y-49420185D02*
G01*
X131688294Y-49472989D01*
X131699500Y-49524500D01*
X131699500Y-67540784D01*
X131696437Y-67562745D01*
X131695599Y-67571791D01*
X131695599Y-67571792D01*
X131695599Y-67571793D01*
X131698971Y-67608182D01*
X131699500Y-67619623D01*
X131699500Y-67627843D01*
X131699501Y-67627854D01*
X131701011Y-67635937D01*
X131702591Y-67647264D01*
X131705964Y-67683658D01*
X131708443Y-67692372D01*
X131711667Y-67701989D01*
X131714938Y-67710432D01*
X131734177Y-67741503D01*
X131739746Y-67751502D01*
X131745731Y-67763521D01*
X131756041Y-67784228D01*
X131761526Y-67791490D01*
X131767957Y-67799235D01*
X131774080Y-67805951D01*
X131803249Y-67827979D01*
X131812061Y-67835296D01*
X131839069Y-67859918D01*
X131846797Y-67864702D01*
X131855580Y-67869594D01*
X131863732Y-67873653D01*
X131863736Y-67873656D01*
X131898895Y-67883659D01*
X131909742Y-67887295D01*
X131943827Y-67900500D01*
X131943828Y-67900500D01*
X131952755Y-67902169D01*
X131962742Y-67903562D01*
X131971788Y-67904399D01*
X131971793Y-67904401D01*
X132008183Y-67901028D01*
X132019624Y-67900500D01*
X199038000Y-67900500D01*
X199105039Y-67920185D01*
X199150794Y-67972989D01*
X199162000Y-68024500D01*
X199162000Y-71475500D01*
X199142315Y-71542539D01*
X199089511Y-71588294D01*
X199038000Y-71599500D01*
X189409150Y-71599500D01*
X189386942Y-71596405D01*
X189378114Y-71595590D01*
X189378113Y-71595590D01*
X189378111Y-71595590D01*
X189378110Y-71595590D01*
X189341792Y-71598967D01*
X189330312Y-71599500D01*
X189322149Y-71599500D01*
X189313997Y-71601024D01*
X189302707Y-71602600D01*
X189266254Y-71605989D01*
X189257317Y-71608535D01*
X189248240Y-71611579D01*
X189239562Y-71614941D01*
X189208430Y-71634216D01*
X189198465Y-71639769D01*
X189165693Y-71656101D01*
X189158289Y-71661695D01*
X189150908Y-71667826D01*
X189144050Y-71674078D01*
X189121985Y-71703297D01*
X189114695Y-71712078D01*
X189090032Y-71739147D01*
X189085158Y-71747025D01*
X189080492Y-71755405D01*
X189076343Y-71763737D01*
X189066325Y-71798948D01*
X189062700Y-71809767D01*
X189049484Y-71843915D01*
X189047773Y-71853083D01*
X189046458Y-71862522D01*
X189045599Y-71871793D01*
X189048976Y-71908252D01*
X189049505Y-71919652D01*
X189061981Y-112240812D01*
X189058958Y-112262514D01*
X189058099Y-112271793D01*
X189061477Y-112308253D01*
X189062006Y-112319649D01*
X189062008Y-112327935D01*
X189063510Y-112335956D01*
X189065097Y-112347324D01*
X189068465Y-112383662D01*
X189070880Y-112392151D01*
X189074273Y-112402267D01*
X189077472Y-112410517D01*
X189077473Y-112410521D01*
X189077474Y-112410522D01*
X189096684Y-112441528D01*
X189102275Y-112451561D01*
X189118542Y-112484228D01*
X189123884Y-112491302D01*
X189130683Y-112499487D01*
X189136643Y-112506020D01*
X189136644Y-112506021D01*
X189136645Y-112506022D01*
X189165769Y-112528000D01*
X189174605Y-112535336D01*
X189201567Y-112559916D01*
X189201573Y-112559918D01*
X189209129Y-112564597D01*
X189218352Y-112569732D01*
X189226317Y-112573695D01*
X189226321Y-112573698D01*
X189261414Y-112583671D01*
X189272304Y-112587319D01*
X189306327Y-112600500D01*
X189306329Y-112600500D01*
X189315034Y-112602128D01*
X189325557Y-112603594D01*
X189334380Y-112604408D01*
X189334387Y-112604410D01*
X189368581Y-112601230D01*
X189370708Y-112601033D01*
X189382188Y-112600500D01*
X199038000Y-112600500D01*
X199105039Y-112620185D01*
X199150794Y-112672989D01*
X199162000Y-112724500D01*
X199162000Y-116175500D01*
X199142315Y-116242539D01*
X199089511Y-116288294D01*
X199038000Y-116299500D01*
X102637000Y-116299500D01*
X102569961Y-116279815D01*
X102524206Y-116227011D01*
X102513000Y-116175500D01*
X102513000Y-114500001D01*
X105157032Y-114500001D01*
X105176864Y-114726686D01*
X105176866Y-114726697D01*
X105235758Y-114946488D01*
X105235761Y-114946497D01*
X105331931Y-115152732D01*
X105331932Y-115152734D01*
X105462454Y-115339141D01*
X105623358Y-115500045D01*
X105623361Y-115500047D01*
X105809766Y-115630568D01*
X106016004Y-115726739D01*
X106235808Y-115785635D01*
X106397730Y-115799801D01*
X106462498Y-115805468D01*
X106462500Y-115805468D01*
X106462502Y-115805468D01*
X106519173Y-115800509D01*
X106689192Y-115785635D01*
X106908996Y-115726739D01*
X107115234Y-115630568D01*
X107301639Y-115500047D01*
X107462547Y-115339139D01*
X107593068Y-115152734D01*
X107689239Y-114946496D01*
X107748135Y-114726692D01*
X107767968Y-114500001D01*
X194407032Y-114500001D01*
X194426864Y-114726686D01*
X194426866Y-114726697D01*
X194485758Y-114946488D01*
X194485761Y-114946497D01*
X194581931Y-115152732D01*
X194581932Y-115152734D01*
X194712454Y-115339141D01*
X194873358Y-115500045D01*
X194873361Y-115500047D01*
X195059766Y-115630568D01*
X195266004Y-115726739D01*
X195485808Y-115785635D01*
X195647730Y-115799801D01*
X195712498Y-115805468D01*
X195712500Y-115805468D01*
X195712502Y-115805468D01*
X195769173Y-115800509D01*
X195939192Y-115785635D01*
X196158996Y-115726739D01*
X196365234Y-115630568D01*
X196551639Y-115500047D01*
X196712547Y-115339139D01*
X196843068Y-115152734D01*
X196939239Y-114946496D01*
X196998135Y-114726692D01*
X197017968Y-114500000D01*
X196998135Y-114273308D01*
X196939239Y-114053504D01*
X196843068Y-113847266D01*
X196712547Y-113660861D01*
X196712545Y-113660858D01*
X196551641Y-113499954D01*
X196365234Y-113369432D01*
X196365232Y-113369431D01*
X196158997Y-113273261D01*
X196158988Y-113273258D01*
X195939197Y-113214366D01*
X195939193Y-113214365D01*
X195939192Y-113214365D01*
X195939191Y-113214364D01*
X195939186Y-113214364D01*
X195712502Y-113194532D01*
X195712498Y-113194532D01*
X195485813Y-113214364D01*
X195485802Y-113214366D01*
X195266011Y-113273258D01*
X195266002Y-113273261D01*
X195059767Y-113369431D01*
X195059765Y-113369432D01*
X194873358Y-113499954D01*
X194712454Y-113660858D01*
X194581932Y-113847265D01*
X194581931Y-113847267D01*
X194485761Y-114053502D01*
X194485758Y-114053511D01*
X194426866Y-114273302D01*
X194426864Y-114273313D01*
X194407032Y-114499998D01*
X194407032Y-114500001D01*
X107767968Y-114500001D01*
X107767968Y-114500000D01*
X107748135Y-114273308D01*
X107689239Y-114053504D01*
X107593068Y-113847266D01*
X107462547Y-113660861D01*
X107462545Y-113660858D01*
X107301641Y-113499954D01*
X107115234Y-113369432D01*
X107115232Y-113369431D01*
X106908997Y-113273261D01*
X106908988Y-113273258D01*
X106689197Y-113214366D01*
X106689193Y-113214365D01*
X106689192Y-113214365D01*
X106689191Y-113214364D01*
X106689186Y-113214364D01*
X106462502Y-113194532D01*
X106462498Y-113194532D01*
X106235813Y-113214364D01*
X106235802Y-113214366D01*
X106016011Y-113273258D01*
X106016002Y-113273261D01*
X105809767Y-113369431D01*
X105809765Y-113369432D01*
X105623358Y-113499954D01*
X105462454Y-113660858D01*
X105331932Y-113847265D01*
X105331931Y-113847267D01*
X105235761Y-114053502D01*
X105235758Y-114053511D01*
X105176866Y-114273302D01*
X105176864Y-114273313D01*
X105157032Y-114499998D01*
X105157032Y-114500001D01*
X102513000Y-114500001D01*
X102513000Y-112600003D01*
X138190458Y-112600003D01*
X138210500Y-112726551D01*
X138210501Y-112726554D01*
X138210502Y-112726555D01*
X138268674Y-112840723D01*
X138268676Y-112840725D01*
X138268678Y-112840728D01*
X138359271Y-112931321D01*
X138359276Y-112931325D01*
X138359277Y-112931326D01*
X138364439Y-112933956D01*
X138415235Y-112981927D01*
X138432032Y-113049748D01*
X138409497Y-113115883D01*
X138395829Y-113132121D01*
X138368676Y-113159274D01*
X138368675Y-113159276D01*
X138368674Y-113159277D01*
X138350711Y-113194532D01*
X138310500Y-113273448D01*
X138290458Y-113399996D01*
X138290458Y-113400003D01*
X138310500Y-113526551D01*
X138310501Y-113526554D01*
X138310502Y-113526555D01*
X138368674Y-113640723D01*
X138368676Y-113640725D01*
X138368678Y-113640728D01*
X138459271Y-113731321D01*
X138459273Y-113731322D01*
X138459277Y-113731326D01*
X138573445Y-113789498D01*
X138573446Y-113789498D01*
X138573448Y-113789499D01*
X138699997Y-113809542D01*
X138700000Y-113809542D01*
X138700003Y-113809542D01*
X138826551Y-113789499D01*
X138826552Y-113789498D01*
X138826555Y-113789498D01*
X138940723Y-113731326D01*
X139031326Y-113640723D01*
X139089498Y-113526555D01*
X139089499Y-113526551D01*
X139109542Y-113400003D01*
X139109542Y-113399996D01*
X139093705Y-113300003D01*
X145340458Y-113300003D01*
X145360500Y-113426551D01*
X145360501Y-113426554D01*
X145360502Y-113426555D01*
X145418674Y-113540723D01*
X145418676Y-113540725D01*
X145418678Y-113540728D01*
X145509271Y-113631321D01*
X145509273Y-113631322D01*
X145509277Y-113631326D01*
X145623445Y-113689498D01*
X145623446Y-113689498D01*
X145623448Y-113689499D01*
X145749997Y-113709542D01*
X145750000Y-113709542D01*
X145750003Y-113709542D01*
X145876551Y-113689499D01*
X145876552Y-113689498D01*
X145876555Y-113689498D01*
X145990723Y-113631326D01*
X146081326Y-113540723D01*
X146139498Y-113426555D01*
X146139499Y-113426551D01*
X146159542Y-113300003D01*
X146159542Y-113299996D01*
X146139499Y-113173448D01*
X146139498Y-113173446D01*
X146139498Y-113173445D01*
X146081326Y-113059277D01*
X146081322Y-113059273D01*
X146081321Y-113059271D01*
X145990728Y-112968678D01*
X145990725Y-112968676D01*
X145990723Y-112968674D01*
X145876555Y-112910502D01*
X145876554Y-112910501D01*
X145876551Y-112910500D01*
X145750003Y-112890458D01*
X145749997Y-112890458D01*
X145623448Y-112910500D01*
X145582586Y-112931321D01*
X145509277Y-112968674D01*
X145509276Y-112968675D01*
X145509271Y-112968678D01*
X145418678Y-113059271D01*
X145418675Y-113059276D01*
X145418674Y-113059277D01*
X145402765Y-113090500D01*
X145360500Y-113173448D01*
X145340458Y-113299996D01*
X145340458Y-113300003D01*
X139093705Y-113300003D01*
X139089499Y-113273448D01*
X139089498Y-113273446D01*
X139089498Y-113273445D01*
X139031326Y-113159277D01*
X139031322Y-113159273D01*
X139031321Y-113159271D01*
X138940728Y-113068678D01*
X138940724Y-113068675D01*
X138940723Y-113068674D01*
X138935556Y-113066041D01*
X138884762Y-113018069D01*
X138867967Y-112950248D01*
X138890504Y-112884113D01*
X138904167Y-112867881D01*
X138931326Y-112840723D01*
X138989498Y-112726555D01*
X138989499Y-112726551D01*
X139009542Y-112600003D01*
X139009542Y-112600000D01*
X143254456Y-112600000D01*
X143274528Y-112739606D01*
X143274530Y-112739614D01*
X143333119Y-112867907D01*
X143333121Y-112867909D01*
X143333122Y-112867911D01*
X143425488Y-112974507D01*
X143425490Y-112974508D01*
X143425489Y-112974508D01*
X143544145Y-113050764D01*
X143679474Y-113090499D01*
X143679476Y-113090500D01*
X143679477Y-113090500D01*
X143820524Y-113090500D01*
X143820524Y-113090499D01*
X143955853Y-113050764D01*
X143955854Y-113050764D01*
X144006729Y-113018069D01*
X144074512Y-112974507D01*
X144166878Y-112867911D01*
X144166895Y-112867875D01*
X144179517Y-112840233D01*
X144225471Y-112739611D01*
X144245544Y-112600000D01*
X144225471Y-112460389D01*
X144212196Y-112431321D01*
X144166880Y-112332092D01*
X144166878Y-112332090D01*
X144166878Y-112332089D01*
X144074512Y-112225493D01*
X144074509Y-112225491D01*
X144074510Y-112225491D01*
X143955854Y-112149235D01*
X143820525Y-112109500D01*
X143820523Y-112109500D01*
X143679477Y-112109500D01*
X143679474Y-112109500D01*
X143544146Y-112149235D01*
X143544145Y-112149235D01*
X143425489Y-112225491D01*
X143333122Y-112332089D01*
X143333119Y-112332092D01*
X143274530Y-112460385D01*
X143274528Y-112460393D01*
X143254456Y-112600000D01*
X139009542Y-112600000D01*
X139009542Y-112599996D01*
X138989499Y-112473448D01*
X138989498Y-112473446D01*
X138989498Y-112473445D01*
X138931326Y-112359277D01*
X138931322Y-112359273D01*
X138931321Y-112359271D01*
X138840728Y-112268678D01*
X138840725Y-112268676D01*
X138840723Y-112268674D01*
X138726555Y-112210502D01*
X138726554Y-112210501D01*
X138726551Y-112210500D01*
X138600003Y-112190458D01*
X138599997Y-112190458D01*
X138473448Y-112210500D01*
X138441947Y-112226551D01*
X138359277Y-112268674D01*
X138359276Y-112268675D01*
X138359271Y-112268678D01*
X138268678Y-112359271D01*
X138268675Y-112359276D01*
X138210500Y-112473448D01*
X138190458Y-112599996D01*
X138190458Y-112600003D01*
X102513000Y-112600003D01*
X102513000Y-112100003D01*
X135390458Y-112100003D01*
X135410500Y-112226551D01*
X135410501Y-112226554D01*
X135410502Y-112226555D01*
X135468674Y-112340723D01*
X135468676Y-112340725D01*
X135468678Y-112340728D01*
X135559271Y-112431321D01*
X135559273Y-112431322D01*
X135559277Y-112431326D01*
X135673445Y-112489498D01*
X135673446Y-112489498D01*
X135673448Y-112489499D01*
X135799997Y-112509542D01*
X135800000Y-112509542D01*
X135800003Y-112509542D01*
X135926551Y-112489499D01*
X135926552Y-112489498D01*
X135926555Y-112489498D01*
X136040723Y-112431326D01*
X136131326Y-112340723D01*
X136189498Y-112226555D01*
X136189499Y-112226551D01*
X136209542Y-112100003D01*
X136209542Y-112099996D01*
X136189499Y-111973448D01*
X136189498Y-111973446D01*
X136189498Y-111973445D01*
X136131326Y-111859277D01*
X136131322Y-111859273D01*
X136131321Y-111859271D01*
X136040728Y-111768678D01*
X136040725Y-111768676D01*
X136040723Y-111768674D01*
X135926555Y-111710502D01*
X135926554Y-111710501D01*
X135926551Y-111710500D01*
X135800003Y-111690458D01*
X135799997Y-111690458D01*
X135673448Y-111710500D01*
X135622885Y-111736264D01*
X135559277Y-111768674D01*
X135559276Y-111768675D01*
X135559271Y-111768678D01*
X135468678Y-111859271D01*
X135468675Y-111859276D01*
X135468674Y-111859277D01*
X135445682Y-111904401D01*
X135410500Y-111973448D01*
X135390458Y-112099996D01*
X135390458Y-112100003D01*
X102513000Y-112100003D01*
X102513000Y-112024500D01*
X102532685Y-111957461D01*
X102585489Y-111911706D01*
X102637000Y-111900500D01*
X119940785Y-111900500D01*
X119962742Y-111903562D01*
X119971788Y-111904399D01*
X119971793Y-111904401D01*
X120008183Y-111901028D01*
X120019624Y-111900500D01*
X120027845Y-111900500D01*
X120030407Y-111900020D01*
X120035921Y-111898989D01*
X120047259Y-111897407D01*
X120083660Y-111894035D01*
X120083666Y-111894031D01*
X120092421Y-111891541D01*
X120101940Y-111888350D01*
X120110431Y-111885061D01*
X120110433Y-111885061D01*
X120141521Y-111865811D01*
X120151498Y-111860254D01*
X120184228Y-111843958D01*
X120184230Y-111843954D01*
X120191523Y-111838448D01*
X120199197Y-111832076D01*
X120205949Y-111825921D01*
X120205949Y-111825920D01*
X120205952Y-111825919D01*
X120227990Y-111796734D01*
X120235275Y-111787961D01*
X120259916Y-111760933D01*
X120259918Y-111760927D01*
X120264721Y-111753170D01*
X120269579Y-111744448D01*
X120273651Y-111736269D01*
X120273656Y-111736264D01*
X120283663Y-111701089D01*
X120287289Y-111690270D01*
X120300500Y-111656173D01*
X120300500Y-111656171D01*
X120300501Y-111656169D01*
X120302172Y-111647229D01*
X120303561Y-111637276D01*
X120304401Y-111628207D01*
X120301029Y-111591817D01*
X120300500Y-111580376D01*
X120300500Y-111100000D01*
X170240284Y-111100000D01*
X170261060Y-111257805D01*
X170261061Y-111257809D01*
X170321968Y-111404855D01*
X170321969Y-111404857D01*
X170321970Y-111404858D01*
X170418866Y-111531134D01*
X170545142Y-111628030D01*
X170692194Y-111688940D01*
X170831640Y-111707298D01*
X170849999Y-111709716D01*
X170850000Y-111709716D01*
X170850001Y-111709716D01*
X170866446Y-111707550D01*
X171007806Y-111688940D01*
X171154858Y-111628030D01*
X171281134Y-111531134D01*
X171378030Y-111404858D01*
X171438940Y-111257806D01*
X171459716Y-111100000D01*
X171438940Y-110942194D01*
X171409990Y-110872303D01*
X171402522Y-110802835D01*
X171433797Y-110740356D01*
X171493886Y-110704704D01*
X171540733Y-110701913D01*
X171600000Y-110709716D01*
X171757806Y-110688940D01*
X171904858Y-110628030D01*
X172031134Y-110531134D01*
X172128030Y-110404858D01*
X172188940Y-110257806D01*
X172209716Y-110100000D01*
X172990284Y-110100000D01*
X173011060Y-110257805D01*
X173011061Y-110257809D01*
X173071968Y-110404855D01*
X173071969Y-110404857D01*
X173071970Y-110404858D01*
X173168866Y-110531134D01*
X173295142Y-110628030D01*
X173442194Y-110688940D01*
X173600000Y-110709716D01*
X173659263Y-110701913D01*
X173728295Y-110712678D01*
X173780552Y-110759057D01*
X173799438Y-110826325D01*
X173790009Y-110872303D01*
X173761060Y-110942194D01*
X173740284Y-111099999D01*
X173740284Y-111100000D01*
X173761060Y-111257805D01*
X173761061Y-111257809D01*
X173821968Y-111404855D01*
X173821969Y-111404857D01*
X173821970Y-111404858D01*
X173918866Y-111531134D01*
X174045142Y-111628030D01*
X174192194Y-111688940D01*
X174331640Y-111707298D01*
X174349999Y-111709716D01*
X174350000Y-111709716D01*
X174350001Y-111709716D01*
X174366446Y-111707550D01*
X174507806Y-111688940D01*
X174654858Y-111628030D01*
X174781134Y-111531134D01*
X174878030Y-111404858D01*
X174938940Y-111257806D01*
X174959716Y-111100000D01*
X174938940Y-110942194D01*
X174890946Y-110826325D01*
X174878031Y-110795144D01*
X174878030Y-110795143D01*
X174878030Y-110795142D01*
X174781134Y-110668866D01*
X174654858Y-110571970D01*
X174654857Y-110571969D01*
X174654855Y-110571968D01*
X174507809Y-110511061D01*
X174507807Y-110511060D01*
X174507806Y-110511060D01*
X174409261Y-110498086D01*
X174350001Y-110490284D01*
X174349999Y-110490284D01*
X174290738Y-110498086D01*
X174221702Y-110487321D01*
X174169446Y-110440941D01*
X174150561Y-110373672D01*
X174159991Y-110327695D01*
X174188940Y-110257806D01*
X174209716Y-110100000D01*
X174188940Y-109942194D01*
X174128030Y-109795142D01*
X174031134Y-109668866D01*
X173904858Y-109571970D01*
X173904857Y-109571969D01*
X173904855Y-109571968D01*
X173757809Y-109511061D01*
X173757807Y-109511060D01*
X173757806Y-109511060D01*
X173678903Y-109500672D01*
X173600001Y-109490284D01*
X173599999Y-109490284D01*
X173442194Y-109511060D01*
X173442190Y-109511061D01*
X173295144Y-109571968D01*
X173168866Y-109668866D01*
X173071968Y-109795144D01*
X173011061Y-109942190D01*
X173011060Y-109942194D01*
X172990284Y-110099999D01*
X172990284Y-110100000D01*
X172209716Y-110100000D01*
X172188940Y-109942194D01*
X172128030Y-109795142D01*
X172031134Y-109668866D01*
X171904858Y-109571970D01*
X171904857Y-109571969D01*
X171904855Y-109571968D01*
X171757809Y-109511061D01*
X171757807Y-109511060D01*
X171757806Y-109511060D01*
X171678903Y-109500672D01*
X171600001Y-109490284D01*
X171599999Y-109490284D01*
X171442194Y-109511060D01*
X171442190Y-109511061D01*
X171295144Y-109571968D01*
X171168866Y-109668866D01*
X171071968Y-109795144D01*
X171011061Y-109942190D01*
X171011060Y-109942194D01*
X170990284Y-110099999D01*
X170990284Y-110100000D01*
X171011059Y-110257803D01*
X171011059Y-110257805D01*
X171011060Y-110257806D01*
X171040008Y-110327694D01*
X171040009Y-110327695D01*
X171047477Y-110397165D01*
X171016201Y-110459644D01*
X170956112Y-110495296D01*
X170909261Y-110498086D01*
X170850001Y-110490284D01*
X170849999Y-110490284D01*
X170692194Y-110511060D01*
X170692190Y-110511061D01*
X170545144Y-110571968D01*
X170418866Y-110668866D01*
X170321968Y-110795144D01*
X170261061Y-110942190D01*
X170261060Y-110942194D01*
X170240284Y-111099999D01*
X170240284Y-111100000D01*
X120300500Y-111100000D01*
X120300500Y-109200003D01*
X156390458Y-109200003D01*
X156410500Y-109326551D01*
X156410501Y-109326554D01*
X156410502Y-109326555D01*
X156468674Y-109440723D01*
X156468676Y-109440725D01*
X156468678Y-109440728D01*
X156559271Y-109531321D01*
X156559273Y-109531322D01*
X156559277Y-109531326D01*
X156673445Y-109589498D01*
X156673446Y-109589498D01*
X156673448Y-109589499D01*
X156799997Y-109609542D01*
X156800000Y-109609542D01*
X156800003Y-109609542D01*
X156926551Y-109589499D01*
X156926552Y-109589498D01*
X156926555Y-109589498D01*
X157040723Y-109531326D01*
X157131326Y-109440723D01*
X157189498Y-109326555D01*
X157209542Y-109200000D01*
X157209542Y-109199996D01*
X157189499Y-109073448D01*
X157189498Y-109073446D01*
X157189498Y-109073445D01*
X157131326Y-108959277D01*
X157131322Y-108959273D01*
X157131321Y-108959271D01*
X157040728Y-108868678D01*
X157040725Y-108868676D01*
X157040723Y-108868674D01*
X156926555Y-108810502D01*
X156926554Y-108810501D01*
X156926551Y-108810500D01*
X156800003Y-108790458D01*
X156799997Y-108790458D01*
X156673448Y-108810500D01*
X156617493Y-108839011D01*
X156559277Y-108868674D01*
X156559276Y-108868675D01*
X156559271Y-108868678D01*
X156468678Y-108959271D01*
X156468675Y-108959276D01*
X156468674Y-108959277D01*
X156452765Y-108990500D01*
X156410500Y-109073448D01*
X156390458Y-109199996D01*
X156390458Y-109200003D01*
X120300500Y-109200003D01*
X120300500Y-108150003D01*
X143490458Y-108150003D01*
X143510500Y-108276551D01*
X143510501Y-108276554D01*
X143510502Y-108276555D01*
X143568674Y-108390723D01*
X143568676Y-108390725D01*
X143568678Y-108390728D01*
X143659271Y-108481321D01*
X143659273Y-108481322D01*
X143659277Y-108481326D01*
X143773445Y-108539498D01*
X143773446Y-108539498D01*
X143773448Y-108539499D01*
X143899997Y-108559542D01*
X143900000Y-108559542D01*
X143900003Y-108559542D01*
X144026551Y-108539499D01*
X144026552Y-108539498D01*
X144026555Y-108539498D01*
X144140723Y-108481326D01*
X144167563Y-108454486D01*
X144237319Y-108384731D01*
X144298642Y-108351246D01*
X144368334Y-108356230D01*
X144412681Y-108384731D01*
X144509271Y-108481321D01*
X144509273Y-108481322D01*
X144509277Y-108481326D01*
X144623445Y-108539498D01*
X144623446Y-108539498D01*
X144623448Y-108539499D01*
X144749997Y-108559542D01*
X144750000Y-108559542D01*
X144750003Y-108559542D01*
X144876551Y-108539499D01*
X144876552Y-108539498D01*
X144876555Y-108539498D01*
X144990723Y-108481326D01*
X144990730Y-108481318D01*
X144998622Y-108475587D01*
X145000937Y-108478774D01*
X145045243Y-108454486D01*
X145114943Y-108459354D01*
X145170946Y-108501132D01*
X145182287Y-108519312D01*
X145218673Y-108590721D01*
X145218678Y-108590728D01*
X145309271Y-108681321D01*
X145309273Y-108681322D01*
X145309277Y-108681326D01*
X145423445Y-108739498D01*
X145423446Y-108739498D01*
X145423448Y-108739499D01*
X145549997Y-108759542D01*
X145550000Y-108759542D01*
X145550003Y-108759542D01*
X145676551Y-108739499D01*
X145676552Y-108739498D01*
X145676555Y-108739498D01*
X145790723Y-108681326D01*
X145881326Y-108590723D01*
X145927552Y-108500000D01*
X178054456Y-108500000D01*
X178074528Y-108639606D01*
X178074530Y-108639614D01*
X178133119Y-108767907D01*
X178133121Y-108767909D01*
X178133122Y-108767911D01*
X178225488Y-108874507D01*
X178225490Y-108874508D01*
X178225489Y-108874508D01*
X178344145Y-108950764D01*
X178479474Y-108990499D01*
X178479476Y-108990500D01*
X178479477Y-108990500D01*
X178620524Y-108990500D01*
X178620524Y-108990499D01*
X178755853Y-108950764D01*
X178755854Y-108950764D01*
X178874510Y-108874508D01*
X178874509Y-108874508D01*
X178874512Y-108874507D01*
X178966878Y-108767911D01*
X179025471Y-108639611D01*
X179045544Y-108500000D01*
X179025471Y-108360389D01*
X178987185Y-108276555D01*
X178966880Y-108232092D01*
X178966878Y-108232090D01*
X178966878Y-108232089D01*
X178874512Y-108125493D01*
X178874509Y-108125491D01*
X178874510Y-108125491D01*
X178755854Y-108049235D01*
X178620525Y-108009500D01*
X178620523Y-108009500D01*
X178479477Y-108009500D01*
X178479474Y-108009500D01*
X178344146Y-108049235D01*
X178344145Y-108049235D01*
X178225489Y-108125491D01*
X178133122Y-108232089D01*
X178133119Y-108232092D01*
X178074530Y-108360385D01*
X178074528Y-108360393D01*
X178054456Y-108500000D01*
X145927552Y-108500000D01*
X145939498Y-108476555D01*
X145939499Y-108476551D01*
X145959542Y-108350003D01*
X145959542Y-108349996D01*
X145939499Y-108223448D01*
X145939498Y-108223446D01*
X145939498Y-108223445D01*
X145881326Y-108109277D01*
X145881322Y-108109273D01*
X145881321Y-108109271D01*
X145790728Y-108018678D01*
X145790725Y-108018676D01*
X145790723Y-108018674D01*
X145676555Y-107960502D01*
X145676554Y-107960501D01*
X145676551Y-107960500D01*
X145550003Y-107940458D01*
X145549997Y-107940458D01*
X145423448Y-107960500D01*
X145383830Y-107980687D01*
X145309277Y-108018674D01*
X145309276Y-108018675D01*
X145301378Y-108024413D01*
X145299092Y-108021267D01*
X145254352Y-108045601D01*
X145184669Y-108040500D01*
X145128805Y-107998536D01*
X145117712Y-107980687D01*
X145084379Y-107915269D01*
X145081326Y-107909277D01*
X145081323Y-107909274D01*
X145081321Y-107909271D01*
X144990728Y-107818678D01*
X144990725Y-107818676D01*
X144990723Y-107818674D01*
X144876555Y-107760502D01*
X144876554Y-107760501D01*
X144876551Y-107760500D01*
X144750003Y-107740458D01*
X144749997Y-107740458D01*
X144623448Y-107760500D01*
X144567493Y-107789011D01*
X144509277Y-107818674D01*
X144509276Y-107818675D01*
X144509271Y-107818678D01*
X144412681Y-107915269D01*
X144351358Y-107948754D01*
X144281666Y-107943770D01*
X144237319Y-107915269D01*
X144140728Y-107818678D01*
X144140725Y-107818676D01*
X144140723Y-107818674D01*
X144026555Y-107760502D01*
X144026554Y-107760501D01*
X144026551Y-107760500D01*
X143900003Y-107740458D01*
X143899997Y-107740458D01*
X143773448Y-107760500D01*
X143717493Y-107789011D01*
X143659277Y-107818674D01*
X143659276Y-107818675D01*
X143659271Y-107818678D01*
X143568678Y-107909271D01*
X143568675Y-107909276D01*
X143568674Y-107909277D01*
X143551099Y-107943770D01*
X143510500Y-108023448D01*
X143490458Y-108149996D01*
X143490458Y-108150003D01*
X120300500Y-108150003D01*
X120300500Y-107200003D01*
X141340458Y-107200003D01*
X141360500Y-107326551D01*
X141360501Y-107326554D01*
X141360502Y-107326555D01*
X141418674Y-107440723D01*
X141418676Y-107440725D01*
X141418678Y-107440728D01*
X141509271Y-107531321D01*
X141509273Y-107531322D01*
X141509277Y-107531326D01*
X141623445Y-107589498D01*
X141623446Y-107589498D01*
X141623448Y-107589499D01*
X141749997Y-107609542D01*
X141750000Y-107609542D01*
X141750003Y-107609542D01*
X141876551Y-107589499D01*
X141876552Y-107589498D01*
X141876555Y-107589498D01*
X141990723Y-107531326D01*
X142081326Y-107440723D01*
X142139498Y-107326555D01*
X142159542Y-107200000D01*
X142159542Y-107199996D01*
X142139499Y-107073448D01*
X142139498Y-107073446D01*
X142139498Y-107073445D01*
X142081326Y-106959277D01*
X142081322Y-106959273D01*
X142081321Y-106959271D01*
X141990728Y-106868678D01*
X141990725Y-106868676D01*
X141990723Y-106868674D01*
X141876555Y-106810502D01*
X141876554Y-106810501D01*
X141876551Y-106810500D01*
X141750003Y-106790458D01*
X141749997Y-106790458D01*
X141623448Y-106810500D01*
X141567493Y-106839011D01*
X141509277Y-106868674D01*
X141509276Y-106868675D01*
X141509271Y-106868678D01*
X141418678Y-106959271D01*
X141418675Y-106959276D01*
X141360500Y-107073448D01*
X141340458Y-107199996D01*
X141340458Y-107200003D01*
X120300500Y-107200003D01*
X120300500Y-105250003D01*
X134540458Y-105250003D01*
X134560500Y-105376551D01*
X134560501Y-105376554D01*
X134560502Y-105376555D01*
X134618674Y-105490723D01*
X134618676Y-105490725D01*
X134618678Y-105490728D01*
X134709271Y-105581321D01*
X134709273Y-105581322D01*
X134709277Y-105581326D01*
X134823445Y-105639498D01*
X134823446Y-105639498D01*
X134823448Y-105639499D01*
X134949997Y-105659542D01*
X134950000Y-105659542D01*
X134950003Y-105659542D01*
X135076551Y-105639499D01*
X135076552Y-105639498D01*
X135076555Y-105639498D01*
X135190723Y-105581326D01*
X135281326Y-105490723D01*
X135339498Y-105376555D01*
X135346648Y-105331411D01*
X135359542Y-105250003D01*
X135359542Y-105249996D01*
X135339499Y-105123448D01*
X135339498Y-105123446D01*
X135339498Y-105123445D01*
X135281326Y-105009277D01*
X135281322Y-105009273D01*
X135281321Y-105009271D01*
X135190728Y-104918678D01*
X135190725Y-104918676D01*
X135190723Y-104918674D01*
X135076555Y-104860502D01*
X135076554Y-104860501D01*
X135076551Y-104860500D01*
X134952870Y-104840912D01*
X140711464Y-104840912D01*
X140731536Y-104980518D01*
X140731538Y-104980526D01*
X140790127Y-105108819D01*
X140790129Y-105108821D01*
X140790130Y-105108823D01*
X140882496Y-105215419D01*
X140882498Y-105215420D01*
X140882497Y-105215420D01*
X141001153Y-105291676D01*
X141136482Y-105331411D01*
X141136484Y-105331412D01*
X141136485Y-105331412D01*
X141277532Y-105331412D01*
X141277532Y-105331411D01*
X141412861Y-105291676D01*
X141412862Y-105291676D01*
X141477707Y-105250003D01*
X141531520Y-105215419D01*
X141623886Y-105108823D01*
X141682479Y-104980523D01*
X141702552Y-104840912D01*
X141682479Y-104701301D01*
X141654255Y-104639499D01*
X141623888Y-104573004D01*
X141623886Y-104573002D01*
X141623886Y-104573001D01*
X141531520Y-104466405D01*
X141531517Y-104466403D01*
X141531518Y-104466403D01*
X141412862Y-104390147D01*
X141277533Y-104350412D01*
X141277531Y-104350412D01*
X141136485Y-104350412D01*
X141136482Y-104350412D01*
X141001154Y-104390147D01*
X141001153Y-104390147D01*
X140882497Y-104466403D01*
X140790130Y-104573001D01*
X140790127Y-104573004D01*
X140731538Y-104701297D01*
X140731536Y-104701305D01*
X140711464Y-104840912D01*
X134952870Y-104840912D01*
X134950003Y-104840458D01*
X134949997Y-104840458D01*
X134823448Y-104860500D01*
X134767493Y-104889011D01*
X134709277Y-104918674D01*
X134709276Y-104918675D01*
X134709271Y-104918678D01*
X134618678Y-105009271D01*
X134618675Y-105009276D01*
X134560500Y-105123448D01*
X134540458Y-105249996D01*
X134540458Y-105250003D01*
X120300500Y-105250003D01*
X120300500Y-104350003D01*
X146690458Y-104350003D01*
X146710500Y-104476551D01*
X146710501Y-104476554D01*
X146710502Y-104476555D01*
X146768674Y-104590723D01*
X146768676Y-104590725D01*
X146768678Y-104590728D01*
X146859271Y-104681321D01*
X146859273Y-104681322D01*
X146859277Y-104681326D01*
X146973445Y-104739498D01*
X146973446Y-104739498D01*
X146973448Y-104739499D01*
X147099997Y-104759542D01*
X147100000Y-104759542D01*
X147100003Y-104759542D01*
X147226551Y-104739499D01*
X147226552Y-104739498D01*
X147226555Y-104739498D01*
X147340723Y-104681326D01*
X147431326Y-104590723D01*
X147489498Y-104476555D01*
X147491106Y-104466403D01*
X147509542Y-104350003D01*
X147509542Y-104349996D01*
X147493705Y-104250003D01*
X148440458Y-104250003D01*
X148460500Y-104376551D01*
X148460501Y-104376554D01*
X148460502Y-104376555D01*
X148518674Y-104490723D01*
X148518676Y-104490725D01*
X148518678Y-104490728D01*
X148609271Y-104581321D01*
X148609273Y-104581322D01*
X148609277Y-104581326D01*
X148723445Y-104639498D01*
X148723446Y-104639498D01*
X148723448Y-104639499D01*
X148849997Y-104659542D01*
X148850000Y-104659542D01*
X148850003Y-104659542D01*
X148976551Y-104639499D01*
X148976552Y-104639498D01*
X148976555Y-104639498D01*
X149090723Y-104581326D01*
X149181326Y-104490723D01*
X149239498Y-104376555D01*
X149243639Y-104350412D01*
X149259542Y-104250003D01*
X149259542Y-104249996D01*
X149239499Y-104123448D01*
X149239498Y-104123446D01*
X149239498Y-104123445D01*
X149181326Y-104009277D01*
X149181322Y-104009273D01*
X149181321Y-104009271D01*
X149090728Y-103918678D01*
X149090725Y-103918676D01*
X149090723Y-103918674D01*
X148976555Y-103860502D01*
X148976554Y-103860501D01*
X148976551Y-103860500D01*
X148850003Y-103840458D01*
X148849997Y-103840458D01*
X148723448Y-103860500D01*
X148691947Y-103876551D01*
X148609277Y-103918674D01*
X148609276Y-103918675D01*
X148609271Y-103918678D01*
X148518678Y-104009271D01*
X148518675Y-104009276D01*
X148518674Y-104009277D01*
X148513884Y-104018678D01*
X148460500Y-104123448D01*
X148440458Y-104249996D01*
X148440458Y-104250003D01*
X147493705Y-104250003D01*
X147489499Y-104223448D01*
X147489498Y-104223446D01*
X147489498Y-104223445D01*
X147431326Y-104109277D01*
X147431322Y-104109273D01*
X147431321Y-104109271D01*
X147340728Y-104018678D01*
X147340725Y-104018676D01*
X147340723Y-104018674D01*
X147226555Y-103960502D01*
X147226554Y-103960501D01*
X147226551Y-103960500D01*
X147100003Y-103940458D01*
X147099997Y-103940458D01*
X146973448Y-103960500D01*
X146917493Y-103989011D01*
X146859277Y-104018674D01*
X146859276Y-104018675D01*
X146859271Y-104018678D01*
X146768678Y-104109271D01*
X146768675Y-104109276D01*
X146768674Y-104109277D01*
X146739011Y-104167493D01*
X146710500Y-104223448D01*
X146690458Y-104349996D01*
X146690458Y-104350003D01*
X120300500Y-104350003D01*
X120300500Y-103750003D01*
X149590458Y-103750003D01*
X149610500Y-103876551D01*
X149610501Y-103876554D01*
X149610502Y-103876555D01*
X149668674Y-103990723D01*
X149668676Y-103990725D01*
X149668678Y-103990728D01*
X149759271Y-104081321D01*
X149759273Y-104081322D01*
X149759277Y-104081326D01*
X149873445Y-104139498D01*
X149873446Y-104139498D01*
X149873448Y-104139499D01*
X149999997Y-104159542D01*
X150000000Y-104159542D01*
X150000003Y-104159542D01*
X150126551Y-104139499D01*
X150126552Y-104139498D01*
X150126555Y-104139498D01*
X150240723Y-104081326D01*
X150331326Y-103990723D01*
X150389498Y-103876555D01*
X150392041Y-103860500D01*
X150409542Y-103750003D01*
X150409542Y-103749996D01*
X150389499Y-103623448D01*
X150389498Y-103623446D01*
X150389498Y-103623445D01*
X150352077Y-103550003D01*
X155090458Y-103550003D01*
X155110500Y-103676551D01*
X155110501Y-103676554D01*
X155110502Y-103676555D01*
X155168674Y-103790723D01*
X155168676Y-103790725D01*
X155168678Y-103790728D01*
X155259271Y-103881321D01*
X155259273Y-103881322D01*
X155259277Y-103881326D01*
X155373445Y-103939498D01*
X155373446Y-103939498D01*
X155373448Y-103939499D01*
X155499997Y-103959542D01*
X155500000Y-103959542D01*
X155500003Y-103959542D01*
X155626551Y-103939499D01*
X155626552Y-103939498D01*
X155626555Y-103939498D01*
X155740723Y-103881326D01*
X155831326Y-103790723D01*
X155889498Y-103676555D01*
X155889499Y-103676551D01*
X155909542Y-103550003D01*
X155909542Y-103549996D01*
X155889499Y-103423448D01*
X155889498Y-103423446D01*
X155889498Y-103423445D01*
X155831326Y-103309277D01*
X155831322Y-103309273D01*
X155831321Y-103309271D01*
X155740728Y-103218678D01*
X155740725Y-103218676D01*
X155740723Y-103218674D01*
X155626555Y-103160502D01*
X155626554Y-103160501D01*
X155626551Y-103160500D01*
X155500003Y-103140458D01*
X155499997Y-103140458D01*
X155373448Y-103160500D01*
X155317493Y-103189011D01*
X155259277Y-103218674D01*
X155259276Y-103218675D01*
X155259271Y-103218678D01*
X155168678Y-103309271D01*
X155168675Y-103309276D01*
X155168674Y-103309277D01*
X155142574Y-103360500D01*
X155110500Y-103423448D01*
X155090458Y-103549996D01*
X155090458Y-103550003D01*
X150352077Y-103550003D01*
X150331326Y-103509277D01*
X150331322Y-103509273D01*
X150331321Y-103509271D01*
X150240728Y-103418678D01*
X150240725Y-103418676D01*
X150240723Y-103418674D01*
X150126555Y-103360502D01*
X150126554Y-103360501D01*
X150126551Y-103360500D01*
X150000003Y-103340458D01*
X149999997Y-103340458D01*
X149873448Y-103360500D01*
X149817493Y-103389011D01*
X149759277Y-103418674D01*
X149759276Y-103418675D01*
X149759271Y-103418678D01*
X149668678Y-103509271D01*
X149668675Y-103509276D01*
X149668674Y-103509277D01*
X149647923Y-103550003D01*
X149610500Y-103623448D01*
X149590458Y-103749996D01*
X149590458Y-103750003D01*
X120300500Y-103750003D01*
X120300500Y-102840912D01*
X140711464Y-102840912D01*
X140731536Y-102980518D01*
X140731538Y-102980526D01*
X140790127Y-103108819D01*
X140790129Y-103108821D01*
X140790130Y-103108823D01*
X140882496Y-103215419D01*
X140882498Y-103215420D01*
X140882497Y-103215420D01*
X141001153Y-103291676D01*
X141136482Y-103331411D01*
X141136484Y-103331412D01*
X141136485Y-103331412D01*
X141277532Y-103331412D01*
X141277532Y-103331411D01*
X141412861Y-103291676D01*
X141412862Y-103291676D01*
X141526449Y-103218678D01*
X141531520Y-103215419D01*
X141623886Y-103108823D01*
X141682479Y-102980523D01*
X141702552Y-102840912D01*
X141682479Y-102701301D01*
X141669839Y-102673623D01*
X141623888Y-102573004D01*
X141623886Y-102573002D01*
X141623886Y-102573001D01*
X141531520Y-102466405D01*
X141531517Y-102466403D01*
X141531518Y-102466403D01*
X141412862Y-102390147D01*
X141277533Y-102350412D01*
X141277531Y-102350412D01*
X141136485Y-102350412D01*
X141136482Y-102350412D01*
X141001154Y-102390147D01*
X141001153Y-102390147D01*
X140882497Y-102466403D01*
X140790130Y-102573001D01*
X140790127Y-102573004D01*
X140731538Y-102701297D01*
X140731536Y-102701305D01*
X140711464Y-102840912D01*
X120300500Y-102840912D01*
X120300500Y-101950003D01*
X155540458Y-101950003D01*
X155560500Y-102076551D01*
X155560501Y-102076554D01*
X155560502Y-102076555D01*
X155618674Y-102190723D01*
X155618676Y-102190725D01*
X155618678Y-102190728D01*
X155709271Y-102281321D01*
X155709273Y-102281322D01*
X155709277Y-102281326D01*
X155823445Y-102339498D01*
X155823446Y-102339498D01*
X155823448Y-102339499D01*
X155949997Y-102359542D01*
X155950000Y-102359542D01*
X155950003Y-102359542D01*
X156076551Y-102339499D01*
X156076552Y-102339498D01*
X156076555Y-102339498D01*
X156190723Y-102281326D01*
X156281326Y-102190723D01*
X156339498Y-102076555D01*
X156359542Y-101950000D01*
X156359542Y-101949996D01*
X156339499Y-101823448D01*
X156339498Y-101823446D01*
X156339498Y-101823445D01*
X156281326Y-101709277D01*
X156281322Y-101709273D01*
X156281321Y-101709271D01*
X156190728Y-101618678D01*
X156190725Y-101618676D01*
X156190723Y-101618674D01*
X156076555Y-101560502D01*
X156076554Y-101560501D01*
X156076551Y-101560500D01*
X155950003Y-101540458D01*
X155949997Y-101540458D01*
X155823448Y-101560500D01*
X155767493Y-101589011D01*
X155709277Y-101618674D01*
X155709276Y-101618675D01*
X155709271Y-101618678D01*
X155618678Y-101709271D01*
X155618675Y-101709276D01*
X155560500Y-101823448D01*
X155540458Y-101949996D01*
X155540458Y-101950003D01*
X120300500Y-101950003D01*
X120300500Y-101000003D01*
X160740458Y-101000003D01*
X160760500Y-101126551D01*
X160760501Y-101126554D01*
X160760502Y-101126555D01*
X160818674Y-101240723D01*
X160818676Y-101240725D01*
X160818678Y-101240728D01*
X160909271Y-101331321D01*
X160909273Y-101331322D01*
X160909277Y-101331326D01*
X161023445Y-101389498D01*
X161023446Y-101389498D01*
X161023448Y-101389499D01*
X161149997Y-101409542D01*
X161150000Y-101409542D01*
X161150003Y-101409542D01*
X161276551Y-101389499D01*
X161276552Y-101389498D01*
X161276555Y-101389498D01*
X161390723Y-101331326D01*
X161481326Y-101240723D01*
X161539498Y-101126555D01*
X161553268Y-101039614D01*
X161559542Y-101000003D01*
X161559542Y-100999996D01*
X161539499Y-100873448D01*
X161539498Y-100873446D01*
X161539498Y-100873445D01*
X161481326Y-100759277D01*
X161481322Y-100759273D01*
X161481321Y-100759271D01*
X161390728Y-100668678D01*
X161390725Y-100668676D01*
X161390723Y-100668674D01*
X161276555Y-100610502D01*
X161276554Y-100610501D01*
X161276551Y-100610500D01*
X161150003Y-100590458D01*
X161149997Y-100590458D01*
X161023448Y-100610500D01*
X160967493Y-100639011D01*
X160909277Y-100668674D01*
X160909276Y-100668675D01*
X160909271Y-100668678D01*
X160818678Y-100759271D01*
X160818675Y-100759276D01*
X160818674Y-100759277D01*
X160809349Y-100777578D01*
X160760500Y-100873448D01*
X160740458Y-100999996D01*
X160740458Y-101000003D01*
X120300500Y-101000003D01*
X120300500Y-99680001D01*
X121954405Y-99680001D01*
X121974698Y-99834149D01*
X121974699Y-99834151D01*
X122034198Y-99977794D01*
X122034199Y-99977795D01*
X122034200Y-99977797D01*
X122128851Y-100101149D01*
X122252203Y-100195800D01*
X122395849Y-100255301D01*
X122453574Y-100262900D01*
X122511298Y-100270500D01*
X122511299Y-100270500D01*
X123388702Y-100270500D01*
X123427184Y-100265433D01*
X123504151Y-100255301D01*
X123647797Y-100195800D01*
X123771149Y-100101149D01*
X123865800Y-99977798D01*
X123925301Y-99834151D01*
X123945595Y-99680001D01*
X126004405Y-99680001D01*
X126024698Y-99834149D01*
X126024699Y-99834151D01*
X126084198Y-99977794D01*
X126084199Y-99977795D01*
X126084200Y-99977797D01*
X126178851Y-100101149D01*
X126302203Y-100195800D01*
X126445849Y-100255301D01*
X126503574Y-100262900D01*
X126561298Y-100270500D01*
X126561299Y-100270500D01*
X127738702Y-100270500D01*
X127777184Y-100265433D01*
X127854151Y-100255301D01*
X127997797Y-100195800D01*
X128121149Y-100101149D01*
X128160397Y-100050000D01*
X152504456Y-100050000D01*
X152524528Y-100189606D01*
X152524530Y-100189614D01*
X152583119Y-100317907D01*
X152583121Y-100317909D01*
X152583122Y-100317911D01*
X152675488Y-100424507D01*
X152675490Y-100424508D01*
X152675489Y-100424508D01*
X152794145Y-100500764D01*
X152929474Y-100540499D01*
X152929476Y-100540500D01*
X152929477Y-100540500D01*
X153070524Y-100540500D01*
X153070524Y-100540499D01*
X153205853Y-100500764D01*
X153205854Y-100500764D01*
X153286032Y-100449237D01*
X153324512Y-100424507D01*
X153403546Y-100333297D01*
X153462325Y-100295523D01*
X153497259Y-100290500D01*
X163352905Y-100290500D01*
X163419944Y-100310185D01*
X163465699Y-100362989D01*
X163470836Y-100376182D01*
X163506074Y-100484637D01*
X163506077Y-100484643D01*
X163604928Y-100655857D01*
X163737216Y-100802778D01*
X163897159Y-100918984D01*
X164077768Y-100999396D01*
X164271149Y-101040500D01*
X164271150Y-101040500D01*
X164468849Y-101040500D01*
X164468851Y-101040500D01*
X164662232Y-100999396D01*
X164842841Y-100918984D01*
X165002784Y-100802778D01*
X165135072Y-100655857D01*
X165233923Y-100484643D01*
X165295016Y-100296618D01*
X165315681Y-100100000D01*
X165964319Y-100100000D01*
X165984984Y-100296618D01*
X165984985Y-100296621D01*
X166046074Y-100484637D01*
X166046077Y-100484643D01*
X166144928Y-100655857D01*
X166277216Y-100802778D01*
X166437159Y-100918984D01*
X166617768Y-100999396D01*
X166811149Y-101040500D01*
X166811150Y-101040500D01*
X167008849Y-101040500D01*
X167008851Y-101040500D01*
X167202232Y-100999396D01*
X167382841Y-100918984D01*
X167542784Y-100802778D01*
X167675072Y-100655857D01*
X167773923Y-100484643D01*
X167817671Y-100350000D01*
X168119364Y-100350000D01*
X168176567Y-100563486D01*
X168176570Y-100563492D01*
X168276399Y-100777578D01*
X168411894Y-100971082D01*
X168578917Y-101138105D01*
X168772421Y-101273600D01*
X168986507Y-101373429D01*
X168986516Y-101373433D01*
X169200000Y-101430634D01*
X169200000Y-100535501D01*
X169307685Y-100584680D01*
X169414237Y-100600000D01*
X169485763Y-100600000D01*
X169592315Y-100584680D01*
X169700000Y-100535501D01*
X169700000Y-101430633D01*
X169913483Y-101373433D01*
X169913492Y-101373429D01*
X170127578Y-101273600D01*
X170321082Y-101138105D01*
X170488105Y-100971082D01*
X170537878Y-100900000D01*
X176954456Y-100900000D01*
X176974528Y-101039606D01*
X176974530Y-101039614D01*
X177033119Y-101167907D01*
X177033121Y-101167909D01*
X177033122Y-101167911D01*
X177125488Y-101274507D01*
X177125490Y-101274508D01*
X177125489Y-101274508D01*
X177244145Y-101350764D01*
X177359944Y-101384764D01*
X177376064Y-101389498D01*
X177379474Y-101390499D01*
X177379476Y-101390500D01*
X177379477Y-101390500D01*
X177520524Y-101390500D01*
X177520524Y-101390499D01*
X177655853Y-101350764D01*
X177655854Y-101350764D01*
X177686104Y-101331324D01*
X177774512Y-101274507D01*
X177866878Y-101167911D01*
X177925471Y-101039611D01*
X177945544Y-100900000D01*
X177925471Y-100760389D01*
X177883588Y-100668678D01*
X177866880Y-100632092D01*
X177866878Y-100632090D01*
X177866878Y-100632089D01*
X177774512Y-100525493D01*
X177774509Y-100525491D01*
X177774510Y-100525491D01*
X177655854Y-100449235D01*
X177520525Y-100409500D01*
X177520523Y-100409500D01*
X177379477Y-100409500D01*
X177379474Y-100409500D01*
X177244146Y-100449235D01*
X177244145Y-100449235D01*
X177125489Y-100525491D01*
X177033122Y-100632089D01*
X177033119Y-100632092D01*
X176974530Y-100760385D01*
X176974528Y-100760393D01*
X176954456Y-100900000D01*
X170537878Y-100900000D01*
X170623600Y-100777578D01*
X170723429Y-100563492D01*
X170723432Y-100563486D01*
X170780636Y-100350000D01*
X169883686Y-100350000D01*
X169909493Y-100309844D01*
X169950000Y-100171889D01*
X169950000Y-100028111D01*
X169909493Y-99890156D01*
X169883686Y-99850000D01*
X170780636Y-99850000D01*
X170780635Y-99849999D01*
X170723432Y-99636513D01*
X170723429Y-99636507D01*
X170623600Y-99422422D01*
X170623599Y-99422420D01*
X170488113Y-99228926D01*
X170488108Y-99228920D01*
X170321082Y-99061894D01*
X170127578Y-98926399D01*
X169913492Y-98826570D01*
X169913486Y-98826567D01*
X169700000Y-98769364D01*
X169700000Y-99664498D01*
X169592315Y-99615320D01*
X169485763Y-99600000D01*
X169414237Y-99600000D01*
X169307685Y-99615320D01*
X169200000Y-99664498D01*
X169200000Y-98769364D01*
X169199999Y-98769364D01*
X168986513Y-98826567D01*
X168986507Y-98826570D01*
X168772422Y-98926399D01*
X168772420Y-98926400D01*
X168578926Y-99061886D01*
X168578920Y-99061891D01*
X168411891Y-99228920D01*
X168411886Y-99228926D01*
X168276400Y-99422420D01*
X168276399Y-99422422D01*
X168176570Y-99636507D01*
X168176567Y-99636513D01*
X168119364Y-99849999D01*
X168119364Y-99850000D01*
X169016314Y-99850000D01*
X168990507Y-99890156D01*
X168950000Y-100028111D01*
X168950000Y-100171889D01*
X168990507Y-100309844D01*
X169016314Y-100350000D01*
X168119364Y-100350000D01*
X167817671Y-100350000D01*
X167835016Y-100296618D01*
X167855681Y-100100000D01*
X167835016Y-99903382D01*
X167773923Y-99715357D01*
X167675072Y-99544143D01*
X167542784Y-99397222D01*
X167382841Y-99281016D01*
X167202232Y-99200604D01*
X167202230Y-99200603D01*
X167061048Y-99170594D01*
X167008851Y-99159500D01*
X166811149Y-99159500D01*
X166789037Y-99164200D01*
X166617768Y-99200603D01*
X166617762Y-99200605D01*
X166437160Y-99281016D01*
X166437155Y-99281018D01*
X166277217Y-99397220D01*
X166277210Y-99397226D01*
X166144927Y-99544144D01*
X166046077Y-99715356D01*
X166046074Y-99715362D01*
X165992096Y-99881493D01*
X165984984Y-99903382D01*
X165964319Y-100100000D01*
X165315681Y-100100000D01*
X165295016Y-99903382D01*
X165233923Y-99715357D01*
X165135072Y-99544143D01*
X165002784Y-99397222D01*
X164842841Y-99281016D01*
X164662232Y-99200604D01*
X164662230Y-99200603D01*
X164521048Y-99170594D01*
X164468851Y-99159500D01*
X164271149Y-99159500D01*
X164249037Y-99164200D01*
X164077768Y-99200603D01*
X164077762Y-99200605D01*
X163897160Y-99281016D01*
X163897155Y-99281018D01*
X163737217Y-99397220D01*
X163737210Y-99397226D01*
X163604927Y-99544144D01*
X163506077Y-99715356D01*
X163506074Y-99715362D01*
X163470836Y-99823818D01*
X163431399Y-99881493D01*
X163367040Y-99908692D01*
X163352905Y-99909500D01*
X153554755Y-99909500D01*
X153487716Y-99889815D01*
X153441961Y-99837012D01*
X153416878Y-99782090D01*
X153416878Y-99782089D01*
X153324512Y-99675493D01*
X153324509Y-99675491D01*
X153324510Y-99675491D01*
X153205854Y-99599235D01*
X153070525Y-99559500D01*
X153070523Y-99559500D01*
X152929477Y-99559500D01*
X152929474Y-99559500D01*
X152794146Y-99599235D01*
X152794145Y-99599235D01*
X152675489Y-99675491D01*
X152583122Y-99782089D01*
X152583119Y-99782092D01*
X152524530Y-99910385D01*
X152524528Y-99910393D01*
X152504456Y-100050000D01*
X128160397Y-100050000D01*
X128215800Y-99977798D01*
X128275301Y-99834151D01*
X128295595Y-99680000D01*
X128295001Y-99675491D01*
X128279731Y-99559500D01*
X128275301Y-99525849D01*
X128215800Y-99382203D01*
X128121149Y-99258851D01*
X127997797Y-99164200D01*
X127997794Y-99164198D01*
X127854151Y-99104699D01*
X127854149Y-99104698D01*
X127738702Y-99089500D01*
X127738701Y-99089500D01*
X126766146Y-99089500D01*
X126699107Y-99069815D01*
X126653352Y-99017011D01*
X126643408Y-98947853D01*
X126672433Y-98884297D01*
X126731211Y-98846523D01*
X126736463Y-98845104D01*
X126848969Y-98817374D01*
X126980781Y-98748194D01*
X127092207Y-98649480D01*
X127176771Y-98526967D01*
X127229559Y-98387778D01*
X127247502Y-98240000D01*
X127229559Y-98092222D01*
X127176771Y-97953033D01*
X127092207Y-97830520D01*
X126980781Y-97731806D01*
X126848969Y-97662626D01*
X126848968Y-97662625D01*
X126848967Y-97662625D01*
X126760887Y-97640915D01*
X140697466Y-97640915D01*
X140717508Y-97767463D01*
X140717509Y-97767466D01*
X140717510Y-97767467D01*
X140775682Y-97881635D01*
X140775684Y-97881637D01*
X140775686Y-97881640D01*
X140866279Y-97972233D01*
X140866281Y-97972234D01*
X140866285Y-97972238D01*
X140980453Y-98030410D01*
X140980454Y-98030410D01*
X140980456Y-98030411D01*
X141107005Y-98050454D01*
X141107008Y-98050454D01*
X141107011Y-98050454D01*
X141233559Y-98030411D01*
X141233560Y-98030410D01*
X141233563Y-98030410D01*
X141347731Y-97972238D01*
X141438334Y-97881635D01*
X141496506Y-97767467D01*
X141498224Y-97756621D01*
X141516550Y-97640915D01*
X141516550Y-97640908D01*
X141496507Y-97514360D01*
X141496506Y-97514358D01*
X141496506Y-97514357D01*
X141438334Y-97400189D01*
X141438330Y-97400185D01*
X141438329Y-97400183D01*
X141347736Y-97309590D01*
X141347733Y-97309588D01*
X141347731Y-97309586D01*
X141233563Y-97251414D01*
X141233562Y-97251413D01*
X141233559Y-97251412D01*
X141167279Y-97240915D01*
X149597466Y-97240915D01*
X149617508Y-97367463D01*
X149617509Y-97367466D01*
X149617510Y-97367467D01*
X149675682Y-97481635D01*
X149675684Y-97481637D01*
X149675686Y-97481640D01*
X149766279Y-97572233D01*
X149766281Y-97572234D01*
X149766285Y-97572238D01*
X149880453Y-97630410D01*
X149880454Y-97630410D01*
X149880456Y-97630411D01*
X150007005Y-97650454D01*
X150007008Y-97650454D01*
X150007011Y-97650454D01*
X150133559Y-97630411D01*
X150133560Y-97630410D01*
X150133563Y-97630410D01*
X150247731Y-97572238D01*
X150259969Y-97560000D01*
X163424319Y-97560000D01*
X163444984Y-97756618D01*
X163444985Y-97756621D01*
X163506074Y-97944637D01*
X163506077Y-97944643D01*
X163604928Y-98115857D01*
X163705902Y-98228000D01*
X163724346Y-98248485D01*
X163737216Y-98262778D01*
X163897159Y-98378984D01*
X164077768Y-98459396D01*
X164271149Y-98500500D01*
X164271150Y-98500500D01*
X164468849Y-98500500D01*
X164468851Y-98500500D01*
X164662232Y-98459396D01*
X164842841Y-98378984D01*
X165002784Y-98262778D01*
X165135072Y-98115857D01*
X165233923Y-97944643D01*
X165295016Y-97756618D01*
X165315681Y-97560000D01*
X165964319Y-97560000D01*
X165984984Y-97756618D01*
X165984985Y-97756621D01*
X166046074Y-97944637D01*
X166046077Y-97944643D01*
X166144928Y-98115857D01*
X166245902Y-98228000D01*
X166264346Y-98248485D01*
X166277216Y-98262778D01*
X166437159Y-98378984D01*
X166617768Y-98459396D01*
X166811149Y-98500500D01*
X166811150Y-98500500D01*
X167008849Y-98500500D01*
X167008851Y-98500500D01*
X167202232Y-98459396D01*
X167293170Y-98418908D01*
X168509500Y-98418908D01*
X168514751Y-98445312D01*
X168514752Y-98445314D01*
X168534752Y-98475247D01*
X168564688Y-98495249D01*
X168573407Y-98496983D01*
X168591087Y-98500500D01*
X170308912Y-98500499D01*
X170335311Y-98495249D01*
X170365247Y-98475247D01*
X170385249Y-98445311D01*
X170390500Y-98418913D01*
X170390499Y-96701088D01*
X170385249Y-96674689D01*
X170385248Y-96674687D01*
X170385247Y-96674685D01*
X170365247Y-96644752D01*
X170335311Y-96624750D01*
X170308915Y-96619500D01*
X168591091Y-96619500D01*
X168564687Y-96624751D01*
X168564685Y-96624752D01*
X168534752Y-96644752D01*
X168514750Y-96674688D01*
X168509500Y-96701084D01*
X168509500Y-98418908D01*
X167293170Y-98418908D01*
X167382841Y-98378984D01*
X167542784Y-98262778D01*
X167675072Y-98115857D01*
X167773923Y-97944643D01*
X167835016Y-97756618D01*
X167855681Y-97560000D01*
X167835016Y-97363382D01*
X167773923Y-97175357D01*
X167675072Y-97004143D01*
X167542784Y-96857222D01*
X167382841Y-96741016D01*
X167202232Y-96660604D01*
X167202230Y-96660603D01*
X167061048Y-96630594D01*
X167008851Y-96619500D01*
X166811149Y-96619500D01*
X166786445Y-96624751D01*
X166617768Y-96660603D01*
X166617762Y-96660605D01*
X166437160Y-96741016D01*
X166437155Y-96741018D01*
X166277217Y-96857220D01*
X166277210Y-96857226D01*
X166144927Y-97004144D01*
X166046077Y-97175356D01*
X166046074Y-97175362D01*
X165984985Y-97363378D01*
X165984984Y-97363382D01*
X165964319Y-97560000D01*
X165315681Y-97560000D01*
X165295016Y-97363382D01*
X165233923Y-97175357D01*
X165135072Y-97004143D01*
X165002784Y-96857222D01*
X164842841Y-96741016D01*
X164662232Y-96660604D01*
X164662230Y-96660603D01*
X164521048Y-96630594D01*
X164468851Y-96619500D01*
X164271149Y-96619500D01*
X164246445Y-96624751D01*
X164077768Y-96660603D01*
X164077762Y-96660605D01*
X163897160Y-96741016D01*
X163897155Y-96741018D01*
X163737217Y-96857220D01*
X163737210Y-96857226D01*
X163604927Y-97004144D01*
X163506077Y-97175356D01*
X163506074Y-97175362D01*
X163444985Y-97363378D01*
X163444984Y-97363382D01*
X163424319Y-97560000D01*
X150259969Y-97560000D01*
X150338334Y-97481635D01*
X150396506Y-97367467D01*
X150405673Y-97309590D01*
X150416550Y-97240915D01*
X150416550Y-97240908D01*
X150396507Y-97114360D01*
X150396506Y-97114358D01*
X150396506Y-97114357D01*
X150338334Y-97000189D01*
X150338330Y-97000185D01*
X150338329Y-97000183D01*
X150247736Y-96909590D01*
X150247733Y-96909588D01*
X150247731Y-96909586D01*
X150133563Y-96851414D01*
X150133562Y-96851413D01*
X150133559Y-96851412D01*
X150007011Y-96831370D01*
X150007005Y-96831370D01*
X149880456Y-96851412D01*
X149869054Y-96857222D01*
X149766285Y-96909586D01*
X149766284Y-96909587D01*
X149766279Y-96909590D01*
X149675686Y-97000183D01*
X149675683Y-97000188D01*
X149675682Y-97000189D01*
X149673667Y-97004144D01*
X149617508Y-97114360D01*
X149597466Y-97240908D01*
X149597466Y-97240915D01*
X141167279Y-97240915D01*
X141107011Y-97231370D01*
X141107005Y-97231370D01*
X140980456Y-97251412D01*
X140924501Y-97279923D01*
X140866285Y-97309586D01*
X140866284Y-97309587D01*
X140866279Y-97309590D01*
X140775686Y-97400183D01*
X140775683Y-97400188D01*
X140717508Y-97514360D01*
X140697466Y-97640908D01*
X140697466Y-97640915D01*
X126760887Y-97640915D01*
X126751710Y-97638653D01*
X126704432Y-97627000D01*
X126555568Y-97627000D01*
X126519943Y-97635780D01*
X126411032Y-97662625D01*
X126279220Y-97731805D01*
X126167792Y-97830520D01*
X126083230Y-97953030D01*
X126030440Y-98092222D01*
X126012498Y-98240000D01*
X126030440Y-98387777D01*
X126052261Y-98445312D01*
X126083229Y-98526967D01*
X126167793Y-98649480D01*
X126279219Y-98748194D01*
X126411031Y-98817374D01*
X126544181Y-98850193D01*
X126604562Y-98885350D01*
X126636350Y-98947569D01*
X126629454Y-99017098D01*
X126586062Y-99071860D01*
X126530692Y-99093529D01*
X126445849Y-99104699D01*
X126445848Y-99104699D01*
X126302205Y-99164198D01*
X126302202Y-99164200D01*
X126178849Y-99258852D01*
X126084200Y-99382201D01*
X126084198Y-99382204D01*
X126024699Y-99525848D01*
X126024698Y-99525850D01*
X126004405Y-99679998D01*
X126004405Y-99680001D01*
X123945595Y-99680001D01*
X123945595Y-99680000D01*
X123945001Y-99675491D01*
X123929731Y-99559500D01*
X123925301Y-99525849D01*
X123865800Y-99382203D01*
X123771149Y-99258851D01*
X123647797Y-99164200D01*
X123647794Y-99164198D01*
X123504151Y-99104699D01*
X123504149Y-99104698D01*
X123388702Y-99089500D01*
X123388701Y-99089500D01*
X122511299Y-99089500D01*
X122511298Y-99089500D01*
X122395850Y-99104698D01*
X122395848Y-99104699D01*
X122252205Y-99164198D01*
X122252202Y-99164200D01*
X122128849Y-99258852D01*
X122034200Y-99382201D01*
X122034198Y-99382204D01*
X121974699Y-99525848D01*
X121974698Y-99525850D01*
X121954405Y-99679998D01*
X121954405Y-99680001D01*
X120300500Y-99680001D01*
X120300500Y-97150000D01*
X129594456Y-97150000D01*
X129614528Y-97289606D01*
X129614530Y-97289614D01*
X129673119Y-97417907D01*
X129673121Y-97417909D01*
X129673122Y-97417911D01*
X129765488Y-97524507D01*
X129765490Y-97524508D01*
X129765489Y-97524508D01*
X129884145Y-97600764D01*
X130019474Y-97640499D01*
X130019476Y-97640500D01*
X130019477Y-97640500D01*
X130160524Y-97640500D01*
X130160524Y-97640499D01*
X130295853Y-97600764D01*
X130295854Y-97600764D01*
X130340242Y-97572238D01*
X130414512Y-97524507D01*
X130506878Y-97417911D01*
X130565471Y-97289611D01*
X130585544Y-97150000D01*
X130565471Y-97010389D01*
X130552831Y-96982711D01*
X130506880Y-96882092D01*
X130506878Y-96882090D01*
X130506878Y-96882089D01*
X130414512Y-96775493D01*
X130414509Y-96775491D01*
X130414510Y-96775491D01*
X130295854Y-96699235D01*
X130160525Y-96659500D01*
X130160523Y-96659500D01*
X130019477Y-96659500D01*
X130019474Y-96659500D01*
X129884146Y-96699235D01*
X129884145Y-96699235D01*
X129765489Y-96775491D01*
X129673122Y-96882089D01*
X129673119Y-96882092D01*
X129614530Y-97010385D01*
X129614528Y-97010393D01*
X129594456Y-97150000D01*
X120300500Y-97150000D01*
X120300500Y-93150000D01*
X129594456Y-93150000D01*
X129614528Y-93289606D01*
X129614530Y-93289614D01*
X129673119Y-93417907D01*
X129673121Y-93417909D01*
X129673122Y-93417911D01*
X129765488Y-93524507D01*
X129765490Y-93524508D01*
X129765489Y-93524508D01*
X129884145Y-93600764D01*
X130019474Y-93640499D01*
X130019476Y-93640500D01*
X130019477Y-93640500D01*
X130160524Y-93640500D01*
X130160524Y-93640499D01*
X130295853Y-93600764D01*
X130295854Y-93600764D01*
X130346981Y-93567907D01*
X130414512Y-93524507D01*
X130506878Y-93417911D01*
X130560726Y-93300000D01*
X134854456Y-93300000D01*
X134874528Y-93439606D01*
X134874530Y-93439614D01*
X134933119Y-93567907D01*
X134933121Y-93567909D01*
X134933122Y-93567911D01*
X135025488Y-93674507D01*
X135025490Y-93674508D01*
X135025489Y-93674508D01*
X135144145Y-93750764D01*
X135279474Y-93790499D01*
X135279476Y-93790500D01*
X135279477Y-93790500D01*
X135420524Y-93790500D01*
X135420524Y-93790499D01*
X135555853Y-93750764D01*
X135555854Y-93750764D01*
X135674510Y-93674508D01*
X135674509Y-93674508D01*
X135674512Y-93674507D01*
X135703620Y-93640915D01*
X142197466Y-93640915D01*
X142217508Y-93767463D01*
X142217509Y-93767466D01*
X142217510Y-93767467D01*
X142275682Y-93881635D01*
X142275684Y-93881637D01*
X142275686Y-93881640D01*
X142366279Y-93972233D01*
X142366281Y-93972234D01*
X142366285Y-93972238D01*
X142480453Y-94030410D01*
X142480454Y-94030410D01*
X142480456Y-94030411D01*
X142607005Y-94050454D01*
X142607008Y-94050454D01*
X142607011Y-94050454D01*
X142733559Y-94030411D01*
X142733560Y-94030410D01*
X142733563Y-94030410D01*
X142847731Y-93972238D01*
X142931603Y-93888366D01*
X146097466Y-93888366D01*
X146117508Y-94014914D01*
X146117509Y-94014917D01*
X146117510Y-94014918D01*
X146175682Y-94129086D01*
X146175684Y-94129088D01*
X146175686Y-94129091D01*
X146266279Y-94219684D01*
X146266281Y-94219685D01*
X146266285Y-94219689D01*
X146380453Y-94277861D01*
X146380454Y-94277861D01*
X146380456Y-94277862D01*
X146507005Y-94297905D01*
X146507008Y-94297905D01*
X146507011Y-94297905D01*
X146633559Y-94277862D01*
X146633560Y-94277861D01*
X146633563Y-94277861D01*
X146747731Y-94219689D01*
X146838334Y-94129086D01*
X146896506Y-94014918D01*
X146916550Y-93888363D01*
X146916550Y-93888359D01*
X146896507Y-93761811D01*
X146896506Y-93761809D01*
X146896506Y-93761808D01*
X146838334Y-93647640D01*
X146838330Y-93647636D01*
X146838329Y-93647634D01*
X146747736Y-93557041D01*
X146747733Y-93557039D01*
X146747731Y-93557037D01*
X146633563Y-93498865D01*
X146633562Y-93498864D01*
X146633559Y-93498863D01*
X146507011Y-93478821D01*
X146507005Y-93478821D01*
X146380456Y-93498863D01*
X146330128Y-93524507D01*
X146266285Y-93557037D01*
X146266284Y-93557038D01*
X146266279Y-93557041D01*
X146175686Y-93647634D01*
X146175683Y-93647639D01*
X146175682Y-93647640D01*
X146161992Y-93674508D01*
X146117508Y-93761811D01*
X146097466Y-93888359D01*
X146097466Y-93888366D01*
X142931603Y-93888366D01*
X142938334Y-93881635D01*
X142996506Y-93767467D01*
X142997402Y-93761811D01*
X143016550Y-93640915D01*
X143016550Y-93640908D01*
X142996507Y-93514360D01*
X142996506Y-93514358D01*
X142996506Y-93514357D01*
X142938334Y-93400189D01*
X142938330Y-93400185D01*
X142938329Y-93400183D01*
X142847736Y-93309590D01*
X142847733Y-93309588D01*
X142847731Y-93309586D01*
X142733563Y-93251414D01*
X142733562Y-93251413D01*
X142733559Y-93251412D01*
X142607011Y-93231370D01*
X142607005Y-93231370D01*
X142480456Y-93251412D01*
X142424501Y-93279923D01*
X142366285Y-93309586D01*
X142366284Y-93309587D01*
X142366279Y-93309590D01*
X142275686Y-93400183D01*
X142275683Y-93400188D01*
X142275682Y-93400189D01*
X142266654Y-93417907D01*
X142217508Y-93514360D01*
X142197466Y-93640908D01*
X142197466Y-93640915D01*
X135703620Y-93640915D01*
X135766878Y-93567911D01*
X135825471Y-93439611D01*
X135845544Y-93300000D01*
X135825471Y-93160389D01*
X135785562Y-93073000D01*
X135766880Y-93032092D01*
X135766878Y-93032090D01*
X135766878Y-93032089D01*
X135739075Y-93000003D01*
X145140458Y-93000003D01*
X145160500Y-93126551D01*
X145160501Y-93126554D01*
X145160502Y-93126555D01*
X145218674Y-93240723D01*
X145218676Y-93240725D01*
X145218678Y-93240728D01*
X145309271Y-93331321D01*
X145309273Y-93331322D01*
X145309277Y-93331326D01*
X145423445Y-93389498D01*
X145423446Y-93389498D01*
X145423448Y-93389499D01*
X145549997Y-93409542D01*
X145550000Y-93409542D01*
X145550003Y-93409542D01*
X145676551Y-93389499D01*
X145676552Y-93389498D01*
X145676555Y-93389498D01*
X145790723Y-93331326D01*
X145881326Y-93240723D01*
X145939498Y-93126555D01*
X145939499Y-93126551D01*
X145959542Y-93000003D01*
X145959542Y-92999996D01*
X145939499Y-92873448D01*
X145939498Y-92873446D01*
X145939498Y-92873445D01*
X145881326Y-92759277D01*
X145881322Y-92759273D01*
X145881321Y-92759271D01*
X145790728Y-92668678D01*
X145790725Y-92668676D01*
X145790723Y-92668674D01*
X145676555Y-92610502D01*
X145676554Y-92610501D01*
X145676551Y-92610500D01*
X145610271Y-92600003D01*
X146940458Y-92600003D01*
X146960500Y-92726551D01*
X146960501Y-92726554D01*
X146960502Y-92726555D01*
X147018674Y-92840723D01*
X147018676Y-92840725D01*
X147018678Y-92840728D01*
X147109271Y-92931321D01*
X147109273Y-92931322D01*
X147109277Y-92931326D01*
X147223445Y-92989498D01*
X147223446Y-92989498D01*
X147223448Y-92989499D01*
X147349997Y-93009542D01*
X147350000Y-93009542D01*
X147350003Y-93009542D01*
X147476551Y-92989499D01*
X147476552Y-92989498D01*
X147476555Y-92989498D01*
X147590723Y-92931326D01*
X147681326Y-92840723D01*
X147739498Y-92726555D01*
X147748665Y-92668678D01*
X147761069Y-92590362D01*
X147764254Y-92590866D01*
X147779227Y-92539875D01*
X147832031Y-92494120D01*
X147901189Y-92484176D01*
X147921864Y-92488984D01*
X147923439Y-92489495D01*
X147923445Y-92489498D01*
X147923450Y-92489498D01*
X147923451Y-92489499D01*
X148049997Y-92509542D01*
X148050000Y-92509542D01*
X148050003Y-92509542D01*
X148176551Y-92489499D01*
X148176552Y-92489498D01*
X148176555Y-92489498D01*
X148290723Y-92431326D01*
X148296558Y-92425491D01*
X148362319Y-92359731D01*
X148423642Y-92326246D01*
X148493334Y-92331230D01*
X148537681Y-92359731D01*
X148609271Y-92431321D01*
X148609273Y-92431322D01*
X148609277Y-92431326D01*
X148723445Y-92489498D01*
X148723446Y-92489498D01*
X148723448Y-92489499D01*
X148849997Y-92509542D01*
X148850000Y-92509542D01*
X148850003Y-92509542D01*
X148910250Y-92500000D01*
X165054456Y-92500000D01*
X165074528Y-92639606D01*
X165074530Y-92639614D01*
X165133119Y-92767907D01*
X165133121Y-92767909D01*
X165133122Y-92767911D01*
X165225488Y-92874507D01*
X165225490Y-92874508D01*
X165225489Y-92874508D01*
X165344145Y-92950764D01*
X165459944Y-92984764D01*
X165476064Y-92989498D01*
X165479474Y-92990499D01*
X165479476Y-92990500D01*
X165479477Y-92990500D01*
X165620524Y-92990500D01*
X165620524Y-92990499D01*
X165755853Y-92950764D01*
X165755854Y-92950764D01*
X165773209Y-92939611D01*
X165874512Y-92874507D01*
X165966878Y-92767911D01*
X165970822Y-92759276D01*
X165985767Y-92726551D01*
X166025471Y-92639611D01*
X166045544Y-92500000D01*
X166025471Y-92360389D01*
X166002231Y-92309500D01*
X165966880Y-92232092D01*
X165966878Y-92232090D01*
X165966878Y-92232089D01*
X165874512Y-92125493D01*
X165874509Y-92125491D01*
X165874510Y-92125491D01*
X165755854Y-92049235D01*
X165620525Y-92009500D01*
X165620523Y-92009500D01*
X165479477Y-92009500D01*
X165479474Y-92009500D01*
X165344146Y-92049235D01*
X165344145Y-92049235D01*
X165225489Y-92125491D01*
X165133122Y-92232089D01*
X165133119Y-92232092D01*
X165074530Y-92360385D01*
X165074528Y-92360393D01*
X165054456Y-92500000D01*
X148910250Y-92500000D01*
X148976551Y-92489499D01*
X148976552Y-92489498D01*
X148976555Y-92489498D01*
X149090723Y-92431326D01*
X149181326Y-92340723D01*
X149239498Y-92226555D01*
X149242773Y-92205879D01*
X149259542Y-92100003D01*
X149259542Y-92099996D01*
X149239499Y-91973448D01*
X149239498Y-91973446D01*
X149239498Y-91973445D01*
X149202077Y-91900003D01*
X151540458Y-91900003D01*
X151560500Y-92026551D01*
X151560501Y-92026554D01*
X151560502Y-92026555D01*
X151618674Y-92140723D01*
X151618676Y-92140725D01*
X151618678Y-92140728D01*
X151709271Y-92231321D01*
X151709273Y-92231322D01*
X151709277Y-92231326D01*
X151823445Y-92289498D01*
X151823446Y-92289498D01*
X151823448Y-92289499D01*
X151949997Y-92309542D01*
X151950000Y-92309542D01*
X151950003Y-92309542D01*
X152076551Y-92289499D01*
X152076552Y-92289498D01*
X152076555Y-92289498D01*
X152190723Y-92231326D01*
X152281326Y-92140723D01*
X152339498Y-92026555D01*
X152342193Y-92009542D01*
X152359542Y-91900003D01*
X152359542Y-91899996D01*
X152339499Y-91773448D01*
X152339498Y-91773446D01*
X152339498Y-91773445D01*
X152281326Y-91659277D01*
X152281322Y-91659273D01*
X152281321Y-91659271D01*
X152190728Y-91568678D01*
X152190725Y-91568676D01*
X152190723Y-91568674D01*
X152076555Y-91510502D01*
X152076554Y-91510501D01*
X152076551Y-91510500D01*
X151950003Y-91490458D01*
X151949997Y-91490458D01*
X151823448Y-91510500D01*
X151782586Y-91531321D01*
X151709277Y-91568674D01*
X151709276Y-91568675D01*
X151709271Y-91568678D01*
X151618678Y-91659271D01*
X151618675Y-91659276D01*
X151618674Y-91659277D01*
X151592574Y-91710500D01*
X151560500Y-91773448D01*
X151540458Y-91899996D01*
X151540458Y-91900003D01*
X149202077Y-91900003D01*
X149181326Y-91859277D01*
X149181322Y-91859273D01*
X149181321Y-91859271D01*
X149090728Y-91768678D01*
X149090724Y-91768675D01*
X149090723Y-91768674D01*
X149088458Y-91767520D01*
X149033128Y-91739327D01*
X148982332Y-91691352D01*
X148965538Y-91623531D01*
X148988076Y-91557396D01*
X149042792Y-91513945D01*
X149070017Y-91506371D01*
X149176555Y-91489498D01*
X149290723Y-91431326D01*
X149381326Y-91340723D01*
X149402074Y-91300003D01*
X158140458Y-91300003D01*
X158160500Y-91426551D01*
X158160501Y-91426554D01*
X158160502Y-91426555D01*
X158218674Y-91540723D01*
X158218676Y-91540725D01*
X158218678Y-91540728D01*
X158309271Y-91631321D01*
X158309273Y-91631322D01*
X158309277Y-91631326D01*
X158423445Y-91689498D01*
X158423446Y-91689498D01*
X158423448Y-91689499D01*
X158549997Y-91709542D01*
X158550000Y-91709542D01*
X158550003Y-91709542D01*
X158676551Y-91689499D01*
X158676552Y-91689498D01*
X158676555Y-91689498D01*
X158790723Y-91631326D01*
X158881326Y-91540723D01*
X158939498Y-91426555D01*
X158950155Y-91359271D01*
X158959542Y-91300003D01*
X158959542Y-91299996D01*
X158939499Y-91173448D01*
X158939498Y-91173446D01*
X158939498Y-91173445D01*
X158881326Y-91059277D01*
X158881322Y-91059273D01*
X158881321Y-91059271D01*
X158790728Y-90968678D01*
X158790725Y-90968676D01*
X158790723Y-90968674D01*
X158676555Y-90910502D01*
X158676554Y-90910501D01*
X158676551Y-90910500D01*
X158550003Y-90890458D01*
X158549997Y-90890458D01*
X158423448Y-90910500D01*
X158367493Y-90939011D01*
X158309277Y-90968674D01*
X158309276Y-90968675D01*
X158309271Y-90968678D01*
X158218678Y-91059271D01*
X158218675Y-91059276D01*
X158218674Y-91059277D01*
X158189011Y-91117493D01*
X158160500Y-91173448D01*
X158140458Y-91299996D01*
X158140458Y-91300003D01*
X149402074Y-91300003D01*
X149439498Y-91226555D01*
X149442041Y-91210500D01*
X149459542Y-91100003D01*
X149459542Y-91099996D01*
X149439499Y-90973448D01*
X149439498Y-90973446D01*
X149439498Y-90973445D01*
X149381326Y-90859277D01*
X149381322Y-90859273D01*
X149381321Y-90859271D01*
X149290728Y-90768678D01*
X149290725Y-90768676D01*
X149290723Y-90768674D01*
X149176555Y-90710502D01*
X149176554Y-90710501D01*
X149176551Y-90710500D01*
X149110271Y-90700003D01*
X153940458Y-90700003D01*
X153960500Y-90826551D01*
X153960501Y-90826554D01*
X153960502Y-90826555D01*
X154018674Y-90940723D01*
X154018676Y-90940725D01*
X154018678Y-90940728D01*
X154109271Y-91031321D01*
X154109273Y-91031322D01*
X154109277Y-91031326D01*
X154223445Y-91089498D01*
X154223446Y-91089498D01*
X154223448Y-91089499D01*
X154349997Y-91109542D01*
X154350000Y-91109542D01*
X154350003Y-91109542D01*
X154476551Y-91089499D01*
X154476552Y-91089498D01*
X154476555Y-91089498D01*
X154590723Y-91031326D01*
X154681326Y-90940723D01*
X154739498Y-90826555D01*
X154742041Y-90810500D01*
X154759542Y-90700003D01*
X154759542Y-90699996D01*
X154739499Y-90573448D01*
X154739498Y-90573446D01*
X154739498Y-90573445D01*
X154702076Y-90500000D01*
X163754456Y-90500000D01*
X163774528Y-90639606D01*
X163774530Y-90639614D01*
X163833119Y-90767907D01*
X163833121Y-90767909D01*
X163833122Y-90767911D01*
X163925488Y-90874507D01*
X163925490Y-90874508D01*
X163925489Y-90874508D01*
X164044145Y-90950764D01*
X164179474Y-90990499D01*
X164179476Y-90990500D01*
X164179477Y-90990500D01*
X164320524Y-90990500D01*
X164320524Y-90990499D01*
X164455853Y-90950764D01*
X164455854Y-90950764D01*
X164471471Y-90940728D01*
X164574512Y-90874507D01*
X164666878Y-90767911D01*
X164725471Y-90639611D01*
X164745544Y-90500000D01*
X164725471Y-90360389D01*
X164695497Y-90294756D01*
X164666880Y-90232092D01*
X164666878Y-90232090D01*
X164666878Y-90232089D01*
X164574512Y-90125493D01*
X164574509Y-90125491D01*
X164574510Y-90125491D01*
X164455854Y-90049235D01*
X164320525Y-90009500D01*
X164320523Y-90009500D01*
X164179477Y-90009500D01*
X164179474Y-90009500D01*
X164044146Y-90049235D01*
X164044145Y-90049235D01*
X163925489Y-90125491D01*
X163833122Y-90232089D01*
X163833119Y-90232092D01*
X163774530Y-90360385D01*
X163774528Y-90360393D01*
X163754456Y-90500000D01*
X154702076Y-90500000D01*
X154681326Y-90459277D01*
X154681322Y-90459273D01*
X154681321Y-90459271D01*
X154590728Y-90368678D01*
X154590725Y-90368676D01*
X154590723Y-90368674D01*
X154476555Y-90310502D01*
X154476554Y-90310501D01*
X154476551Y-90310500D01*
X154350003Y-90290458D01*
X154349997Y-90290458D01*
X154223448Y-90310500D01*
X154186972Y-90329086D01*
X154109277Y-90368674D01*
X154109276Y-90368675D01*
X154109271Y-90368678D01*
X154018678Y-90459271D01*
X154018675Y-90459276D01*
X154018674Y-90459277D01*
X153992573Y-90510502D01*
X153960500Y-90573448D01*
X153940458Y-90699996D01*
X153940458Y-90700003D01*
X149110271Y-90700003D01*
X149050003Y-90690458D01*
X149049997Y-90690458D01*
X148923448Y-90710500D01*
X148880855Y-90732203D01*
X148809277Y-90768674D01*
X148809276Y-90768675D01*
X148809271Y-90768678D01*
X148718678Y-90859271D01*
X148718675Y-90859276D01*
X148718674Y-90859277D01*
X148697923Y-90900003D01*
X148660500Y-90973448D01*
X148640458Y-91099996D01*
X148640458Y-91100003D01*
X148660500Y-91226551D01*
X148660501Y-91226554D01*
X148660502Y-91226555D01*
X148718674Y-91340723D01*
X148718676Y-91340725D01*
X148718678Y-91340728D01*
X148809271Y-91431321D01*
X148809274Y-91431323D01*
X148809277Y-91431326D01*
X148854471Y-91454354D01*
X148866871Y-91460672D01*
X148917666Y-91508646D01*
X148934461Y-91576467D01*
X148911923Y-91642602D01*
X148857208Y-91686053D01*
X148829973Y-91693629D01*
X148723447Y-91710500D01*
X148666873Y-91739327D01*
X148609277Y-91768674D01*
X148609276Y-91768675D01*
X148609271Y-91768678D01*
X148537681Y-91840269D01*
X148476358Y-91873754D01*
X148406666Y-91868770D01*
X148362319Y-91840269D01*
X148290728Y-91768678D01*
X148290725Y-91768676D01*
X148290723Y-91768674D01*
X148176555Y-91710502D01*
X148176554Y-91710501D01*
X148176551Y-91710500D01*
X148050003Y-91690458D01*
X148049997Y-91690458D01*
X147923448Y-91710500D01*
X147891947Y-91726551D01*
X147809277Y-91768674D01*
X147809276Y-91768675D01*
X147809271Y-91768678D01*
X147718678Y-91859271D01*
X147718675Y-91859276D01*
X147718674Y-91859277D01*
X147697923Y-91900003D01*
X147660500Y-91973448D01*
X147638931Y-92109638D01*
X147635745Y-92109133D01*
X147620773Y-92160124D01*
X147567969Y-92205879D01*
X147498811Y-92215823D01*
X147478146Y-92211018D01*
X147476555Y-92210501D01*
X147350003Y-92190458D01*
X147349997Y-92190458D01*
X147223448Y-92210500D01*
X147167493Y-92239011D01*
X147109277Y-92268674D01*
X147109276Y-92268675D01*
X147109271Y-92268678D01*
X147018678Y-92359271D01*
X147018675Y-92359276D01*
X147018674Y-92359277D01*
X146989011Y-92417493D01*
X146960500Y-92473448D01*
X146940458Y-92599996D01*
X146940458Y-92600003D01*
X145610271Y-92600003D01*
X145550003Y-92590458D01*
X145549997Y-92590458D01*
X145423448Y-92610500D01*
X145367493Y-92639011D01*
X145309277Y-92668674D01*
X145309276Y-92668675D01*
X145309271Y-92668678D01*
X145218678Y-92759271D01*
X145218675Y-92759276D01*
X145218674Y-92759277D01*
X145193084Y-92809500D01*
X145160500Y-92873448D01*
X145140458Y-92999996D01*
X145140458Y-93000003D01*
X135739075Y-93000003D01*
X135674512Y-92925493D01*
X135674509Y-92925491D01*
X135674510Y-92925491D01*
X135555854Y-92849235D01*
X135420525Y-92809500D01*
X135420523Y-92809500D01*
X135279477Y-92809500D01*
X135279474Y-92809500D01*
X135144146Y-92849235D01*
X135144145Y-92849235D01*
X135025489Y-92925491D01*
X134933122Y-93032089D01*
X134933119Y-93032092D01*
X134874530Y-93160385D01*
X134874528Y-93160393D01*
X134854456Y-93300000D01*
X130560726Y-93300000D01*
X130565471Y-93289611D01*
X130585544Y-93150000D01*
X130565471Y-93010389D01*
X130533148Y-92939611D01*
X130506880Y-92882092D01*
X130506878Y-92882090D01*
X130506878Y-92882089D01*
X130435747Y-92800000D01*
X133454456Y-92800000D01*
X133474528Y-92939606D01*
X133474530Y-92939614D01*
X133533119Y-93067907D01*
X133533121Y-93067909D01*
X133533122Y-93067911D01*
X133625488Y-93174507D01*
X133625490Y-93174508D01*
X133625489Y-93174508D01*
X133744145Y-93250764D01*
X133859944Y-93284764D01*
X133876449Y-93289611D01*
X133879474Y-93290499D01*
X133879476Y-93290500D01*
X133879477Y-93290500D01*
X134020524Y-93290500D01*
X134020524Y-93290499D01*
X134155853Y-93250764D01*
X134155854Y-93250764D01*
X134171471Y-93240728D01*
X134274512Y-93174507D01*
X134366878Y-93067911D01*
X134425471Y-92939611D01*
X134445544Y-92800000D01*
X134425471Y-92660389D01*
X134401444Y-92607777D01*
X134366880Y-92532092D01*
X134366878Y-92532090D01*
X134366878Y-92532089D01*
X134274512Y-92425493D01*
X134274509Y-92425491D01*
X134274510Y-92425491D01*
X134155854Y-92349235D01*
X134020525Y-92309500D01*
X134020523Y-92309500D01*
X133879477Y-92309500D01*
X133879474Y-92309500D01*
X133744146Y-92349235D01*
X133744145Y-92349235D01*
X133625489Y-92425491D01*
X133533122Y-92532089D01*
X133533119Y-92532092D01*
X133474530Y-92660385D01*
X133474528Y-92660393D01*
X133454456Y-92800000D01*
X130435747Y-92800000D01*
X130414512Y-92775493D01*
X130414509Y-92775491D01*
X130414510Y-92775491D01*
X130295854Y-92699235D01*
X130160525Y-92659500D01*
X130160523Y-92659500D01*
X130019477Y-92659500D01*
X130019474Y-92659500D01*
X129884146Y-92699235D01*
X129884145Y-92699235D01*
X129765489Y-92775491D01*
X129673122Y-92882089D01*
X129673119Y-92882092D01*
X129614530Y-93010385D01*
X129614528Y-93010393D01*
X129594456Y-93150000D01*
X120300500Y-93150000D01*
X120300500Y-91030001D01*
X121954405Y-91030001D01*
X121974698Y-91184149D01*
X121974699Y-91184151D01*
X122034198Y-91327794D01*
X122034199Y-91327795D01*
X122034200Y-91327797D01*
X122128851Y-91451149D01*
X122252203Y-91545800D01*
X122395849Y-91605301D01*
X122453574Y-91612900D01*
X122511298Y-91620500D01*
X122511299Y-91620500D01*
X123388702Y-91620500D01*
X123445761Y-91612988D01*
X123504151Y-91605301D01*
X123647797Y-91545800D01*
X123771149Y-91451149D01*
X123865800Y-91327798D01*
X123925301Y-91184151D01*
X123941741Y-91059276D01*
X123945595Y-91030001D01*
X126004405Y-91030001D01*
X126024698Y-91184149D01*
X126024699Y-91184151D01*
X126084198Y-91327794D01*
X126084199Y-91327795D01*
X126084200Y-91327797D01*
X126178851Y-91451149D01*
X126302203Y-91545800D01*
X126445849Y-91605301D01*
X126504246Y-91612989D01*
X126568141Y-91641253D01*
X126606613Y-91699577D01*
X126607445Y-91769442D01*
X126570373Y-91828666D01*
X126517737Y-91856323D01*
X126411035Y-91882624D01*
X126411034Y-91882624D01*
X126279220Y-91951805D01*
X126167792Y-92050520D01*
X126083230Y-92173030D01*
X126030440Y-92312222D01*
X126012498Y-92460000D01*
X126030440Y-92607777D01*
X126083230Y-92746969D01*
X126147947Y-92840728D01*
X126167793Y-92869480D01*
X126279219Y-92968194D01*
X126411031Y-93037374D01*
X126555568Y-93073000D01*
X126555569Y-93073000D01*
X126704431Y-93073000D01*
X126704432Y-93073000D01*
X126848969Y-93037374D01*
X126980781Y-92968194D01*
X127092207Y-92869480D01*
X127176771Y-92746967D01*
X127229559Y-92607778D01*
X127247502Y-92460000D01*
X127229559Y-92312222D01*
X127176771Y-92173033D01*
X127092207Y-92050520D01*
X126980781Y-91951806D01*
X126848969Y-91882626D01*
X126848968Y-91882625D01*
X126848967Y-91882625D01*
X126777041Y-91864897D01*
X126716661Y-91829740D01*
X126684873Y-91767520D01*
X126691769Y-91697992D01*
X126735161Y-91643229D01*
X126801271Y-91620620D01*
X126806717Y-91620500D01*
X127738702Y-91620500D01*
X127795761Y-91612988D01*
X127854151Y-91605301D01*
X127866941Y-91600003D01*
X131680458Y-91600003D01*
X131700500Y-91726551D01*
X131700501Y-91726554D01*
X131700502Y-91726555D01*
X131758674Y-91840723D01*
X131758676Y-91840725D01*
X131758678Y-91840728D01*
X131849271Y-91931321D01*
X131849273Y-91931322D01*
X131849277Y-91931326D01*
X131963445Y-91989498D01*
X131963446Y-91989498D01*
X131963448Y-91989499D01*
X132089997Y-92009542D01*
X132090000Y-92009542D01*
X132090003Y-92009542D01*
X132216551Y-91989499D01*
X132216552Y-91989498D01*
X132216555Y-91989498D01*
X132330723Y-91931326D01*
X132421326Y-91840723D01*
X132479498Y-91726555D01*
X132485074Y-91691352D01*
X132499542Y-91600003D01*
X132499542Y-91599996D01*
X132479499Y-91473448D01*
X132479498Y-91473446D01*
X132479498Y-91473445D01*
X132421326Y-91359277D01*
X132421322Y-91359273D01*
X132421321Y-91359271D01*
X132330728Y-91268678D01*
X132330725Y-91268676D01*
X132330723Y-91268674D01*
X132216555Y-91210502D01*
X132216554Y-91210501D01*
X132216551Y-91210500D01*
X132090003Y-91190458D01*
X132089997Y-91190458D01*
X131963448Y-91210500D01*
X131931947Y-91226551D01*
X131849277Y-91268674D01*
X131849276Y-91268675D01*
X131849271Y-91268678D01*
X131758678Y-91359271D01*
X131758675Y-91359276D01*
X131700500Y-91473448D01*
X131680458Y-91599996D01*
X131680458Y-91600003D01*
X127866941Y-91600003D01*
X127997797Y-91545800D01*
X128121149Y-91451149D01*
X128215800Y-91327798D01*
X128275301Y-91184151D01*
X128291741Y-91059276D01*
X128295595Y-91030001D01*
X128295595Y-91029998D01*
X128275301Y-90875850D01*
X128275301Y-90875849D01*
X128215800Y-90732203D01*
X128121149Y-90608851D01*
X128094452Y-90588366D01*
X139497466Y-90588366D01*
X139517508Y-90714914D01*
X139517509Y-90714917D01*
X139517510Y-90714918D01*
X139575682Y-90829086D01*
X139575684Y-90829088D01*
X139575686Y-90829091D01*
X139666279Y-90919684D01*
X139666281Y-90919685D01*
X139666285Y-90919689D01*
X139780453Y-90977861D01*
X139780454Y-90977861D01*
X139780456Y-90977862D01*
X139907005Y-90997905D01*
X139907008Y-90997905D01*
X139907011Y-90997905D01*
X140033559Y-90977862D01*
X140033560Y-90977861D01*
X140033563Y-90977861D01*
X140147731Y-90919689D01*
X140238334Y-90829086D01*
X140296506Y-90714918D01*
X140296507Y-90714914D01*
X140316550Y-90588366D01*
X140316550Y-90588359D01*
X140296507Y-90461811D01*
X140296506Y-90461809D01*
X140296506Y-90461808D01*
X140238334Y-90347640D01*
X140238330Y-90347636D01*
X140238329Y-90347634D01*
X140147736Y-90257041D01*
X140147733Y-90257039D01*
X140147731Y-90257037D01*
X140033563Y-90198865D01*
X140033562Y-90198864D01*
X140033559Y-90198863D01*
X139907011Y-90178821D01*
X139907005Y-90178821D01*
X139780456Y-90198863D01*
X139748955Y-90214914D01*
X139666285Y-90257037D01*
X139666284Y-90257038D01*
X139666279Y-90257041D01*
X139575686Y-90347634D01*
X139575683Y-90347639D01*
X139517508Y-90461811D01*
X139497466Y-90588359D01*
X139497466Y-90588366D01*
X128094452Y-90588366D01*
X127997797Y-90514200D01*
X127997794Y-90514198D01*
X127854151Y-90454699D01*
X127854149Y-90454698D01*
X127738702Y-90439500D01*
X127738701Y-90439500D01*
X126561299Y-90439500D01*
X126561298Y-90439500D01*
X126445850Y-90454698D01*
X126445848Y-90454699D01*
X126302205Y-90514198D01*
X126302202Y-90514200D01*
X126178849Y-90608852D01*
X126084200Y-90732201D01*
X126084198Y-90732204D01*
X126024699Y-90875848D01*
X126024698Y-90875850D01*
X126004405Y-91029998D01*
X126004405Y-91030001D01*
X123945595Y-91030001D01*
X123945595Y-91029998D01*
X123925301Y-90875850D01*
X123925301Y-90875849D01*
X123865800Y-90732203D01*
X123771149Y-90608851D01*
X123647797Y-90514200D01*
X123647794Y-90514198D01*
X123504151Y-90454699D01*
X123504149Y-90454698D01*
X123388702Y-90439500D01*
X123388701Y-90439500D01*
X122511299Y-90439500D01*
X122511298Y-90439500D01*
X122395850Y-90454698D01*
X122395848Y-90454699D01*
X122252205Y-90514198D01*
X122252202Y-90514200D01*
X122128849Y-90608852D01*
X122034200Y-90732201D01*
X122034198Y-90732204D01*
X121974699Y-90875848D01*
X121974698Y-90875850D01*
X121954405Y-91029998D01*
X121954405Y-91030001D01*
X120300500Y-91030001D01*
X120300500Y-90088366D01*
X140797466Y-90088366D01*
X140817508Y-90214914D01*
X140817509Y-90214917D01*
X140817510Y-90214918D01*
X140875682Y-90329086D01*
X140875684Y-90329088D01*
X140875686Y-90329091D01*
X140973185Y-90426590D01*
X140970735Y-90429039D01*
X141002674Y-90470441D01*
X141008669Y-90540053D01*
X140976076Y-90601855D01*
X140974815Y-90603135D01*
X140918675Y-90659274D01*
X140918675Y-90659276D01*
X140918674Y-90659277D01*
X140892574Y-90710500D01*
X140860500Y-90773448D01*
X140840458Y-90899996D01*
X140840458Y-90900003D01*
X140860500Y-91026551D01*
X140860501Y-91026554D01*
X140860502Y-91026555D01*
X140918674Y-91140723D01*
X140918676Y-91140725D01*
X140918678Y-91140728D01*
X141009271Y-91231321D01*
X141009273Y-91231322D01*
X141009277Y-91231326D01*
X141123445Y-91289498D01*
X141123446Y-91289498D01*
X141123448Y-91289499D01*
X141249997Y-91309542D01*
X141250000Y-91309542D01*
X141250003Y-91309542D01*
X141376551Y-91289499D01*
X141376552Y-91289498D01*
X141376555Y-91289498D01*
X141490723Y-91231326D01*
X141522046Y-91200003D01*
X145440458Y-91200003D01*
X145460500Y-91326551D01*
X145460501Y-91326554D01*
X145460502Y-91326555D01*
X145518674Y-91440723D01*
X145518676Y-91440725D01*
X145518678Y-91440728D01*
X145609271Y-91531321D01*
X145609273Y-91531322D01*
X145609277Y-91531326D01*
X145723445Y-91589498D01*
X145723446Y-91589498D01*
X145723448Y-91589499D01*
X145849997Y-91609542D01*
X145850000Y-91609542D01*
X145850003Y-91609542D01*
X145976551Y-91589499D01*
X145976552Y-91589498D01*
X145976555Y-91589498D01*
X146090723Y-91531326D01*
X146181326Y-91440723D01*
X146239498Y-91326555D01*
X146242193Y-91309542D01*
X146259542Y-91200003D01*
X146259542Y-91199996D01*
X146239499Y-91073448D01*
X146239498Y-91073446D01*
X146239498Y-91073445D01*
X146181326Y-90959277D01*
X146181322Y-90959273D01*
X146181321Y-90959271D01*
X146090728Y-90868678D01*
X146090725Y-90868676D01*
X146090723Y-90868674D01*
X145976555Y-90810502D01*
X145976554Y-90810501D01*
X145976547Y-90810498D01*
X145970958Y-90808682D01*
X145913285Y-90769241D01*
X145886091Y-90704881D01*
X145898010Y-90636035D01*
X145945258Y-90584562D01*
X145958851Y-90577473D01*
X146028292Y-90546557D01*
X146181350Y-90435352D01*
X146181353Y-90435350D01*
X146307941Y-90294759D01*
X146307943Y-90294756D01*
X146402530Y-90130925D01*
X146402534Y-90130916D01*
X146440900Y-90012841D01*
X145825814Y-90012841D01*
X145825814Y-90688382D01*
X145806129Y-90755421D01*
X145753325Y-90801176D01*
X145732699Y-90807392D01*
X145732729Y-90807485D01*
X145723448Y-90810500D01*
X145691947Y-90826551D01*
X145609277Y-90868674D01*
X145609276Y-90868675D01*
X145609271Y-90868678D01*
X145518678Y-90959271D01*
X145518675Y-90959276D01*
X145518674Y-90959277D01*
X145502765Y-90990500D01*
X145460500Y-91073448D01*
X145440458Y-91199996D01*
X145440458Y-91200003D01*
X141522046Y-91200003D01*
X141581326Y-91140723D01*
X141639498Y-91026555D01*
X141644036Y-90997905D01*
X141659542Y-90900003D01*
X141659542Y-90899996D01*
X141639499Y-90773448D01*
X141639498Y-90773446D01*
X141639498Y-90773445D01*
X141581326Y-90659277D01*
X141581322Y-90659273D01*
X141581321Y-90659271D01*
X141483823Y-90561773D01*
X141486271Y-90559324D01*
X141454328Y-90517908D01*
X141448341Y-90448296D01*
X141480940Y-90386497D01*
X141482123Y-90385296D01*
X141538334Y-90329086D01*
X141596506Y-90214918D01*
X141599049Y-90198863D01*
X141616550Y-90088366D01*
X141616550Y-90088359D01*
X141604589Y-90012841D01*
X144710728Y-90012841D01*
X144749093Y-90130916D01*
X144749097Y-90130925D01*
X144843684Y-90294756D01*
X144843686Y-90294759D01*
X144970274Y-90435350D01*
X144970277Y-90435352D01*
X145123336Y-90546558D01*
X145296170Y-90623507D01*
X145325813Y-90629807D01*
X145325814Y-90629807D01*
X145325814Y-90012841D01*
X144710728Y-90012841D01*
X141604589Y-90012841D01*
X141602556Y-90000003D01*
X168040458Y-90000003D01*
X168060500Y-90126551D01*
X168060501Y-90126554D01*
X168060502Y-90126555D01*
X168118674Y-90240723D01*
X168118676Y-90240725D01*
X168118678Y-90240728D01*
X168209271Y-90331321D01*
X168209273Y-90331322D01*
X168209277Y-90331326D01*
X168323445Y-90389498D01*
X168323446Y-90389498D01*
X168323448Y-90389499D01*
X168449997Y-90409542D01*
X168450000Y-90409542D01*
X168450003Y-90409542D01*
X168576551Y-90389499D01*
X168576552Y-90389498D01*
X168576555Y-90389498D01*
X168690723Y-90331326D01*
X168781326Y-90240723D01*
X168839498Y-90126555D01*
X168839499Y-90126551D01*
X168859542Y-90000003D01*
X168859542Y-89999996D01*
X168839499Y-89873448D01*
X168839498Y-89873446D01*
X168839498Y-89873445D01*
X168781326Y-89759277D01*
X168781322Y-89759273D01*
X168781321Y-89759271D01*
X168690728Y-89668678D01*
X168690725Y-89668676D01*
X168690723Y-89668674D01*
X168576555Y-89610502D01*
X168576554Y-89610501D01*
X168576551Y-89610500D01*
X168450003Y-89590458D01*
X168449997Y-89590458D01*
X168323448Y-89610500D01*
X168289237Y-89627932D01*
X168209277Y-89668674D01*
X168209276Y-89668675D01*
X168209271Y-89668678D01*
X168118678Y-89759271D01*
X168118675Y-89759276D01*
X168060500Y-89873448D01*
X168040458Y-89999996D01*
X168040458Y-90000003D01*
X141602556Y-90000003D01*
X141596507Y-89961811D01*
X141596506Y-89961809D01*
X141596506Y-89961808D01*
X141538334Y-89847640D01*
X141538330Y-89847636D01*
X141538329Y-89847634D01*
X141447736Y-89757041D01*
X141447733Y-89757039D01*
X141447731Y-89757037D01*
X141416485Y-89741116D01*
X145396891Y-89741116D01*
X145407289Y-89826754D01*
X145456295Y-89897750D01*
X145532680Y-89937841D01*
X145597061Y-89937841D01*
X145659574Y-89922433D01*
X145724146Y-89865227D01*
X145754737Y-89784566D01*
X145744339Y-89698928D01*
X145695333Y-89627932D01*
X145618948Y-89587841D01*
X145554567Y-89587841D01*
X145492054Y-89603249D01*
X145427482Y-89660455D01*
X145396891Y-89741116D01*
X141416485Y-89741116D01*
X141333563Y-89698865D01*
X141333562Y-89698864D01*
X141333559Y-89698863D01*
X141207011Y-89678821D01*
X141207005Y-89678821D01*
X141080456Y-89698863D01*
X141035154Y-89721946D01*
X140966285Y-89757037D01*
X140966284Y-89757038D01*
X140966279Y-89757041D01*
X140875686Y-89847634D01*
X140875683Y-89847639D01*
X140875682Y-89847640D01*
X140846019Y-89905856D01*
X140817508Y-89961811D01*
X140797466Y-90088359D01*
X140797466Y-90088366D01*
X120300500Y-90088366D01*
X120300500Y-88888366D01*
X139497466Y-88888366D01*
X139517508Y-89014914D01*
X139517509Y-89014917D01*
X139517510Y-89014918D01*
X139575682Y-89129086D01*
X139575684Y-89129088D01*
X139575686Y-89129091D01*
X139666279Y-89219684D01*
X139666281Y-89219685D01*
X139666285Y-89219689D01*
X139780453Y-89277861D01*
X139780454Y-89277861D01*
X139780456Y-89277862D01*
X139907005Y-89297905D01*
X139907008Y-89297905D01*
X139907011Y-89297905D01*
X140033559Y-89277862D01*
X140033560Y-89277861D01*
X140033563Y-89277861D01*
X140147731Y-89219689D01*
X140238334Y-89129086D01*
X140247407Y-89111280D01*
X143809167Y-89111280D01*
X143847532Y-89229355D01*
X143847536Y-89229364D01*
X143942123Y-89393195D01*
X143942125Y-89393198D01*
X144068713Y-89533789D01*
X144068716Y-89533791D01*
X144221775Y-89644997D01*
X144394609Y-89721946D01*
X144424252Y-89728246D01*
X144424253Y-89728246D01*
X144424253Y-89111280D01*
X144924253Y-89111280D01*
X144924253Y-89512841D01*
X145325814Y-89512841D01*
X145325814Y-89111280D01*
X145825814Y-89111280D01*
X145825814Y-89512841D01*
X146227375Y-89512841D01*
X146227375Y-89111280D01*
X146727375Y-89111280D01*
X146727375Y-89728246D01*
X146757018Y-89721946D01*
X146929852Y-89644997D01*
X147082911Y-89533791D01*
X147082914Y-89533789D01*
X147209502Y-89393198D01*
X147209504Y-89393195D01*
X147304091Y-89229364D01*
X147304095Y-89229355D01*
X147342461Y-89111280D01*
X146727375Y-89111280D01*
X146227375Y-89111280D01*
X145825814Y-89111280D01*
X145325814Y-89111280D01*
X144924253Y-89111280D01*
X144424253Y-89111280D01*
X143809167Y-89111280D01*
X140247407Y-89111280D01*
X140296506Y-89014918D01*
X140296507Y-89014914D01*
X140316550Y-88888366D01*
X140316550Y-88888359D01*
X140308820Y-88839555D01*
X144495330Y-88839555D01*
X144505728Y-88925193D01*
X144554734Y-88996189D01*
X144631119Y-89036280D01*
X144695500Y-89036280D01*
X144758013Y-89020872D01*
X144822585Y-88963666D01*
X144853176Y-88883005D01*
X144847900Y-88839555D01*
X146298452Y-88839555D01*
X146308850Y-88925193D01*
X146357856Y-88996189D01*
X146434241Y-89036280D01*
X146498622Y-89036280D01*
X146561135Y-89020872D01*
X146625707Y-88963666D01*
X146656298Y-88883005D01*
X146649460Y-88826685D01*
X147628936Y-88826685D01*
X147658579Y-88820385D01*
X147831413Y-88743436D01*
X147984472Y-88632230D01*
X147984474Y-88632228D01*
X148010549Y-88603270D01*
X148070035Y-88566622D01*
X148139892Y-88567951D01*
X148197941Y-88606838D01*
X148213180Y-88629942D01*
X148218674Y-88640723D01*
X148218676Y-88640725D01*
X148218678Y-88640728D01*
X148309271Y-88731321D01*
X148309273Y-88731322D01*
X148309277Y-88731326D01*
X148423445Y-88789498D01*
X148423446Y-88789498D01*
X148423448Y-88789499D01*
X148549997Y-88809542D01*
X148550000Y-88809542D01*
X148550003Y-88809542D01*
X148676551Y-88789499D01*
X148676552Y-88789498D01*
X148676555Y-88789498D01*
X148790723Y-88731326D01*
X148881326Y-88640723D01*
X148902074Y-88600003D01*
X150640458Y-88600003D01*
X150660500Y-88726551D01*
X150660501Y-88726554D01*
X150660502Y-88726555D01*
X150718674Y-88840723D01*
X150718676Y-88840725D01*
X150718678Y-88840728D01*
X150809271Y-88931321D01*
X150809273Y-88931322D01*
X150809277Y-88931326D01*
X150923445Y-88989498D01*
X150923446Y-88989498D01*
X150923448Y-88989499D01*
X151049997Y-89009542D01*
X151050000Y-89009542D01*
X151050003Y-89009542D01*
X151176551Y-88989499D01*
X151176552Y-88989498D01*
X151176555Y-88989498D01*
X151290723Y-88931326D01*
X151381326Y-88840723D01*
X151439498Y-88726555D01*
X151439499Y-88726551D01*
X151459542Y-88600003D01*
X151459542Y-88599996D01*
X151439499Y-88473451D01*
X151439498Y-88473448D01*
X151439498Y-88473445D01*
X151439495Y-88473439D01*
X151438984Y-88471864D01*
X151438925Y-88469826D01*
X151437972Y-88463805D01*
X151438750Y-88463681D01*
X151436987Y-88402023D01*
X151473065Y-88342189D01*
X151535765Y-88311359D01*
X151541810Y-88310839D01*
X151549999Y-88309541D01*
X151550000Y-88309542D01*
X151580267Y-88304748D01*
X151676551Y-88289499D01*
X151676552Y-88289498D01*
X151676555Y-88289498D01*
X151790723Y-88231326D01*
X151881326Y-88140723D01*
X151939498Y-88026555D01*
X151939961Y-88023632D01*
X151959542Y-87900003D01*
X151959542Y-87899996D01*
X151939499Y-87773448D01*
X151939498Y-87773446D01*
X151939498Y-87773445D01*
X151881326Y-87659277D01*
X151881322Y-87659273D01*
X151881321Y-87659271D01*
X151790728Y-87568678D01*
X151790725Y-87568676D01*
X151790723Y-87568674D01*
X151676555Y-87510502D01*
X151676554Y-87510501D01*
X151676551Y-87510500D01*
X151550003Y-87490458D01*
X151549997Y-87490458D01*
X151423448Y-87510500D01*
X151367493Y-87539011D01*
X151309277Y-87568674D01*
X151309276Y-87568675D01*
X151309271Y-87568678D01*
X151218678Y-87659271D01*
X151218675Y-87659276D01*
X151218674Y-87659277D01*
X151192972Y-87709719D01*
X151160500Y-87773448D01*
X151140458Y-87899996D01*
X151140458Y-87900003D01*
X151160500Y-88026548D01*
X151161016Y-88028136D01*
X151161074Y-88030173D01*
X151162028Y-88036195D01*
X151161249Y-88036318D01*
X151163013Y-88097977D01*
X151126935Y-88157811D01*
X151064235Y-88188641D01*
X151058189Y-88189160D01*
X150923448Y-88210500D01*
X150891270Y-88226896D01*
X150809277Y-88268674D01*
X150809276Y-88268675D01*
X150809271Y-88268678D01*
X150718678Y-88359271D01*
X150718675Y-88359276D01*
X150718674Y-88359277D01*
X150697923Y-88400003D01*
X150660500Y-88473448D01*
X150640458Y-88599996D01*
X150640458Y-88600003D01*
X148902074Y-88600003D01*
X148939498Y-88526555D01*
X148943884Y-88498863D01*
X148959542Y-88400003D01*
X148959542Y-88399996D01*
X148939499Y-88273448D01*
X148939498Y-88273446D01*
X148939498Y-88273445D01*
X148881326Y-88159277D01*
X148881322Y-88159273D01*
X148881321Y-88159271D01*
X148790728Y-88068678D01*
X148790725Y-88068676D01*
X148790723Y-88068674D01*
X148676555Y-88010502D01*
X148676554Y-88010501D01*
X148676551Y-88010500D01*
X148550003Y-87990458D01*
X148549997Y-87990458D01*
X148423448Y-88010500D01*
X148384839Y-88030173D01*
X148309277Y-88068674D01*
X148309276Y-88068675D01*
X148309271Y-88068678D01*
X148211773Y-88166177D01*
X148210714Y-88165118D01*
X148163830Y-88201271D01*
X148118844Y-88209719D01*
X147628936Y-88209719D01*
X147628936Y-88826685D01*
X146649460Y-88826685D01*
X146645900Y-88797367D01*
X146596894Y-88726371D01*
X146520509Y-88686280D01*
X146456128Y-88686280D01*
X146393615Y-88701688D01*
X146329043Y-88758894D01*
X146298452Y-88839555D01*
X144847900Y-88839555D01*
X144842778Y-88797367D01*
X144793772Y-88726371D01*
X144717387Y-88686280D01*
X144653006Y-88686280D01*
X144590493Y-88701688D01*
X144525921Y-88758894D01*
X144495330Y-88839555D01*
X140308820Y-88839555D01*
X140296507Y-88761811D01*
X140296506Y-88761809D01*
X140296506Y-88761808D01*
X140238334Y-88647640D01*
X140238330Y-88647636D01*
X140238329Y-88647634D01*
X140147736Y-88557041D01*
X140147733Y-88557039D01*
X140147731Y-88557037D01*
X140033563Y-88498865D01*
X140033562Y-88498864D01*
X140033559Y-88498863D01*
X139907011Y-88478821D01*
X139907005Y-88478821D01*
X139780456Y-88498863D01*
X139726117Y-88526551D01*
X139666285Y-88557037D01*
X139666284Y-88557038D01*
X139666279Y-88557041D01*
X139575686Y-88647634D01*
X139575683Y-88647639D01*
X139517508Y-88761811D01*
X139497466Y-88888359D01*
X139497466Y-88888366D01*
X120300500Y-88888366D01*
X120300500Y-88209719D01*
X142907606Y-88209719D01*
X142945971Y-88327794D01*
X142945975Y-88327803D01*
X143040562Y-88491634D01*
X143040564Y-88491637D01*
X143167152Y-88632228D01*
X143167155Y-88632230D01*
X143320214Y-88743436D01*
X143493048Y-88820385D01*
X143522691Y-88826685D01*
X143522692Y-88826685D01*
X143522692Y-88209719D01*
X144022692Y-88209719D01*
X144022692Y-88611280D01*
X144424253Y-88611280D01*
X144424253Y-88209719D01*
X144924253Y-88209719D01*
X144924253Y-88611280D01*
X145325814Y-88611280D01*
X145325814Y-88209719D01*
X145825814Y-88209719D01*
X145825814Y-88611280D01*
X146227375Y-88611280D01*
X146227375Y-88209719D01*
X146727375Y-88209719D01*
X146727375Y-88611280D01*
X147128936Y-88611280D01*
X147128936Y-88209719D01*
X146727375Y-88209719D01*
X146227375Y-88209719D01*
X145825814Y-88209719D01*
X145325814Y-88209719D01*
X144924253Y-88209719D01*
X144424253Y-88209719D01*
X144022692Y-88209719D01*
X143522692Y-88209719D01*
X142907606Y-88209719D01*
X120300500Y-88209719D01*
X120300500Y-87937994D01*
X143593769Y-87937994D01*
X143604167Y-88023632D01*
X143653173Y-88094628D01*
X143729558Y-88134719D01*
X143793939Y-88134719D01*
X143856452Y-88119311D01*
X143921024Y-88062105D01*
X143951615Y-87981444D01*
X143946339Y-87937994D01*
X145396891Y-87937994D01*
X145407289Y-88023632D01*
X145456295Y-88094628D01*
X145532680Y-88134719D01*
X145597061Y-88134719D01*
X145659574Y-88119311D01*
X145724146Y-88062105D01*
X145754737Y-87981444D01*
X145749461Y-87937994D01*
X147200013Y-87937994D01*
X147210411Y-88023632D01*
X147259417Y-88094628D01*
X147335802Y-88134719D01*
X147400183Y-88134719D01*
X147462696Y-88119311D01*
X147527268Y-88062105D01*
X147557859Y-87981444D01*
X147547461Y-87895806D01*
X147498455Y-87824810D01*
X147422070Y-87784719D01*
X147357689Y-87784719D01*
X147295176Y-87800127D01*
X147230604Y-87857333D01*
X147200013Y-87937994D01*
X145749461Y-87937994D01*
X145744339Y-87895806D01*
X145695333Y-87824810D01*
X145618948Y-87784719D01*
X145554567Y-87784719D01*
X145492054Y-87800127D01*
X145427482Y-87857333D01*
X145396891Y-87937994D01*
X143946339Y-87937994D01*
X143941217Y-87895806D01*
X143892211Y-87824810D01*
X143815826Y-87784719D01*
X143751445Y-87784719D01*
X143688932Y-87800127D01*
X143624360Y-87857333D01*
X143593769Y-87937994D01*
X120300500Y-87937994D01*
X120300500Y-86988366D01*
X139497466Y-86988366D01*
X139517508Y-87114914D01*
X139517509Y-87114917D01*
X139517510Y-87114918D01*
X139575682Y-87229086D01*
X139575684Y-87229088D01*
X139575686Y-87229091D01*
X139666279Y-87319684D01*
X139666281Y-87319685D01*
X139666285Y-87319689D01*
X139780453Y-87377861D01*
X139780454Y-87377861D01*
X139780456Y-87377862D01*
X139907005Y-87397905D01*
X139907008Y-87397905D01*
X139907011Y-87397905D01*
X140033559Y-87377862D01*
X140033560Y-87377861D01*
X140033563Y-87377861D01*
X140147731Y-87319689D01*
X140238334Y-87229086D01*
X140296506Y-87114918D01*
X140297256Y-87110185D01*
X140316550Y-86988366D01*
X140316550Y-86988359D01*
X140296507Y-86861811D01*
X140296506Y-86861809D01*
X140296506Y-86861808D01*
X140238334Y-86747640D01*
X140238330Y-86747636D01*
X140238329Y-86747634D01*
X140147736Y-86657041D01*
X140147733Y-86657039D01*
X140147731Y-86657037D01*
X140033563Y-86598865D01*
X140033562Y-86598864D01*
X140033559Y-86598863D01*
X139907011Y-86578821D01*
X139907005Y-86578821D01*
X139780456Y-86598863D01*
X139724501Y-86627374D01*
X139666285Y-86657037D01*
X139666284Y-86657038D01*
X139666279Y-86657041D01*
X139575686Y-86747634D01*
X139575683Y-86747639D01*
X139575682Y-86747640D01*
X139553844Y-86790500D01*
X139517508Y-86861811D01*
X139497466Y-86988359D01*
X139497466Y-86988366D01*
X120300500Y-86988366D01*
X120300500Y-85600003D01*
X139640458Y-85600003D01*
X139660500Y-85726551D01*
X139660501Y-85726554D01*
X139660502Y-85726555D01*
X139718674Y-85840723D01*
X139718676Y-85840725D01*
X139718678Y-85840728D01*
X139809271Y-85931321D01*
X139809273Y-85931322D01*
X139809277Y-85931326D01*
X139923445Y-85989498D01*
X139923446Y-85989498D01*
X139923448Y-85989499D01*
X140049997Y-86009542D01*
X140050000Y-86009542D01*
X140050003Y-86009542D01*
X140176551Y-85989499D01*
X140176552Y-85989498D01*
X140176555Y-85989498D01*
X140290723Y-85931326D01*
X140381326Y-85840723D01*
X140439498Y-85726555D01*
X140439499Y-85726551D01*
X140459542Y-85600003D01*
X140459542Y-85599996D01*
X140439499Y-85473448D01*
X140439498Y-85473446D01*
X140439498Y-85473445D01*
X140381326Y-85359277D01*
X140381322Y-85359273D01*
X140381321Y-85359271D01*
X140290728Y-85268678D01*
X140290725Y-85268676D01*
X140290723Y-85268674D01*
X140176555Y-85210502D01*
X140176554Y-85210501D01*
X140176551Y-85210500D01*
X140050003Y-85190458D01*
X140049997Y-85190458D01*
X139923448Y-85210500D01*
X139890373Y-85227353D01*
X139809277Y-85268674D01*
X139809276Y-85268675D01*
X139809271Y-85268678D01*
X139718678Y-85359271D01*
X139718675Y-85359276D01*
X139718674Y-85359277D01*
X139704001Y-85388075D01*
X139660500Y-85473448D01*
X139640458Y-85599996D01*
X139640458Y-85600003D01*
X120300500Y-85600003D01*
X120300500Y-84500003D01*
X127840458Y-84500003D01*
X127860500Y-84626551D01*
X127860501Y-84626554D01*
X127860502Y-84626555D01*
X127918674Y-84740723D01*
X127918676Y-84740725D01*
X127918678Y-84740728D01*
X128009271Y-84831321D01*
X128009273Y-84831322D01*
X128009277Y-84831326D01*
X128123445Y-84889498D01*
X128123446Y-84889498D01*
X128123448Y-84889499D01*
X128249997Y-84909542D01*
X128250000Y-84909542D01*
X128250003Y-84909542D01*
X128376551Y-84889499D01*
X128376552Y-84889498D01*
X128376555Y-84889498D01*
X128490723Y-84831326D01*
X128581326Y-84740723D01*
X128639498Y-84626555D01*
X128639499Y-84626551D01*
X128659542Y-84500003D01*
X128659542Y-84499996D01*
X128639499Y-84373448D01*
X128639498Y-84373446D01*
X128639498Y-84373445D01*
X128581326Y-84259277D01*
X128581322Y-84259273D01*
X128581321Y-84259271D01*
X128490728Y-84168678D01*
X128490725Y-84168676D01*
X128490723Y-84168674D01*
X128376555Y-84110502D01*
X128376554Y-84110501D01*
X128376551Y-84110500D01*
X128250003Y-84090458D01*
X128249997Y-84090458D01*
X128123448Y-84110500D01*
X128079724Y-84132779D01*
X128009277Y-84168674D01*
X128009276Y-84168675D01*
X128009271Y-84168678D01*
X127918678Y-84259271D01*
X127918675Y-84259276D01*
X127918674Y-84259277D01*
X127897831Y-84300183D01*
X127860500Y-84373448D01*
X127840458Y-84499996D01*
X127840458Y-84500003D01*
X120300500Y-84500003D01*
X120300500Y-83700003D01*
X138740458Y-83700003D01*
X138760500Y-83826551D01*
X138760501Y-83826554D01*
X138760502Y-83826555D01*
X138818674Y-83940723D01*
X138818676Y-83940725D01*
X138818678Y-83940728D01*
X138909271Y-84031321D01*
X138909273Y-84031322D01*
X138909277Y-84031326D01*
X139023445Y-84089498D01*
X139129974Y-84106370D01*
X139193107Y-84136298D01*
X139230039Y-84195610D01*
X139229041Y-84265472D01*
X139190432Y-84323705D01*
X139166872Y-84339327D01*
X139109276Y-84368674D01*
X139109271Y-84368678D01*
X139018678Y-84459271D01*
X139018675Y-84459276D01*
X139018674Y-84459277D01*
X138993084Y-84509500D01*
X138960500Y-84573448D01*
X138940458Y-84699996D01*
X138940458Y-84700003D01*
X138960500Y-84826551D01*
X138960501Y-84826554D01*
X138960502Y-84826555D01*
X139018674Y-84940723D01*
X139018676Y-84940725D01*
X139018678Y-84940728D01*
X139109271Y-85031321D01*
X139109273Y-85031322D01*
X139109277Y-85031326D01*
X139223445Y-85089498D01*
X139223446Y-85089498D01*
X139223448Y-85089499D01*
X139349997Y-85109542D01*
X139350000Y-85109542D01*
X139350003Y-85109542D01*
X139476551Y-85089499D01*
X139476552Y-85089498D01*
X139476555Y-85089498D01*
X139590723Y-85031326D01*
X139633865Y-84988184D01*
X139688227Y-84933823D01*
X139689340Y-84934936D01*
X139736000Y-84898952D01*
X139780996Y-84890500D01*
X140296565Y-84890500D01*
X140314139Y-84893486D01*
X140314239Y-84892606D01*
X140328121Y-84894170D01*
X140328121Y-84894169D01*
X140328122Y-84894170D01*
X140353772Y-84891279D01*
X140367655Y-84890500D01*
X140371459Y-84890500D01*
X140371463Y-84890500D01*
X140375184Y-84889650D01*
X140388867Y-84887325D01*
X140414536Y-84884433D01*
X140414539Y-84884430D01*
X140424906Y-84880803D01*
X140434778Y-84876048D01*
X140434780Y-84876048D01*
X140454965Y-84859951D01*
X140466303Y-84851905D01*
X140469527Y-84849880D01*
X140472219Y-84847187D01*
X140482577Y-84837930D01*
X140502769Y-84821829D01*
X140502771Y-84821823D01*
X140511483Y-84810901D01*
X140512177Y-84811454D01*
X140522488Y-84796917D01*
X140638152Y-84681254D01*
X140699472Y-84647771D01*
X140769164Y-84652755D01*
X140825097Y-84694627D01*
X140848303Y-84749539D01*
X140860500Y-84826551D01*
X140860501Y-84826554D01*
X140860502Y-84826555D01*
X140918674Y-84940723D01*
X140918676Y-84940725D01*
X140918678Y-84940728D01*
X141009271Y-85031321D01*
X141009274Y-85031323D01*
X141009277Y-85031326D01*
X141046202Y-85050140D01*
X141080687Y-85067712D01*
X141131482Y-85115687D01*
X141148277Y-85183508D01*
X141125739Y-85249642D01*
X141124330Y-85251318D01*
X141124413Y-85251378D01*
X141118675Y-85259276D01*
X141118674Y-85259277D01*
X141102765Y-85290500D01*
X141060500Y-85373448D01*
X141040458Y-85499996D01*
X141040458Y-85500003D01*
X141060500Y-85626551D01*
X141060501Y-85626554D01*
X141060502Y-85626555D01*
X141118674Y-85740723D01*
X141118676Y-85740725D01*
X141118678Y-85740728D01*
X141209271Y-85831321D01*
X141209273Y-85831322D01*
X141209277Y-85831326D01*
X141323445Y-85889498D01*
X141323446Y-85889498D01*
X141323448Y-85889499D01*
X141449997Y-85909542D01*
X141450000Y-85909542D01*
X141450001Y-85909542D01*
X141481892Y-85904490D01*
X141508570Y-85900265D01*
X141577863Y-85909219D01*
X141615650Y-85935057D01*
X142677511Y-86996918D01*
X142687828Y-87011458D01*
X142688520Y-87010907D01*
X142697232Y-87021831D01*
X142717418Y-87037929D01*
X142727786Y-87047194D01*
X142730469Y-87049877D01*
X142730471Y-87049878D01*
X142730473Y-87049880D01*
X142733688Y-87051900D01*
X142733691Y-87051902D01*
X142745030Y-87059948D01*
X142759290Y-87071319D01*
X142765220Y-87076048D01*
X142765222Y-87076048D01*
X142775099Y-87080805D01*
X142785458Y-87084429D01*
X142785464Y-87084433D01*
X142807996Y-87086971D01*
X142811112Y-87087323D01*
X142824825Y-87089653D01*
X142828532Y-87090499D01*
X142828533Y-87090499D01*
X142828537Y-87090500D01*
X142832345Y-87090500D01*
X142846227Y-87091279D01*
X142871878Y-87094170D01*
X142885761Y-87092606D01*
X142885860Y-87093486D01*
X142903435Y-87090500D01*
X143065764Y-87090500D01*
X143132803Y-87110185D01*
X143178558Y-87162989D01*
X143188502Y-87232147D01*
X143159477Y-87295703D01*
X143157914Y-87297473D01*
X143040561Y-87427804D01*
X142945975Y-87591634D01*
X142945971Y-87591643D01*
X142907606Y-87709719D01*
X143522692Y-87709719D01*
X143522692Y-87308158D01*
X144022692Y-87308158D01*
X144022692Y-87709719D01*
X144424253Y-87709719D01*
X144424253Y-87308158D01*
X144924253Y-87308158D01*
X144924253Y-87709719D01*
X145325814Y-87709719D01*
X145325814Y-87308158D01*
X145825814Y-87308158D01*
X145825814Y-87709719D01*
X146227375Y-87709719D01*
X146227375Y-87308158D01*
X146727375Y-87308158D01*
X146727375Y-87709719D01*
X147128936Y-87709719D01*
X147128936Y-87308158D01*
X146727375Y-87308158D01*
X146227375Y-87308158D01*
X145825814Y-87308158D01*
X145325814Y-87308158D01*
X144924253Y-87308158D01*
X144424253Y-87308158D01*
X144022692Y-87308158D01*
X143522692Y-87308158D01*
X143522692Y-87214500D01*
X143542377Y-87147461D01*
X143595181Y-87101706D01*
X143646692Y-87090500D01*
X143696565Y-87090500D01*
X143714139Y-87093486D01*
X143714239Y-87092606D01*
X143728121Y-87094170D01*
X143728121Y-87094169D01*
X143728122Y-87094170D01*
X143753772Y-87091279D01*
X143767655Y-87090500D01*
X143771459Y-87090500D01*
X143771463Y-87090500D01*
X143775184Y-87089650D01*
X143788867Y-87087325D01*
X143814536Y-87084433D01*
X143814539Y-87084430D01*
X143824906Y-87080803D01*
X143834778Y-87076048D01*
X143834780Y-87076048D01*
X143854969Y-87059948D01*
X143866303Y-87051905D01*
X143869527Y-87049880D01*
X143872221Y-87047184D01*
X143882566Y-87037939D01*
X143884455Y-87036433D01*
X144495330Y-87036433D01*
X144505728Y-87122071D01*
X144554734Y-87193067D01*
X144631119Y-87233158D01*
X144695500Y-87233158D01*
X144758013Y-87217750D01*
X144822585Y-87160544D01*
X144853176Y-87079883D01*
X144847900Y-87036433D01*
X146298452Y-87036433D01*
X146308850Y-87122071D01*
X146357856Y-87193067D01*
X146434241Y-87233158D01*
X146498622Y-87233158D01*
X146561135Y-87217750D01*
X146625707Y-87160544D01*
X146651418Y-87092751D01*
X147628936Y-87092751D01*
X147628936Y-87709719D01*
X148244021Y-87709719D01*
X148205656Y-87591643D01*
X148205652Y-87591634D01*
X148111065Y-87427803D01*
X148111063Y-87427800D01*
X147984475Y-87287209D01*
X147984472Y-87287207D01*
X147831413Y-87176001D01*
X147658584Y-87099054D01*
X147628936Y-87092751D01*
X146651418Y-87092751D01*
X146656298Y-87079883D01*
X146645900Y-86994245D01*
X146596894Y-86923249D01*
X146520509Y-86883158D01*
X146456128Y-86883158D01*
X146393615Y-86898566D01*
X146329043Y-86955772D01*
X146298452Y-87036433D01*
X144847900Y-87036433D01*
X144842778Y-86994245D01*
X144793772Y-86923249D01*
X144717387Y-86883158D01*
X144653006Y-86883158D01*
X144590493Y-86898566D01*
X144525921Y-86955772D01*
X144495330Y-87036433D01*
X143884455Y-87036433D01*
X143902769Y-87021829D01*
X143902771Y-87021825D01*
X143911482Y-87010904D01*
X143912174Y-87011456D01*
X143922484Y-86996922D01*
X144074932Y-86844474D01*
X144136253Y-86810992D01*
X144162611Y-86808158D01*
X144424253Y-86808158D01*
X144424253Y-86546516D01*
X144443938Y-86479477D01*
X144460572Y-86458835D01*
X144512811Y-86406597D01*
X144924253Y-86406597D01*
X144924253Y-86808158D01*
X145325814Y-86808158D01*
X145325814Y-86406597D01*
X144924253Y-86406597D01*
X144512811Y-86406597D01*
X144537544Y-86381864D01*
X144784536Y-86134872D01*
X145396891Y-86134872D01*
X145407289Y-86220510D01*
X145456295Y-86291506D01*
X145532680Y-86331597D01*
X145597061Y-86331597D01*
X145659574Y-86316189D01*
X145724146Y-86258983D01*
X145754737Y-86178322D01*
X145744339Y-86092684D01*
X145695333Y-86021688D01*
X145618948Y-85981597D01*
X145554567Y-85981597D01*
X145492054Y-85997005D01*
X145427482Y-86054211D01*
X145396891Y-86134872D01*
X144784536Y-86134872D01*
X144976492Y-85942916D01*
X145037815Y-85909431D01*
X145064173Y-85906597D01*
X145839432Y-85906597D01*
X145906471Y-85926282D01*
X145927113Y-85942916D01*
X146179113Y-86194916D01*
X146212598Y-86256239D01*
X146207614Y-86325931D01*
X146165742Y-86381864D01*
X146100278Y-86406281D01*
X146091432Y-86406597D01*
X145825814Y-86406597D01*
X145825814Y-86808158D01*
X146227375Y-86808158D01*
X146227375Y-86542540D01*
X146247060Y-86475501D01*
X146299864Y-86429746D01*
X146369022Y-86419802D01*
X146432578Y-86448827D01*
X146439045Y-86454849D01*
X146563017Y-86578821D01*
X146681116Y-86696920D01*
X146691429Y-86711454D01*
X146692121Y-86710903D01*
X146700317Y-86721179D01*
X146703009Y-86727773D01*
X146705153Y-86730794D01*
X146706897Y-86734415D01*
X146705914Y-86734888D01*
X146726730Y-86785863D01*
X146727375Y-86798498D01*
X146727375Y-86808158D01*
X147361541Y-86808158D01*
X147373483Y-86798949D01*
X147418472Y-86790500D01*
X152988088Y-86790500D01*
X153055127Y-86810185D01*
X153100882Y-86862989D01*
X153110826Y-86932147D01*
X153081801Y-86995703D01*
X153075769Y-87002181D01*
X153018678Y-87059271D01*
X153018675Y-87059276D01*
X153018674Y-87059277D01*
X152997055Y-87101706D01*
X152960500Y-87173448D01*
X152940458Y-87299996D01*
X152940458Y-87300003D01*
X152960500Y-87426551D01*
X152960501Y-87426554D01*
X152960502Y-87426555D01*
X153018674Y-87540723D01*
X153018676Y-87540725D01*
X153018678Y-87540728D01*
X153109271Y-87631321D01*
X153109273Y-87631322D01*
X153109277Y-87631326D01*
X153223445Y-87689498D01*
X153223446Y-87689498D01*
X153223448Y-87689499D01*
X153349997Y-87709542D01*
X153350000Y-87709542D01*
X153350003Y-87709542D01*
X153476551Y-87689499D01*
X153476552Y-87689498D01*
X153476555Y-87689498D01*
X153590723Y-87631326D01*
X153681326Y-87540723D01*
X153739498Y-87426555D01*
X153747210Y-87377862D01*
X153759542Y-87300003D01*
X153759542Y-87299997D01*
X153740005Y-87176645D01*
X153748960Y-87107351D01*
X153793956Y-87053899D01*
X153860708Y-87033260D01*
X153928021Y-87051985D01*
X153950159Y-87069566D01*
X155114942Y-88234349D01*
X155148427Y-88295672D01*
X155149734Y-88341425D01*
X155141970Y-88390458D01*
X155140458Y-88400002D01*
X155140458Y-88400003D01*
X155160500Y-88526551D01*
X155160501Y-88526554D01*
X155160502Y-88526555D01*
X155218674Y-88640723D01*
X155218676Y-88640725D01*
X155218678Y-88640728D01*
X155309271Y-88731321D01*
X155309273Y-88731322D01*
X155309277Y-88731326D01*
X155423445Y-88789498D01*
X155423446Y-88789498D01*
X155423448Y-88789499D01*
X155549997Y-88809542D01*
X155550000Y-88809542D01*
X155550003Y-88809542D01*
X155610231Y-88800003D01*
X169040458Y-88800003D01*
X169060500Y-88926551D01*
X169060501Y-88926554D01*
X169060502Y-88926555D01*
X169118674Y-89040723D01*
X169118676Y-89040725D01*
X169118678Y-89040728D01*
X169209271Y-89131321D01*
X169209273Y-89131322D01*
X169209277Y-89131326D01*
X169323445Y-89189498D01*
X169323446Y-89189498D01*
X169323448Y-89189499D01*
X169449997Y-89209542D01*
X169450000Y-89209542D01*
X169450003Y-89209542D01*
X169576551Y-89189499D01*
X169576552Y-89189498D01*
X169576555Y-89189498D01*
X169690723Y-89131326D01*
X169781326Y-89040723D01*
X169839498Y-88926555D01*
X169839714Y-88925193D01*
X169859542Y-88800003D01*
X169859542Y-88799996D01*
X169839499Y-88673448D01*
X169839498Y-88673446D01*
X169839498Y-88673445D01*
X169781326Y-88559277D01*
X169781322Y-88559273D01*
X169781321Y-88559271D01*
X169690728Y-88468678D01*
X169690725Y-88468676D01*
X169690723Y-88468674D01*
X169576555Y-88410502D01*
X169576554Y-88410501D01*
X169576551Y-88410500D01*
X169450003Y-88390458D01*
X169449997Y-88390458D01*
X169323448Y-88410500D01*
X169277114Y-88434109D01*
X169209277Y-88468674D01*
X169209276Y-88468675D01*
X169209271Y-88468678D01*
X169118678Y-88559271D01*
X169118675Y-88559276D01*
X169118674Y-88559277D01*
X169092177Y-88611280D01*
X169060500Y-88673448D01*
X169040458Y-88799996D01*
X169040458Y-88800003D01*
X155610231Y-88800003D01*
X155676551Y-88789499D01*
X155676552Y-88789498D01*
X155676555Y-88789498D01*
X155790723Y-88731326D01*
X155881326Y-88640723D01*
X155939498Y-88526555D01*
X155939498Y-88526553D01*
X155939499Y-88526552D01*
X155941958Y-88518984D01*
X155981394Y-88461308D01*
X156045753Y-88434109D01*
X156114599Y-88446023D01*
X156147570Y-88469620D01*
X156209271Y-88531321D01*
X156209273Y-88531322D01*
X156209277Y-88531326D01*
X156323445Y-88589498D01*
X156323446Y-88589498D01*
X156323448Y-88589499D01*
X156449997Y-88609542D01*
X156450000Y-88609542D01*
X156450003Y-88609542D01*
X156576551Y-88589499D01*
X156576552Y-88589498D01*
X156576555Y-88589498D01*
X156690723Y-88531326D01*
X156781326Y-88440723D01*
X156839498Y-88326555D01*
X156839499Y-88326551D01*
X156842515Y-88317271D01*
X156843826Y-88317697D01*
X156869359Y-88263830D01*
X156928668Y-88226896D01*
X156998531Y-88227890D01*
X157018196Y-88235870D01*
X157123445Y-88289498D01*
X157123446Y-88289498D01*
X157123448Y-88289499D01*
X157249997Y-88309542D01*
X157250000Y-88309542D01*
X157250003Y-88309542D01*
X157376551Y-88289499D01*
X157376552Y-88289498D01*
X157376555Y-88289498D01*
X157490723Y-88231326D01*
X157581326Y-88140723D01*
X157639498Y-88026555D01*
X157639961Y-88023632D01*
X157659542Y-87900003D01*
X157659542Y-87899996D01*
X157639499Y-87773448D01*
X157639498Y-87773446D01*
X157639498Y-87773445D01*
X157581326Y-87659277D01*
X157581322Y-87659273D01*
X157581321Y-87659271D01*
X157490728Y-87568678D01*
X157490725Y-87568676D01*
X157490723Y-87568674D01*
X157376555Y-87510502D01*
X157376554Y-87510501D01*
X157376551Y-87510500D01*
X157250003Y-87490458D01*
X157250001Y-87490458D01*
X157250000Y-87490458D01*
X157191426Y-87499734D01*
X157122134Y-87490779D01*
X157084349Y-87464942D01*
X155428865Y-85809458D01*
X155395380Y-85748135D01*
X155400364Y-85678443D01*
X155428863Y-85634097D01*
X155481326Y-85581635D01*
X155539498Y-85467467D01*
X155540709Y-85459821D01*
X155559542Y-85340915D01*
X155559542Y-85340908D01*
X155539499Y-85214360D01*
X155539498Y-85214358D01*
X155539498Y-85214357D01*
X155481326Y-85100189D01*
X155481322Y-85100185D01*
X155481321Y-85100183D01*
X155390728Y-85009590D01*
X155390725Y-85009588D01*
X155390723Y-85009586D01*
X155276555Y-84951414D01*
X155276554Y-84951413D01*
X155276551Y-84951412D01*
X155150003Y-84931370D01*
X155149997Y-84931370D01*
X155023448Y-84951412D01*
X155011047Y-84957731D01*
X154909277Y-85009586D01*
X154909276Y-85009587D01*
X154909271Y-85009590D01*
X154818678Y-85100183D01*
X154818675Y-85100188D01*
X154818674Y-85100189D01*
X154807058Y-85122987D01*
X154760500Y-85214360D01*
X154740458Y-85340908D01*
X154740458Y-85340915D01*
X154760500Y-85467463D01*
X154760501Y-85467466D01*
X154791959Y-85529204D01*
X154804856Y-85597874D01*
X154778580Y-85662614D01*
X154721474Y-85702872D01*
X154681475Y-85709500D01*
X148419251Y-85709500D01*
X148352212Y-85689815D01*
X148331570Y-85673181D01*
X147199304Y-84540915D01*
X154040458Y-84540915D01*
X154060500Y-84667463D01*
X154060501Y-84667466D01*
X154060502Y-84667467D01*
X154118674Y-84781635D01*
X154118676Y-84781637D01*
X154118678Y-84781640D01*
X154209271Y-84872233D01*
X154209273Y-84872234D01*
X154209277Y-84872238D01*
X154323445Y-84930410D01*
X154323446Y-84930410D01*
X154323448Y-84930411D01*
X154449997Y-84950454D01*
X154450000Y-84950454D01*
X154450003Y-84950454D01*
X154576551Y-84930411D01*
X154576552Y-84930410D01*
X154576555Y-84930410D01*
X154690723Y-84872238D01*
X154781326Y-84781635D01*
X154839498Y-84667467D01*
X154839614Y-84666737D01*
X154859542Y-84540915D01*
X154859542Y-84540908D01*
X154839499Y-84414360D01*
X154839498Y-84414358D01*
X154839498Y-84414357D01*
X154832183Y-84400000D01*
X163554456Y-84400000D01*
X163574528Y-84539606D01*
X163574530Y-84539614D01*
X163633119Y-84667907D01*
X163633121Y-84667909D01*
X163633122Y-84667911D01*
X163725488Y-84774507D01*
X163725490Y-84774508D01*
X163725489Y-84774508D01*
X163844145Y-84850764D01*
X163959944Y-84884764D01*
X163976592Y-84889653D01*
X163979474Y-84890499D01*
X163979476Y-84890500D01*
X163979477Y-84890500D01*
X164120524Y-84890500D01*
X164120524Y-84890499D01*
X164255853Y-84850764D01*
X164255854Y-84850764D01*
X164261399Y-84847201D01*
X164374512Y-84774507D01*
X164466878Y-84667911D01*
X164525471Y-84539611D01*
X164545544Y-84400000D01*
X164525471Y-84260389D01*
X164502272Y-84209590D01*
X164466880Y-84132092D01*
X164466878Y-84132090D01*
X164466878Y-84132089D01*
X164374512Y-84025493D01*
X164374509Y-84025491D01*
X164374510Y-84025491D01*
X164255854Y-83949235D01*
X164120525Y-83909500D01*
X164120523Y-83909500D01*
X163979477Y-83909500D01*
X163979474Y-83909500D01*
X163844146Y-83949235D01*
X163844145Y-83949235D01*
X163725489Y-84025491D01*
X163633122Y-84132089D01*
X163633119Y-84132092D01*
X163574530Y-84260385D01*
X163574528Y-84260393D01*
X163554456Y-84400000D01*
X154832183Y-84400000D01*
X154781326Y-84300189D01*
X154781322Y-84300185D01*
X154781321Y-84300183D01*
X154690728Y-84209590D01*
X154690725Y-84209588D01*
X154690723Y-84209586D01*
X154576555Y-84151414D01*
X154576554Y-84151413D01*
X154576551Y-84151412D01*
X154450003Y-84131370D01*
X154449997Y-84131370D01*
X154323448Y-84151412D01*
X154267493Y-84179923D01*
X154209277Y-84209586D01*
X154209276Y-84209587D01*
X154209271Y-84209590D01*
X154118678Y-84300183D01*
X154118675Y-84300188D01*
X154118674Y-84300189D01*
X154106692Y-84323705D01*
X154060500Y-84414360D01*
X154040458Y-84540908D01*
X154040458Y-84540915D01*
X147199304Y-84540915D01*
X146598382Y-83939993D01*
X146588066Y-83925453D01*
X146587373Y-83926006D01*
X146578663Y-83915084D01*
X146578663Y-83915083D01*
X146558473Y-83898982D01*
X146548105Y-83889716D01*
X146545423Y-83887034D01*
X146545418Y-83887030D01*
X146544786Y-83886633D01*
X146542203Y-83885009D01*
X146530876Y-83876974D01*
X146510674Y-83860864D01*
X146510673Y-83860863D01*
X146510671Y-83860862D01*
X146500787Y-83856102D01*
X146490433Y-83852479D01*
X146464770Y-83849587D01*
X146451078Y-83847260D01*
X146447361Y-83846412D01*
X146447357Y-83846412D01*
X146443549Y-83846412D01*
X146429666Y-83845632D01*
X146425437Y-83845155D01*
X146404015Y-83842741D01*
X146390133Y-83844306D01*
X146390033Y-83843425D01*
X146372459Y-83846412D01*
X145351679Y-83846412D01*
X145334104Y-83843425D01*
X145334005Y-83844306D01*
X145320122Y-83842741D01*
X145296870Y-83845361D01*
X145294470Y-83845632D01*
X145280587Y-83846412D01*
X145276781Y-83846412D01*
X145274826Y-83846857D01*
X145273055Y-83847262D01*
X145259368Y-83849586D01*
X145233707Y-83852477D01*
X145223366Y-83856095D01*
X145213460Y-83860866D01*
X145193273Y-83876964D01*
X145181943Y-83885003D01*
X145178720Y-83887027D01*
X145178720Y-83887028D01*
X145176017Y-83889731D01*
X145165664Y-83898982D01*
X145145473Y-83915084D01*
X145136765Y-83926004D01*
X145136074Y-83925453D01*
X145125758Y-83939988D01*
X143953075Y-85112671D01*
X143938539Y-85122987D01*
X143939091Y-85123678D01*
X143928167Y-85132389D01*
X143912066Y-85152579D01*
X143902816Y-85162932D01*
X143900120Y-85165628D01*
X143898089Y-85168860D01*
X143890056Y-85180180D01*
X143865243Y-85211297D01*
X143864851Y-85210985D01*
X143853237Y-85227353D01*
X143721321Y-85359271D01*
X143648166Y-85432427D01*
X143607412Y-85473181D01*
X143546089Y-85506666D01*
X143519730Y-85509500D01*
X143180269Y-85509500D01*
X143113230Y-85489815D01*
X143092588Y-85473181D01*
X141718488Y-84099081D01*
X141708172Y-84084541D01*
X141707479Y-84085094D01*
X141698769Y-84074172D01*
X141698769Y-84074171D01*
X141678579Y-84058070D01*
X141668211Y-84048804D01*
X141665529Y-84046122D01*
X141665524Y-84046118D01*
X141664892Y-84045721D01*
X141662309Y-84044097D01*
X141650982Y-84036062D01*
X141630780Y-84019952D01*
X141630779Y-84019951D01*
X141630777Y-84019950D01*
X141620893Y-84015190D01*
X141610539Y-84011567D01*
X141584876Y-84008675D01*
X141571184Y-84006348D01*
X141567467Y-84005500D01*
X141567463Y-84005500D01*
X141563655Y-84005500D01*
X141549772Y-84004720D01*
X141545543Y-84004243D01*
X141524121Y-84001829D01*
X141510239Y-84003394D01*
X141510139Y-84002513D01*
X141492565Y-84005500D01*
X140907435Y-84005500D01*
X140889860Y-84002513D01*
X140889761Y-84003394D01*
X140875878Y-84001829D01*
X140852626Y-84004449D01*
X140850226Y-84004720D01*
X140836343Y-84005500D01*
X140832537Y-84005500D01*
X140830582Y-84005945D01*
X140828811Y-84006350D01*
X140815124Y-84008674D01*
X140789463Y-84011565D01*
X140779122Y-84015183D01*
X140769216Y-84019954D01*
X140749029Y-84036052D01*
X140737699Y-84044091D01*
X140734476Y-84046115D01*
X140734476Y-84046116D01*
X140731773Y-84048819D01*
X140721420Y-84058070D01*
X140701229Y-84074172D01*
X140692521Y-84085092D01*
X140691830Y-84084541D01*
X140681514Y-84099076D01*
X140611914Y-84168678D01*
X140568979Y-84211613D01*
X140507656Y-84245098D01*
X140437964Y-84240114D01*
X140382030Y-84198243D01*
X140357613Y-84132779D01*
X140358824Y-84104532D01*
X140359542Y-84099999D01*
X140359542Y-84099996D01*
X140339499Y-83973448D01*
X140339498Y-83973446D01*
X140339498Y-83973445D01*
X140281326Y-83859277D01*
X140281322Y-83859273D01*
X140281321Y-83859271D01*
X140190728Y-83768678D01*
X140190725Y-83768676D01*
X140190723Y-83768674D01*
X140076555Y-83710502D01*
X140076554Y-83710501D01*
X140076551Y-83710500D01*
X140010271Y-83700003D01*
X178940458Y-83700003D01*
X178960500Y-83826551D01*
X178960501Y-83826554D01*
X178960502Y-83826555D01*
X179018674Y-83940723D01*
X179018676Y-83940725D01*
X179018678Y-83940728D01*
X179109271Y-84031321D01*
X179109273Y-84031322D01*
X179109277Y-84031326D01*
X179223445Y-84089498D01*
X179223446Y-84089498D01*
X179223448Y-84089499D01*
X179349997Y-84109542D01*
X179350000Y-84109542D01*
X179350003Y-84109542D01*
X179476551Y-84089499D01*
X179476552Y-84089498D01*
X179476555Y-84089498D01*
X179590723Y-84031326D01*
X179681326Y-83940723D01*
X179739498Y-83826555D01*
X179745367Y-83789499D01*
X179759542Y-83700003D01*
X179759542Y-83699996D01*
X179739499Y-83573448D01*
X179739498Y-83573446D01*
X179739498Y-83573445D01*
X179681326Y-83459277D01*
X179681322Y-83459273D01*
X179681321Y-83459271D01*
X179622053Y-83400003D01*
X184640458Y-83400003D01*
X184660500Y-83526551D01*
X184660501Y-83526554D01*
X184660502Y-83526555D01*
X184718674Y-83640723D01*
X184718676Y-83640725D01*
X184718678Y-83640728D01*
X184809271Y-83731321D01*
X184809273Y-83731322D01*
X184809277Y-83731326D01*
X184923445Y-83789498D01*
X184923446Y-83789498D01*
X184923448Y-83789499D01*
X185049997Y-83809542D01*
X185050000Y-83809542D01*
X185050003Y-83809542D01*
X185176551Y-83789499D01*
X185176552Y-83789498D01*
X185176555Y-83789498D01*
X185290723Y-83731326D01*
X185381326Y-83640723D01*
X185439498Y-83526555D01*
X185450155Y-83459271D01*
X185459542Y-83400003D01*
X185459542Y-83399996D01*
X185439499Y-83273448D01*
X185439498Y-83273446D01*
X185439498Y-83273445D01*
X185381326Y-83159277D01*
X185381322Y-83159273D01*
X185381321Y-83159271D01*
X185290728Y-83068678D01*
X185290725Y-83068676D01*
X185290723Y-83068674D01*
X185176555Y-83010502D01*
X185176554Y-83010501D01*
X185176551Y-83010500D01*
X185050003Y-82990458D01*
X185049997Y-82990458D01*
X184923448Y-83010500D01*
X184867493Y-83039011D01*
X184809277Y-83068674D01*
X184809276Y-83068675D01*
X184809271Y-83068678D01*
X184718678Y-83159271D01*
X184718675Y-83159276D01*
X184718674Y-83159277D01*
X184689011Y-83217493D01*
X184660500Y-83273448D01*
X184640458Y-83399996D01*
X184640458Y-83400003D01*
X179622053Y-83400003D01*
X179590728Y-83368678D01*
X179590725Y-83368676D01*
X179590723Y-83368674D01*
X179476555Y-83310502D01*
X179476554Y-83310501D01*
X179476551Y-83310500D01*
X179350003Y-83290458D01*
X179349997Y-83290458D01*
X179223448Y-83310500D01*
X179191947Y-83326551D01*
X179109277Y-83368674D01*
X179109276Y-83368675D01*
X179109271Y-83368678D01*
X179018678Y-83459271D01*
X179018675Y-83459276D01*
X178960500Y-83573448D01*
X178940458Y-83699996D01*
X178940458Y-83700003D01*
X140010271Y-83700003D01*
X139950003Y-83690458D01*
X139949997Y-83690458D01*
X139823448Y-83710500D01*
X139823447Y-83710500D01*
X139732857Y-83756659D01*
X139664187Y-83769555D01*
X139599447Y-83743278D01*
X139559190Y-83686172D01*
X139554090Y-83665583D01*
X139539498Y-83573445D01*
X139481326Y-83459277D01*
X139481322Y-83459273D01*
X139481321Y-83459271D01*
X139390728Y-83368678D01*
X139390725Y-83368676D01*
X139390723Y-83368674D01*
X139276555Y-83310502D01*
X139276554Y-83310501D01*
X139276551Y-83310500D01*
X139150003Y-83290458D01*
X139149997Y-83290458D01*
X139023448Y-83310500D01*
X138991947Y-83326551D01*
X138909277Y-83368674D01*
X138909276Y-83368675D01*
X138909271Y-83368678D01*
X138818678Y-83459271D01*
X138818675Y-83459276D01*
X138760500Y-83573448D01*
X138740458Y-83699996D01*
X138740458Y-83700003D01*
X120300500Y-83700003D01*
X120300500Y-83200003D01*
X143240458Y-83200003D01*
X143260500Y-83326551D01*
X143260501Y-83326554D01*
X143260502Y-83326555D01*
X143318674Y-83440723D01*
X143318676Y-83440725D01*
X143318678Y-83440728D01*
X143409271Y-83531321D01*
X143409273Y-83531322D01*
X143409277Y-83531326D01*
X143523445Y-83589498D01*
X143523446Y-83589498D01*
X143523448Y-83589499D01*
X143649997Y-83609542D01*
X143650000Y-83609542D01*
X143650003Y-83609542D01*
X143776551Y-83589499D01*
X143776552Y-83589498D01*
X143776555Y-83589498D01*
X143890723Y-83531326D01*
X143981326Y-83440723D01*
X144039498Y-83326555D01*
X144059542Y-83200000D01*
X144058521Y-83193556D01*
X144067473Y-83124267D01*
X144112467Y-83070813D01*
X144179218Y-83050171D01*
X144200392Y-83051685D01*
X144249998Y-83059542D01*
X144250000Y-83059542D01*
X144250003Y-83059542D01*
X144376551Y-83039499D01*
X144376552Y-83039498D01*
X144376555Y-83039498D01*
X144490723Y-82981326D01*
X144512778Y-82959271D01*
X144562319Y-82909731D01*
X144623642Y-82876246D01*
X144693334Y-82881230D01*
X144737681Y-82909731D01*
X144809271Y-82981321D01*
X144809273Y-82981322D01*
X144809277Y-82981326D01*
X144923445Y-83039498D01*
X144923446Y-83039498D01*
X144923448Y-83039499D01*
X145049997Y-83059542D01*
X145050000Y-83059542D01*
X145050003Y-83059542D01*
X145176551Y-83039499D01*
X145176552Y-83039498D01*
X145176555Y-83039498D01*
X145290723Y-82981326D01*
X145300999Y-82971049D01*
X145362319Y-82937565D01*
X145432011Y-82942547D01*
X145487946Y-82984417D01*
X145499161Y-83002427D01*
X145518674Y-83040723D01*
X145518675Y-83040724D01*
X145518678Y-83040728D01*
X145609271Y-83131321D01*
X145609273Y-83131322D01*
X145609277Y-83131326D01*
X145723445Y-83189498D01*
X145723446Y-83189498D01*
X145723448Y-83189499D01*
X145849997Y-83209542D01*
X145850000Y-83209542D01*
X145850003Y-83209542D01*
X145976551Y-83189499D01*
X145976552Y-83189498D01*
X145976555Y-83189498D01*
X146090723Y-83131326D01*
X146181326Y-83040723D01*
X146217712Y-82969311D01*
X146265686Y-82918517D01*
X146333507Y-82901722D01*
X146399642Y-82924260D01*
X146401317Y-82925670D01*
X146401378Y-82925587D01*
X146409272Y-82931321D01*
X146409277Y-82931326D01*
X146523445Y-82989498D01*
X146523446Y-82989498D01*
X146523448Y-82989499D01*
X146649997Y-83009542D01*
X146650000Y-83009542D01*
X146650003Y-83009542D01*
X146776551Y-82989499D01*
X146776552Y-82989498D01*
X146776555Y-82989498D01*
X146890723Y-82931326D01*
X146981326Y-82840723D01*
X147039498Y-82726555D01*
X147039499Y-82726551D01*
X147059542Y-82600003D01*
X147059542Y-82599996D01*
X147039499Y-82473448D01*
X147039498Y-82473446D01*
X147039498Y-82473445D01*
X147002077Y-82400003D01*
X155440458Y-82400003D01*
X155460500Y-82526551D01*
X155460501Y-82526554D01*
X155460502Y-82526555D01*
X155518674Y-82640723D01*
X155518676Y-82640725D01*
X155518678Y-82640728D01*
X155609271Y-82731321D01*
X155609273Y-82731322D01*
X155609277Y-82731326D01*
X155723445Y-82789498D01*
X155723446Y-82789498D01*
X155723448Y-82789499D01*
X155849997Y-82809542D01*
X155850000Y-82809542D01*
X155850003Y-82809542D01*
X155976551Y-82789499D01*
X155976552Y-82789498D01*
X155976555Y-82789498D01*
X156090723Y-82731326D01*
X156181326Y-82640723D01*
X156239498Y-82526555D01*
X156239991Y-82523445D01*
X156259542Y-82400003D01*
X156259542Y-82399996D01*
X156239499Y-82273448D01*
X156239498Y-82273446D01*
X156239498Y-82273445D01*
X156181326Y-82159277D01*
X156181322Y-82159273D01*
X156181321Y-82159271D01*
X156090728Y-82068678D01*
X156090725Y-82068676D01*
X156090723Y-82068674D01*
X155976555Y-82010502D01*
X155976554Y-82010501D01*
X155976551Y-82010500D01*
X155850003Y-81990458D01*
X155849997Y-81990458D01*
X155723448Y-82010500D01*
X155667493Y-82039011D01*
X155609277Y-82068674D01*
X155609276Y-82068675D01*
X155609271Y-82068678D01*
X155518678Y-82159271D01*
X155518675Y-82159276D01*
X155518674Y-82159277D01*
X155492574Y-82210500D01*
X155460500Y-82273448D01*
X155440458Y-82399996D01*
X155440458Y-82400003D01*
X147002077Y-82400003D01*
X146981326Y-82359277D01*
X146981325Y-82359276D01*
X146981323Y-82359272D01*
X146976132Y-82352127D01*
X146952655Y-82286320D01*
X146968483Y-82218267D01*
X147018591Y-82169574D01*
X147087069Y-82155701D01*
X147132748Y-82168761D01*
X147173445Y-82189498D01*
X147173448Y-82189499D01*
X147299997Y-82209542D01*
X147300000Y-82209542D01*
X147300003Y-82209542D01*
X147426551Y-82189499D01*
X147426552Y-82189498D01*
X147426555Y-82189498D01*
X147540723Y-82131326D01*
X147631326Y-82040723D01*
X147689498Y-81926555D01*
X147689499Y-81926551D01*
X147709542Y-81800003D01*
X147709542Y-81799996D01*
X147689499Y-81673448D01*
X147689498Y-81673446D01*
X147689498Y-81673445D01*
X147631326Y-81559277D01*
X147631322Y-81559273D01*
X147631321Y-81559271D01*
X147540728Y-81468678D01*
X147540725Y-81468676D01*
X147540723Y-81468674D01*
X147426555Y-81410502D01*
X147426554Y-81410501D01*
X147426551Y-81410500D01*
X147300003Y-81390458D01*
X147299997Y-81390458D01*
X147173448Y-81410500D01*
X147117493Y-81439011D01*
X147059277Y-81468674D01*
X147059276Y-81468675D01*
X147059271Y-81468678D01*
X146968678Y-81559271D01*
X146968675Y-81559276D01*
X146910500Y-81673448D01*
X146890458Y-81799996D01*
X146890458Y-81800003D01*
X146910500Y-81926551D01*
X146910501Y-81926554D01*
X146910502Y-81926555D01*
X146953275Y-82010502D01*
X146968676Y-82040726D01*
X146973868Y-82047873D01*
X146997344Y-82113680D01*
X146981515Y-82181734D01*
X146931407Y-82230426D01*
X146862928Y-82244298D01*
X146817251Y-82231238D01*
X146815657Y-82230426D01*
X146776555Y-82210502D01*
X146776554Y-82210501D01*
X146776551Y-82210500D01*
X146650003Y-82190458D01*
X146649997Y-82190458D01*
X146523448Y-82210500D01*
X146467493Y-82239011D01*
X146409277Y-82268674D01*
X146409276Y-82268675D01*
X146409271Y-82268678D01*
X146318678Y-82359271D01*
X146318674Y-82359276D01*
X146282287Y-82430688D01*
X146234311Y-82481483D01*
X146166490Y-82498277D01*
X146100356Y-82475738D01*
X146098682Y-82474329D01*
X146098622Y-82474413D01*
X146090726Y-82468677D01*
X146090723Y-82468674D01*
X145976555Y-82410502D01*
X145976554Y-82410501D01*
X145976551Y-82410500D01*
X145850003Y-82390458D01*
X145849997Y-82390458D01*
X145723448Y-82410500D01*
X145683828Y-82430688D01*
X145609277Y-82468674D01*
X145609276Y-82468675D01*
X145609273Y-82468676D01*
X145598997Y-82478953D01*
X145537673Y-82512436D01*
X145467981Y-82507450D01*
X145412049Y-82465577D01*
X145400837Y-82447570D01*
X145381326Y-82409277D01*
X145381325Y-82409276D01*
X145381321Y-82409271D01*
X145290728Y-82318678D01*
X145290725Y-82318676D01*
X145290723Y-82318674D01*
X145176555Y-82260502D01*
X145176554Y-82260501D01*
X145176551Y-82260500D01*
X145050003Y-82240458D01*
X145049997Y-82240458D01*
X144923448Y-82260500D01*
X144898043Y-82273445D01*
X144809277Y-82318674D01*
X144809276Y-82318675D01*
X144809271Y-82318678D01*
X144737681Y-82390269D01*
X144676358Y-82423754D01*
X144606666Y-82418770D01*
X144562319Y-82390269D01*
X144490728Y-82318678D01*
X144490725Y-82318676D01*
X144490723Y-82318674D01*
X144376555Y-82260502D01*
X144376554Y-82260501D01*
X144376551Y-82260500D01*
X144250003Y-82240458D01*
X144249997Y-82240458D01*
X144123448Y-82260500D01*
X144098043Y-82273445D01*
X144009277Y-82318674D01*
X144009276Y-82318675D01*
X144009271Y-82318678D01*
X143918678Y-82409271D01*
X143918675Y-82409276D01*
X143918674Y-82409277D01*
X143899166Y-82447563D01*
X143860500Y-82523448D01*
X143840458Y-82649996D01*
X143840458Y-82649997D01*
X143841479Y-82656444D01*
X143832523Y-82725738D01*
X143787526Y-82779189D01*
X143720775Y-82799828D01*
X143699608Y-82798315D01*
X143699511Y-82798299D01*
X143650000Y-82790458D01*
X143649998Y-82790458D01*
X143649997Y-82790458D01*
X143523448Y-82810500D01*
X143467493Y-82839011D01*
X143409277Y-82868674D01*
X143409276Y-82868675D01*
X143409271Y-82868678D01*
X143318678Y-82959271D01*
X143318675Y-82959276D01*
X143318674Y-82959277D01*
X143292574Y-83010500D01*
X143260500Y-83073448D01*
X143240458Y-83199996D01*
X143240458Y-83200003D01*
X120300500Y-83200003D01*
X120300500Y-81000003D01*
X138740458Y-81000003D01*
X138760500Y-81126551D01*
X138760501Y-81126554D01*
X138760502Y-81126555D01*
X138818674Y-81240723D01*
X138818676Y-81240725D01*
X138818678Y-81240728D01*
X138909271Y-81331321D01*
X138909273Y-81331322D01*
X138909277Y-81331326D01*
X139023445Y-81389498D01*
X139023446Y-81389498D01*
X139023448Y-81389499D01*
X139149997Y-81409542D01*
X139150000Y-81409542D01*
X139150003Y-81409542D01*
X139276551Y-81389499D01*
X139276552Y-81389498D01*
X139276555Y-81389498D01*
X139390723Y-81331326D01*
X139472049Y-81250000D01*
X161904456Y-81250000D01*
X161924528Y-81389606D01*
X161924530Y-81389614D01*
X161983119Y-81517907D01*
X161983121Y-81517909D01*
X161983122Y-81517911D01*
X162075488Y-81624507D01*
X162075490Y-81624508D01*
X162075489Y-81624508D01*
X162194145Y-81700764D01*
X162329474Y-81740499D01*
X162329476Y-81740500D01*
X162329477Y-81740500D01*
X162470524Y-81740500D01*
X162470524Y-81740499D01*
X162605853Y-81700764D01*
X162605854Y-81700764D01*
X162648359Y-81673448D01*
X162724512Y-81624507D01*
X162816878Y-81517911D01*
X162875471Y-81389611D01*
X162895544Y-81250000D01*
X164654456Y-81250000D01*
X164674528Y-81389606D01*
X164674530Y-81389614D01*
X164733119Y-81517907D01*
X164733121Y-81517909D01*
X164733122Y-81517911D01*
X164825488Y-81624507D01*
X164825490Y-81624508D01*
X164825489Y-81624508D01*
X164944145Y-81700764D01*
X165079474Y-81740499D01*
X165079476Y-81740500D01*
X165079477Y-81740500D01*
X165220524Y-81740500D01*
X165220524Y-81740499D01*
X165355853Y-81700764D01*
X165355854Y-81700764D01*
X165398359Y-81673448D01*
X165474512Y-81624507D01*
X165566878Y-81517911D01*
X165575058Y-81500000D01*
X173754456Y-81500000D01*
X173774528Y-81639606D01*
X173774530Y-81639614D01*
X173833119Y-81767907D01*
X173833121Y-81767909D01*
X173833122Y-81767911D01*
X173925488Y-81874507D01*
X173925490Y-81874508D01*
X173925489Y-81874508D01*
X174044145Y-81950764D01*
X174179474Y-81990499D01*
X174179476Y-81990500D01*
X174179477Y-81990500D01*
X174320524Y-81990500D01*
X174320524Y-81990499D01*
X174455853Y-81950764D01*
X174455854Y-81950764D01*
X174574510Y-81874508D01*
X174574509Y-81874508D01*
X174574512Y-81874507D01*
X174666878Y-81767911D01*
X174725471Y-81639611D01*
X174745544Y-81500000D01*
X174725471Y-81360389D01*
X174712196Y-81331321D01*
X174666880Y-81232092D01*
X174666878Y-81232090D01*
X174666878Y-81232089D01*
X174574512Y-81125493D01*
X174574509Y-81125491D01*
X174574510Y-81125491D01*
X174455854Y-81049235D01*
X174320525Y-81009500D01*
X174320523Y-81009500D01*
X174179477Y-81009500D01*
X174179474Y-81009500D01*
X174044146Y-81049235D01*
X174044145Y-81049235D01*
X173925489Y-81125491D01*
X173833122Y-81232089D01*
X173833119Y-81232092D01*
X173774530Y-81360385D01*
X173774528Y-81360393D01*
X173754456Y-81500000D01*
X165575058Y-81500000D01*
X165625471Y-81389611D01*
X165645544Y-81250000D01*
X165625471Y-81110389D01*
X165597543Y-81049235D01*
X165575058Y-81000000D01*
X178644456Y-81000000D01*
X178664528Y-81139606D01*
X178664530Y-81139614D01*
X178723119Y-81267907D01*
X178723121Y-81267909D01*
X178723122Y-81267911D01*
X178815488Y-81374507D01*
X178815490Y-81374508D01*
X178815489Y-81374508D01*
X178934145Y-81450764D01*
X179069474Y-81490499D01*
X179069476Y-81490500D01*
X179069477Y-81490500D01*
X179210524Y-81490500D01*
X179210524Y-81490499D01*
X179345853Y-81450764D01*
X179345854Y-81450764D01*
X179409997Y-81409542D01*
X179464512Y-81374507D01*
X179556878Y-81267911D01*
X179615471Y-81139611D01*
X179635544Y-81000000D01*
X183654456Y-81000000D01*
X183674528Y-81139606D01*
X183674530Y-81139614D01*
X183733119Y-81267907D01*
X183733121Y-81267909D01*
X183733122Y-81267911D01*
X183825488Y-81374507D01*
X183825490Y-81374508D01*
X183825489Y-81374508D01*
X183944145Y-81450764D01*
X184079474Y-81490499D01*
X184079476Y-81490500D01*
X184079477Y-81490500D01*
X184220524Y-81490500D01*
X184220524Y-81490499D01*
X184355853Y-81450764D01*
X184355854Y-81450764D01*
X184419997Y-81409542D01*
X184474512Y-81374507D01*
X184566878Y-81267911D01*
X184625471Y-81139611D01*
X184645544Y-81000000D01*
X184625471Y-80860389D01*
X184597543Y-80799235D01*
X184566880Y-80732092D01*
X184566878Y-80732090D01*
X184566878Y-80732089D01*
X184474512Y-80625493D01*
X184474509Y-80625491D01*
X184474510Y-80625491D01*
X184355854Y-80549235D01*
X184220525Y-80509500D01*
X184220523Y-80509500D01*
X184079477Y-80509500D01*
X184079474Y-80509500D01*
X183944146Y-80549235D01*
X183944145Y-80549235D01*
X183825489Y-80625491D01*
X183733122Y-80732089D01*
X183733119Y-80732092D01*
X183674530Y-80860385D01*
X183674528Y-80860393D01*
X183654456Y-81000000D01*
X179635544Y-81000000D01*
X179615471Y-80860389D01*
X179587543Y-80799235D01*
X179556880Y-80732092D01*
X179556878Y-80732090D01*
X179556878Y-80732089D01*
X179464512Y-80625493D01*
X179464509Y-80625491D01*
X179464510Y-80625491D01*
X179345854Y-80549235D01*
X179210525Y-80509500D01*
X179210523Y-80509500D01*
X179069477Y-80509500D01*
X179069474Y-80509500D01*
X178934146Y-80549235D01*
X178934145Y-80549235D01*
X178815489Y-80625491D01*
X178723122Y-80732089D01*
X178723119Y-80732092D01*
X178664530Y-80860385D01*
X178664528Y-80860393D01*
X178644456Y-81000000D01*
X165575058Y-81000000D01*
X165566880Y-80982092D01*
X165566878Y-80982090D01*
X165566878Y-80982089D01*
X165474512Y-80875493D01*
X165474509Y-80875491D01*
X165474510Y-80875491D01*
X165355854Y-80799235D01*
X165220525Y-80759500D01*
X165220523Y-80759500D01*
X165079477Y-80759500D01*
X165079474Y-80759500D01*
X164944146Y-80799235D01*
X164944145Y-80799235D01*
X164825489Y-80875491D01*
X164733122Y-80982089D01*
X164733119Y-80982092D01*
X164674530Y-81110385D01*
X164674528Y-81110393D01*
X164654456Y-81250000D01*
X162895544Y-81250000D01*
X162875471Y-81110389D01*
X162847543Y-81049235D01*
X162816880Y-80982092D01*
X162816878Y-80982090D01*
X162816878Y-80982089D01*
X162724512Y-80875493D01*
X162724509Y-80875491D01*
X162724510Y-80875491D01*
X162605854Y-80799235D01*
X162470525Y-80759500D01*
X162470523Y-80759500D01*
X162329477Y-80759500D01*
X162329474Y-80759500D01*
X162194146Y-80799235D01*
X162194145Y-80799235D01*
X162075489Y-80875491D01*
X161983122Y-80982089D01*
X161983119Y-80982092D01*
X161924530Y-81110385D01*
X161924528Y-81110393D01*
X161904456Y-81250000D01*
X139472049Y-81250000D01*
X139481326Y-81240723D01*
X139539498Y-81126555D01*
X139539499Y-81126551D01*
X139559542Y-81000003D01*
X139559542Y-80999996D01*
X139539499Y-80873448D01*
X139539498Y-80873446D01*
X139539498Y-80873445D01*
X139481326Y-80759277D01*
X139481322Y-80759273D01*
X139481321Y-80759271D01*
X139390728Y-80668678D01*
X139390725Y-80668676D01*
X139390723Y-80668674D01*
X139276555Y-80610502D01*
X139276554Y-80610501D01*
X139276551Y-80610500D01*
X139150003Y-80590458D01*
X139149997Y-80590458D01*
X139023448Y-80610500D01*
X138967493Y-80639011D01*
X138909277Y-80668674D01*
X138909276Y-80668675D01*
X138909271Y-80668678D01*
X138818678Y-80759271D01*
X138818675Y-80759276D01*
X138818674Y-80759277D01*
X138798314Y-80799235D01*
X138760500Y-80873448D01*
X138740458Y-80999996D01*
X138740458Y-81000003D01*
X120300500Y-81000003D01*
X120300500Y-78200000D01*
X172654456Y-78200000D01*
X172674528Y-78339606D01*
X172674530Y-78339614D01*
X172733119Y-78467907D01*
X172733121Y-78467909D01*
X172733122Y-78467911D01*
X172825488Y-78574507D01*
X172825490Y-78574508D01*
X172825489Y-78574508D01*
X172944145Y-78650764D01*
X173079474Y-78690499D01*
X173079476Y-78690500D01*
X173079477Y-78690500D01*
X173220524Y-78690500D01*
X173220524Y-78690499D01*
X173355853Y-78650764D01*
X173355854Y-78650764D01*
X173435450Y-78599611D01*
X173474512Y-78574507D01*
X173566878Y-78467911D01*
X173570491Y-78460000D01*
X176954456Y-78460000D01*
X176974528Y-78599606D01*
X176974530Y-78599614D01*
X177033119Y-78727907D01*
X177033121Y-78727909D01*
X177033122Y-78727911D01*
X177125488Y-78834507D01*
X177125490Y-78834508D01*
X177125489Y-78834508D01*
X177244145Y-78910764D01*
X177379474Y-78950499D01*
X177379476Y-78950500D01*
X177379477Y-78950500D01*
X177520524Y-78950500D01*
X177520524Y-78950499D01*
X177655853Y-78910764D01*
X177655854Y-78910764D01*
X177774510Y-78834508D01*
X177774509Y-78834508D01*
X177774512Y-78834507D01*
X177866878Y-78727911D01*
X177925471Y-78599611D01*
X177945544Y-78460000D01*
X177925471Y-78320389D01*
X177870491Y-78200000D01*
X177866880Y-78192092D01*
X177866878Y-78192090D01*
X177866878Y-78192089D01*
X177774512Y-78085493D01*
X177774509Y-78085491D01*
X177774510Y-78085491D01*
X177655854Y-78009235D01*
X177520525Y-77969500D01*
X177520523Y-77969500D01*
X177379477Y-77969500D01*
X177379474Y-77969500D01*
X177244146Y-78009235D01*
X177244145Y-78009235D01*
X177125489Y-78085491D01*
X177033122Y-78192089D01*
X177033119Y-78192092D01*
X176974530Y-78320385D01*
X176974528Y-78320393D01*
X176954456Y-78460000D01*
X173570491Y-78460000D01*
X173625471Y-78339611D01*
X173645544Y-78200000D01*
X173625471Y-78060389D01*
X173602110Y-78009235D01*
X173566880Y-77932092D01*
X173566878Y-77932090D01*
X173566878Y-77932089D01*
X173474512Y-77825493D01*
X173474509Y-77825491D01*
X173474510Y-77825491D01*
X173355854Y-77749235D01*
X173220525Y-77709500D01*
X173220523Y-77709500D01*
X173079477Y-77709500D01*
X173079474Y-77709500D01*
X172944146Y-77749235D01*
X172944145Y-77749235D01*
X172825489Y-77825491D01*
X172733122Y-77932089D01*
X172733119Y-77932092D01*
X172674530Y-78060385D01*
X172674528Y-78060393D01*
X172654456Y-78200000D01*
X120300500Y-78200000D01*
X120300500Y-77700000D01*
X178054456Y-77700000D01*
X178074528Y-77839606D01*
X178074530Y-77839614D01*
X178133119Y-77967907D01*
X178133121Y-77967909D01*
X178133122Y-77967911D01*
X178225488Y-78074507D01*
X178225490Y-78074508D01*
X178225489Y-78074508D01*
X178344145Y-78150764D01*
X178479474Y-78190499D01*
X178479476Y-78190500D01*
X178479477Y-78190500D01*
X178620524Y-78190500D01*
X178620524Y-78190499D01*
X178755853Y-78150764D01*
X178755854Y-78150764D01*
X178857418Y-78085493D01*
X178874512Y-78074507D01*
X178966878Y-77967911D01*
X179025471Y-77839611D01*
X179045544Y-77700000D01*
X179025471Y-77560389D01*
X178978671Y-77457911D01*
X178966880Y-77432092D01*
X178966878Y-77432090D01*
X178966878Y-77432089D01*
X178874512Y-77325493D01*
X178874509Y-77325491D01*
X178874510Y-77325491D01*
X178755854Y-77249235D01*
X178620525Y-77209500D01*
X178620523Y-77209500D01*
X178479477Y-77209500D01*
X178479474Y-77209500D01*
X178344146Y-77249235D01*
X178344145Y-77249235D01*
X178225489Y-77325491D01*
X178133122Y-77432089D01*
X178133119Y-77432092D01*
X178074530Y-77560385D01*
X178074528Y-77560393D01*
X178054456Y-77700000D01*
X120300500Y-77700000D01*
X120300500Y-77190000D01*
X127804456Y-77190000D01*
X127824528Y-77329606D01*
X127824530Y-77329614D01*
X127883119Y-77457907D01*
X127883121Y-77457909D01*
X127883122Y-77457911D01*
X127975488Y-77564507D01*
X127975490Y-77564508D01*
X127975489Y-77564508D01*
X128094145Y-77640764D01*
X128229474Y-77680499D01*
X128229476Y-77680500D01*
X128229477Y-77680500D01*
X128370524Y-77680500D01*
X128370524Y-77680499D01*
X128505853Y-77640764D01*
X128505854Y-77640764D01*
X128624510Y-77564508D01*
X128624509Y-77564508D01*
X128624512Y-77564507D01*
X128716878Y-77457911D01*
X128775471Y-77329611D01*
X128795544Y-77190000D01*
X128775471Y-77050389D01*
X128747716Y-76989614D01*
X128716880Y-76922092D01*
X128716878Y-76922090D01*
X128716878Y-76922089D01*
X128654412Y-76850000D01*
X142904456Y-76850000D01*
X142924528Y-76989606D01*
X142924530Y-76989614D01*
X142983119Y-77117907D01*
X142983121Y-77117909D01*
X142983122Y-77117911D01*
X143075488Y-77224507D01*
X143075490Y-77224508D01*
X143075489Y-77224508D01*
X143194145Y-77300764D01*
X143329474Y-77340499D01*
X143329476Y-77340500D01*
X143329477Y-77340500D01*
X143470524Y-77340500D01*
X143470524Y-77340499D01*
X143605853Y-77300764D01*
X143605854Y-77300764D01*
X143646711Y-77274507D01*
X143724512Y-77224507D01*
X143816878Y-77117911D01*
X143875471Y-76989611D01*
X143888355Y-76900000D01*
X146954456Y-76900000D01*
X146974528Y-77039606D01*
X146974530Y-77039614D01*
X147033119Y-77167907D01*
X147033121Y-77167909D01*
X147033122Y-77167911D01*
X147125488Y-77274507D01*
X147125490Y-77274508D01*
X147125489Y-77274508D01*
X147244145Y-77350764D01*
X147379474Y-77390499D01*
X147379476Y-77390500D01*
X147379477Y-77390500D01*
X147520524Y-77390500D01*
X147520524Y-77390499D01*
X147655853Y-77350764D01*
X147655854Y-77350764D01*
X147688777Y-77329606D01*
X147774512Y-77274507D01*
X147866878Y-77167911D01*
X147925471Y-77039611D01*
X147945544Y-76900000D01*
X147925471Y-76760389D01*
X147912831Y-76732711D01*
X147866880Y-76632092D01*
X147866878Y-76632090D01*
X147866878Y-76632089D01*
X147774512Y-76525493D01*
X147774509Y-76525491D01*
X147774510Y-76525491D01*
X147655854Y-76449235D01*
X147520525Y-76409500D01*
X147520523Y-76409500D01*
X147379477Y-76409500D01*
X147379474Y-76409500D01*
X147244146Y-76449235D01*
X147244145Y-76449235D01*
X147125489Y-76525491D01*
X147033122Y-76632089D01*
X147033119Y-76632092D01*
X146974530Y-76760385D01*
X146974528Y-76760393D01*
X146954456Y-76900000D01*
X143888355Y-76900000D01*
X143895544Y-76850000D01*
X143875471Y-76710389D01*
X143839714Y-76632092D01*
X143816880Y-76582092D01*
X143816878Y-76582090D01*
X143816878Y-76582089D01*
X143724512Y-76475493D01*
X143724509Y-76475491D01*
X143724510Y-76475491D01*
X143605854Y-76399235D01*
X143470525Y-76359500D01*
X143470523Y-76359500D01*
X143329477Y-76359500D01*
X143329474Y-76359500D01*
X143194146Y-76399235D01*
X143194145Y-76399235D01*
X143075489Y-76475491D01*
X142983122Y-76582089D01*
X142983119Y-76582092D01*
X142924530Y-76710385D01*
X142924528Y-76710393D01*
X142904456Y-76850000D01*
X128654412Y-76850000D01*
X128624512Y-76815493D01*
X128624509Y-76815491D01*
X128624510Y-76815491D01*
X128505854Y-76739235D01*
X128370525Y-76699500D01*
X128370523Y-76699500D01*
X128229477Y-76699500D01*
X128229474Y-76699500D01*
X128094146Y-76739235D01*
X128094145Y-76739235D01*
X127975489Y-76815491D01*
X127883122Y-76922089D01*
X127883119Y-76922092D01*
X127824530Y-77050385D01*
X127824528Y-77050393D01*
X127804456Y-77190000D01*
X120300500Y-77190000D01*
X120300500Y-75000003D01*
X167640458Y-75000003D01*
X167660500Y-75126551D01*
X167660501Y-75126554D01*
X167660502Y-75126555D01*
X167718674Y-75240723D01*
X167718676Y-75240725D01*
X167718678Y-75240728D01*
X167809271Y-75331321D01*
X167809273Y-75331322D01*
X167809277Y-75331326D01*
X167923445Y-75389498D01*
X167923446Y-75389498D01*
X167923448Y-75389499D01*
X168049997Y-75409542D01*
X168050000Y-75409542D01*
X168050003Y-75409542D01*
X168176551Y-75389499D01*
X168176552Y-75389498D01*
X168176555Y-75389498D01*
X168290723Y-75331326D01*
X168381326Y-75240723D01*
X168439498Y-75126555D01*
X168459542Y-75000000D01*
X168459542Y-74999996D01*
X168439499Y-74873448D01*
X168439498Y-74873446D01*
X168439498Y-74873445D01*
X168381326Y-74759277D01*
X168381322Y-74759273D01*
X168381321Y-74759271D01*
X168290728Y-74668678D01*
X168290725Y-74668676D01*
X168290723Y-74668674D01*
X168176555Y-74610502D01*
X168176554Y-74610501D01*
X168176551Y-74610500D01*
X168050003Y-74590458D01*
X168049997Y-74590458D01*
X167923448Y-74610500D01*
X167867493Y-74639011D01*
X167809277Y-74668674D01*
X167809276Y-74668675D01*
X167809271Y-74668678D01*
X167718678Y-74759271D01*
X167718675Y-74759276D01*
X167660500Y-74873448D01*
X167640458Y-74999996D01*
X167640458Y-75000003D01*
X120300500Y-75000003D01*
X120300500Y-72800000D01*
X171954456Y-72800000D01*
X171974528Y-72939606D01*
X171974530Y-72939614D01*
X172033119Y-73067907D01*
X172033121Y-73067909D01*
X172033122Y-73067911D01*
X172125488Y-73174507D01*
X172125490Y-73174508D01*
X172125489Y-73174508D01*
X172244145Y-73250764D01*
X172379474Y-73290499D01*
X172379476Y-73290500D01*
X172379477Y-73290500D01*
X172520524Y-73290500D01*
X172520524Y-73290499D01*
X172655853Y-73250764D01*
X172655854Y-73250764D01*
X172774510Y-73174508D01*
X172774509Y-73174508D01*
X172774512Y-73174507D01*
X172866878Y-73067911D01*
X172925471Y-72939611D01*
X172945544Y-72800000D01*
X172925471Y-72660389D01*
X172912831Y-72632711D01*
X172866880Y-72532092D01*
X172866878Y-72532090D01*
X172866878Y-72532089D01*
X172774512Y-72425493D01*
X172774509Y-72425491D01*
X172774510Y-72425491D01*
X172655854Y-72349235D01*
X172520525Y-72309500D01*
X172520523Y-72309500D01*
X172379477Y-72309500D01*
X172379474Y-72309500D01*
X172244146Y-72349235D01*
X172244145Y-72349235D01*
X172125489Y-72425491D01*
X172033122Y-72532089D01*
X172033119Y-72532092D01*
X171974530Y-72660385D01*
X171974528Y-72660393D01*
X171954456Y-72800000D01*
X120300500Y-72800000D01*
X120300500Y-69950003D01*
X144490458Y-69950003D01*
X144510500Y-70076551D01*
X144510501Y-70076554D01*
X144510502Y-70076555D01*
X144568674Y-70190723D01*
X144568676Y-70190725D01*
X144568678Y-70190728D01*
X144659271Y-70281321D01*
X144659273Y-70281322D01*
X144659277Y-70281326D01*
X144773445Y-70339498D01*
X144773446Y-70339498D01*
X144773448Y-70339499D01*
X144899997Y-70359542D01*
X144900000Y-70359542D01*
X144900003Y-70359542D01*
X145026551Y-70339499D01*
X145026552Y-70339498D01*
X145026555Y-70339498D01*
X145140723Y-70281326D01*
X145140727Y-70281321D01*
X145146388Y-70277210D01*
X145212194Y-70253731D01*
X145280248Y-70269557D01*
X145328942Y-70319663D01*
X145341745Y-70358131D01*
X145360500Y-70476552D01*
X145360502Y-70476555D01*
X145418674Y-70590723D01*
X145418676Y-70590725D01*
X145418678Y-70590728D01*
X145509271Y-70681321D01*
X145509273Y-70681322D01*
X145509277Y-70681326D01*
X145623445Y-70739498D01*
X145623446Y-70739498D01*
X145623448Y-70739499D01*
X145749997Y-70759542D01*
X145750000Y-70759542D01*
X145750003Y-70759542D01*
X145876551Y-70739499D01*
X145876553Y-70739498D01*
X145876555Y-70739498D01*
X145967143Y-70693340D01*
X146035810Y-70680444D01*
X146100551Y-70706720D01*
X146140808Y-70763826D01*
X146145910Y-70784427D01*
X146160500Y-70876552D01*
X146179138Y-70913130D01*
X146218674Y-70990723D01*
X146218676Y-70990725D01*
X146218678Y-70990728D01*
X146309271Y-71081321D01*
X146309273Y-71081322D01*
X146309277Y-71081326D01*
X146423445Y-71139498D01*
X146423446Y-71139498D01*
X146432140Y-71143928D01*
X146431022Y-71146120D01*
X146477104Y-71177630D01*
X146504303Y-71241988D01*
X146492389Y-71310835D01*
X146491596Y-71312418D01*
X146460501Y-71373444D01*
X146460500Y-71373448D01*
X146440458Y-71499996D01*
X146440458Y-71500003D01*
X146460500Y-71626551D01*
X146460501Y-71626554D01*
X146460502Y-71626555D01*
X146518674Y-71740723D01*
X146518676Y-71740725D01*
X146518678Y-71740728D01*
X146609271Y-71831321D01*
X146609273Y-71831322D01*
X146609277Y-71831326D01*
X146723445Y-71889498D01*
X146723446Y-71889498D01*
X146723448Y-71889499D01*
X146849997Y-71909542D01*
X146850000Y-71909542D01*
X146850003Y-71909542D01*
X146976551Y-71889499D01*
X146976552Y-71889498D01*
X146976555Y-71889498D01*
X147090723Y-71831326D01*
X147181326Y-71740723D01*
X147239498Y-71626555D01*
X147239499Y-71626551D01*
X147259542Y-71500003D01*
X147259542Y-71499996D01*
X147239499Y-71373448D01*
X147239498Y-71373446D01*
X147239498Y-71373445D01*
X147181326Y-71259277D01*
X147181322Y-71259273D01*
X147181321Y-71259271D01*
X147090728Y-71168678D01*
X147090725Y-71168676D01*
X147090723Y-71168674D01*
X146976555Y-71110502D01*
X146976553Y-71110501D01*
X146967860Y-71106072D01*
X146968976Y-71103881D01*
X146963302Y-71100000D01*
X171954456Y-71100000D01*
X171974528Y-71239606D01*
X171974530Y-71239614D01*
X172033119Y-71367907D01*
X172033121Y-71367909D01*
X172033122Y-71367911D01*
X172125488Y-71474507D01*
X172125490Y-71474508D01*
X172125489Y-71474508D01*
X172244145Y-71550764D01*
X172379474Y-71590499D01*
X172379476Y-71590500D01*
X172379477Y-71590500D01*
X172520524Y-71590500D01*
X172520524Y-71590499D01*
X172655853Y-71550764D01*
X172655854Y-71550764D01*
X172668653Y-71542539D01*
X172774512Y-71474507D01*
X172866878Y-71367911D01*
X172925471Y-71239611D01*
X172945544Y-71100000D01*
X172925471Y-70960389D01*
X172889018Y-70880568D01*
X172866880Y-70832092D01*
X172866878Y-70832090D01*
X172866878Y-70832089D01*
X172774512Y-70725493D01*
X172774509Y-70725491D01*
X172774510Y-70725491D01*
X172655854Y-70649235D01*
X172520525Y-70609500D01*
X172520523Y-70609500D01*
X172379477Y-70609500D01*
X172379474Y-70609500D01*
X172244146Y-70649235D01*
X172244145Y-70649235D01*
X172125489Y-70725491D01*
X172033122Y-70832089D01*
X172033119Y-70832092D01*
X171974530Y-70960385D01*
X171974528Y-70960393D01*
X171954456Y-71100000D01*
X146963302Y-71100000D01*
X146922886Y-71072358D01*
X146895695Y-71007996D01*
X146907617Y-70939151D01*
X146908404Y-70937579D01*
X146937453Y-70880568D01*
X146939498Y-70876555D01*
X146939498Y-70876553D01*
X146939499Y-70876551D01*
X146959542Y-70750003D01*
X146959542Y-70749996D01*
X146939499Y-70623448D01*
X146939498Y-70623446D01*
X146939498Y-70623445D01*
X146881326Y-70509277D01*
X146881322Y-70509273D01*
X146881321Y-70509271D01*
X146790728Y-70418678D01*
X146790725Y-70418676D01*
X146790723Y-70418674D01*
X146676555Y-70360502D01*
X146676554Y-70360501D01*
X146676551Y-70360500D01*
X146550003Y-70340458D01*
X146549997Y-70340458D01*
X146423448Y-70360500D01*
X146423447Y-70360500D01*
X146332857Y-70406659D01*
X146264187Y-70419555D01*
X146199447Y-70393278D01*
X146159190Y-70336172D01*
X146154090Y-70315583D01*
X146139498Y-70223445D01*
X146127552Y-70200000D01*
X173254456Y-70200000D01*
X173274528Y-70339606D01*
X173274530Y-70339614D01*
X173333119Y-70467907D01*
X173333121Y-70467909D01*
X173333122Y-70467911D01*
X173425488Y-70574507D01*
X173425490Y-70574508D01*
X173425489Y-70574508D01*
X173544145Y-70650764D01*
X173679474Y-70690499D01*
X173679476Y-70690500D01*
X173679477Y-70690500D01*
X173820524Y-70690500D01*
X173820524Y-70690499D01*
X173955853Y-70650764D01*
X173955854Y-70650764D01*
X173958234Y-70649235D01*
X174074512Y-70574507D01*
X174166878Y-70467911D01*
X174225471Y-70339611D01*
X174245544Y-70200000D01*
X174225471Y-70060389D01*
X174179853Y-69960500D01*
X174166880Y-69932092D01*
X174166878Y-69932090D01*
X174166878Y-69932089D01*
X174074512Y-69825493D01*
X174074509Y-69825491D01*
X174074510Y-69825491D01*
X173957046Y-69750001D01*
X194407032Y-69750001D01*
X194426864Y-69976686D01*
X194426866Y-69976697D01*
X194485758Y-70196488D01*
X194485761Y-70196497D01*
X194581931Y-70402732D01*
X194581932Y-70402734D01*
X194712454Y-70589141D01*
X194873358Y-70750045D01*
X194873361Y-70750047D01*
X195059766Y-70880568D01*
X195266004Y-70976739D01*
X195485808Y-71035635D01*
X195647730Y-71049801D01*
X195712498Y-71055468D01*
X195712500Y-71055468D01*
X195712502Y-71055468D01*
X195769173Y-71050509D01*
X195939192Y-71035635D01*
X196158996Y-70976739D01*
X196365234Y-70880568D01*
X196551639Y-70750047D01*
X196712547Y-70589139D01*
X196843068Y-70402734D01*
X196939239Y-70196496D01*
X196998135Y-69976692D01*
X197017968Y-69750000D01*
X196998135Y-69523308D01*
X196939239Y-69303504D01*
X196843068Y-69097266D01*
X196745339Y-68957693D01*
X196712545Y-68910858D01*
X196551641Y-68749954D01*
X196365234Y-68619432D01*
X196365232Y-68619431D01*
X196158997Y-68523261D01*
X196158988Y-68523258D01*
X195939197Y-68464366D01*
X195939193Y-68464365D01*
X195939192Y-68464365D01*
X195939191Y-68464364D01*
X195939186Y-68464364D01*
X195712502Y-68444532D01*
X195712498Y-68444532D01*
X195485813Y-68464364D01*
X195485802Y-68464366D01*
X195266011Y-68523258D01*
X195266002Y-68523261D01*
X195059767Y-68619431D01*
X195059765Y-68619432D01*
X194873358Y-68749954D01*
X194712454Y-68910858D01*
X194581932Y-69097265D01*
X194581931Y-69097267D01*
X194485761Y-69303502D01*
X194485758Y-69303511D01*
X194426866Y-69523302D01*
X194426864Y-69523313D01*
X194407032Y-69749998D01*
X194407032Y-69750001D01*
X173957046Y-69750001D01*
X173955854Y-69749235D01*
X173820525Y-69709500D01*
X173820523Y-69709500D01*
X173679477Y-69709500D01*
X173679474Y-69709500D01*
X173544146Y-69749235D01*
X173544145Y-69749235D01*
X173425489Y-69825491D01*
X173333122Y-69932089D01*
X173333119Y-69932092D01*
X173274530Y-70060385D01*
X173274528Y-70060393D01*
X173254456Y-70200000D01*
X146127552Y-70200000D01*
X146081326Y-70109277D01*
X146081322Y-70109273D01*
X146081321Y-70109271D01*
X145990728Y-70018678D01*
X145990725Y-70018676D01*
X145990723Y-70018674D01*
X145876555Y-69960502D01*
X145876554Y-69960501D01*
X145876551Y-69960500D01*
X145750003Y-69940458D01*
X145749997Y-69940458D01*
X145623448Y-69960500D01*
X145509271Y-70018677D01*
X145503603Y-70022795D01*
X145437795Y-70046268D01*
X145369742Y-70030437D01*
X145321052Y-69980327D01*
X145308254Y-69941872D01*
X145289498Y-69823445D01*
X145231326Y-69709277D01*
X145231322Y-69709273D01*
X145231321Y-69709271D01*
X145140728Y-69618678D01*
X145140725Y-69618676D01*
X145140723Y-69618674D01*
X145026555Y-69560502D01*
X145026554Y-69560501D01*
X145026551Y-69560500D01*
X144900003Y-69540458D01*
X144899997Y-69540458D01*
X144773448Y-69560500D01*
X144717493Y-69589011D01*
X144659277Y-69618674D01*
X144659276Y-69618675D01*
X144659271Y-69618678D01*
X144568678Y-69709271D01*
X144568675Y-69709276D01*
X144568674Y-69709277D01*
X144547924Y-69750001D01*
X144510500Y-69823448D01*
X144490458Y-69949996D01*
X144490458Y-69950003D01*
X120300500Y-69950003D01*
X120300500Y-69050003D01*
X143740458Y-69050003D01*
X143760500Y-69176551D01*
X143760501Y-69176554D01*
X143760502Y-69176555D01*
X143818674Y-69290723D01*
X143818676Y-69290725D01*
X143818678Y-69290728D01*
X143909271Y-69381321D01*
X143909273Y-69381322D01*
X143909277Y-69381326D01*
X144023445Y-69439498D01*
X144023446Y-69439498D01*
X144023448Y-69439499D01*
X144149997Y-69459542D01*
X144150000Y-69459542D01*
X144150003Y-69459542D01*
X144276551Y-69439499D01*
X144276552Y-69439498D01*
X144276555Y-69439498D01*
X144390723Y-69381326D01*
X144481326Y-69290723D01*
X144539498Y-69176555D01*
X144552056Y-69097266D01*
X144559542Y-69050003D01*
X144559542Y-69049996D01*
X144539499Y-68923448D01*
X144539498Y-68923446D01*
X144539498Y-68923445D01*
X144481326Y-68809277D01*
X144481322Y-68809273D01*
X144481321Y-68809271D01*
X144390728Y-68718678D01*
X144390725Y-68718676D01*
X144390723Y-68718674D01*
X144276555Y-68660502D01*
X144276554Y-68660501D01*
X144276551Y-68660500D01*
X144150003Y-68640458D01*
X144149997Y-68640458D01*
X144023448Y-68660500D01*
X143967493Y-68689011D01*
X143909277Y-68718674D01*
X143909276Y-68718675D01*
X143909271Y-68718678D01*
X143818678Y-68809271D01*
X143818675Y-68809276D01*
X143760500Y-68923448D01*
X143740458Y-69049996D01*
X143740458Y-69050003D01*
X120300500Y-69050003D01*
X120300500Y-64959216D01*
X120303561Y-64937276D01*
X120304401Y-64928207D01*
X120301029Y-64891817D01*
X120300500Y-64880376D01*
X120300500Y-64872155D01*
X120298990Y-64864079D01*
X120297407Y-64852731D01*
X120294035Y-64816340D01*
X120291548Y-64807599D01*
X120288350Y-64798059D01*
X120285061Y-64789570D01*
X120285061Y-64789567D01*
X120285059Y-64789564D01*
X120285058Y-64789561D01*
X120265821Y-64758492D01*
X120260252Y-64748496D01*
X120243958Y-64715772D01*
X120243956Y-64715770D01*
X120243955Y-64715768D01*
X120238475Y-64708511D01*
X120232061Y-64700786D01*
X120225916Y-64694045D01*
X120196750Y-64672020D01*
X120187949Y-64664712D01*
X120160933Y-64640084D01*
X120160931Y-64640083D01*
X120160929Y-64640081D01*
X120153232Y-64635315D01*
X120144390Y-64630390D01*
X120136264Y-64626343D01*
X120101120Y-64616344D01*
X120090265Y-64612706D01*
X120056172Y-64599499D01*
X120047236Y-64597829D01*
X120037257Y-64596437D01*
X120028208Y-64595599D01*
X120028207Y-64595599D01*
X119991817Y-64598971D01*
X119980376Y-64599500D01*
X112637000Y-64599500D01*
X112569961Y-64579815D01*
X112524206Y-64527011D01*
X112513000Y-64475500D01*
X112513000Y-63975000D01*
X123229456Y-63975000D01*
X123249528Y-64114606D01*
X123249530Y-64114614D01*
X123308119Y-64242907D01*
X123308121Y-64242909D01*
X123308122Y-64242911D01*
X123400488Y-64349507D01*
X123400490Y-64349508D01*
X123400489Y-64349508D01*
X123519145Y-64425764D01*
X123654474Y-64465499D01*
X123654476Y-64465500D01*
X123654477Y-64465500D01*
X123795524Y-64465500D01*
X123795524Y-64465499D01*
X123930853Y-64425764D01*
X123930854Y-64425764D01*
X123932809Y-64424508D01*
X124049512Y-64349507D01*
X124104618Y-64285910D01*
X124163396Y-64248136D01*
X124233265Y-64248136D01*
X124292042Y-64285909D01*
X124325488Y-64324507D01*
X124325490Y-64324508D01*
X124325489Y-64324508D01*
X124444145Y-64400764D01*
X124579474Y-64440499D01*
X124579476Y-64440500D01*
X124579477Y-64440500D01*
X124720524Y-64440500D01*
X124720524Y-64440499D01*
X124855853Y-64400764D01*
X124855854Y-64400764D01*
X124896711Y-64374507D01*
X124974512Y-64324507D01*
X125066878Y-64217911D01*
X125125471Y-64089611D01*
X125138355Y-64000000D01*
X125704456Y-64000000D01*
X125724528Y-64139606D01*
X125724530Y-64139614D01*
X125783119Y-64267907D01*
X125783121Y-64267909D01*
X125783122Y-64267911D01*
X125875488Y-64374507D01*
X125875490Y-64374508D01*
X125875489Y-64374508D01*
X125994145Y-64450764D01*
X126129474Y-64490499D01*
X126129476Y-64490500D01*
X126129477Y-64490500D01*
X126270524Y-64490500D01*
X126270524Y-64490499D01*
X126405853Y-64450764D01*
X126405854Y-64450764D01*
X126421825Y-64440500D01*
X126524512Y-64374507D01*
X126534625Y-64362835D01*
X126593401Y-64325062D01*
X126663271Y-64325062D01*
X126722048Y-64362834D01*
X126729306Y-64371210D01*
X126775489Y-64424508D01*
X126894145Y-64500764D01*
X127029474Y-64540499D01*
X127029476Y-64540500D01*
X127029477Y-64540500D01*
X127170524Y-64540500D01*
X127170524Y-64540499D01*
X127305853Y-64500764D01*
X127305854Y-64500764D01*
X127345166Y-64475500D01*
X127424512Y-64424507D01*
X127516878Y-64317911D01*
X127575471Y-64189611D01*
X127595544Y-64050000D01*
X128604456Y-64050000D01*
X128624528Y-64189606D01*
X128624530Y-64189614D01*
X128683119Y-64317907D01*
X128683121Y-64317909D01*
X128683122Y-64317911D01*
X128775488Y-64424507D01*
X128775490Y-64424508D01*
X128775489Y-64424508D01*
X128894145Y-64500764D01*
X129029474Y-64540499D01*
X129029476Y-64540500D01*
X129029477Y-64540500D01*
X129170524Y-64540500D01*
X129170524Y-64540499D01*
X129305853Y-64500764D01*
X129305854Y-64500764D01*
X129321825Y-64490500D01*
X129424512Y-64424507D01*
X129434625Y-64412835D01*
X129493401Y-64375062D01*
X129563271Y-64375062D01*
X129622048Y-64412834D01*
X129675486Y-64474505D01*
X129675489Y-64474508D01*
X129794145Y-64550764D01*
X129929474Y-64590499D01*
X129929476Y-64590500D01*
X129929477Y-64590500D01*
X130070524Y-64590500D01*
X130070524Y-64590499D01*
X130205853Y-64550764D01*
X130205854Y-64550764D01*
X130242815Y-64527011D01*
X130324512Y-64474507D01*
X130381287Y-64408984D01*
X130440065Y-64371210D01*
X130509935Y-64371210D01*
X130568710Y-64408982D01*
X130568713Y-64408985D01*
X130625486Y-64474505D01*
X130625489Y-64474508D01*
X130744145Y-64550764D01*
X130879474Y-64590499D01*
X130879476Y-64590500D01*
X130879477Y-64590500D01*
X131020524Y-64590500D01*
X131020524Y-64590499D01*
X131155853Y-64550764D01*
X131155854Y-64550764D01*
X131192815Y-64527011D01*
X131274512Y-64474507D01*
X131366878Y-64367911D01*
X131425471Y-64239611D01*
X131445544Y-64100000D01*
X131425471Y-63960389D01*
X131412831Y-63932711D01*
X131366880Y-63832092D01*
X131366878Y-63832090D01*
X131366878Y-63832089D01*
X131274512Y-63725493D01*
X131274509Y-63725491D01*
X131274510Y-63725491D01*
X131155854Y-63649235D01*
X131020525Y-63609500D01*
X131020523Y-63609500D01*
X130879477Y-63609500D01*
X130879474Y-63609500D01*
X130744146Y-63649235D01*
X130744145Y-63649235D01*
X130625489Y-63725491D01*
X130568713Y-63791015D01*
X130509934Y-63828789D01*
X130440065Y-63828789D01*
X130381287Y-63791015D01*
X130367354Y-63774935D01*
X130324512Y-63725493D01*
X130324511Y-63725492D01*
X130324510Y-63725491D01*
X130205854Y-63649235D01*
X130070525Y-63609500D01*
X130070523Y-63609500D01*
X129929477Y-63609500D01*
X129929474Y-63609500D01*
X129794146Y-63649235D01*
X129794145Y-63649235D01*
X129675489Y-63725491D01*
X129675485Y-63725495D01*
X129665371Y-63737167D01*
X129606591Y-63774939D01*
X129536721Y-63774935D01*
X129477949Y-63737163D01*
X129473555Y-63732092D01*
X129424512Y-63675493D01*
X129424509Y-63675491D01*
X129424510Y-63675491D01*
X129305854Y-63599235D01*
X129170525Y-63559500D01*
X129170523Y-63559500D01*
X129029477Y-63559500D01*
X129029474Y-63559500D01*
X128894146Y-63599235D01*
X128894145Y-63599235D01*
X128775489Y-63675491D01*
X128683122Y-63782089D01*
X128683119Y-63782092D01*
X128624530Y-63910385D01*
X128624528Y-63910393D01*
X128604456Y-64050000D01*
X127595544Y-64050000D01*
X127575471Y-63910389D01*
X127561417Y-63879615D01*
X127516880Y-63782092D01*
X127516878Y-63782090D01*
X127516878Y-63782089D01*
X127424512Y-63675493D01*
X127424509Y-63675491D01*
X127424510Y-63675491D01*
X127305854Y-63599235D01*
X127170525Y-63559500D01*
X127170523Y-63559500D01*
X127029477Y-63559500D01*
X127029474Y-63559500D01*
X126894146Y-63599235D01*
X126894145Y-63599235D01*
X126775489Y-63675491D01*
X126775485Y-63675495D01*
X126765371Y-63687167D01*
X126706591Y-63724939D01*
X126636721Y-63724935D01*
X126577949Y-63687163D01*
X126573555Y-63682092D01*
X126524512Y-63625493D01*
X126524509Y-63625491D01*
X126524510Y-63625491D01*
X126405854Y-63549235D01*
X126270525Y-63509500D01*
X126270523Y-63509500D01*
X126129477Y-63509500D01*
X126129474Y-63509500D01*
X125994146Y-63549235D01*
X125994145Y-63549235D01*
X125875489Y-63625491D01*
X125783122Y-63732089D01*
X125783119Y-63732092D01*
X125724530Y-63860385D01*
X125724528Y-63860393D01*
X125704456Y-64000000D01*
X125138355Y-64000000D01*
X125145544Y-63950000D01*
X125125471Y-63810389D01*
X125109280Y-63774935D01*
X125066880Y-63682092D01*
X125066878Y-63682090D01*
X125066878Y-63682089D01*
X124974512Y-63575493D01*
X124974509Y-63575491D01*
X124974510Y-63575491D01*
X124855854Y-63499235D01*
X124720525Y-63459500D01*
X124720523Y-63459500D01*
X124579477Y-63459500D01*
X124579474Y-63459500D01*
X124444146Y-63499235D01*
X124444145Y-63499235D01*
X124325489Y-63575491D01*
X124325489Y-63575492D01*
X124270380Y-63639090D01*
X124211601Y-63676864D01*
X124141732Y-63676863D01*
X124082956Y-63639089D01*
X124049512Y-63600493D01*
X124049509Y-63600491D01*
X124049510Y-63600491D01*
X123930854Y-63524235D01*
X123795525Y-63484500D01*
X123795523Y-63484500D01*
X123654477Y-63484500D01*
X123654474Y-63484500D01*
X123519146Y-63524235D01*
X123519145Y-63524235D01*
X123400489Y-63600491D01*
X123308122Y-63707089D01*
X123308119Y-63707092D01*
X123249530Y-63835385D01*
X123249528Y-63835393D01*
X123229456Y-63975000D01*
X112513000Y-63975000D01*
X112513000Y-62000001D01*
X114657032Y-62000001D01*
X114676864Y-62226686D01*
X114676866Y-62226697D01*
X114735758Y-62446488D01*
X114735761Y-62446497D01*
X114831931Y-62652732D01*
X114831932Y-62652734D01*
X114962454Y-62839141D01*
X115123358Y-63000045D01*
X115123361Y-63000047D01*
X115309766Y-63130568D01*
X115516004Y-63226739D01*
X115735808Y-63285635D01*
X115897730Y-63299801D01*
X115962498Y-63305468D01*
X115962500Y-63305468D01*
X115962502Y-63305468D01*
X116019173Y-63300509D01*
X116189192Y-63285635D01*
X116408996Y-63226739D01*
X116615234Y-63130568D01*
X116801639Y-63000047D01*
X116962547Y-62839139D01*
X117093068Y-62652734D01*
X117189239Y-62446496D01*
X117248135Y-62226692D01*
X117267968Y-62000000D01*
X117248135Y-61773308D01*
X117189239Y-61553504D01*
X117093068Y-61347266D01*
X116962547Y-61160861D01*
X116962545Y-61160858D01*
X116801641Y-60999954D01*
X116615234Y-60869432D01*
X116615232Y-60869431D01*
X116573563Y-60850000D01*
X120504456Y-60850000D01*
X120524528Y-60989606D01*
X120524530Y-60989614D01*
X120583119Y-61117907D01*
X120583121Y-61117909D01*
X120583122Y-61117911D01*
X120675488Y-61224507D01*
X120675490Y-61224508D01*
X120675489Y-61224508D01*
X120794145Y-61300764D01*
X120929474Y-61340499D01*
X120929476Y-61340500D01*
X120929477Y-61340500D01*
X121070524Y-61340500D01*
X121070524Y-61340499D01*
X121205853Y-61300764D01*
X121205854Y-61300764D01*
X121324510Y-61224508D01*
X121324509Y-61224508D01*
X121324512Y-61224507D01*
X121416878Y-61117911D01*
X121475471Y-60989611D01*
X121495544Y-60850000D01*
X121475471Y-60710389D01*
X121462831Y-60682711D01*
X121416880Y-60582092D01*
X121416878Y-60582090D01*
X121416878Y-60582089D01*
X121324512Y-60475493D01*
X121324509Y-60475491D01*
X121324510Y-60475491D01*
X121205854Y-60399235D01*
X121070525Y-60359500D01*
X121070523Y-60359500D01*
X120929477Y-60359500D01*
X120929474Y-60359500D01*
X120794146Y-60399235D01*
X120794145Y-60399235D01*
X120675489Y-60475491D01*
X120583122Y-60582089D01*
X120583119Y-60582092D01*
X120524530Y-60710385D01*
X120524528Y-60710393D01*
X120504456Y-60850000D01*
X116573563Y-60850000D01*
X116408997Y-60773261D01*
X116408988Y-60773258D01*
X116189197Y-60714366D01*
X116189193Y-60714365D01*
X116189192Y-60714365D01*
X116189191Y-60714364D01*
X116189186Y-60714364D01*
X115962502Y-60694532D01*
X115962498Y-60694532D01*
X115735813Y-60714364D01*
X115735802Y-60714366D01*
X115516011Y-60773258D01*
X115516002Y-60773261D01*
X115309767Y-60869431D01*
X115309765Y-60869432D01*
X115123358Y-60999954D01*
X114962454Y-61160858D01*
X114831932Y-61347265D01*
X114831931Y-61347267D01*
X114735761Y-61553502D01*
X114735758Y-61553511D01*
X114676866Y-61773302D01*
X114676864Y-61773313D01*
X114657032Y-61999998D01*
X114657032Y-62000001D01*
X112513000Y-62000001D01*
X112513000Y-57850000D01*
X113054707Y-57850000D01*
X113073830Y-58044169D01*
X113130471Y-58230888D01*
X113222440Y-58402949D01*
X113222444Y-58402956D01*
X113346221Y-58553778D01*
X113497043Y-58677555D01*
X113497050Y-58677559D01*
X113669111Y-58769528D01*
X113669114Y-58769528D01*
X113669118Y-58769531D01*
X113855828Y-58826169D01*
X114050000Y-58845293D01*
X114244172Y-58826169D01*
X114430882Y-58769531D01*
X114602955Y-58677556D01*
X114753778Y-58553778D01*
X114877556Y-58402955D01*
X114969531Y-58230882D01*
X115026169Y-58044172D01*
X115045293Y-57850000D01*
X127554707Y-57850000D01*
X127573830Y-58044169D01*
X127630471Y-58230888D01*
X127722440Y-58402949D01*
X127722444Y-58402956D01*
X127846221Y-58553778D01*
X127997043Y-58677555D01*
X127997050Y-58677559D01*
X128169111Y-58769528D01*
X128169114Y-58769528D01*
X128169118Y-58769531D01*
X128355828Y-58826169D01*
X128550000Y-58845293D01*
X128744172Y-58826169D01*
X128930882Y-58769531D01*
X129102955Y-58677556D01*
X129253778Y-58553778D01*
X129377556Y-58402955D01*
X129469531Y-58230882D01*
X129526169Y-58044172D01*
X129545293Y-57850000D01*
X129526169Y-57655828D01*
X129469531Y-57469118D01*
X129469528Y-57469114D01*
X129469528Y-57469111D01*
X129377559Y-57297050D01*
X129377555Y-57297043D01*
X129253778Y-57146221D01*
X129102956Y-57022444D01*
X129102949Y-57022440D01*
X128930888Y-56930471D01*
X128930882Y-56930469D01*
X128744172Y-56873831D01*
X128744169Y-56873830D01*
X128550000Y-56854707D01*
X128355830Y-56873830D01*
X128169111Y-56930471D01*
X127997050Y-57022440D01*
X127997043Y-57022444D01*
X127846221Y-57146221D01*
X127722444Y-57297043D01*
X127722440Y-57297050D01*
X127630471Y-57469111D01*
X127573830Y-57655830D01*
X127554707Y-57850000D01*
X115045293Y-57850000D01*
X115026169Y-57655828D01*
X114969531Y-57469118D01*
X114969528Y-57469114D01*
X114969528Y-57469111D01*
X114877559Y-57297050D01*
X114877555Y-57297043D01*
X114753778Y-57146221D01*
X114602956Y-57022444D01*
X114602949Y-57022440D01*
X114430888Y-56930471D01*
X114430882Y-56930469D01*
X114244172Y-56873831D01*
X114244169Y-56873830D01*
X114050000Y-56854707D01*
X113855830Y-56873830D01*
X113669111Y-56930471D01*
X113497050Y-57022440D01*
X113497043Y-57022444D01*
X113346221Y-57146221D01*
X113222444Y-57297043D01*
X113222440Y-57297050D01*
X113130471Y-57469111D01*
X113073830Y-57655830D01*
X113054707Y-57850000D01*
X112513000Y-57850000D01*
X112513000Y-53716153D01*
X112532685Y-53649114D01*
X112585489Y-53603359D01*
X112654647Y-53593415D01*
X112718203Y-53622440D01*
X112732854Y-53637489D01*
X112746222Y-53653779D01*
X112897043Y-53777555D01*
X112897050Y-53777559D01*
X113069111Y-53869528D01*
X113069114Y-53869528D01*
X113069118Y-53869531D01*
X113255828Y-53926169D01*
X113450000Y-53945293D01*
X113644172Y-53926169D01*
X113830882Y-53869531D01*
X114002955Y-53777556D01*
X114153778Y-53653778D01*
X114277556Y-53502955D01*
X114369531Y-53330882D01*
X114426169Y-53144172D01*
X114445293Y-52950000D01*
X128154707Y-52950000D01*
X128173830Y-53144169D01*
X128230471Y-53330888D01*
X128322440Y-53502949D01*
X128322444Y-53502956D01*
X128446221Y-53653778D01*
X128597043Y-53777555D01*
X128597050Y-53777559D01*
X128769111Y-53869528D01*
X128769114Y-53869528D01*
X128769118Y-53869531D01*
X128955828Y-53926169D01*
X129150000Y-53945293D01*
X129344172Y-53926169D01*
X129530882Y-53869531D01*
X129702955Y-53777556D01*
X129853778Y-53653778D01*
X129977556Y-53502955D01*
X130069531Y-53330882D01*
X130126169Y-53144172D01*
X130145293Y-52950000D01*
X130126169Y-52755828D01*
X130069531Y-52569118D01*
X130069528Y-52569114D01*
X130069528Y-52569111D01*
X129977559Y-52397050D01*
X129977555Y-52397043D01*
X129853778Y-52246221D01*
X129702956Y-52122444D01*
X129702949Y-52122440D01*
X129530888Y-52030471D01*
X129530882Y-52030469D01*
X129344172Y-51973831D01*
X129344169Y-51973830D01*
X129150000Y-51954707D01*
X128955830Y-51973830D01*
X128769111Y-52030471D01*
X128597050Y-52122440D01*
X128597043Y-52122444D01*
X128446221Y-52246221D01*
X128322444Y-52397043D01*
X128322440Y-52397050D01*
X128230471Y-52569111D01*
X128173830Y-52755830D01*
X128154707Y-52950000D01*
X114445293Y-52950000D01*
X114426169Y-52755828D01*
X114369531Y-52569118D01*
X114369528Y-52569114D01*
X114369528Y-52569111D01*
X114277559Y-52397050D01*
X114277555Y-52397043D01*
X114153778Y-52246221D01*
X114002956Y-52122444D01*
X114002949Y-52122440D01*
X113830888Y-52030471D01*
X113830882Y-52030469D01*
X113644172Y-51973831D01*
X113644169Y-51973830D01*
X113450000Y-51954707D01*
X113255830Y-51973830D01*
X113069111Y-52030471D01*
X112897050Y-52122440D01*
X112897043Y-52122444D01*
X112746220Y-52246222D01*
X112732852Y-52262512D01*
X112675106Y-52301846D01*
X112605262Y-52303715D01*
X112545494Y-52267527D01*
X112514778Y-52204771D01*
X112513000Y-52183846D01*
X112513000Y-49524500D01*
X112532685Y-49457461D01*
X112585489Y-49411706D01*
X112637000Y-49400500D01*
X131575500Y-49400500D01*
X131642539Y-49420185D01*
G37*
%TD.AperFunction*%
%TD*%
M02*
