%TF.GenerationSoftware,KiCad,Pcbnew,7.0.11-7.0.11~ubuntu22.04.1*%
%TF.CreationDate,2024-06-30T10:09:10-03:00*%
%TF.ProjectId,Pico_GG_LCD,5069636f-5f47-4475-9f4c-43442e6b6963,rev?*%
%TF.SameCoordinates,Original*%
%TF.FileFunction,Paste,Top*%
%TF.FilePolarity,Positive*%
%FSLAX46Y46*%
G04 Gerber Fmt 4.6, Leading zero omitted, Abs format (unit mm)*
G04 Created by KiCad (PCBNEW 7.0.11-7.0.11~ubuntu22.04.1) date 2024-06-30 10:09:10*
%MOMM*%
%LPD*%
G01*
G04 APERTURE LIST*
G04 Aperture macros list*
%AMRoundRect*
0 Rectangle with rounded corners*
0 $1 Rounding radius*
0 $2 $3 $4 $5 $6 $7 $8 $9 X,Y pos of 4 corners*
0 Add a 4 corners polygon primitive as box body*
4,1,4,$2,$3,$4,$5,$6,$7,$8,$9,$2,$3,0*
0 Add four circle primitives for the rounded corners*
1,1,$1+$1,$2,$3*
1,1,$1+$1,$4,$5*
1,1,$1+$1,$6,$7*
1,1,$1+$1,$8,$9*
0 Add four rect primitives between the rounded corners*
20,1,$1+$1,$2,$3,$4,$5,0*
20,1,$1+$1,$4,$5,$6,$7,0*
20,1,$1+$1,$6,$7,$8,$9,0*
20,1,$1+$1,$8,$9,$2,$3,0*%
G04 Aperture macros list end*
%ADD10RoundRect,0.250000X-0.475000X0.337500X-0.475000X-0.337500X0.475000X-0.337500X0.475000X0.337500X0*%
%ADD11RoundRect,0.200000X0.275000X-0.200000X0.275000X0.200000X-0.275000X0.200000X-0.275000X-0.200000X0*%
%ADD12RoundRect,0.225000X-0.250000X0.225000X-0.250000X-0.225000X0.250000X-0.225000X0.250000X0.225000X0*%
%ADD13RoundRect,0.250000X-0.350000X-0.450000X0.350000X-0.450000X0.350000X0.450000X-0.350000X0.450000X0*%
%ADD14RoundRect,0.200000X-0.200000X-0.275000X0.200000X-0.275000X0.200000X0.275000X-0.200000X0.275000X0*%
%ADD15R,1.500000X2.000000*%
%ADD16R,3.800000X2.000000*%
%ADD17RoundRect,0.250000X0.475000X-0.337500X0.475000X0.337500X-0.475000X0.337500X-0.475000X-0.337500X0*%
%ADD18RoundRect,0.100000X0.637500X0.100000X-0.637500X0.100000X-0.637500X-0.100000X0.637500X-0.100000X0*%
%ADD19RoundRect,0.200000X-0.275000X0.200000X-0.275000X-0.200000X0.275000X-0.200000X0.275000X0.200000X0*%
%ADD20RoundRect,0.250000X-0.337500X-0.475000X0.337500X-0.475000X0.337500X0.475000X-0.337500X0.475000X0*%
%ADD21RoundRect,0.250000X-0.350000X0.275000X-0.350000X-0.275000X0.350000X-0.275000X0.350000X0.275000X0*%
%ADD22R,0.300000X1.900000*%
%ADD23RoundRect,0.200000X0.200000X0.275000X-0.200000X0.275000X-0.200000X-0.275000X0.200000X-0.275000X0*%
%ADD24RoundRect,0.250000X-0.574524X-0.097227X-0.097227X-0.574524X0.574524X0.097227X0.097227X0.574524X0*%
%ADD25RoundRect,0.250000X0.413257X0.000000X0.000000X0.413257X-0.413257X0.000000X0.000000X-0.413257X0*%
%ADD26RoundRect,0.050000X0.309359X-0.238649X-0.238649X0.309359X-0.309359X0.238649X0.238649X-0.309359X0*%
%ADD27RoundRect,0.050000X0.309359X0.238649X0.238649X0.309359X-0.309359X-0.238649X-0.238649X-0.309359X0*%
%ADD28RoundRect,0.225000X-0.225000X-0.375000X0.225000X-0.375000X0.225000X0.375000X-0.225000X0.375000X0*%
%ADD29RoundRect,0.150000X-0.150000X0.587500X-0.150000X-0.587500X0.150000X-0.587500X0.150000X0.587500X0*%
%ADD30R,1.240000X0.600000*%
%ADD31R,1.240000X0.300000*%
%ADD32RoundRect,0.225000X0.225000X0.250000X-0.225000X0.250000X-0.225000X-0.250000X0.225000X-0.250000X0*%
%ADD33RoundRect,0.150000X0.650000X0.150000X-0.650000X0.150000X-0.650000X-0.150000X0.650000X-0.150000X0*%
%ADD34RoundRect,0.250000X0.337500X0.475000X-0.337500X0.475000X-0.337500X-0.475000X0.337500X-0.475000X0*%
%ADD35RoundRect,0.250000X0.450000X-0.350000X0.450000X0.350000X-0.450000X0.350000X-0.450000X-0.350000X0*%
%ADD36RoundRect,0.112500X0.112500X-0.187500X0.112500X0.187500X-0.112500X0.187500X-0.112500X-0.187500X0*%
%ADD37RoundRect,0.150000X0.825000X0.150000X-0.825000X0.150000X-0.825000X-0.150000X0.825000X-0.150000X0*%
%ADD38RoundRect,0.225000X-0.225000X-0.250000X0.225000X-0.250000X0.225000X0.250000X-0.225000X0.250000X0*%
%ADD39R,1.200000X1.400000*%
%ADD40R,1.800000X2.200000*%
%ADD41R,0.300000X1.250000*%
%ADD42RoundRect,0.250000X-0.450000X0.350000X-0.450000X-0.350000X0.450000X-0.350000X0.450000X0.350000X0*%
G04 APERTURE END LIST*
D10*
%TO.C,C11*%
X140050000Y-112525000D03*
X140050000Y-114600000D03*
%TD*%
D11*
%TO.C,R1*%
X162400000Y-84125000D03*
X162400000Y-82475000D03*
%TD*%
D12*
%TO.C,C19*%
X153107008Y-79688363D03*
X153107008Y-81238363D03*
%TD*%
D13*
%TO.C,R6*%
X128200000Y-75240000D03*
X130200000Y-75240000D03*
%TD*%
D14*
%TO.C,R10*%
X150025000Y-101450000D03*
X151675000Y-101450000D03*
%TD*%
D11*
%TO.C,R11*%
X150100000Y-99950000D03*
X150100000Y-98300000D03*
%TD*%
D15*
%TO.C,U3*%
X174900000Y-106450000D03*
X172600000Y-106450000D03*
D16*
X172600000Y-112750000D03*
D15*
X170300000Y-106450000D03*
%TD*%
D17*
%TO.C,C12*%
X159950000Y-114700000D03*
X159950000Y-112625000D03*
%TD*%
D18*
%TO.C,U1*%
X167050000Y-92650000D03*
X167050000Y-92000000D03*
X167050000Y-91350000D03*
X167050000Y-90700000D03*
X167050000Y-90050000D03*
X167050000Y-89400000D03*
X167050000Y-88750000D03*
X167050000Y-88100000D03*
X167050000Y-87450000D03*
X167050000Y-86800000D03*
X161325000Y-86800000D03*
X161325000Y-87450000D03*
X161325000Y-88100000D03*
X161325000Y-88750000D03*
X161325000Y-89400000D03*
X161325000Y-90050000D03*
X161325000Y-90700000D03*
X161325000Y-91350000D03*
X161325000Y-92000000D03*
X161325000Y-92650000D03*
%TD*%
D11*
%TO.C,R3*%
X169450000Y-73900000D03*
X169450000Y-72250000D03*
%TD*%
D19*
%TO.C,R7*%
X173950000Y-95300000D03*
X173950000Y-96950000D03*
%TD*%
D20*
%TO.C,C4*%
X165150000Y-82900000D03*
X167225000Y-82900000D03*
%TD*%
D21*
%TO.C,L1*%
X124300000Y-82640000D03*
X124300000Y-84940000D03*
%TD*%
D20*
%TO.C,C31*%
X144007008Y-80888363D03*
X146082008Y-80888363D03*
%TD*%
D18*
%TO.C,U4*%
X175850000Y-81650000D03*
X175850000Y-81000000D03*
X175850000Y-80350000D03*
X175850000Y-79700000D03*
X175850000Y-79050000D03*
X175850000Y-78400000D03*
X175850000Y-77750000D03*
X175850000Y-77100000D03*
X175850000Y-76450000D03*
X175850000Y-75800000D03*
X170125000Y-75800000D03*
X170125000Y-76450000D03*
X170125000Y-77100000D03*
X170125000Y-77750000D03*
X170125000Y-78400000D03*
X170125000Y-79050000D03*
X170125000Y-79700000D03*
X170125000Y-80350000D03*
X170125000Y-81000000D03*
X170125000Y-81650000D03*
%TD*%
D22*
%TO.C,J9*%
X116550000Y-58850000D03*
X117050000Y-58850000D03*
X117550000Y-58850000D03*
X118050000Y-58850000D03*
X118550000Y-58850000D03*
X119050000Y-58850000D03*
X119550000Y-58850000D03*
X120050000Y-58850000D03*
X120550000Y-58850000D03*
X121050000Y-58850000D03*
X121550000Y-58850000D03*
X122050000Y-58850000D03*
X122550000Y-58850000D03*
X123050000Y-58850000D03*
X123550000Y-58850000D03*
X124050000Y-58850000D03*
X124550000Y-58850000D03*
X125050000Y-58850000D03*
X125550000Y-58850000D03*
%TD*%
D12*
%TO.C,C5*%
X149357008Y-75438363D03*
X149357008Y-76988363D03*
%TD*%
D23*
%TO.C,R14*%
X146300000Y-76850000D03*
X144650000Y-76850000D03*
%TD*%
D24*
%TO.C,C22*%
X151250000Y-91100000D03*
X152717246Y-92567246D03*
%TD*%
D11*
%TO.C,R4*%
X160500000Y-84125000D03*
X160500000Y-82475000D03*
%TD*%
D25*
%TO.C,U7*%
X145575814Y-88861280D03*
X146477375Y-87959719D03*
X144674253Y-87959719D03*
X145575814Y-87058158D03*
D26*
X146168016Y-92228876D03*
X146450859Y-91946033D03*
X146733701Y-91663191D03*
X147016544Y-91380348D03*
X147299387Y-91097505D03*
X147582229Y-90814663D03*
X147865072Y-90531820D03*
X148147915Y-90248977D03*
X148430758Y-89966134D03*
X148713600Y-89683292D03*
X148996443Y-89400449D03*
X149279286Y-89117606D03*
X149562128Y-88834764D03*
X149844971Y-88551921D03*
D27*
X149844971Y-87367517D03*
X149562128Y-87084674D03*
X149279286Y-86801832D03*
X148996443Y-86518989D03*
X148713600Y-86236146D03*
X148430758Y-85953304D03*
X148147915Y-85670461D03*
X147865072Y-85387618D03*
X147582229Y-85104775D03*
X147299387Y-84821933D03*
X147016544Y-84539090D03*
X146733701Y-84256247D03*
X146450859Y-83973405D03*
X146168016Y-83690562D03*
D26*
X144983612Y-83690562D03*
X144700769Y-83973405D03*
X144417927Y-84256247D03*
X144135084Y-84539090D03*
X143852241Y-84821933D03*
X143569399Y-85104775D03*
X143286556Y-85387618D03*
X143003713Y-85670461D03*
X142720870Y-85953304D03*
X142438028Y-86236146D03*
X142155185Y-86518989D03*
X141872342Y-86801832D03*
X141589500Y-87084674D03*
X141306657Y-87367517D03*
D27*
X141306657Y-88551921D03*
X141589500Y-88834764D03*
X141872342Y-89117606D03*
X142155185Y-89400449D03*
X142438028Y-89683292D03*
X142720870Y-89966134D03*
X143003713Y-90248977D03*
X143286556Y-90531820D03*
X143569399Y-90814663D03*
X143852241Y-91097505D03*
X144135084Y-91380348D03*
X144417927Y-91663191D03*
X144700769Y-91946033D03*
X144983612Y-92228876D03*
%TD*%
D28*
%TO.C,D2*%
X123050000Y-103550000D03*
X126350000Y-103550000D03*
%TD*%
D10*
%TO.C,C10*%
X142150000Y-112525000D03*
X142150000Y-114600000D03*
%TD*%
%TO.C,C6*%
X133900000Y-75575000D03*
X133900000Y-77650000D03*
%TD*%
D20*
%TO.C,C32*%
X138469508Y-94688363D03*
X140544508Y-94688363D03*
%TD*%
D29*
%TO.C,Q3*%
X161150000Y-103000000D03*
X159250000Y-103000000D03*
X160200000Y-104875000D03*
%TD*%
D30*
%TO.C,P1*%
X127750000Y-92150000D03*
X127750000Y-92950000D03*
D31*
X127750000Y-94100000D03*
X127750000Y-95100000D03*
X127750000Y-95600000D03*
X127750000Y-96600000D03*
D30*
X127750000Y-97750000D03*
X127750000Y-98550000D03*
X127750000Y-98550000D03*
X127750000Y-97750000D03*
D31*
X127750000Y-97100000D03*
X127750000Y-96100000D03*
X127750000Y-94600000D03*
X127750000Y-93600000D03*
D30*
X127750000Y-92950000D03*
X127750000Y-92150000D03*
%TD*%
D32*
%TO.C,C8*%
X167625000Y-106350000D03*
X166075000Y-106350000D03*
%TD*%
D33*
%TO.C,U5*%
X147007008Y-100695120D03*
X147007008Y-99425120D03*
X147007008Y-98155120D03*
X147007008Y-96885120D03*
X139807008Y-96885120D03*
X139807008Y-98155120D03*
X139807008Y-99425120D03*
X139807008Y-100695120D03*
%TD*%
D28*
%TO.C,D1*%
X176750000Y-103650000D03*
X180050000Y-103650000D03*
%TD*%
D34*
%TO.C,C25*%
X138707008Y-86188363D03*
X136632008Y-86188363D03*
%TD*%
D35*
%TO.C,R9*%
X122500000Y-79540000D03*
X122500000Y-77540000D03*
%TD*%
D17*
%TO.C,C24*%
X140550000Y-81087500D03*
X140550000Y-79012500D03*
%TD*%
D36*
%TO.C,D3*%
X133850000Y-81300000D03*
X133850000Y-79200000D03*
%TD*%
D35*
%TO.C,R8*%
X126250000Y-84840000D03*
X126250000Y-82840000D03*
%TD*%
D20*
%TO.C,C2*%
X173912500Y-73800000D03*
X175987500Y-73800000D03*
%TD*%
D11*
%TO.C,R17*%
X132090000Y-97675000D03*
X132090000Y-96025000D03*
%TD*%
D32*
%TO.C,C9*%
X168125000Y-113350000D03*
X166575000Y-113350000D03*
%TD*%
D37*
%TO.C,U2*%
X131500000Y-81040000D03*
X131500000Y-79770000D03*
X131500000Y-78500000D03*
X131500000Y-77230000D03*
X126550000Y-77230000D03*
X126550000Y-78500000D03*
X126550000Y-79770000D03*
X126550000Y-81040000D03*
%TD*%
D20*
%TO.C,C29*%
X138469508Y-92588363D03*
X140544508Y-92588363D03*
%TD*%
D19*
%TO.C,R16*%
X132090000Y-92825000D03*
X132090000Y-94475000D03*
%TD*%
D34*
%TO.C,C28*%
X138707008Y-90388363D03*
X136632008Y-90388363D03*
%TD*%
%TO.C,C26*%
X138707008Y-88288363D03*
X136632008Y-88288363D03*
%TD*%
D38*
%TO.C,C14*%
X142850000Y-102750000D03*
X144400000Y-102750000D03*
%TD*%
%TO.C,C7*%
X177075000Y-113350000D03*
X178625000Y-113350000D03*
%TD*%
D39*
%TO.C,Y2*%
X149507008Y-78888363D03*
X149507008Y-81088363D03*
X151207008Y-81088363D03*
X151207008Y-78888363D03*
%TD*%
D24*
%TO.C,C21*%
X148207008Y-93788363D03*
X149674254Y-95255609D03*
%TD*%
D10*
%TO.C,C13*%
X122500000Y-73565000D03*
X122500000Y-75640000D03*
%TD*%
D40*
%TO.C,J16*%
X162200000Y-108442858D03*
X131900000Y-108442858D03*
D41*
X160300000Y-110492857D03*
X159800000Y-110492857D03*
X159300000Y-110492857D03*
X158800000Y-110492857D03*
X158300000Y-110492857D03*
X157800000Y-110492857D03*
X157300000Y-110492857D03*
X156800000Y-110492857D03*
X156300000Y-110492857D03*
X155800000Y-110492857D03*
X155300000Y-110492857D03*
X154800000Y-110492857D03*
X154300000Y-110492857D03*
X153800000Y-110492857D03*
X153300000Y-110492857D03*
X152800000Y-110492857D03*
X152300000Y-110492857D03*
X151800000Y-110492857D03*
X151300000Y-110492857D03*
X150800000Y-110492857D03*
X150300000Y-110492857D03*
X149800000Y-110492857D03*
X149300000Y-110492857D03*
X148800000Y-110492857D03*
X148300000Y-110492857D03*
X147800000Y-110492857D03*
X147300000Y-110492857D03*
X146800000Y-110492857D03*
X146300000Y-110492857D03*
X145800000Y-110492857D03*
X145300000Y-110492857D03*
X144800000Y-110492857D03*
X144300000Y-110492857D03*
X143800000Y-110492857D03*
X143300000Y-110492857D03*
X142800000Y-110492857D03*
X142300000Y-110492857D03*
X141800000Y-110492857D03*
X141300000Y-110492857D03*
X140800000Y-110492857D03*
X140300000Y-110492857D03*
X139800000Y-110492857D03*
X139300000Y-110492857D03*
X138800000Y-110492857D03*
X138300000Y-110492857D03*
X137800000Y-110492857D03*
X137300000Y-110492857D03*
X136800000Y-110492857D03*
X136300000Y-110492857D03*
X135800000Y-110492857D03*
X135300000Y-110492857D03*
X134800000Y-110492857D03*
X134300000Y-110492857D03*
X133800000Y-110492857D03*
%TD*%
D19*
%TO.C,R18*%
X128590000Y-87275000D03*
X128590000Y-88925000D03*
%TD*%
D11*
%TO.C,R2*%
X171150000Y-73900000D03*
X171150000Y-72250000D03*
%TD*%
D20*
%TO.C,C1*%
X173912500Y-71700000D03*
X175987500Y-71700000D03*
%TD*%
D34*
%TO.C,C23*%
X146082008Y-78788363D03*
X144007008Y-78788363D03*
%TD*%
D42*
%TO.C,R5*%
X126300000Y-73340000D03*
X126300000Y-75340000D03*
%TD*%
D20*
%TO.C,C3*%
X165150000Y-85050000D03*
X167225000Y-85050000D03*
%TD*%
D14*
%TO.C,R13*%
X151032008Y-76988363D03*
X152682008Y-76988363D03*
%TD*%
D38*
%TO.C,C15*%
X142850000Y-104700000D03*
X144400000Y-104700000D03*
%TD*%
M02*
