%TF.GenerationSoftware,KiCad,Pcbnew,7.0.11-7.0.11~ubuntu22.04.1*%
%TF.CreationDate,2024-06-30T10:09:10-03:00*%
%TF.ProjectId,Pico_GG_LCD,5069636f-5f47-4475-9f4c-43442e6b6963,rev?*%
%TF.SameCoordinates,Original*%
%TF.FileFunction,Copper,L4,Bot*%
%TF.FilePolarity,Positive*%
%FSLAX46Y46*%
G04 Gerber Fmt 4.6, Leading zero omitted, Abs format (unit mm)*
G04 Created by KiCad (PCBNEW 7.0.11-7.0.11~ubuntu22.04.1) date 2024-06-30 10:09:10*
%MOMM*%
%LPD*%
G01*
G04 APERTURE LIST*
%TA.AperFunction,ComponentPad*%
%ADD10C,1.800000*%
%TD*%
%TA.AperFunction,ComponentPad*%
%ADD11C,0.800000*%
%TD*%
%TA.AperFunction,ComponentPad*%
%ADD12O,2.100000X1.000000*%
%TD*%
%TA.AperFunction,ComponentPad*%
%ADD13O,1.800000X1.000000*%
%TD*%
%TA.AperFunction,ComponentPad*%
%ADD14R,1.700000X1.700000*%
%TD*%
%TA.AperFunction,ComponentPad*%
%ADD15O,1.700000X1.700000*%
%TD*%
%TA.AperFunction,ViaPad*%
%ADD16C,0.800000*%
%TD*%
%TA.AperFunction,ViaPad*%
%ADD17C,1.000000*%
%TD*%
%TA.AperFunction,ViaPad*%
%ADD18C,0.600000*%
%TD*%
%TA.AperFunction,Conductor*%
%ADD19C,0.500000*%
%TD*%
%TA.AperFunction,Conductor*%
%ADD20C,0.200000*%
%TD*%
%TA.AperFunction,Conductor*%
%ADD21C,0.156500*%
%TD*%
%TA.AperFunction,Conductor*%
%ADD22C,0.146812*%
%TD*%
%TA.AperFunction,Conductor*%
%ADD23C,0.300000*%
%TD*%
G04 APERTURE END LIST*
D10*
%TO.P,J9,SH,SH*%
%TO.N,unconnected-(J9-PadSH)*%
X129150000Y-52950000D03*
X128550000Y-57850000D03*
X114050000Y-57850000D03*
X113450000Y-52950000D03*
%TD*%
D11*
%TO.P,U7,57,GND*%
%TO.N,GND*%
X145575814Y-89762841D03*
X146477375Y-88861280D03*
X147378936Y-87959719D03*
X144674253Y-88861280D03*
X145575814Y-87959719D03*
X146477375Y-87058158D03*
X143772692Y-87959719D03*
X144674253Y-87058158D03*
X145575814Y-86156597D03*
%TD*%
D12*
%TO.P,P1,S1,SHIELD*%
%TO.N,unconnected-(P1-SHIELD-PadS1)*%
X127150000Y-91030000D03*
D13*
X122950000Y-91030000D03*
D12*
X127150000Y-99680000D03*
D13*
X122950000Y-99680000D03*
%TD*%
D14*
%TO.P,J11,1,Pin_1*%
%TO.N,SWD*%
X169450000Y-97560000D03*
D15*
%TO.P,J11,2,Pin_2*%
%TO.N,GND*%
X169450000Y-100100000D03*
%TO.P,J11,3,Pin_3*%
%TO.N,SWCLK*%
X166910000Y-97560000D03*
%TO.P,J11,4,Pin_4*%
%TO.N,unconnected-(J11-Pin_4-Pad4)*%
X166910000Y-100100000D03*
%TO.P,J11,5,Pin_5*%
%TO.N,RUN*%
X164370000Y-97560000D03*
%TO.P,J11,6,Pin_6*%
%TO.N,Net-(J11-Pin_6)*%
X164370000Y-100100000D03*
%TD*%
D16*
%TO.N,GND*%
X145412533Y-97271716D03*
X168750000Y-83900000D03*
X130090000Y-92100000D03*
X176050000Y-70100000D03*
X124800000Y-73240000D03*
D17*
X178600000Y-112100000D03*
X174850000Y-108100000D03*
D16*
X123800000Y-56150000D03*
X125350000Y-56050000D03*
D18*
X153450000Y-93700000D03*
X152857008Y-78488363D03*
D17*
X166100000Y-104900000D03*
D16*
X136707008Y-94788363D03*
X135007008Y-90388363D03*
X125150000Y-71940000D03*
D18*
X129200000Y-79450000D03*
D16*
X177450000Y-71500000D03*
D18*
X139100000Y-79000000D03*
X140050000Y-113550000D03*
X148300000Y-109050000D03*
X134050000Y-111700000D03*
D16*
X130090000Y-98600000D03*
X137007008Y-93888363D03*
X122500000Y-71640000D03*
D17*
X176850000Y-106350000D03*
D18*
X129750000Y-80350000D03*
D17*
X166600000Y-112100000D03*
D16*
X144407008Y-100840912D03*
X135007008Y-88288363D03*
X144250000Y-114600000D03*
D18*
X150607008Y-75488363D03*
X153707008Y-78588363D03*
D16*
X184850000Y-79700000D03*
X157750000Y-103000000D03*
X184850000Y-77000000D03*
D18*
X161850000Y-114750000D03*
D16*
X124150000Y-74090000D03*
X135500000Y-74100000D03*
D18*
X158400000Y-114750000D03*
X138700000Y-114700000D03*
D16*
X159250000Y-101400000D03*
X188650000Y-78600000D03*
D18*
X150707008Y-96188363D03*
D16*
X168050000Y-72200000D03*
D18*
X148107008Y-79488363D03*
X136850000Y-112100000D03*
D16*
X134807008Y-86088363D03*
X145507008Y-103840912D03*
D18*
X143350000Y-72700000D03*
X133050000Y-110500000D03*
X128590000Y-85850000D03*
X151950000Y-109150000D03*
D16*
X167300000Y-81500000D03*
X160500000Y-81250000D03*
D18*
%TO.N,+3V3*%
X135800000Y-112100000D03*
D16*
X164050000Y-84400000D03*
X173750000Y-70200000D03*
D17*
X174350000Y-111100000D03*
D18*
X138700000Y-113400000D03*
D16*
X143400000Y-76850000D03*
D18*
X139907008Y-88888363D03*
D16*
X143750000Y-112600000D03*
D17*
X170850000Y-111100000D03*
D16*
X165150000Y-81250000D03*
X162400000Y-81250000D03*
X141207008Y-104840912D03*
D17*
X173600000Y-110100000D03*
D18*
X146507008Y-93888363D03*
D16*
X172450000Y-71100000D03*
D18*
X139907008Y-86988363D03*
D16*
X172450000Y-72800000D03*
D18*
X139150000Y-81000000D03*
D17*
X171600000Y-110100000D03*
D18*
X151950000Y-91900000D03*
X150007008Y-97240912D03*
X138600000Y-112600000D03*
X139907008Y-90588363D03*
D16*
X141207008Y-102840912D03*
%TO.N,Net-(D2-A)*%
X130090000Y-97150000D03*
X130090000Y-93150000D03*
D18*
%TO.N,FLASH_CLK*%
X142607008Y-93640912D03*
X141107008Y-97640912D03*
%TO.N,Net-(J13-Pin_1)*%
X168450000Y-90000000D03*
X169450000Y-88800000D03*
D16*
%TO.N,Net-(U7-USB_DP)*%
X133950000Y-92800000D03*
D18*
X132090000Y-91600000D03*
X141250000Y-90900000D03*
%TO.N,Net-(U7-USB_DM)*%
X141207008Y-90088363D03*
D16*
X135350000Y-93300000D03*
%TO.N,Net-(U1-A->B)*%
X164250000Y-90500000D03*
X165550000Y-92500000D03*
%TO.N,Net-(U4-A->B)*%
X173150000Y-78200000D03*
X174250000Y-81500000D03*
D18*
%TO.N,SWCLK*%
X155150000Y-85340912D03*
X146607008Y-85340912D03*
%TO.N,SWD*%
X154450000Y-84540912D03*
X145507008Y-84540912D03*
D16*
%TO.N,RUN*%
X147450000Y-76900000D03*
D18*
X147300000Y-81800000D03*
%TO.N,START_Pico*%
X139350000Y-84700000D03*
X157250000Y-87900000D03*
%TO.N,RIGHT_Pico*%
X141250000Y-84700000D03*
X156450000Y-88200000D03*
%TO.N,LEFT_Pico*%
X141450000Y-85500000D03*
X155550000Y-88400000D03*
%TO.N,SMS*%
X155850000Y-82400000D03*
X168050000Y-75000000D03*
%TO.N,DW*%
X143650000Y-83200000D03*
X144150000Y-69050000D03*
%TO.N,D04_Pico*%
X144900000Y-69950000D03*
X144250000Y-82650000D03*
%TO.N,D03_Pico*%
X145750000Y-70350000D03*
X145050000Y-82650000D03*
%TO.N,D02_Pico*%
X146550000Y-70750000D03*
X145850000Y-82800000D03*
%TO.N,D01_Pico*%
X146850000Y-71500000D03*
X146650000Y-82600000D03*
%TO.N,HDMI_D2+*%
X145550000Y-93000000D03*
D16*
X123725000Y-63975000D03*
D18*
%TO.N,Net-(J15-Pin_1)*%
X185050000Y-83400000D03*
X179350000Y-83700000D03*
%TO.N,RESET_Pico*%
X148550000Y-88400000D03*
X153350000Y-87300000D03*
%TO.N,+20V*%
X128250000Y-84500000D03*
X145750000Y-113300000D03*
D16*
X128300000Y-77190000D03*
D18*
%TO.N,LCD_D0*%
X150000000Y-103750000D03*
X145550000Y-108350000D03*
%TO.N,LCD_D1*%
X144750000Y-108150000D03*
X148850000Y-104250000D03*
%TO.N,LCD_D2*%
X147100000Y-104350000D03*
X143900000Y-108150000D03*
%TO.N,LCD_Backlight*%
X151050000Y-88600000D03*
X161150000Y-101000000D03*
%TO.N,LCD_RST*%
X154350000Y-90700000D03*
X151550000Y-87900000D03*
X156800000Y-109200000D03*
%TO.N,LCD_CLK*%
X155500000Y-103550000D03*
X141750000Y-107200000D03*
%TO.N,LCD_DEN*%
X155950000Y-101950000D03*
X134950000Y-105250000D03*
D16*
%TO.N,HDMI_D2-*%
X124650000Y-63950000D03*
D18*
X145850000Y-91200000D03*
D16*
%TO.N,HDMI_D1+*%
X126200000Y-64000000D03*
D18*
X147350000Y-92600000D03*
D16*
%TO.N,Net-(J1-Pin_1)*%
X179140000Y-81000000D03*
X184150000Y-81000000D03*
%TO.N,Net-(J5-Pin_1)*%
X177450000Y-78460000D03*
X177450000Y-100900000D03*
%TO.N,Net-(J6-Pin_1)*%
X178550000Y-77700000D03*
X178550000Y-108500000D03*
%TO.N,HDMI_D1-*%
X127100000Y-64050000D03*
D18*
X148050000Y-92100000D03*
%TO.N,HDMI_D0+*%
X139150000Y-83700000D03*
D16*
X129100000Y-64050000D03*
D18*
%TO.N,Net-(J19-Pin_1)*%
X140050000Y-85600000D03*
X158550000Y-91300000D03*
%TO.N,HDMI_D0-*%
X139950000Y-84100000D03*
D16*
X121000000Y-60850000D03*
D18*
%TO.N,HDMI_CLK+*%
X148850000Y-92100000D03*
D16*
X130000000Y-64100000D03*
D18*
%TO.N,HDMI_CLK-*%
X149050000Y-91100000D03*
D16*
X130950000Y-64100000D03*
%TO.N,Net-(J11-Pin_6)*%
X153000000Y-100050000D03*
%TD*%
D19*
%TO.N,GND*%
X144407008Y-98277241D02*
X145412533Y-97271716D01*
X144407008Y-100840912D02*
X144407008Y-98277241D01*
D20*
X137007008Y-93988363D02*
X137007008Y-93888363D01*
D19*
%TO.N,Net-(D2-A)*%
X130090000Y-93150000D02*
X130090000Y-97150000D01*
D21*
%TO.N,FLASH_CLK*%
X142607008Y-93640912D02*
X141107008Y-95140912D01*
X141107008Y-95140912D02*
X141107008Y-97640912D01*
D20*
%TO.N,Net-(J13-Pin_1)*%
X169450000Y-89000000D02*
X168450000Y-90000000D01*
X169450000Y-88800000D02*
X169450000Y-89000000D01*
%TO.N,Net-(U7-USB_DP)*%
X133950000Y-92865742D02*
X133950000Y-92800000D01*
X141250000Y-90900000D02*
X141250000Y-91540000D01*
X137411637Y-95378363D02*
X136462621Y-95378363D01*
X141250000Y-91540000D02*
X137411637Y-95378363D01*
X136462621Y-95378363D02*
X133950000Y-92865742D01*
%TO.N,Net-(U7-USB_DM)*%
X135351637Y-93298363D02*
X135350000Y-93300000D01*
X141207008Y-90088363D02*
X137997008Y-93298363D01*
X136762621Y-93298363D02*
X135351637Y-93298363D01*
X137997008Y-93298363D02*
X136762621Y-93298363D01*
%TO.N,Net-(U1-A->B)*%
X164250000Y-91200000D02*
X165550000Y-92500000D01*
X164250000Y-90500000D02*
X164250000Y-91200000D01*
%TO.N,Net-(U4-A->B)*%
X173150000Y-78200000D02*
X173150000Y-80400000D01*
X173150000Y-80400000D02*
X174250000Y-81500000D01*
D22*
%TO.N,SWCLK*%
X146607008Y-85340912D02*
X155150000Y-85340912D01*
%TO.N,SWD*%
X145507008Y-84540912D02*
X154450000Y-84540912D01*
%TO.N,RUN*%
X159550000Y-92740000D02*
X159550000Y-88000000D01*
X153850000Y-82300000D02*
X147800000Y-82300000D01*
X147450000Y-81450000D02*
X147450000Y-81650000D01*
X147450000Y-81545371D02*
X147450000Y-81450000D01*
X147450000Y-81650000D02*
X147300000Y-81800000D01*
X147800000Y-82300000D02*
X147300000Y-81800000D01*
X164370000Y-97560000D02*
X159550000Y-92740000D01*
X159550000Y-88000000D02*
X153850000Y-82300000D01*
X147300000Y-82200000D02*
X147300000Y-81800000D01*
X147450000Y-81450000D02*
X147450000Y-76900000D01*
D20*
%TO.N,START_Pico*%
X157150000Y-87900000D02*
X157250000Y-87900000D01*
%TO.N,SMS*%
X168050000Y-75000000D02*
X163250000Y-75000000D01*
X163250000Y-75000000D02*
X155850000Y-82400000D01*
%TO.N,DW*%
X144200000Y-69000000D02*
X144200000Y-81150000D01*
X143600000Y-81750000D02*
X144200000Y-81150000D01*
X143600000Y-83200000D02*
X143600000Y-81750000D01*
%TO.N,D04_Pico*%
X144900000Y-82000000D02*
X144900000Y-69950000D01*
X144250000Y-82650000D02*
X144900000Y-82000000D01*
%TO.N,D03_Pico*%
X145450000Y-82250000D02*
X145450000Y-70650000D01*
X145450000Y-70650000D02*
X145750000Y-70350000D01*
X145050000Y-82650000D02*
X145450000Y-82250000D01*
%TO.N,D02_Pico*%
X145850000Y-82800000D02*
X145850000Y-71450000D01*
X145850000Y-71450000D02*
X146550000Y-70750000D01*
%TO.N,D01_Pico*%
X146600000Y-71700000D02*
X146800000Y-71500000D01*
X146600000Y-82600000D02*
X146600000Y-71700000D01*
%TO.N,Net-(J15-Pin_1)*%
X184750000Y-83700000D02*
X179350000Y-83700000D01*
X185050000Y-83400000D02*
X184750000Y-83700000D01*
%TO.N,RESET_Pico*%
X153350000Y-87300000D02*
X149650000Y-87300000D01*
X149650000Y-87300000D02*
X148550000Y-88400000D01*
D23*
%TO.N,+20V*%
X131704000Y-113954000D02*
X138929475Y-113954000D01*
X125150000Y-107400000D02*
X131704000Y-113954000D01*
X138929475Y-113954000D02*
X139254000Y-113629475D01*
X140583475Y-113300000D02*
X145750000Y-113300000D01*
X139254000Y-113629475D02*
X139254000Y-113170525D01*
X128250000Y-84500000D02*
X125150000Y-87600000D01*
X128250000Y-77240000D02*
X128250000Y-84500000D01*
X125150000Y-87600000D02*
X125150000Y-107400000D01*
X140266737Y-112983262D02*
X140583475Y-113300000D01*
X139441263Y-112983262D02*
X140266737Y-112983262D01*
X128300000Y-77190000D02*
X128250000Y-77240000D01*
X139254000Y-113170525D02*
X139441263Y-112983262D01*
D22*
%TO.N,LCD_D0*%
X149900000Y-103800000D02*
X149900000Y-103900000D01*
X145500000Y-108300000D02*
X145500000Y-108350000D01*
X145800000Y-108000000D02*
X145500000Y-108300000D01*
X149900000Y-103900000D02*
X145800000Y-108000000D01*
D20*
%TO.N,LCD_D1*%
X148600000Y-104300000D02*
X148850000Y-104300000D01*
X144750000Y-108150000D02*
X148600000Y-104300000D01*
%TO.N,LCD_D2*%
X146100000Y-105700000D02*
X146100000Y-105950000D01*
X147100000Y-104350000D02*
X147100000Y-104700000D01*
X147100000Y-104700000D02*
X146100000Y-105700000D01*
X146100000Y-105950000D02*
X143900000Y-108150000D01*
%TO.N,LCD_Backlight*%
X161150000Y-95500000D02*
X161150000Y-101000000D01*
X154250000Y-88600000D02*
X154950000Y-89300000D01*
X151050000Y-88600000D02*
X154250000Y-88600000D01*
X154950000Y-89300000D02*
X161150000Y-95500000D01*
D22*
%TO.N,LCD_RST*%
X155150000Y-90700000D02*
X154350000Y-90700000D01*
X156700000Y-109100000D02*
X156800000Y-109200000D01*
X156700000Y-92250000D02*
X155150000Y-90700000D01*
X156700000Y-92250000D02*
X156700000Y-109100000D01*
D20*
%TO.N,LCD_CLK*%
X155196000Y-103246000D02*
X144554000Y-103246000D01*
X155500000Y-103550000D02*
X155196000Y-103246000D01*
X142200000Y-105600000D02*
X141750000Y-106050000D01*
X144554000Y-103246000D02*
X142200000Y-105600000D01*
X141750000Y-106050000D02*
X141750000Y-107200000D01*
%TO.N,LCD_DEN*%
X155250000Y-102600000D02*
X142282307Y-102600000D01*
X139500000Y-103850000D02*
X136350000Y-103850000D01*
X142282307Y-102600000D02*
X141032307Y-103850000D01*
X155950000Y-101950000D02*
X155300000Y-102600000D01*
X155300000Y-102600000D02*
X155250000Y-102600000D01*
X136350000Y-103850000D02*
X134950000Y-105250000D01*
X141032307Y-103850000D02*
X139500000Y-103850000D01*
%TO.N,Net-(J1-Pin_1)*%
X179140000Y-81000000D02*
X184150000Y-81000000D01*
%TO.N,Net-(J5-Pin_1)*%
X177450000Y-78460000D02*
X177450000Y-100900000D01*
%TO.N,Net-(J6-Pin_1)*%
X178550000Y-77700000D02*
X178550000Y-108500000D01*
D22*
%TO.N,HDMI_D1-*%
X147950000Y-92100000D02*
X148050000Y-92100000D01*
D20*
%TO.N,Net-(J19-Pin_1)*%
X141237236Y-84000000D02*
X154850000Y-84000000D01*
X154850000Y-84000000D02*
X158550000Y-87700000D01*
X140050000Y-85600000D02*
X140050000Y-85187236D01*
X140050000Y-85187236D02*
X141237236Y-84000000D01*
X158550000Y-87700000D02*
X158550000Y-91300000D01*
%TD*%
%TA.AperFunction,Conductor*%
%TO.N,GND*%
G36*
X140775368Y-90891922D02*
G01*
X140831301Y-90933794D01*
X140854507Y-90988707D01*
X140860500Y-91026551D01*
X140860501Y-91026554D01*
X140860502Y-91026555D01*
X140918674Y-91140723D01*
X140918676Y-91140725D01*
X140918678Y-91140728D01*
X141016177Y-91238227D01*
X141015063Y-91239340D01*
X141051048Y-91286000D01*
X141059500Y-91330996D01*
X141059500Y-91409731D01*
X141039815Y-91476770D01*
X141023181Y-91497412D01*
X137369049Y-95151544D01*
X137307726Y-95185029D01*
X137281368Y-95187863D01*
X136592891Y-95187863D01*
X136525852Y-95168178D01*
X136505210Y-95151544D01*
X135354070Y-94000404D01*
X135320585Y-93939081D01*
X135325569Y-93869389D01*
X135367441Y-93813456D01*
X135412536Y-93794777D01*
X135412014Y-93792999D01*
X135555853Y-93750764D01*
X135555854Y-93750764D01*
X135594332Y-93726036D01*
X135674512Y-93674507D01*
X135766878Y-93567911D01*
X135769874Y-93561351D01*
X135815629Y-93508547D01*
X135882668Y-93488863D01*
X136741158Y-93488863D01*
X137943573Y-93488863D01*
X137961147Y-93491849D01*
X137961247Y-93490969D01*
X137975129Y-93492533D01*
X137975129Y-93492532D01*
X137975130Y-93492533D01*
X138000780Y-93489642D01*
X138014663Y-93488863D01*
X138018467Y-93488863D01*
X138018471Y-93488863D01*
X138022192Y-93488013D01*
X138035875Y-93485688D01*
X138061544Y-93482796D01*
X138061547Y-93482793D01*
X138071914Y-93479166D01*
X138081786Y-93474411D01*
X138081788Y-93474411D01*
X138101973Y-93458314D01*
X138113311Y-93450268D01*
X138116535Y-93448243D01*
X138119227Y-93445550D01*
X138129585Y-93436293D01*
X138149777Y-93420192D01*
X138149778Y-93420189D01*
X138158490Y-93409266D01*
X138159182Y-93409818D01*
X138169496Y-93395280D01*
X140644355Y-90920421D01*
X140705676Y-90886938D01*
X140775368Y-90891922D01*
G37*
%TD.AperFunction*%
%TA.AperFunction,Conductor*%
G36*
X131642539Y-49420185D02*
G01*
X131688294Y-49472989D01*
X131699500Y-49524500D01*
X131699500Y-67540784D01*
X131696437Y-67562745D01*
X131695599Y-67571791D01*
X131695599Y-67571792D01*
X131695599Y-67571793D01*
X131698971Y-67608182D01*
X131699500Y-67619623D01*
X131699500Y-67627843D01*
X131699501Y-67627854D01*
X131701011Y-67635937D01*
X131702591Y-67647264D01*
X131705964Y-67683658D01*
X131708443Y-67692372D01*
X131711667Y-67701989D01*
X131714938Y-67710432D01*
X131734177Y-67741503D01*
X131739746Y-67751502D01*
X131745731Y-67763521D01*
X131756041Y-67784228D01*
X131761526Y-67791490D01*
X131767957Y-67799235D01*
X131774080Y-67805951D01*
X131803249Y-67827979D01*
X131812061Y-67835296D01*
X131839069Y-67859918D01*
X131846797Y-67864702D01*
X131855580Y-67869594D01*
X131863732Y-67873653D01*
X131863736Y-67873656D01*
X131898895Y-67883659D01*
X131909742Y-67887295D01*
X131943827Y-67900500D01*
X131943828Y-67900500D01*
X131952755Y-67902169D01*
X131962742Y-67903562D01*
X131971788Y-67904399D01*
X131971793Y-67904401D01*
X132008183Y-67901028D01*
X132019624Y-67900500D01*
X199038000Y-67900500D01*
X199105039Y-67920185D01*
X199150794Y-67972989D01*
X199162000Y-68024500D01*
X199162000Y-71475500D01*
X199142315Y-71542539D01*
X199089511Y-71588294D01*
X199038000Y-71599500D01*
X189409150Y-71599500D01*
X189386942Y-71596405D01*
X189378114Y-71595590D01*
X189378113Y-71595590D01*
X189378111Y-71595590D01*
X189378110Y-71595590D01*
X189341792Y-71598967D01*
X189330312Y-71599500D01*
X189322149Y-71599500D01*
X189313997Y-71601024D01*
X189302707Y-71602600D01*
X189266254Y-71605989D01*
X189257317Y-71608535D01*
X189248240Y-71611579D01*
X189239562Y-71614941D01*
X189208430Y-71634216D01*
X189198465Y-71639769D01*
X189165693Y-71656101D01*
X189158289Y-71661695D01*
X189150908Y-71667826D01*
X189144050Y-71674078D01*
X189121985Y-71703297D01*
X189114695Y-71712078D01*
X189090032Y-71739147D01*
X189085158Y-71747025D01*
X189080492Y-71755405D01*
X189076343Y-71763737D01*
X189066325Y-71798948D01*
X189062700Y-71809767D01*
X189049484Y-71843915D01*
X189047773Y-71853083D01*
X189046458Y-71862522D01*
X189045599Y-71871793D01*
X189048976Y-71908252D01*
X189049505Y-71919652D01*
X189061981Y-112240812D01*
X189058958Y-112262514D01*
X189058099Y-112271793D01*
X189061477Y-112308253D01*
X189062006Y-112319649D01*
X189062008Y-112327935D01*
X189063510Y-112335956D01*
X189065097Y-112347324D01*
X189068465Y-112383662D01*
X189070880Y-112392151D01*
X189074273Y-112402267D01*
X189077472Y-112410517D01*
X189077473Y-112410521D01*
X189077474Y-112410522D01*
X189096684Y-112441528D01*
X189102275Y-112451561D01*
X189118542Y-112484228D01*
X189123884Y-112491302D01*
X189130683Y-112499487D01*
X189136643Y-112506020D01*
X189136644Y-112506021D01*
X189136645Y-112506022D01*
X189165769Y-112528000D01*
X189174605Y-112535336D01*
X189201567Y-112559916D01*
X189201573Y-112559918D01*
X189209129Y-112564597D01*
X189218352Y-112569732D01*
X189226317Y-112573695D01*
X189226321Y-112573698D01*
X189261414Y-112583671D01*
X189272304Y-112587319D01*
X189306327Y-112600500D01*
X189306329Y-112600500D01*
X189315034Y-112602128D01*
X189325557Y-112603594D01*
X189334380Y-112604408D01*
X189334387Y-112604410D01*
X189368581Y-112601230D01*
X189370708Y-112601033D01*
X189382188Y-112600500D01*
X199038000Y-112600500D01*
X199105039Y-112620185D01*
X199150794Y-112672989D01*
X199162000Y-112724500D01*
X199162000Y-116175500D01*
X199142315Y-116242539D01*
X199089511Y-116288294D01*
X199038000Y-116299500D01*
X102637000Y-116299500D01*
X102569961Y-116279815D01*
X102524206Y-116227011D01*
X102513000Y-116175500D01*
X102513000Y-114500001D01*
X105157032Y-114500001D01*
X105176864Y-114726686D01*
X105176866Y-114726697D01*
X105235758Y-114946488D01*
X105235761Y-114946497D01*
X105331931Y-115152732D01*
X105331932Y-115152734D01*
X105462454Y-115339141D01*
X105623358Y-115500045D01*
X105623361Y-115500047D01*
X105809766Y-115630568D01*
X106016004Y-115726739D01*
X106235808Y-115785635D01*
X106397730Y-115799801D01*
X106462498Y-115805468D01*
X106462500Y-115805468D01*
X106462502Y-115805468D01*
X106519173Y-115800509D01*
X106689192Y-115785635D01*
X106908996Y-115726739D01*
X107115234Y-115630568D01*
X107301639Y-115500047D01*
X107462547Y-115339139D01*
X107593068Y-115152734D01*
X107689239Y-114946496D01*
X107748135Y-114726692D01*
X107767968Y-114500001D01*
X194407032Y-114500001D01*
X194426864Y-114726686D01*
X194426866Y-114726697D01*
X194485758Y-114946488D01*
X194485761Y-114946497D01*
X194581931Y-115152732D01*
X194581932Y-115152734D01*
X194712454Y-115339141D01*
X194873358Y-115500045D01*
X194873361Y-115500047D01*
X195059766Y-115630568D01*
X195266004Y-115726739D01*
X195485808Y-115785635D01*
X195647730Y-115799801D01*
X195712498Y-115805468D01*
X195712500Y-115805468D01*
X195712502Y-115805468D01*
X195769173Y-115800509D01*
X195939192Y-115785635D01*
X196158996Y-115726739D01*
X196365234Y-115630568D01*
X196551639Y-115500047D01*
X196712547Y-115339139D01*
X196843068Y-115152734D01*
X196939239Y-114946496D01*
X196998135Y-114726692D01*
X197017968Y-114500000D01*
X196998135Y-114273308D01*
X196939239Y-114053504D01*
X196843068Y-113847266D01*
X196712547Y-113660861D01*
X196712545Y-113660858D01*
X196551641Y-113499954D01*
X196365234Y-113369432D01*
X196365232Y-113369431D01*
X196158997Y-113273261D01*
X196158988Y-113273258D01*
X195939197Y-113214366D01*
X195939193Y-113214365D01*
X195939192Y-113214365D01*
X195939191Y-113214364D01*
X195939186Y-113214364D01*
X195712502Y-113194532D01*
X195712498Y-113194532D01*
X195485813Y-113214364D01*
X195485802Y-113214366D01*
X195266011Y-113273258D01*
X195266002Y-113273261D01*
X195059767Y-113369431D01*
X195059765Y-113369432D01*
X194873358Y-113499954D01*
X194712454Y-113660858D01*
X194581932Y-113847265D01*
X194581931Y-113847267D01*
X194485761Y-114053502D01*
X194485758Y-114053511D01*
X194426866Y-114273302D01*
X194426864Y-114273313D01*
X194407032Y-114499998D01*
X194407032Y-114500001D01*
X107767968Y-114500001D01*
X107767968Y-114500000D01*
X107748135Y-114273308D01*
X107689239Y-114053504D01*
X107593068Y-113847266D01*
X107462547Y-113660861D01*
X107462545Y-113660858D01*
X107301641Y-113499954D01*
X107115234Y-113369432D01*
X107115232Y-113369431D01*
X106908997Y-113273261D01*
X106908988Y-113273258D01*
X106689197Y-113214366D01*
X106689193Y-113214365D01*
X106689192Y-113214365D01*
X106689191Y-113214364D01*
X106689186Y-113214364D01*
X106462502Y-113194532D01*
X106462498Y-113194532D01*
X106235813Y-113214364D01*
X106235802Y-113214366D01*
X106016011Y-113273258D01*
X106016002Y-113273261D01*
X105809767Y-113369431D01*
X105809765Y-113369432D01*
X105623358Y-113499954D01*
X105462454Y-113660858D01*
X105331932Y-113847265D01*
X105331931Y-113847267D01*
X105235761Y-114053502D01*
X105235758Y-114053511D01*
X105176866Y-114273302D01*
X105176864Y-114273313D01*
X105157032Y-114499998D01*
X105157032Y-114500001D01*
X102513000Y-114500001D01*
X102513000Y-112024500D01*
X102532685Y-111957461D01*
X102585489Y-111911706D01*
X102637000Y-111900500D01*
X119940785Y-111900500D01*
X119962742Y-111903562D01*
X119971788Y-111904399D01*
X119971793Y-111904401D01*
X120008183Y-111901028D01*
X120019624Y-111900500D01*
X120027845Y-111900500D01*
X120030407Y-111900020D01*
X120035921Y-111898989D01*
X120047259Y-111897407D01*
X120083660Y-111894035D01*
X120083666Y-111894031D01*
X120092421Y-111891541D01*
X120101940Y-111888350D01*
X120110431Y-111885061D01*
X120110433Y-111885061D01*
X120141521Y-111865811D01*
X120151498Y-111860254D01*
X120184228Y-111843958D01*
X120184230Y-111843954D01*
X120191523Y-111838448D01*
X120199197Y-111832076D01*
X120205949Y-111825921D01*
X120205949Y-111825920D01*
X120205952Y-111825919D01*
X120227990Y-111796734D01*
X120235275Y-111787961D01*
X120259916Y-111760933D01*
X120259918Y-111760927D01*
X120264721Y-111753170D01*
X120269579Y-111744448D01*
X120273651Y-111736269D01*
X120273656Y-111736264D01*
X120283663Y-111701089D01*
X120287289Y-111690270D01*
X120300500Y-111656173D01*
X120300500Y-111656171D01*
X120300501Y-111656169D01*
X120302172Y-111647229D01*
X120303561Y-111637276D01*
X120304401Y-111628207D01*
X120301029Y-111591817D01*
X120300500Y-111580376D01*
X120300500Y-99680001D01*
X121954405Y-99680001D01*
X121974698Y-99834149D01*
X121974699Y-99834151D01*
X122034198Y-99977794D01*
X122034199Y-99977795D01*
X122034200Y-99977797D01*
X122128851Y-100101149D01*
X122252203Y-100195800D01*
X122395849Y-100255301D01*
X122453574Y-100262900D01*
X122511298Y-100270500D01*
X122511299Y-100270500D01*
X123388702Y-100270500D01*
X123427184Y-100265433D01*
X123504151Y-100255301D01*
X123647797Y-100195800D01*
X123771149Y-100101149D01*
X123865800Y-99977798D01*
X123925301Y-99834151D01*
X123945595Y-99680000D01*
X123945001Y-99675491D01*
X123929731Y-99559500D01*
X123925301Y-99525849D01*
X123865800Y-99382203D01*
X123771149Y-99258851D01*
X123647797Y-99164200D01*
X123647794Y-99164198D01*
X123504151Y-99104699D01*
X123504149Y-99104698D01*
X123388702Y-99089500D01*
X123388701Y-99089500D01*
X122511299Y-99089500D01*
X122511298Y-99089500D01*
X122395850Y-99104698D01*
X122395848Y-99104699D01*
X122252205Y-99164198D01*
X122252202Y-99164200D01*
X122128849Y-99258852D01*
X122034200Y-99382201D01*
X122034198Y-99382204D01*
X121974699Y-99525848D01*
X121974698Y-99525850D01*
X121954405Y-99679998D01*
X121954405Y-99680001D01*
X120300500Y-99680001D01*
X120300500Y-91030001D01*
X121954405Y-91030001D01*
X121974698Y-91184149D01*
X121974699Y-91184151D01*
X122034198Y-91327794D01*
X122034199Y-91327795D01*
X122034200Y-91327797D01*
X122128851Y-91451149D01*
X122252203Y-91545800D01*
X122395849Y-91605301D01*
X122453574Y-91612900D01*
X122511298Y-91620500D01*
X122511299Y-91620500D01*
X123388702Y-91620500D01*
X123431192Y-91614906D01*
X123504151Y-91605301D01*
X123647797Y-91545800D01*
X123771149Y-91451149D01*
X123865800Y-91327798D01*
X123925301Y-91184151D01*
X123941741Y-91059276D01*
X123945595Y-91030001D01*
X123945595Y-91029998D01*
X123925301Y-90875850D01*
X123925301Y-90875849D01*
X123865800Y-90732203D01*
X123771149Y-90608851D01*
X123647797Y-90514200D01*
X123647794Y-90514198D01*
X123504151Y-90454699D01*
X123504149Y-90454698D01*
X123388702Y-90439500D01*
X123388701Y-90439500D01*
X122511299Y-90439500D01*
X122511298Y-90439500D01*
X122395850Y-90454698D01*
X122395848Y-90454699D01*
X122252205Y-90514198D01*
X122252202Y-90514200D01*
X122128849Y-90608852D01*
X122034200Y-90732201D01*
X122034198Y-90732204D01*
X121974699Y-90875848D01*
X121974698Y-90875850D01*
X121954405Y-91029998D01*
X121954405Y-91030001D01*
X120300500Y-91030001D01*
X120300500Y-87612868D01*
X124904463Y-87612868D01*
X124905275Y-87615895D01*
X124909500Y-87647988D01*
X124909500Y-107390452D01*
X124909330Y-107396942D01*
X124907154Y-107438461D01*
X124907154Y-107438462D01*
X124915193Y-107459404D01*
X124920719Y-107478059D01*
X124925384Y-107500007D01*
X124927227Y-107502543D01*
X124942670Y-107530985D01*
X124943792Y-107533909D01*
X124943794Y-107533912D01*
X124959652Y-107549770D01*
X124972288Y-107564564D01*
X124985478Y-107582719D01*
X124988188Y-107584283D01*
X125013874Y-107603992D01*
X131527194Y-114117313D01*
X131531645Y-114122002D01*
X131559479Y-114152915D01*
X131579972Y-114162039D01*
X131597065Y-114171319D01*
X131615888Y-114183543D01*
X131618974Y-114184031D01*
X131650020Y-114193226D01*
X131652880Y-114194500D01*
X131675315Y-114194500D01*
X131694711Y-114196026D01*
X131716868Y-114199536D01*
X131719895Y-114198724D01*
X131751987Y-114194500D01*
X138919928Y-114194500D01*
X138926417Y-114194669D01*
X138967937Y-114196846D01*
X138988886Y-114188803D01*
X139007533Y-114183280D01*
X139029481Y-114178616D01*
X139032011Y-114176778D01*
X139060465Y-114161327D01*
X139063387Y-114160206D01*
X139079251Y-114144340D01*
X139094041Y-114131709D01*
X139112194Y-114118521D01*
X139113758Y-114115811D01*
X139133464Y-114090127D01*
X139417329Y-113806263D01*
X139422001Y-113801829D01*
X139452915Y-113773996D01*
X139462039Y-113753499D01*
X139471326Y-113736399D01*
X139483542Y-113717589D01*
X139483542Y-113717588D01*
X139483543Y-113717587D01*
X139484031Y-113714498D01*
X139493227Y-113683453D01*
X139494500Y-113680595D01*
X139494500Y-113658160D01*
X139496027Y-113638761D01*
X139499536Y-113616607D01*
X139498725Y-113613579D01*
X139494500Y-113581488D01*
X139494500Y-113347762D01*
X139514185Y-113280723D01*
X139566989Y-113234968D01*
X139618500Y-113223762D01*
X140115757Y-113223762D01*
X140182796Y-113243447D01*
X140203438Y-113260081D01*
X140406660Y-113463303D01*
X140411112Y-113467993D01*
X140438954Y-113498915D01*
X140459455Y-113508042D01*
X140476543Y-113517320D01*
X140495362Y-113529542D01*
X140498453Y-113530031D01*
X140529494Y-113539226D01*
X140532355Y-113540500D01*
X140554790Y-113540500D01*
X140574188Y-113542027D01*
X140596342Y-113545536D01*
X140596343Y-113545536D01*
X140599370Y-113544725D01*
X140631463Y-113540500D01*
X145367089Y-113540500D01*
X145434128Y-113560185D01*
X145454765Y-113576814D01*
X145509277Y-113631326D01*
X145623445Y-113689498D01*
X145623446Y-113689498D01*
X145623448Y-113689499D01*
X145749997Y-113709542D01*
X145750000Y-113709542D01*
X145750003Y-113709542D01*
X145876551Y-113689499D01*
X145876552Y-113689498D01*
X145876555Y-113689498D01*
X145990723Y-113631326D01*
X146081326Y-113540723D01*
X146139498Y-113426555D01*
X146139499Y-113426551D01*
X146159542Y-113300003D01*
X146159542Y-113299996D01*
X146139499Y-113173448D01*
X146139498Y-113173446D01*
X146139498Y-113173445D01*
X146081326Y-113059277D01*
X146081322Y-113059273D01*
X146081321Y-113059271D01*
X145990728Y-112968678D01*
X145990725Y-112968676D01*
X145990723Y-112968674D01*
X145876555Y-112910502D01*
X145876554Y-112910501D01*
X145876551Y-112910500D01*
X145750003Y-112890458D01*
X145749997Y-112890458D01*
X145623448Y-112910500D01*
X145582586Y-112931321D01*
X145509277Y-112968674D01*
X145509276Y-112968675D01*
X145509275Y-112968675D01*
X145490940Y-112987011D01*
X145454768Y-113023182D01*
X145393448Y-113056666D01*
X145367089Y-113059500D01*
X144270840Y-113059500D01*
X144203801Y-113039815D01*
X144158046Y-112987011D01*
X144148102Y-112917853D01*
X144163644Y-112876184D01*
X144163194Y-112875979D01*
X144166068Y-112869685D01*
X144166526Y-112868458D01*
X144166870Y-112867919D01*
X144166878Y-112867911D01*
X144225471Y-112739611D01*
X144245544Y-112600000D01*
X144225471Y-112460389D01*
X144212196Y-112431321D01*
X144166880Y-112332092D01*
X144166878Y-112332090D01*
X144166878Y-112332089D01*
X144074512Y-112225493D01*
X144074509Y-112225491D01*
X144074510Y-112225491D01*
X143955854Y-112149235D01*
X143820525Y-112109500D01*
X143820523Y-112109500D01*
X143679477Y-112109500D01*
X143679474Y-112109500D01*
X143544146Y-112149235D01*
X143544145Y-112149235D01*
X143425489Y-112225491D01*
X143333122Y-112332089D01*
X143333119Y-112332092D01*
X143274530Y-112460385D01*
X143274528Y-112460393D01*
X143254456Y-112600000D01*
X143274528Y-112739606D01*
X143274530Y-112739614D01*
X143320708Y-112840728D01*
X143333122Y-112867911D01*
X143333125Y-112867914D01*
X143333474Y-112868458D01*
X143333659Y-112869088D01*
X143336806Y-112875979D01*
X143335815Y-112876431D01*
X143353160Y-112935497D01*
X143333477Y-113002537D01*
X143280674Y-113048293D01*
X143229160Y-113059500D01*
X140734455Y-113059500D01*
X140667416Y-113039815D01*
X140646774Y-113023181D01*
X140443550Y-112819957D01*
X140439080Y-112815247D01*
X140411257Y-112784346D01*
X140411256Y-112784345D01*
X140390760Y-112775220D01*
X140373661Y-112765936D01*
X140354850Y-112753720D01*
X140351753Y-112753229D01*
X140320717Y-112744035D01*
X140317859Y-112742762D01*
X140317857Y-112742762D01*
X140295422Y-112742762D01*
X140276024Y-112741235D01*
X140253869Y-112737725D01*
X140253868Y-112737725D01*
X140250842Y-112738537D01*
X140218749Y-112742762D01*
X139450810Y-112742762D01*
X139444320Y-112742592D01*
X139402804Y-112740416D01*
X139402799Y-112740416D01*
X139381851Y-112748457D01*
X139363207Y-112753979D01*
X139341259Y-112758645D01*
X139341252Y-112758648D01*
X139338710Y-112760495D01*
X139310290Y-112775925D01*
X139307356Y-112777051D01*
X139307351Y-112777054D01*
X139291483Y-112792922D01*
X139276695Y-112805552D01*
X139258543Y-112818741D01*
X139258542Y-112818742D01*
X139256973Y-112821460D01*
X139237270Y-112847135D01*
X139160433Y-112923972D01*
X139099110Y-112957457D01*
X139029418Y-112952473D01*
X138973485Y-112910601D01*
X138949068Y-112845137D01*
X138962267Y-112779997D01*
X138989498Y-112726555D01*
X138989499Y-112726551D01*
X139009542Y-112600003D01*
X139009542Y-112599996D01*
X138989499Y-112473448D01*
X138989498Y-112473446D01*
X138989498Y-112473445D01*
X138931326Y-112359277D01*
X138931322Y-112359273D01*
X138931321Y-112359271D01*
X138840728Y-112268678D01*
X138840725Y-112268676D01*
X138840723Y-112268674D01*
X138726555Y-112210502D01*
X138726554Y-112210501D01*
X138726551Y-112210500D01*
X138600003Y-112190458D01*
X138599997Y-112190458D01*
X138473448Y-112210500D01*
X138441947Y-112226551D01*
X138359277Y-112268674D01*
X138359276Y-112268675D01*
X138359271Y-112268678D01*
X138268678Y-112359271D01*
X138268675Y-112359276D01*
X138210500Y-112473448D01*
X138190458Y-112599996D01*
X138190458Y-112600003D01*
X138210500Y-112726551D01*
X138210501Y-112726554D01*
X138210502Y-112726555D01*
X138268674Y-112840723D01*
X138268676Y-112840725D01*
X138268678Y-112840728D01*
X138359271Y-112931321D01*
X138359276Y-112931325D01*
X138359277Y-112931326D01*
X138364439Y-112933956D01*
X138415235Y-112981927D01*
X138432032Y-113049748D01*
X138409497Y-113115883D01*
X138395829Y-113132121D01*
X138368676Y-113159274D01*
X138368675Y-113159276D01*
X138368674Y-113159277D01*
X138350711Y-113194532D01*
X138310500Y-113273448D01*
X138290458Y-113399996D01*
X138290458Y-113400003D01*
X138310500Y-113526551D01*
X138310501Y-113526554D01*
X138310502Y-113526555D01*
X138313890Y-113533205D01*
X138326787Y-113601872D01*
X138300512Y-113666613D01*
X138243406Y-113706871D01*
X138203406Y-113713500D01*
X131854981Y-113713500D01*
X131787942Y-113693815D01*
X131767300Y-113677181D01*
X130190122Y-112100003D01*
X135390458Y-112100003D01*
X135410500Y-112226551D01*
X135410501Y-112226554D01*
X135410502Y-112226555D01*
X135468674Y-112340723D01*
X135468676Y-112340725D01*
X135468678Y-112340728D01*
X135559271Y-112431321D01*
X135559273Y-112431322D01*
X135559277Y-112431326D01*
X135673445Y-112489498D01*
X135673446Y-112489498D01*
X135673448Y-112489499D01*
X135799997Y-112509542D01*
X135800000Y-112509542D01*
X135800003Y-112509542D01*
X135926551Y-112489499D01*
X135926552Y-112489498D01*
X135926555Y-112489498D01*
X136040723Y-112431326D01*
X136131326Y-112340723D01*
X136189498Y-112226555D01*
X136189499Y-112226551D01*
X136209542Y-112100003D01*
X136209542Y-112099996D01*
X136189499Y-111973448D01*
X136189498Y-111973446D01*
X136189498Y-111973445D01*
X136131326Y-111859277D01*
X136131322Y-111859273D01*
X136131321Y-111859271D01*
X136040728Y-111768678D01*
X136040725Y-111768676D01*
X136040723Y-111768674D01*
X135926555Y-111710502D01*
X135926554Y-111710501D01*
X135926551Y-111710500D01*
X135800003Y-111690458D01*
X135799997Y-111690458D01*
X135673448Y-111710500D01*
X135622885Y-111736264D01*
X135559277Y-111768674D01*
X135559276Y-111768675D01*
X135559271Y-111768678D01*
X135468678Y-111859271D01*
X135468675Y-111859276D01*
X135468674Y-111859277D01*
X135445682Y-111904401D01*
X135410500Y-111973448D01*
X135390458Y-112099996D01*
X135390458Y-112100003D01*
X130190122Y-112100003D01*
X129190119Y-111100000D01*
X170240284Y-111100000D01*
X170261060Y-111257805D01*
X170261061Y-111257809D01*
X170321968Y-111404855D01*
X170321969Y-111404857D01*
X170321970Y-111404858D01*
X170418866Y-111531134D01*
X170545142Y-111628030D01*
X170692194Y-111688940D01*
X170831640Y-111707298D01*
X170849999Y-111709716D01*
X170850000Y-111709716D01*
X170850001Y-111709716D01*
X170866446Y-111707550D01*
X171007806Y-111688940D01*
X171154858Y-111628030D01*
X171281134Y-111531134D01*
X171378030Y-111404858D01*
X171438940Y-111257806D01*
X171459716Y-111100000D01*
X171438940Y-110942194D01*
X171409990Y-110872303D01*
X171402522Y-110802835D01*
X171433797Y-110740356D01*
X171493886Y-110704704D01*
X171540733Y-110701913D01*
X171600000Y-110709716D01*
X171757806Y-110688940D01*
X171904858Y-110628030D01*
X172031134Y-110531134D01*
X172128030Y-110404858D01*
X172188940Y-110257806D01*
X172209716Y-110100000D01*
X172990284Y-110100000D01*
X173011060Y-110257805D01*
X173011061Y-110257809D01*
X173071968Y-110404855D01*
X173071969Y-110404857D01*
X173071970Y-110404858D01*
X173168866Y-110531134D01*
X173295142Y-110628030D01*
X173442194Y-110688940D01*
X173600000Y-110709716D01*
X173659263Y-110701913D01*
X173728295Y-110712678D01*
X173780552Y-110759057D01*
X173799438Y-110826325D01*
X173790009Y-110872303D01*
X173761060Y-110942194D01*
X173740284Y-111099999D01*
X173740284Y-111100000D01*
X173761060Y-111257805D01*
X173761061Y-111257809D01*
X173821968Y-111404855D01*
X173821969Y-111404857D01*
X173821970Y-111404858D01*
X173918866Y-111531134D01*
X174045142Y-111628030D01*
X174192194Y-111688940D01*
X174331640Y-111707298D01*
X174349999Y-111709716D01*
X174350000Y-111709716D01*
X174350001Y-111709716D01*
X174366446Y-111707550D01*
X174507806Y-111688940D01*
X174654858Y-111628030D01*
X174781134Y-111531134D01*
X174878030Y-111404858D01*
X174938940Y-111257806D01*
X174959716Y-111100000D01*
X174938940Y-110942194D01*
X174890946Y-110826325D01*
X174878031Y-110795144D01*
X174878030Y-110795143D01*
X174878030Y-110795142D01*
X174781134Y-110668866D01*
X174654858Y-110571970D01*
X174654857Y-110571969D01*
X174654855Y-110571968D01*
X174507809Y-110511061D01*
X174507807Y-110511060D01*
X174507806Y-110511060D01*
X174409261Y-110498086D01*
X174350001Y-110490284D01*
X174349999Y-110490284D01*
X174290738Y-110498086D01*
X174221702Y-110487321D01*
X174169446Y-110440941D01*
X174150561Y-110373672D01*
X174159991Y-110327695D01*
X174188940Y-110257806D01*
X174209716Y-110100000D01*
X174188940Y-109942194D01*
X174128030Y-109795142D01*
X174031134Y-109668866D01*
X173904858Y-109571970D01*
X173904857Y-109571969D01*
X173904855Y-109571968D01*
X173757809Y-109511061D01*
X173757807Y-109511060D01*
X173757806Y-109511060D01*
X173678903Y-109500672D01*
X173600001Y-109490284D01*
X173599999Y-109490284D01*
X173442194Y-109511060D01*
X173442190Y-109511061D01*
X173295144Y-109571968D01*
X173168866Y-109668866D01*
X173071968Y-109795144D01*
X173011061Y-109942190D01*
X173011060Y-109942194D01*
X172990284Y-110099999D01*
X172990284Y-110100000D01*
X172209716Y-110100000D01*
X172188940Y-109942194D01*
X172128030Y-109795142D01*
X172031134Y-109668866D01*
X171904858Y-109571970D01*
X171904857Y-109571969D01*
X171904855Y-109571968D01*
X171757809Y-109511061D01*
X171757807Y-109511060D01*
X171757806Y-109511060D01*
X171678903Y-109500672D01*
X171600001Y-109490284D01*
X171599999Y-109490284D01*
X171442194Y-109511060D01*
X171442190Y-109511061D01*
X171295144Y-109571968D01*
X171168866Y-109668866D01*
X171071968Y-109795144D01*
X171011061Y-109942190D01*
X171011060Y-109942194D01*
X170990284Y-110099999D01*
X170990284Y-110100000D01*
X171011059Y-110257803D01*
X171011059Y-110257805D01*
X171011060Y-110257806D01*
X171040008Y-110327694D01*
X171040009Y-110327695D01*
X171047477Y-110397165D01*
X171016201Y-110459644D01*
X170956112Y-110495296D01*
X170909261Y-110498086D01*
X170850001Y-110490284D01*
X170849999Y-110490284D01*
X170692194Y-110511060D01*
X170692190Y-110511061D01*
X170545144Y-110571968D01*
X170418866Y-110668866D01*
X170321968Y-110795144D01*
X170261061Y-110942190D01*
X170261060Y-110942194D01*
X170240284Y-111099999D01*
X170240284Y-111100000D01*
X129190119Y-111100000D01*
X125426819Y-107336700D01*
X125393334Y-107275377D01*
X125390500Y-107249019D01*
X125390500Y-107200003D01*
X141340458Y-107200003D01*
X141360500Y-107326551D01*
X141360501Y-107326554D01*
X141360502Y-107326555D01*
X141418674Y-107440723D01*
X141418676Y-107440725D01*
X141418678Y-107440728D01*
X141509271Y-107531321D01*
X141509273Y-107531322D01*
X141509277Y-107531326D01*
X141623445Y-107589498D01*
X141623446Y-107589498D01*
X141623448Y-107589499D01*
X141749997Y-107609542D01*
X141750000Y-107609542D01*
X141750003Y-107609542D01*
X141876551Y-107589499D01*
X141876552Y-107589498D01*
X141876555Y-107589498D01*
X141990723Y-107531326D01*
X142081326Y-107440723D01*
X142139498Y-107326555D01*
X142139499Y-107326551D01*
X142159542Y-107200003D01*
X142159542Y-107199996D01*
X142139499Y-107073448D01*
X142139498Y-107073446D01*
X142139498Y-107073445D01*
X142081326Y-106959277D01*
X142081322Y-106959273D01*
X142081321Y-106959271D01*
X141983823Y-106861773D01*
X141984935Y-106860660D01*
X141948948Y-106813988D01*
X141940500Y-106769003D01*
X141940500Y-106180269D01*
X141960185Y-106113230D01*
X141976819Y-106092588D01*
X142408439Y-105660968D01*
X142408451Y-105660954D01*
X144596589Y-103472819D01*
X144657912Y-103439334D01*
X144684270Y-103436500D01*
X149503406Y-103436500D01*
X149570445Y-103456185D01*
X149616200Y-103508989D01*
X149626144Y-103578147D01*
X149613891Y-103616793D01*
X149611930Y-103620641D01*
X149610500Y-103623448D01*
X149590458Y-103749996D01*
X149590458Y-103750003D01*
X149611712Y-103884202D01*
X149602757Y-103953495D01*
X149576920Y-103991280D01*
X149429463Y-104138737D01*
X149368140Y-104172222D01*
X149298448Y-104167238D01*
X149242515Y-104125366D01*
X149231300Y-104107356D01*
X149181326Y-104009277D01*
X149181322Y-104009273D01*
X149181321Y-104009271D01*
X149090728Y-103918678D01*
X149090725Y-103918676D01*
X149090723Y-103918674D01*
X148976555Y-103860502D01*
X148976554Y-103860501D01*
X148976551Y-103860500D01*
X148850003Y-103840458D01*
X148849997Y-103840458D01*
X148723448Y-103860500D01*
X148667493Y-103889011D01*
X148609277Y-103918674D01*
X148609276Y-103918675D01*
X148609271Y-103918678D01*
X148518678Y-104009271D01*
X148518675Y-104009276D01*
X148518674Y-104009277D01*
X148500895Y-104044170D01*
X148460502Y-104123444D01*
X148458026Y-104139078D01*
X148428094Y-104202211D01*
X148423234Y-104207357D01*
X146490089Y-106140502D01*
X146428766Y-106173987D01*
X146359074Y-106169003D01*
X146303141Y-106127131D01*
X146278724Y-106061667D01*
X146283155Y-106028455D01*
X146282868Y-106028423D01*
X146284432Y-106014537D01*
X146284433Y-106014536D01*
X146287325Y-105988864D01*
X146289650Y-105975184D01*
X146290500Y-105971463D01*
X146290500Y-105967655D01*
X146291280Y-105953769D01*
X146294170Y-105928122D01*
X146292606Y-105914243D01*
X146293486Y-105914143D01*
X146290500Y-105896567D01*
X146290500Y-105830269D01*
X146310185Y-105763230D01*
X146326819Y-105742588D01*
X146737996Y-105331411D01*
X147196919Y-104872487D01*
X147211455Y-104862175D01*
X147210903Y-104861482D01*
X147221826Y-104852770D01*
X147221829Y-104852769D01*
X147237926Y-104832582D01*
X147247183Y-104822224D01*
X147249881Y-104819527D01*
X147251904Y-104816307D01*
X147259962Y-104804950D01*
X147276048Y-104784780D01*
X147276048Y-104784778D01*
X147276049Y-104784778D01*
X147280806Y-104774899D01*
X147284431Y-104764540D01*
X147284434Y-104764536D01*
X147284434Y-104764530D01*
X147289049Y-104751346D01*
X147292063Y-104752400D01*
X147310564Y-104708358D01*
X147333843Y-104686324D01*
X147340716Y-104681329D01*
X147340723Y-104681326D01*
X147431326Y-104590723D01*
X147489498Y-104476555D01*
X147491106Y-104466403D01*
X147509542Y-104350003D01*
X147509542Y-104349996D01*
X147489499Y-104223448D01*
X147489498Y-104223446D01*
X147489498Y-104223445D01*
X147431326Y-104109277D01*
X147431322Y-104109273D01*
X147431321Y-104109271D01*
X147340728Y-104018678D01*
X147340725Y-104018676D01*
X147340723Y-104018674D01*
X147226555Y-103960502D01*
X147226554Y-103960501D01*
X147226551Y-103960500D01*
X147100003Y-103940458D01*
X147099997Y-103940458D01*
X146973448Y-103960500D01*
X146919637Y-103987919D01*
X146859277Y-104018674D01*
X146859276Y-104018675D01*
X146859271Y-104018678D01*
X146768678Y-104109271D01*
X146768675Y-104109276D01*
X146768674Y-104109277D01*
X146739141Y-104167238D01*
X146710500Y-104223448D01*
X146690458Y-104349996D01*
X146690458Y-104350003D01*
X146710500Y-104476551D01*
X146710501Y-104476554D01*
X146710502Y-104476555D01*
X146768674Y-104590723D01*
X146768677Y-104590726D01*
X146774413Y-104598622D01*
X146772714Y-104599856D01*
X146800074Y-104649962D01*
X146795090Y-104719654D01*
X146766589Y-104764001D01*
X146003075Y-105527515D01*
X145988539Y-105537831D01*
X145989091Y-105538522D01*
X145978167Y-105547233D01*
X145962066Y-105567423D01*
X145952816Y-105577776D01*
X145950119Y-105580472D01*
X145950118Y-105580474D01*
X145948086Y-105583708D01*
X145940057Y-105595023D01*
X145923952Y-105615219D01*
X145919189Y-105625109D01*
X145915566Y-105635466D01*
X145912674Y-105661123D01*
X145910351Y-105674804D01*
X145909500Y-105678534D01*
X145909500Y-105682344D01*
X145908720Y-105696229D01*
X145905829Y-105721878D01*
X145907394Y-105735761D01*
X145906513Y-105735860D01*
X145909500Y-105753435D01*
X145909500Y-105819730D01*
X145889815Y-105886769D01*
X145873181Y-105907411D01*
X144065649Y-107714942D01*
X144004326Y-107748427D01*
X143958571Y-107749734D01*
X143900003Y-107740458D01*
X143899997Y-107740458D01*
X143773448Y-107760500D01*
X143717493Y-107789011D01*
X143659277Y-107818674D01*
X143659276Y-107818675D01*
X143659271Y-107818678D01*
X143568678Y-107909271D01*
X143568675Y-107909276D01*
X143568674Y-107909277D01*
X143552420Y-107941177D01*
X143510500Y-108023448D01*
X143490458Y-108149996D01*
X143490458Y-108150003D01*
X143510500Y-108276551D01*
X143510501Y-108276554D01*
X143510502Y-108276555D01*
X143568674Y-108390723D01*
X143568676Y-108390725D01*
X143568678Y-108390728D01*
X143659271Y-108481321D01*
X143659273Y-108481322D01*
X143659277Y-108481326D01*
X143773445Y-108539498D01*
X143773446Y-108539498D01*
X143773448Y-108539499D01*
X143899997Y-108559542D01*
X143900000Y-108559542D01*
X143900003Y-108559542D01*
X144026551Y-108539499D01*
X144026552Y-108539498D01*
X144026555Y-108539498D01*
X144140723Y-108481326D01*
X144167563Y-108454486D01*
X144237319Y-108384731D01*
X144298642Y-108351246D01*
X144368334Y-108356230D01*
X144412681Y-108384731D01*
X144509271Y-108481321D01*
X144509273Y-108481322D01*
X144509277Y-108481326D01*
X144623445Y-108539498D01*
X144623446Y-108539498D01*
X144623448Y-108539499D01*
X144749997Y-108559542D01*
X144750000Y-108559542D01*
X144750003Y-108559542D01*
X144876551Y-108539499D01*
X144876552Y-108539498D01*
X144876555Y-108539498D01*
X144990723Y-108481326D01*
X144990730Y-108481318D01*
X144998622Y-108475587D01*
X145000937Y-108478774D01*
X145045243Y-108454486D01*
X145114943Y-108459354D01*
X145170946Y-108501132D01*
X145182287Y-108519312D01*
X145218673Y-108590721D01*
X145218678Y-108590728D01*
X145309271Y-108681321D01*
X145309273Y-108681322D01*
X145309277Y-108681326D01*
X145423445Y-108739498D01*
X145423446Y-108739498D01*
X145423448Y-108739499D01*
X145549997Y-108759542D01*
X145550000Y-108759542D01*
X145550003Y-108759542D01*
X145676551Y-108739499D01*
X145676552Y-108739498D01*
X145676555Y-108739498D01*
X145790723Y-108681326D01*
X145881326Y-108590723D01*
X145939498Y-108476555D01*
X145939499Y-108476551D01*
X145959542Y-108350003D01*
X145959542Y-108349996D01*
X145939499Y-108223449D01*
X145939498Y-108223446D01*
X145939498Y-108223445D01*
X145936131Y-108216838D01*
X145923235Y-108148171D01*
X145949510Y-108083430D01*
X145958935Y-108072863D01*
X146831802Y-107199996D01*
X149845047Y-104186749D01*
X149906368Y-104153266D01*
X149952125Y-104151959D01*
X149963508Y-104153762D01*
X149999999Y-104159542D01*
X150000000Y-104159542D01*
X150000003Y-104159542D01*
X150126551Y-104139499D01*
X150126552Y-104139498D01*
X150126555Y-104139498D01*
X150240723Y-104081326D01*
X150331326Y-103990723D01*
X150389498Y-103876555D01*
X150392041Y-103860500D01*
X150409542Y-103750003D01*
X150409542Y-103749996D01*
X150389499Y-103623448D01*
X150389498Y-103623446D01*
X150389498Y-103623445D01*
X150386109Y-103616794D01*
X150373213Y-103548128D01*
X150399488Y-103483387D01*
X150456594Y-103443129D01*
X150496594Y-103436500D01*
X154966575Y-103436500D01*
X155033614Y-103456185D01*
X155079369Y-103508989D01*
X155089048Y-103541102D01*
X155110500Y-103676552D01*
X155122509Y-103700120D01*
X155168674Y-103790723D01*
X155168676Y-103790725D01*
X155168678Y-103790728D01*
X155259271Y-103881321D01*
X155259273Y-103881322D01*
X155259277Y-103881326D01*
X155373445Y-103939498D01*
X155373446Y-103939498D01*
X155373448Y-103939499D01*
X155499997Y-103959542D01*
X155500000Y-103959542D01*
X155500003Y-103959542D01*
X155626551Y-103939499D01*
X155626552Y-103939498D01*
X155626555Y-103939498D01*
X155740723Y-103881326D01*
X155831326Y-103790723D01*
X155889498Y-103676555D01*
X155889499Y-103676551D01*
X155909542Y-103550003D01*
X155909542Y-103549996D01*
X155889499Y-103423448D01*
X155889498Y-103423446D01*
X155889498Y-103423445D01*
X155831326Y-103309277D01*
X155831322Y-103309273D01*
X155831321Y-103309271D01*
X155740728Y-103218678D01*
X155740725Y-103218676D01*
X155740723Y-103218674D01*
X155626555Y-103160502D01*
X155626554Y-103160501D01*
X155626551Y-103160500D01*
X155500003Y-103140458D01*
X155500001Y-103140458D01*
X155500000Y-103140458D01*
X155485391Y-103142771D01*
X155444845Y-103149193D01*
X155375552Y-103140237D01*
X155348137Y-103123667D01*
X155328580Y-103108071D01*
X155318211Y-103098804D01*
X155315529Y-103096122D01*
X155315524Y-103096118D01*
X155314892Y-103095721D01*
X155312309Y-103094097D01*
X155300982Y-103086062D01*
X155280780Y-103069952D01*
X155280779Y-103069951D01*
X155280777Y-103069950D01*
X155270893Y-103065190D01*
X155260539Y-103061567D01*
X155234876Y-103058675D01*
X155221184Y-103056348D01*
X155217467Y-103055500D01*
X155217463Y-103055500D01*
X155213655Y-103055500D01*
X155199772Y-103054720D01*
X155195543Y-103054243D01*
X155174121Y-103051829D01*
X155160239Y-103053394D01*
X155160139Y-103052513D01*
X155142565Y-103055500D01*
X144607435Y-103055500D01*
X144589860Y-103052513D01*
X144589761Y-103053394D01*
X144575878Y-103051829D01*
X144554050Y-103054289D01*
X144550227Y-103054720D01*
X144536345Y-103055500D01*
X144532533Y-103055500D01*
X144528808Y-103056350D01*
X144515121Y-103058675D01*
X144489465Y-103061566D01*
X144479099Y-103065193D01*
X144469219Y-103069951D01*
X144449027Y-103086053D01*
X144437713Y-103094082D01*
X144434477Y-103096116D01*
X144434469Y-103096122D01*
X144431771Y-103098820D01*
X144421419Y-103108070D01*
X144401230Y-103124171D01*
X144392521Y-103135092D01*
X144391830Y-103134541D01*
X144381514Y-103149076D01*
X142080473Y-105450120D01*
X141653078Y-105877513D01*
X141638541Y-105887830D01*
X141639092Y-105888521D01*
X141628171Y-105897230D01*
X141612066Y-105917424D01*
X141602816Y-105927776D01*
X141600119Y-105930472D01*
X141600118Y-105930474D01*
X141598086Y-105933708D01*
X141590057Y-105945023D01*
X141573952Y-105965219D01*
X141569189Y-105975109D01*
X141565566Y-105985466D01*
X141562674Y-106011123D01*
X141560351Y-106024804D01*
X141559500Y-106028534D01*
X141559500Y-106032344D01*
X141558720Y-106046229D01*
X141555829Y-106071878D01*
X141557394Y-106085761D01*
X141556513Y-106085860D01*
X141559500Y-106103435D01*
X141559500Y-106769003D01*
X141539815Y-106836042D01*
X141515836Y-106861432D01*
X141516177Y-106861773D01*
X141418678Y-106959271D01*
X141418675Y-106959276D01*
X141360500Y-107073448D01*
X141340458Y-107199996D01*
X141340458Y-107200003D01*
X125390500Y-107200003D01*
X125390500Y-105250003D01*
X134540458Y-105250003D01*
X134560500Y-105376551D01*
X134560501Y-105376554D01*
X134560502Y-105376555D01*
X134618674Y-105490723D01*
X134618676Y-105490725D01*
X134618678Y-105490728D01*
X134709271Y-105581321D01*
X134709273Y-105581322D01*
X134709277Y-105581326D01*
X134823445Y-105639498D01*
X134823446Y-105639498D01*
X134823448Y-105639499D01*
X134949997Y-105659542D01*
X134950000Y-105659542D01*
X134950003Y-105659542D01*
X135076551Y-105639499D01*
X135076552Y-105639498D01*
X135076555Y-105639498D01*
X135190723Y-105581326D01*
X135281326Y-105490723D01*
X135339498Y-105376555D01*
X135346648Y-105331411D01*
X135359542Y-105250003D01*
X135359542Y-105249999D01*
X135350265Y-105191429D01*
X135359219Y-105122135D01*
X135385057Y-105084349D01*
X135628494Y-104840912D01*
X140711464Y-104840912D01*
X140731536Y-104980518D01*
X140731538Y-104980526D01*
X140790127Y-105108819D01*
X140790129Y-105108821D01*
X140790130Y-105108823D01*
X140882496Y-105215419D01*
X140882498Y-105215420D01*
X140882497Y-105215420D01*
X141001153Y-105291676D01*
X141136482Y-105331411D01*
X141136484Y-105331412D01*
X141136485Y-105331412D01*
X141277532Y-105331412D01*
X141277532Y-105331411D01*
X141412861Y-105291676D01*
X141412862Y-105291676D01*
X141477707Y-105250003D01*
X141531520Y-105215419D01*
X141623886Y-105108823D01*
X141682479Y-104980523D01*
X141702552Y-104840912D01*
X141682479Y-104701301D01*
X141659033Y-104649962D01*
X141623888Y-104573004D01*
X141623886Y-104573002D01*
X141623886Y-104573001D01*
X141531520Y-104466405D01*
X141531517Y-104466403D01*
X141531518Y-104466403D01*
X141412862Y-104390147D01*
X141277533Y-104350412D01*
X141277531Y-104350412D01*
X141136485Y-104350412D01*
X141136482Y-104350412D01*
X141001154Y-104390147D01*
X141001153Y-104390147D01*
X140882497Y-104466403D01*
X140790130Y-104573001D01*
X140790127Y-104573004D01*
X140731538Y-104701297D01*
X140731536Y-104701305D01*
X140711464Y-104840912D01*
X135628494Y-104840912D01*
X135888081Y-104581326D01*
X136392588Y-104076819D01*
X136453911Y-104043334D01*
X136480269Y-104040500D01*
X139478537Y-104040500D01*
X140978872Y-104040500D01*
X140996446Y-104043486D01*
X140996546Y-104042606D01*
X141010428Y-104044170D01*
X141010428Y-104044169D01*
X141010429Y-104044170D01*
X141036079Y-104041279D01*
X141049962Y-104040500D01*
X141053766Y-104040500D01*
X141053770Y-104040500D01*
X141057491Y-104039650D01*
X141071174Y-104037325D01*
X141096843Y-104034433D01*
X141096846Y-104034430D01*
X141107213Y-104030803D01*
X141117085Y-104026048D01*
X141117087Y-104026048D01*
X141137272Y-104009951D01*
X141148610Y-104001905D01*
X141151834Y-103999880D01*
X141154528Y-103997184D01*
X141164873Y-103987939D01*
X141185076Y-103971829D01*
X141185078Y-103971825D01*
X141193789Y-103960904D01*
X141194481Y-103961456D01*
X141204793Y-103946920D01*
X142324896Y-102826819D01*
X142386219Y-102793334D01*
X142412577Y-102790500D01*
X155228537Y-102790500D01*
X155246565Y-102790500D01*
X155264139Y-102793486D01*
X155264239Y-102792606D01*
X155278121Y-102794170D01*
X155278121Y-102794169D01*
X155278122Y-102794170D01*
X155303772Y-102791279D01*
X155317655Y-102790500D01*
X155321459Y-102790500D01*
X155321463Y-102790500D01*
X155325184Y-102789650D01*
X155338867Y-102787325D01*
X155364536Y-102784433D01*
X155364539Y-102784430D01*
X155374906Y-102780803D01*
X155384778Y-102776048D01*
X155384780Y-102776048D01*
X155404965Y-102759951D01*
X155416303Y-102751905D01*
X155419527Y-102749880D01*
X155422219Y-102747187D01*
X155432577Y-102737930D01*
X155452769Y-102721829D01*
X155452771Y-102721823D01*
X155461483Y-102710901D01*
X155462176Y-102711454D01*
X155472489Y-102696916D01*
X155784350Y-102385055D01*
X155845671Y-102351572D01*
X155891427Y-102350265D01*
X155949998Y-102359542D01*
X155950000Y-102359542D01*
X155950003Y-102359542D01*
X156076551Y-102339499D01*
X156076552Y-102339498D01*
X156076555Y-102339498D01*
X156190723Y-102281326D01*
X156281326Y-102190723D01*
X156301610Y-102150911D01*
X156349584Y-102100118D01*
X156417404Y-102083323D01*
X156483539Y-102105860D01*
X156526991Y-102160575D01*
X156536094Y-102207209D01*
X156536094Y-108840494D01*
X156516409Y-108907533D01*
X156499775Y-108928175D01*
X156468678Y-108959271D01*
X156468675Y-108959276D01*
X156468674Y-108959277D01*
X156452765Y-108990500D01*
X156410500Y-109073448D01*
X156390458Y-109199996D01*
X156390458Y-109200003D01*
X156410500Y-109326551D01*
X156410501Y-109326554D01*
X156410502Y-109326555D01*
X156468674Y-109440723D01*
X156468676Y-109440725D01*
X156468678Y-109440728D01*
X156559271Y-109531321D01*
X156559273Y-109531322D01*
X156559277Y-109531326D01*
X156673445Y-109589498D01*
X156673446Y-109589498D01*
X156673448Y-109589499D01*
X156799997Y-109609542D01*
X156800000Y-109609542D01*
X156800003Y-109609542D01*
X156926551Y-109589499D01*
X156926552Y-109589498D01*
X156926555Y-109589498D01*
X157040723Y-109531326D01*
X157131326Y-109440723D01*
X157189498Y-109326555D01*
X157209542Y-109200000D01*
X157209542Y-109199996D01*
X157189499Y-109073448D01*
X157189498Y-109073446D01*
X157189498Y-109073445D01*
X157131326Y-108959277D01*
X157131322Y-108959273D01*
X157131321Y-108959271D01*
X157040728Y-108868678D01*
X157040724Y-108868675D01*
X157040723Y-108868674D01*
X157037716Y-108867142D01*
X156931610Y-108813077D01*
X156880815Y-108765102D01*
X156863906Y-108702593D01*
X156863906Y-108500000D01*
X178054456Y-108500000D01*
X178074528Y-108639606D01*
X178074530Y-108639614D01*
X178133119Y-108767907D01*
X178133121Y-108767909D01*
X178133122Y-108767911D01*
X178225488Y-108874507D01*
X178225490Y-108874508D01*
X178225489Y-108874508D01*
X178344145Y-108950764D01*
X178479474Y-108990499D01*
X178479476Y-108990500D01*
X178479477Y-108990500D01*
X178620524Y-108990500D01*
X178620524Y-108990499D01*
X178755853Y-108950764D01*
X178755854Y-108950764D01*
X178823123Y-108907533D01*
X178874512Y-108874507D01*
X178966878Y-108767911D01*
X179025471Y-108639611D01*
X179045544Y-108500000D01*
X179025471Y-108360389D01*
X178987185Y-108276555D01*
X178966880Y-108232092D01*
X178966878Y-108232090D01*
X178966878Y-108232089D01*
X178874512Y-108125493D01*
X178849280Y-108109277D01*
X178797460Y-108075974D01*
X178751705Y-108023170D01*
X178740500Y-107971659D01*
X178740500Y-83911273D01*
X178760185Y-83844234D01*
X178812989Y-83798479D01*
X178882147Y-83788535D01*
X178945703Y-83817560D01*
X178974983Y-83854975D01*
X179018674Y-83940723D01*
X179018676Y-83940725D01*
X179018678Y-83940728D01*
X179109271Y-84031321D01*
X179109273Y-84031322D01*
X179109277Y-84031326D01*
X179223445Y-84089498D01*
X179223446Y-84089498D01*
X179223448Y-84089499D01*
X179349997Y-84109542D01*
X179350000Y-84109542D01*
X179350003Y-84109542D01*
X179476551Y-84089499D01*
X179476552Y-84089498D01*
X179476555Y-84089498D01*
X179590723Y-84031326D01*
X179596558Y-84025491D01*
X179688227Y-83933823D01*
X179689340Y-83934936D01*
X179736000Y-83898952D01*
X179780996Y-83890500D01*
X184696565Y-83890500D01*
X184714139Y-83893486D01*
X184714239Y-83892606D01*
X184728121Y-83894170D01*
X184728121Y-83894169D01*
X184728122Y-83894170D01*
X184753772Y-83891279D01*
X184767655Y-83890500D01*
X184771459Y-83890500D01*
X184771463Y-83890500D01*
X184775184Y-83889650D01*
X184788867Y-83887325D01*
X184814536Y-83884433D01*
X184814539Y-83884430D01*
X184824906Y-83880803D01*
X184834778Y-83876048D01*
X184834780Y-83876048D01*
X184854965Y-83859951D01*
X184866303Y-83851905D01*
X184869527Y-83849880D01*
X184872219Y-83847187D01*
X184882577Y-83837930D01*
X184897294Y-83826194D01*
X184961980Y-83799789D01*
X184993997Y-83800671D01*
X185050000Y-83809542D01*
X185050003Y-83809542D01*
X185176551Y-83789499D01*
X185176552Y-83789498D01*
X185176555Y-83789498D01*
X185290723Y-83731326D01*
X185381326Y-83640723D01*
X185439498Y-83526555D01*
X185439499Y-83526551D01*
X185459542Y-83400003D01*
X185459542Y-83399996D01*
X185439499Y-83273448D01*
X185439498Y-83273446D01*
X185439498Y-83273445D01*
X185381326Y-83159277D01*
X185381322Y-83159273D01*
X185381321Y-83159271D01*
X185290728Y-83068678D01*
X185290725Y-83068676D01*
X185290723Y-83068674D01*
X185176555Y-83010502D01*
X185176554Y-83010501D01*
X185176551Y-83010500D01*
X185050003Y-82990458D01*
X185049997Y-82990458D01*
X184923448Y-83010500D01*
X184867493Y-83039011D01*
X184809277Y-83068674D01*
X184809276Y-83068675D01*
X184809271Y-83068678D01*
X184718678Y-83159271D01*
X184718675Y-83159276D01*
X184718674Y-83159277D01*
X184689011Y-83217493D01*
X184660500Y-83273448D01*
X184639682Y-83404897D01*
X184609753Y-83468032D01*
X184550442Y-83504964D01*
X184517209Y-83509500D01*
X179780996Y-83509500D01*
X179713957Y-83489815D01*
X179688568Y-83465835D01*
X179688227Y-83466177D01*
X179590728Y-83368678D01*
X179590725Y-83368676D01*
X179590723Y-83368674D01*
X179476555Y-83310502D01*
X179476554Y-83310501D01*
X179476551Y-83310500D01*
X179350003Y-83290458D01*
X179349997Y-83290458D01*
X179223448Y-83310500D01*
X179191947Y-83326551D01*
X179109277Y-83368674D01*
X179109276Y-83368675D01*
X179109271Y-83368678D01*
X179018678Y-83459271D01*
X179018673Y-83459278D01*
X178974984Y-83545022D01*
X178927010Y-83595817D01*
X178859189Y-83612612D01*
X178793054Y-83590074D01*
X178749603Y-83535359D01*
X178740500Y-83488726D01*
X178740500Y-81553404D01*
X178760185Y-81486365D01*
X178812989Y-81440610D01*
X178882147Y-81430666D01*
X178931540Y-81449089D01*
X178934144Y-81450763D01*
X178934145Y-81450763D01*
X178934148Y-81450765D01*
X179069474Y-81490499D01*
X179069476Y-81490500D01*
X179069477Y-81490500D01*
X179210524Y-81490500D01*
X179210524Y-81490499D01*
X179315542Y-81459663D01*
X179345853Y-81450764D01*
X179345854Y-81450764D01*
X179348458Y-81449091D01*
X179464512Y-81374507D01*
X179556878Y-81267911D01*
X179559125Y-81262991D01*
X179604878Y-81210186D01*
X179671917Y-81190500D01*
X183618080Y-81190500D01*
X183685119Y-81210185D01*
X183730874Y-81262989D01*
X183730875Y-81262991D01*
X183733120Y-81267908D01*
X183733121Y-81267909D01*
X183733122Y-81267911D01*
X183825488Y-81374507D01*
X183825490Y-81374508D01*
X183825489Y-81374508D01*
X183944145Y-81450764D01*
X184079474Y-81490499D01*
X184079476Y-81490500D01*
X184079477Y-81490500D01*
X184220524Y-81490500D01*
X184220524Y-81490499D01*
X184325542Y-81459663D01*
X184355853Y-81450764D01*
X184355854Y-81450764D01*
X184358458Y-81449091D01*
X184474512Y-81374507D01*
X184566878Y-81267911D01*
X184625471Y-81139611D01*
X184645544Y-81000000D01*
X184625471Y-80860389D01*
X184593241Y-80789815D01*
X184566880Y-80732092D01*
X184566878Y-80732090D01*
X184566878Y-80732089D01*
X184474512Y-80625493D01*
X184474509Y-80625491D01*
X184474510Y-80625491D01*
X184355854Y-80549235D01*
X184220525Y-80509500D01*
X184220523Y-80509500D01*
X184079477Y-80509500D01*
X184079474Y-80509500D01*
X183944146Y-80549235D01*
X183944145Y-80549235D01*
X183825489Y-80625491D01*
X183733122Y-80732089D01*
X183733120Y-80732091D01*
X183730875Y-80737009D01*
X183685122Y-80789814D01*
X183618083Y-80809500D01*
X179671920Y-80809500D01*
X179604881Y-80789815D01*
X179559126Y-80737011D01*
X179559125Y-80737009D01*
X179556879Y-80732091D01*
X179556878Y-80732090D01*
X179556878Y-80732089D01*
X179464512Y-80625493D01*
X179464509Y-80625491D01*
X179464510Y-80625491D01*
X179345854Y-80549235D01*
X179210525Y-80509500D01*
X179210523Y-80509500D01*
X179069477Y-80509500D01*
X179069474Y-80509500D01*
X178934146Y-80549235D01*
X178934144Y-80549236D01*
X178931537Y-80550912D01*
X178928565Y-80551784D01*
X178926079Y-80552920D01*
X178925915Y-80552562D01*
X178864497Y-80570595D01*
X178797458Y-80550909D01*
X178751704Y-80498103D01*
X178740500Y-80446595D01*
X178740500Y-78228340D01*
X178760185Y-78161301D01*
X178797458Y-78124026D01*
X178874512Y-78074507D01*
X178966878Y-77967911D01*
X179025471Y-77839611D01*
X179045544Y-77700000D01*
X179025471Y-77560389D01*
X178978671Y-77457911D01*
X178966880Y-77432092D01*
X178966878Y-77432090D01*
X178966878Y-77432089D01*
X178874512Y-77325493D01*
X178874509Y-77325491D01*
X178874510Y-77325491D01*
X178755854Y-77249235D01*
X178620525Y-77209500D01*
X178620523Y-77209500D01*
X178479477Y-77209500D01*
X178479474Y-77209500D01*
X178344146Y-77249235D01*
X178344145Y-77249235D01*
X178225489Y-77325491D01*
X178133122Y-77432089D01*
X178133119Y-77432092D01*
X178074530Y-77560385D01*
X178074528Y-77560393D01*
X178054456Y-77700000D01*
X178074528Y-77839606D01*
X178074530Y-77839614D01*
X178133119Y-77967907D01*
X178133121Y-77967909D01*
X178133122Y-77967911D01*
X178225488Y-78074507D01*
X178302540Y-78124026D01*
X178348294Y-78176828D01*
X178359500Y-78228340D01*
X178359500Y-107971659D01*
X178339815Y-108038698D01*
X178302540Y-108075974D01*
X178225490Y-108125491D01*
X178225488Y-108125492D01*
X178225488Y-108125493D01*
X178204256Y-108149996D01*
X178133122Y-108232089D01*
X178133119Y-108232092D01*
X178074530Y-108360385D01*
X178074528Y-108360393D01*
X178054456Y-108500000D01*
X156863906Y-108500000D01*
X156863906Y-92276161D01*
X156865937Y-92253809D01*
X156868503Y-92239807D01*
X156859067Y-92209529D01*
X156857061Y-92202330D01*
X156854135Y-92190458D01*
X156849475Y-92171550D01*
X156849473Y-92171548D01*
X156849197Y-92171021D01*
X156848406Y-92169113D01*
X156845996Y-92164839D01*
X156844772Y-92163175D01*
X156844465Y-92162667D01*
X156841922Y-92160124D01*
X156822033Y-92140235D01*
X156816932Y-92134816D01*
X156795896Y-92111071D01*
X156795895Y-92111070D01*
X156795892Y-92111067D01*
X156795387Y-92110719D01*
X156778153Y-92096355D01*
X155284397Y-90602599D01*
X155270028Y-90585358D01*
X155261942Y-90573643D01*
X155261939Y-90573641D01*
X155233864Y-90558906D01*
X155227351Y-90555232D01*
X155200222Y-90538833D01*
X155200221Y-90538832D01*
X155200220Y-90538832D01*
X155199649Y-90538654D01*
X155197740Y-90537863D01*
X155193030Y-90536550D01*
X155190991Y-90536240D01*
X155190399Y-90536094D01*
X155158698Y-90536094D01*
X155151211Y-90535868D01*
X155119572Y-90533954D01*
X155119571Y-90533954D01*
X155119570Y-90533954D01*
X155118978Y-90534063D01*
X155096626Y-90536094D01*
X154796454Y-90536094D01*
X154729415Y-90516409D01*
X154685970Y-90468391D01*
X154682617Y-90461811D01*
X154681326Y-90459277D01*
X154681325Y-90459276D01*
X154681324Y-90459274D01*
X154590728Y-90368678D01*
X154590725Y-90368676D01*
X154590723Y-90368674D01*
X154476555Y-90310502D01*
X154476554Y-90310501D01*
X154476551Y-90310500D01*
X154350003Y-90290458D01*
X154349997Y-90290458D01*
X154223448Y-90310500D01*
X154186972Y-90329086D01*
X154109277Y-90368674D01*
X154109276Y-90368675D01*
X154109271Y-90368678D01*
X154018678Y-90459271D01*
X154018675Y-90459276D01*
X154018674Y-90459277D01*
X153994151Y-90507405D01*
X153960500Y-90573448D01*
X153940458Y-90699996D01*
X153940458Y-90700003D01*
X153960500Y-90826551D01*
X153960501Y-90826554D01*
X153960502Y-90826555D01*
X154018674Y-90940723D01*
X154018676Y-90940725D01*
X154018678Y-90940728D01*
X154109271Y-91031321D01*
X154109273Y-91031322D01*
X154109277Y-91031326D01*
X154223445Y-91089498D01*
X154223446Y-91089498D01*
X154223448Y-91089499D01*
X154349997Y-91109542D01*
X154350000Y-91109542D01*
X154350003Y-91109542D01*
X154476551Y-91089499D01*
X154476552Y-91089498D01*
X154476555Y-91089498D01*
X154590723Y-91031326D01*
X154681326Y-90940723D01*
X154685970Y-90931609D01*
X154733945Y-90880814D01*
X154796454Y-90863906D01*
X155030746Y-90863906D01*
X155097785Y-90883591D01*
X155118427Y-90900225D01*
X156499775Y-92281573D01*
X156533260Y-92342896D01*
X156536094Y-92369254D01*
X156536094Y-101692790D01*
X156516409Y-101759829D01*
X156463605Y-101805584D01*
X156394447Y-101815528D01*
X156330891Y-101786503D01*
X156301610Y-101749086D01*
X156297548Y-101741115D01*
X156281326Y-101709277D01*
X156281323Y-101709274D01*
X156281321Y-101709271D01*
X156190728Y-101618678D01*
X156190725Y-101618676D01*
X156190723Y-101618674D01*
X156076555Y-101560502D01*
X156076554Y-101560501D01*
X156076551Y-101560500D01*
X155950003Y-101540458D01*
X155949997Y-101540458D01*
X155823448Y-101560500D01*
X155767493Y-101589011D01*
X155709277Y-101618674D01*
X155709276Y-101618675D01*
X155709271Y-101618678D01*
X155618678Y-101709271D01*
X155618675Y-101709276D01*
X155618674Y-101709277D01*
X155598390Y-101749086D01*
X155560500Y-101823448D01*
X155540458Y-101949996D01*
X155540458Y-101950003D01*
X155549734Y-102008571D01*
X155540779Y-102077864D01*
X155514942Y-102115649D01*
X155257410Y-102373182D01*
X155196090Y-102406666D01*
X155169731Y-102409500D01*
X142335742Y-102409500D01*
X142318167Y-102406513D01*
X142318068Y-102407394D01*
X142304185Y-102405829D01*
X142282357Y-102408289D01*
X142278534Y-102408720D01*
X142264652Y-102409500D01*
X142260840Y-102409500D01*
X142257115Y-102410350D01*
X142243428Y-102412675D01*
X142217772Y-102415566D01*
X142207406Y-102419193D01*
X142197526Y-102423951D01*
X142177334Y-102440053D01*
X142166020Y-102448082D01*
X142162784Y-102450116D01*
X142162776Y-102450122D01*
X142160078Y-102452820D01*
X142149726Y-102462070D01*
X142129537Y-102478171D01*
X142120828Y-102489092D01*
X142120137Y-102488541D01*
X142109821Y-102503076D01*
X141880594Y-102732304D01*
X141819271Y-102765789D01*
X141749580Y-102760805D01*
X141693646Y-102718934D01*
X141680123Y-102696143D01*
X141623886Y-102573001D01*
X141531520Y-102466405D01*
X141531517Y-102466403D01*
X141531518Y-102466403D01*
X141412862Y-102390147D01*
X141277533Y-102350412D01*
X141277531Y-102350412D01*
X141136485Y-102350412D01*
X141136482Y-102350412D01*
X141001154Y-102390147D01*
X141001153Y-102390147D01*
X140882497Y-102466403D01*
X140790130Y-102573001D01*
X140790127Y-102573004D01*
X140731538Y-102701297D01*
X140731536Y-102701305D01*
X140711464Y-102840912D01*
X140731536Y-102980518D01*
X140731538Y-102980526D01*
X140790127Y-103108819D01*
X140790129Y-103108821D01*
X140790130Y-103108823D01*
X140882496Y-103215419D01*
X140882498Y-103215420D01*
X140882497Y-103215420D01*
X140887562Y-103218675D01*
X141001152Y-103291675D01*
X141048050Y-103305445D01*
X141106826Y-103343218D01*
X141135852Y-103406774D01*
X141125909Y-103475932D01*
X141100796Y-103512102D01*
X140989720Y-103623180D01*
X140928397Y-103656666D01*
X140902038Y-103659500D01*
X136403435Y-103659500D01*
X136385860Y-103656513D01*
X136385761Y-103657394D01*
X136371878Y-103655829D01*
X136350050Y-103658289D01*
X136346227Y-103658720D01*
X136332345Y-103659500D01*
X136328534Y-103659500D01*
X136324804Y-103660351D01*
X136311123Y-103662674D01*
X136285466Y-103665566D01*
X136275109Y-103669189D01*
X136265219Y-103673952D01*
X136245023Y-103690057D01*
X136233708Y-103698086D01*
X136230474Y-103700118D01*
X136230472Y-103700119D01*
X136227776Y-103702816D01*
X136217424Y-103712066D01*
X136197230Y-103728171D01*
X136188521Y-103739092D01*
X136187830Y-103738541D01*
X136177513Y-103753078D01*
X135115649Y-104814942D01*
X135054326Y-104848427D01*
X135008571Y-104849734D01*
X134950003Y-104840458D01*
X134949997Y-104840458D01*
X134823448Y-104860500D01*
X134799917Y-104872490D01*
X134709277Y-104918674D01*
X134709276Y-104918675D01*
X134709271Y-104918678D01*
X134618678Y-105009271D01*
X134618675Y-105009276D01*
X134560500Y-105123448D01*
X134540458Y-105249996D01*
X134540458Y-105250003D01*
X125390500Y-105250003D01*
X125390500Y-99680001D01*
X126004405Y-99680001D01*
X126024698Y-99834149D01*
X126024699Y-99834151D01*
X126084198Y-99977794D01*
X126084199Y-99977795D01*
X126084200Y-99977797D01*
X126178851Y-100101149D01*
X126302203Y-100195800D01*
X126445849Y-100255301D01*
X126503574Y-100262900D01*
X126561298Y-100270500D01*
X126561299Y-100270500D01*
X127738702Y-100270500D01*
X127777184Y-100265433D01*
X127854151Y-100255301D01*
X127997797Y-100195800D01*
X128121149Y-100101149D01*
X128160397Y-100050000D01*
X152504456Y-100050000D01*
X152524528Y-100189606D01*
X152524530Y-100189614D01*
X152583119Y-100317907D01*
X152583121Y-100317909D01*
X152583122Y-100317911D01*
X152675488Y-100424507D01*
X152675490Y-100424508D01*
X152675489Y-100424508D01*
X152794145Y-100500764D01*
X152929474Y-100540499D01*
X152929476Y-100540500D01*
X152929477Y-100540500D01*
X153070524Y-100540500D01*
X153070524Y-100540499D01*
X153205853Y-100500764D01*
X153205854Y-100500764D01*
X153286032Y-100449237D01*
X153324512Y-100424507D01*
X153416878Y-100317911D01*
X153475471Y-100189611D01*
X153495544Y-100050000D01*
X153475471Y-99910389D01*
X153440653Y-99834149D01*
X153416880Y-99782092D01*
X153416878Y-99782090D01*
X153416878Y-99782089D01*
X153324512Y-99675493D01*
X153324509Y-99675491D01*
X153324510Y-99675491D01*
X153205854Y-99599235D01*
X153070525Y-99559500D01*
X153070523Y-99559500D01*
X152929477Y-99559500D01*
X152929474Y-99559500D01*
X152794146Y-99599235D01*
X152794145Y-99599235D01*
X152675489Y-99675491D01*
X152583122Y-99782089D01*
X152583119Y-99782092D01*
X152524530Y-99910385D01*
X152524528Y-99910393D01*
X152504456Y-100050000D01*
X128160397Y-100050000D01*
X128215800Y-99977798D01*
X128275301Y-99834151D01*
X128295595Y-99680000D01*
X128295001Y-99675491D01*
X128279731Y-99559500D01*
X128275301Y-99525849D01*
X128215800Y-99382203D01*
X128121149Y-99258851D01*
X127997797Y-99164200D01*
X127997794Y-99164198D01*
X127854151Y-99104699D01*
X127854149Y-99104698D01*
X127738702Y-99089500D01*
X127738701Y-99089500D01*
X126766146Y-99089500D01*
X126699107Y-99069815D01*
X126653352Y-99017011D01*
X126643408Y-98947853D01*
X126672433Y-98884297D01*
X126731211Y-98846523D01*
X126736463Y-98845104D01*
X126848969Y-98817374D01*
X126980781Y-98748194D01*
X127092207Y-98649480D01*
X127176771Y-98526967D01*
X127229559Y-98387778D01*
X127247502Y-98240000D01*
X127229559Y-98092222D01*
X127176771Y-97953033D01*
X127092207Y-97830520D01*
X126980781Y-97731806D01*
X126848969Y-97662626D01*
X126848968Y-97662625D01*
X126848967Y-97662625D01*
X126760887Y-97640915D01*
X140697466Y-97640915D01*
X140717508Y-97767463D01*
X140717509Y-97767466D01*
X140717510Y-97767467D01*
X140775682Y-97881635D01*
X140775684Y-97881637D01*
X140775686Y-97881640D01*
X140866279Y-97972233D01*
X140866281Y-97972234D01*
X140866285Y-97972238D01*
X140980453Y-98030410D01*
X140980454Y-98030410D01*
X140980456Y-98030411D01*
X141107005Y-98050454D01*
X141107008Y-98050454D01*
X141107011Y-98050454D01*
X141233559Y-98030411D01*
X141233560Y-98030410D01*
X141233563Y-98030410D01*
X141347731Y-97972238D01*
X141438334Y-97881635D01*
X141496506Y-97767467D01*
X141498224Y-97756621D01*
X141516550Y-97640915D01*
X141516550Y-97640908D01*
X141496507Y-97514360D01*
X141496506Y-97514358D01*
X141496506Y-97514357D01*
X141438334Y-97400189D01*
X141438330Y-97400185D01*
X141438329Y-97400183D01*
X141347731Y-97309585D01*
X141343460Y-97307409D01*
X141292665Y-97259433D01*
X141287656Y-97240915D01*
X149597466Y-97240915D01*
X149617508Y-97367463D01*
X149617509Y-97367466D01*
X149617510Y-97367467D01*
X149675682Y-97481635D01*
X149675684Y-97481637D01*
X149675686Y-97481640D01*
X149766279Y-97572233D01*
X149766281Y-97572234D01*
X149766285Y-97572238D01*
X149880453Y-97630410D01*
X149880454Y-97630410D01*
X149880456Y-97630411D01*
X150007005Y-97650454D01*
X150007008Y-97650454D01*
X150007011Y-97650454D01*
X150133559Y-97630411D01*
X150133560Y-97630410D01*
X150133563Y-97630410D01*
X150247731Y-97572238D01*
X150338334Y-97481635D01*
X150396506Y-97367467D01*
X150397154Y-97363378D01*
X150416550Y-97240915D01*
X150416550Y-97240908D01*
X150396507Y-97114360D01*
X150396506Y-97114358D01*
X150396506Y-97114357D01*
X150338334Y-97000189D01*
X150338330Y-97000185D01*
X150338329Y-97000183D01*
X150247736Y-96909590D01*
X150247733Y-96909588D01*
X150247731Y-96909586D01*
X150133563Y-96851414D01*
X150133562Y-96851413D01*
X150133559Y-96851412D01*
X150007011Y-96831370D01*
X150007005Y-96831370D01*
X149880456Y-96851412D01*
X149869054Y-96857222D01*
X149766285Y-96909586D01*
X149766284Y-96909587D01*
X149766279Y-96909590D01*
X149675686Y-97000183D01*
X149675683Y-97000188D01*
X149675682Y-97000189D01*
X149646019Y-97058405D01*
X149617508Y-97114360D01*
X149597466Y-97240908D01*
X149597466Y-97240915D01*
X141287656Y-97240915D01*
X141275758Y-97196926D01*
X141275758Y-95262171D01*
X141295443Y-95195132D01*
X141312072Y-95174494D01*
X142414804Y-94071762D01*
X142476125Y-94038279D01*
X142521880Y-94036972D01*
X142607005Y-94050454D01*
X142607008Y-94050454D01*
X142607011Y-94050454D01*
X142733559Y-94030411D01*
X142733560Y-94030410D01*
X142733563Y-94030410D01*
X142847731Y-93972238D01*
X142931603Y-93888366D01*
X146097466Y-93888366D01*
X146117508Y-94014914D01*
X146117509Y-94014917D01*
X146117510Y-94014918D01*
X146175682Y-94129086D01*
X146175684Y-94129088D01*
X146175686Y-94129091D01*
X146266279Y-94219684D01*
X146266281Y-94219685D01*
X146266285Y-94219689D01*
X146380453Y-94277861D01*
X146380454Y-94277861D01*
X146380456Y-94277862D01*
X146507005Y-94297905D01*
X146507008Y-94297905D01*
X146507011Y-94297905D01*
X146633559Y-94277862D01*
X146633560Y-94277861D01*
X146633563Y-94277861D01*
X146747731Y-94219689D01*
X146838334Y-94129086D01*
X146896506Y-94014918D01*
X146903267Y-93972233D01*
X146916550Y-93888366D01*
X146916550Y-93888359D01*
X146896507Y-93761811D01*
X146896506Y-93761809D01*
X146896506Y-93761808D01*
X146838334Y-93647640D01*
X146838330Y-93647636D01*
X146838329Y-93647634D01*
X146747736Y-93557041D01*
X146747733Y-93557039D01*
X146747731Y-93557037D01*
X146633563Y-93498865D01*
X146633562Y-93498864D01*
X146633559Y-93498863D01*
X146507011Y-93478821D01*
X146507005Y-93478821D01*
X146380456Y-93498863D01*
X146324501Y-93527374D01*
X146266285Y-93557037D01*
X146266284Y-93557038D01*
X146266279Y-93557041D01*
X146175686Y-93647634D01*
X146175683Y-93647639D01*
X146175682Y-93647640D01*
X146161992Y-93674508D01*
X146117508Y-93761811D01*
X146097466Y-93888359D01*
X146097466Y-93888366D01*
X142931603Y-93888366D01*
X142938334Y-93881635D01*
X142996506Y-93767467D01*
X142997402Y-93761811D01*
X143016550Y-93640915D01*
X143016550Y-93640908D01*
X142996507Y-93514360D01*
X142996506Y-93514358D01*
X142996506Y-93514357D01*
X142938334Y-93400189D01*
X142938330Y-93400185D01*
X142938329Y-93400183D01*
X142847736Y-93309590D01*
X142847733Y-93309588D01*
X142847731Y-93309586D01*
X142733563Y-93251414D01*
X142733562Y-93251413D01*
X142733559Y-93251412D01*
X142607011Y-93231370D01*
X142607005Y-93231370D01*
X142480456Y-93251412D01*
X142441533Y-93271245D01*
X142366285Y-93309586D01*
X142366284Y-93309587D01*
X142366279Y-93309590D01*
X142275686Y-93400183D01*
X142275683Y-93400188D01*
X142275682Y-93400189D01*
X142265490Y-93420192D01*
X142217508Y-93514360D01*
X142197466Y-93640908D01*
X142197466Y-93640909D01*
X142197466Y-93640912D01*
X142208871Y-93712926D01*
X142210948Y-93726036D01*
X142201992Y-93795330D01*
X142176155Y-93833114D01*
X141006493Y-95002777D01*
X140989255Y-95017144D01*
X140976916Y-95025661D01*
X140961688Y-95054675D01*
X140958011Y-95061195D01*
X140941077Y-95089206D01*
X140940786Y-95090143D01*
X140940011Y-95092014D01*
X140938797Y-95096369D01*
X140938494Y-95098359D01*
X140938258Y-95099316D01*
X140938258Y-95132059D01*
X140938032Y-95139547D01*
X140936054Y-95172239D01*
X140936226Y-95173176D01*
X140938258Y-95195533D01*
X140938258Y-97196926D01*
X140918573Y-97263965D01*
X140870556Y-97307409D01*
X140866284Y-97309585D01*
X140866284Y-97309586D01*
X140775686Y-97400183D01*
X140775683Y-97400188D01*
X140717508Y-97514360D01*
X140697466Y-97640908D01*
X140697466Y-97640915D01*
X126760887Y-97640915D01*
X126751710Y-97638653D01*
X126704432Y-97627000D01*
X126555568Y-97627000D01*
X126519943Y-97635780D01*
X126411032Y-97662625D01*
X126279220Y-97731805D01*
X126167792Y-97830520D01*
X126083230Y-97953030D01*
X126030440Y-98092222D01*
X126012498Y-98240000D01*
X126030440Y-98387777D01*
X126052261Y-98445312D01*
X126083229Y-98526967D01*
X126167793Y-98649480D01*
X126279219Y-98748194D01*
X126411031Y-98817374D01*
X126544181Y-98850193D01*
X126604562Y-98885350D01*
X126636350Y-98947569D01*
X126629454Y-99017098D01*
X126586062Y-99071860D01*
X126530692Y-99093529D01*
X126445849Y-99104699D01*
X126445848Y-99104699D01*
X126302205Y-99164198D01*
X126302202Y-99164200D01*
X126178849Y-99258852D01*
X126084200Y-99382201D01*
X126084198Y-99382204D01*
X126024699Y-99525848D01*
X126024698Y-99525850D01*
X126004405Y-99679998D01*
X126004405Y-99680001D01*
X125390500Y-99680001D01*
X125390500Y-97150000D01*
X129594456Y-97150000D01*
X129614528Y-97289606D01*
X129614530Y-97289614D01*
X129673119Y-97417907D01*
X129673121Y-97417909D01*
X129673122Y-97417911D01*
X129765488Y-97524507D01*
X129765490Y-97524508D01*
X129765489Y-97524508D01*
X129884145Y-97600764D01*
X130019474Y-97640499D01*
X130019476Y-97640500D01*
X130019477Y-97640500D01*
X130160524Y-97640500D01*
X130160524Y-97640499D01*
X130295853Y-97600764D01*
X130295854Y-97600764D01*
X130340242Y-97572238D01*
X130414512Y-97524507D01*
X130506878Y-97417911D01*
X130565471Y-97289611D01*
X130585544Y-97150000D01*
X130565471Y-97010389D01*
X130538431Y-96951179D01*
X130506880Y-96882092D01*
X130506875Y-96882084D01*
X130460787Y-96828896D01*
X130431762Y-96765341D01*
X130430500Y-96747694D01*
X130430500Y-93552305D01*
X130450185Y-93485266D01*
X130460787Y-93471102D01*
X130475632Y-93453970D01*
X130506878Y-93417911D01*
X130565471Y-93289611D01*
X130585544Y-93150000D01*
X130565471Y-93010389D01*
X130533146Y-92939607D01*
X130506880Y-92882092D01*
X130506878Y-92882090D01*
X130506878Y-92882089D01*
X130435747Y-92800000D01*
X133454456Y-92800000D01*
X133474528Y-92939606D01*
X133474530Y-92939614D01*
X133533119Y-93067907D01*
X133533121Y-93067909D01*
X133533122Y-93067911D01*
X133625488Y-93174507D01*
X133625490Y-93174508D01*
X133625489Y-93174508D01*
X133744145Y-93250764D01*
X133859944Y-93284764D01*
X133876449Y-93289611D01*
X133879474Y-93290499D01*
X133879476Y-93290500D01*
X133879477Y-93290500D01*
X134020523Y-93290500D01*
X134029299Y-93289238D01*
X134029692Y-93291975D01*
X134085357Y-93291968D01*
X134138120Y-93323269D01*
X136290133Y-95475283D01*
X136300449Y-95489821D01*
X136301141Y-95489270D01*
X136309852Y-95500192D01*
X136330035Y-95516288D01*
X136340404Y-95525554D01*
X136343094Y-95528244D01*
X136346321Y-95530271D01*
X136357640Y-95538302D01*
X136376617Y-95553435D01*
X136377845Y-95554414D01*
X136387719Y-95559169D01*
X136398083Y-95562795D01*
X136398085Y-95562796D01*
X136414599Y-95564656D01*
X136423733Y-95565686D01*
X136437446Y-95568016D01*
X136441153Y-95568862D01*
X136441154Y-95568862D01*
X136441158Y-95568863D01*
X136444966Y-95568863D01*
X136458848Y-95569642D01*
X136484499Y-95572533D01*
X136498382Y-95570969D01*
X136498481Y-95571849D01*
X136516056Y-95568863D01*
X137358202Y-95568863D01*
X137375776Y-95571849D01*
X137375876Y-95570969D01*
X137389758Y-95572533D01*
X137389758Y-95572532D01*
X137389759Y-95572533D01*
X137415409Y-95569642D01*
X137429292Y-95568863D01*
X137433096Y-95568863D01*
X137433100Y-95568863D01*
X137436821Y-95568013D01*
X137450504Y-95565688D01*
X137476173Y-95562796D01*
X137476176Y-95562793D01*
X137486543Y-95559166D01*
X137496415Y-95554411D01*
X137496417Y-95554411D01*
X137516602Y-95538314D01*
X137527944Y-95530266D01*
X137531164Y-95528243D01*
X137533856Y-95525550D01*
X137544221Y-95516288D01*
X137564406Y-95500192D01*
X137564407Y-95500189D01*
X137573119Y-95489266D01*
X137573811Y-95489818D01*
X137584125Y-95475280D01*
X140059402Y-93000003D01*
X145140458Y-93000003D01*
X145160500Y-93126551D01*
X145160501Y-93126554D01*
X145160502Y-93126555D01*
X145218674Y-93240723D01*
X145218676Y-93240725D01*
X145218678Y-93240728D01*
X145309271Y-93331321D01*
X145309273Y-93331322D01*
X145309277Y-93331326D01*
X145423445Y-93389498D01*
X145423446Y-93389498D01*
X145423448Y-93389499D01*
X145549997Y-93409542D01*
X145550000Y-93409542D01*
X145550003Y-93409542D01*
X145676551Y-93389499D01*
X145676552Y-93389498D01*
X145676555Y-93389498D01*
X145790723Y-93331326D01*
X145881326Y-93240723D01*
X145939498Y-93126555D01*
X145939499Y-93126551D01*
X145959542Y-93000003D01*
X145959542Y-92999996D01*
X145939499Y-92873448D01*
X145939498Y-92873446D01*
X145939498Y-92873445D01*
X145881326Y-92759277D01*
X145881322Y-92759273D01*
X145881321Y-92759271D01*
X145790728Y-92668678D01*
X145790725Y-92668676D01*
X145790723Y-92668674D01*
X145676555Y-92610502D01*
X145676554Y-92610501D01*
X145676551Y-92610500D01*
X145610271Y-92600003D01*
X146940458Y-92600003D01*
X146960500Y-92726551D01*
X146960501Y-92726554D01*
X146960502Y-92726555D01*
X147018674Y-92840723D01*
X147018676Y-92840725D01*
X147018678Y-92840728D01*
X147109271Y-92931321D01*
X147109273Y-92931322D01*
X147109277Y-92931326D01*
X147223445Y-92989498D01*
X147223446Y-92989498D01*
X147223448Y-92989499D01*
X147349997Y-93009542D01*
X147350000Y-93009542D01*
X147350003Y-93009542D01*
X147476551Y-92989499D01*
X147476552Y-92989498D01*
X147476555Y-92989498D01*
X147590723Y-92931326D01*
X147681326Y-92840723D01*
X147739498Y-92726555D01*
X147739499Y-92726551D01*
X147761069Y-92590362D01*
X147764254Y-92590866D01*
X147779227Y-92539875D01*
X147832031Y-92494120D01*
X147901189Y-92484176D01*
X147921864Y-92488984D01*
X147923439Y-92489495D01*
X147923445Y-92489498D01*
X147923450Y-92489498D01*
X147923451Y-92489499D01*
X148049997Y-92509542D01*
X148050000Y-92509542D01*
X148050003Y-92509542D01*
X148176551Y-92489499D01*
X148176552Y-92489498D01*
X148176555Y-92489498D01*
X148290723Y-92431326D01*
X148296558Y-92425491D01*
X148362319Y-92359731D01*
X148423642Y-92326246D01*
X148493334Y-92331230D01*
X148537681Y-92359731D01*
X148609271Y-92431321D01*
X148609273Y-92431322D01*
X148609277Y-92431326D01*
X148723445Y-92489498D01*
X148723446Y-92489498D01*
X148723448Y-92489499D01*
X148849997Y-92509542D01*
X148850000Y-92509542D01*
X148850003Y-92509542D01*
X148976551Y-92489499D01*
X148976552Y-92489498D01*
X148976555Y-92489498D01*
X149090723Y-92431326D01*
X149181326Y-92340723D01*
X149239498Y-92226555D01*
X149243335Y-92202330D01*
X149259542Y-92100003D01*
X149259542Y-92099996D01*
X149239499Y-91973448D01*
X149239498Y-91973446D01*
X149239498Y-91973445D01*
X149202077Y-91900003D01*
X151540458Y-91900003D01*
X151560500Y-92026551D01*
X151560501Y-92026554D01*
X151560502Y-92026555D01*
X151618674Y-92140723D01*
X151618676Y-92140725D01*
X151618678Y-92140728D01*
X151709271Y-92231321D01*
X151709273Y-92231322D01*
X151709277Y-92231326D01*
X151823445Y-92289498D01*
X151823446Y-92289498D01*
X151823448Y-92289499D01*
X151949997Y-92309542D01*
X151950000Y-92309542D01*
X151950003Y-92309542D01*
X152076551Y-92289499D01*
X152076552Y-92289498D01*
X152076555Y-92289498D01*
X152190723Y-92231326D01*
X152281326Y-92140723D01*
X152339498Y-92026555D01*
X152339499Y-92026551D01*
X152359542Y-91900003D01*
X152359542Y-91899996D01*
X152339499Y-91773448D01*
X152339498Y-91773446D01*
X152339498Y-91773445D01*
X152281326Y-91659277D01*
X152281322Y-91659273D01*
X152281321Y-91659271D01*
X152190728Y-91568678D01*
X152190725Y-91568676D01*
X152190723Y-91568674D01*
X152076555Y-91510502D01*
X152076554Y-91510501D01*
X152076551Y-91510500D01*
X151950003Y-91490458D01*
X151949997Y-91490458D01*
X151823448Y-91510500D01*
X151782586Y-91531321D01*
X151709277Y-91568674D01*
X151709276Y-91568675D01*
X151709271Y-91568678D01*
X151618678Y-91659271D01*
X151618675Y-91659276D01*
X151618674Y-91659277D01*
X151592574Y-91710500D01*
X151560500Y-91773448D01*
X151540458Y-91899996D01*
X151540458Y-91900003D01*
X149202077Y-91900003D01*
X149181326Y-91859277D01*
X149181322Y-91859273D01*
X149181321Y-91859271D01*
X149090728Y-91768678D01*
X149090724Y-91768675D01*
X149090723Y-91768674D01*
X149088458Y-91767520D01*
X149033128Y-91739327D01*
X148982332Y-91691352D01*
X148965538Y-91623531D01*
X148988076Y-91557396D01*
X149042792Y-91513945D01*
X149070017Y-91506371D01*
X149176555Y-91489498D01*
X149290723Y-91431326D01*
X149381326Y-91340723D01*
X149439498Y-91226555D01*
X149439499Y-91226551D01*
X149459542Y-91100003D01*
X149459542Y-91099996D01*
X149439499Y-90973448D01*
X149439498Y-90973446D01*
X149439498Y-90973445D01*
X149381326Y-90859277D01*
X149381322Y-90859273D01*
X149381321Y-90859271D01*
X149290728Y-90768678D01*
X149290725Y-90768676D01*
X149290723Y-90768674D01*
X149176555Y-90710502D01*
X149176554Y-90710501D01*
X149176551Y-90710500D01*
X149050003Y-90690458D01*
X149049997Y-90690458D01*
X148923448Y-90710500D01*
X148880855Y-90732203D01*
X148809277Y-90768674D01*
X148809276Y-90768675D01*
X148809271Y-90768678D01*
X148718678Y-90859271D01*
X148718675Y-90859276D01*
X148718674Y-90859277D01*
X148697923Y-90900003D01*
X148660500Y-90973448D01*
X148640458Y-91099996D01*
X148640458Y-91100003D01*
X148660500Y-91226551D01*
X148660501Y-91226554D01*
X148660502Y-91226555D01*
X148718674Y-91340723D01*
X148718676Y-91340725D01*
X148718678Y-91340728D01*
X148809271Y-91431321D01*
X148809274Y-91431323D01*
X148809277Y-91431326D01*
X148854471Y-91454354D01*
X148866871Y-91460672D01*
X148917666Y-91508646D01*
X148934461Y-91576467D01*
X148911923Y-91642602D01*
X148857208Y-91686053D01*
X148829973Y-91693629D01*
X148723447Y-91710500D01*
X148666873Y-91739327D01*
X148609277Y-91768674D01*
X148609276Y-91768675D01*
X148609271Y-91768678D01*
X148537681Y-91840269D01*
X148476358Y-91873754D01*
X148406666Y-91868770D01*
X148362319Y-91840269D01*
X148290728Y-91768678D01*
X148290725Y-91768676D01*
X148290723Y-91768674D01*
X148176555Y-91710502D01*
X148176554Y-91710501D01*
X148176551Y-91710500D01*
X148050003Y-91690458D01*
X148049997Y-91690458D01*
X147923448Y-91710500D01*
X147919541Y-91712491D01*
X147809277Y-91768674D01*
X147809276Y-91768675D01*
X147809271Y-91768678D01*
X147718678Y-91859271D01*
X147718675Y-91859276D01*
X147718674Y-91859277D01*
X147697923Y-91900003D01*
X147660500Y-91973448D01*
X147638931Y-92109638D01*
X147635745Y-92109133D01*
X147620773Y-92160124D01*
X147567969Y-92205879D01*
X147498811Y-92215823D01*
X147478146Y-92211018D01*
X147476555Y-92210501D01*
X147350003Y-92190458D01*
X147349997Y-92190458D01*
X147223448Y-92210500D01*
X147167493Y-92239011D01*
X147109277Y-92268674D01*
X147109276Y-92268675D01*
X147109271Y-92268678D01*
X147018678Y-92359271D01*
X147018675Y-92359276D01*
X147018674Y-92359277D01*
X146989011Y-92417493D01*
X146960500Y-92473448D01*
X146940458Y-92599996D01*
X146940458Y-92600003D01*
X145610271Y-92600003D01*
X145550003Y-92590458D01*
X145549997Y-92590458D01*
X145423448Y-92610500D01*
X145403340Y-92620746D01*
X145309277Y-92668674D01*
X145309276Y-92668675D01*
X145309271Y-92668678D01*
X145218678Y-92759271D01*
X145218675Y-92759276D01*
X145218674Y-92759277D01*
X145193084Y-92809500D01*
X145160500Y-92873448D01*
X145140458Y-92999996D01*
X145140458Y-93000003D01*
X140059402Y-93000003D01*
X141346917Y-91712488D01*
X141361455Y-91702174D01*
X141360903Y-91701482D01*
X141371826Y-91692770D01*
X141371829Y-91692769D01*
X141387930Y-91672577D01*
X141397187Y-91662219D01*
X141399880Y-91659527D01*
X141401905Y-91656303D01*
X141409951Y-91644965D01*
X141412911Y-91641253D01*
X141426048Y-91624780D01*
X141426048Y-91624778D01*
X141430803Y-91614906D01*
X141434430Y-91604539D01*
X141434433Y-91604536D01*
X141437325Y-91578867D01*
X141439650Y-91565184D01*
X141440500Y-91561463D01*
X141440500Y-91557655D01*
X141441280Y-91543769D01*
X141444170Y-91518122D01*
X141442606Y-91504243D01*
X141443486Y-91504143D01*
X141440500Y-91486567D01*
X141440500Y-91330996D01*
X141460185Y-91263957D01*
X141484164Y-91238568D01*
X141483823Y-91238227D01*
X141522047Y-91200003D01*
X145440458Y-91200003D01*
X145460500Y-91326551D01*
X145460501Y-91326554D01*
X145460502Y-91326555D01*
X145518674Y-91440723D01*
X145518676Y-91440725D01*
X145518678Y-91440728D01*
X145609271Y-91531321D01*
X145609273Y-91531322D01*
X145609277Y-91531326D01*
X145723445Y-91589498D01*
X145723446Y-91589498D01*
X145723448Y-91589499D01*
X145849997Y-91609542D01*
X145850000Y-91609542D01*
X145850003Y-91609542D01*
X145976551Y-91589499D01*
X145976552Y-91589498D01*
X145976555Y-91589498D01*
X146090723Y-91531326D01*
X146181326Y-91440723D01*
X146239498Y-91326555D01*
X146242916Y-91304975D01*
X146259542Y-91200003D01*
X146259542Y-91199996D01*
X146239499Y-91073448D01*
X146239498Y-91073446D01*
X146239498Y-91073445D01*
X146181326Y-90959277D01*
X146181322Y-90959273D01*
X146181321Y-90959271D01*
X146090728Y-90868678D01*
X146090725Y-90868676D01*
X146090723Y-90868674D01*
X145976555Y-90810502D01*
X145976554Y-90810501D01*
X145976547Y-90810498D01*
X145970958Y-90808682D01*
X145913285Y-90769241D01*
X145886091Y-90704881D01*
X145898010Y-90636035D01*
X145945258Y-90584562D01*
X145958851Y-90577473D01*
X146028292Y-90546557D01*
X146181350Y-90435352D01*
X146181353Y-90435350D01*
X146307941Y-90294759D01*
X146307943Y-90294756D01*
X146402530Y-90130925D01*
X146402534Y-90130916D01*
X146440900Y-90012841D01*
X145825814Y-90012841D01*
X145825814Y-90688382D01*
X145806129Y-90755421D01*
X145753325Y-90801176D01*
X145732699Y-90807392D01*
X145732729Y-90807485D01*
X145723448Y-90810500D01*
X145691947Y-90826551D01*
X145609277Y-90868674D01*
X145609276Y-90868675D01*
X145609271Y-90868678D01*
X145518678Y-90959271D01*
X145518675Y-90959276D01*
X145518674Y-90959277D01*
X145489011Y-91017493D01*
X145460500Y-91073448D01*
X145440458Y-91199996D01*
X145440458Y-91200003D01*
X141522047Y-91200003D01*
X141581321Y-91140728D01*
X141581326Y-91140723D01*
X141639498Y-91026555D01*
X141644036Y-90997905D01*
X141659542Y-90900003D01*
X141659542Y-90899996D01*
X141639499Y-90773448D01*
X141639498Y-90773446D01*
X141639498Y-90773445D01*
X141581326Y-90659277D01*
X141581322Y-90659273D01*
X141581321Y-90659271D01*
X141483823Y-90561773D01*
X141486271Y-90559324D01*
X141454328Y-90517908D01*
X141448341Y-90448296D01*
X141480940Y-90386497D01*
X141482123Y-90385296D01*
X141538334Y-90329086D01*
X141596506Y-90214918D01*
X141599049Y-90198863D01*
X141616550Y-90088366D01*
X141616550Y-90088359D01*
X141604589Y-90012841D01*
X144710728Y-90012841D01*
X144749093Y-90130916D01*
X144749097Y-90130925D01*
X144843684Y-90294756D01*
X144843686Y-90294759D01*
X144970274Y-90435350D01*
X144970277Y-90435352D01*
X145123336Y-90546558D01*
X145296170Y-90623507D01*
X145325813Y-90629807D01*
X145325814Y-90629807D01*
X145325814Y-90012841D01*
X144710728Y-90012841D01*
X141604589Y-90012841D01*
X141596507Y-89961811D01*
X141596506Y-89961809D01*
X141596506Y-89961808D01*
X141538334Y-89847640D01*
X141538330Y-89847636D01*
X141538329Y-89847634D01*
X141447736Y-89757041D01*
X141447733Y-89757039D01*
X141447731Y-89757037D01*
X141416485Y-89741116D01*
X145396891Y-89741116D01*
X145407289Y-89826754D01*
X145456295Y-89897750D01*
X145532680Y-89937841D01*
X145597061Y-89937841D01*
X145659574Y-89922433D01*
X145724146Y-89865227D01*
X145754737Y-89784566D01*
X145744339Y-89698928D01*
X145695333Y-89627932D01*
X145618948Y-89587841D01*
X145554567Y-89587841D01*
X145492054Y-89603249D01*
X145427482Y-89660455D01*
X145396891Y-89741116D01*
X141416485Y-89741116D01*
X141333563Y-89698865D01*
X141333562Y-89698864D01*
X141333559Y-89698863D01*
X141207011Y-89678821D01*
X141207005Y-89678821D01*
X141080456Y-89698863D01*
X141035154Y-89721946D01*
X140966285Y-89757037D01*
X140966284Y-89757038D01*
X140966279Y-89757041D01*
X140875686Y-89847634D01*
X140875683Y-89847639D01*
X140875682Y-89847640D01*
X140846019Y-89905856D01*
X140817508Y-89961811D01*
X140797466Y-90088359D01*
X140797466Y-90088366D01*
X140806742Y-90146934D01*
X140797787Y-90216227D01*
X140771950Y-90254012D01*
X140505185Y-90520776D01*
X140443862Y-90554261D01*
X140374170Y-90549277D01*
X140318237Y-90507405D01*
X140302502Y-90470123D01*
X140299523Y-90471092D01*
X140296507Y-90461811D01*
X140296506Y-90461809D01*
X140296506Y-90461808D01*
X140238334Y-90347640D01*
X140238330Y-90347636D01*
X140238329Y-90347634D01*
X140147736Y-90257041D01*
X140147733Y-90257039D01*
X140147731Y-90257037D01*
X140033563Y-90198865D01*
X140033562Y-90198864D01*
X140033559Y-90198863D01*
X139907011Y-90178821D01*
X139907005Y-90178821D01*
X139780456Y-90198863D01*
X139748955Y-90214914D01*
X139666285Y-90257037D01*
X139666284Y-90257038D01*
X139666279Y-90257041D01*
X139575686Y-90347634D01*
X139575683Y-90347639D01*
X139517508Y-90461811D01*
X139497466Y-90588359D01*
X139497466Y-90588366D01*
X139517508Y-90714914D01*
X139517509Y-90714917D01*
X139517510Y-90714918D01*
X139575682Y-90829086D01*
X139575684Y-90829088D01*
X139575686Y-90829091D01*
X139666279Y-90919684D01*
X139666281Y-90919685D01*
X139666285Y-90919689D01*
X139780453Y-90977861D01*
X139780454Y-90977861D01*
X139780456Y-90977862D01*
X139789737Y-90980878D01*
X139788514Y-90984639D01*
X139834184Y-91006237D01*
X139871172Y-91065513D01*
X139870241Y-91135376D01*
X139839421Y-91186540D01*
X137954420Y-93071544D01*
X137893097Y-93105029D01*
X137866739Y-93107863D01*
X135881173Y-93107863D01*
X135814134Y-93088178D01*
X135771879Y-93039415D01*
X135771672Y-93039549D01*
X135770744Y-93038105D01*
X135768380Y-93035377D01*
X135766879Y-93032091D01*
X135766878Y-93032090D01*
X135766878Y-93032089D01*
X135674512Y-92925493D01*
X135674509Y-92925491D01*
X135674510Y-92925491D01*
X135555854Y-92849235D01*
X135420525Y-92809500D01*
X135420523Y-92809500D01*
X135279477Y-92809500D01*
X135279474Y-92809500D01*
X135144146Y-92849235D01*
X135144145Y-92849235D01*
X135025489Y-92925491D01*
X134933122Y-93032089D01*
X134933119Y-93032092D01*
X134874530Y-93160385D01*
X134874528Y-93160393D01*
X134864469Y-93230352D01*
X134835443Y-93293908D01*
X134776665Y-93331682D01*
X134706795Y-93331681D01*
X134654050Y-93300385D01*
X134444904Y-93091239D01*
X134411419Y-93029916D01*
X134416403Y-92960224D01*
X134419784Y-92952061D01*
X134425471Y-92939611D01*
X134445544Y-92800000D01*
X134425471Y-92660389D01*
X134401444Y-92607777D01*
X134366880Y-92532092D01*
X134366878Y-92532090D01*
X134366878Y-92532089D01*
X134274512Y-92425493D01*
X134274509Y-92425491D01*
X134274510Y-92425491D01*
X134155854Y-92349235D01*
X134020525Y-92309500D01*
X134020523Y-92309500D01*
X133879477Y-92309500D01*
X133879474Y-92309500D01*
X133744146Y-92349235D01*
X133744145Y-92349235D01*
X133625489Y-92425491D01*
X133533122Y-92532089D01*
X133533119Y-92532092D01*
X133474530Y-92660385D01*
X133474528Y-92660393D01*
X133454456Y-92800000D01*
X130435747Y-92800000D01*
X130414512Y-92775493D01*
X130414509Y-92775491D01*
X130414510Y-92775491D01*
X130295854Y-92699235D01*
X130160525Y-92659500D01*
X130160523Y-92659500D01*
X130019477Y-92659500D01*
X130019474Y-92659500D01*
X129884146Y-92699235D01*
X129884145Y-92699235D01*
X129765489Y-92775491D01*
X129673122Y-92882089D01*
X129673119Y-92882092D01*
X129614530Y-93010385D01*
X129614528Y-93010393D01*
X129594456Y-93150000D01*
X129614528Y-93289606D01*
X129614530Y-93289614D01*
X129673118Y-93417904D01*
X129673120Y-93417908D01*
X129673122Y-93417911D01*
X129701155Y-93450263D01*
X129719213Y-93471102D01*
X129748238Y-93534657D01*
X129749500Y-93552305D01*
X129749500Y-96747694D01*
X129729815Y-96814733D01*
X129719213Y-96828896D01*
X129673124Y-96882084D01*
X129673119Y-96882092D01*
X129614530Y-97010385D01*
X129614528Y-97010393D01*
X129594456Y-97150000D01*
X125390500Y-97150000D01*
X125390500Y-91030001D01*
X126004405Y-91030001D01*
X126024698Y-91184149D01*
X126024699Y-91184151D01*
X126084198Y-91327794D01*
X126084199Y-91327795D01*
X126084200Y-91327797D01*
X126178851Y-91451149D01*
X126302203Y-91545800D01*
X126445849Y-91605301D01*
X126504246Y-91612989D01*
X126568141Y-91641253D01*
X126606613Y-91699577D01*
X126607445Y-91769442D01*
X126570373Y-91828666D01*
X126517737Y-91856323D01*
X126411035Y-91882624D01*
X126411034Y-91882624D01*
X126279220Y-91951805D01*
X126167792Y-92050520D01*
X126083230Y-92173030D01*
X126030440Y-92312222D01*
X126012498Y-92460000D01*
X126030440Y-92607777D01*
X126054838Y-92672108D01*
X126079141Y-92736189D01*
X126083230Y-92746969D01*
X126157932Y-92855194D01*
X126167793Y-92869480D01*
X126279219Y-92968194D01*
X126411031Y-93037374D01*
X126555568Y-93073000D01*
X126555569Y-93073000D01*
X126704431Y-93073000D01*
X126704432Y-93073000D01*
X126848969Y-93037374D01*
X126980781Y-92968194D01*
X127092207Y-92869480D01*
X127176771Y-92746967D01*
X127229559Y-92607778D01*
X127247502Y-92460000D01*
X127229559Y-92312222D01*
X127176771Y-92173033D01*
X127092207Y-92050520D01*
X126980781Y-91951806D01*
X126848969Y-91882626D01*
X126848968Y-91882625D01*
X126848967Y-91882625D01*
X126777041Y-91864897D01*
X126716661Y-91829740D01*
X126684873Y-91767520D01*
X126691769Y-91697992D01*
X126735161Y-91643229D01*
X126801271Y-91620620D01*
X126806717Y-91620500D01*
X127738702Y-91620500D01*
X127781192Y-91614906D01*
X127854151Y-91605301D01*
X127866941Y-91600003D01*
X131680458Y-91600003D01*
X131700500Y-91726551D01*
X131700501Y-91726554D01*
X131700502Y-91726555D01*
X131758674Y-91840723D01*
X131758676Y-91840725D01*
X131758678Y-91840728D01*
X131849271Y-91931321D01*
X131849273Y-91931322D01*
X131849277Y-91931326D01*
X131963445Y-91989498D01*
X131963446Y-91989498D01*
X131963448Y-91989499D01*
X132089997Y-92009542D01*
X132090000Y-92009542D01*
X132090003Y-92009542D01*
X132216551Y-91989499D01*
X132216552Y-91989498D01*
X132216555Y-91989498D01*
X132330723Y-91931326D01*
X132421326Y-91840723D01*
X132479498Y-91726555D01*
X132479499Y-91726551D01*
X132499542Y-91600003D01*
X132499542Y-91599996D01*
X132479499Y-91473448D01*
X132479498Y-91473446D01*
X132479498Y-91473445D01*
X132421326Y-91359277D01*
X132421322Y-91359273D01*
X132421321Y-91359271D01*
X132330728Y-91268678D01*
X132330725Y-91268676D01*
X132330723Y-91268674D01*
X132216555Y-91210502D01*
X132216554Y-91210501D01*
X132216551Y-91210500D01*
X132090003Y-91190458D01*
X132089997Y-91190458D01*
X131963448Y-91210500D01*
X131941925Y-91221467D01*
X131849277Y-91268674D01*
X131849276Y-91268675D01*
X131849271Y-91268678D01*
X131758678Y-91359271D01*
X131758675Y-91359276D01*
X131700500Y-91473448D01*
X131680458Y-91599996D01*
X131680458Y-91600003D01*
X127866941Y-91600003D01*
X127997797Y-91545800D01*
X128121149Y-91451149D01*
X128215800Y-91327798D01*
X128275301Y-91184151D01*
X128291741Y-91059276D01*
X128295595Y-91030001D01*
X128295595Y-91029998D01*
X128275301Y-90875850D01*
X128275301Y-90875849D01*
X128215800Y-90732203D01*
X128121149Y-90608851D01*
X127997797Y-90514200D01*
X127997794Y-90514198D01*
X127854151Y-90454699D01*
X127854149Y-90454698D01*
X127738702Y-90439500D01*
X127738701Y-90439500D01*
X126561299Y-90439500D01*
X126561298Y-90439500D01*
X126445850Y-90454698D01*
X126445848Y-90454699D01*
X126302205Y-90514198D01*
X126302202Y-90514200D01*
X126178849Y-90608852D01*
X126084200Y-90732201D01*
X126084198Y-90732204D01*
X126024699Y-90875848D01*
X126024698Y-90875850D01*
X126004405Y-91029998D01*
X126004405Y-91030001D01*
X125390500Y-91030001D01*
X125390500Y-88888366D01*
X139497466Y-88888366D01*
X139517508Y-89014914D01*
X139517509Y-89014917D01*
X139517510Y-89014918D01*
X139575682Y-89129086D01*
X139575684Y-89129088D01*
X139575686Y-89129091D01*
X139666279Y-89219684D01*
X139666281Y-89219685D01*
X139666285Y-89219689D01*
X139780453Y-89277861D01*
X139780454Y-89277861D01*
X139780456Y-89277862D01*
X139907005Y-89297905D01*
X139907008Y-89297905D01*
X139907011Y-89297905D01*
X140033559Y-89277862D01*
X140033560Y-89277861D01*
X140033563Y-89277861D01*
X140147731Y-89219689D01*
X140238334Y-89129086D01*
X140247407Y-89111280D01*
X143809167Y-89111280D01*
X143847532Y-89229355D01*
X143847536Y-89229364D01*
X143942123Y-89393195D01*
X143942125Y-89393198D01*
X144068713Y-89533789D01*
X144068716Y-89533791D01*
X144221775Y-89644997D01*
X144394609Y-89721946D01*
X144424252Y-89728246D01*
X144424253Y-89728246D01*
X144424253Y-89111280D01*
X144924253Y-89111280D01*
X144924253Y-89512841D01*
X145325814Y-89512841D01*
X145325814Y-89111280D01*
X145825814Y-89111280D01*
X145825814Y-89512841D01*
X146227375Y-89512841D01*
X146227375Y-89111280D01*
X146727375Y-89111280D01*
X146727375Y-89728246D01*
X146757018Y-89721946D01*
X146929852Y-89644997D01*
X147082911Y-89533791D01*
X147082914Y-89533789D01*
X147209502Y-89393198D01*
X147209504Y-89393195D01*
X147304091Y-89229364D01*
X147304095Y-89229355D01*
X147342461Y-89111280D01*
X146727375Y-89111280D01*
X146227375Y-89111280D01*
X145825814Y-89111280D01*
X145325814Y-89111280D01*
X144924253Y-89111280D01*
X144424253Y-89111280D01*
X143809167Y-89111280D01*
X140247407Y-89111280D01*
X140296506Y-89014918D01*
X140296507Y-89014914D01*
X140316550Y-88888366D01*
X140316550Y-88888359D01*
X140308820Y-88839555D01*
X144495330Y-88839555D01*
X144505728Y-88925193D01*
X144554734Y-88996189D01*
X144631119Y-89036280D01*
X144695500Y-89036280D01*
X144758013Y-89020872D01*
X144822585Y-88963666D01*
X144853176Y-88883005D01*
X144847900Y-88839555D01*
X146298452Y-88839555D01*
X146308850Y-88925193D01*
X146357856Y-88996189D01*
X146434241Y-89036280D01*
X146498622Y-89036280D01*
X146561135Y-89020872D01*
X146625707Y-88963666D01*
X146656298Y-88883005D01*
X146649460Y-88826685D01*
X147628936Y-88826685D01*
X147658579Y-88820385D01*
X147831413Y-88743436D01*
X147984472Y-88632230D01*
X147984474Y-88632228D01*
X148010549Y-88603270D01*
X148070035Y-88566622D01*
X148139892Y-88567951D01*
X148197941Y-88606838D01*
X148213180Y-88629942D01*
X148218674Y-88640723D01*
X148218676Y-88640725D01*
X148218678Y-88640728D01*
X148309271Y-88731321D01*
X148309273Y-88731322D01*
X148309277Y-88731326D01*
X148423445Y-88789498D01*
X148423446Y-88789498D01*
X148423448Y-88789499D01*
X148549997Y-88809542D01*
X148550000Y-88809542D01*
X148550003Y-88809542D01*
X148676551Y-88789499D01*
X148676552Y-88789498D01*
X148676555Y-88789498D01*
X148790723Y-88731326D01*
X148881326Y-88640723D01*
X148939498Y-88526555D01*
X148943884Y-88498863D01*
X148959542Y-88400003D01*
X148959542Y-88399999D01*
X148950265Y-88341429D01*
X148959219Y-88272135D01*
X148985057Y-88234349D01*
X149138384Y-88081023D01*
X149509865Y-87709542D01*
X149692589Y-87526819D01*
X149753912Y-87493334D01*
X149780270Y-87490500D01*
X151102321Y-87490500D01*
X151169360Y-87510185D01*
X151215115Y-87562989D01*
X151225059Y-87632147D01*
X151212805Y-87670794D01*
X151203275Y-87689499D01*
X151160501Y-87773445D01*
X151160500Y-87773448D01*
X151140458Y-87899996D01*
X151140458Y-87900003D01*
X151160500Y-88026548D01*
X151161016Y-88028136D01*
X151161074Y-88030173D01*
X151162028Y-88036195D01*
X151161249Y-88036318D01*
X151163013Y-88097977D01*
X151126935Y-88157811D01*
X151064235Y-88188641D01*
X151058189Y-88189160D01*
X150923448Y-88210500D01*
X150891270Y-88226896D01*
X150809277Y-88268674D01*
X150809276Y-88268675D01*
X150809271Y-88268678D01*
X150718678Y-88359271D01*
X150718675Y-88359276D01*
X150718674Y-88359277D01*
X150697923Y-88400003D01*
X150660500Y-88473448D01*
X150640458Y-88599996D01*
X150640458Y-88600003D01*
X150660500Y-88726551D01*
X150660501Y-88726554D01*
X150660502Y-88726555D01*
X150718674Y-88840723D01*
X150718676Y-88840725D01*
X150718678Y-88840728D01*
X150809271Y-88931321D01*
X150809273Y-88931322D01*
X150809277Y-88931326D01*
X150923445Y-88989498D01*
X150923446Y-88989498D01*
X150923448Y-88989499D01*
X151049997Y-89009542D01*
X151050000Y-89009542D01*
X151050003Y-89009542D01*
X151176551Y-88989499D01*
X151176552Y-88989498D01*
X151176555Y-88989498D01*
X151290723Y-88931326D01*
X151339044Y-88883005D01*
X151388227Y-88833823D01*
X151389340Y-88834936D01*
X151436000Y-88798952D01*
X151480996Y-88790500D01*
X154119731Y-88790500D01*
X154186770Y-88810185D01*
X154207411Y-88826818D01*
X154561064Y-89180472D01*
X154837537Y-89456945D01*
X154837543Y-89456950D01*
X160923181Y-95542588D01*
X160956666Y-95603911D01*
X160959500Y-95630269D01*
X160959500Y-100569003D01*
X160939815Y-100636042D01*
X160915836Y-100661432D01*
X160916177Y-100661773D01*
X160818678Y-100759271D01*
X160818675Y-100759276D01*
X160818674Y-100759277D01*
X160809349Y-100777578D01*
X160760500Y-100873448D01*
X160740458Y-100999996D01*
X160740458Y-101000003D01*
X160760500Y-101126551D01*
X160760501Y-101126554D01*
X160760502Y-101126555D01*
X160818674Y-101240723D01*
X160818676Y-101240725D01*
X160818678Y-101240728D01*
X160909271Y-101331321D01*
X160909273Y-101331322D01*
X160909277Y-101331326D01*
X161023445Y-101389498D01*
X161023446Y-101389498D01*
X161023448Y-101389499D01*
X161149997Y-101409542D01*
X161150000Y-101409542D01*
X161150003Y-101409542D01*
X161276551Y-101389499D01*
X161276552Y-101389498D01*
X161276555Y-101389498D01*
X161390723Y-101331326D01*
X161481326Y-101240723D01*
X161539498Y-101126555D01*
X161553268Y-101039614D01*
X161559542Y-101000003D01*
X161559542Y-100999996D01*
X161539499Y-100873448D01*
X161539498Y-100873446D01*
X161539498Y-100873445D01*
X161481326Y-100759277D01*
X161481322Y-100759273D01*
X161481321Y-100759271D01*
X161383823Y-100661773D01*
X161384935Y-100660660D01*
X161348948Y-100613988D01*
X161340500Y-100569003D01*
X161340500Y-100100000D01*
X163424319Y-100100000D01*
X163444984Y-100296618D01*
X163444985Y-100296621D01*
X163506074Y-100484637D01*
X163506077Y-100484643D01*
X163604928Y-100655857D01*
X163737216Y-100802778D01*
X163897159Y-100918984D01*
X164077768Y-100999396D01*
X164271149Y-101040500D01*
X164271150Y-101040500D01*
X164468849Y-101040500D01*
X164468851Y-101040500D01*
X164662232Y-100999396D01*
X164842841Y-100918984D01*
X165002784Y-100802778D01*
X165135072Y-100655857D01*
X165233923Y-100484643D01*
X165295016Y-100296618D01*
X165315681Y-100100000D01*
X165964319Y-100100000D01*
X165984984Y-100296618D01*
X165984985Y-100296621D01*
X166046074Y-100484637D01*
X166046077Y-100484643D01*
X166144928Y-100655857D01*
X166277216Y-100802778D01*
X166437159Y-100918984D01*
X166617768Y-100999396D01*
X166811149Y-101040500D01*
X166811150Y-101040500D01*
X167008849Y-101040500D01*
X167008851Y-101040500D01*
X167202232Y-100999396D01*
X167382841Y-100918984D01*
X167542784Y-100802778D01*
X167675072Y-100655857D01*
X167773923Y-100484643D01*
X167817671Y-100350000D01*
X168119364Y-100350000D01*
X168176567Y-100563486D01*
X168176570Y-100563492D01*
X168276399Y-100777578D01*
X168411894Y-100971082D01*
X168578917Y-101138105D01*
X168772421Y-101273600D01*
X168986507Y-101373429D01*
X168986516Y-101373433D01*
X169200000Y-101430634D01*
X169200000Y-100535501D01*
X169307685Y-100584680D01*
X169414237Y-100600000D01*
X169485763Y-100600000D01*
X169592315Y-100584680D01*
X169700000Y-100535501D01*
X169700000Y-101430633D01*
X169913483Y-101373433D01*
X169913492Y-101373429D01*
X170127578Y-101273600D01*
X170321082Y-101138105D01*
X170488105Y-100971082D01*
X170537878Y-100900000D01*
X176954456Y-100900000D01*
X176974528Y-101039606D01*
X176974530Y-101039614D01*
X177033119Y-101167907D01*
X177033121Y-101167909D01*
X177033122Y-101167911D01*
X177125488Y-101274507D01*
X177125490Y-101274508D01*
X177125489Y-101274508D01*
X177244145Y-101350764D01*
X177359944Y-101384764D01*
X177376064Y-101389498D01*
X177379474Y-101390499D01*
X177379476Y-101390500D01*
X177379477Y-101390500D01*
X177520524Y-101390500D01*
X177520524Y-101390499D01*
X177655853Y-101350764D01*
X177655854Y-101350764D01*
X177686104Y-101331324D01*
X177774512Y-101274507D01*
X177866878Y-101167911D01*
X177925471Y-101039611D01*
X177945544Y-100900000D01*
X177925471Y-100760389D01*
X177883586Y-100668674D01*
X177866880Y-100632092D01*
X177866878Y-100632090D01*
X177866878Y-100632089D01*
X177774512Y-100525493D01*
X177773670Y-100524952D01*
X177697460Y-100475974D01*
X177651705Y-100423170D01*
X177640500Y-100371659D01*
X177640500Y-78988340D01*
X177660185Y-78921301D01*
X177697458Y-78884026D01*
X177774512Y-78834507D01*
X177866878Y-78727911D01*
X177925471Y-78599611D01*
X177945544Y-78460000D01*
X177925471Y-78320389D01*
X177912831Y-78292711D01*
X177866880Y-78192092D01*
X177866878Y-78192090D01*
X177866878Y-78192089D01*
X177774512Y-78085493D01*
X177774509Y-78085491D01*
X177774510Y-78085491D01*
X177655854Y-78009235D01*
X177520525Y-77969500D01*
X177520523Y-77969500D01*
X177379477Y-77969500D01*
X177379474Y-77969500D01*
X177244146Y-78009235D01*
X177244145Y-78009235D01*
X177125489Y-78085491D01*
X177033122Y-78192089D01*
X177033119Y-78192092D01*
X176974530Y-78320385D01*
X176974528Y-78320393D01*
X176954456Y-78460000D01*
X176974528Y-78599606D01*
X176974530Y-78599614D01*
X177033119Y-78727907D01*
X177033121Y-78727909D01*
X177033122Y-78727911D01*
X177125488Y-78834507D01*
X177202540Y-78884026D01*
X177248294Y-78936828D01*
X177259500Y-78988340D01*
X177259500Y-100371659D01*
X177239815Y-100438698D01*
X177202540Y-100475974D01*
X177125490Y-100525491D01*
X177125488Y-100525492D01*
X177125488Y-100525493D01*
X177074202Y-100584680D01*
X177033122Y-100632089D01*
X177033119Y-100632092D01*
X176974530Y-100760385D01*
X176974528Y-100760393D01*
X176954456Y-100900000D01*
X170537878Y-100900000D01*
X170623600Y-100777578D01*
X170723429Y-100563492D01*
X170723432Y-100563486D01*
X170780636Y-100350000D01*
X169883686Y-100350000D01*
X169909493Y-100309844D01*
X169950000Y-100171889D01*
X169950000Y-100028111D01*
X169909493Y-99890156D01*
X169883686Y-99850000D01*
X170780636Y-99850000D01*
X170780635Y-99849999D01*
X170723432Y-99636513D01*
X170723429Y-99636507D01*
X170623600Y-99422422D01*
X170623599Y-99422420D01*
X170488113Y-99228926D01*
X170488108Y-99228920D01*
X170321082Y-99061894D01*
X170127578Y-98926399D01*
X169913492Y-98826570D01*
X169913486Y-98826567D01*
X169700000Y-98769364D01*
X169700000Y-99664498D01*
X169592315Y-99615320D01*
X169485763Y-99600000D01*
X169414237Y-99600000D01*
X169307685Y-99615320D01*
X169200000Y-99664498D01*
X169200000Y-98769364D01*
X169199999Y-98769364D01*
X168986513Y-98826567D01*
X168986507Y-98826570D01*
X168772422Y-98926399D01*
X168772420Y-98926400D01*
X168578926Y-99061886D01*
X168578920Y-99061891D01*
X168411891Y-99228920D01*
X168411886Y-99228926D01*
X168276400Y-99422420D01*
X168276399Y-99422422D01*
X168176570Y-99636507D01*
X168176567Y-99636513D01*
X168119364Y-99849999D01*
X168119364Y-99850000D01*
X169016314Y-99850000D01*
X168990507Y-99890156D01*
X168950000Y-100028111D01*
X168950000Y-100171889D01*
X168990507Y-100309844D01*
X169016314Y-100350000D01*
X168119364Y-100350000D01*
X167817671Y-100350000D01*
X167835016Y-100296618D01*
X167855681Y-100100000D01*
X167835016Y-99903382D01*
X167773923Y-99715357D01*
X167675072Y-99544143D01*
X167542784Y-99397222D01*
X167382841Y-99281016D01*
X167202232Y-99200604D01*
X167202230Y-99200603D01*
X167061048Y-99170594D01*
X167008851Y-99159500D01*
X166811149Y-99159500D01*
X166789037Y-99164200D01*
X166617768Y-99200603D01*
X166617762Y-99200605D01*
X166437160Y-99281016D01*
X166437155Y-99281018D01*
X166277217Y-99397220D01*
X166277210Y-99397226D01*
X166144927Y-99544144D01*
X166046077Y-99715356D01*
X166046074Y-99715362D01*
X165989281Y-99890156D01*
X165984984Y-99903382D01*
X165964319Y-100100000D01*
X165315681Y-100100000D01*
X165295016Y-99903382D01*
X165233923Y-99715357D01*
X165135072Y-99544143D01*
X165002784Y-99397222D01*
X164842841Y-99281016D01*
X164662232Y-99200604D01*
X164662230Y-99200603D01*
X164521048Y-99170594D01*
X164468851Y-99159500D01*
X164271149Y-99159500D01*
X164249037Y-99164200D01*
X164077768Y-99200603D01*
X164077762Y-99200605D01*
X163897160Y-99281016D01*
X163897155Y-99281018D01*
X163737217Y-99397220D01*
X163737210Y-99397226D01*
X163604927Y-99544144D01*
X163506077Y-99715356D01*
X163506074Y-99715362D01*
X163449281Y-99890156D01*
X163444984Y-99903382D01*
X163424319Y-100100000D01*
X161340500Y-100100000D01*
X161340500Y-95553435D01*
X161343486Y-95535860D01*
X161342606Y-95535761D01*
X161344170Y-95521878D01*
X161341280Y-95496229D01*
X161340500Y-95482344D01*
X161340500Y-95478538D01*
X161340499Y-95478532D01*
X161339653Y-95474825D01*
X161337323Y-95461112D01*
X161334433Y-95435468D01*
X161334433Y-95435464D01*
X161334429Y-95435458D01*
X161330805Y-95425099D01*
X161326048Y-95415222D01*
X161326048Y-95415220D01*
X161309948Y-95395030D01*
X161301902Y-95383691D01*
X161299880Y-95380473D01*
X161299878Y-95380471D01*
X161299877Y-95380469D01*
X161297194Y-95377786D01*
X161287929Y-95367418D01*
X161271831Y-95347232D01*
X161260907Y-95338520D01*
X161261458Y-95337828D01*
X161246918Y-95327511D01*
X155106950Y-89187543D01*
X155106948Y-89187540D01*
X154802413Y-88883005D01*
X154422488Y-88503081D01*
X154412173Y-88488542D01*
X154411480Y-88489095D01*
X154402768Y-88478170D01*
X154382578Y-88462069D01*
X154372211Y-88452804D01*
X154369529Y-88450122D01*
X154369524Y-88450118D01*
X154368892Y-88449721D01*
X154366309Y-88448097D01*
X154354982Y-88440062D01*
X154334780Y-88423952D01*
X154334779Y-88423951D01*
X154334777Y-88423950D01*
X154324893Y-88419190D01*
X154314539Y-88415567D01*
X154288876Y-88412675D01*
X154275184Y-88410348D01*
X154271467Y-88409500D01*
X154271463Y-88409500D01*
X154267655Y-88409500D01*
X154253772Y-88408720D01*
X154249543Y-88408243D01*
X154228121Y-88405829D01*
X154214239Y-88407394D01*
X154214139Y-88406513D01*
X154196565Y-88409500D01*
X151911912Y-88409500D01*
X151879569Y-88400003D01*
X155140458Y-88400003D01*
X155160500Y-88526551D01*
X155160501Y-88526554D01*
X155160502Y-88526555D01*
X155218674Y-88640723D01*
X155218676Y-88640725D01*
X155218678Y-88640728D01*
X155309271Y-88731321D01*
X155309273Y-88731322D01*
X155309277Y-88731326D01*
X155423445Y-88789498D01*
X155423446Y-88789498D01*
X155423448Y-88789499D01*
X155549997Y-88809542D01*
X155550000Y-88809542D01*
X155550003Y-88809542D01*
X155676551Y-88789499D01*
X155676552Y-88789498D01*
X155676555Y-88789498D01*
X155790723Y-88731326D01*
X155881326Y-88640723D01*
X155939498Y-88526555D01*
X155939498Y-88526553D01*
X155939499Y-88526552D01*
X155941958Y-88518984D01*
X155981394Y-88461308D01*
X156045753Y-88434109D01*
X156114599Y-88446023D01*
X156147570Y-88469620D01*
X156209271Y-88531321D01*
X156209273Y-88531322D01*
X156209277Y-88531326D01*
X156323445Y-88589498D01*
X156323446Y-88589498D01*
X156323448Y-88589499D01*
X156449997Y-88609542D01*
X156450000Y-88609542D01*
X156450003Y-88609542D01*
X156576551Y-88589499D01*
X156576552Y-88589498D01*
X156576555Y-88589498D01*
X156690723Y-88531326D01*
X156781326Y-88440723D01*
X156839498Y-88326555D01*
X156839499Y-88326551D01*
X156842515Y-88317271D01*
X156843826Y-88317697D01*
X156869359Y-88263830D01*
X156928668Y-88226896D01*
X156998531Y-88227890D01*
X157018196Y-88235870D01*
X157123445Y-88289498D01*
X157123446Y-88289498D01*
X157123448Y-88289499D01*
X157249997Y-88309542D01*
X157250000Y-88309542D01*
X157250003Y-88309542D01*
X157376551Y-88289499D01*
X157376552Y-88289498D01*
X157376555Y-88289498D01*
X157490723Y-88231326D01*
X157581326Y-88140723D01*
X157639498Y-88026555D01*
X157643953Y-87998427D01*
X157659542Y-87900003D01*
X157659542Y-87899996D01*
X157639499Y-87773448D01*
X157639498Y-87773446D01*
X157639498Y-87773445D01*
X157581326Y-87659277D01*
X157581322Y-87659273D01*
X157581321Y-87659271D01*
X157490728Y-87568678D01*
X157490725Y-87568676D01*
X157490723Y-87568674D01*
X157376555Y-87510502D01*
X157376554Y-87510501D01*
X157376551Y-87510500D01*
X157250003Y-87490458D01*
X157249997Y-87490458D01*
X157123448Y-87510500D01*
X157077675Y-87533823D01*
X157009277Y-87568674D01*
X157009276Y-87568675D01*
X157009271Y-87568678D01*
X156918678Y-87659271D01*
X156918675Y-87659276D01*
X156918674Y-87659277D01*
X156892972Y-87709719D01*
X156860500Y-87773448D01*
X156857485Y-87782729D01*
X156856175Y-87782303D01*
X156830630Y-87836180D01*
X156771316Y-87873107D01*
X156701454Y-87872105D01*
X156681797Y-87864126D01*
X156675793Y-87861067D01*
X156576555Y-87810502D01*
X156576554Y-87810501D01*
X156576551Y-87810500D01*
X156450003Y-87790458D01*
X156449997Y-87790458D01*
X156323448Y-87810500D01*
X156267493Y-87839011D01*
X156209277Y-87868674D01*
X156209276Y-87868675D01*
X156209271Y-87868678D01*
X156118678Y-87959271D01*
X156118675Y-87959276D01*
X156118674Y-87959277D01*
X156098726Y-87998427D01*
X156060500Y-88073448D01*
X156058039Y-88081023D01*
X156018598Y-88138696D01*
X155954237Y-88165891D01*
X155885392Y-88153972D01*
X155852429Y-88130379D01*
X155790728Y-88068678D01*
X155790725Y-88068676D01*
X155790723Y-88068674D01*
X155676555Y-88010502D01*
X155676554Y-88010501D01*
X155676551Y-88010500D01*
X155550003Y-87990458D01*
X155549997Y-87990458D01*
X155423448Y-88010500D01*
X155384839Y-88030173D01*
X155309277Y-88068674D01*
X155309276Y-88068675D01*
X155309271Y-88068678D01*
X155218678Y-88159271D01*
X155218675Y-88159276D01*
X155218674Y-88159277D01*
X155197277Y-88201271D01*
X155160500Y-88273448D01*
X155140458Y-88399996D01*
X155140458Y-88400003D01*
X151879569Y-88400003D01*
X151844873Y-88389815D01*
X151799118Y-88337011D01*
X151789174Y-88267853D01*
X151818199Y-88204297D01*
X151824231Y-88197819D01*
X151881321Y-88140728D01*
X151881326Y-88140723D01*
X151939498Y-88026555D01*
X151943953Y-87998427D01*
X151959542Y-87900003D01*
X151959542Y-87899996D01*
X151939499Y-87773448D01*
X151939498Y-87773445D01*
X151913223Y-87721878D01*
X151887194Y-87670795D01*
X151874298Y-87602126D01*
X151900574Y-87537386D01*
X151957680Y-87497128D01*
X151997679Y-87490500D01*
X152919004Y-87490500D01*
X152986043Y-87510185D01*
X153011431Y-87534164D01*
X153011773Y-87533823D01*
X153109271Y-87631321D01*
X153109273Y-87631322D01*
X153109277Y-87631326D01*
X153223445Y-87689498D01*
X153223446Y-87689498D01*
X153223448Y-87689499D01*
X153349997Y-87709542D01*
X153350000Y-87709542D01*
X153350003Y-87709542D01*
X153476551Y-87689499D01*
X153476552Y-87689498D01*
X153476555Y-87689498D01*
X153590723Y-87631326D01*
X153681326Y-87540723D01*
X153739498Y-87426555D01*
X153739499Y-87426551D01*
X153759542Y-87300003D01*
X153759542Y-87299996D01*
X153739499Y-87173448D01*
X153739498Y-87173446D01*
X153739498Y-87173445D01*
X153681326Y-87059277D01*
X153681322Y-87059273D01*
X153681321Y-87059271D01*
X153590728Y-86968678D01*
X153590725Y-86968676D01*
X153590723Y-86968674D01*
X153476555Y-86910502D01*
X153476554Y-86910501D01*
X153476551Y-86910500D01*
X153350003Y-86890458D01*
X153349997Y-86890458D01*
X153223448Y-86910500D01*
X153167493Y-86939011D01*
X153109277Y-86968674D01*
X153109276Y-86968675D01*
X153109271Y-86968678D01*
X153011773Y-87066177D01*
X153010659Y-87065063D01*
X152964000Y-87101048D01*
X152919004Y-87109500D01*
X149703435Y-87109500D01*
X149685860Y-87106513D01*
X149685761Y-87107394D01*
X149671878Y-87105829D01*
X149650050Y-87108289D01*
X149646227Y-87108720D01*
X149632345Y-87109500D01*
X149628533Y-87109500D01*
X149624808Y-87110350D01*
X149611121Y-87112675D01*
X149585465Y-87115566D01*
X149575099Y-87119193D01*
X149565219Y-87123951D01*
X149545027Y-87140053D01*
X149533713Y-87148082D01*
X149530477Y-87150116D01*
X149530469Y-87150122D01*
X149527771Y-87152820D01*
X149517419Y-87162070D01*
X149497230Y-87178171D01*
X149488521Y-87189092D01*
X149487830Y-87188541D01*
X149477514Y-87203076D01*
X148715649Y-87964942D01*
X148654326Y-87998427D01*
X148608571Y-87999734D01*
X148550003Y-87990458D01*
X148549997Y-87990458D01*
X148423448Y-88010500D01*
X148384839Y-88030173D01*
X148309277Y-88068674D01*
X148309276Y-88068675D01*
X148309271Y-88068678D01*
X148211773Y-88166177D01*
X148210714Y-88165118D01*
X148163830Y-88201271D01*
X148118844Y-88209719D01*
X147628936Y-88209719D01*
X147628936Y-88826685D01*
X146649460Y-88826685D01*
X146645900Y-88797367D01*
X146596894Y-88726371D01*
X146520509Y-88686280D01*
X146456128Y-88686280D01*
X146393615Y-88701688D01*
X146329043Y-88758894D01*
X146298452Y-88839555D01*
X144847900Y-88839555D01*
X144842778Y-88797367D01*
X144793772Y-88726371D01*
X144717387Y-88686280D01*
X144653006Y-88686280D01*
X144590493Y-88701688D01*
X144525921Y-88758894D01*
X144495330Y-88839555D01*
X140308820Y-88839555D01*
X140296507Y-88761811D01*
X140296506Y-88761809D01*
X140296506Y-88761808D01*
X140238334Y-88647640D01*
X140238330Y-88647636D01*
X140238329Y-88647634D01*
X140147736Y-88557041D01*
X140147733Y-88557039D01*
X140147731Y-88557037D01*
X140033563Y-88498865D01*
X140033562Y-88498864D01*
X140033559Y-88498863D01*
X139907011Y-88478821D01*
X139907005Y-88478821D01*
X139780456Y-88498863D01*
X139726117Y-88526551D01*
X139666285Y-88557037D01*
X139666284Y-88557038D01*
X139666279Y-88557041D01*
X139575686Y-88647634D01*
X139575683Y-88647639D01*
X139517508Y-88761811D01*
X139497466Y-88888359D01*
X139497466Y-88888366D01*
X125390500Y-88888366D01*
X125390500Y-88209719D01*
X142907606Y-88209719D01*
X142945971Y-88327794D01*
X142945975Y-88327803D01*
X143040562Y-88491634D01*
X143040564Y-88491637D01*
X143167152Y-88632228D01*
X143167155Y-88632230D01*
X143320214Y-88743436D01*
X143493048Y-88820385D01*
X143522691Y-88826685D01*
X143522692Y-88826685D01*
X143522692Y-88209719D01*
X144022692Y-88209719D01*
X144022692Y-88611280D01*
X144424253Y-88611280D01*
X144424253Y-88209719D01*
X144924253Y-88209719D01*
X144924253Y-88611280D01*
X145325814Y-88611280D01*
X145325814Y-88209719D01*
X145825814Y-88209719D01*
X145825814Y-88611280D01*
X146227375Y-88611280D01*
X146227375Y-88209719D01*
X146727375Y-88209719D01*
X146727375Y-88611280D01*
X147128936Y-88611280D01*
X147128936Y-88209719D01*
X146727375Y-88209719D01*
X146227375Y-88209719D01*
X145825814Y-88209719D01*
X145325814Y-88209719D01*
X144924253Y-88209719D01*
X144424253Y-88209719D01*
X144022692Y-88209719D01*
X143522692Y-88209719D01*
X142907606Y-88209719D01*
X125390500Y-88209719D01*
X125390500Y-87937994D01*
X143593769Y-87937994D01*
X143604167Y-88023632D01*
X143653173Y-88094628D01*
X143729558Y-88134719D01*
X143793939Y-88134719D01*
X143856452Y-88119311D01*
X143921024Y-88062105D01*
X143951615Y-87981444D01*
X143946339Y-87937994D01*
X145396891Y-87937994D01*
X145407289Y-88023632D01*
X145456295Y-88094628D01*
X145532680Y-88134719D01*
X145597061Y-88134719D01*
X145659574Y-88119311D01*
X145724146Y-88062105D01*
X145754737Y-87981444D01*
X145749461Y-87937994D01*
X147200013Y-87937994D01*
X147210411Y-88023632D01*
X147259417Y-88094628D01*
X147335802Y-88134719D01*
X147400183Y-88134719D01*
X147462696Y-88119311D01*
X147527268Y-88062105D01*
X147557859Y-87981444D01*
X147547461Y-87895806D01*
X147498455Y-87824810D01*
X147422070Y-87784719D01*
X147357689Y-87784719D01*
X147295176Y-87800127D01*
X147230604Y-87857333D01*
X147200013Y-87937994D01*
X145749461Y-87937994D01*
X145744339Y-87895806D01*
X145695333Y-87824810D01*
X145618948Y-87784719D01*
X145554567Y-87784719D01*
X145492054Y-87800127D01*
X145427482Y-87857333D01*
X145396891Y-87937994D01*
X143946339Y-87937994D01*
X143941217Y-87895806D01*
X143892211Y-87824810D01*
X143815826Y-87784719D01*
X143751445Y-87784719D01*
X143688932Y-87800127D01*
X143624360Y-87857333D01*
X143593769Y-87937994D01*
X125390500Y-87937994D01*
X125390500Y-87750979D01*
X125402615Y-87709719D01*
X142907606Y-87709719D01*
X143522692Y-87709719D01*
X143522692Y-87308158D01*
X144022692Y-87308158D01*
X144022692Y-87709719D01*
X144424253Y-87709719D01*
X144424253Y-87308158D01*
X144924253Y-87308158D01*
X144924253Y-87709719D01*
X145325814Y-87709719D01*
X145325814Y-87308158D01*
X145825814Y-87308158D01*
X145825814Y-87709719D01*
X146227375Y-87709719D01*
X146227375Y-87308158D01*
X146727375Y-87308158D01*
X146727375Y-87709719D01*
X147128936Y-87709719D01*
X147128936Y-87308158D01*
X146727375Y-87308158D01*
X146227375Y-87308158D01*
X145825814Y-87308158D01*
X145325814Y-87308158D01*
X144924253Y-87308158D01*
X144424253Y-87308158D01*
X144022692Y-87308158D01*
X143522692Y-87308158D01*
X143522692Y-87092751D01*
X143493046Y-87099053D01*
X143320210Y-87176005D01*
X143167156Y-87287206D01*
X143040564Y-87427800D01*
X143040562Y-87427803D01*
X142945975Y-87591634D01*
X142945971Y-87591643D01*
X142907606Y-87709719D01*
X125402615Y-87709719D01*
X125410185Y-87683940D01*
X125426814Y-87663303D01*
X126101751Y-86988366D01*
X139497466Y-86988366D01*
X139517508Y-87114914D01*
X139517509Y-87114917D01*
X139517510Y-87114918D01*
X139575682Y-87229086D01*
X139575684Y-87229088D01*
X139575686Y-87229091D01*
X139666279Y-87319684D01*
X139666281Y-87319685D01*
X139666285Y-87319689D01*
X139780453Y-87377861D01*
X139780454Y-87377861D01*
X139780456Y-87377862D01*
X139907005Y-87397905D01*
X139907008Y-87397905D01*
X139907011Y-87397905D01*
X140033559Y-87377862D01*
X140033560Y-87377861D01*
X140033563Y-87377861D01*
X140147731Y-87319689D01*
X140238334Y-87229086D01*
X140296506Y-87114918D01*
X140296507Y-87114914D01*
X140308937Y-87036433D01*
X144495330Y-87036433D01*
X144505728Y-87122071D01*
X144554734Y-87193067D01*
X144631119Y-87233158D01*
X144695500Y-87233158D01*
X144758013Y-87217750D01*
X144822585Y-87160544D01*
X144853176Y-87079883D01*
X144847900Y-87036433D01*
X146298452Y-87036433D01*
X146308850Y-87122071D01*
X146357856Y-87193067D01*
X146434241Y-87233158D01*
X146498622Y-87233158D01*
X146561135Y-87217750D01*
X146625707Y-87160544D01*
X146651418Y-87092751D01*
X147628936Y-87092751D01*
X147628936Y-87709719D01*
X148244021Y-87709719D01*
X148205656Y-87591643D01*
X148205652Y-87591634D01*
X148111065Y-87427803D01*
X148111063Y-87427800D01*
X147984475Y-87287209D01*
X147984472Y-87287207D01*
X147831413Y-87176001D01*
X147658584Y-87099054D01*
X147628936Y-87092751D01*
X146651418Y-87092751D01*
X146656298Y-87079883D01*
X146645900Y-86994245D01*
X146596894Y-86923249D01*
X146520509Y-86883158D01*
X146456128Y-86883158D01*
X146393615Y-86898566D01*
X146329043Y-86955772D01*
X146298452Y-87036433D01*
X144847900Y-87036433D01*
X144842778Y-86994245D01*
X144793772Y-86923249D01*
X144717387Y-86883158D01*
X144653006Y-86883158D01*
X144590493Y-86898566D01*
X144525921Y-86955772D01*
X144495330Y-87036433D01*
X140308937Y-87036433D01*
X140316550Y-86988366D01*
X140316550Y-86988359D01*
X140296507Y-86861811D01*
X140296506Y-86861809D01*
X140296506Y-86861808D01*
X140269170Y-86808158D01*
X143809167Y-86808158D01*
X144424253Y-86808158D01*
X144424253Y-86406597D01*
X144924253Y-86406597D01*
X144924253Y-86808158D01*
X145325814Y-86808158D01*
X145325814Y-86406597D01*
X145825814Y-86406597D01*
X145825814Y-86808158D01*
X146227375Y-86808158D01*
X146227375Y-86406597D01*
X145825814Y-86406597D01*
X145325814Y-86406597D01*
X144924253Y-86406597D01*
X144424253Y-86406597D01*
X144424253Y-86191190D01*
X144394607Y-86197492D01*
X144221771Y-86274444D01*
X144068717Y-86385645D01*
X143942125Y-86526239D01*
X143942123Y-86526242D01*
X143847536Y-86690073D01*
X143847532Y-86690082D01*
X143809167Y-86808158D01*
X140269170Y-86808158D01*
X140238334Y-86747640D01*
X140238330Y-86747636D01*
X140238329Y-86747634D01*
X140147736Y-86657041D01*
X140147733Y-86657039D01*
X140147731Y-86657037D01*
X140033563Y-86598865D01*
X140033562Y-86598864D01*
X140033559Y-86598863D01*
X139907011Y-86578821D01*
X139907005Y-86578821D01*
X139780456Y-86598863D01*
X139724501Y-86627374D01*
X139666285Y-86657037D01*
X139666284Y-86657038D01*
X139666279Y-86657041D01*
X139575686Y-86747634D01*
X139575683Y-86747639D01*
X139517508Y-86861811D01*
X139497466Y-86988359D01*
X139497466Y-86988366D01*
X126101751Y-86988366D01*
X126955244Y-86134872D01*
X145396891Y-86134872D01*
X145407289Y-86220510D01*
X145456295Y-86291506D01*
X145532680Y-86331597D01*
X145597061Y-86331597D01*
X145659574Y-86316189D01*
X145724146Y-86258983D01*
X145749857Y-86191190D01*
X146727375Y-86191190D01*
X146727375Y-86808158D01*
X147342460Y-86808158D01*
X147304095Y-86690082D01*
X147304091Y-86690073D01*
X147209504Y-86526242D01*
X147209502Y-86526239D01*
X147082914Y-86385648D01*
X147082911Y-86385646D01*
X146929852Y-86274440D01*
X146757023Y-86197493D01*
X146727375Y-86191190D01*
X145749857Y-86191190D01*
X145754737Y-86178322D01*
X145744339Y-86092684D01*
X145695333Y-86021688D01*
X145618948Y-85981597D01*
X145554567Y-85981597D01*
X145492054Y-85997005D01*
X145427482Y-86054211D01*
X145396891Y-86134872D01*
X126955244Y-86134872D01*
X127490113Y-85600003D01*
X139640458Y-85600003D01*
X139660500Y-85726551D01*
X139660501Y-85726554D01*
X139660502Y-85726555D01*
X139718674Y-85840723D01*
X139718676Y-85840725D01*
X139718678Y-85840728D01*
X139809271Y-85931321D01*
X139809273Y-85931322D01*
X139809277Y-85931326D01*
X139923445Y-85989498D01*
X139923446Y-85989498D01*
X139923448Y-85989499D01*
X140049997Y-86009542D01*
X140050000Y-86009542D01*
X140050003Y-86009542D01*
X140176551Y-85989499D01*
X140176552Y-85989498D01*
X140176555Y-85989498D01*
X140290723Y-85931326D01*
X140381326Y-85840723D01*
X140439498Y-85726555D01*
X140448101Y-85672238D01*
X140459542Y-85600003D01*
X140459542Y-85599996D01*
X140439499Y-85473448D01*
X140439498Y-85473446D01*
X140439498Y-85473445D01*
X140381326Y-85359277D01*
X140381322Y-85359273D01*
X140381321Y-85359271D01*
X140352027Y-85329977D01*
X140318542Y-85268654D01*
X140323526Y-85198962D01*
X140352027Y-85154615D01*
X140497056Y-85009586D01*
X140678924Y-84827717D01*
X140740245Y-84794234D01*
X140809936Y-84799218D01*
X140865870Y-84841089D01*
X140877083Y-84859097D01*
X140918674Y-84940723D01*
X140918676Y-84940725D01*
X140918678Y-84940728D01*
X141009271Y-85031321D01*
X141009274Y-85031323D01*
X141009277Y-85031326D01*
X141046202Y-85050140D01*
X141080687Y-85067712D01*
X141131482Y-85115687D01*
X141148277Y-85183508D01*
X141125739Y-85249642D01*
X141124330Y-85251318D01*
X141124413Y-85251378D01*
X141118675Y-85259276D01*
X141118674Y-85259277D01*
X141113886Y-85268674D01*
X141060500Y-85373448D01*
X141040458Y-85499996D01*
X141040458Y-85500003D01*
X141060500Y-85626551D01*
X141060501Y-85626554D01*
X141060502Y-85626555D01*
X141118674Y-85740723D01*
X141118676Y-85740725D01*
X141118678Y-85740728D01*
X141209271Y-85831321D01*
X141209273Y-85831322D01*
X141209277Y-85831326D01*
X141323445Y-85889498D01*
X141323446Y-85889498D01*
X141323448Y-85889499D01*
X141449997Y-85909542D01*
X141450000Y-85909542D01*
X141450003Y-85909542D01*
X141468597Y-85906597D01*
X144710728Y-85906597D01*
X145325814Y-85906597D01*
X145325814Y-85289629D01*
X145296168Y-85295931D01*
X145123332Y-85372883D01*
X144970278Y-85484084D01*
X144843686Y-85624678D01*
X144843684Y-85624681D01*
X144749097Y-85788512D01*
X144749093Y-85788521D01*
X144710728Y-85906597D01*
X141468597Y-85906597D01*
X141576551Y-85889499D01*
X141576552Y-85889498D01*
X141576555Y-85889498D01*
X141690723Y-85831326D01*
X141781326Y-85740723D01*
X141839498Y-85626555D01*
X141839795Y-85624681D01*
X141859542Y-85500003D01*
X141859542Y-85499996D01*
X141839499Y-85373448D01*
X141839498Y-85373446D01*
X141839498Y-85373445D01*
X141781326Y-85259277D01*
X141781322Y-85259273D01*
X141781321Y-85259271D01*
X141690728Y-85168678D01*
X141690724Y-85168675D01*
X141690723Y-85168674D01*
X141683550Y-85165019D01*
X141619312Y-85132287D01*
X141568516Y-85084312D01*
X141551722Y-85016491D01*
X141574260Y-84950356D01*
X141575670Y-84948682D01*
X141575587Y-84948622D01*
X141581318Y-84940730D01*
X141581326Y-84940723D01*
X141639498Y-84826555D01*
X141644941Y-84792189D01*
X141659542Y-84700003D01*
X141659542Y-84699996D01*
X141639499Y-84573448D01*
X141639498Y-84573446D01*
X141639498Y-84573445D01*
X141581326Y-84459277D01*
X141581322Y-84459273D01*
X141581321Y-84459271D01*
X141524231Y-84402181D01*
X141490746Y-84340858D01*
X141495730Y-84271166D01*
X141537602Y-84215233D01*
X141603066Y-84190816D01*
X141611912Y-84190500D01*
X145029222Y-84190500D01*
X145096261Y-84210185D01*
X145142016Y-84262989D01*
X145151960Y-84332147D01*
X145139706Y-84370794D01*
X145133691Y-84382600D01*
X145117509Y-84414357D01*
X145117508Y-84414360D01*
X145097466Y-84540908D01*
X145097466Y-84540915D01*
X145117508Y-84667463D01*
X145117509Y-84667466D01*
X145117510Y-84667467D01*
X145175682Y-84781635D01*
X145175684Y-84781637D01*
X145175686Y-84781640D01*
X145266279Y-84872233D01*
X145266281Y-84872234D01*
X145266285Y-84872238D01*
X145380453Y-84930410D01*
X145380454Y-84930410D01*
X145380456Y-84930411D01*
X145507005Y-84950454D01*
X145507008Y-84950454D01*
X145507011Y-84950454D01*
X145633559Y-84930411D01*
X145633560Y-84930410D01*
X145633563Y-84930410D01*
X145747731Y-84872238D01*
X145838334Y-84781635D01*
X145842978Y-84772521D01*
X145890953Y-84721726D01*
X145953462Y-84704818D01*
X146461828Y-84704818D01*
X146528867Y-84724503D01*
X146574622Y-84777307D01*
X146584566Y-84846465D01*
X146555541Y-84910021D01*
X146496763Y-84947795D01*
X146481229Y-84951291D01*
X146480453Y-84951414D01*
X146366285Y-85009586D01*
X146366284Y-85009587D01*
X146366279Y-85009590D01*
X146275686Y-85100183D01*
X146275683Y-85100188D01*
X146275682Y-85100189D01*
X146264212Y-85122700D01*
X146217508Y-85214360D01*
X146206871Y-85281523D01*
X146176942Y-85344658D01*
X146117630Y-85381589D01*
X146047767Y-85380591D01*
X146033963Y-85375405D01*
X145855462Y-85295932D01*
X145825814Y-85289629D01*
X145825814Y-85906597D01*
X146440900Y-85906597D01*
X146440927Y-85906559D01*
X146438934Y-85836853D01*
X146475014Y-85777019D01*
X146537714Y-85746190D01*
X146578259Y-85745901D01*
X146607006Y-85750454D01*
X146607008Y-85750454D01*
X146607011Y-85750454D01*
X146733559Y-85730411D01*
X146733560Y-85730410D01*
X146733563Y-85730410D01*
X146847731Y-85672238D01*
X146938334Y-85581635D01*
X146942978Y-85572521D01*
X146990953Y-85521726D01*
X147053462Y-85504818D01*
X147791191Y-85504818D01*
X147858230Y-85524503D01*
X147903985Y-85577307D01*
X147913929Y-85646465D01*
X147884904Y-85710021D01*
X147878872Y-85716499D01*
X147707008Y-85888363D01*
X148207008Y-86388363D01*
X149054234Y-85541137D01*
X149115557Y-85507652D01*
X149141915Y-85504818D01*
X154703546Y-85504818D01*
X154770585Y-85524503D01*
X154814030Y-85572521D01*
X154818675Y-85581637D01*
X154909271Y-85672233D01*
X154909273Y-85672234D01*
X154909277Y-85672238D01*
X155023445Y-85730410D01*
X155023446Y-85730410D01*
X155023448Y-85730411D01*
X155149997Y-85750454D01*
X155150000Y-85750454D01*
X155150003Y-85750454D01*
X155276551Y-85730411D01*
X155276552Y-85730410D01*
X155276555Y-85730410D01*
X155390723Y-85672238D01*
X155481326Y-85581635D01*
X155539498Y-85467467D01*
X155554389Y-85373448D01*
X155559542Y-85340915D01*
X155559542Y-85340911D01*
X155552418Y-85295932D01*
X155551124Y-85287763D01*
X155560078Y-85218471D01*
X155605074Y-85165019D01*
X155671825Y-85144379D01*
X155739139Y-85163103D01*
X155761278Y-85180685D01*
X158323181Y-87742588D01*
X158356666Y-87803911D01*
X158359500Y-87830269D01*
X158359500Y-90869003D01*
X158339815Y-90936042D01*
X158315836Y-90961432D01*
X158316177Y-90961773D01*
X158218678Y-91059271D01*
X158218675Y-91059276D01*
X158218674Y-91059277D01*
X158189011Y-91117493D01*
X158160500Y-91173448D01*
X158140458Y-91299996D01*
X158140458Y-91300003D01*
X158160500Y-91426551D01*
X158160501Y-91426554D01*
X158160502Y-91426555D01*
X158218674Y-91540723D01*
X158218676Y-91540725D01*
X158218678Y-91540728D01*
X158309271Y-91631321D01*
X158309273Y-91631322D01*
X158309277Y-91631326D01*
X158423445Y-91689498D01*
X158423446Y-91689498D01*
X158423448Y-91689499D01*
X158549997Y-91709542D01*
X158550000Y-91709542D01*
X158550003Y-91709542D01*
X158676551Y-91689499D01*
X158676552Y-91689498D01*
X158676555Y-91689498D01*
X158790723Y-91631326D01*
X158881326Y-91540723D01*
X158939498Y-91426555D01*
X158942163Y-91409731D01*
X158959542Y-91300003D01*
X158959542Y-91299996D01*
X158939499Y-91173448D01*
X158939498Y-91173446D01*
X158939498Y-91173445D01*
X158881326Y-91059277D01*
X158881322Y-91059273D01*
X158881321Y-91059271D01*
X158783823Y-90961773D01*
X158784935Y-90960660D01*
X158748948Y-90913988D01*
X158740500Y-90869003D01*
X158740500Y-87753435D01*
X158743485Y-87735865D01*
X158742605Y-87735766D01*
X158744169Y-87721880D01*
X158744170Y-87721878D01*
X158744169Y-87721875D01*
X158745304Y-87711805D01*
X158772369Y-87647390D01*
X158829963Y-87607834D01*
X158899800Y-87605694D01*
X158956206Y-87638004D01*
X159349775Y-88031573D01*
X159383260Y-88092896D01*
X159386094Y-88119254D01*
X159386094Y-92713838D01*
X159384063Y-92736189D01*
X159381496Y-92750191D01*
X159390929Y-92780461D01*
X159392935Y-92787659D01*
X159400525Y-92818450D01*
X159400526Y-92818451D01*
X159400803Y-92818979D01*
X159401594Y-92820890D01*
X159403997Y-92825150D01*
X159405217Y-92826808D01*
X159405533Y-92827331D01*
X159427941Y-92849739D01*
X159433076Y-92855194D01*
X159454101Y-92878927D01*
X159454601Y-92879272D01*
X159471846Y-92893644D01*
X163529381Y-96951179D01*
X163562866Y-97012502D01*
X163557882Y-97082194D01*
X163549088Y-97100859D01*
X163506076Y-97175359D01*
X163506074Y-97175362D01*
X163462463Y-97309586D01*
X163444984Y-97363382D01*
X163424319Y-97560000D01*
X163444984Y-97756618D01*
X163444985Y-97756621D01*
X163506074Y-97944637D01*
X163506077Y-97944643D01*
X163604928Y-98115857D01*
X163705902Y-98228000D01*
X163724346Y-98248485D01*
X163737216Y-98262778D01*
X163897159Y-98378984D01*
X164077768Y-98459396D01*
X164271149Y-98500500D01*
X164271150Y-98500500D01*
X164468849Y-98500500D01*
X164468851Y-98500500D01*
X164662232Y-98459396D01*
X164842841Y-98378984D01*
X165002784Y-98262778D01*
X165135072Y-98115857D01*
X165233923Y-97944643D01*
X165295016Y-97756618D01*
X165315681Y-97560000D01*
X165964319Y-97560000D01*
X165984984Y-97756618D01*
X165984985Y-97756621D01*
X166046074Y-97944637D01*
X166046077Y-97944643D01*
X166144928Y-98115857D01*
X166245902Y-98228000D01*
X166264346Y-98248485D01*
X166277216Y-98262778D01*
X166437159Y-98378984D01*
X166617768Y-98459396D01*
X166811149Y-98500500D01*
X166811150Y-98500500D01*
X167008849Y-98500500D01*
X167008851Y-98500500D01*
X167202232Y-98459396D01*
X167293170Y-98418908D01*
X168509500Y-98418908D01*
X168514751Y-98445312D01*
X168514752Y-98445314D01*
X168534752Y-98475247D01*
X168564688Y-98495249D01*
X168573407Y-98496983D01*
X168591087Y-98500500D01*
X170308912Y-98500499D01*
X170335311Y-98495249D01*
X170365247Y-98475247D01*
X170385249Y-98445311D01*
X170390500Y-98418913D01*
X170390499Y-96701088D01*
X170385249Y-96674689D01*
X170385248Y-96674687D01*
X170385247Y-96674685D01*
X170365247Y-96644752D01*
X170335311Y-96624750D01*
X170308915Y-96619500D01*
X168591091Y-96619500D01*
X168564687Y-96624751D01*
X168564685Y-96624752D01*
X168534752Y-96644752D01*
X168514750Y-96674688D01*
X168509500Y-96701084D01*
X168509500Y-98418908D01*
X167293170Y-98418908D01*
X167382841Y-98378984D01*
X167542784Y-98262778D01*
X167675072Y-98115857D01*
X167773923Y-97944643D01*
X167835016Y-97756618D01*
X167855681Y-97560000D01*
X167835016Y-97363382D01*
X167773923Y-97175357D01*
X167675072Y-97004143D01*
X167542784Y-96857222D01*
X167382841Y-96741016D01*
X167202232Y-96660604D01*
X167202230Y-96660603D01*
X167061048Y-96630594D01*
X167008851Y-96619500D01*
X166811149Y-96619500D01*
X166786445Y-96624751D01*
X166617768Y-96660603D01*
X166617762Y-96660605D01*
X166437160Y-96741016D01*
X166437155Y-96741018D01*
X166277217Y-96857220D01*
X166277210Y-96857226D01*
X166144927Y-97004144D01*
X166046077Y-97175356D01*
X166046074Y-97175362D01*
X166002463Y-97309586D01*
X165984984Y-97363382D01*
X165964319Y-97560000D01*
X165315681Y-97560000D01*
X165295016Y-97363382D01*
X165233923Y-97175357D01*
X165135072Y-97004143D01*
X165002784Y-96857222D01*
X164842841Y-96741016D01*
X164662232Y-96660604D01*
X164662230Y-96660603D01*
X164521048Y-96630594D01*
X164468851Y-96619500D01*
X164271149Y-96619500D01*
X164246445Y-96624751D01*
X164077768Y-96660603D01*
X164077766Y-96660604D01*
X163895894Y-96741579D01*
X163826644Y-96750863D01*
X163763368Y-96721235D01*
X163757778Y-96715980D01*
X159750225Y-92708427D01*
X159716740Y-92647104D01*
X159713906Y-92620746D01*
X159713906Y-90500000D01*
X163754456Y-90500000D01*
X163774528Y-90639606D01*
X163774530Y-90639614D01*
X163833119Y-90767907D01*
X163833121Y-90767909D01*
X163833122Y-90767911D01*
X163925488Y-90874507D01*
X164002540Y-90924026D01*
X164048294Y-90976828D01*
X164059500Y-91028340D01*
X164059500Y-91146567D01*
X164056513Y-91164143D01*
X164057394Y-91164243D01*
X164055829Y-91178122D01*
X164058720Y-91203769D01*
X164059500Y-91217655D01*
X164059500Y-91221467D01*
X164060348Y-91225184D01*
X164062675Y-91238876D01*
X164065567Y-91264539D01*
X164069190Y-91274893D01*
X164073950Y-91284777D01*
X164073951Y-91284779D01*
X164073952Y-91284780D01*
X164090062Y-91304982D01*
X164098102Y-91316315D01*
X164100118Y-91319524D01*
X164100122Y-91319529D01*
X164102804Y-91322211D01*
X164112070Y-91332579D01*
X164128170Y-91352768D01*
X164139092Y-91361478D01*
X164138539Y-91362170D01*
X164153079Y-91372487D01*
X165038991Y-92258399D01*
X165072476Y-92319722D01*
X165074048Y-92363726D01*
X165054456Y-92499999D01*
X165074528Y-92639606D01*
X165074530Y-92639614D01*
X165133119Y-92767907D01*
X165133121Y-92767909D01*
X165133122Y-92767911D01*
X165225488Y-92874507D01*
X165225490Y-92874508D01*
X165225489Y-92874508D01*
X165344145Y-92950764D01*
X165459944Y-92984764D01*
X165476064Y-92989498D01*
X165479474Y-92990499D01*
X165479476Y-92990500D01*
X165479477Y-92990500D01*
X165620524Y-92990500D01*
X165620524Y-92990499D01*
X165755853Y-92950764D01*
X165755854Y-92950764D01*
X165773209Y-92939611D01*
X165874512Y-92874507D01*
X165966878Y-92767911D01*
X165970822Y-92759276D01*
X165991572Y-92713838D01*
X166025471Y-92639611D01*
X166045544Y-92500000D01*
X166025471Y-92360389D01*
X166002231Y-92309500D01*
X165966880Y-92232092D01*
X165966878Y-92232090D01*
X165966878Y-92232089D01*
X165874512Y-92125493D01*
X165874509Y-92125491D01*
X165874510Y-92125491D01*
X165755854Y-92049235D01*
X165620525Y-92009500D01*
X165620523Y-92009500D01*
X165479477Y-92009500D01*
X165479474Y-92009500D01*
X165433671Y-92022948D01*
X165363802Y-92022946D01*
X165311059Y-91991651D01*
X164476819Y-91157411D01*
X164443334Y-91096088D01*
X164440500Y-91069730D01*
X164440500Y-91028340D01*
X164460185Y-90961301D01*
X164497458Y-90924026D01*
X164574512Y-90874507D01*
X164666878Y-90767911D01*
X164725471Y-90639611D01*
X164745544Y-90500000D01*
X164725471Y-90360389D01*
X164695497Y-90294756D01*
X164666880Y-90232092D01*
X164666878Y-90232090D01*
X164666878Y-90232089D01*
X164574512Y-90125493D01*
X164574509Y-90125491D01*
X164574510Y-90125491D01*
X164455854Y-90049235D01*
X164320525Y-90009500D01*
X164320523Y-90009500D01*
X164179477Y-90009500D01*
X164179474Y-90009500D01*
X164044146Y-90049235D01*
X164044145Y-90049235D01*
X163925489Y-90125491D01*
X163833122Y-90232089D01*
X163833119Y-90232092D01*
X163774530Y-90360385D01*
X163774528Y-90360393D01*
X163754456Y-90500000D01*
X159713906Y-90500000D01*
X159713906Y-90000003D01*
X168040458Y-90000003D01*
X168060500Y-90126551D01*
X168060501Y-90126554D01*
X168060502Y-90126555D01*
X168118674Y-90240723D01*
X168118676Y-90240725D01*
X168118678Y-90240728D01*
X168209271Y-90331321D01*
X168209273Y-90331322D01*
X168209277Y-90331326D01*
X168323445Y-90389498D01*
X168323446Y-90389498D01*
X168323448Y-90389499D01*
X168449997Y-90409542D01*
X168450000Y-90409542D01*
X168450003Y-90409542D01*
X168576551Y-90389499D01*
X168576552Y-90389498D01*
X168576555Y-90389498D01*
X168690723Y-90331326D01*
X168781326Y-90240723D01*
X168839498Y-90126555D01*
X168839499Y-90126551D01*
X168859542Y-90000003D01*
X168859542Y-89999999D01*
X168850265Y-89941429D01*
X168859219Y-89872135D01*
X168885057Y-89834349D01*
X169154464Y-89564942D01*
X169492643Y-89226763D01*
X169553964Y-89193280D01*
X169560907Y-89191976D01*
X169576555Y-89189498D01*
X169690723Y-89131326D01*
X169781326Y-89040723D01*
X169839498Y-88926555D01*
X169839714Y-88925193D01*
X169859542Y-88800003D01*
X169859542Y-88799996D01*
X169839499Y-88673448D01*
X169839498Y-88673446D01*
X169839498Y-88673445D01*
X169781326Y-88559277D01*
X169781322Y-88559273D01*
X169781321Y-88559271D01*
X169690728Y-88468678D01*
X169690725Y-88468676D01*
X169690723Y-88468674D01*
X169576555Y-88410502D01*
X169576554Y-88410501D01*
X169576551Y-88410500D01*
X169450003Y-88390458D01*
X169449997Y-88390458D01*
X169323448Y-88410500D01*
X169297052Y-88423950D01*
X169209277Y-88468674D01*
X169209276Y-88468675D01*
X169209271Y-88468678D01*
X169118678Y-88559271D01*
X169118675Y-88559276D01*
X169118674Y-88559277D01*
X169092177Y-88611280D01*
X169060500Y-88673448D01*
X169040458Y-88799996D01*
X169040458Y-88800003D01*
X169060500Y-88926551D01*
X169060500Y-88926552D01*
X169084927Y-88974491D01*
X169097823Y-89043160D01*
X169071547Y-89107901D01*
X169062123Y-89118467D01*
X168615649Y-89564942D01*
X168554326Y-89598427D01*
X168508571Y-89599734D01*
X168450003Y-89590458D01*
X168449997Y-89590458D01*
X168323448Y-89610500D01*
X168289237Y-89627932D01*
X168209277Y-89668674D01*
X168209276Y-89668675D01*
X168209271Y-89668678D01*
X168118678Y-89759271D01*
X168118675Y-89759276D01*
X168060500Y-89873448D01*
X168040458Y-89999996D01*
X168040458Y-90000003D01*
X159713906Y-90000003D01*
X159713906Y-88026160D01*
X159715937Y-88003807D01*
X159718503Y-87989807D01*
X159709070Y-87959537D01*
X159707061Y-87952330D01*
X159699475Y-87921550D01*
X159699473Y-87921548D01*
X159699197Y-87921021D01*
X159698406Y-87919113D01*
X159695996Y-87914839D01*
X159694772Y-87913175D01*
X159694465Y-87912667D01*
X159672033Y-87890235D01*
X159666932Y-87884816D01*
X159645896Y-87861071D01*
X159645895Y-87861070D01*
X159645892Y-87861067D01*
X159645387Y-87860719D01*
X159628153Y-87846355D01*
X156181798Y-84400000D01*
X163554456Y-84400000D01*
X163574528Y-84539606D01*
X163574530Y-84539614D01*
X163633119Y-84667907D01*
X163633121Y-84667909D01*
X163633122Y-84667911D01*
X163725488Y-84774507D01*
X163725490Y-84774508D01*
X163725489Y-84774508D01*
X163844145Y-84850764D01*
X163959944Y-84884764D01*
X163976064Y-84889498D01*
X163979474Y-84890499D01*
X163979476Y-84890500D01*
X163979477Y-84890500D01*
X164120524Y-84890500D01*
X164120524Y-84890499D01*
X164255853Y-84850764D01*
X164255854Y-84850764D01*
X164262544Y-84846465D01*
X164374512Y-84774507D01*
X164466878Y-84667911D01*
X164525471Y-84539611D01*
X164545544Y-84400000D01*
X164525471Y-84260389D01*
X164504849Y-84215233D01*
X164466880Y-84132092D01*
X164466878Y-84132090D01*
X164466878Y-84132089D01*
X164374512Y-84025493D01*
X164374509Y-84025491D01*
X164374510Y-84025491D01*
X164255854Y-83949235D01*
X164120525Y-83909500D01*
X164120523Y-83909500D01*
X163979477Y-83909500D01*
X163979474Y-83909500D01*
X163844146Y-83949235D01*
X163844145Y-83949235D01*
X163725489Y-84025491D01*
X163633122Y-84132089D01*
X163633119Y-84132092D01*
X163574530Y-84260385D01*
X163574528Y-84260393D01*
X163554456Y-84400000D01*
X156181798Y-84400000D01*
X154181801Y-82400003D01*
X155440458Y-82400003D01*
X155460500Y-82526551D01*
X155460501Y-82526554D01*
X155460502Y-82526555D01*
X155518674Y-82640723D01*
X155518676Y-82640725D01*
X155518678Y-82640728D01*
X155609271Y-82731321D01*
X155609273Y-82731322D01*
X155609277Y-82731326D01*
X155723445Y-82789498D01*
X155723446Y-82789498D01*
X155723448Y-82789499D01*
X155849997Y-82809542D01*
X155850000Y-82809542D01*
X155850003Y-82809542D01*
X155976551Y-82789499D01*
X155976552Y-82789498D01*
X155976555Y-82789498D01*
X156090723Y-82731326D01*
X156181326Y-82640723D01*
X156239498Y-82526555D01*
X156240399Y-82520867D01*
X156259542Y-82400003D01*
X156259542Y-82399998D01*
X156250265Y-82341427D01*
X156259219Y-82272134D01*
X156285054Y-82234351D01*
X157269405Y-81250000D01*
X161904456Y-81250000D01*
X161924528Y-81389606D01*
X161924530Y-81389614D01*
X161983119Y-81517907D01*
X161983121Y-81517909D01*
X161983122Y-81517911D01*
X162075488Y-81624507D01*
X162075490Y-81624508D01*
X162075489Y-81624508D01*
X162194145Y-81700764D01*
X162329474Y-81740499D01*
X162329476Y-81740500D01*
X162329477Y-81740500D01*
X162470524Y-81740500D01*
X162470524Y-81740499D01*
X162605853Y-81700764D01*
X162605854Y-81700764D01*
X162629662Y-81685464D01*
X162724512Y-81624507D01*
X162816878Y-81517911D01*
X162827196Y-81495319D01*
X162839364Y-81468674D01*
X162875471Y-81389611D01*
X162895544Y-81250000D01*
X164654456Y-81250000D01*
X164674528Y-81389606D01*
X164674530Y-81389614D01*
X164733119Y-81517907D01*
X164733121Y-81517909D01*
X164733122Y-81517911D01*
X164825488Y-81624507D01*
X164825490Y-81624508D01*
X164825489Y-81624508D01*
X164944145Y-81700764D01*
X165079474Y-81740499D01*
X165079476Y-81740500D01*
X165079477Y-81740500D01*
X165220524Y-81740500D01*
X165220524Y-81740499D01*
X165355853Y-81700764D01*
X165355854Y-81700764D01*
X165379662Y-81685464D01*
X165474512Y-81624507D01*
X165566878Y-81517911D01*
X165577196Y-81495319D01*
X165589364Y-81468674D01*
X165625471Y-81389611D01*
X165645544Y-81250000D01*
X165625471Y-81110389D01*
X165585537Y-81022946D01*
X165566880Y-80982092D01*
X165566878Y-80982090D01*
X165566878Y-80982089D01*
X165474512Y-80875493D01*
X165474509Y-80875491D01*
X165474510Y-80875491D01*
X165355854Y-80799235D01*
X165220525Y-80759500D01*
X165220523Y-80759500D01*
X165079477Y-80759500D01*
X165079474Y-80759500D01*
X164944146Y-80799235D01*
X164944145Y-80799235D01*
X164825489Y-80875491D01*
X164733122Y-80982089D01*
X164733119Y-80982092D01*
X164674530Y-81110385D01*
X164674528Y-81110393D01*
X164654456Y-81250000D01*
X162895544Y-81250000D01*
X162875471Y-81110389D01*
X162835537Y-81022946D01*
X162816880Y-80982092D01*
X162816878Y-80982090D01*
X162816878Y-80982089D01*
X162724512Y-80875493D01*
X162724509Y-80875491D01*
X162724510Y-80875491D01*
X162605854Y-80799235D01*
X162470525Y-80759500D01*
X162470523Y-80759500D01*
X162329477Y-80759500D01*
X162329474Y-80759500D01*
X162194146Y-80799235D01*
X162194145Y-80799235D01*
X162075489Y-80875491D01*
X161983122Y-80982089D01*
X161983119Y-80982092D01*
X161924530Y-81110385D01*
X161924528Y-81110393D01*
X161904456Y-81250000D01*
X157269405Y-81250000D01*
X160319406Y-78200000D01*
X172654456Y-78200000D01*
X172674528Y-78339606D01*
X172674530Y-78339614D01*
X172733119Y-78467907D01*
X172733121Y-78467909D01*
X172733122Y-78467911D01*
X172825488Y-78574507D01*
X172902540Y-78624026D01*
X172948294Y-78676828D01*
X172959500Y-78728340D01*
X172959500Y-80346567D01*
X172956513Y-80364143D01*
X172957394Y-80364243D01*
X172955829Y-80378122D01*
X172958720Y-80403769D01*
X172959500Y-80417655D01*
X172959500Y-80421467D01*
X172960348Y-80425184D01*
X172962675Y-80438876D01*
X172965567Y-80464539D01*
X172969190Y-80474893D01*
X172973950Y-80484777D01*
X172973951Y-80484779D01*
X172973952Y-80484780D01*
X172990062Y-80504982D01*
X172998102Y-80516315D01*
X173000118Y-80519524D01*
X173000122Y-80519529D01*
X173002804Y-80522211D01*
X173012070Y-80532579D01*
X173028170Y-80552768D01*
X173039092Y-80561478D01*
X173038539Y-80562170D01*
X173053079Y-80572487D01*
X173738991Y-81258399D01*
X173772476Y-81319722D01*
X173774048Y-81363726D01*
X173754456Y-81499999D01*
X173774528Y-81639606D01*
X173774530Y-81639614D01*
X173833119Y-81767907D01*
X173833121Y-81767909D01*
X173833122Y-81767911D01*
X173925488Y-81874507D01*
X173925490Y-81874508D01*
X173925489Y-81874508D01*
X174044145Y-81950764D01*
X174179474Y-81990499D01*
X174179476Y-81990500D01*
X174179477Y-81990500D01*
X174320524Y-81990500D01*
X174320524Y-81990499D01*
X174455853Y-81950764D01*
X174455854Y-81950764D01*
X174502025Y-81921092D01*
X174574512Y-81874507D01*
X174666878Y-81767911D01*
X174725471Y-81639611D01*
X174745544Y-81500000D01*
X174725471Y-81360389D01*
X174712196Y-81331321D01*
X174666880Y-81232092D01*
X174666878Y-81232090D01*
X174666878Y-81232089D01*
X174574512Y-81125493D01*
X174574509Y-81125491D01*
X174574510Y-81125491D01*
X174455854Y-81049235D01*
X174320525Y-81009500D01*
X174320523Y-81009500D01*
X174179477Y-81009500D01*
X174179474Y-81009500D01*
X174133671Y-81022948D01*
X174063802Y-81022946D01*
X174011059Y-80991651D01*
X173376819Y-80357411D01*
X173343334Y-80296088D01*
X173340500Y-80269730D01*
X173340500Y-78728340D01*
X173360185Y-78661301D01*
X173397458Y-78624026D01*
X173474512Y-78574507D01*
X173566878Y-78467911D01*
X173625471Y-78339611D01*
X173645544Y-78200000D01*
X173625471Y-78060389D01*
X173602110Y-78009235D01*
X173566880Y-77932092D01*
X173566878Y-77932090D01*
X173566878Y-77932089D01*
X173474512Y-77825493D01*
X173474509Y-77825491D01*
X173474510Y-77825491D01*
X173355854Y-77749235D01*
X173220525Y-77709500D01*
X173220523Y-77709500D01*
X173079477Y-77709500D01*
X173079474Y-77709500D01*
X172944146Y-77749235D01*
X172944145Y-77749235D01*
X172825489Y-77825491D01*
X172733122Y-77932089D01*
X172733119Y-77932092D01*
X172674530Y-78060385D01*
X172674528Y-78060393D01*
X172654456Y-78200000D01*
X160319406Y-78200000D01*
X163292588Y-75226819D01*
X163353911Y-75193334D01*
X163380269Y-75190500D01*
X167619004Y-75190500D01*
X167686043Y-75210185D01*
X167711431Y-75234164D01*
X167711773Y-75233823D01*
X167809271Y-75331321D01*
X167809273Y-75331322D01*
X167809277Y-75331326D01*
X167923445Y-75389498D01*
X167923446Y-75389498D01*
X167923448Y-75389499D01*
X168049997Y-75409542D01*
X168050000Y-75409542D01*
X168050003Y-75409542D01*
X168176551Y-75389499D01*
X168176552Y-75389498D01*
X168176555Y-75389498D01*
X168290723Y-75331326D01*
X168381326Y-75240723D01*
X168439498Y-75126555D01*
X168459542Y-75000000D01*
X168459542Y-74999996D01*
X168439499Y-74873448D01*
X168439498Y-74873446D01*
X168439498Y-74873445D01*
X168381326Y-74759277D01*
X168381322Y-74759273D01*
X168381321Y-74759271D01*
X168290728Y-74668678D01*
X168290725Y-74668676D01*
X168290723Y-74668674D01*
X168176555Y-74610502D01*
X168176554Y-74610501D01*
X168176551Y-74610500D01*
X168050003Y-74590458D01*
X168049997Y-74590458D01*
X167923448Y-74610500D01*
X167867493Y-74639011D01*
X167809277Y-74668674D01*
X167809276Y-74668675D01*
X167809271Y-74668678D01*
X167711773Y-74766177D01*
X167710659Y-74765063D01*
X167664000Y-74801048D01*
X167619004Y-74809500D01*
X163303435Y-74809500D01*
X163285860Y-74806513D01*
X163285761Y-74807394D01*
X163271878Y-74805829D01*
X163250050Y-74808289D01*
X163246227Y-74808720D01*
X163232345Y-74809500D01*
X163228534Y-74809500D01*
X163224804Y-74810351D01*
X163211123Y-74812674D01*
X163185466Y-74815566D01*
X163175109Y-74819189D01*
X163165219Y-74823952D01*
X163145023Y-74840057D01*
X163133708Y-74848086D01*
X163130474Y-74850118D01*
X163130472Y-74850119D01*
X163127776Y-74852816D01*
X163117424Y-74862066D01*
X163097230Y-74878171D01*
X163088521Y-74889092D01*
X163087830Y-74888541D01*
X163077513Y-74903078D01*
X156015649Y-81964942D01*
X155954326Y-81998427D01*
X155908571Y-81999734D01*
X155850003Y-81990458D01*
X155849997Y-81990458D01*
X155723448Y-82010500D01*
X155681324Y-82031964D01*
X155609277Y-82068674D01*
X155609276Y-82068675D01*
X155609271Y-82068678D01*
X155518678Y-82159271D01*
X155518675Y-82159276D01*
X155518674Y-82159277D01*
X155490311Y-82214942D01*
X155460500Y-82273448D01*
X155440458Y-82399996D01*
X155440458Y-82400003D01*
X154181801Y-82400003D01*
X154176265Y-82394467D01*
X154142780Y-82333144D01*
X154147764Y-82263452D01*
X154176265Y-82219104D01*
X154207006Y-82188363D01*
X154207008Y-82188363D01*
X154207008Y-78088363D01*
X153631008Y-78088363D01*
X153563969Y-78068678D01*
X153518214Y-78015874D01*
X153507008Y-77964363D01*
X153507008Y-75988363D01*
X151131008Y-75988363D01*
X151063969Y-75968678D01*
X151018214Y-75915874D01*
X151007008Y-75864363D01*
X151007008Y-74588363D01*
X148407008Y-74588363D01*
X148503387Y-82009618D01*
X148503399Y-82010484D01*
X148484586Y-82077773D01*
X148432381Y-82124210D01*
X148379409Y-82136094D01*
X147919254Y-82136094D01*
X147852215Y-82116409D01*
X147831573Y-82099775D01*
X147729915Y-81998117D01*
X147696430Y-81936794D01*
X147695123Y-81891038D01*
X147709542Y-81800001D01*
X147709542Y-81799996D01*
X147689499Y-81673448D01*
X147689498Y-81673446D01*
X147689498Y-81673445D01*
X147631326Y-81559277D01*
X147631325Y-81559276D01*
X147627421Y-81551614D01*
X147613906Y-81495319D01*
X147613906Y-77445431D01*
X147633591Y-77378392D01*
X147670864Y-77341117D01*
X147774512Y-77274507D01*
X147866878Y-77167911D01*
X147925471Y-77039611D01*
X147945544Y-76900000D01*
X147925471Y-76760389D01*
X147905810Y-76717338D01*
X147866880Y-76632092D01*
X147866878Y-76632090D01*
X147866878Y-76632089D01*
X147774512Y-76525493D01*
X147774509Y-76525491D01*
X147774510Y-76525491D01*
X147655854Y-76449235D01*
X147520525Y-76409500D01*
X147520523Y-76409500D01*
X147379477Y-76409500D01*
X147379474Y-76409500D01*
X147244146Y-76449235D01*
X147244145Y-76449235D01*
X147125489Y-76525491D01*
X147033122Y-76632089D01*
X147033121Y-76632090D01*
X147027294Y-76644850D01*
X146981539Y-76697654D01*
X146914499Y-76717338D01*
X146847460Y-76697653D01*
X146801705Y-76644849D01*
X146790500Y-76593338D01*
X146790500Y-72800000D01*
X171954456Y-72800000D01*
X171974528Y-72939606D01*
X171974530Y-72939614D01*
X172033119Y-73067907D01*
X172033121Y-73067909D01*
X172033122Y-73067911D01*
X172125488Y-73174507D01*
X172125490Y-73174508D01*
X172125489Y-73174508D01*
X172244145Y-73250764D01*
X172379474Y-73290499D01*
X172379476Y-73290500D01*
X172379477Y-73290500D01*
X172520524Y-73290500D01*
X172520524Y-73290499D01*
X172655853Y-73250764D01*
X172655854Y-73250764D01*
X172774510Y-73174508D01*
X172774509Y-73174508D01*
X172774512Y-73174507D01*
X172866878Y-73067911D01*
X172925471Y-72939611D01*
X172945544Y-72800000D01*
X172925471Y-72660389D01*
X172912831Y-72632711D01*
X172866880Y-72532092D01*
X172866878Y-72532090D01*
X172866878Y-72532089D01*
X172774512Y-72425493D01*
X172774509Y-72425491D01*
X172774510Y-72425491D01*
X172655854Y-72349235D01*
X172520525Y-72309500D01*
X172520523Y-72309500D01*
X172379477Y-72309500D01*
X172379474Y-72309500D01*
X172244146Y-72349235D01*
X172244145Y-72349235D01*
X172125489Y-72425491D01*
X172033122Y-72532089D01*
X172033119Y-72532092D01*
X171974530Y-72660385D01*
X171974528Y-72660393D01*
X171954456Y-72800000D01*
X146790500Y-72800000D01*
X146790500Y-72024872D01*
X146810185Y-71957833D01*
X146862989Y-71912078D01*
X146895103Y-71902399D01*
X146976551Y-71889499D01*
X146976552Y-71889498D01*
X146976555Y-71889498D01*
X147090723Y-71831326D01*
X147181326Y-71740723D01*
X147239498Y-71626555D01*
X147239499Y-71626551D01*
X147259542Y-71500003D01*
X147259542Y-71499996D01*
X147239499Y-71373448D01*
X147239498Y-71373446D01*
X147239498Y-71373445D01*
X147181326Y-71259277D01*
X147181322Y-71259273D01*
X147181321Y-71259271D01*
X147090728Y-71168678D01*
X147090725Y-71168676D01*
X147090723Y-71168674D01*
X146976555Y-71110502D01*
X146976553Y-71110501D01*
X146967860Y-71106072D01*
X146968976Y-71103881D01*
X146963302Y-71100000D01*
X171954456Y-71100000D01*
X171974528Y-71239606D01*
X171974530Y-71239614D01*
X172033119Y-71367907D01*
X172033121Y-71367909D01*
X172033122Y-71367911D01*
X172125488Y-71474507D01*
X172125490Y-71474508D01*
X172125489Y-71474508D01*
X172244145Y-71550764D01*
X172379474Y-71590499D01*
X172379476Y-71590500D01*
X172379477Y-71590500D01*
X172520524Y-71590500D01*
X172520524Y-71590499D01*
X172655853Y-71550764D01*
X172655854Y-71550764D01*
X172668653Y-71542539D01*
X172774512Y-71474507D01*
X172866878Y-71367911D01*
X172925471Y-71239611D01*
X172945544Y-71100000D01*
X172925471Y-70960389D01*
X172889018Y-70880568D01*
X172866880Y-70832092D01*
X172866878Y-70832090D01*
X172866878Y-70832089D01*
X172774512Y-70725493D01*
X172774509Y-70725491D01*
X172774510Y-70725491D01*
X172655854Y-70649235D01*
X172520525Y-70609500D01*
X172520523Y-70609500D01*
X172379477Y-70609500D01*
X172379474Y-70609500D01*
X172244146Y-70649235D01*
X172244145Y-70649235D01*
X172125489Y-70725491D01*
X172033122Y-70832089D01*
X172033119Y-70832092D01*
X171974530Y-70960385D01*
X171974528Y-70960393D01*
X171954456Y-71100000D01*
X146963302Y-71100000D01*
X146922886Y-71072358D01*
X146895695Y-71007996D01*
X146907617Y-70939151D01*
X146908404Y-70937579D01*
X146919578Y-70915649D01*
X146939498Y-70876555D01*
X146940382Y-70870974D01*
X146959542Y-70750003D01*
X146959542Y-70749996D01*
X146939499Y-70623448D01*
X146939498Y-70623446D01*
X146939498Y-70623445D01*
X146881326Y-70509277D01*
X146881322Y-70509273D01*
X146881321Y-70509271D01*
X146790728Y-70418678D01*
X146790725Y-70418676D01*
X146790723Y-70418674D01*
X146676555Y-70360502D01*
X146676554Y-70360501D01*
X146676551Y-70360500D01*
X146550003Y-70340458D01*
X146549997Y-70340458D01*
X146423448Y-70360500D01*
X146423447Y-70360500D01*
X146332857Y-70406659D01*
X146264187Y-70419555D01*
X146199447Y-70393278D01*
X146159190Y-70336172D01*
X146154090Y-70315583D01*
X146139498Y-70223445D01*
X146127552Y-70200000D01*
X173254456Y-70200000D01*
X173274528Y-70339606D01*
X173274530Y-70339614D01*
X173333119Y-70467907D01*
X173333121Y-70467909D01*
X173333122Y-70467911D01*
X173425488Y-70574507D01*
X173425490Y-70574508D01*
X173425489Y-70574508D01*
X173544145Y-70650764D01*
X173679474Y-70690499D01*
X173679476Y-70690500D01*
X173679477Y-70690500D01*
X173820524Y-70690500D01*
X173820524Y-70690499D01*
X173955853Y-70650764D01*
X173955854Y-70650764D01*
X173958234Y-70649235D01*
X174074512Y-70574507D01*
X174166878Y-70467911D01*
X174225471Y-70339611D01*
X174245544Y-70200000D01*
X174225471Y-70060389D01*
X174175058Y-69950000D01*
X174166880Y-69932092D01*
X174166878Y-69932090D01*
X174166878Y-69932089D01*
X174074512Y-69825493D01*
X174074509Y-69825491D01*
X174074510Y-69825491D01*
X173957046Y-69750001D01*
X194407032Y-69750001D01*
X194426864Y-69976686D01*
X194426866Y-69976697D01*
X194485758Y-70196488D01*
X194485761Y-70196497D01*
X194581931Y-70402732D01*
X194581932Y-70402734D01*
X194712454Y-70589141D01*
X194873358Y-70750045D01*
X194873361Y-70750047D01*
X195059766Y-70880568D01*
X195266004Y-70976739D01*
X195485808Y-71035635D01*
X195647730Y-71049801D01*
X195712498Y-71055468D01*
X195712500Y-71055468D01*
X195712502Y-71055468D01*
X195769173Y-71050509D01*
X195939192Y-71035635D01*
X196158996Y-70976739D01*
X196365234Y-70880568D01*
X196551639Y-70750047D01*
X196712547Y-70589139D01*
X196843068Y-70402734D01*
X196939239Y-70196496D01*
X196998135Y-69976692D01*
X197017968Y-69750000D01*
X196998135Y-69523308D01*
X196939239Y-69303504D01*
X196843068Y-69097266D01*
X196745339Y-68957693D01*
X196712545Y-68910858D01*
X196551641Y-68749954D01*
X196365234Y-68619432D01*
X196365232Y-68619431D01*
X196158997Y-68523261D01*
X196158988Y-68523258D01*
X195939197Y-68464366D01*
X195939193Y-68464365D01*
X195939192Y-68464365D01*
X195939191Y-68464364D01*
X195939186Y-68464364D01*
X195712502Y-68444532D01*
X195712498Y-68444532D01*
X195485813Y-68464364D01*
X195485802Y-68464366D01*
X195266011Y-68523258D01*
X195266002Y-68523261D01*
X195059767Y-68619431D01*
X195059765Y-68619432D01*
X194873358Y-68749954D01*
X194712454Y-68910858D01*
X194581932Y-69097265D01*
X194581931Y-69097267D01*
X194485761Y-69303502D01*
X194485758Y-69303511D01*
X194426866Y-69523302D01*
X194426864Y-69523313D01*
X194407032Y-69749998D01*
X194407032Y-69750001D01*
X173957046Y-69750001D01*
X173955854Y-69749235D01*
X173820525Y-69709500D01*
X173820523Y-69709500D01*
X173679477Y-69709500D01*
X173679474Y-69709500D01*
X173544146Y-69749235D01*
X173544145Y-69749235D01*
X173425489Y-69825491D01*
X173333122Y-69932089D01*
X173333119Y-69932092D01*
X173274530Y-70060385D01*
X173274528Y-70060393D01*
X173254456Y-70200000D01*
X146127552Y-70200000D01*
X146081326Y-70109277D01*
X146081322Y-70109273D01*
X146081321Y-70109271D01*
X145990728Y-70018678D01*
X145990725Y-70018676D01*
X145990723Y-70018674D01*
X145876555Y-69960502D01*
X145876554Y-69960501D01*
X145876551Y-69960500D01*
X145750003Y-69940458D01*
X145749997Y-69940458D01*
X145623448Y-69960500D01*
X145509271Y-70018677D01*
X145503603Y-70022795D01*
X145437795Y-70046268D01*
X145369742Y-70030437D01*
X145321052Y-69980327D01*
X145308254Y-69941872D01*
X145289498Y-69823445D01*
X145231326Y-69709277D01*
X145231322Y-69709273D01*
X145231321Y-69709271D01*
X145140728Y-69618678D01*
X145140725Y-69618676D01*
X145140723Y-69618674D01*
X145026555Y-69560502D01*
X145026554Y-69560501D01*
X145026551Y-69560500D01*
X144900003Y-69540458D01*
X144899997Y-69540458D01*
X144773448Y-69560500D01*
X144719305Y-69588088D01*
X144659277Y-69618674D01*
X144659276Y-69618675D01*
X144659271Y-69618678D01*
X144602181Y-69675769D01*
X144540858Y-69709254D01*
X144471166Y-69704270D01*
X144415233Y-69662398D01*
X144390816Y-69596934D01*
X144390500Y-69588088D01*
X144390500Y-69432912D01*
X144410185Y-69365873D01*
X144426819Y-69345231D01*
X144481321Y-69290728D01*
X144481326Y-69290723D01*
X144539498Y-69176555D01*
X144552056Y-69097266D01*
X144559542Y-69050003D01*
X144559542Y-69049996D01*
X144539499Y-68923448D01*
X144539498Y-68923446D01*
X144539498Y-68923445D01*
X144481326Y-68809277D01*
X144481322Y-68809273D01*
X144481321Y-68809271D01*
X144390728Y-68718678D01*
X144390725Y-68718676D01*
X144390723Y-68718674D01*
X144276555Y-68660502D01*
X144276554Y-68660501D01*
X144276551Y-68660500D01*
X144150003Y-68640458D01*
X144149997Y-68640458D01*
X144023448Y-68660500D01*
X143967493Y-68689011D01*
X143909277Y-68718674D01*
X143909276Y-68718675D01*
X143909271Y-68718678D01*
X143818678Y-68809271D01*
X143818675Y-68809276D01*
X143760500Y-68923448D01*
X143740458Y-69049996D01*
X143740458Y-69050003D01*
X143760500Y-69176551D01*
X143760501Y-69176554D01*
X143760502Y-69176555D01*
X143818674Y-69290723D01*
X143818676Y-69290725D01*
X143818678Y-69290728D01*
X143909271Y-69381321D01*
X143909275Y-69381324D01*
X143909277Y-69381326D01*
X143941796Y-69397895D01*
X143992591Y-69445868D01*
X144009500Y-69508379D01*
X144009500Y-76471929D01*
X143989815Y-76538968D01*
X143937011Y-76584723D01*
X143867853Y-76594667D01*
X143804297Y-76565642D01*
X143791788Y-76553132D01*
X143724514Y-76475495D01*
X143724510Y-76475491D01*
X143605854Y-76399235D01*
X143470525Y-76359500D01*
X143470523Y-76359500D01*
X143329477Y-76359500D01*
X143329474Y-76359500D01*
X143194146Y-76399235D01*
X143194145Y-76399235D01*
X143075489Y-76475491D01*
X142983122Y-76582089D01*
X142983119Y-76582092D01*
X142924530Y-76710385D01*
X142924528Y-76710393D01*
X142904456Y-76850000D01*
X142924528Y-76989606D01*
X142924530Y-76989614D01*
X142983119Y-77117907D01*
X142983121Y-77117909D01*
X142983122Y-77117911D01*
X143075488Y-77224507D01*
X143075490Y-77224508D01*
X143075489Y-77224508D01*
X143194145Y-77300764D01*
X143329474Y-77340499D01*
X143329476Y-77340500D01*
X143329477Y-77340500D01*
X143470524Y-77340500D01*
X143470524Y-77340499D01*
X143605853Y-77300764D01*
X143605854Y-77300764D01*
X143605856Y-77300763D01*
X143724512Y-77224507D01*
X143791788Y-77146866D01*
X143850565Y-77109093D01*
X143920435Y-77109093D01*
X143979213Y-77146867D01*
X144008238Y-77210423D01*
X144009500Y-77228070D01*
X144009500Y-81019730D01*
X143989815Y-81086769D01*
X143973181Y-81107411D01*
X143503078Y-81577513D01*
X143488541Y-81587830D01*
X143489092Y-81588521D01*
X143478171Y-81597230D01*
X143462066Y-81617424D01*
X143452816Y-81627776D01*
X143450119Y-81630472D01*
X143450118Y-81630474D01*
X143448086Y-81633708D01*
X143440057Y-81645023D01*
X143423952Y-81665219D01*
X143419189Y-81675109D01*
X143415566Y-81685466D01*
X143412674Y-81711123D01*
X143410351Y-81724804D01*
X143409500Y-81728534D01*
X143409500Y-81732344D01*
X143408720Y-81746229D01*
X143405829Y-81771878D01*
X143407394Y-81785761D01*
X143406513Y-81785860D01*
X143409500Y-81803435D01*
X143409500Y-82817088D01*
X143389815Y-82884127D01*
X143373181Y-82904769D01*
X143318678Y-82959271D01*
X143318675Y-82959276D01*
X143318674Y-82959277D01*
X143292574Y-83010500D01*
X143260500Y-83073448D01*
X143240458Y-83199996D01*
X143240458Y-83200003D01*
X143260500Y-83326551D01*
X143260501Y-83326554D01*
X143260502Y-83326555D01*
X143318674Y-83440723D01*
X143318676Y-83440725D01*
X143318678Y-83440728D01*
X143409271Y-83531321D01*
X143409273Y-83531322D01*
X143409277Y-83531326D01*
X143495023Y-83575016D01*
X143545818Y-83622990D01*
X143562613Y-83690811D01*
X143540075Y-83756946D01*
X143485360Y-83800397D01*
X143438727Y-83809500D01*
X141290671Y-83809500D01*
X141273096Y-83806513D01*
X141272997Y-83807394D01*
X141259114Y-83805829D01*
X141237286Y-83808289D01*
X141233463Y-83808720D01*
X141219581Y-83809500D01*
X141215770Y-83809500D01*
X141212040Y-83810351D01*
X141198359Y-83812674D01*
X141172702Y-83815566D01*
X141162345Y-83819189D01*
X141152455Y-83823952D01*
X141132259Y-83840057D01*
X141120944Y-83848086D01*
X141117710Y-83850118D01*
X141117708Y-83850119D01*
X141115012Y-83852816D01*
X141104660Y-83862066D01*
X141084466Y-83878171D01*
X141075757Y-83889092D01*
X141075066Y-83888541D01*
X141064749Y-83903078D01*
X140475712Y-84492115D01*
X140414389Y-84525600D01*
X140372859Y-84522630D01*
X140374798Y-84567837D01*
X140342115Y-84625712D01*
X139953078Y-85014749D01*
X139938541Y-85025066D01*
X139939092Y-85025757D01*
X139928171Y-85034466D01*
X139912066Y-85054660D01*
X139902816Y-85065012D01*
X139900119Y-85067708D01*
X139900118Y-85067710D01*
X139898086Y-85070944D01*
X139890057Y-85082259D01*
X139873952Y-85102455D01*
X139869189Y-85112345D01*
X139865566Y-85122702D01*
X139862674Y-85148359D01*
X139860351Y-85162040D01*
X139859500Y-85165770D01*
X139859500Y-85169003D01*
X139858909Y-85171013D01*
X139858721Y-85172689D01*
X139858427Y-85172655D01*
X139839815Y-85236042D01*
X139815836Y-85261432D01*
X139816177Y-85261773D01*
X139718678Y-85359271D01*
X139718675Y-85359276D01*
X139718674Y-85359277D01*
X139689011Y-85417493D01*
X139660500Y-85473448D01*
X139640458Y-85599996D01*
X139640458Y-85600003D01*
X127490113Y-85600003D01*
X128145393Y-84944723D01*
X128206714Y-84911240D01*
X128240240Y-84910283D01*
X128240240Y-84909542D01*
X128250002Y-84909542D01*
X128376551Y-84889499D01*
X128376552Y-84889498D01*
X128376555Y-84889498D01*
X128490723Y-84831326D01*
X128581326Y-84740723D01*
X128639498Y-84626555D01*
X128639632Y-84625712D01*
X128659542Y-84500003D01*
X128659542Y-84499996D01*
X128639499Y-84373448D01*
X128639498Y-84373446D01*
X128639498Y-84373445D01*
X128581326Y-84259277D01*
X128581322Y-84259273D01*
X128581321Y-84259271D01*
X128526819Y-84204769D01*
X128493334Y-84143446D01*
X128490500Y-84117088D01*
X128490500Y-83700003D01*
X138740458Y-83700003D01*
X138760500Y-83826551D01*
X138760501Y-83826554D01*
X138760502Y-83826555D01*
X138818674Y-83940723D01*
X138818676Y-83940725D01*
X138818678Y-83940728D01*
X138909271Y-84031321D01*
X138909273Y-84031322D01*
X138909277Y-84031326D01*
X139023445Y-84089498D01*
X139129974Y-84106370D01*
X139193107Y-84136298D01*
X139230039Y-84195610D01*
X139229041Y-84265472D01*
X139190432Y-84323705D01*
X139166872Y-84339327D01*
X139109276Y-84368674D01*
X139109271Y-84368678D01*
X139018678Y-84459271D01*
X139018675Y-84459276D01*
X139018674Y-84459277D01*
X138992952Y-84509759D01*
X138960500Y-84573448D01*
X138940458Y-84699996D01*
X138940458Y-84700003D01*
X138960500Y-84826551D01*
X138960501Y-84826554D01*
X138960502Y-84826555D01*
X139018674Y-84940723D01*
X139018676Y-84940725D01*
X139018678Y-84940728D01*
X139109271Y-85031321D01*
X139109273Y-85031322D01*
X139109277Y-85031326D01*
X139223445Y-85089498D01*
X139223446Y-85089498D01*
X139223448Y-85089499D01*
X139349997Y-85109542D01*
X139350000Y-85109542D01*
X139350003Y-85109542D01*
X139476551Y-85089499D01*
X139476552Y-85089498D01*
X139476555Y-85089498D01*
X139590723Y-85031326D01*
X139681326Y-84940723D01*
X139739498Y-84826555D01*
X139744941Y-84792189D01*
X139759542Y-84700003D01*
X139759542Y-84699997D01*
X139750399Y-84642270D01*
X139759354Y-84572976D01*
X139804350Y-84519524D01*
X139871102Y-84498885D01*
X139892270Y-84500399D01*
X139949998Y-84509542D01*
X139950000Y-84509542D01*
X139950003Y-84509542D01*
X140076551Y-84489499D01*
X140076553Y-84489498D01*
X140076555Y-84489498D01*
X140190723Y-84431326D01*
X140190724Y-84431324D01*
X140198138Y-84427547D01*
X140264985Y-84414992D01*
X140264347Y-84413280D01*
X140277547Y-84348138D01*
X140281324Y-84340724D01*
X140281326Y-84340723D01*
X140339498Y-84226555D01*
X140339499Y-84226551D01*
X140359542Y-84100003D01*
X140359542Y-84099996D01*
X140339499Y-83973448D01*
X140339498Y-83973446D01*
X140339498Y-83973445D01*
X140281326Y-83859277D01*
X140281322Y-83859273D01*
X140281321Y-83859271D01*
X140190728Y-83768678D01*
X140190725Y-83768676D01*
X140190723Y-83768674D01*
X140076555Y-83710502D01*
X140076554Y-83710501D01*
X140076551Y-83710500D01*
X139950003Y-83690458D01*
X139949997Y-83690458D01*
X139823448Y-83710500D01*
X139823447Y-83710500D01*
X139732857Y-83756659D01*
X139664187Y-83769555D01*
X139599447Y-83743278D01*
X139559190Y-83686172D01*
X139554090Y-83665583D01*
X139539498Y-83573445D01*
X139481326Y-83459277D01*
X139481322Y-83459273D01*
X139481321Y-83459271D01*
X139390728Y-83368678D01*
X139390725Y-83368676D01*
X139390723Y-83368674D01*
X139276555Y-83310502D01*
X139276554Y-83310501D01*
X139276551Y-83310500D01*
X139150003Y-83290458D01*
X139149997Y-83290458D01*
X139023448Y-83310500D01*
X138991947Y-83326551D01*
X138909277Y-83368674D01*
X138909276Y-83368675D01*
X138909271Y-83368678D01*
X138818678Y-83459271D01*
X138818675Y-83459276D01*
X138818674Y-83459277D01*
X138814213Y-83468032D01*
X138760500Y-83573448D01*
X138740458Y-83699996D01*
X138740458Y-83700003D01*
X128490500Y-83700003D01*
X128490500Y-81000003D01*
X138740458Y-81000003D01*
X138760500Y-81126551D01*
X138760501Y-81126554D01*
X138760502Y-81126555D01*
X138818674Y-81240723D01*
X138818676Y-81240725D01*
X138818678Y-81240728D01*
X138909271Y-81331321D01*
X138909273Y-81331322D01*
X138909277Y-81331326D01*
X139023445Y-81389498D01*
X139023446Y-81389498D01*
X139023448Y-81389499D01*
X139149997Y-81409542D01*
X139150000Y-81409542D01*
X139150003Y-81409542D01*
X139276551Y-81389499D01*
X139276552Y-81389498D01*
X139276555Y-81389498D01*
X139390723Y-81331326D01*
X139481326Y-81240723D01*
X139539498Y-81126555D01*
X139539499Y-81126551D01*
X139559542Y-81000003D01*
X139559542Y-80999996D01*
X139539499Y-80873448D01*
X139539498Y-80873446D01*
X139539498Y-80873445D01*
X139481326Y-80759277D01*
X139481322Y-80759273D01*
X139481321Y-80759271D01*
X139390728Y-80668678D01*
X139390725Y-80668676D01*
X139390723Y-80668674D01*
X139276555Y-80610502D01*
X139276554Y-80610501D01*
X139276551Y-80610500D01*
X139150003Y-80590458D01*
X139149997Y-80590458D01*
X139023448Y-80610500D01*
X138967493Y-80639011D01*
X138909277Y-80668674D01*
X138909276Y-80668675D01*
X138909271Y-80668678D01*
X138818678Y-80759271D01*
X138818675Y-80759276D01*
X138818674Y-80759277D01*
X138803114Y-80789815D01*
X138760500Y-80873448D01*
X138740458Y-80999996D01*
X138740458Y-81000003D01*
X128490500Y-81000003D01*
X128490500Y-77718340D01*
X128510185Y-77651301D01*
X128547458Y-77614026D01*
X128624512Y-77564507D01*
X128716878Y-77457911D01*
X128722578Y-77445431D01*
X128770498Y-77340500D01*
X128775471Y-77329611D01*
X128795544Y-77190000D01*
X128775471Y-77050389D01*
X128747716Y-76989614D01*
X128716880Y-76922092D01*
X128716878Y-76922090D01*
X128716878Y-76922089D01*
X128624512Y-76815493D01*
X128624509Y-76815491D01*
X128624510Y-76815491D01*
X128505854Y-76739235D01*
X128370525Y-76699500D01*
X128370523Y-76699500D01*
X128229477Y-76699500D01*
X128229474Y-76699500D01*
X128094146Y-76739235D01*
X128094145Y-76739235D01*
X127975489Y-76815491D01*
X127883122Y-76922089D01*
X127883119Y-76922092D01*
X127824530Y-77050385D01*
X127824528Y-77050393D01*
X127804456Y-77190000D01*
X127824528Y-77329606D01*
X127824530Y-77329614D01*
X127883119Y-77457907D01*
X127883121Y-77457909D01*
X127883122Y-77457911D01*
X127975488Y-77564507D01*
X127975489Y-77564508D01*
X127979213Y-77568805D01*
X128008238Y-77632361D01*
X128009500Y-77650008D01*
X128009500Y-84117088D01*
X127989815Y-84184127D01*
X127973181Y-84204769D01*
X127918678Y-84259271D01*
X127918675Y-84259276D01*
X127918674Y-84259277D01*
X127899544Y-84296821D01*
X127860500Y-84373448D01*
X127840458Y-84499996D01*
X127840458Y-84509759D01*
X127838485Y-84509759D01*
X127831112Y-84566820D01*
X127805274Y-84604606D01*
X124986694Y-87423186D01*
X124981987Y-87427654D01*
X124951084Y-87455479D01*
X124941959Y-87475975D01*
X124932676Y-87493072D01*
X124920458Y-87511886D01*
X124920457Y-87511889D01*
X124919966Y-87514989D01*
X124910778Y-87546007D01*
X124909501Y-87548875D01*
X124909500Y-87548881D01*
X124909500Y-87571314D01*
X124907973Y-87590712D01*
X124904463Y-87612867D01*
X124904463Y-87612868D01*
X120300500Y-87612868D01*
X120300500Y-64959216D01*
X120303561Y-64937276D01*
X120304401Y-64928207D01*
X120301029Y-64891817D01*
X120300500Y-64880376D01*
X120300500Y-64872155D01*
X120298990Y-64864079D01*
X120297407Y-64852731D01*
X120294035Y-64816340D01*
X120291548Y-64807599D01*
X120288350Y-64798059D01*
X120285061Y-64789570D01*
X120285061Y-64789567D01*
X120285059Y-64789564D01*
X120285058Y-64789561D01*
X120265821Y-64758492D01*
X120260252Y-64748496D01*
X120243958Y-64715772D01*
X120243956Y-64715770D01*
X120243955Y-64715768D01*
X120238475Y-64708511D01*
X120232061Y-64700786D01*
X120225916Y-64694045D01*
X120196750Y-64672020D01*
X120187949Y-64664712D01*
X120160933Y-64640084D01*
X120160931Y-64640083D01*
X120160929Y-64640081D01*
X120153232Y-64635315D01*
X120144390Y-64630390D01*
X120136264Y-64626343D01*
X120101120Y-64616344D01*
X120090265Y-64612706D01*
X120056172Y-64599499D01*
X120047236Y-64597829D01*
X120037257Y-64596437D01*
X120028208Y-64595599D01*
X120028207Y-64595599D01*
X119991817Y-64598971D01*
X119980376Y-64599500D01*
X112637000Y-64599500D01*
X112569961Y-64579815D01*
X112524206Y-64527011D01*
X112513000Y-64475500D01*
X112513000Y-63975000D01*
X123229456Y-63975000D01*
X123249528Y-64114606D01*
X123249530Y-64114614D01*
X123308119Y-64242907D01*
X123308121Y-64242909D01*
X123308122Y-64242911D01*
X123400488Y-64349507D01*
X123400490Y-64349508D01*
X123400489Y-64349508D01*
X123519145Y-64425764D01*
X123654474Y-64465499D01*
X123654476Y-64465500D01*
X123654477Y-64465500D01*
X123795524Y-64465500D01*
X123795524Y-64465499D01*
X123930853Y-64425764D01*
X123930854Y-64425764D01*
X123932809Y-64424508D01*
X124049512Y-64349507D01*
X124104618Y-64285910D01*
X124163396Y-64248136D01*
X124233265Y-64248136D01*
X124292042Y-64285909D01*
X124325488Y-64324507D01*
X124325490Y-64324508D01*
X124325489Y-64324508D01*
X124444145Y-64400764D01*
X124579474Y-64440499D01*
X124579476Y-64440500D01*
X124579477Y-64440500D01*
X124720524Y-64440500D01*
X124720524Y-64440499D01*
X124855853Y-64400764D01*
X124855854Y-64400764D01*
X124896711Y-64374507D01*
X124974512Y-64324507D01*
X125066878Y-64217911D01*
X125125471Y-64089611D01*
X125138355Y-64000000D01*
X125704456Y-64000000D01*
X125724528Y-64139606D01*
X125724530Y-64139614D01*
X125783119Y-64267907D01*
X125783121Y-64267909D01*
X125783122Y-64267911D01*
X125875488Y-64374507D01*
X125875490Y-64374508D01*
X125875489Y-64374508D01*
X125994145Y-64450764D01*
X126129474Y-64490499D01*
X126129476Y-64490500D01*
X126129477Y-64490500D01*
X126270524Y-64490500D01*
X126270524Y-64490499D01*
X126405853Y-64450764D01*
X126405854Y-64450764D01*
X126421825Y-64440500D01*
X126524512Y-64374507D01*
X126534625Y-64362835D01*
X126593401Y-64325062D01*
X126663271Y-64325062D01*
X126722048Y-64362834D01*
X126729306Y-64371210D01*
X126775489Y-64424508D01*
X126894145Y-64500764D01*
X127029474Y-64540499D01*
X127029476Y-64540500D01*
X127029477Y-64540500D01*
X127170524Y-64540500D01*
X127170524Y-64540499D01*
X127305853Y-64500764D01*
X127305854Y-64500764D01*
X127345166Y-64475500D01*
X127424512Y-64424507D01*
X127516878Y-64317911D01*
X127575471Y-64189611D01*
X127595544Y-64050000D01*
X128604456Y-64050000D01*
X128624528Y-64189606D01*
X128624530Y-64189614D01*
X128683119Y-64317907D01*
X128683121Y-64317909D01*
X128683122Y-64317911D01*
X128775488Y-64424507D01*
X128775490Y-64424508D01*
X128775489Y-64424508D01*
X128894145Y-64500764D01*
X129029474Y-64540499D01*
X129029476Y-64540500D01*
X129029477Y-64540500D01*
X129170524Y-64540500D01*
X129170524Y-64540499D01*
X129305853Y-64500764D01*
X129305854Y-64500764D01*
X129321825Y-64490500D01*
X129424512Y-64424507D01*
X129434625Y-64412835D01*
X129493401Y-64375062D01*
X129563271Y-64375062D01*
X129622048Y-64412834D01*
X129675486Y-64474505D01*
X129675489Y-64474508D01*
X129794145Y-64550764D01*
X129929474Y-64590499D01*
X129929476Y-64590500D01*
X129929477Y-64590500D01*
X130070524Y-64590500D01*
X130070524Y-64590499D01*
X130205853Y-64550764D01*
X130205854Y-64550764D01*
X130242815Y-64527011D01*
X130324512Y-64474507D01*
X130381287Y-64408984D01*
X130440065Y-64371210D01*
X130509935Y-64371210D01*
X130568710Y-64408982D01*
X130568713Y-64408985D01*
X130625486Y-64474505D01*
X130625489Y-64474508D01*
X130744145Y-64550764D01*
X130879474Y-64590499D01*
X130879476Y-64590500D01*
X130879477Y-64590500D01*
X131020524Y-64590500D01*
X131020524Y-64590499D01*
X131155853Y-64550764D01*
X131155854Y-64550764D01*
X131192815Y-64527011D01*
X131274512Y-64474507D01*
X131366878Y-64367911D01*
X131425471Y-64239611D01*
X131445544Y-64100000D01*
X131425471Y-63960389D01*
X131412831Y-63932711D01*
X131366880Y-63832092D01*
X131366878Y-63832090D01*
X131366878Y-63832089D01*
X131274512Y-63725493D01*
X131274509Y-63725491D01*
X131274510Y-63725491D01*
X131155854Y-63649235D01*
X131020525Y-63609500D01*
X131020523Y-63609500D01*
X130879477Y-63609500D01*
X130879474Y-63609500D01*
X130744146Y-63649235D01*
X130744145Y-63649235D01*
X130625489Y-63725491D01*
X130568713Y-63791015D01*
X130509934Y-63828789D01*
X130440065Y-63828789D01*
X130381287Y-63791015D01*
X130367354Y-63774935D01*
X130324512Y-63725493D01*
X130324511Y-63725492D01*
X130324510Y-63725491D01*
X130205854Y-63649235D01*
X130070525Y-63609500D01*
X130070523Y-63609500D01*
X129929477Y-63609500D01*
X129929474Y-63609500D01*
X129794146Y-63649235D01*
X129794145Y-63649235D01*
X129675489Y-63725491D01*
X129675485Y-63725495D01*
X129665371Y-63737167D01*
X129606591Y-63774939D01*
X129536721Y-63774935D01*
X129477949Y-63737163D01*
X129473555Y-63732092D01*
X129424512Y-63675493D01*
X129424509Y-63675491D01*
X129424510Y-63675491D01*
X129305854Y-63599235D01*
X129170525Y-63559500D01*
X129170523Y-63559500D01*
X129029477Y-63559500D01*
X129029474Y-63559500D01*
X128894146Y-63599235D01*
X128894145Y-63599235D01*
X128775489Y-63675491D01*
X128683122Y-63782089D01*
X128683119Y-63782092D01*
X128624530Y-63910385D01*
X128624528Y-63910393D01*
X128604456Y-64050000D01*
X127595544Y-64050000D01*
X127575471Y-63910389D01*
X127561417Y-63879615D01*
X127516880Y-63782092D01*
X127516878Y-63782090D01*
X127516878Y-63782089D01*
X127424512Y-63675493D01*
X127424509Y-63675491D01*
X127424510Y-63675491D01*
X127305854Y-63599235D01*
X127170525Y-63559500D01*
X127170523Y-63559500D01*
X127029477Y-63559500D01*
X127029474Y-63559500D01*
X126894146Y-63599235D01*
X126894145Y-63599235D01*
X126775489Y-63675491D01*
X126775485Y-63675495D01*
X126765371Y-63687167D01*
X126706591Y-63724939D01*
X126636721Y-63724935D01*
X126577949Y-63687163D01*
X126573555Y-63682092D01*
X126524512Y-63625493D01*
X126524509Y-63625491D01*
X126524510Y-63625491D01*
X126405854Y-63549235D01*
X126270525Y-63509500D01*
X126270523Y-63509500D01*
X126129477Y-63509500D01*
X126129474Y-63509500D01*
X125994146Y-63549235D01*
X125994145Y-63549235D01*
X125875489Y-63625491D01*
X125783122Y-63732089D01*
X125783119Y-63732092D01*
X125724530Y-63860385D01*
X125724528Y-63860393D01*
X125704456Y-64000000D01*
X125138355Y-64000000D01*
X125145544Y-63950000D01*
X125125471Y-63810389D01*
X125109280Y-63774935D01*
X125066880Y-63682092D01*
X125066878Y-63682090D01*
X125066878Y-63682089D01*
X124974512Y-63575493D01*
X124974509Y-63575491D01*
X124974510Y-63575491D01*
X124855854Y-63499235D01*
X124720525Y-63459500D01*
X124720523Y-63459500D01*
X124579477Y-63459500D01*
X124579474Y-63459500D01*
X124444146Y-63499235D01*
X124444145Y-63499235D01*
X124325489Y-63575491D01*
X124325489Y-63575492D01*
X124270380Y-63639090D01*
X124211601Y-63676864D01*
X124141732Y-63676863D01*
X124082956Y-63639089D01*
X124049512Y-63600493D01*
X124049509Y-63600491D01*
X124049510Y-63600491D01*
X123930854Y-63524235D01*
X123795525Y-63484500D01*
X123795523Y-63484500D01*
X123654477Y-63484500D01*
X123654474Y-63484500D01*
X123519146Y-63524235D01*
X123519145Y-63524235D01*
X123400489Y-63600491D01*
X123308122Y-63707089D01*
X123308119Y-63707092D01*
X123249530Y-63835385D01*
X123249528Y-63835393D01*
X123229456Y-63975000D01*
X112513000Y-63975000D01*
X112513000Y-62000001D01*
X114657032Y-62000001D01*
X114676864Y-62226686D01*
X114676866Y-62226697D01*
X114735758Y-62446488D01*
X114735761Y-62446497D01*
X114831931Y-62652732D01*
X114831932Y-62652734D01*
X114962454Y-62839141D01*
X115123358Y-63000045D01*
X115123361Y-63000047D01*
X115309766Y-63130568D01*
X115516004Y-63226739D01*
X115735808Y-63285635D01*
X115897730Y-63299801D01*
X115962498Y-63305468D01*
X115962500Y-63305468D01*
X115962502Y-63305468D01*
X116019173Y-63300509D01*
X116189192Y-63285635D01*
X116408996Y-63226739D01*
X116615234Y-63130568D01*
X116801639Y-63000047D01*
X116962547Y-62839139D01*
X117093068Y-62652734D01*
X117189239Y-62446496D01*
X117248135Y-62226692D01*
X117267968Y-62000000D01*
X117248135Y-61773308D01*
X117189239Y-61553504D01*
X117093068Y-61347266D01*
X116962547Y-61160861D01*
X116962545Y-61160858D01*
X116801641Y-60999954D01*
X116615234Y-60869432D01*
X116615232Y-60869431D01*
X116573563Y-60850000D01*
X120504456Y-60850000D01*
X120524528Y-60989606D01*
X120524530Y-60989614D01*
X120583119Y-61117907D01*
X120583121Y-61117909D01*
X120583122Y-61117911D01*
X120675488Y-61224507D01*
X120675490Y-61224508D01*
X120675489Y-61224508D01*
X120794145Y-61300764D01*
X120929474Y-61340499D01*
X120929476Y-61340500D01*
X120929477Y-61340500D01*
X121070524Y-61340500D01*
X121070524Y-61340499D01*
X121205853Y-61300764D01*
X121205854Y-61300764D01*
X121324510Y-61224508D01*
X121324509Y-61224508D01*
X121324512Y-61224507D01*
X121416878Y-61117911D01*
X121475471Y-60989611D01*
X121495544Y-60850000D01*
X121475471Y-60710389D01*
X121462831Y-60682711D01*
X121416880Y-60582092D01*
X121416878Y-60582090D01*
X121416878Y-60582089D01*
X121324512Y-60475493D01*
X121324509Y-60475491D01*
X121324510Y-60475491D01*
X121205854Y-60399235D01*
X121070525Y-60359500D01*
X121070523Y-60359500D01*
X120929477Y-60359500D01*
X120929474Y-60359500D01*
X120794146Y-60399235D01*
X120794145Y-60399235D01*
X120675489Y-60475491D01*
X120583122Y-60582089D01*
X120583119Y-60582092D01*
X120524530Y-60710385D01*
X120524528Y-60710393D01*
X120504456Y-60850000D01*
X116573563Y-60850000D01*
X116408997Y-60773261D01*
X116408988Y-60773258D01*
X116189197Y-60714366D01*
X116189193Y-60714365D01*
X116189192Y-60714365D01*
X116189191Y-60714364D01*
X116189186Y-60714364D01*
X115962502Y-60694532D01*
X115962498Y-60694532D01*
X115735813Y-60714364D01*
X115735802Y-60714366D01*
X115516011Y-60773258D01*
X115516002Y-60773261D01*
X115309767Y-60869431D01*
X115309765Y-60869432D01*
X115123358Y-60999954D01*
X114962454Y-61160858D01*
X114831932Y-61347265D01*
X114831931Y-61347267D01*
X114735761Y-61553502D01*
X114735758Y-61553511D01*
X114676866Y-61773302D01*
X114676864Y-61773313D01*
X114657032Y-61999998D01*
X114657032Y-62000001D01*
X112513000Y-62000001D01*
X112513000Y-57850000D01*
X113054707Y-57850000D01*
X113073830Y-58044169D01*
X113130471Y-58230888D01*
X113222440Y-58402949D01*
X113222444Y-58402956D01*
X113346221Y-58553778D01*
X113497043Y-58677555D01*
X113497050Y-58677559D01*
X113669111Y-58769528D01*
X113669114Y-58769528D01*
X113669118Y-58769531D01*
X113855828Y-58826169D01*
X114050000Y-58845293D01*
X114244172Y-58826169D01*
X114430882Y-58769531D01*
X114602955Y-58677556D01*
X114753778Y-58553778D01*
X114877556Y-58402955D01*
X114969531Y-58230882D01*
X115026169Y-58044172D01*
X115045293Y-57850000D01*
X127554707Y-57850000D01*
X127573830Y-58044169D01*
X127630471Y-58230888D01*
X127722440Y-58402949D01*
X127722444Y-58402956D01*
X127846221Y-58553778D01*
X127997043Y-58677555D01*
X127997050Y-58677559D01*
X128169111Y-58769528D01*
X128169114Y-58769528D01*
X128169118Y-58769531D01*
X128355828Y-58826169D01*
X128550000Y-58845293D01*
X128744172Y-58826169D01*
X128930882Y-58769531D01*
X129102955Y-58677556D01*
X129253778Y-58553778D01*
X129377556Y-58402955D01*
X129469531Y-58230882D01*
X129526169Y-58044172D01*
X129545293Y-57850000D01*
X129526169Y-57655828D01*
X129469531Y-57469118D01*
X129469528Y-57469114D01*
X129469528Y-57469111D01*
X129377559Y-57297050D01*
X129377555Y-57297043D01*
X129253778Y-57146221D01*
X129102956Y-57022444D01*
X129102949Y-57022440D01*
X128930888Y-56930471D01*
X128930882Y-56930469D01*
X128744172Y-56873831D01*
X128744169Y-56873830D01*
X128550000Y-56854707D01*
X128355830Y-56873830D01*
X128169111Y-56930471D01*
X127997050Y-57022440D01*
X127997043Y-57022444D01*
X127846221Y-57146221D01*
X127722444Y-57297043D01*
X127722440Y-57297050D01*
X127630471Y-57469111D01*
X127573830Y-57655830D01*
X127554707Y-57850000D01*
X115045293Y-57850000D01*
X115026169Y-57655828D01*
X114969531Y-57469118D01*
X114969528Y-57469114D01*
X114969528Y-57469111D01*
X114877559Y-57297050D01*
X114877555Y-57297043D01*
X114753778Y-57146221D01*
X114602956Y-57022444D01*
X114602949Y-57022440D01*
X114430888Y-56930471D01*
X114430882Y-56930469D01*
X114244172Y-56873831D01*
X114244169Y-56873830D01*
X114050000Y-56854707D01*
X113855830Y-56873830D01*
X113669111Y-56930471D01*
X113497050Y-57022440D01*
X113497043Y-57022444D01*
X113346221Y-57146221D01*
X113222444Y-57297043D01*
X113222440Y-57297050D01*
X113130471Y-57469111D01*
X113073830Y-57655830D01*
X113054707Y-57850000D01*
X112513000Y-57850000D01*
X112513000Y-53716153D01*
X112532685Y-53649114D01*
X112585489Y-53603359D01*
X112654647Y-53593415D01*
X112718203Y-53622440D01*
X112732854Y-53637489D01*
X112746222Y-53653779D01*
X112897043Y-53777555D01*
X112897050Y-53777559D01*
X113069111Y-53869528D01*
X113069114Y-53869528D01*
X113069118Y-53869531D01*
X113255828Y-53926169D01*
X113450000Y-53945293D01*
X113644172Y-53926169D01*
X113830882Y-53869531D01*
X114002955Y-53777556D01*
X114153778Y-53653778D01*
X114277556Y-53502955D01*
X114369531Y-53330882D01*
X114426169Y-53144172D01*
X114445293Y-52950000D01*
X128154707Y-52950000D01*
X128173830Y-53144169D01*
X128230471Y-53330888D01*
X128322440Y-53502949D01*
X128322444Y-53502956D01*
X128446221Y-53653778D01*
X128597043Y-53777555D01*
X128597050Y-53777559D01*
X128769111Y-53869528D01*
X128769114Y-53869528D01*
X128769118Y-53869531D01*
X128955828Y-53926169D01*
X129150000Y-53945293D01*
X129344172Y-53926169D01*
X129530882Y-53869531D01*
X129702955Y-53777556D01*
X129853778Y-53653778D01*
X129977556Y-53502955D01*
X130069531Y-53330882D01*
X130126169Y-53144172D01*
X130145293Y-52950000D01*
X130126169Y-52755828D01*
X130069531Y-52569118D01*
X130069528Y-52569114D01*
X130069528Y-52569111D01*
X129977559Y-52397050D01*
X129977555Y-52397043D01*
X129853778Y-52246221D01*
X129702956Y-52122444D01*
X129702949Y-52122440D01*
X129530888Y-52030471D01*
X129530882Y-52030469D01*
X129344172Y-51973831D01*
X129344169Y-51973830D01*
X129150000Y-51954707D01*
X128955830Y-51973830D01*
X128769111Y-52030471D01*
X128597050Y-52122440D01*
X128597043Y-52122444D01*
X128446221Y-52246221D01*
X128322444Y-52397043D01*
X128322440Y-52397050D01*
X128230471Y-52569111D01*
X128173830Y-52755830D01*
X128154707Y-52950000D01*
X114445293Y-52950000D01*
X114426169Y-52755828D01*
X114369531Y-52569118D01*
X114369528Y-52569114D01*
X114369528Y-52569111D01*
X114277559Y-52397050D01*
X114277555Y-52397043D01*
X114153778Y-52246221D01*
X114002956Y-52122444D01*
X114002949Y-52122440D01*
X113830888Y-52030471D01*
X113830882Y-52030469D01*
X113644172Y-51973831D01*
X113644169Y-51973830D01*
X113450000Y-51954707D01*
X113255830Y-51973830D01*
X113069111Y-52030471D01*
X112897050Y-52122440D01*
X112897043Y-52122444D01*
X112746220Y-52246222D01*
X112732852Y-52262512D01*
X112675106Y-52301846D01*
X112605262Y-52303715D01*
X112545494Y-52267527D01*
X112514778Y-52204771D01*
X112513000Y-52183846D01*
X112513000Y-49524500D01*
X112532685Y-49457461D01*
X112585489Y-49411706D01*
X112637000Y-49400500D01*
X131575500Y-49400500D01*
X131642539Y-49420185D01*
G37*
%TD.AperFunction*%
%TD*%
M02*
