%TF.GenerationSoftware,KiCad,Pcbnew,7.0.11-7.0.11~ubuntu22.04.1*%
%TF.CreationDate,2024-06-30T10:09:10-03:00*%
%TF.ProjectId,Pico_GG_LCD,5069636f-5f47-4475-9f4c-43442e6b6963,rev?*%
%TF.SameCoordinates,Original*%
%TF.FileFunction,Legend,Top*%
%TF.FilePolarity,Positive*%
%FSLAX46Y46*%
G04 Gerber Fmt 4.6, Leading zero omitted, Abs format (unit mm)*
G04 Created by KiCad (PCBNEW 7.0.11-7.0.11~ubuntu22.04.1) date 2024-06-30 10:09:10*
%MOMM*%
%LPD*%
G01*
G04 APERTURE LIST*
G04 Aperture macros list*
%AMRoundRect*
0 Rectangle with rounded corners*
0 $1 Rounding radius*
0 $2 $3 $4 $5 $6 $7 $8 $9 X,Y pos of 4 corners*
0 Add a 4 corners polygon primitive as box body*
4,1,4,$2,$3,$4,$5,$6,$7,$8,$9,$2,$3,0*
0 Add four circle primitives for the rounded corners*
1,1,$1+$1,$2,$3*
1,1,$1+$1,$4,$5*
1,1,$1+$1,$6,$7*
1,1,$1+$1,$8,$9*
0 Add four rect primitives between the rounded corners*
20,1,$1+$1,$2,$3,$4,$5,0*
20,1,$1+$1,$4,$5,$6,$7,0*
20,1,$1+$1,$6,$7,$8,$9,0*
20,1,$1+$1,$8,$9,$2,$3,0*%
%AMFreePoly0*
4,1,19,0.500000,-0.750000,0.000000,-0.750000,0.000000,-0.744911,-0.071157,-0.744911,-0.207708,-0.704816,-0.327430,-0.627875,-0.420627,-0.520320,-0.479746,-0.390866,-0.500000,-0.250000,-0.500000,0.250000,-0.479746,0.390866,-0.420627,0.520320,-0.327430,0.627875,-0.207708,0.704816,-0.071157,0.744911,0.000000,0.744911,0.000000,0.750000,0.500000,0.750000,0.500000,-0.750000,0.500000,-0.750000,
$1*%
%AMFreePoly1*
4,1,19,0.000000,0.744911,0.071157,0.744911,0.207708,0.704816,0.327430,0.627875,0.420627,0.520320,0.479746,0.390866,0.500000,0.250000,0.500000,-0.250000,0.479746,-0.390866,0.420627,-0.520320,0.327430,-0.627875,0.207708,-0.704816,0.071157,-0.744911,0.000000,-0.744911,0.000000,-0.750000,-0.500000,-0.750000,-0.500000,0.750000,0.000000,0.750000,0.000000,0.744911,0.000000,0.744911,
$1*%
G04 Aperture macros list end*
%ADD10C,0.150000*%
%ADD11C,0.300000*%
%ADD12C,0.125000*%
%ADD13C,0.075000*%
%ADD14C,0.120000*%
%ADD15RoundRect,0.250000X-0.475000X0.337500X-0.475000X-0.337500X0.475000X-0.337500X0.475000X0.337500X0*%
%ADD16RoundRect,0.200000X0.275000X-0.200000X0.275000X0.200000X-0.275000X0.200000X-0.275000X-0.200000X0*%
%ADD17RoundRect,0.225000X-0.250000X0.225000X-0.250000X-0.225000X0.250000X-0.225000X0.250000X0.225000X0*%
%ADD18FreePoly0,180.000000*%
%ADD19FreePoly1,180.000000*%
%ADD20RoundRect,0.250000X-0.350000X-0.450000X0.350000X-0.450000X0.350000X0.450000X-0.350000X0.450000X0*%
%ADD21RoundRect,0.200000X-0.200000X-0.275000X0.200000X-0.275000X0.200000X0.275000X-0.200000X0.275000X0*%
%ADD22R,1.500000X2.000000*%
%ADD23R,3.800000X2.000000*%
%ADD24RoundRect,0.250000X0.475000X-0.337500X0.475000X0.337500X-0.475000X0.337500X-0.475000X-0.337500X0*%
%ADD25RoundRect,0.100000X0.637500X0.100000X-0.637500X0.100000X-0.637500X-0.100000X0.637500X-0.100000X0*%
%ADD26R,2.000000X2.000000*%
%ADD27RoundRect,0.200000X-0.275000X0.200000X-0.275000X-0.200000X0.275000X-0.200000X0.275000X0.200000X0*%
%ADD28RoundRect,0.250000X-0.337500X-0.475000X0.337500X-0.475000X0.337500X0.475000X-0.337500X0.475000X0*%
%ADD29RoundRect,0.250000X-0.350000X0.275000X-0.350000X-0.275000X0.350000X-0.275000X0.350000X0.275000X0*%
%ADD30R,0.300000X1.900000*%
%ADD31C,1.800000*%
%ADD32RoundRect,0.200000X0.200000X0.275000X-0.200000X0.275000X-0.200000X-0.275000X0.200000X-0.275000X0*%
%ADD33RoundRect,0.250000X-0.574524X-0.097227X-0.097227X-0.574524X0.574524X0.097227X0.097227X0.574524X0*%
%ADD34RoundRect,0.050000X0.309359X-0.238649X-0.238649X0.309359X-0.309359X0.238649X0.238649X-0.309359X0*%
%ADD35RoundRect,0.050000X0.309359X0.238649X0.238649X0.309359X-0.309359X-0.238649X-0.238649X-0.309359X0*%
%ADD36RoundRect,0.144000X2.059095X0.000000X0.000000X2.059095X-2.059095X0.000000X0.000000X-2.059095X0*%
%ADD37RoundRect,0.225000X-0.225000X-0.375000X0.225000X-0.375000X0.225000X0.375000X-0.225000X0.375000X0*%
%ADD38RoundRect,0.150000X-0.150000X0.587500X-0.150000X-0.587500X0.150000X-0.587500X0.150000X0.587500X0*%
%ADD39R,1.240000X0.600000*%
%ADD40R,1.240000X0.300000*%
%ADD41O,2.100000X1.000000*%
%ADD42O,1.800000X1.000000*%
%ADD43RoundRect,0.225000X0.225000X0.250000X-0.225000X0.250000X-0.225000X-0.250000X0.225000X-0.250000X0*%
%ADD44RoundRect,0.150000X0.650000X0.150000X-0.650000X0.150000X-0.650000X-0.150000X0.650000X-0.150000X0*%
%ADD45RoundRect,0.250000X0.337500X0.475000X-0.337500X0.475000X-0.337500X-0.475000X0.337500X-0.475000X0*%
%ADD46RoundRect,0.250000X0.450000X-0.350000X0.450000X0.350000X-0.450000X0.350000X-0.450000X-0.350000X0*%
%ADD47RoundRect,0.112500X0.112500X-0.187500X0.112500X0.187500X-0.112500X0.187500X-0.112500X-0.187500X0*%
%ADD48RoundRect,0.150000X0.825000X0.150000X-0.825000X0.150000X-0.825000X-0.150000X0.825000X-0.150000X0*%
%ADD49RoundRect,0.225000X-0.225000X-0.250000X0.225000X-0.250000X0.225000X0.250000X-0.225000X0.250000X0*%
%ADD50R,1.200000X1.400000*%
%ADD51R,1.700000X1.700000*%
%ADD52O,1.700000X1.700000*%
%ADD53R,1.800000X2.200000*%
%ADD54R,0.300000X1.250000*%
%ADD55RoundRect,0.250000X-0.450000X0.350000X-0.450000X-0.350000X0.450000X-0.350000X0.450000X0.350000X0*%
G04 APERTURE END LIST*
D10*
X143869048Y-109045180D02*
X143869048Y-108330895D01*
X143869048Y-108330895D02*
X143916667Y-108188038D01*
X143916667Y-108188038D02*
X144011905Y-108092800D01*
X144011905Y-108092800D02*
X144154762Y-108045180D01*
X144154762Y-108045180D02*
X144250000Y-108045180D01*
X142916667Y-108045180D02*
X143392857Y-108045180D01*
X143392857Y-108045180D02*
X143392857Y-109045180D01*
X142011905Y-108140419D02*
X142059524Y-108092800D01*
X142059524Y-108092800D02*
X142202381Y-108045180D01*
X142202381Y-108045180D02*
X142297619Y-108045180D01*
X142297619Y-108045180D02*
X142440476Y-108092800D01*
X142440476Y-108092800D02*
X142535714Y-108188038D01*
X142535714Y-108188038D02*
X142583333Y-108283276D01*
X142583333Y-108283276D02*
X142630952Y-108473752D01*
X142630952Y-108473752D02*
X142630952Y-108616609D01*
X142630952Y-108616609D02*
X142583333Y-108807085D01*
X142583333Y-108807085D02*
X142535714Y-108902323D01*
X142535714Y-108902323D02*
X142440476Y-108997561D01*
X142440476Y-108997561D02*
X142297619Y-109045180D01*
X142297619Y-109045180D02*
X142202381Y-109045180D01*
X142202381Y-109045180D02*
X142059524Y-108997561D01*
X142059524Y-108997561D02*
X142011905Y-108949942D01*
X141297619Y-109045180D02*
X141297619Y-108330895D01*
X141297619Y-108330895D02*
X141345238Y-108188038D01*
X141345238Y-108188038D02*
X141440476Y-108092800D01*
X141440476Y-108092800D02*
X141583333Y-108045180D01*
X141583333Y-108045180D02*
X141678571Y-108045180D01*
X140345238Y-108045180D02*
X140821428Y-108045180D01*
X140821428Y-108045180D02*
X140821428Y-109045180D01*
X139440476Y-108140419D02*
X139488095Y-108092800D01*
X139488095Y-108092800D02*
X139630952Y-108045180D01*
X139630952Y-108045180D02*
X139726190Y-108045180D01*
X139726190Y-108045180D02*
X139869047Y-108092800D01*
X139869047Y-108092800D02*
X139964285Y-108188038D01*
X139964285Y-108188038D02*
X140011904Y-108283276D01*
X140011904Y-108283276D02*
X140059523Y-108473752D01*
X140059523Y-108473752D02*
X140059523Y-108616609D01*
X140059523Y-108616609D02*
X140011904Y-108807085D01*
X140011904Y-108807085D02*
X139964285Y-108902323D01*
X139964285Y-108902323D02*
X139869047Y-108997561D01*
X139869047Y-108997561D02*
X139726190Y-109045180D01*
X139726190Y-109045180D02*
X139630952Y-109045180D01*
X139630952Y-109045180D02*
X139488095Y-108997561D01*
X139488095Y-108997561D02*
X139440476Y-108949942D01*
X138726190Y-109045180D02*
X138726190Y-108330895D01*
X138726190Y-108330895D02*
X138773809Y-108188038D01*
X138773809Y-108188038D02*
X138869047Y-108092800D01*
X138869047Y-108092800D02*
X139011904Y-108045180D01*
X139011904Y-108045180D02*
X139107142Y-108045180D01*
X137773809Y-108045180D02*
X138249999Y-108045180D01*
X138249999Y-108045180D02*
X138249999Y-109045180D01*
X136869047Y-108140419D02*
X136916666Y-108092800D01*
X136916666Y-108092800D02*
X137059523Y-108045180D01*
X137059523Y-108045180D02*
X137154761Y-108045180D01*
X137154761Y-108045180D02*
X137297618Y-108092800D01*
X137297618Y-108092800D02*
X137392856Y-108188038D01*
X137392856Y-108188038D02*
X137440475Y-108283276D01*
X137440475Y-108283276D02*
X137488094Y-108473752D01*
X137488094Y-108473752D02*
X137488094Y-108616609D01*
X137488094Y-108616609D02*
X137440475Y-108807085D01*
X137440475Y-108807085D02*
X137392856Y-108902323D01*
X137392856Y-108902323D02*
X137297618Y-108997561D01*
X137297618Y-108997561D02*
X137154761Y-109045180D01*
X137154761Y-109045180D02*
X137059523Y-109045180D01*
X137059523Y-109045180D02*
X136916666Y-108997561D01*
X136916666Y-108997561D02*
X136869047Y-108949942D01*
X136154761Y-109045180D02*
X136154761Y-108330895D01*
X136154761Y-108330895D02*
X136202380Y-108188038D01*
X136202380Y-108188038D02*
X136297618Y-108092800D01*
X136297618Y-108092800D02*
X136440475Y-108045180D01*
X136440475Y-108045180D02*
X136535713Y-108045180D01*
X135202380Y-108045180D02*
X135678570Y-108045180D01*
X135678570Y-108045180D02*
X135678570Y-109045180D01*
X134297618Y-108140419D02*
X134345237Y-108092800D01*
X134345237Y-108092800D02*
X134488094Y-108045180D01*
X134488094Y-108045180D02*
X134583332Y-108045180D01*
X134583332Y-108045180D02*
X134726189Y-108092800D01*
X134726189Y-108092800D02*
X134821427Y-108188038D01*
X134821427Y-108188038D02*
X134869046Y-108283276D01*
X134869046Y-108283276D02*
X134916665Y-108473752D01*
X134916665Y-108473752D02*
X134916665Y-108616609D01*
X134916665Y-108616609D02*
X134869046Y-108807085D01*
X134869046Y-108807085D02*
X134821427Y-108902323D01*
X134821427Y-108902323D02*
X134726189Y-108997561D01*
X134726189Y-108997561D02*
X134583332Y-109045180D01*
X134583332Y-109045180D02*
X134488094Y-109045180D01*
X134488094Y-109045180D02*
X134345237Y-108997561D01*
X134345237Y-108997561D02*
X134297618Y-108949942D01*
D11*
X176599999Y-107778695D02*
X176361904Y-107540600D01*
X176361904Y-107540600D02*
X176599999Y-107302504D01*
X176599999Y-107302504D02*
X176838095Y-107540600D01*
X176838095Y-107540600D02*
X176599999Y-107778695D01*
X176599999Y-107778695D02*
X176599999Y-107302504D01*
X147228312Y-92388362D02*
X147466408Y-92150267D01*
X147466408Y-92150267D02*
X147704503Y-92388362D01*
X147704503Y-92388362D02*
X147466408Y-92626458D01*
X147466408Y-92626458D02*
X147228312Y-92388362D01*
X147228312Y-92388362D02*
X147704503Y-92388362D01*
X148728312Y-101188362D02*
X148966408Y-100950267D01*
X148966408Y-100950267D02*
X149204503Y-101188362D01*
X149204503Y-101188362D02*
X148966408Y-101426458D01*
X148966408Y-101426458D02*
X148728312Y-101188362D01*
X148728312Y-101188362D02*
X149204503Y-101188362D01*
D10*
X138009580Y-114205357D02*
X138057200Y-114252976D01*
X138057200Y-114252976D02*
X138104819Y-114395833D01*
X138104819Y-114395833D02*
X138104819Y-114491071D01*
X138104819Y-114491071D02*
X138057200Y-114633928D01*
X138057200Y-114633928D02*
X137961961Y-114729166D01*
X137961961Y-114729166D02*
X137866723Y-114776785D01*
X137866723Y-114776785D02*
X137676247Y-114824404D01*
X137676247Y-114824404D02*
X137533390Y-114824404D01*
X137533390Y-114824404D02*
X137342914Y-114776785D01*
X137342914Y-114776785D02*
X137247676Y-114729166D01*
X137247676Y-114729166D02*
X137152438Y-114633928D01*
X137152438Y-114633928D02*
X137104819Y-114491071D01*
X137104819Y-114491071D02*
X137104819Y-114395833D01*
X137104819Y-114395833D02*
X137152438Y-114252976D01*
X137152438Y-114252976D02*
X137200057Y-114205357D01*
X138104819Y-113252976D02*
X138104819Y-113824404D01*
X138104819Y-113538690D02*
X137104819Y-113538690D01*
X137104819Y-113538690D02*
X137247676Y-113633928D01*
X137247676Y-113633928D02*
X137342914Y-113729166D01*
X137342914Y-113729166D02*
X137390533Y-113824404D01*
X138104819Y-112300595D02*
X138104819Y-112872023D01*
X138104819Y-112586309D02*
X137104819Y-112586309D01*
X137104819Y-112586309D02*
X137247676Y-112681547D01*
X137247676Y-112681547D02*
X137342914Y-112776785D01*
X137342914Y-112776785D02*
X137390533Y-112872023D01*
X162854819Y-79816666D02*
X162378628Y-80149999D01*
X162854819Y-80388094D02*
X161854819Y-80388094D01*
X161854819Y-80388094D02*
X161854819Y-80007142D01*
X161854819Y-80007142D02*
X161902438Y-79911904D01*
X161902438Y-79911904D02*
X161950057Y-79864285D01*
X161950057Y-79864285D02*
X162045295Y-79816666D01*
X162045295Y-79816666D02*
X162188152Y-79816666D01*
X162188152Y-79816666D02*
X162283390Y-79864285D01*
X162283390Y-79864285D02*
X162331009Y-79911904D01*
X162331009Y-79911904D02*
X162378628Y-80007142D01*
X162378628Y-80007142D02*
X162378628Y-80388094D01*
X162854819Y-78864285D02*
X162854819Y-79435713D01*
X162854819Y-79149999D02*
X161854819Y-79149999D01*
X161854819Y-79149999D02*
X161997676Y-79245237D01*
X161997676Y-79245237D02*
X162092914Y-79340475D01*
X162092914Y-79340475D02*
X162140533Y-79435713D01*
D12*
X153277190Y-83371428D02*
X153301000Y-83395237D01*
X153301000Y-83395237D02*
X153324809Y-83466666D01*
X153324809Y-83466666D02*
X153324809Y-83514285D01*
X153324809Y-83514285D02*
X153301000Y-83585713D01*
X153301000Y-83585713D02*
X153253380Y-83633332D01*
X153253380Y-83633332D02*
X153205761Y-83657142D01*
X153205761Y-83657142D02*
X153110523Y-83680951D01*
X153110523Y-83680951D02*
X153039095Y-83680951D01*
X153039095Y-83680951D02*
X152943857Y-83657142D01*
X152943857Y-83657142D02*
X152896238Y-83633332D01*
X152896238Y-83633332D02*
X152848619Y-83585713D01*
X152848619Y-83585713D02*
X152824809Y-83514285D01*
X152824809Y-83514285D02*
X152824809Y-83466666D01*
X152824809Y-83466666D02*
X152848619Y-83395237D01*
X152848619Y-83395237D02*
X152872428Y-83371428D01*
X153324809Y-82895237D02*
X153324809Y-83180951D01*
X153324809Y-83038094D02*
X152824809Y-83038094D01*
X152824809Y-83038094D02*
X152896238Y-83085713D01*
X152896238Y-83085713D02*
X152943857Y-83133332D01*
X152943857Y-83133332D02*
X152967666Y-83180951D01*
X153324809Y-82657142D02*
X153324809Y-82561904D01*
X153324809Y-82561904D02*
X153301000Y-82514285D01*
X153301000Y-82514285D02*
X153277190Y-82490476D01*
X153277190Y-82490476D02*
X153205761Y-82442857D01*
X153205761Y-82442857D02*
X153110523Y-82419047D01*
X153110523Y-82419047D02*
X152920047Y-82419047D01*
X152920047Y-82419047D02*
X152872428Y-82442857D01*
X152872428Y-82442857D02*
X152848619Y-82466666D01*
X152848619Y-82466666D02*
X152824809Y-82514285D01*
X152824809Y-82514285D02*
X152824809Y-82609523D01*
X152824809Y-82609523D02*
X152848619Y-82657142D01*
X152848619Y-82657142D02*
X152872428Y-82680952D01*
X152872428Y-82680952D02*
X152920047Y-82704761D01*
X152920047Y-82704761D02*
X153039095Y-82704761D01*
X153039095Y-82704761D02*
X153086714Y-82680952D01*
X153086714Y-82680952D02*
X153110523Y-82657142D01*
X153110523Y-82657142D02*
X153134333Y-82609523D01*
X153134333Y-82609523D02*
X153134333Y-82514285D01*
X153134333Y-82514285D02*
X153110523Y-82466666D01*
X153110523Y-82466666D02*
X153086714Y-82442857D01*
X153086714Y-82442857D02*
X153039095Y-82419047D01*
D10*
X144466666Y-71904819D02*
X144466666Y-72619104D01*
X144466666Y-72619104D02*
X144419047Y-72761961D01*
X144419047Y-72761961D02*
X144323809Y-72857200D01*
X144323809Y-72857200D02*
X144180952Y-72904819D01*
X144180952Y-72904819D02*
X144085714Y-72904819D01*
X144942857Y-72904819D02*
X144942857Y-71904819D01*
X144942857Y-71904819D02*
X145323809Y-71904819D01*
X145323809Y-71904819D02*
X145419047Y-71952438D01*
X145419047Y-71952438D02*
X145466666Y-72000057D01*
X145466666Y-72000057D02*
X145514285Y-72095295D01*
X145514285Y-72095295D02*
X145514285Y-72238152D01*
X145514285Y-72238152D02*
X145466666Y-72333390D01*
X145466666Y-72333390D02*
X145419047Y-72381009D01*
X145419047Y-72381009D02*
X145323809Y-72428628D01*
X145323809Y-72428628D02*
X144942857Y-72428628D01*
X145895238Y-72000057D02*
X145942857Y-71952438D01*
X145942857Y-71952438D02*
X146038095Y-71904819D01*
X146038095Y-71904819D02*
X146276190Y-71904819D01*
X146276190Y-71904819D02*
X146371428Y-71952438D01*
X146371428Y-71952438D02*
X146419047Y-72000057D01*
X146419047Y-72000057D02*
X146466666Y-72095295D01*
X146466666Y-72095295D02*
X146466666Y-72190533D01*
X146466666Y-72190533D02*
X146419047Y-72333390D01*
X146419047Y-72333390D02*
X145847619Y-72904819D01*
X145847619Y-72904819D02*
X146466666Y-72904819D01*
D13*
X131350000Y-75374885D02*
X131250000Y-75232028D01*
X131178571Y-75374885D02*
X131178571Y-75074885D01*
X131178571Y-75074885D02*
X131292857Y-75074885D01*
X131292857Y-75074885D02*
X131321428Y-75089171D01*
X131321428Y-75089171D02*
X131335714Y-75103457D01*
X131335714Y-75103457D02*
X131350000Y-75132028D01*
X131350000Y-75132028D02*
X131350000Y-75174885D01*
X131350000Y-75174885D02*
X131335714Y-75203457D01*
X131335714Y-75203457D02*
X131321428Y-75217742D01*
X131321428Y-75217742D02*
X131292857Y-75232028D01*
X131292857Y-75232028D02*
X131178571Y-75232028D01*
X131607143Y-75074885D02*
X131550000Y-75074885D01*
X131550000Y-75074885D02*
X131521428Y-75089171D01*
X131521428Y-75089171D02*
X131507143Y-75103457D01*
X131507143Y-75103457D02*
X131478571Y-75146314D01*
X131478571Y-75146314D02*
X131464285Y-75203457D01*
X131464285Y-75203457D02*
X131464285Y-75317742D01*
X131464285Y-75317742D02*
X131478571Y-75346314D01*
X131478571Y-75346314D02*
X131492857Y-75360600D01*
X131492857Y-75360600D02*
X131521428Y-75374885D01*
X131521428Y-75374885D02*
X131578571Y-75374885D01*
X131578571Y-75374885D02*
X131607143Y-75360600D01*
X131607143Y-75360600D02*
X131621428Y-75346314D01*
X131621428Y-75346314D02*
X131635714Y-75317742D01*
X131635714Y-75317742D02*
X131635714Y-75246314D01*
X131635714Y-75246314D02*
X131621428Y-75217742D01*
X131621428Y-75217742D02*
X131607143Y-75203457D01*
X131607143Y-75203457D02*
X131578571Y-75189171D01*
X131578571Y-75189171D02*
X131521428Y-75189171D01*
X131521428Y-75189171D02*
X131492857Y-75203457D01*
X131492857Y-75203457D02*
X131478571Y-75217742D01*
X131478571Y-75217742D02*
X131464285Y-75246314D01*
D10*
X153107142Y-101904819D02*
X152773809Y-101428628D01*
X152535714Y-101904819D02*
X152535714Y-100904819D01*
X152535714Y-100904819D02*
X152916666Y-100904819D01*
X152916666Y-100904819D02*
X153011904Y-100952438D01*
X153011904Y-100952438D02*
X153059523Y-101000057D01*
X153059523Y-101000057D02*
X153107142Y-101095295D01*
X153107142Y-101095295D02*
X153107142Y-101238152D01*
X153107142Y-101238152D02*
X153059523Y-101333390D01*
X153059523Y-101333390D02*
X153011904Y-101381009D01*
X153011904Y-101381009D02*
X152916666Y-101428628D01*
X152916666Y-101428628D02*
X152535714Y-101428628D01*
X154059523Y-101904819D02*
X153488095Y-101904819D01*
X153773809Y-101904819D02*
X153773809Y-100904819D01*
X153773809Y-100904819D02*
X153678571Y-101047676D01*
X153678571Y-101047676D02*
X153583333Y-101142914D01*
X153583333Y-101142914D02*
X153488095Y-101190533D01*
X154678571Y-100904819D02*
X154773809Y-100904819D01*
X154773809Y-100904819D02*
X154869047Y-100952438D01*
X154869047Y-100952438D02*
X154916666Y-101000057D01*
X154916666Y-101000057D02*
X154964285Y-101095295D01*
X154964285Y-101095295D02*
X155011904Y-101285771D01*
X155011904Y-101285771D02*
X155011904Y-101523866D01*
X155011904Y-101523866D02*
X154964285Y-101714342D01*
X154964285Y-101714342D02*
X154916666Y-101809580D01*
X154916666Y-101809580D02*
X154869047Y-101857200D01*
X154869047Y-101857200D02*
X154773809Y-101904819D01*
X154773809Y-101904819D02*
X154678571Y-101904819D01*
X154678571Y-101904819D02*
X154583333Y-101857200D01*
X154583333Y-101857200D02*
X154535714Y-101809580D01*
X154535714Y-101809580D02*
X154488095Y-101714342D01*
X154488095Y-101714342D02*
X154440476Y-101523866D01*
X154440476Y-101523866D02*
X154440476Y-101285771D01*
X154440476Y-101285771D02*
X154488095Y-101095295D01*
X154488095Y-101095295D02*
X154535714Y-101000057D01*
X154535714Y-101000057D02*
X154583333Y-100952438D01*
X154583333Y-100952438D02*
X154678571Y-100904819D01*
X151607142Y-98854819D02*
X151273809Y-98378628D01*
X151035714Y-98854819D02*
X151035714Y-97854819D01*
X151035714Y-97854819D02*
X151416666Y-97854819D01*
X151416666Y-97854819D02*
X151511904Y-97902438D01*
X151511904Y-97902438D02*
X151559523Y-97950057D01*
X151559523Y-97950057D02*
X151607142Y-98045295D01*
X151607142Y-98045295D02*
X151607142Y-98188152D01*
X151607142Y-98188152D02*
X151559523Y-98283390D01*
X151559523Y-98283390D02*
X151511904Y-98331009D01*
X151511904Y-98331009D02*
X151416666Y-98378628D01*
X151416666Y-98378628D02*
X151035714Y-98378628D01*
X152559523Y-98854819D02*
X151988095Y-98854819D01*
X152273809Y-98854819D02*
X152273809Y-97854819D01*
X152273809Y-97854819D02*
X152178571Y-97997676D01*
X152178571Y-97997676D02*
X152083333Y-98092914D01*
X152083333Y-98092914D02*
X151988095Y-98140533D01*
X153511904Y-98854819D02*
X152940476Y-98854819D01*
X153226190Y-98854819D02*
X153226190Y-97854819D01*
X153226190Y-97854819D02*
X153130952Y-97997676D01*
X153130952Y-97997676D02*
X153035714Y-98092914D01*
X153035714Y-98092914D02*
X152940476Y-98140533D01*
X176554819Y-110361904D02*
X177364342Y-110361904D01*
X177364342Y-110361904D02*
X177459580Y-110314285D01*
X177459580Y-110314285D02*
X177507200Y-110266666D01*
X177507200Y-110266666D02*
X177554819Y-110171428D01*
X177554819Y-110171428D02*
X177554819Y-109980952D01*
X177554819Y-109980952D02*
X177507200Y-109885714D01*
X177507200Y-109885714D02*
X177459580Y-109838095D01*
X177459580Y-109838095D02*
X177364342Y-109790476D01*
X177364342Y-109790476D02*
X176554819Y-109790476D01*
X176554819Y-109409523D02*
X176554819Y-108790476D01*
X176554819Y-108790476D02*
X176935771Y-109123809D01*
X176935771Y-109123809D02*
X176935771Y-108980952D01*
X176935771Y-108980952D02*
X176983390Y-108885714D01*
X176983390Y-108885714D02*
X177031009Y-108838095D01*
X177031009Y-108838095D02*
X177126247Y-108790476D01*
X177126247Y-108790476D02*
X177364342Y-108790476D01*
X177364342Y-108790476D02*
X177459580Y-108838095D01*
X177459580Y-108838095D02*
X177507200Y-108885714D01*
X177507200Y-108885714D02*
X177554819Y-108980952D01*
X177554819Y-108980952D02*
X177554819Y-109266666D01*
X177554819Y-109266666D02*
X177507200Y-109361904D01*
X177507200Y-109361904D02*
X177459580Y-109409523D01*
D13*
X161556314Y-113892856D02*
X161570600Y-113907142D01*
X161570600Y-113907142D02*
X161584885Y-113949999D01*
X161584885Y-113949999D02*
X161584885Y-113978571D01*
X161584885Y-113978571D02*
X161570600Y-114021428D01*
X161570600Y-114021428D02*
X161542028Y-114049999D01*
X161542028Y-114049999D02*
X161513457Y-114064285D01*
X161513457Y-114064285D02*
X161456314Y-114078571D01*
X161456314Y-114078571D02*
X161413457Y-114078571D01*
X161413457Y-114078571D02*
X161356314Y-114064285D01*
X161356314Y-114064285D02*
X161327742Y-114049999D01*
X161327742Y-114049999D02*
X161299171Y-114021428D01*
X161299171Y-114021428D02*
X161284885Y-113978571D01*
X161284885Y-113978571D02*
X161284885Y-113949999D01*
X161284885Y-113949999D02*
X161299171Y-113907142D01*
X161299171Y-113907142D02*
X161313457Y-113892856D01*
X161584885Y-113607142D02*
X161584885Y-113778571D01*
X161584885Y-113692856D02*
X161284885Y-113692856D01*
X161284885Y-113692856D02*
X161327742Y-113721428D01*
X161327742Y-113721428D02*
X161356314Y-113749999D01*
X161356314Y-113749999D02*
X161370600Y-113778571D01*
X161313457Y-113492857D02*
X161299171Y-113478571D01*
X161299171Y-113478571D02*
X161284885Y-113450000D01*
X161284885Y-113450000D02*
X161284885Y-113378571D01*
X161284885Y-113378571D02*
X161299171Y-113350000D01*
X161299171Y-113350000D02*
X161313457Y-113335714D01*
X161313457Y-113335714D02*
X161342028Y-113321428D01*
X161342028Y-113321428D02*
X161370600Y-113321428D01*
X161370600Y-113321428D02*
X161413457Y-113335714D01*
X161413457Y-113335714D02*
X161584885Y-113507142D01*
X161584885Y-113507142D02*
X161584885Y-113321428D01*
D10*
X163425595Y-93379819D02*
X163425595Y-94189342D01*
X163425595Y-94189342D02*
X163473214Y-94284580D01*
X163473214Y-94284580D02*
X163520833Y-94332200D01*
X163520833Y-94332200D02*
X163616071Y-94379819D01*
X163616071Y-94379819D02*
X163806547Y-94379819D01*
X163806547Y-94379819D02*
X163901785Y-94332200D01*
X163901785Y-94332200D02*
X163949404Y-94284580D01*
X163949404Y-94284580D02*
X163997023Y-94189342D01*
X163997023Y-94189342D02*
X163997023Y-93379819D01*
X164997023Y-94379819D02*
X164425595Y-94379819D01*
X164711309Y-94379819D02*
X164711309Y-93379819D01*
X164711309Y-93379819D02*
X164616071Y-93522676D01*
X164616071Y-93522676D02*
X164520833Y-93617914D01*
X164520833Y-93617914D02*
X164425595Y-93665533D01*
X169173809Y-93907200D02*
X169316666Y-93954819D01*
X169316666Y-93954819D02*
X169554761Y-93954819D01*
X169554761Y-93954819D02*
X169649999Y-93907200D01*
X169649999Y-93907200D02*
X169697618Y-93859580D01*
X169697618Y-93859580D02*
X169745237Y-93764342D01*
X169745237Y-93764342D02*
X169745237Y-93669104D01*
X169745237Y-93669104D02*
X169697618Y-93573866D01*
X169697618Y-93573866D02*
X169649999Y-93526247D01*
X169649999Y-93526247D02*
X169554761Y-93478628D01*
X169554761Y-93478628D02*
X169364285Y-93431009D01*
X169364285Y-93431009D02*
X169269047Y-93383390D01*
X169269047Y-93383390D02*
X169221428Y-93335771D01*
X169221428Y-93335771D02*
X169173809Y-93240533D01*
X169173809Y-93240533D02*
X169173809Y-93145295D01*
X169173809Y-93145295D02*
X169221428Y-93050057D01*
X169221428Y-93050057D02*
X169269047Y-93002438D01*
X169269047Y-93002438D02*
X169364285Y-92954819D01*
X169364285Y-92954819D02*
X169602380Y-92954819D01*
X169602380Y-92954819D02*
X169745237Y-93002438D01*
X170030952Y-92954819D02*
X170602380Y-92954819D01*
X170316666Y-93954819D02*
X170316666Y-92954819D01*
X170888095Y-93669104D02*
X171364285Y-93669104D01*
X170792857Y-93954819D02*
X171126190Y-92954819D01*
X171126190Y-92954819D02*
X171459523Y-93954819D01*
X172364285Y-93954819D02*
X172030952Y-93478628D01*
X171792857Y-93954819D02*
X171792857Y-92954819D01*
X171792857Y-92954819D02*
X172173809Y-92954819D01*
X172173809Y-92954819D02*
X172269047Y-93002438D01*
X172269047Y-93002438D02*
X172316666Y-93050057D01*
X172316666Y-93050057D02*
X172364285Y-93145295D01*
X172364285Y-93145295D02*
X172364285Y-93288152D01*
X172364285Y-93288152D02*
X172316666Y-93383390D01*
X172316666Y-93383390D02*
X172269047Y-93431009D01*
X172269047Y-93431009D02*
X172173809Y-93478628D01*
X172173809Y-93478628D02*
X171792857Y-93478628D01*
X172650000Y-92954819D02*
X173221428Y-92954819D01*
X172935714Y-93954819D02*
X172935714Y-92954819D01*
X169716666Y-85754819D02*
X169383333Y-85278628D01*
X169145238Y-85754819D02*
X169145238Y-84754819D01*
X169145238Y-84754819D02*
X169526190Y-84754819D01*
X169526190Y-84754819D02*
X169621428Y-84802438D01*
X169621428Y-84802438D02*
X169669047Y-84850057D01*
X169669047Y-84850057D02*
X169716666Y-84945295D01*
X169716666Y-84945295D02*
X169716666Y-85088152D01*
X169716666Y-85088152D02*
X169669047Y-85183390D01*
X169669047Y-85183390D02*
X169621428Y-85231009D01*
X169621428Y-85231009D02*
X169526190Y-85278628D01*
X169526190Y-85278628D02*
X169145238Y-85278628D01*
X170145238Y-85754819D02*
X170145238Y-84754819D01*
X171145237Y-84802438D02*
X171049999Y-84754819D01*
X171049999Y-84754819D02*
X170907142Y-84754819D01*
X170907142Y-84754819D02*
X170764285Y-84802438D01*
X170764285Y-84802438D02*
X170669047Y-84897676D01*
X170669047Y-84897676D02*
X170621428Y-84992914D01*
X170621428Y-84992914D02*
X170573809Y-85183390D01*
X170573809Y-85183390D02*
X170573809Y-85326247D01*
X170573809Y-85326247D02*
X170621428Y-85516723D01*
X170621428Y-85516723D02*
X170669047Y-85611961D01*
X170669047Y-85611961D02*
X170764285Y-85707200D01*
X170764285Y-85707200D02*
X170907142Y-85754819D01*
X170907142Y-85754819D02*
X171002380Y-85754819D01*
X171002380Y-85754819D02*
X171145237Y-85707200D01*
X171145237Y-85707200D02*
X171192856Y-85659580D01*
X171192856Y-85659580D02*
X171192856Y-85326247D01*
X171192856Y-85326247D02*
X171002380Y-85326247D01*
X171621428Y-85754819D02*
X171621428Y-84754819D01*
X171621428Y-85231009D02*
X172192856Y-85231009D01*
X172192856Y-85754819D02*
X172192856Y-84754819D01*
X172526190Y-84754819D02*
X173097618Y-84754819D01*
X172811904Y-85754819D02*
X172811904Y-84754819D01*
X169904819Y-70741666D02*
X169428628Y-71074999D01*
X169904819Y-71313094D02*
X168904819Y-71313094D01*
X168904819Y-71313094D02*
X168904819Y-70932142D01*
X168904819Y-70932142D02*
X168952438Y-70836904D01*
X168952438Y-70836904D02*
X169000057Y-70789285D01*
X169000057Y-70789285D02*
X169095295Y-70741666D01*
X169095295Y-70741666D02*
X169238152Y-70741666D01*
X169238152Y-70741666D02*
X169333390Y-70789285D01*
X169333390Y-70789285D02*
X169381009Y-70836904D01*
X169381009Y-70836904D02*
X169428628Y-70932142D01*
X169428628Y-70932142D02*
X169428628Y-71313094D01*
X168904819Y-70408332D02*
X168904819Y-69789285D01*
X168904819Y-69789285D02*
X169285771Y-70122618D01*
X169285771Y-70122618D02*
X169285771Y-69979761D01*
X169285771Y-69979761D02*
X169333390Y-69884523D01*
X169333390Y-69884523D02*
X169381009Y-69836904D01*
X169381009Y-69836904D02*
X169476247Y-69789285D01*
X169476247Y-69789285D02*
X169714342Y-69789285D01*
X169714342Y-69789285D02*
X169809580Y-69836904D01*
X169809580Y-69836904D02*
X169857200Y-69884523D01*
X169857200Y-69884523D02*
X169904819Y-69979761D01*
X169904819Y-69979761D02*
X169904819Y-70265475D01*
X169904819Y-70265475D02*
X169857200Y-70360713D01*
X169857200Y-70360713D02*
X169809580Y-70408332D01*
X175834819Y-96291666D02*
X175358628Y-96624999D01*
X175834819Y-96863094D02*
X174834819Y-96863094D01*
X174834819Y-96863094D02*
X174834819Y-96482142D01*
X174834819Y-96482142D02*
X174882438Y-96386904D01*
X174882438Y-96386904D02*
X174930057Y-96339285D01*
X174930057Y-96339285D02*
X175025295Y-96291666D01*
X175025295Y-96291666D02*
X175168152Y-96291666D01*
X175168152Y-96291666D02*
X175263390Y-96339285D01*
X175263390Y-96339285D02*
X175311009Y-96386904D01*
X175311009Y-96386904D02*
X175358628Y-96482142D01*
X175358628Y-96482142D02*
X175358628Y-96863094D01*
X174834819Y-95958332D02*
X174834819Y-95291666D01*
X174834819Y-95291666D02*
X175834819Y-95720237D01*
X166033333Y-80759580D02*
X165985714Y-80807200D01*
X165985714Y-80807200D02*
X165842857Y-80854819D01*
X165842857Y-80854819D02*
X165747619Y-80854819D01*
X165747619Y-80854819D02*
X165604762Y-80807200D01*
X165604762Y-80807200D02*
X165509524Y-80711961D01*
X165509524Y-80711961D02*
X165461905Y-80616723D01*
X165461905Y-80616723D02*
X165414286Y-80426247D01*
X165414286Y-80426247D02*
X165414286Y-80283390D01*
X165414286Y-80283390D02*
X165461905Y-80092914D01*
X165461905Y-80092914D02*
X165509524Y-79997676D01*
X165509524Y-79997676D02*
X165604762Y-79902438D01*
X165604762Y-79902438D02*
X165747619Y-79854819D01*
X165747619Y-79854819D02*
X165842857Y-79854819D01*
X165842857Y-79854819D02*
X165985714Y-79902438D01*
X165985714Y-79902438D02*
X166033333Y-79950057D01*
X166890476Y-80188152D02*
X166890476Y-80854819D01*
X166652381Y-79807200D02*
X166414286Y-80521485D01*
X166414286Y-80521485D02*
X167033333Y-80521485D01*
X124754819Y-86756666D02*
X124754819Y-87232856D01*
X124754819Y-87232856D02*
X123754819Y-87232856D01*
X124754819Y-85899523D02*
X124754819Y-86470951D01*
X124754819Y-86185237D02*
X123754819Y-86185237D01*
X123754819Y-86185237D02*
X123897676Y-86280475D01*
X123897676Y-86280475D02*
X123992914Y-86375713D01*
X123992914Y-86375713D02*
X124040533Y-86470951D01*
D13*
X142457143Y-81006314D02*
X142442857Y-81020600D01*
X142442857Y-81020600D02*
X142400000Y-81034885D01*
X142400000Y-81034885D02*
X142371428Y-81034885D01*
X142371428Y-81034885D02*
X142328571Y-81020600D01*
X142328571Y-81020600D02*
X142300000Y-80992028D01*
X142300000Y-80992028D02*
X142285714Y-80963457D01*
X142285714Y-80963457D02*
X142271428Y-80906314D01*
X142271428Y-80906314D02*
X142271428Y-80863457D01*
X142271428Y-80863457D02*
X142285714Y-80806314D01*
X142285714Y-80806314D02*
X142300000Y-80777742D01*
X142300000Y-80777742D02*
X142328571Y-80749171D01*
X142328571Y-80749171D02*
X142371428Y-80734885D01*
X142371428Y-80734885D02*
X142400000Y-80734885D01*
X142400000Y-80734885D02*
X142442857Y-80749171D01*
X142442857Y-80749171D02*
X142457143Y-80763457D01*
X142557143Y-80734885D02*
X142742857Y-80734885D01*
X142742857Y-80734885D02*
X142642857Y-80849171D01*
X142642857Y-80849171D02*
X142685714Y-80849171D01*
X142685714Y-80849171D02*
X142714286Y-80863457D01*
X142714286Y-80863457D02*
X142728571Y-80877742D01*
X142728571Y-80877742D02*
X142742857Y-80906314D01*
X142742857Y-80906314D02*
X142742857Y-80977742D01*
X142742857Y-80977742D02*
X142728571Y-81006314D01*
X142728571Y-81006314D02*
X142714286Y-81020600D01*
X142714286Y-81020600D02*
X142685714Y-81034885D01*
X142685714Y-81034885D02*
X142600000Y-81034885D01*
X142600000Y-81034885D02*
X142571428Y-81020600D01*
X142571428Y-81020600D02*
X142557143Y-81006314D01*
X143028571Y-81034885D02*
X142857142Y-81034885D01*
X142942857Y-81034885D02*
X142942857Y-80734885D01*
X142942857Y-80734885D02*
X142914285Y-80777742D01*
X142914285Y-80777742D02*
X142885714Y-80806314D01*
X142885714Y-80806314D02*
X142857142Y-80820600D01*
D10*
X172225595Y-82379819D02*
X172225595Y-83189342D01*
X172225595Y-83189342D02*
X172273214Y-83284580D01*
X172273214Y-83284580D02*
X172320833Y-83332200D01*
X172320833Y-83332200D02*
X172416071Y-83379819D01*
X172416071Y-83379819D02*
X172606547Y-83379819D01*
X172606547Y-83379819D02*
X172701785Y-83332200D01*
X172701785Y-83332200D02*
X172749404Y-83284580D01*
X172749404Y-83284580D02*
X172797023Y-83189342D01*
X172797023Y-83189342D02*
X172797023Y-82379819D01*
X173701785Y-82713152D02*
X173701785Y-83379819D01*
X173463690Y-82332200D02*
X173225595Y-83046485D01*
X173225595Y-83046485D02*
X173844642Y-83046485D01*
X182464286Y-104973866D02*
X183226191Y-104973866D01*
X182845238Y-105354819D02*
X182845238Y-104592914D01*
X184178571Y-104354819D02*
X183702381Y-104354819D01*
X183702381Y-104354819D02*
X183654762Y-104831009D01*
X183654762Y-104831009D02*
X183702381Y-104783390D01*
X183702381Y-104783390D02*
X183797619Y-104735771D01*
X183797619Y-104735771D02*
X184035714Y-104735771D01*
X184035714Y-104735771D02*
X184130952Y-104783390D01*
X184130952Y-104783390D02*
X184178571Y-104831009D01*
X184178571Y-104831009D02*
X184226190Y-104926247D01*
X184226190Y-104926247D02*
X184226190Y-105164342D01*
X184226190Y-105164342D02*
X184178571Y-105259580D01*
X184178571Y-105259580D02*
X184130952Y-105307200D01*
X184130952Y-105307200D02*
X184035714Y-105354819D01*
X184035714Y-105354819D02*
X183797619Y-105354819D01*
X183797619Y-105354819D02*
X183702381Y-105307200D01*
X183702381Y-105307200D02*
X183654762Y-105259580D01*
X184511905Y-104354819D02*
X184845238Y-105354819D01*
X184845238Y-105354819D02*
X185178571Y-104354819D01*
D12*
X149534198Y-74271696D02*
X149558008Y-74295505D01*
X149558008Y-74295505D02*
X149581817Y-74366934D01*
X149581817Y-74366934D02*
X149581817Y-74414553D01*
X149581817Y-74414553D02*
X149558008Y-74485981D01*
X149558008Y-74485981D02*
X149510388Y-74533600D01*
X149510388Y-74533600D02*
X149462769Y-74557410D01*
X149462769Y-74557410D02*
X149367531Y-74581219D01*
X149367531Y-74581219D02*
X149296103Y-74581219D01*
X149296103Y-74581219D02*
X149200865Y-74557410D01*
X149200865Y-74557410D02*
X149153246Y-74533600D01*
X149153246Y-74533600D02*
X149105627Y-74485981D01*
X149105627Y-74485981D02*
X149081817Y-74414553D01*
X149081817Y-74414553D02*
X149081817Y-74366934D01*
X149081817Y-74366934D02*
X149105627Y-74295505D01*
X149105627Y-74295505D02*
X149129436Y-74271696D01*
X149081817Y-73819315D02*
X149081817Y-74057410D01*
X149081817Y-74057410D02*
X149319912Y-74081219D01*
X149319912Y-74081219D02*
X149296103Y-74057410D01*
X149296103Y-74057410D02*
X149272293Y-74009791D01*
X149272293Y-74009791D02*
X149272293Y-73890743D01*
X149272293Y-73890743D02*
X149296103Y-73843124D01*
X149296103Y-73843124D02*
X149319912Y-73819315D01*
X149319912Y-73819315D02*
X149367531Y-73795505D01*
X149367531Y-73795505D02*
X149486579Y-73795505D01*
X149486579Y-73795505D02*
X149534198Y-73819315D01*
X149534198Y-73819315D02*
X149558008Y-73843124D01*
X149558008Y-73843124D02*
X149581817Y-73890743D01*
X149581817Y-73890743D02*
X149581817Y-74009791D01*
X149581817Y-74009791D02*
X149558008Y-74057410D01*
X149558008Y-74057410D02*
X149534198Y-74081219D01*
X141378571Y-77074809D02*
X141211905Y-76836714D01*
X141092857Y-77074809D02*
X141092857Y-76574809D01*
X141092857Y-76574809D02*
X141283333Y-76574809D01*
X141283333Y-76574809D02*
X141330952Y-76598619D01*
X141330952Y-76598619D02*
X141354762Y-76622428D01*
X141354762Y-76622428D02*
X141378571Y-76670047D01*
X141378571Y-76670047D02*
X141378571Y-76741476D01*
X141378571Y-76741476D02*
X141354762Y-76789095D01*
X141354762Y-76789095D02*
X141330952Y-76812904D01*
X141330952Y-76812904D02*
X141283333Y-76836714D01*
X141283333Y-76836714D02*
X141092857Y-76836714D01*
X141854762Y-77074809D02*
X141569048Y-77074809D01*
X141711905Y-77074809D02*
X141711905Y-76574809D01*
X141711905Y-76574809D02*
X141664286Y-76646238D01*
X141664286Y-76646238D02*
X141616667Y-76693857D01*
X141616667Y-76693857D02*
X141569048Y-76717666D01*
X142283333Y-76741476D02*
X142283333Y-77074809D01*
X142164285Y-76551000D02*
X142045238Y-76908142D01*
X142045238Y-76908142D02*
X142354761Y-76908142D01*
D13*
X153738454Y-93338805D02*
X153718251Y-93338805D01*
X153718251Y-93338805D02*
X153677844Y-93318602D01*
X153677844Y-93318602D02*
X153657641Y-93298399D01*
X153657641Y-93298399D02*
X153637438Y-93257992D01*
X153637438Y-93257992D02*
X153637438Y-93217586D01*
X153637438Y-93217586D02*
X153647540Y-93187282D01*
X153647540Y-93187282D02*
X153677844Y-93136774D01*
X153677844Y-93136774D02*
X153708149Y-93106470D01*
X153708149Y-93106470D02*
X153758657Y-93076165D01*
X153758657Y-93076165D02*
X153788961Y-93066063D01*
X153788961Y-93066063D02*
X153829367Y-93066063D01*
X153829367Y-93066063D02*
X153869773Y-93086267D01*
X153869773Y-93086267D02*
X153889976Y-93106470D01*
X153889976Y-93106470D02*
X153910179Y-93146876D01*
X153910179Y-93146876D02*
X153910179Y-93167079D01*
X153990992Y-93247891D02*
X154011195Y-93247891D01*
X154011195Y-93247891D02*
X154041499Y-93257992D01*
X154041499Y-93257992D02*
X154092007Y-93308500D01*
X154092007Y-93308500D02*
X154102108Y-93338805D01*
X154102108Y-93338805D02*
X154102108Y-93359008D01*
X154102108Y-93359008D02*
X154092007Y-93389312D01*
X154092007Y-93389312D02*
X154071804Y-93409515D01*
X154071804Y-93409515D02*
X154031398Y-93429718D01*
X154031398Y-93429718D02*
X153788961Y-93429718D01*
X153788961Y-93429718D02*
X153920281Y-93561038D01*
X154193022Y-93449921D02*
X154213225Y-93449921D01*
X154213225Y-93449921D02*
X154243530Y-93460023D01*
X154243530Y-93460023D02*
X154294037Y-93510530D01*
X154294037Y-93510530D02*
X154304139Y-93540835D01*
X154304139Y-93540835D02*
X154304139Y-93561038D01*
X154304139Y-93561038D02*
X154294037Y-93591343D01*
X154294037Y-93591343D02*
X154273834Y-93611546D01*
X154273834Y-93611546D02*
X154233428Y-93631749D01*
X154233428Y-93631749D02*
X153990991Y-93631749D01*
X153990991Y-93631749D02*
X154122311Y-93763069D01*
D10*
X160954819Y-79816666D02*
X160478628Y-80149999D01*
X160954819Y-80388094D02*
X159954819Y-80388094D01*
X159954819Y-80388094D02*
X159954819Y-80007142D01*
X159954819Y-80007142D02*
X160002438Y-79911904D01*
X160002438Y-79911904D02*
X160050057Y-79864285D01*
X160050057Y-79864285D02*
X160145295Y-79816666D01*
X160145295Y-79816666D02*
X160288152Y-79816666D01*
X160288152Y-79816666D02*
X160383390Y-79864285D01*
X160383390Y-79864285D02*
X160431009Y-79911904D01*
X160431009Y-79911904D02*
X160478628Y-80007142D01*
X160478628Y-80007142D02*
X160478628Y-80388094D01*
X160288152Y-78959523D02*
X160954819Y-78959523D01*
X159907200Y-79197618D02*
X160621485Y-79435713D01*
X160621485Y-79435713D02*
X160621485Y-78816666D01*
X149753761Y-83866662D02*
X149181341Y-84439082D01*
X149181341Y-84439082D02*
X149147669Y-84540097D01*
X149147669Y-84540097D02*
X149147669Y-84607441D01*
X149147669Y-84607441D02*
X149181341Y-84708456D01*
X149181341Y-84708456D02*
X149316028Y-84843143D01*
X149316028Y-84843143D02*
X149417043Y-84876815D01*
X149417043Y-84876815D02*
X149484387Y-84876815D01*
X149484387Y-84876815D02*
X149585402Y-84843143D01*
X149585402Y-84843143D02*
X150157822Y-84270723D01*
X150427196Y-84540097D02*
X150898600Y-85011502D01*
X150898600Y-85011502D02*
X149888448Y-85415563D01*
X183411905Y-94054819D02*
X183411905Y-93054819D01*
X183411905Y-93054819D02*
X183650000Y-93054819D01*
X183650000Y-93054819D02*
X183792857Y-93102438D01*
X183792857Y-93102438D02*
X183888095Y-93197676D01*
X183888095Y-93197676D02*
X183935714Y-93292914D01*
X183935714Y-93292914D02*
X183983333Y-93483390D01*
X183983333Y-93483390D02*
X183983333Y-93626247D01*
X183983333Y-93626247D02*
X183935714Y-93816723D01*
X183935714Y-93816723D02*
X183888095Y-93911961D01*
X183888095Y-93911961D02*
X183792857Y-94007200D01*
X183792857Y-94007200D02*
X183650000Y-94054819D01*
X183650000Y-94054819D02*
X183411905Y-94054819D01*
X184316667Y-93054819D02*
X184935714Y-93054819D01*
X184935714Y-93054819D02*
X184602381Y-93435771D01*
X184602381Y-93435771D02*
X184745238Y-93435771D01*
X184745238Y-93435771D02*
X184840476Y-93483390D01*
X184840476Y-93483390D02*
X184888095Y-93531009D01*
X184888095Y-93531009D02*
X184935714Y-93626247D01*
X184935714Y-93626247D02*
X184935714Y-93864342D01*
X184935714Y-93864342D02*
X184888095Y-93959580D01*
X184888095Y-93959580D02*
X184840476Y-94007200D01*
X184840476Y-94007200D02*
X184745238Y-94054819D01*
X184745238Y-94054819D02*
X184459524Y-94054819D01*
X184459524Y-94054819D02*
X184364286Y-94007200D01*
X184364286Y-94007200D02*
X184316667Y-93959580D01*
X123961905Y-102004819D02*
X123961905Y-101004819D01*
X123961905Y-101004819D02*
X124200000Y-101004819D01*
X124200000Y-101004819D02*
X124342857Y-101052438D01*
X124342857Y-101052438D02*
X124438095Y-101147676D01*
X124438095Y-101147676D02*
X124485714Y-101242914D01*
X124485714Y-101242914D02*
X124533333Y-101433390D01*
X124533333Y-101433390D02*
X124533333Y-101576247D01*
X124533333Y-101576247D02*
X124485714Y-101766723D01*
X124485714Y-101766723D02*
X124438095Y-101861961D01*
X124438095Y-101861961D02*
X124342857Y-101957200D01*
X124342857Y-101957200D02*
X124200000Y-102004819D01*
X124200000Y-102004819D02*
X123961905Y-102004819D01*
X124914286Y-101100057D02*
X124961905Y-101052438D01*
X124961905Y-101052438D02*
X125057143Y-101004819D01*
X125057143Y-101004819D02*
X125295238Y-101004819D01*
X125295238Y-101004819D02*
X125390476Y-101052438D01*
X125390476Y-101052438D02*
X125438095Y-101100057D01*
X125438095Y-101100057D02*
X125485714Y-101195295D01*
X125485714Y-101195295D02*
X125485714Y-101290533D01*
X125485714Y-101290533D02*
X125438095Y-101433390D01*
X125438095Y-101433390D02*
X124866667Y-102004819D01*
X124866667Y-102004819D02*
X125485714Y-102004819D01*
X144189580Y-114205357D02*
X144237200Y-114252976D01*
X144237200Y-114252976D02*
X144284819Y-114395833D01*
X144284819Y-114395833D02*
X144284819Y-114491071D01*
X144284819Y-114491071D02*
X144237200Y-114633928D01*
X144237200Y-114633928D02*
X144141961Y-114729166D01*
X144141961Y-114729166D02*
X144046723Y-114776785D01*
X144046723Y-114776785D02*
X143856247Y-114824404D01*
X143856247Y-114824404D02*
X143713390Y-114824404D01*
X143713390Y-114824404D02*
X143522914Y-114776785D01*
X143522914Y-114776785D02*
X143427676Y-114729166D01*
X143427676Y-114729166D02*
X143332438Y-114633928D01*
X143332438Y-114633928D02*
X143284819Y-114491071D01*
X143284819Y-114491071D02*
X143284819Y-114395833D01*
X143284819Y-114395833D02*
X143332438Y-114252976D01*
X143332438Y-114252976D02*
X143380057Y-114205357D01*
X144284819Y-113252976D02*
X144284819Y-113824404D01*
X144284819Y-113538690D02*
X143284819Y-113538690D01*
X143284819Y-113538690D02*
X143427676Y-113633928D01*
X143427676Y-113633928D02*
X143522914Y-113729166D01*
X143522914Y-113729166D02*
X143570533Y-113824404D01*
X143284819Y-112633928D02*
X143284819Y-112538690D01*
X143284819Y-112538690D02*
X143332438Y-112443452D01*
X143332438Y-112443452D02*
X143380057Y-112395833D01*
X143380057Y-112395833D02*
X143475295Y-112348214D01*
X143475295Y-112348214D02*
X143665771Y-112300595D01*
X143665771Y-112300595D02*
X143903866Y-112300595D01*
X143903866Y-112300595D02*
X144094342Y-112348214D01*
X144094342Y-112348214D02*
X144189580Y-112395833D01*
X144189580Y-112395833D02*
X144237200Y-112443452D01*
X144237200Y-112443452D02*
X144284819Y-112538690D01*
X144284819Y-112538690D02*
X144284819Y-112633928D01*
X144284819Y-112633928D02*
X144237200Y-112729166D01*
X144237200Y-112729166D02*
X144189580Y-112776785D01*
X144189580Y-112776785D02*
X144094342Y-112824404D01*
X144094342Y-112824404D02*
X143903866Y-112872023D01*
X143903866Y-112872023D02*
X143665771Y-112872023D01*
X143665771Y-112872023D02*
X143475295Y-112824404D01*
X143475295Y-112824404D02*
X143380057Y-112776785D01*
X143380057Y-112776785D02*
X143332438Y-112729166D01*
X143332438Y-112729166D02*
X143284819Y-112633928D01*
D13*
X135406314Y-76674999D02*
X135420600Y-76689285D01*
X135420600Y-76689285D02*
X135434885Y-76732142D01*
X135434885Y-76732142D02*
X135434885Y-76760714D01*
X135434885Y-76760714D02*
X135420600Y-76803571D01*
X135420600Y-76803571D02*
X135392028Y-76832142D01*
X135392028Y-76832142D02*
X135363457Y-76846428D01*
X135363457Y-76846428D02*
X135306314Y-76860714D01*
X135306314Y-76860714D02*
X135263457Y-76860714D01*
X135263457Y-76860714D02*
X135206314Y-76846428D01*
X135206314Y-76846428D02*
X135177742Y-76832142D01*
X135177742Y-76832142D02*
X135149171Y-76803571D01*
X135149171Y-76803571D02*
X135134885Y-76760714D01*
X135134885Y-76760714D02*
X135134885Y-76732142D01*
X135134885Y-76732142D02*
X135149171Y-76689285D01*
X135149171Y-76689285D02*
X135163457Y-76674999D01*
X135134885Y-76417857D02*
X135134885Y-76474999D01*
X135134885Y-76474999D02*
X135149171Y-76503571D01*
X135149171Y-76503571D02*
X135163457Y-76517857D01*
X135163457Y-76517857D02*
X135206314Y-76546428D01*
X135206314Y-76546428D02*
X135263457Y-76560714D01*
X135263457Y-76560714D02*
X135377742Y-76560714D01*
X135377742Y-76560714D02*
X135406314Y-76546428D01*
X135406314Y-76546428D02*
X135420600Y-76532142D01*
X135420600Y-76532142D02*
X135434885Y-76503571D01*
X135434885Y-76503571D02*
X135434885Y-76446428D01*
X135434885Y-76446428D02*
X135420600Y-76417857D01*
X135420600Y-76417857D02*
X135406314Y-76403571D01*
X135406314Y-76403571D02*
X135377742Y-76389285D01*
X135377742Y-76389285D02*
X135306314Y-76389285D01*
X135306314Y-76389285D02*
X135277742Y-76403571D01*
X135277742Y-76403571D02*
X135263457Y-76417857D01*
X135263457Y-76417857D02*
X135249171Y-76446428D01*
X135249171Y-76446428D02*
X135249171Y-76503571D01*
X135249171Y-76503571D02*
X135263457Y-76532142D01*
X135263457Y-76532142D02*
X135277742Y-76546428D01*
X135277742Y-76546428D02*
X135306314Y-76560714D01*
D10*
X174483333Y-93531009D02*
X174626190Y-93578628D01*
X174626190Y-93578628D02*
X174673809Y-93626247D01*
X174673809Y-93626247D02*
X174721428Y-93721485D01*
X174721428Y-93721485D02*
X174721428Y-93864342D01*
X174721428Y-93864342D02*
X174673809Y-93959580D01*
X174673809Y-93959580D02*
X174626190Y-94007200D01*
X174626190Y-94007200D02*
X174530952Y-94054819D01*
X174530952Y-94054819D02*
X174150000Y-94054819D01*
X174150000Y-94054819D02*
X174150000Y-93054819D01*
X174150000Y-93054819D02*
X174483333Y-93054819D01*
X174483333Y-93054819D02*
X174578571Y-93102438D01*
X174578571Y-93102438D02*
X174626190Y-93150057D01*
X174626190Y-93150057D02*
X174673809Y-93245295D01*
X174673809Y-93245295D02*
X174673809Y-93340533D01*
X174673809Y-93340533D02*
X174626190Y-93435771D01*
X174626190Y-93435771D02*
X174578571Y-93483390D01*
X174578571Y-93483390D02*
X174483333Y-93531009D01*
X174483333Y-93531009D02*
X174150000Y-93531009D01*
X175150000Y-94054819D02*
X175150000Y-93388152D01*
X175150000Y-93578628D02*
X175197619Y-93483390D01*
X175197619Y-93483390D02*
X175245238Y-93435771D01*
X175245238Y-93435771D02*
X175340476Y-93388152D01*
X175340476Y-93388152D02*
X175435714Y-93388152D01*
X175769048Y-94054819D02*
X175769048Y-93388152D01*
X175769048Y-93054819D02*
X175721429Y-93102438D01*
X175721429Y-93102438D02*
X175769048Y-93150057D01*
X175769048Y-93150057D02*
X175816667Y-93102438D01*
X175816667Y-93102438D02*
X175769048Y-93054819D01*
X175769048Y-93054819D02*
X175769048Y-93150057D01*
X176673809Y-93388152D02*
X176673809Y-94197676D01*
X176673809Y-94197676D02*
X176626190Y-94292914D01*
X176626190Y-94292914D02*
X176578571Y-94340533D01*
X176578571Y-94340533D02*
X176483333Y-94388152D01*
X176483333Y-94388152D02*
X176340476Y-94388152D01*
X176340476Y-94388152D02*
X176245238Y-94340533D01*
X176673809Y-94007200D02*
X176578571Y-94054819D01*
X176578571Y-94054819D02*
X176388095Y-94054819D01*
X176388095Y-94054819D02*
X176292857Y-94007200D01*
X176292857Y-94007200D02*
X176245238Y-93959580D01*
X176245238Y-93959580D02*
X176197619Y-93864342D01*
X176197619Y-93864342D02*
X176197619Y-93578628D01*
X176197619Y-93578628D02*
X176245238Y-93483390D01*
X176245238Y-93483390D02*
X176292857Y-93435771D01*
X176292857Y-93435771D02*
X176388095Y-93388152D01*
X176388095Y-93388152D02*
X176578571Y-93388152D01*
X176578571Y-93388152D02*
X176673809Y-93435771D01*
X177150000Y-94054819D02*
X177150000Y-93054819D01*
X177578571Y-94054819D02*
X177578571Y-93531009D01*
X177578571Y-93531009D02*
X177530952Y-93435771D01*
X177530952Y-93435771D02*
X177435714Y-93388152D01*
X177435714Y-93388152D02*
X177292857Y-93388152D01*
X177292857Y-93388152D02*
X177197619Y-93435771D01*
X177197619Y-93435771D02*
X177150000Y-93483390D01*
X177911905Y-93388152D02*
X178292857Y-93388152D01*
X178054762Y-93054819D02*
X178054762Y-93911961D01*
X178054762Y-93911961D02*
X178102381Y-94007200D01*
X178102381Y-94007200D02*
X178197619Y-94054819D01*
X178197619Y-94054819D02*
X178292857Y-94054819D01*
D13*
X136907143Y-95656314D02*
X136892857Y-95670600D01*
X136892857Y-95670600D02*
X136850000Y-95684885D01*
X136850000Y-95684885D02*
X136821428Y-95684885D01*
X136821428Y-95684885D02*
X136778571Y-95670600D01*
X136778571Y-95670600D02*
X136750000Y-95642028D01*
X136750000Y-95642028D02*
X136735714Y-95613457D01*
X136735714Y-95613457D02*
X136721428Y-95556314D01*
X136721428Y-95556314D02*
X136721428Y-95513457D01*
X136721428Y-95513457D02*
X136735714Y-95456314D01*
X136735714Y-95456314D02*
X136750000Y-95427742D01*
X136750000Y-95427742D02*
X136778571Y-95399171D01*
X136778571Y-95399171D02*
X136821428Y-95384885D01*
X136821428Y-95384885D02*
X136850000Y-95384885D01*
X136850000Y-95384885D02*
X136892857Y-95399171D01*
X136892857Y-95399171D02*
X136907143Y-95413457D01*
X137007143Y-95384885D02*
X137192857Y-95384885D01*
X137192857Y-95384885D02*
X137092857Y-95499171D01*
X137092857Y-95499171D02*
X137135714Y-95499171D01*
X137135714Y-95499171D02*
X137164286Y-95513457D01*
X137164286Y-95513457D02*
X137178571Y-95527742D01*
X137178571Y-95527742D02*
X137192857Y-95556314D01*
X137192857Y-95556314D02*
X137192857Y-95627742D01*
X137192857Y-95627742D02*
X137178571Y-95656314D01*
X137178571Y-95656314D02*
X137164286Y-95670600D01*
X137164286Y-95670600D02*
X137135714Y-95684885D01*
X137135714Y-95684885D02*
X137050000Y-95684885D01*
X137050000Y-95684885D02*
X137021428Y-95670600D01*
X137021428Y-95670600D02*
X137007143Y-95656314D01*
X137307142Y-95413457D02*
X137321428Y-95399171D01*
X137321428Y-95399171D02*
X137350000Y-95384885D01*
X137350000Y-95384885D02*
X137421428Y-95384885D01*
X137421428Y-95384885D02*
X137450000Y-95399171D01*
X137450000Y-95399171D02*
X137464285Y-95413457D01*
X137464285Y-95413457D02*
X137478571Y-95442028D01*
X137478571Y-95442028D02*
X137478571Y-95470600D01*
X137478571Y-95470600D02*
X137464285Y-95513457D01*
X137464285Y-95513457D02*
X137292857Y-95684885D01*
X137292857Y-95684885D02*
X137478571Y-95684885D01*
D10*
X163150057Y-104032738D02*
X163102438Y-104127976D01*
X163102438Y-104127976D02*
X163007200Y-104223214D01*
X163007200Y-104223214D02*
X162864342Y-104366071D01*
X162864342Y-104366071D02*
X162816723Y-104461309D01*
X162816723Y-104461309D02*
X162816723Y-104556547D01*
X163054819Y-104508928D02*
X163007200Y-104604166D01*
X163007200Y-104604166D02*
X162911961Y-104699404D01*
X162911961Y-104699404D02*
X162721485Y-104747023D01*
X162721485Y-104747023D02*
X162388152Y-104747023D01*
X162388152Y-104747023D02*
X162197676Y-104699404D01*
X162197676Y-104699404D02*
X162102438Y-104604166D01*
X162102438Y-104604166D02*
X162054819Y-104508928D01*
X162054819Y-104508928D02*
X162054819Y-104318452D01*
X162054819Y-104318452D02*
X162102438Y-104223214D01*
X162102438Y-104223214D02*
X162197676Y-104127976D01*
X162197676Y-104127976D02*
X162388152Y-104080357D01*
X162388152Y-104080357D02*
X162721485Y-104080357D01*
X162721485Y-104080357D02*
X162911961Y-104127976D01*
X162911961Y-104127976D02*
X163007200Y-104223214D01*
X163007200Y-104223214D02*
X163054819Y-104318452D01*
X163054819Y-104318452D02*
X163054819Y-104508928D01*
X162054819Y-103747023D02*
X162054819Y-103127976D01*
X162054819Y-103127976D02*
X162435771Y-103461309D01*
X162435771Y-103461309D02*
X162435771Y-103318452D01*
X162435771Y-103318452D02*
X162483390Y-103223214D01*
X162483390Y-103223214D02*
X162531009Y-103175595D01*
X162531009Y-103175595D02*
X162626247Y-103127976D01*
X162626247Y-103127976D02*
X162864342Y-103127976D01*
X162864342Y-103127976D02*
X162959580Y-103175595D01*
X162959580Y-103175595D02*
X163007200Y-103223214D01*
X163007200Y-103223214D02*
X163054819Y-103318452D01*
X163054819Y-103318452D02*
X163054819Y-103604166D01*
X163054819Y-103604166D02*
X163007200Y-103699404D01*
X163007200Y-103699404D02*
X162959580Y-103747023D01*
X129135180Y-94611905D02*
X130135180Y-94611905D01*
X130135180Y-94611905D02*
X130135180Y-94992857D01*
X130135180Y-94992857D02*
X130087561Y-95088095D01*
X130087561Y-95088095D02*
X130039942Y-95135714D01*
X130039942Y-95135714D02*
X129944704Y-95183333D01*
X129944704Y-95183333D02*
X129801847Y-95183333D01*
X129801847Y-95183333D02*
X129706609Y-95135714D01*
X129706609Y-95135714D02*
X129658990Y-95088095D01*
X129658990Y-95088095D02*
X129611371Y-94992857D01*
X129611371Y-94992857D02*
X129611371Y-94611905D01*
X129135180Y-96135714D02*
X129135180Y-95564286D01*
X129135180Y-95850000D02*
X130135180Y-95850000D01*
X130135180Y-95850000D02*
X129992323Y-95754762D01*
X129992323Y-95754762D02*
X129897085Y-95659524D01*
X129897085Y-95659524D02*
X129849466Y-95564286D01*
D12*
X166766666Y-107677190D02*
X166742857Y-107701000D01*
X166742857Y-107701000D02*
X166671428Y-107724809D01*
X166671428Y-107724809D02*
X166623809Y-107724809D01*
X166623809Y-107724809D02*
X166552381Y-107701000D01*
X166552381Y-107701000D02*
X166504762Y-107653380D01*
X166504762Y-107653380D02*
X166480952Y-107605761D01*
X166480952Y-107605761D02*
X166457143Y-107510523D01*
X166457143Y-107510523D02*
X166457143Y-107439095D01*
X166457143Y-107439095D02*
X166480952Y-107343857D01*
X166480952Y-107343857D02*
X166504762Y-107296238D01*
X166504762Y-107296238D02*
X166552381Y-107248619D01*
X166552381Y-107248619D02*
X166623809Y-107224809D01*
X166623809Y-107224809D02*
X166671428Y-107224809D01*
X166671428Y-107224809D02*
X166742857Y-107248619D01*
X166742857Y-107248619D02*
X166766666Y-107272428D01*
X167052381Y-107439095D02*
X167004762Y-107415285D01*
X167004762Y-107415285D02*
X166980952Y-107391476D01*
X166980952Y-107391476D02*
X166957143Y-107343857D01*
X166957143Y-107343857D02*
X166957143Y-107320047D01*
X166957143Y-107320047D02*
X166980952Y-107272428D01*
X166980952Y-107272428D02*
X167004762Y-107248619D01*
X167004762Y-107248619D02*
X167052381Y-107224809D01*
X167052381Y-107224809D02*
X167147619Y-107224809D01*
X167147619Y-107224809D02*
X167195238Y-107248619D01*
X167195238Y-107248619D02*
X167219047Y-107272428D01*
X167219047Y-107272428D02*
X167242857Y-107320047D01*
X167242857Y-107320047D02*
X167242857Y-107343857D01*
X167242857Y-107343857D02*
X167219047Y-107391476D01*
X167219047Y-107391476D02*
X167195238Y-107415285D01*
X167195238Y-107415285D02*
X167147619Y-107439095D01*
X167147619Y-107439095D02*
X167052381Y-107439095D01*
X167052381Y-107439095D02*
X167004762Y-107462904D01*
X167004762Y-107462904D02*
X166980952Y-107486714D01*
X166980952Y-107486714D02*
X166957143Y-107534333D01*
X166957143Y-107534333D02*
X166957143Y-107629571D01*
X166957143Y-107629571D02*
X166980952Y-107677190D01*
X166980952Y-107677190D02*
X167004762Y-107701000D01*
X167004762Y-107701000D02*
X167052381Y-107724809D01*
X167052381Y-107724809D02*
X167147619Y-107724809D01*
X167147619Y-107724809D02*
X167195238Y-107701000D01*
X167195238Y-107701000D02*
X167219047Y-107677190D01*
X167219047Y-107677190D02*
X167242857Y-107629571D01*
X167242857Y-107629571D02*
X167242857Y-107534333D01*
X167242857Y-107534333D02*
X167219047Y-107486714D01*
X167219047Y-107486714D02*
X167195238Y-107462904D01*
X167195238Y-107462904D02*
X167147619Y-107439095D01*
D10*
X142645103Y-101804939D02*
X142645103Y-102614462D01*
X142645103Y-102614462D02*
X142692722Y-102709700D01*
X142692722Y-102709700D02*
X142740341Y-102757320D01*
X142740341Y-102757320D02*
X142835579Y-102804939D01*
X142835579Y-102804939D02*
X143026055Y-102804939D01*
X143026055Y-102804939D02*
X143121293Y-102757320D01*
X143121293Y-102757320D02*
X143168912Y-102709700D01*
X143168912Y-102709700D02*
X143216531Y-102614462D01*
X143216531Y-102614462D02*
X143216531Y-101804939D01*
X144168912Y-101804939D02*
X143692722Y-101804939D01*
X143692722Y-101804939D02*
X143645103Y-102281129D01*
X143645103Y-102281129D02*
X143692722Y-102233510D01*
X143692722Y-102233510D02*
X143787960Y-102185891D01*
X143787960Y-102185891D02*
X144026055Y-102185891D01*
X144026055Y-102185891D02*
X144121293Y-102233510D01*
X144121293Y-102233510D02*
X144168912Y-102281129D01*
X144168912Y-102281129D02*
X144216531Y-102376367D01*
X144216531Y-102376367D02*
X144216531Y-102614462D01*
X144216531Y-102614462D02*
X144168912Y-102709700D01*
X144168912Y-102709700D02*
X144121293Y-102757320D01*
X144121293Y-102757320D02*
X144026055Y-102804939D01*
X144026055Y-102804939D02*
X143787960Y-102804939D01*
X143787960Y-102804939D02*
X143692722Y-102757320D01*
X143692722Y-102757320D02*
X143645103Y-102709700D01*
X177661905Y-102104819D02*
X177661905Y-101104819D01*
X177661905Y-101104819D02*
X177900000Y-101104819D01*
X177900000Y-101104819D02*
X178042857Y-101152438D01*
X178042857Y-101152438D02*
X178138095Y-101247676D01*
X178138095Y-101247676D02*
X178185714Y-101342914D01*
X178185714Y-101342914D02*
X178233333Y-101533390D01*
X178233333Y-101533390D02*
X178233333Y-101676247D01*
X178233333Y-101676247D02*
X178185714Y-101866723D01*
X178185714Y-101866723D02*
X178138095Y-101961961D01*
X178138095Y-101961961D02*
X178042857Y-102057200D01*
X178042857Y-102057200D02*
X177900000Y-102104819D01*
X177900000Y-102104819D02*
X177661905Y-102104819D01*
X179185714Y-102104819D02*
X178614286Y-102104819D01*
X178900000Y-102104819D02*
X178900000Y-101104819D01*
X178900000Y-101104819D02*
X178804762Y-101247676D01*
X178804762Y-101247676D02*
X178709524Y-101342914D01*
X178709524Y-101342914D02*
X178614286Y-101390533D01*
X183316667Y-109154819D02*
X183316667Y-108154819D01*
X183316667Y-108154819D02*
X183554762Y-108154819D01*
X183554762Y-108154819D02*
X183697619Y-108202438D01*
X183697619Y-108202438D02*
X183792857Y-108297676D01*
X183792857Y-108297676D02*
X183840476Y-108392914D01*
X183840476Y-108392914D02*
X183888095Y-108583390D01*
X183888095Y-108583390D02*
X183888095Y-108726247D01*
X183888095Y-108726247D02*
X183840476Y-108916723D01*
X183840476Y-108916723D02*
X183792857Y-109011961D01*
X183792857Y-109011961D02*
X183697619Y-109107200D01*
X183697619Y-109107200D02*
X183554762Y-109154819D01*
X183554762Y-109154819D02*
X183316667Y-109154819D01*
X184221429Y-108154819D02*
X184459524Y-109154819D01*
X184459524Y-109154819D02*
X184650000Y-108440533D01*
X184650000Y-108440533D02*
X184840476Y-109154819D01*
X184840476Y-109154819D02*
X185078572Y-108154819D01*
X182988095Y-78002438D02*
X182892857Y-77954819D01*
X182892857Y-77954819D02*
X182750000Y-77954819D01*
X182750000Y-77954819D02*
X182607143Y-78002438D01*
X182607143Y-78002438D02*
X182511905Y-78097676D01*
X182511905Y-78097676D02*
X182464286Y-78192914D01*
X182464286Y-78192914D02*
X182416667Y-78383390D01*
X182416667Y-78383390D02*
X182416667Y-78526247D01*
X182416667Y-78526247D02*
X182464286Y-78716723D01*
X182464286Y-78716723D02*
X182511905Y-78811961D01*
X182511905Y-78811961D02*
X182607143Y-78907200D01*
X182607143Y-78907200D02*
X182750000Y-78954819D01*
X182750000Y-78954819D02*
X182845238Y-78954819D01*
X182845238Y-78954819D02*
X182988095Y-78907200D01*
X182988095Y-78907200D02*
X183035714Y-78859580D01*
X183035714Y-78859580D02*
X183035714Y-78526247D01*
X183035714Y-78526247D02*
X182845238Y-78526247D01*
X183464286Y-78954819D02*
X183464286Y-77954819D01*
X183464286Y-77954819D02*
X184035714Y-78954819D01*
X184035714Y-78954819D02*
X184035714Y-77954819D01*
X184511905Y-78954819D02*
X184511905Y-77954819D01*
X184511905Y-77954819D02*
X184750000Y-77954819D01*
X184750000Y-77954819D02*
X184892857Y-78002438D01*
X184892857Y-78002438D02*
X184988095Y-78097676D01*
X184988095Y-78097676D02*
X185035714Y-78192914D01*
X185035714Y-78192914D02*
X185083333Y-78383390D01*
X185083333Y-78383390D02*
X185083333Y-78526247D01*
X185083333Y-78526247D02*
X185035714Y-78716723D01*
X185035714Y-78716723D02*
X184988095Y-78811961D01*
X184988095Y-78811961D02*
X184892857Y-78907200D01*
X184892857Y-78907200D02*
X184750000Y-78954819D01*
X184750000Y-78954819D02*
X184511905Y-78954819D01*
D13*
X135007143Y-87106314D02*
X134992857Y-87120600D01*
X134992857Y-87120600D02*
X134950000Y-87134885D01*
X134950000Y-87134885D02*
X134921428Y-87134885D01*
X134921428Y-87134885D02*
X134878571Y-87120600D01*
X134878571Y-87120600D02*
X134850000Y-87092028D01*
X134850000Y-87092028D02*
X134835714Y-87063457D01*
X134835714Y-87063457D02*
X134821428Y-87006314D01*
X134821428Y-87006314D02*
X134821428Y-86963457D01*
X134821428Y-86963457D02*
X134835714Y-86906314D01*
X134835714Y-86906314D02*
X134850000Y-86877742D01*
X134850000Y-86877742D02*
X134878571Y-86849171D01*
X134878571Y-86849171D02*
X134921428Y-86834885D01*
X134921428Y-86834885D02*
X134950000Y-86834885D01*
X134950000Y-86834885D02*
X134992857Y-86849171D01*
X134992857Y-86849171D02*
X135007143Y-86863457D01*
X135121428Y-86863457D02*
X135135714Y-86849171D01*
X135135714Y-86849171D02*
X135164286Y-86834885D01*
X135164286Y-86834885D02*
X135235714Y-86834885D01*
X135235714Y-86834885D02*
X135264286Y-86849171D01*
X135264286Y-86849171D02*
X135278571Y-86863457D01*
X135278571Y-86863457D02*
X135292857Y-86892028D01*
X135292857Y-86892028D02*
X135292857Y-86920600D01*
X135292857Y-86920600D02*
X135278571Y-86963457D01*
X135278571Y-86963457D02*
X135107143Y-87134885D01*
X135107143Y-87134885D02*
X135292857Y-87134885D01*
X135564285Y-86834885D02*
X135421428Y-86834885D01*
X135421428Y-86834885D02*
X135407142Y-86977742D01*
X135407142Y-86977742D02*
X135421428Y-86963457D01*
X135421428Y-86963457D02*
X135450000Y-86949171D01*
X135450000Y-86949171D02*
X135521428Y-86949171D01*
X135521428Y-86949171D02*
X135550000Y-86963457D01*
X135550000Y-86963457D02*
X135564285Y-86977742D01*
X135564285Y-86977742D02*
X135578571Y-87006314D01*
X135578571Y-87006314D02*
X135578571Y-87077742D01*
X135578571Y-87077742D02*
X135564285Y-87106314D01*
X135564285Y-87106314D02*
X135550000Y-87120600D01*
X135550000Y-87120600D02*
X135521428Y-87134885D01*
X135521428Y-87134885D02*
X135450000Y-87134885D01*
X135450000Y-87134885D02*
X135421428Y-87120600D01*
X135421428Y-87120600D02*
X135407142Y-87106314D01*
D10*
X121304819Y-78706666D02*
X120828628Y-79039999D01*
X121304819Y-79278094D02*
X120304819Y-79278094D01*
X120304819Y-79278094D02*
X120304819Y-78897142D01*
X120304819Y-78897142D02*
X120352438Y-78801904D01*
X120352438Y-78801904D02*
X120400057Y-78754285D01*
X120400057Y-78754285D02*
X120495295Y-78706666D01*
X120495295Y-78706666D02*
X120638152Y-78706666D01*
X120638152Y-78706666D02*
X120733390Y-78754285D01*
X120733390Y-78754285D02*
X120781009Y-78801904D01*
X120781009Y-78801904D02*
X120828628Y-78897142D01*
X120828628Y-78897142D02*
X120828628Y-79278094D01*
X121304819Y-78230475D02*
X121304819Y-78039999D01*
X121304819Y-78039999D02*
X121257200Y-77944761D01*
X121257200Y-77944761D02*
X121209580Y-77897142D01*
X121209580Y-77897142D02*
X121066723Y-77801904D01*
X121066723Y-77801904D02*
X120876247Y-77754285D01*
X120876247Y-77754285D02*
X120495295Y-77754285D01*
X120495295Y-77754285D02*
X120400057Y-77801904D01*
X120400057Y-77801904D02*
X120352438Y-77849523D01*
X120352438Y-77849523D02*
X120304819Y-77944761D01*
X120304819Y-77944761D02*
X120304819Y-78135237D01*
X120304819Y-78135237D02*
X120352438Y-78230475D01*
X120352438Y-78230475D02*
X120400057Y-78278094D01*
X120400057Y-78278094D02*
X120495295Y-78325713D01*
X120495295Y-78325713D02*
X120733390Y-78325713D01*
X120733390Y-78325713D02*
X120828628Y-78278094D01*
X120828628Y-78278094D02*
X120876247Y-78230475D01*
X120876247Y-78230475D02*
X120923866Y-78135237D01*
X120923866Y-78135237D02*
X120923866Y-77944761D01*
X120923866Y-77944761D02*
X120876247Y-77849523D01*
X120876247Y-77849523D02*
X120828628Y-77801904D01*
X120828628Y-77801904D02*
X120733390Y-77754285D01*
X183511905Y-90354819D02*
X183511905Y-89354819D01*
X183511905Y-89354819D02*
X183750000Y-89354819D01*
X183750000Y-89354819D02*
X183892857Y-89402438D01*
X183892857Y-89402438D02*
X183988095Y-89497676D01*
X183988095Y-89497676D02*
X184035714Y-89592914D01*
X184035714Y-89592914D02*
X184083333Y-89783390D01*
X184083333Y-89783390D02*
X184083333Y-89926247D01*
X184083333Y-89926247D02*
X184035714Y-90116723D01*
X184035714Y-90116723D02*
X183988095Y-90211961D01*
X183988095Y-90211961D02*
X183892857Y-90307200D01*
X183892857Y-90307200D02*
X183750000Y-90354819D01*
X183750000Y-90354819D02*
X183511905Y-90354819D01*
X184940476Y-89688152D02*
X184940476Y-90354819D01*
X184702381Y-89307200D02*
X184464286Y-90021485D01*
X184464286Y-90021485D02*
X185083333Y-90021485D01*
X139229580Y-80692857D02*
X139277200Y-80740476D01*
X139277200Y-80740476D02*
X139324819Y-80883333D01*
X139324819Y-80883333D02*
X139324819Y-80978571D01*
X139324819Y-80978571D02*
X139277200Y-81121428D01*
X139277200Y-81121428D02*
X139181961Y-81216666D01*
X139181961Y-81216666D02*
X139086723Y-81264285D01*
X139086723Y-81264285D02*
X138896247Y-81311904D01*
X138896247Y-81311904D02*
X138753390Y-81311904D01*
X138753390Y-81311904D02*
X138562914Y-81264285D01*
X138562914Y-81264285D02*
X138467676Y-81216666D01*
X138467676Y-81216666D02*
X138372438Y-81121428D01*
X138372438Y-81121428D02*
X138324819Y-80978571D01*
X138324819Y-80978571D02*
X138324819Y-80883333D01*
X138324819Y-80883333D02*
X138372438Y-80740476D01*
X138372438Y-80740476D02*
X138420057Y-80692857D01*
X138420057Y-80311904D02*
X138372438Y-80264285D01*
X138372438Y-80264285D02*
X138324819Y-80169047D01*
X138324819Y-80169047D02*
X138324819Y-79930952D01*
X138324819Y-79930952D02*
X138372438Y-79835714D01*
X138372438Y-79835714D02*
X138420057Y-79788095D01*
X138420057Y-79788095D02*
X138515295Y-79740476D01*
X138515295Y-79740476D02*
X138610533Y-79740476D01*
X138610533Y-79740476D02*
X138753390Y-79788095D01*
X138753390Y-79788095D02*
X139324819Y-80359523D01*
X139324819Y-80359523D02*
X139324819Y-79740476D01*
X138658152Y-78883333D02*
X139324819Y-78883333D01*
X138277200Y-79121428D02*
X138991485Y-79359523D01*
X138991485Y-79359523D02*
X138991485Y-78740476D01*
X183411905Y-86554819D02*
X183411905Y-85554819D01*
X183411905Y-85554819D02*
X183650000Y-85554819D01*
X183650000Y-85554819D02*
X183792857Y-85602438D01*
X183792857Y-85602438D02*
X183888095Y-85697676D01*
X183888095Y-85697676D02*
X183935714Y-85792914D01*
X183935714Y-85792914D02*
X183983333Y-85983390D01*
X183983333Y-85983390D02*
X183983333Y-86126247D01*
X183983333Y-86126247D02*
X183935714Y-86316723D01*
X183935714Y-86316723D02*
X183888095Y-86411961D01*
X183888095Y-86411961D02*
X183792857Y-86507200D01*
X183792857Y-86507200D02*
X183650000Y-86554819D01*
X183650000Y-86554819D02*
X183411905Y-86554819D01*
X184935714Y-86554819D02*
X184364286Y-86554819D01*
X184650000Y-86554819D02*
X184650000Y-85554819D01*
X184650000Y-85554819D02*
X184554762Y-85697676D01*
X184554762Y-85697676D02*
X184459524Y-85792914D01*
X184459524Y-85792914D02*
X184364286Y-85840533D01*
X183178571Y-101459580D02*
X183130952Y-101507200D01*
X183130952Y-101507200D02*
X182988095Y-101554819D01*
X182988095Y-101554819D02*
X182892857Y-101554819D01*
X182892857Y-101554819D02*
X182750000Y-101507200D01*
X182750000Y-101507200D02*
X182654762Y-101411961D01*
X182654762Y-101411961D02*
X182607143Y-101316723D01*
X182607143Y-101316723D02*
X182559524Y-101126247D01*
X182559524Y-101126247D02*
X182559524Y-100983390D01*
X182559524Y-100983390D02*
X182607143Y-100792914D01*
X182607143Y-100792914D02*
X182654762Y-100697676D01*
X182654762Y-100697676D02*
X182750000Y-100602438D01*
X182750000Y-100602438D02*
X182892857Y-100554819D01*
X182892857Y-100554819D02*
X182988095Y-100554819D01*
X182988095Y-100554819D02*
X183130952Y-100602438D01*
X183130952Y-100602438D02*
X183178571Y-100650057D01*
X184083333Y-101554819D02*
X183607143Y-101554819D01*
X183607143Y-101554819D02*
X183607143Y-100554819D01*
X184369048Y-100650057D02*
X184416667Y-100602438D01*
X184416667Y-100602438D02*
X184511905Y-100554819D01*
X184511905Y-100554819D02*
X184750000Y-100554819D01*
X184750000Y-100554819D02*
X184845238Y-100602438D01*
X184845238Y-100602438D02*
X184892857Y-100650057D01*
X184892857Y-100650057D02*
X184940476Y-100745295D01*
X184940476Y-100745295D02*
X184940476Y-100840533D01*
X184940476Y-100840533D02*
X184892857Y-100983390D01*
X184892857Y-100983390D02*
X184321429Y-101554819D01*
X184321429Y-101554819D02*
X184940476Y-101554819D01*
D13*
X135284885Y-80471428D02*
X134984885Y-80471428D01*
X134984885Y-80471428D02*
X134984885Y-80399999D01*
X134984885Y-80399999D02*
X134999171Y-80357142D01*
X134999171Y-80357142D02*
X135027742Y-80328571D01*
X135027742Y-80328571D02*
X135056314Y-80314285D01*
X135056314Y-80314285D02*
X135113457Y-80299999D01*
X135113457Y-80299999D02*
X135156314Y-80299999D01*
X135156314Y-80299999D02*
X135213457Y-80314285D01*
X135213457Y-80314285D02*
X135242028Y-80328571D01*
X135242028Y-80328571D02*
X135270600Y-80357142D01*
X135270600Y-80357142D02*
X135284885Y-80399999D01*
X135284885Y-80399999D02*
X135284885Y-80471428D01*
X134984885Y-80199999D02*
X134984885Y-80014285D01*
X134984885Y-80014285D02*
X135099171Y-80114285D01*
X135099171Y-80114285D02*
X135099171Y-80071428D01*
X135099171Y-80071428D02*
X135113457Y-80042857D01*
X135113457Y-80042857D02*
X135127742Y-80028571D01*
X135127742Y-80028571D02*
X135156314Y-80014285D01*
X135156314Y-80014285D02*
X135227742Y-80014285D01*
X135227742Y-80014285D02*
X135256314Y-80028571D01*
X135256314Y-80028571D02*
X135270600Y-80042857D01*
X135270600Y-80042857D02*
X135284885Y-80071428D01*
X135284885Y-80071428D02*
X135284885Y-80157142D01*
X135284885Y-80157142D02*
X135270600Y-80185714D01*
X135270600Y-80185714D02*
X135256314Y-80199999D01*
D10*
X126804819Y-86856666D02*
X126328628Y-87189999D01*
X126804819Y-87428094D02*
X125804819Y-87428094D01*
X125804819Y-87428094D02*
X125804819Y-87047142D01*
X125804819Y-87047142D02*
X125852438Y-86951904D01*
X125852438Y-86951904D02*
X125900057Y-86904285D01*
X125900057Y-86904285D02*
X125995295Y-86856666D01*
X125995295Y-86856666D02*
X126138152Y-86856666D01*
X126138152Y-86856666D02*
X126233390Y-86904285D01*
X126233390Y-86904285D02*
X126281009Y-86951904D01*
X126281009Y-86951904D02*
X126328628Y-87047142D01*
X126328628Y-87047142D02*
X126328628Y-87428094D01*
X126233390Y-86285237D02*
X126185771Y-86380475D01*
X126185771Y-86380475D02*
X126138152Y-86428094D01*
X126138152Y-86428094D02*
X126042914Y-86475713D01*
X126042914Y-86475713D02*
X125995295Y-86475713D01*
X125995295Y-86475713D02*
X125900057Y-86428094D01*
X125900057Y-86428094D02*
X125852438Y-86380475D01*
X125852438Y-86380475D02*
X125804819Y-86285237D01*
X125804819Y-86285237D02*
X125804819Y-86094761D01*
X125804819Y-86094761D02*
X125852438Y-85999523D01*
X125852438Y-85999523D02*
X125900057Y-85951904D01*
X125900057Y-85951904D02*
X125995295Y-85904285D01*
X125995295Y-85904285D02*
X126042914Y-85904285D01*
X126042914Y-85904285D02*
X126138152Y-85951904D01*
X126138152Y-85951904D02*
X126185771Y-85999523D01*
X126185771Y-85999523D02*
X126233390Y-86094761D01*
X126233390Y-86094761D02*
X126233390Y-86285237D01*
X126233390Y-86285237D02*
X126281009Y-86380475D01*
X126281009Y-86380475D02*
X126328628Y-86428094D01*
X126328628Y-86428094D02*
X126423866Y-86475713D01*
X126423866Y-86475713D02*
X126614342Y-86475713D01*
X126614342Y-86475713D02*
X126709580Y-86428094D01*
X126709580Y-86428094D02*
X126757200Y-86380475D01*
X126757200Y-86380475D02*
X126804819Y-86285237D01*
X126804819Y-86285237D02*
X126804819Y-86094761D01*
X126804819Y-86094761D02*
X126757200Y-85999523D01*
X126757200Y-85999523D02*
X126709580Y-85951904D01*
X126709580Y-85951904D02*
X126614342Y-85904285D01*
X126614342Y-85904285D02*
X126423866Y-85904285D01*
X126423866Y-85904285D02*
X126328628Y-85951904D01*
X126328628Y-85951904D02*
X126281009Y-85999523D01*
X126281009Y-85999523D02*
X126233390Y-86094761D01*
X178483333Y-74159580D02*
X178435714Y-74207200D01*
X178435714Y-74207200D02*
X178292857Y-74254819D01*
X178292857Y-74254819D02*
X178197619Y-74254819D01*
X178197619Y-74254819D02*
X178054762Y-74207200D01*
X178054762Y-74207200D02*
X177959524Y-74111961D01*
X177959524Y-74111961D02*
X177911905Y-74016723D01*
X177911905Y-74016723D02*
X177864286Y-73826247D01*
X177864286Y-73826247D02*
X177864286Y-73683390D01*
X177864286Y-73683390D02*
X177911905Y-73492914D01*
X177911905Y-73492914D02*
X177959524Y-73397676D01*
X177959524Y-73397676D02*
X178054762Y-73302438D01*
X178054762Y-73302438D02*
X178197619Y-73254819D01*
X178197619Y-73254819D02*
X178292857Y-73254819D01*
X178292857Y-73254819D02*
X178435714Y-73302438D01*
X178435714Y-73302438D02*
X178483333Y-73350057D01*
X178864286Y-73350057D02*
X178911905Y-73302438D01*
X178911905Y-73302438D02*
X179007143Y-73254819D01*
X179007143Y-73254819D02*
X179245238Y-73254819D01*
X179245238Y-73254819D02*
X179340476Y-73302438D01*
X179340476Y-73302438D02*
X179388095Y-73350057D01*
X179388095Y-73350057D02*
X179435714Y-73445295D01*
X179435714Y-73445295D02*
X179435714Y-73540533D01*
X179435714Y-73540533D02*
X179388095Y-73683390D01*
X179388095Y-73683390D02*
X178816667Y-74254819D01*
X178816667Y-74254819D02*
X179435714Y-74254819D01*
D12*
X133514809Y-97118879D02*
X133276714Y-97285545D01*
X133514809Y-97404593D02*
X133014809Y-97404593D01*
X133014809Y-97404593D02*
X133014809Y-97214117D01*
X133014809Y-97214117D02*
X133038619Y-97166498D01*
X133038619Y-97166498D02*
X133062428Y-97142688D01*
X133062428Y-97142688D02*
X133110047Y-97118879D01*
X133110047Y-97118879D02*
X133181476Y-97118879D01*
X133181476Y-97118879D02*
X133229095Y-97142688D01*
X133229095Y-97142688D02*
X133252904Y-97166498D01*
X133252904Y-97166498D02*
X133276714Y-97214117D01*
X133276714Y-97214117D02*
X133276714Y-97404593D01*
X133514809Y-96642688D02*
X133514809Y-96928402D01*
X133514809Y-96785545D02*
X133014809Y-96785545D01*
X133014809Y-96785545D02*
X133086238Y-96833164D01*
X133086238Y-96833164D02*
X133133857Y-96880783D01*
X133133857Y-96880783D02*
X133157666Y-96928402D01*
X133014809Y-96476022D02*
X133014809Y-96142689D01*
X133014809Y-96142689D02*
X133514809Y-96356974D01*
X167316666Y-114877190D02*
X167292857Y-114901000D01*
X167292857Y-114901000D02*
X167221428Y-114924809D01*
X167221428Y-114924809D02*
X167173809Y-114924809D01*
X167173809Y-114924809D02*
X167102381Y-114901000D01*
X167102381Y-114901000D02*
X167054762Y-114853380D01*
X167054762Y-114853380D02*
X167030952Y-114805761D01*
X167030952Y-114805761D02*
X167007143Y-114710523D01*
X167007143Y-114710523D02*
X167007143Y-114639095D01*
X167007143Y-114639095D02*
X167030952Y-114543857D01*
X167030952Y-114543857D02*
X167054762Y-114496238D01*
X167054762Y-114496238D02*
X167102381Y-114448619D01*
X167102381Y-114448619D02*
X167173809Y-114424809D01*
X167173809Y-114424809D02*
X167221428Y-114424809D01*
X167221428Y-114424809D02*
X167292857Y-114448619D01*
X167292857Y-114448619D02*
X167316666Y-114472428D01*
X167554762Y-114924809D02*
X167650000Y-114924809D01*
X167650000Y-114924809D02*
X167697619Y-114901000D01*
X167697619Y-114901000D02*
X167721428Y-114877190D01*
X167721428Y-114877190D02*
X167769047Y-114805761D01*
X167769047Y-114805761D02*
X167792857Y-114710523D01*
X167792857Y-114710523D02*
X167792857Y-114520047D01*
X167792857Y-114520047D02*
X167769047Y-114472428D01*
X167769047Y-114472428D02*
X167745238Y-114448619D01*
X167745238Y-114448619D02*
X167697619Y-114424809D01*
X167697619Y-114424809D02*
X167602381Y-114424809D01*
X167602381Y-114424809D02*
X167554762Y-114448619D01*
X167554762Y-114448619D02*
X167530952Y-114472428D01*
X167530952Y-114472428D02*
X167507143Y-114520047D01*
X167507143Y-114520047D02*
X167507143Y-114639095D01*
X167507143Y-114639095D02*
X167530952Y-114686714D01*
X167530952Y-114686714D02*
X167554762Y-114710523D01*
X167554762Y-114710523D02*
X167602381Y-114734333D01*
X167602381Y-114734333D02*
X167697619Y-114734333D01*
X167697619Y-114734333D02*
X167745238Y-114710523D01*
X167745238Y-114710523D02*
X167769047Y-114686714D01*
X167769047Y-114686714D02*
X167792857Y-114639095D01*
D10*
X128263095Y-81989819D02*
X128263095Y-82799342D01*
X128263095Y-82799342D02*
X128310714Y-82894580D01*
X128310714Y-82894580D02*
X128358333Y-82942200D01*
X128358333Y-82942200D02*
X128453571Y-82989819D01*
X128453571Y-82989819D02*
X128644047Y-82989819D01*
X128644047Y-82989819D02*
X128739285Y-82942200D01*
X128739285Y-82942200D02*
X128786904Y-82894580D01*
X128786904Y-82894580D02*
X128834523Y-82799342D01*
X128834523Y-82799342D02*
X128834523Y-81989819D01*
X129263095Y-82085057D02*
X129310714Y-82037438D01*
X129310714Y-82037438D02*
X129405952Y-81989819D01*
X129405952Y-81989819D02*
X129644047Y-81989819D01*
X129644047Y-81989819D02*
X129739285Y-82037438D01*
X129739285Y-82037438D02*
X129786904Y-82085057D01*
X129786904Y-82085057D02*
X129834523Y-82180295D01*
X129834523Y-82180295D02*
X129834523Y-82275533D01*
X129834523Y-82275533D02*
X129786904Y-82418390D01*
X129786904Y-82418390D02*
X129215476Y-82989819D01*
X129215476Y-82989819D02*
X129834523Y-82989819D01*
D13*
X136907143Y-92706314D02*
X136892857Y-92720600D01*
X136892857Y-92720600D02*
X136850000Y-92734885D01*
X136850000Y-92734885D02*
X136821428Y-92734885D01*
X136821428Y-92734885D02*
X136778571Y-92720600D01*
X136778571Y-92720600D02*
X136750000Y-92692028D01*
X136750000Y-92692028D02*
X136735714Y-92663457D01*
X136735714Y-92663457D02*
X136721428Y-92606314D01*
X136721428Y-92606314D02*
X136721428Y-92563457D01*
X136721428Y-92563457D02*
X136735714Y-92506314D01*
X136735714Y-92506314D02*
X136750000Y-92477742D01*
X136750000Y-92477742D02*
X136778571Y-92449171D01*
X136778571Y-92449171D02*
X136821428Y-92434885D01*
X136821428Y-92434885D02*
X136850000Y-92434885D01*
X136850000Y-92434885D02*
X136892857Y-92449171D01*
X136892857Y-92449171D02*
X136907143Y-92463457D01*
X137021428Y-92463457D02*
X137035714Y-92449171D01*
X137035714Y-92449171D02*
X137064286Y-92434885D01*
X137064286Y-92434885D02*
X137135714Y-92434885D01*
X137135714Y-92434885D02*
X137164286Y-92449171D01*
X137164286Y-92449171D02*
X137178571Y-92463457D01*
X137178571Y-92463457D02*
X137192857Y-92492028D01*
X137192857Y-92492028D02*
X137192857Y-92520600D01*
X137192857Y-92520600D02*
X137178571Y-92563457D01*
X137178571Y-92563457D02*
X137007143Y-92734885D01*
X137007143Y-92734885D02*
X137192857Y-92734885D01*
X137335714Y-92734885D02*
X137392857Y-92734885D01*
X137392857Y-92734885D02*
X137421428Y-92720600D01*
X137421428Y-92720600D02*
X137435714Y-92706314D01*
X137435714Y-92706314D02*
X137464285Y-92663457D01*
X137464285Y-92663457D02*
X137478571Y-92606314D01*
X137478571Y-92606314D02*
X137478571Y-92492028D01*
X137478571Y-92492028D02*
X137464285Y-92463457D01*
X137464285Y-92463457D02*
X137450000Y-92449171D01*
X137450000Y-92449171D02*
X137421428Y-92434885D01*
X137421428Y-92434885D02*
X137364285Y-92434885D01*
X137364285Y-92434885D02*
X137335714Y-92449171D01*
X137335714Y-92449171D02*
X137321428Y-92463457D01*
X137321428Y-92463457D02*
X137307142Y-92492028D01*
X137307142Y-92492028D02*
X137307142Y-92563457D01*
X137307142Y-92563457D02*
X137321428Y-92592028D01*
X137321428Y-92592028D02*
X137335714Y-92606314D01*
X137335714Y-92606314D02*
X137364285Y-92620600D01*
X137364285Y-92620600D02*
X137421428Y-92620600D01*
X137421428Y-92620600D02*
X137450000Y-92606314D01*
X137450000Y-92606314D02*
X137464285Y-92592028D01*
X137464285Y-92592028D02*
X137478571Y-92563457D01*
D12*
X133514809Y-94018879D02*
X133276714Y-94185545D01*
X133514809Y-94304593D02*
X133014809Y-94304593D01*
X133014809Y-94304593D02*
X133014809Y-94114117D01*
X133014809Y-94114117D02*
X133038619Y-94066498D01*
X133038619Y-94066498D02*
X133062428Y-94042688D01*
X133062428Y-94042688D02*
X133110047Y-94018879D01*
X133110047Y-94018879D02*
X133181476Y-94018879D01*
X133181476Y-94018879D02*
X133229095Y-94042688D01*
X133229095Y-94042688D02*
X133252904Y-94066498D01*
X133252904Y-94066498D02*
X133276714Y-94114117D01*
X133276714Y-94114117D02*
X133276714Y-94304593D01*
X133514809Y-93542688D02*
X133514809Y-93828402D01*
X133514809Y-93685545D02*
X133014809Y-93685545D01*
X133014809Y-93685545D02*
X133086238Y-93733164D01*
X133086238Y-93733164D02*
X133133857Y-93780783D01*
X133133857Y-93780783D02*
X133157666Y-93828402D01*
X133014809Y-93114117D02*
X133014809Y-93209355D01*
X133014809Y-93209355D02*
X133038619Y-93256974D01*
X133038619Y-93256974D02*
X133062428Y-93280784D01*
X133062428Y-93280784D02*
X133133857Y-93328403D01*
X133133857Y-93328403D02*
X133229095Y-93352212D01*
X133229095Y-93352212D02*
X133419571Y-93352212D01*
X133419571Y-93352212D02*
X133467190Y-93328403D01*
X133467190Y-93328403D02*
X133491000Y-93304593D01*
X133491000Y-93304593D02*
X133514809Y-93256974D01*
X133514809Y-93256974D02*
X133514809Y-93161736D01*
X133514809Y-93161736D02*
X133491000Y-93114117D01*
X133491000Y-93114117D02*
X133467190Y-93090308D01*
X133467190Y-93090308D02*
X133419571Y-93066498D01*
X133419571Y-93066498D02*
X133300523Y-93066498D01*
X133300523Y-93066498D02*
X133252904Y-93090308D01*
X133252904Y-93090308D02*
X133229095Y-93114117D01*
X133229095Y-93114117D02*
X133205285Y-93161736D01*
X133205285Y-93161736D02*
X133205285Y-93256974D01*
X133205285Y-93256974D02*
X133229095Y-93304593D01*
X133229095Y-93304593D02*
X133252904Y-93328403D01*
X133252904Y-93328403D02*
X133300523Y-93352212D01*
D10*
X183211905Y-97854819D02*
X183211905Y-96854819D01*
X183211905Y-96854819D02*
X183450000Y-96854819D01*
X183450000Y-96854819D02*
X183592857Y-96902438D01*
X183592857Y-96902438D02*
X183688095Y-96997676D01*
X183688095Y-96997676D02*
X183735714Y-97092914D01*
X183735714Y-97092914D02*
X183783333Y-97283390D01*
X183783333Y-97283390D02*
X183783333Y-97426247D01*
X183783333Y-97426247D02*
X183735714Y-97616723D01*
X183735714Y-97616723D02*
X183688095Y-97711961D01*
X183688095Y-97711961D02*
X183592857Y-97807200D01*
X183592857Y-97807200D02*
X183450000Y-97854819D01*
X183450000Y-97854819D02*
X183211905Y-97854819D01*
X184164286Y-96950057D02*
X184211905Y-96902438D01*
X184211905Y-96902438D02*
X184307143Y-96854819D01*
X184307143Y-96854819D02*
X184545238Y-96854819D01*
X184545238Y-96854819D02*
X184640476Y-96902438D01*
X184640476Y-96902438D02*
X184688095Y-96950057D01*
X184688095Y-96950057D02*
X184735714Y-97045295D01*
X184735714Y-97045295D02*
X184735714Y-97140533D01*
X184735714Y-97140533D02*
X184688095Y-97283390D01*
X184688095Y-97283390D02*
X184116667Y-97854819D01*
X184116667Y-97854819D02*
X184735714Y-97854819D01*
D13*
X135057143Y-91256314D02*
X135042857Y-91270600D01*
X135042857Y-91270600D02*
X135000000Y-91284885D01*
X135000000Y-91284885D02*
X134971428Y-91284885D01*
X134971428Y-91284885D02*
X134928571Y-91270600D01*
X134928571Y-91270600D02*
X134900000Y-91242028D01*
X134900000Y-91242028D02*
X134885714Y-91213457D01*
X134885714Y-91213457D02*
X134871428Y-91156314D01*
X134871428Y-91156314D02*
X134871428Y-91113457D01*
X134871428Y-91113457D02*
X134885714Y-91056314D01*
X134885714Y-91056314D02*
X134900000Y-91027742D01*
X134900000Y-91027742D02*
X134928571Y-90999171D01*
X134928571Y-90999171D02*
X134971428Y-90984885D01*
X134971428Y-90984885D02*
X135000000Y-90984885D01*
X135000000Y-90984885D02*
X135042857Y-90999171D01*
X135042857Y-90999171D02*
X135057143Y-91013457D01*
X135171428Y-91013457D02*
X135185714Y-90999171D01*
X135185714Y-90999171D02*
X135214286Y-90984885D01*
X135214286Y-90984885D02*
X135285714Y-90984885D01*
X135285714Y-90984885D02*
X135314286Y-90999171D01*
X135314286Y-90999171D02*
X135328571Y-91013457D01*
X135328571Y-91013457D02*
X135342857Y-91042028D01*
X135342857Y-91042028D02*
X135342857Y-91070600D01*
X135342857Y-91070600D02*
X135328571Y-91113457D01*
X135328571Y-91113457D02*
X135157143Y-91284885D01*
X135157143Y-91284885D02*
X135342857Y-91284885D01*
X135514285Y-91113457D02*
X135485714Y-91099171D01*
X135485714Y-91099171D02*
X135471428Y-91084885D01*
X135471428Y-91084885D02*
X135457142Y-91056314D01*
X135457142Y-91056314D02*
X135457142Y-91042028D01*
X135457142Y-91042028D02*
X135471428Y-91013457D01*
X135471428Y-91013457D02*
X135485714Y-90999171D01*
X135485714Y-90999171D02*
X135514285Y-90984885D01*
X135514285Y-90984885D02*
X135571428Y-90984885D01*
X135571428Y-90984885D02*
X135600000Y-90999171D01*
X135600000Y-90999171D02*
X135614285Y-91013457D01*
X135614285Y-91013457D02*
X135628571Y-91042028D01*
X135628571Y-91042028D02*
X135628571Y-91056314D01*
X135628571Y-91056314D02*
X135614285Y-91084885D01*
X135614285Y-91084885D02*
X135600000Y-91099171D01*
X135600000Y-91099171D02*
X135571428Y-91113457D01*
X135571428Y-91113457D02*
X135514285Y-91113457D01*
X135514285Y-91113457D02*
X135485714Y-91127742D01*
X135485714Y-91127742D02*
X135471428Y-91142028D01*
X135471428Y-91142028D02*
X135457142Y-91170600D01*
X135457142Y-91170600D02*
X135457142Y-91227742D01*
X135457142Y-91227742D02*
X135471428Y-91256314D01*
X135471428Y-91256314D02*
X135485714Y-91270600D01*
X135485714Y-91270600D02*
X135514285Y-91284885D01*
X135514285Y-91284885D02*
X135571428Y-91284885D01*
X135571428Y-91284885D02*
X135600000Y-91270600D01*
X135600000Y-91270600D02*
X135614285Y-91256314D01*
X135614285Y-91256314D02*
X135628571Y-91227742D01*
X135628571Y-91227742D02*
X135628571Y-91170600D01*
X135628571Y-91170600D02*
X135614285Y-91142028D01*
X135614285Y-91142028D02*
X135600000Y-91127742D01*
X135600000Y-91127742D02*
X135571428Y-91113457D01*
X135057143Y-89206314D02*
X135042857Y-89220600D01*
X135042857Y-89220600D02*
X135000000Y-89234885D01*
X135000000Y-89234885D02*
X134971428Y-89234885D01*
X134971428Y-89234885D02*
X134928571Y-89220600D01*
X134928571Y-89220600D02*
X134900000Y-89192028D01*
X134900000Y-89192028D02*
X134885714Y-89163457D01*
X134885714Y-89163457D02*
X134871428Y-89106314D01*
X134871428Y-89106314D02*
X134871428Y-89063457D01*
X134871428Y-89063457D02*
X134885714Y-89006314D01*
X134885714Y-89006314D02*
X134900000Y-88977742D01*
X134900000Y-88977742D02*
X134928571Y-88949171D01*
X134928571Y-88949171D02*
X134971428Y-88934885D01*
X134971428Y-88934885D02*
X135000000Y-88934885D01*
X135000000Y-88934885D02*
X135042857Y-88949171D01*
X135042857Y-88949171D02*
X135057143Y-88963457D01*
X135171428Y-88963457D02*
X135185714Y-88949171D01*
X135185714Y-88949171D02*
X135214286Y-88934885D01*
X135214286Y-88934885D02*
X135285714Y-88934885D01*
X135285714Y-88934885D02*
X135314286Y-88949171D01*
X135314286Y-88949171D02*
X135328571Y-88963457D01*
X135328571Y-88963457D02*
X135342857Y-88992028D01*
X135342857Y-88992028D02*
X135342857Y-89020600D01*
X135342857Y-89020600D02*
X135328571Y-89063457D01*
X135328571Y-89063457D02*
X135157143Y-89234885D01*
X135157143Y-89234885D02*
X135342857Y-89234885D01*
X135600000Y-88934885D02*
X135542857Y-88934885D01*
X135542857Y-88934885D02*
X135514285Y-88949171D01*
X135514285Y-88949171D02*
X135500000Y-88963457D01*
X135500000Y-88963457D02*
X135471428Y-89006314D01*
X135471428Y-89006314D02*
X135457142Y-89063457D01*
X135457142Y-89063457D02*
X135457142Y-89177742D01*
X135457142Y-89177742D02*
X135471428Y-89206314D01*
X135471428Y-89206314D02*
X135485714Y-89220600D01*
X135485714Y-89220600D02*
X135514285Y-89234885D01*
X135514285Y-89234885D02*
X135571428Y-89234885D01*
X135571428Y-89234885D02*
X135600000Y-89220600D01*
X135600000Y-89220600D02*
X135614285Y-89206314D01*
X135614285Y-89206314D02*
X135628571Y-89177742D01*
X135628571Y-89177742D02*
X135628571Y-89106314D01*
X135628571Y-89106314D02*
X135614285Y-89077742D01*
X135614285Y-89077742D02*
X135600000Y-89063457D01*
X135600000Y-89063457D02*
X135571428Y-89049171D01*
X135571428Y-89049171D02*
X135514285Y-89049171D01*
X135514285Y-89049171D02*
X135485714Y-89063457D01*
X135485714Y-89063457D02*
X135471428Y-89077742D01*
X135471428Y-89077742D02*
X135457142Y-89106314D01*
D10*
X145907142Y-103059580D02*
X145859523Y-103107200D01*
X145859523Y-103107200D02*
X145716666Y-103154819D01*
X145716666Y-103154819D02*
X145621428Y-103154819D01*
X145621428Y-103154819D02*
X145478571Y-103107200D01*
X145478571Y-103107200D02*
X145383333Y-103011961D01*
X145383333Y-103011961D02*
X145335714Y-102916723D01*
X145335714Y-102916723D02*
X145288095Y-102726247D01*
X145288095Y-102726247D02*
X145288095Y-102583390D01*
X145288095Y-102583390D02*
X145335714Y-102392914D01*
X145335714Y-102392914D02*
X145383333Y-102297676D01*
X145383333Y-102297676D02*
X145478571Y-102202438D01*
X145478571Y-102202438D02*
X145621428Y-102154819D01*
X145621428Y-102154819D02*
X145716666Y-102154819D01*
X145716666Y-102154819D02*
X145859523Y-102202438D01*
X145859523Y-102202438D02*
X145907142Y-102250057D01*
X146859523Y-103154819D02*
X146288095Y-103154819D01*
X146573809Y-103154819D02*
X146573809Y-102154819D01*
X146573809Y-102154819D02*
X146478571Y-102297676D01*
X146478571Y-102297676D02*
X146383333Y-102392914D01*
X146383333Y-102392914D02*
X146288095Y-102440533D01*
X147716666Y-102488152D02*
X147716666Y-103154819D01*
X147478571Y-102107200D02*
X147240476Y-102821485D01*
X147240476Y-102821485D02*
X147859523Y-102821485D01*
D12*
X177716666Y-114877190D02*
X177692857Y-114901000D01*
X177692857Y-114901000D02*
X177621428Y-114924809D01*
X177621428Y-114924809D02*
X177573809Y-114924809D01*
X177573809Y-114924809D02*
X177502381Y-114901000D01*
X177502381Y-114901000D02*
X177454762Y-114853380D01*
X177454762Y-114853380D02*
X177430952Y-114805761D01*
X177430952Y-114805761D02*
X177407143Y-114710523D01*
X177407143Y-114710523D02*
X177407143Y-114639095D01*
X177407143Y-114639095D02*
X177430952Y-114543857D01*
X177430952Y-114543857D02*
X177454762Y-114496238D01*
X177454762Y-114496238D02*
X177502381Y-114448619D01*
X177502381Y-114448619D02*
X177573809Y-114424809D01*
X177573809Y-114424809D02*
X177621428Y-114424809D01*
X177621428Y-114424809D02*
X177692857Y-114448619D01*
X177692857Y-114448619D02*
X177716666Y-114472428D01*
X177883333Y-114424809D02*
X178216666Y-114424809D01*
X178216666Y-114424809D02*
X178002381Y-114924809D01*
X148143722Y-80426457D02*
X148381817Y-80426457D01*
X147881817Y-80593123D02*
X148143722Y-80426457D01*
X148143722Y-80426457D02*
X147881817Y-80259790D01*
X147929436Y-80116933D02*
X147905627Y-80093124D01*
X147905627Y-80093124D02*
X147881817Y-80045505D01*
X147881817Y-80045505D02*
X147881817Y-79926457D01*
X147881817Y-79926457D02*
X147905627Y-79878838D01*
X147905627Y-79878838D02*
X147929436Y-79855029D01*
X147929436Y-79855029D02*
X147977055Y-79831219D01*
X147977055Y-79831219D02*
X148024674Y-79831219D01*
X148024674Y-79831219D02*
X148096103Y-79855029D01*
X148096103Y-79855029D02*
X148381817Y-80140743D01*
X148381817Y-80140743D02*
X148381817Y-79831219D01*
D13*
X150938454Y-95688805D02*
X150918251Y-95688805D01*
X150918251Y-95688805D02*
X150877844Y-95668602D01*
X150877844Y-95668602D02*
X150857641Y-95648399D01*
X150857641Y-95648399D02*
X150837438Y-95607992D01*
X150837438Y-95607992D02*
X150837438Y-95567586D01*
X150837438Y-95567586D02*
X150847540Y-95537282D01*
X150847540Y-95537282D02*
X150877844Y-95486774D01*
X150877844Y-95486774D02*
X150908149Y-95456470D01*
X150908149Y-95456470D02*
X150958657Y-95426165D01*
X150958657Y-95426165D02*
X150988961Y-95416063D01*
X150988961Y-95416063D02*
X151029367Y-95416063D01*
X151029367Y-95416063D02*
X151069773Y-95436267D01*
X151069773Y-95436267D02*
X151089976Y-95456470D01*
X151089976Y-95456470D02*
X151110179Y-95496876D01*
X151110179Y-95496876D02*
X151110179Y-95517079D01*
X151190992Y-95597891D02*
X151211195Y-95597891D01*
X151211195Y-95597891D02*
X151241499Y-95607992D01*
X151241499Y-95607992D02*
X151292007Y-95658500D01*
X151292007Y-95658500D02*
X151302108Y-95688805D01*
X151302108Y-95688805D02*
X151302108Y-95709008D01*
X151302108Y-95709008D02*
X151292007Y-95739312D01*
X151292007Y-95739312D02*
X151271804Y-95759515D01*
X151271804Y-95759515D02*
X151231398Y-95779718D01*
X151231398Y-95779718D02*
X150988961Y-95779718D01*
X150988961Y-95779718D02*
X151120281Y-95911038D01*
X151322311Y-96113069D02*
X151201093Y-95991850D01*
X151261702Y-96052459D02*
X151473834Y-95840327D01*
X151473834Y-95840327D02*
X151423327Y-95850429D01*
X151423327Y-95850429D02*
X151382920Y-95850429D01*
X151382920Y-95850429D02*
X151352616Y-95840327D01*
X122307143Y-72496314D02*
X122292857Y-72510600D01*
X122292857Y-72510600D02*
X122250000Y-72524885D01*
X122250000Y-72524885D02*
X122221428Y-72524885D01*
X122221428Y-72524885D02*
X122178571Y-72510600D01*
X122178571Y-72510600D02*
X122150000Y-72482028D01*
X122150000Y-72482028D02*
X122135714Y-72453457D01*
X122135714Y-72453457D02*
X122121428Y-72396314D01*
X122121428Y-72396314D02*
X122121428Y-72353457D01*
X122121428Y-72353457D02*
X122135714Y-72296314D01*
X122135714Y-72296314D02*
X122150000Y-72267742D01*
X122150000Y-72267742D02*
X122178571Y-72239171D01*
X122178571Y-72239171D02*
X122221428Y-72224885D01*
X122221428Y-72224885D02*
X122250000Y-72224885D01*
X122250000Y-72224885D02*
X122292857Y-72239171D01*
X122292857Y-72239171D02*
X122307143Y-72253457D01*
X122592857Y-72524885D02*
X122421428Y-72524885D01*
X122507143Y-72524885D02*
X122507143Y-72224885D01*
X122507143Y-72224885D02*
X122478571Y-72267742D01*
X122478571Y-72267742D02*
X122450000Y-72296314D01*
X122450000Y-72296314D02*
X122421428Y-72310600D01*
X122692857Y-72224885D02*
X122878571Y-72224885D01*
X122878571Y-72224885D02*
X122778571Y-72339171D01*
X122778571Y-72339171D02*
X122821428Y-72339171D01*
X122821428Y-72339171D02*
X122850000Y-72353457D01*
X122850000Y-72353457D02*
X122864285Y-72367742D01*
X122864285Y-72367742D02*
X122878571Y-72396314D01*
X122878571Y-72396314D02*
X122878571Y-72467742D01*
X122878571Y-72467742D02*
X122864285Y-72496314D01*
X122864285Y-72496314D02*
X122850000Y-72510600D01*
X122850000Y-72510600D02*
X122821428Y-72524885D01*
X122821428Y-72524885D02*
X122735714Y-72524885D01*
X122735714Y-72524885D02*
X122707142Y-72510600D01*
X122707142Y-72510600D02*
X122692857Y-72496314D01*
D10*
X171234819Y-99639523D02*
X171949104Y-99639523D01*
X171949104Y-99639523D02*
X172091961Y-99687142D01*
X172091961Y-99687142D02*
X172187200Y-99782380D01*
X172187200Y-99782380D02*
X172234819Y-99925237D01*
X172234819Y-99925237D02*
X172234819Y-100020475D01*
X172234819Y-98639523D02*
X172234819Y-99210951D01*
X172234819Y-98925237D02*
X171234819Y-98925237D01*
X171234819Y-98925237D02*
X171377676Y-99020475D01*
X171377676Y-99020475D02*
X171472914Y-99115713D01*
X171472914Y-99115713D02*
X171520533Y-99210951D01*
X172234819Y-97687142D02*
X172234819Y-98258570D01*
X172234819Y-97972856D02*
X171234819Y-97972856D01*
X171234819Y-97972856D02*
X171377676Y-98068094D01*
X171377676Y-98068094D02*
X171472914Y-98163332D01*
X171472914Y-98163332D02*
X171520533Y-98258570D01*
X146240476Y-108172676D02*
X146240476Y-108886961D01*
X146240476Y-108886961D02*
X146192857Y-109029818D01*
X146192857Y-109029818D02*
X146097619Y-109125057D01*
X146097619Y-109125057D02*
X145954762Y-109172676D01*
X145954762Y-109172676D02*
X145859524Y-109172676D01*
X147240476Y-109172676D02*
X146669048Y-109172676D01*
X146954762Y-109172676D02*
X146954762Y-108172676D01*
X146954762Y-108172676D02*
X146859524Y-108315533D01*
X146859524Y-108315533D02*
X146764286Y-108410771D01*
X146764286Y-108410771D02*
X146669048Y-108458390D01*
X148097619Y-108172676D02*
X147907143Y-108172676D01*
X147907143Y-108172676D02*
X147811905Y-108220295D01*
X147811905Y-108220295D02*
X147764286Y-108267914D01*
X147764286Y-108267914D02*
X147669048Y-108410771D01*
X147669048Y-108410771D02*
X147621429Y-108601247D01*
X147621429Y-108601247D02*
X147621429Y-108982199D01*
X147621429Y-108982199D02*
X147669048Y-109077437D01*
X147669048Y-109077437D02*
X147716667Y-109125057D01*
X147716667Y-109125057D02*
X147811905Y-109172676D01*
X147811905Y-109172676D02*
X148002381Y-109172676D01*
X148002381Y-109172676D02*
X148097619Y-109125057D01*
X148097619Y-109125057D02*
X148145238Y-109077437D01*
X148145238Y-109077437D02*
X148192857Y-108982199D01*
X148192857Y-108982199D02*
X148192857Y-108744104D01*
X148192857Y-108744104D02*
X148145238Y-108648866D01*
X148145238Y-108648866D02*
X148097619Y-108601247D01*
X148097619Y-108601247D02*
X148002381Y-108553628D01*
X148002381Y-108553628D02*
X147811905Y-108553628D01*
X147811905Y-108553628D02*
X147716667Y-108601247D01*
X147716667Y-108601247D02*
X147669048Y-108648866D01*
X147669048Y-108648866D02*
X147621429Y-108744104D01*
D12*
X127614809Y-88421428D02*
X127376714Y-88588094D01*
X127614809Y-88707142D02*
X127114809Y-88707142D01*
X127114809Y-88707142D02*
X127114809Y-88516666D01*
X127114809Y-88516666D02*
X127138619Y-88469047D01*
X127138619Y-88469047D02*
X127162428Y-88445237D01*
X127162428Y-88445237D02*
X127210047Y-88421428D01*
X127210047Y-88421428D02*
X127281476Y-88421428D01*
X127281476Y-88421428D02*
X127329095Y-88445237D01*
X127329095Y-88445237D02*
X127352904Y-88469047D01*
X127352904Y-88469047D02*
X127376714Y-88516666D01*
X127376714Y-88516666D02*
X127376714Y-88707142D01*
X127614809Y-87945237D02*
X127614809Y-88230951D01*
X127614809Y-88088094D02*
X127114809Y-88088094D01*
X127114809Y-88088094D02*
X127186238Y-88135713D01*
X127186238Y-88135713D02*
X127233857Y-88183332D01*
X127233857Y-88183332D02*
X127257666Y-88230951D01*
X127329095Y-87659523D02*
X127305285Y-87707142D01*
X127305285Y-87707142D02*
X127281476Y-87730952D01*
X127281476Y-87730952D02*
X127233857Y-87754761D01*
X127233857Y-87754761D02*
X127210047Y-87754761D01*
X127210047Y-87754761D02*
X127162428Y-87730952D01*
X127162428Y-87730952D02*
X127138619Y-87707142D01*
X127138619Y-87707142D02*
X127114809Y-87659523D01*
X127114809Y-87659523D02*
X127114809Y-87564285D01*
X127114809Y-87564285D02*
X127138619Y-87516666D01*
X127138619Y-87516666D02*
X127162428Y-87492857D01*
X127162428Y-87492857D02*
X127210047Y-87469047D01*
X127210047Y-87469047D02*
X127233857Y-87469047D01*
X127233857Y-87469047D02*
X127281476Y-87492857D01*
X127281476Y-87492857D02*
X127305285Y-87516666D01*
X127305285Y-87516666D02*
X127329095Y-87564285D01*
X127329095Y-87564285D02*
X127329095Y-87659523D01*
X127329095Y-87659523D02*
X127352904Y-87707142D01*
X127352904Y-87707142D02*
X127376714Y-87730952D01*
X127376714Y-87730952D02*
X127424333Y-87754761D01*
X127424333Y-87754761D02*
X127519571Y-87754761D01*
X127519571Y-87754761D02*
X127567190Y-87730952D01*
X127567190Y-87730952D02*
X127591000Y-87707142D01*
X127591000Y-87707142D02*
X127614809Y-87659523D01*
X127614809Y-87659523D02*
X127614809Y-87564285D01*
X127614809Y-87564285D02*
X127591000Y-87516666D01*
X127591000Y-87516666D02*
X127567190Y-87492857D01*
X127567190Y-87492857D02*
X127519571Y-87469047D01*
X127519571Y-87469047D02*
X127424333Y-87469047D01*
X127424333Y-87469047D02*
X127376714Y-87492857D01*
X127376714Y-87492857D02*
X127352904Y-87516666D01*
X127352904Y-87516666D02*
X127329095Y-87564285D01*
D10*
X182116667Y-71507200D02*
X182259524Y-71554819D01*
X182259524Y-71554819D02*
X182497619Y-71554819D01*
X182497619Y-71554819D02*
X182592857Y-71507200D01*
X182592857Y-71507200D02*
X182640476Y-71459580D01*
X182640476Y-71459580D02*
X182688095Y-71364342D01*
X182688095Y-71364342D02*
X182688095Y-71269104D01*
X182688095Y-71269104D02*
X182640476Y-71173866D01*
X182640476Y-71173866D02*
X182592857Y-71126247D01*
X182592857Y-71126247D02*
X182497619Y-71078628D01*
X182497619Y-71078628D02*
X182307143Y-71031009D01*
X182307143Y-71031009D02*
X182211905Y-70983390D01*
X182211905Y-70983390D02*
X182164286Y-70935771D01*
X182164286Y-70935771D02*
X182116667Y-70840533D01*
X182116667Y-70840533D02*
X182116667Y-70745295D01*
X182116667Y-70745295D02*
X182164286Y-70650057D01*
X182164286Y-70650057D02*
X182211905Y-70602438D01*
X182211905Y-70602438D02*
X182307143Y-70554819D01*
X182307143Y-70554819D02*
X182545238Y-70554819D01*
X182545238Y-70554819D02*
X182688095Y-70602438D01*
X183116667Y-71554819D02*
X183116667Y-70554819D01*
X183116667Y-70554819D02*
X183450000Y-71269104D01*
X183450000Y-71269104D02*
X183783333Y-70554819D01*
X183783333Y-70554819D02*
X183783333Y-71554819D01*
X184211905Y-71507200D02*
X184354762Y-71554819D01*
X184354762Y-71554819D02*
X184592857Y-71554819D01*
X184592857Y-71554819D02*
X184688095Y-71507200D01*
X184688095Y-71507200D02*
X184735714Y-71459580D01*
X184735714Y-71459580D02*
X184783333Y-71364342D01*
X184783333Y-71364342D02*
X184783333Y-71269104D01*
X184783333Y-71269104D02*
X184735714Y-71173866D01*
X184735714Y-71173866D02*
X184688095Y-71126247D01*
X184688095Y-71126247D02*
X184592857Y-71078628D01*
X184592857Y-71078628D02*
X184402381Y-71031009D01*
X184402381Y-71031009D02*
X184307143Y-70983390D01*
X184307143Y-70983390D02*
X184259524Y-70935771D01*
X184259524Y-70935771D02*
X184211905Y-70840533D01*
X184211905Y-70840533D02*
X184211905Y-70745295D01*
X184211905Y-70745295D02*
X184259524Y-70650057D01*
X184259524Y-70650057D02*
X184307143Y-70602438D01*
X184307143Y-70602438D02*
X184402381Y-70554819D01*
X184402381Y-70554819D02*
X184640476Y-70554819D01*
X184640476Y-70554819D02*
X184783333Y-70602438D01*
X183054761Y-75159580D02*
X183007142Y-75207200D01*
X183007142Y-75207200D02*
X182864285Y-75254819D01*
X182864285Y-75254819D02*
X182769047Y-75254819D01*
X182769047Y-75254819D02*
X182626190Y-75207200D01*
X182626190Y-75207200D02*
X182530952Y-75111961D01*
X182530952Y-75111961D02*
X182483333Y-75016723D01*
X182483333Y-75016723D02*
X182435714Y-74826247D01*
X182435714Y-74826247D02*
X182435714Y-74683390D01*
X182435714Y-74683390D02*
X182483333Y-74492914D01*
X182483333Y-74492914D02*
X182530952Y-74397676D01*
X182530952Y-74397676D02*
X182626190Y-74302438D01*
X182626190Y-74302438D02*
X182769047Y-74254819D01*
X182769047Y-74254819D02*
X182864285Y-74254819D01*
X182864285Y-74254819D02*
X183007142Y-74302438D01*
X183007142Y-74302438D02*
X183054761Y-74350057D01*
X183959523Y-75254819D02*
X183483333Y-75254819D01*
X183483333Y-75254819D02*
X183483333Y-74254819D01*
X184292857Y-75254819D02*
X184292857Y-74254819D01*
X184864285Y-75254819D02*
X184435714Y-74683390D01*
X184864285Y-74254819D02*
X184292857Y-74826247D01*
X171604819Y-70766666D02*
X171128628Y-71099999D01*
X171604819Y-71338094D02*
X170604819Y-71338094D01*
X170604819Y-71338094D02*
X170604819Y-70957142D01*
X170604819Y-70957142D02*
X170652438Y-70861904D01*
X170652438Y-70861904D02*
X170700057Y-70814285D01*
X170700057Y-70814285D02*
X170795295Y-70766666D01*
X170795295Y-70766666D02*
X170938152Y-70766666D01*
X170938152Y-70766666D02*
X171033390Y-70814285D01*
X171033390Y-70814285D02*
X171081009Y-70861904D01*
X171081009Y-70861904D02*
X171128628Y-70957142D01*
X171128628Y-70957142D02*
X171128628Y-71338094D01*
X170700057Y-70385713D02*
X170652438Y-70338094D01*
X170652438Y-70338094D02*
X170604819Y-70242856D01*
X170604819Y-70242856D02*
X170604819Y-70004761D01*
X170604819Y-70004761D02*
X170652438Y-69909523D01*
X170652438Y-69909523D02*
X170700057Y-69861904D01*
X170700057Y-69861904D02*
X170795295Y-69814285D01*
X170795295Y-69814285D02*
X170890533Y-69814285D01*
X170890533Y-69814285D02*
X171033390Y-69861904D01*
X171033390Y-69861904D02*
X171604819Y-70433332D01*
X171604819Y-70433332D02*
X171604819Y-69814285D01*
X178483333Y-72059580D02*
X178435714Y-72107200D01*
X178435714Y-72107200D02*
X178292857Y-72154819D01*
X178292857Y-72154819D02*
X178197619Y-72154819D01*
X178197619Y-72154819D02*
X178054762Y-72107200D01*
X178054762Y-72107200D02*
X177959524Y-72011961D01*
X177959524Y-72011961D02*
X177911905Y-71916723D01*
X177911905Y-71916723D02*
X177864286Y-71726247D01*
X177864286Y-71726247D02*
X177864286Y-71583390D01*
X177864286Y-71583390D02*
X177911905Y-71392914D01*
X177911905Y-71392914D02*
X177959524Y-71297676D01*
X177959524Y-71297676D02*
X178054762Y-71202438D01*
X178054762Y-71202438D02*
X178197619Y-71154819D01*
X178197619Y-71154819D02*
X178292857Y-71154819D01*
X178292857Y-71154819D02*
X178435714Y-71202438D01*
X178435714Y-71202438D02*
X178483333Y-71250057D01*
X179435714Y-72154819D02*
X178864286Y-72154819D01*
X179150000Y-72154819D02*
X179150000Y-71154819D01*
X179150000Y-71154819D02*
X179054762Y-71297676D01*
X179054762Y-71297676D02*
X178959524Y-71392914D01*
X178959524Y-71392914D02*
X178864286Y-71440533D01*
D13*
X142457143Y-78906314D02*
X142442857Y-78920600D01*
X142442857Y-78920600D02*
X142400000Y-78934885D01*
X142400000Y-78934885D02*
X142371428Y-78934885D01*
X142371428Y-78934885D02*
X142328571Y-78920600D01*
X142328571Y-78920600D02*
X142300000Y-78892028D01*
X142300000Y-78892028D02*
X142285714Y-78863457D01*
X142285714Y-78863457D02*
X142271428Y-78806314D01*
X142271428Y-78806314D02*
X142271428Y-78763457D01*
X142271428Y-78763457D02*
X142285714Y-78706314D01*
X142285714Y-78706314D02*
X142300000Y-78677742D01*
X142300000Y-78677742D02*
X142328571Y-78649171D01*
X142328571Y-78649171D02*
X142371428Y-78634885D01*
X142371428Y-78634885D02*
X142400000Y-78634885D01*
X142400000Y-78634885D02*
X142442857Y-78649171D01*
X142442857Y-78649171D02*
X142457143Y-78663457D01*
X142571428Y-78663457D02*
X142585714Y-78649171D01*
X142585714Y-78649171D02*
X142614286Y-78634885D01*
X142614286Y-78634885D02*
X142685714Y-78634885D01*
X142685714Y-78634885D02*
X142714286Y-78649171D01*
X142714286Y-78649171D02*
X142728571Y-78663457D01*
X142728571Y-78663457D02*
X142742857Y-78692028D01*
X142742857Y-78692028D02*
X142742857Y-78720600D01*
X142742857Y-78720600D02*
X142728571Y-78763457D01*
X142728571Y-78763457D02*
X142557143Y-78934885D01*
X142557143Y-78934885D02*
X142742857Y-78934885D01*
X142842857Y-78634885D02*
X143028571Y-78634885D01*
X143028571Y-78634885D02*
X142928571Y-78749171D01*
X142928571Y-78749171D02*
X142971428Y-78749171D01*
X142971428Y-78749171D02*
X143000000Y-78763457D01*
X143000000Y-78763457D02*
X143014285Y-78777742D01*
X143014285Y-78777742D02*
X143028571Y-78806314D01*
X143028571Y-78806314D02*
X143028571Y-78877742D01*
X143028571Y-78877742D02*
X143014285Y-78906314D01*
X143014285Y-78906314D02*
X143000000Y-78920600D01*
X143000000Y-78920600D02*
X142971428Y-78934885D01*
X142971428Y-78934885D02*
X142885714Y-78934885D01*
X142885714Y-78934885D02*
X142857142Y-78920600D01*
X142857142Y-78920600D02*
X142842857Y-78906314D01*
X126434885Y-72139999D02*
X126292028Y-72239999D01*
X126434885Y-72311428D02*
X126134885Y-72311428D01*
X126134885Y-72311428D02*
X126134885Y-72197142D01*
X126134885Y-72197142D02*
X126149171Y-72168571D01*
X126149171Y-72168571D02*
X126163457Y-72154285D01*
X126163457Y-72154285D02*
X126192028Y-72139999D01*
X126192028Y-72139999D02*
X126234885Y-72139999D01*
X126234885Y-72139999D02*
X126263457Y-72154285D01*
X126263457Y-72154285D02*
X126277742Y-72168571D01*
X126277742Y-72168571D02*
X126292028Y-72197142D01*
X126292028Y-72197142D02*
X126292028Y-72311428D01*
X126134885Y-71868571D02*
X126134885Y-72011428D01*
X126134885Y-72011428D02*
X126277742Y-72025714D01*
X126277742Y-72025714D02*
X126263457Y-72011428D01*
X126263457Y-72011428D02*
X126249171Y-71982857D01*
X126249171Y-71982857D02*
X126249171Y-71911428D01*
X126249171Y-71911428D02*
X126263457Y-71882857D01*
X126263457Y-71882857D02*
X126277742Y-71868571D01*
X126277742Y-71868571D02*
X126306314Y-71854285D01*
X126306314Y-71854285D02*
X126377742Y-71854285D01*
X126377742Y-71854285D02*
X126406314Y-71868571D01*
X126406314Y-71868571D02*
X126420600Y-71882857D01*
X126420600Y-71882857D02*
X126434885Y-71911428D01*
X126434885Y-71911428D02*
X126434885Y-71982857D01*
X126434885Y-71982857D02*
X126420600Y-72011428D01*
X126420600Y-72011428D02*
X126406314Y-72025714D01*
D10*
X162933333Y-85859580D02*
X162885714Y-85907200D01*
X162885714Y-85907200D02*
X162742857Y-85954819D01*
X162742857Y-85954819D02*
X162647619Y-85954819D01*
X162647619Y-85954819D02*
X162504762Y-85907200D01*
X162504762Y-85907200D02*
X162409524Y-85811961D01*
X162409524Y-85811961D02*
X162361905Y-85716723D01*
X162361905Y-85716723D02*
X162314286Y-85526247D01*
X162314286Y-85526247D02*
X162314286Y-85383390D01*
X162314286Y-85383390D02*
X162361905Y-85192914D01*
X162361905Y-85192914D02*
X162409524Y-85097676D01*
X162409524Y-85097676D02*
X162504762Y-85002438D01*
X162504762Y-85002438D02*
X162647619Y-84954819D01*
X162647619Y-84954819D02*
X162742857Y-84954819D01*
X162742857Y-84954819D02*
X162885714Y-85002438D01*
X162885714Y-85002438D02*
X162933333Y-85050057D01*
X163266667Y-84954819D02*
X163885714Y-84954819D01*
X163885714Y-84954819D02*
X163552381Y-85335771D01*
X163552381Y-85335771D02*
X163695238Y-85335771D01*
X163695238Y-85335771D02*
X163790476Y-85383390D01*
X163790476Y-85383390D02*
X163838095Y-85431009D01*
X163838095Y-85431009D02*
X163885714Y-85526247D01*
X163885714Y-85526247D02*
X163885714Y-85764342D01*
X163885714Y-85764342D02*
X163838095Y-85859580D01*
X163838095Y-85859580D02*
X163790476Y-85907200D01*
X163790476Y-85907200D02*
X163695238Y-85954819D01*
X163695238Y-85954819D02*
X163409524Y-85954819D01*
X163409524Y-85954819D02*
X163314286Y-85907200D01*
X163314286Y-85907200D02*
X163266667Y-85859580D01*
D12*
X151635579Y-75813172D02*
X151468913Y-75575077D01*
X151349865Y-75813172D02*
X151349865Y-75313172D01*
X151349865Y-75313172D02*
X151540341Y-75313172D01*
X151540341Y-75313172D02*
X151587960Y-75336982D01*
X151587960Y-75336982D02*
X151611770Y-75360791D01*
X151611770Y-75360791D02*
X151635579Y-75408410D01*
X151635579Y-75408410D02*
X151635579Y-75479839D01*
X151635579Y-75479839D02*
X151611770Y-75527458D01*
X151611770Y-75527458D02*
X151587960Y-75551267D01*
X151587960Y-75551267D02*
X151540341Y-75575077D01*
X151540341Y-75575077D02*
X151349865Y-75575077D01*
X152111770Y-75813172D02*
X151826056Y-75813172D01*
X151968913Y-75813172D02*
X151968913Y-75313172D01*
X151968913Y-75313172D02*
X151921294Y-75384601D01*
X151921294Y-75384601D02*
X151873675Y-75432220D01*
X151873675Y-75432220D02*
X151826056Y-75456029D01*
X152278436Y-75313172D02*
X152587960Y-75313172D01*
X152587960Y-75313172D02*
X152421293Y-75503648D01*
X152421293Y-75503648D02*
X152492722Y-75503648D01*
X152492722Y-75503648D02*
X152540341Y-75527458D01*
X152540341Y-75527458D02*
X152564150Y-75551267D01*
X152564150Y-75551267D02*
X152587960Y-75598886D01*
X152587960Y-75598886D02*
X152587960Y-75717934D01*
X152587960Y-75717934D02*
X152564150Y-75765553D01*
X152564150Y-75765553D02*
X152540341Y-75789363D01*
X152540341Y-75789363D02*
X152492722Y-75813172D01*
X152492722Y-75813172D02*
X152349865Y-75813172D01*
X152349865Y-75813172D02*
X152302246Y-75789363D01*
X152302246Y-75789363D02*
X152278436Y-75765553D01*
D10*
X174397618Y-85754819D02*
X173921428Y-85754819D01*
X173921428Y-85754819D02*
X173921428Y-84754819D01*
X174730952Y-85231009D02*
X175064285Y-85231009D01*
X175207142Y-85754819D02*
X174730952Y-85754819D01*
X174730952Y-85754819D02*
X174730952Y-84754819D01*
X174730952Y-84754819D02*
X175207142Y-84754819D01*
X175969047Y-85231009D02*
X175635714Y-85231009D01*
X175635714Y-85754819D02*
X175635714Y-84754819D01*
X175635714Y-84754819D02*
X176111904Y-84754819D01*
X176350000Y-84754819D02*
X176921428Y-84754819D01*
X176635714Y-85754819D02*
X176635714Y-84754819D01*
X145907142Y-105259580D02*
X145859523Y-105307200D01*
X145859523Y-105307200D02*
X145716666Y-105354819D01*
X145716666Y-105354819D02*
X145621428Y-105354819D01*
X145621428Y-105354819D02*
X145478571Y-105307200D01*
X145478571Y-105307200D02*
X145383333Y-105211961D01*
X145383333Y-105211961D02*
X145335714Y-105116723D01*
X145335714Y-105116723D02*
X145288095Y-104926247D01*
X145288095Y-104926247D02*
X145288095Y-104783390D01*
X145288095Y-104783390D02*
X145335714Y-104592914D01*
X145335714Y-104592914D02*
X145383333Y-104497676D01*
X145383333Y-104497676D02*
X145478571Y-104402438D01*
X145478571Y-104402438D02*
X145621428Y-104354819D01*
X145621428Y-104354819D02*
X145716666Y-104354819D01*
X145716666Y-104354819D02*
X145859523Y-104402438D01*
X145859523Y-104402438D02*
X145907142Y-104450057D01*
X146859523Y-105354819D02*
X146288095Y-105354819D01*
X146573809Y-105354819D02*
X146573809Y-104354819D01*
X146573809Y-104354819D02*
X146478571Y-104497676D01*
X146478571Y-104497676D02*
X146383333Y-104592914D01*
X146383333Y-104592914D02*
X146288095Y-104640533D01*
X147764285Y-104354819D02*
X147288095Y-104354819D01*
X147288095Y-104354819D02*
X147240476Y-104831009D01*
X147240476Y-104831009D02*
X147288095Y-104783390D01*
X147288095Y-104783390D02*
X147383333Y-104735771D01*
X147383333Y-104735771D02*
X147621428Y-104735771D01*
X147621428Y-104735771D02*
X147716666Y-104783390D01*
X147716666Y-104783390D02*
X147764285Y-104831009D01*
X147764285Y-104831009D02*
X147811904Y-104926247D01*
X147811904Y-104926247D02*
X147811904Y-105164342D01*
X147811904Y-105164342D02*
X147764285Y-105259580D01*
X147764285Y-105259580D02*
X147716666Y-105307200D01*
X147716666Y-105307200D02*
X147621428Y-105354819D01*
X147621428Y-105354819D02*
X147383333Y-105354819D01*
X147383333Y-105354819D02*
X147288095Y-105307200D01*
X147288095Y-105307200D02*
X147240476Y-105259580D01*
X181497618Y-82854819D02*
X181164285Y-82378628D01*
X180926190Y-82854819D02*
X180926190Y-81854819D01*
X180926190Y-81854819D02*
X181307142Y-81854819D01*
X181307142Y-81854819D02*
X181402380Y-81902438D01*
X181402380Y-81902438D02*
X181449999Y-81950057D01*
X181449999Y-81950057D02*
X181497618Y-82045295D01*
X181497618Y-82045295D02*
X181497618Y-82188152D01*
X181497618Y-82188152D02*
X181449999Y-82283390D01*
X181449999Y-82283390D02*
X181402380Y-82331009D01*
X181402380Y-82331009D02*
X181307142Y-82378628D01*
X181307142Y-82378628D02*
X180926190Y-82378628D01*
X181926190Y-82331009D02*
X182259523Y-82331009D01*
X182402380Y-82854819D02*
X181926190Y-82854819D01*
X181926190Y-82854819D02*
X181926190Y-81854819D01*
X181926190Y-81854819D02*
X182402380Y-81854819D01*
X182783333Y-82807200D02*
X182926190Y-82854819D01*
X182926190Y-82854819D02*
X183164285Y-82854819D01*
X183164285Y-82854819D02*
X183259523Y-82807200D01*
X183259523Y-82807200D02*
X183307142Y-82759580D01*
X183307142Y-82759580D02*
X183354761Y-82664342D01*
X183354761Y-82664342D02*
X183354761Y-82569104D01*
X183354761Y-82569104D02*
X183307142Y-82473866D01*
X183307142Y-82473866D02*
X183259523Y-82426247D01*
X183259523Y-82426247D02*
X183164285Y-82378628D01*
X183164285Y-82378628D02*
X182973809Y-82331009D01*
X182973809Y-82331009D02*
X182878571Y-82283390D01*
X182878571Y-82283390D02*
X182830952Y-82235771D01*
X182830952Y-82235771D02*
X182783333Y-82140533D01*
X182783333Y-82140533D02*
X182783333Y-82045295D01*
X182783333Y-82045295D02*
X182830952Y-81950057D01*
X182830952Y-81950057D02*
X182878571Y-81902438D01*
X182878571Y-81902438D02*
X182973809Y-81854819D01*
X182973809Y-81854819D02*
X183211904Y-81854819D01*
X183211904Y-81854819D02*
X183354761Y-81902438D01*
X183783333Y-82331009D02*
X184116666Y-82331009D01*
X184259523Y-82854819D02*
X183783333Y-82854819D01*
X183783333Y-82854819D02*
X183783333Y-81854819D01*
X183783333Y-81854819D02*
X184259523Y-81854819D01*
X184545238Y-81854819D02*
X185116666Y-81854819D01*
X184830952Y-82854819D02*
X184830952Y-81854819D01*
D14*
%TO.C,C11*%
X140785000Y-113301248D02*
X140785000Y-113823752D01*
X139315000Y-113301248D02*
X139315000Y-113823752D01*
%TO.C,R1*%
X161877500Y-83537258D02*
X161877500Y-83062742D01*
X162922500Y-83537258D02*
X162922500Y-83062742D01*
%TO.C,C19*%
X153617008Y-80322783D02*
X153617008Y-80603943D01*
X152597008Y-80322783D02*
X152597008Y-80603943D01*
%TO.C,JP2*%
X146700000Y-74100000D02*
X146700000Y-74700000D01*
X146000000Y-75400000D02*
X144600000Y-75400000D01*
X144600000Y-73400000D02*
X146000000Y-73400000D01*
X143900000Y-74700000D02*
X143900000Y-74100000D01*
X146000000Y-75400000D02*
G75*
G03*
X146700000Y-74700000I1J699999D01*
G01*
X146700000Y-74100000D02*
G75*
G03*
X146000000Y-73400000I-699999J1D01*
G01*
X143900000Y-74700000D02*
G75*
G03*
X144600000Y-75400000I700000J0D01*
G01*
X144600000Y-73400000D02*
G75*
G03*
X143900000Y-74100000I0J-700000D01*
G01*
%TO.C,R6*%
X128972936Y-74505000D02*
X129427064Y-74505000D01*
X128972936Y-75975000D02*
X129427064Y-75975000D01*
%TO.C,R10*%
X150612742Y-100927500D02*
X151087258Y-100927500D01*
X150612742Y-101972500D02*
X151087258Y-101972500D01*
%TO.C,R11*%
X149577500Y-99362258D02*
X149577500Y-98887742D01*
X150622500Y-99362258D02*
X150622500Y-98887742D01*
%TO.C,U3*%
X176010000Y-105500000D02*
X176010000Y-111510000D01*
X169190000Y-107750000D02*
X169190000Y-111510000D01*
X176010000Y-111510000D02*
X174750000Y-111510000D01*
X169190000Y-111510000D02*
X170450000Y-111510000D01*
%TO.C,C12*%
X159215000Y-113923752D02*
X159215000Y-113401248D01*
X160685000Y-113923752D02*
X160685000Y-113401248D01*
%TO.C,U1*%
X164187500Y-93110000D02*
X166387500Y-93110000D01*
X164187500Y-93110000D02*
X161987500Y-93110000D01*
X164187500Y-86340000D02*
X166387500Y-86340000D01*
X164187500Y-86340000D02*
X161987500Y-86340000D01*
X168377500Y-92890000D02*
X168047500Y-92650000D01*
X168377500Y-92410000D01*
X168377500Y-92890000D01*
G36*
X168377500Y-92890000D02*
G01*
X168047500Y-92650000D01*
X168377500Y-92410000D01*
X168377500Y-92890000D01*
G37*
%TO.C,J14*%
X172850000Y-92550000D02*
X170450000Y-92550000D01*
X172850000Y-90150000D02*
X172850000Y-92550000D01*
X170450000Y-92550000D02*
X170450000Y-90150000D01*
X170450000Y-90150000D02*
X172850000Y-90150000D01*
%TO.C,J13*%
X172850000Y-88800000D02*
X170450000Y-88800000D01*
X172850000Y-86400000D02*
X172850000Y-88800000D01*
X170450000Y-88800000D02*
X170450000Y-86400000D01*
X170450000Y-86400000D02*
X172850000Y-86400000D01*
%TO.C,R3*%
X168927500Y-73312258D02*
X168927500Y-72837742D01*
X169972500Y-73312258D02*
X169972500Y-72837742D01*
%TO.C,R7*%
X174472500Y-95887742D02*
X174472500Y-96362258D01*
X173427500Y-95887742D02*
X173427500Y-96362258D01*
%TO.C,C4*%
X165926248Y-82165000D02*
X166448752Y-82165000D01*
X165926248Y-83635000D02*
X166448752Y-83635000D01*
%TO.C,L1*%
X124860000Y-83379758D02*
X124860000Y-84200242D01*
X123740000Y-83379758D02*
X123740000Y-84200242D01*
%TO.C,C31*%
X144783256Y-80153363D02*
X145305760Y-80153363D01*
X144783256Y-81623363D02*
X145305760Y-81623363D01*
%TO.C,U4*%
X172987500Y-82110000D02*
X175187500Y-82110000D01*
X172987500Y-82110000D02*
X170787500Y-82110000D01*
X172987500Y-75340000D02*
X175187500Y-75340000D01*
X172987500Y-75340000D02*
X170787500Y-75340000D01*
X177177500Y-81890000D02*
X176847500Y-81650000D01*
X177177500Y-81410000D01*
X177177500Y-81890000D01*
G36*
X177177500Y-81890000D02*
G01*
X176847500Y-81650000D01*
X177177500Y-81410000D01*
X177177500Y-81890000D01*
G37*
%TO.C,J17*%
X188050000Y-106090000D02*
X185650000Y-106090000D01*
X188050000Y-103690000D02*
X188050000Y-106090000D01*
X185650000Y-106090000D02*
X185650000Y-103690000D01*
X185650000Y-103690000D02*
X188050000Y-103690000D01*
%TO.C,J9*%
X128920000Y-54050000D02*
X128920000Y-56750000D01*
X127450000Y-58470000D02*
X125900000Y-58470000D01*
X116200000Y-59800000D02*
X116200000Y-58470000D01*
X116200000Y-58470000D02*
X115150000Y-58470000D01*
X113680000Y-56750000D02*
X113680000Y-54050000D01*
%TO.C,C5*%
X149867008Y-76072783D02*
X149867008Y-76353943D01*
X148847008Y-76072783D02*
X148847008Y-76353943D01*
%TO.C,R14*%
X145712258Y-77372500D02*
X145237742Y-77372500D01*
X145712258Y-76327500D02*
X145237742Y-76327500D01*
%TO.C,C22*%
X152318613Y-91129166D02*
X152688080Y-91498633D01*
X151279166Y-92168613D02*
X151648633Y-92538080D01*
%TO.C,R4*%
X159977500Y-83537258D02*
X159977500Y-83062742D01*
X161022500Y-83537258D02*
X161022500Y-83062742D01*
%TO.C,U7*%
X150681125Y-87959719D02*
X150221506Y-88419338D01*
X145116195Y-92605411D02*
X145575814Y-93065030D01*
X150221506Y-87500100D02*
X150681125Y-87959719D01*
X140930122Y-88419338D02*
X140470503Y-87959719D01*
X146035433Y-83314027D02*
X145575814Y-82854408D01*
X140470503Y-87959719D02*
X140930122Y-87500100D01*
X145575814Y-82854408D02*
X145116195Y-83314027D01*
%TO.C,J3*%
X188050000Y-94840000D02*
X185650000Y-94840000D01*
X188050000Y-92440000D02*
X188050000Y-94840000D01*
X185650000Y-94840000D02*
X185650000Y-92440000D01*
X185650000Y-92440000D02*
X188050000Y-92440000D01*
%TO.C,D2*%
X122340000Y-102550000D02*
X122340000Y-104550000D01*
X122340000Y-102550000D02*
X126350000Y-102550000D01*
X122340000Y-104550000D02*
X126350000Y-104550000D01*
%TO.C,C10*%
X142885000Y-113301248D02*
X142885000Y-113823752D01*
X141415000Y-113301248D02*
X141415000Y-113823752D01*
%TO.C,C6*%
X134635000Y-76351248D02*
X134635000Y-76873752D01*
X133165000Y-76351248D02*
X133165000Y-76873752D01*
%TO.C,J19*%
X176450000Y-92550000D02*
X174050000Y-92550000D01*
X176450000Y-90150000D02*
X176450000Y-92550000D01*
X174050000Y-92550000D02*
X174050000Y-90150000D01*
X174050000Y-90150000D02*
X176450000Y-90150000D01*
%TO.C,C32*%
X139245756Y-93953363D02*
X139768260Y-93953363D01*
X139245756Y-95423363D02*
X139768260Y-95423363D01*
%TO.C,Q3*%
X161760000Y-103937500D02*
X161760000Y-103287500D01*
X161760000Y-103937500D02*
X161760000Y-104587500D01*
X158640000Y-103937500D02*
X158640000Y-103287500D01*
X158640000Y-103937500D02*
X158640000Y-104587500D01*
X162040000Y-103015000D02*
X161710000Y-102775000D01*
X162040000Y-102535000D01*
X162040000Y-103015000D01*
G36*
X162040000Y-103015000D02*
G01*
X161710000Y-102775000D01*
X162040000Y-102535000D01*
X162040000Y-103015000D01*
G37*
%TO.C,P1*%
X125875000Y-90770000D02*
X123955000Y-90770000D01*
X120240000Y-90770000D02*
X121945000Y-90770000D01*
X123955000Y-99930000D02*
X125875000Y-99930000D01*
X121945000Y-99930000D02*
X120240000Y-99930000D01*
X120240000Y-99930000D02*
X120240000Y-90770000D01*
%TO.C,C8*%
X166990580Y-106860000D02*
X166709420Y-106860000D01*
X166990580Y-105840000D02*
X166709420Y-105840000D01*
%TO.C,U5*%
X146132008Y-101515120D02*
X146132008Y-101255120D01*
X146132008Y-96065120D02*
X146132008Y-96325120D01*
X143407008Y-101515120D02*
X146132008Y-101515120D01*
X143407008Y-101515120D02*
X140682008Y-101515120D01*
X143407008Y-96065120D02*
X146132008Y-96065120D01*
X143407008Y-96065120D02*
X140682008Y-96065120D01*
X140682008Y-101515120D02*
X140682008Y-101255120D01*
X140682008Y-96065120D02*
X140682008Y-96325120D01*
X147154508Y-101585120D02*
X146674508Y-101585120D01*
X146914508Y-101255120D01*
X147154508Y-101585120D01*
G36*
X147154508Y-101585120D02*
G01*
X146674508Y-101585120D01*
X146914508Y-101255120D01*
X147154508Y-101585120D01*
G37*
%TO.C,D1*%
X176040000Y-102650000D02*
X176040000Y-104650000D01*
X176040000Y-102650000D02*
X180050000Y-102650000D01*
X176040000Y-104650000D02*
X180050000Y-104650000D01*
%TO.C,J6*%
X188050000Y-109840000D02*
X185650000Y-109840000D01*
X188050000Y-107440000D02*
X188050000Y-109840000D01*
X185650000Y-109840000D02*
X185650000Y-107440000D01*
X185650000Y-107440000D02*
X188050000Y-107440000D01*
%TO.C,J18*%
X188050000Y-79840000D02*
X185650000Y-79840000D01*
X188050000Y-77440000D02*
X188050000Y-79840000D01*
X185650000Y-79840000D02*
X185650000Y-77440000D01*
X185650000Y-77440000D02*
X188050000Y-77440000D01*
%TO.C,C25*%
X137930760Y-86923363D02*
X137408256Y-86923363D01*
X137930760Y-85453363D02*
X137408256Y-85453363D01*
%TO.C,R9*%
X121765000Y-78767064D02*
X121765000Y-78312936D01*
X123235000Y-78767064D02*
X123235000Y-78312936D01*
%TO.C,J4*%
X188050000Y-91090000D02*
X185650000Y-91090000D01*
X188050000Y-88690000D02*
X188050000Y-91090000D01*
X185650000Y-91090000D02*
X185650000Y-88690000D01*
X185650000Y-88690000D02*
X188050000Y-88690000D01*
%TO.C,C24*%
X139815000Y-80311252D02*
X139815000Y-79788748D01*
X141285000Y-80311252D02*
X141285000Y-79788748D01*
%TO.C,J1*%
X188050000Y-87340000D02*
X185650000Y-87340000D01*
X188050000Y-84940000D02*
X188050000Y-87340000D01*
X185650000Y-87340000D02*
X185650000Y-84940000D01*
X185650000Y-84940000D02*
X188050000Y-84940000D01*
%TO.C,J5*%
X188050000Y-102340000D02*
X185650000Y-102340000D01*
X188050000Y-99940000D02*
X188050000Y-102340000D01*
X185650000Y-102340000D02*
X185650000Y-99940000D01*
X185650000Y-99940000D02*
X188050000Y-99940000D01*
%TO.C,D3*%
X133000000Y-81860000D02*
X134700000Y-81860000D01*
X133000000Y-81860000D02*
X133000000Y-79200000D01*
X134700000Y-81860000D02*
X134700000Y-79200000D01*
%TO.C,R8*%
X125515000Y-84067064D02*
X125515000Y-83612936D01*
X126985000Y-84067064D02*
X126985000Y-83612936D01*
%TO.C,C2*%
X174688748Y-73065000D02*
X175211252Y-73065000D01*
X174688748Y-74535000D02*
X175211252Y-74535000D01*
%TO.C,R17*%
X131567500Y-97087258D02*
X131567500Y-96612742D01*
X132612500Y-97087258D02*
X132612500Y-96612742D01*
%TO.C,C9*%
X167490580Y-113860000D02*
X167209420Y-113860000D01*
X167490580Y-112840000D02*
X167209420Y-112840000D01*
%TO.C,U2*%
X129025000Y-81695000D02*
X130975000Y-81695000D01*
X129025000Y-81695000D02*
X127075000Y-81695000D01*
X129025000Y-76575000D02*
X130975000Y-76575000D01*
X129025000Y-76575000D02*
X127075000Y-76575000D01*
X131965000Y-81930000D02*
X131485000Y-81930000D01*
X131725000Y-81600000D01*
X131965000Y-81930000D01*
G36*
X131965000Y-81930000D02*
G01*
X131485000Y-81930000D01*
X131725000Y-81600000D01*
X131965000Y-81930000D01*
G37*
%TO.C,C29*%
X139245756Y-91853363D02*
X139768260Y-91853363D01*
X139245756Y-93323363D02*
X139768260Y-93323363D01*
%TO.C,R16*%
X132612500Y-93412742D02*
X132612500Y-93887258D01*
X131567500Y-93412742D02*
X131567500Y-93887258D01*
%TO.C,J2*%
X188050000Y-98590000D02*
X185650000Y-98590000D01*
X188050000Y-96190000D02*
X188050000Y-98590000D01*
X185650000Y-98590000D02*
X185650000Y-96190000D01*
X185650000Y-96190000D02*
X188050000Y-96190000D01*
%TO.C,C28*%
X137930760Y-91123363D02*
X137408256Y-91123363D01*
X137930760Y-89653363D02*
X137408256Y-89653363D01*
%TO.C,C26*%
X137930760Y-89023363D02*
X137408256Y-89023363D01*
X137930760Y-87553363D02*
X137408256Y-87553363D01*
%TO.C,C14*%
X143484420Y-102240000D02*
X143765580Y-102240000D01*
X143484420Y-103260000D02*
X143765580Y-103260000D01*
%TO.C,C7*%
X177709420Y-112840000D02*
X177990580Y-112840000D01*
X177709420Y-113860000D02*
X177990580Y-113860000D01*
%TO.C,Y2*%
X152007008Y-77988363D02*
X148707008Y-77988363D01*
X148707008Y-77988363D02*
X148707008Y-81988363D01*
%TO.C,C21*%
X149275621Y-93817529D02*
X149645088Y-94186996D01*
X148236174Y-94856976D02*
X148605641Y-95226443D01*
%TO.C,C13*%
X123235000Y-74341248D02*
X123235000Y-74863752D01*
X121765000Y-74341248D02*
X121765000Y-74863752D01*
%TO.C,J11*%
X170780000Y-96230000D02*
X170780000Y-97560000D01*
X169450000Y-96230000D02*
X170780000Y-96230000D01*
X168180000Y-96230000D02*
X163040000Y-96230000D01*
X168180000Y-96230000D02*
X168180000Y-98830000D01*
X163040000Y-96230000D02*
X163040000Y-101430000D01*
X170780000Y-98830000D02*
X170780000Y-101430000D01*
X168180000Y-98830000D02*
X170780000Y-98830000D01*
X170780000Y-101430000D02*
X163040000Y-101430000D01*
%TO.C,J16*%
X163460000Y-109782858D02*
X160550000Y-109782858D01*
X163460000Y-107222858D02*
X163460000Y-109782858D01*
X160550000Y-111297857D02*
X133550000Y-111297857D01*
X160550000Y-109782858D02*
X160550000Y-111297857D01*
X160550000Y-109687857D02*
X160550000Y-107222858D01*
X160550000Y-109687857D02*
X133550000Y-109687857D01*
X160550000Y-107222858D02*
X163460000Y-107222858D01*
X133550000Y-109782858D02*
X133550000Y-111297857D01*
X133550000Y-109687857D02*
X133550000Y-107222858D01*
X133550000Y-107222858D02*
X130640000Y-107222858D01*
X130640000Y-109782858D02*
X133550000Y-109782858D01*
X130640000Y-107222858D02*
X130640000Y-109782858D01*
%TO.C,R18*%
X129112500Y-87862742D02*
X129112500Y-88337258D01*
X128067500Y-87862742D02*
X128067500Y-88337258D01*
%TO.C,J8*%
X188050000Y-72340000D02*
X185650000Y-72340000D01*
X188050000Y-69940000D02*
X188050000Y-72340000D01*
X185650000Y-72340000D02*
X185650000Y-69940000D01*
X185650000Y-69940000D02*
X188050000Y-69940000D01*
%TO.C,J7*%
X188050000Y-76090000D02*
X185650000Y-76090000D01*
X188050000Y-73690000D02*
X188050000Y-76090000D01*
X185650000Y-76090000D02*
X185650000Y-73690000D01*
X185650000Y-73690000D02*
X188050000Y-73690000D01*
%TO.C,R2*%
X170627500Y-73312258D02*
X170627500Y-72837742D01*
X171672500Y-73312258D02*
X171672500Y-72837742D01*
%TO.C,C1*%
X174688748Y-70965000D02*
X175211252Y-70965000D01*
X174688748Y-72435000D02*
X175211252Y-72435000D01*
%TO.C,C23*%
X145305760Y-79523363D02*
X144783256Y-79523363D01*
X145305760Y-78053363D02*
X144783256Y-78053363D01*
%TO.C,R5*%
X127035000Y-74112936D02*
X127035000Y-74567064D01*
X125565000Y-74112936D02*
X125565000Y-74567064D01*
%TO.C,C3*%
X165926248Y-84315000D02*
X166448752Y-84315000D01*
X165926248Y-85785000D02*
X166448752Y-85785000D01*
%TO.C,R13*%
X151619750Y-76465863D02*
X152094266Y-76465863D01*
X151619750Y-77510863D02*
X152094266Y-77510863D01*
%TO.C,J12*%
X176450000Y-88800000D02*
X174050000Y-88800000D01*
X176450000Y-86400000D02*
X176450000Y-88800000D01*
X174050000Y-88800000D02*
X174050000Y-86400000D01*
X174050000Y-86400000D02*
X176450000Y-86400000D01*
%TO.C,C15*%
X143484420Y-104190000D02*
X143765580Y-104190000D01*
X143484420Y-105210000D02*
X143765580Y-105210000D01*
%TO.C,J15*%
X188050000Y-83590000D02*
X185650000Y-83590000D01*
X188050000Y-81190000D02*
X188050000Y-83590000D01*
X185650000Y-83590000D02*
X185650000Y-81190000D01*
X185650000Y-81190000D02*
X188050000Y-81190000D01*
%TD*%
%LPC*%
D15*
%TO.C,C11*%
X140050000Y-112525000D03*
X140050000Y-114600000D03*
%TD*%
D16*
%TO.C,R1*%
X162400000Y-84125000D03*
X162400000Y-82475000D03*
%TD*%
D17*
%TO.C,C19*%
X153107008Y-79688363D03*
X153107008Y-81238363D03*
%TD*%
D18*
%TO.C,JP2*%
X145950000Y-74400000D03*
D19*
X144650000Y-74400000D03*
%TD*%
D20*
%TO.C,R6*%
X128200000Y-75240000D03*
X130200000Y-75240000D03*
%TD*%
D21*
%TO.C,R10*%
X150025000Y-101450000D03*
X151675000Y-101450000D03*
%TD*%
D16*
%TO.C,R11*%
X150100000Y-99950000D03*
X150100000Y-98300000D03*
%TD*%
D22*
%TO.C,U3*%
X174900000Y-106450000D03*
X172600000Y-106450000D03*
D23*
X172600000Y-112750000D03*
D22*
X170300000Y-106450000D03*
%TD*%
D24*
%TO.C,C12*%
X159950000Y-114700000D03*
X159950000Y-112625000D03*
%TD*%
D25*
%TO.C,U1*%
X167050000Y-92650000D03*
X167050000Y-92000000D03*
X167050000Y-91350000D03*
X167050000Y-90700000D03*
X167050000Y-90050000D03*
X167050000Y-89400000D03*
X167050000Y-88750000D03*
X167050000Y-88100000D03*
X167050000Y-87450000D03*
X167050000Y-86800000D03*
X161325000Y-86800000D03*
X161325000Y-87450000D03*
X161325000Y-88100000D03*
X161325000Y-88750000D03*
X161325000Y-89400000D03*
X161325000Y-90050000D03*
X161325000Y-90700000D03*
X161325000Y-91350000D03*
X161325000Y-92000000D03*
X161325000Y-92650000D03*
%TD*%
D26*
%TO.C,J14*%
X171650000Y-91350000D03*
%TD*%
%TO.C,J13*%
X171650000Y-87600000D03*
%TD*%
D16*
%TO.C,R3*%
X169450000Y-73900000D03*
X169450000Y-72250000D03*
%TD*%
D27*
%TO.C,R7*%
X173950000Y-95300000D03*
X173950000Y-96950000D03*
%TD*%
D28*
%TO.C,C4*%
X165150000Y-82900000D03*
X167225000Y-82900000D03*
%TD*%
D29*
%TO.C,L1*%
X124300000Y-82640000D03*
X124300000Y-84940000D03*
%TD*%
D28*
%TO.C,C31*%
X144007008Y-80888363D03*
X146082008Y-80888363D03*
%TD*%
D25*
%TO.C,U4*%
X175850000Y-81650000D03*
X175850000Y-81000000D03*
X175850000Y-80350000D03*
X175850000Y-79700000D03*
X175850000Y-79050000D03*
X175850000Y-78400000D03*
X175850000Y-77750000D03*
X175850000Y-77100000D03*
X175850000Y-76450000D03*
X175850000Y-75800000D03*
X170125000Y-75800000D03*
X170125000Y-76450000D03*
X170125000Y-77100000D03*
X170125000Y-77750000D03*
X170125000Y-78400000D03*
X170125000Y-79050000D03*
X170125000Y-79700000D03*
X170125000Y-80350000D03*
X170125000Y-81000000D03*
X170125000Y-81650000D03*
%TD*%
D26*
%TO.C,J17*%
X186850000Y-104890000D03*
%TD*%
D30*
%TO.C,J9*%
X116550000Y-58850000D03*
X117050000Y-58850000D03*
X117550000Y-58850000D03*
X118050000Y-58850000D03*
X118550000Y-58850000D03*
X119050000Y-58850000D03*
X119550000Y-58850000D03*
X120050000Y-58850000D03*
X120550000Y-58850000D03*
X121050000Y-58850000D03*
X121550000Y-58850000D03*
X122050000Y-58850000D03*
X122550000Y-58850000D03*
X123050000Y-58850000D03*
X123550000Y-58850000D03*
X124050000Y-58850000D03*
X124550000Y-58850000D03*
X125050000Y-58850000D03*
X125550000Y-58850000D03*
D31*
X129150000Y-52950000D03*
X128550000Y-57850000D03*
X114050000Y-57850000D03*
X113450000Y-52950000D03*
%TD*%
D17*
%TO.C,C5*%
X149357008Y-75438363D03*
X149357008Y-76988363D03*
%TD*%
D32*
%TO.C,R14*%
X146300000Y-76850000D03*
X144650000Y-76850000D03*
%TD*%
D33*
%TO.C,C22*%
X151250000Y-91100000D03*
X152717246Y-92567246D03*
%TD*%
D16*
%TO.C,R4*%
X160500000Y-84125000D03*
X160500000Y-82475000D03*
%TD*%
D34*
%TO.C,U7*%
X146168016Y-92228876D03*
X146450859Y-91946033D03*
X146733701Y-91663191D03*
X147016544Y-91380348D03*
X147299387Y-91097505D03*
X147582229Y-90814663D03*
X147865072Y-90531820D03*
X148147915Y-90248977D03*
X148430758Y-89966134D03*
X148713600Y-89683292D03*
X148996443Y-89400449D03*
X149279286Y-89117606D03*
X149562128Y-88834764D03*
X149844971Y-88551921D03*
D35*
X149844971Y-87367517D03*
X149562128Y-87084674D03*
X149279286Y-86801832D03*
X148996443Y-86518989D03*
X148713600Y-86236146D03*
X148430758Y-85953304D03*
X148147915Y-85670461D03*
X147865072Y-85387618D03*
X147582229Y-85104775D03*
X147299387Y-84821933D03*
X147016544Y-84539090D03*
X146733701Y-84256247D03*
X146450859Y-83973405D03*
X146168016Y-83690562D03*
D34*
X144983612Y-83690562D03*
X144700769Y-83973405D03*
X144417927Y-84256247D03*
X144135084Y-84539090D03*
X143852241Y-84821933D03*
X143569399Y-85104775D03*
X143286556Y-85387618D03*
X143003713Y-85670461D03*
X142720870Y-85953304D03*
X142438028Y-86236146D03*
X142155185Y-86518989D03*
X141872342Y-86801832D03*
X141589500Y-87084674D03*
X141306657Y-87367517D03*
D35*
X141306657Y-88551921D03*
X141589500Y-88834764D03*
X141872342Y-89117606D03*
X142155185Y-89400449D03*
X142438028Y-89683292D03*
X142720870Y-89966134D03*
X143003713Y-90248977D03*
X143286556Y-90531820D03*
X143569399Y-90814663D03*
X143852241Y-91097505D03*
X144135084Y-91380348D03*
X144417927Y-91663191D03*
X144700769Y-91946033D03*
X144983612Y-92228876D03*
D36*
X145575814Y-87959719D03*
%TD*%
D26*
%TO.C,J3*%
X186850000Y-93640000D03*
%TD*%
D37*
%TO.C,D2*%
X123050000Y-103550000D03*
X126350000Y-103550000D03*
%TD*%
D15*
%TO.C,C10*%
X142150000Y-112525000D03*
X142150000Y-114600000D03*
%TD*%
%TO.C,C6*%
X133900000Y-75575000D03*
X133900000Y-77650000D03*
%TD*%
D26*
%TO.C,J19*%
X175250000Y-91350000D03*
%TD*%
D28*
%TO.C,C32*%
X138469508Y-94688363D03*
X140544508Y-94688363D03*
%TD*%
D38*
%TO.C,Q3*%
X161150000Y-103000000D03*
X159250000Y-103000000D03*
X160200000Y-104875000D03*
%TD*%
D39*
%TO.C,P1*%
X127750000Y-92150000D03*
X127750000Y-92950000D03*
D40*
X127750000Y-94100000D03*
X127750000Y-95100000D03*
X127750000Y-95600000D03*
X127750000Y-96600000D03*
D39*
X127750000Y-97750000D03*
X127750000Y-98550000D03*
X127750000Y-98550000D03*
X127750000Y-97750000D03*
D40*
X127750000Y-97100000D03*
X127750000Y-96100000D03*
X127750000Y-94600000D03*
X127750000Y-93600000D03*
D39*
X127750000Y-92950000D03*
X127750000Y-92150000D03*
D41*
X127150000Y-91030000D03*
D42*
X122950000Y-91030000D03*
D41*
X127150000Y-99680000D03*
D42*
X122950000Y-99680000D03*
%TD*%
D43*
%TO.C,C8*%
X167625000Y-106350000D03*
X166075000Y-106350000D03*
%TD*%
D44*
%TO.C,U5*%
X147007008Y-100695120D03*
X147007008Y-99425120D03*
X147007008Y-98155120D03*
X147007008Y-96885120D03*
X139807008Y-96885120D03*
X139807008Y-98155120D03*
X139807008Y-99425120D03*
X139807008Y-100695120D03*
%TD*%
D37*
%TO.C,D1*%
X176750000Y-103650000D03*
X180050000Y-103650000D03*
%TD*%
D26*
%TO.C,J6*%
X186850000Y-108640000D03*
%TD*%
%TO.C,J18*%
X186850000Y-78640000D03*
%TD*%
D45*
%TO.C,C25*%
X138707008Y-86188363D03*
X136632008Y-86188363D03*
%TD*%
D46*
%TO.C,R9*%
X122500000Y-79540000D03*
X122500000Y-77540000D03*
%TD*%
D26*
%TO.C,J4*%
X186850000Y-89890000D03*
%TD*%
D24*
%TO.C,C24*%
X140550000Y-81087500D03*
X140550000Y-79012500D03*
%TD*%
D26*
%TO.C,J1*%
X186850000Y-86140000D03*
%TD*%
%TO.C,J5*%
X186850000Y-101140000D03*
%TD*%
D47*
%TO.C,D3*%
X133850000Y-81300000D03*
X133850000Y-79200000D03*
%TD*%
D46*
%TO.C,R8*%
X126250000Y-84840000D03*
X126250000Y-82840000D03*
%TD*%
D28*
%TO.C,C2*%
X173912500Y-73800000D03*
X175987500Y-73800000D03*
%TD*%
D16*
%TO.C,R17*%
X132090000Y-97675000D03*
X132090000Y-96025000D03*
%TD*%
D43*
%TO.C,C9*%
X168125000Y-113350000D03*
X166575000Y-113350000D03*
%TD*%
D48*
%TO.C,U2*%
X131500000Y-81040000D03*
X131500000Y-79770000D03*
X131500000Y-78500000D03*
X131500000Y-77230000D03*
X126550000Y-77230000D03*
X126550000Y-78500000D03*
X126550000Y-79770000D03*
X126550000Y-81040000D03*
%TD*%
D28*
%TO.C,C29*%
X138469508Y-92588363D03*
X140544508Y-92588363D03*
%TD*%
D27*
%TO.C,R16*%
X132090000Y-92825000D03*
X132090000Y-94475000D03*
%TD*%
D26*
%TO.C,J2*%
X186850000Y-97390000D03*
%TD*%
D45*
%TO.C,C28*%
X138707008Y-90388363D03*
X136632008Y-90388363D03*
%TD*%
%TO.C,C26*%
X138707008Y-88288363D03*
X136632008Y-88288363D03*
%TD*%
D49*
%TO.C,C14*%
X142850000Y-102750000D03*
X144400000Y-102750000D03*
%TD*%
%TO.C,C7*%
X177075000Y-113350000D03*
X178625000Y-113350000D03*
%TD*%
D50*
%TO.C,Y2*%
X149507008Y-78888363D03*
X149507008Y-81088363D03*
X151207008Y-81088363D03*
X151207008Y-78888363D03*
%TD*%
D33*
%TO.C,C21*%
X148207008Y-93788363D03*
X149674254Y-95255609D03*
%TD*%
D15*
%TO.C,C13*%
X122500000Y-73565000D03*
X122500000Y-75640000D03*
%TD*%
D51*
%TO.C,J11*%
X169450000Y-97560000D03*
D52*
X169450000Y-100100000D03*
X166910000Y-97560000D03*
X166910000Y-100100000D03*
X164370000Y-97560000D03*
X164370000Y-100100000D03*
%TD*%
D53*
%TO.C,J16*%
X162200000Y-108442858D03*
X131900000Y-108442858D03*
D54*
X160300000Y-110492857D03*
X159800000Y-110492857D03*
X159300000Y-110492857D03*
X158800000Y-110492857D03*
X158300000Y-110492857D03*
X157800000Y-110492857D03*
X157300000Y-110492857D03*
X156800000Y-110492857D03*
X156300000Y-110492857D03*
X155800000Y-110492857D03*
X155300000Y-110492857D03*
X154800000Y-110492857D03*
X154300000Y-110492857D03*
X153800000Y-110492857D03*
X153300000Y-110492857D03*
X152800000Y-110492857D03*
X152300000Y-110492857D03*
X151800000Y-110492857D03*
X151300000Y-110492857D03*
X150800000Y-110492857D03*
X150300000Y-110492857D03*
X149800000Y-110492857D03*
X149300000Y-110492857D03*
X148800000Y-110492857D03*
X148300000Y-110492857D03*
X147800000Y-110492857D03*
X147300000Y-110492857D03*
X146800000Y-110492857D03*
X146300000Y-110492857D03*
X145800000Y-110492857D03*
X145300000Y-110492857D03*
X144800000Y-110492857D03*
X144300000Y-110492857D03*
X143800000Y-110492857D03*
X143300000Y-110492857D03*
X142800000Y-110492857D03*
X142300000Y-110492857D03*
X141800000Y-110492857D03*
X141300000Y-110492857D03*
X140800000Y-110492857D03*
X140300000Y-110492857D03*
X139800000Y-110492857D03*
X139300000Y-110492857D03*
X138800000Y-110492857D03*
X138300000Y-110492857D03*
X137800000Y-110492857D03*
X137300000Y-110492857D03*
X136800000Y-110492857D03*
X136300000Y-110492857D03*
X135800000Y-110492857D03*
X135300000Y-110492857D03*
X134800000Y-110492857D03*
X134300000Y-110492857D03*
X133800000Y-110492857D03*
%TD*%
D27*
%TO.C,R18*%
X128590000Y-87275000D03*
X128590000Y-88925000D03*
%TD*%
D26*
%TO.C,J8*%
X186850000Y-71140000D03*
%TD*%
%TO.C,J7*%
X186850000Y-74890000D03*
%TD*%
D16*
%TO.C,R2*%
X171150000Y-73900000D03*
X171150000Y-72250000D03*
%TD*%
D28*
%TO.C,C1*%
X173912500Y-71700000D03*
X175987500Y-71700000D03*
%TD*%
D45*
%TO.C,C23*%
X146082008Y-78788363D03*
X144007008Y-78788363D03*
%TD*%
D55*
%TO.C,R5*%
X126300000Y-73340000D03*
X126300000Y-75340000D03*
%TD*%
D28*
%TO.C,C3*%
X165150000Y-85050000D03*
X167225000Y-85050000D03*
%TD*%
D21*
%TO.C,R13*%
X151032008Y-76988363D03*
X152682008Y-76988363D03*
%TD*%
D26*
%TO.C,J12*%
X175250000Y-87600000D03*
%TD*%
D49*
%TO.C,C15*%
X142850000Y-104700000D03*
X144400000Y-104700000D03*
%TD*%
D26*
%TO.C,J15*%
X186850000Y-82390000D03*
%TD*%
%LPD*%
M02*
